<svg xmlns="http://www.w3.org/2000/svg" width="370.001" height="56.084" viewBox="0 0 370.001 56.084">
  <g id="Component_185_1" data-name="Component 185 – 1" transform="translate(0.5 0.5)">
    <path id="Union_19" data-name="Union 19" d="M10293.524,505.683l2.912-4.222c1.7,1.892,5.579,3.3,8.25,3.347,2.231.049,4.318-1.116,4.318-2.863,0-1.649-1.359-2.327-4.756-2.524-4.512-.339-9.9-1.988-9.9-7.424,0-5.532,5.723-7.474,10.093-7.474,3.735,0,6.552.73,9.316,3.156l-3.3,3.88a8.078,8.078,0,0,0-5.92-2.133c-2.816,0-4.37.872-4.37,2.376,0,1.553,1.408,2.426,4.466,2.62,4.512.293,10.241,1.31,10.241,7.668,0,4.222-3.448,7.862-10.293,7.862C10300.8,509.952,10297.017,509.323,10293.524,505.683Zm-166.5-8.543c0-8.25,5.482-12.568,12.47-12.522,3.2,0,6.262,1.507,7.621,3.883l.194-3.3h5.677v23.925h-5.584l-.287-3.495c-1.359,2.814-5.1,4.173-7.764,4.222h-.112C10132.211,509.857,10127.027,505.492,10127.027,497.141Zm5.918,0a6.854,6.854,0,0,0,7.085,7.279c9.319,0,9.319-14.51,0-14.51A6.813,6.813,0,0,0,10132.945,497.141Zm23.44.049c0-8.493,5.775-12.666,12.713-12.666a11.352,11.352,0,0,1,8.639,3.544L10174,492a7.27,7.27,0,0,0-4.8-1.892,6.732,6.732,0,0,0-6.9,7.085c0,4.561,3.108,6.989,6.795,6.989a7.2,7.2,0,0,0,5.242-1.991l3.981,3.883a12.31,12.31,0,0,1-9.224,3.785C10162.161,509.856,10156.386,505.683,10156.386,497.19Zm-81.039,0c0-8.493,5.775-12.666,12.713-12.666a11.36,11.36,0,0,1,8.639,3.544l-3.738,3.93a7.266,7.266,0,0,0-4.8-1.892,6.731,6.731,0,0,0-6.891,7.085c0,4.561,3.108,6.989,6.795,6.989a7.2,7.2,0,0,0,5.242-1.991l3.979,3.883a12.3,12.3,0,0,1-9.221,3.785C10081.122,509.856,10075.347,505.683,10075.347,497.19ZM10266.2,497c0-7.279,4.949-12.519,12.716-12.519,8.007,0,13.006,4.95,12.084,14.8h-18.686c.389,2.961,2.959,5.1,7.135,5.1,2.183,0,5.048-.826,6.407-2.234l3.784,3.738c-2.526,2.62-6.647,3.88-10.29,3.88C10271.1,509.758,10266.2,504.663,10266.2,497Zm6.213-2.62h12.907c-.386-3.106-2.813-4.66-6.21-4.66C10275.908,489.716,10273.288,491.269,10272.416,494.376Zm-160.287,6.309V490.348h-4.463v-5.095h4.463v-6.166l5.921-.629v6.8h6.6v5.095H10118v10.337c0,2.281,1.261,3.4,3.1,3.4a6.775,6.775,0,0,0,2.862-.727l1.649,5.045a13.208,13.208,0,0,1-4.9,1.02c-.16.006-.318.009-.476.009C10115.319,509.428,10112.129,506.468,10112.129,500.684Zm144.854,8.444V496.607c0-3.64-1.988-6.407-5.772-6.407-3.64,0-6.115,3.06-6.115,6.7v12.229h-5.871V485.155h5.289l.389,3.251c2.425-2.379,4.854-3.591,7.858-3.591,5.631,0,10.143,4.222,10.143,11.742v12.571Zm-76.771,0V485.106h5.921v24.023Zm-81.039,0V485.106h5.921v24.023Zm-32.951,0V485.106h5.923v24.023Zm-27.223,0V475.157h6.4v28.048h17.471v5.923Zm140.68-30.671c0-4.61,6.987-4.61,6.987,0a3.494,3.494,0,0,1-6.987,0Zm-81.039,0c0-4.61,6.987-4.61,6.987,0a3.494,3.494,0,0,1-6.987,0Zm-32.949,0c0-4.61,6.987-4.61,6.987,0a3.494,3.494,0,0,1-6.987,0Z" transform="translate(-10038.999 -474.577)" fill="#686868" stroke="rgba(0,0,0,0)" stroke-width="1"/>
    <path id="Union_21" data-name="Union 21" d="M10104.318,497.613c0-6.841,4.753-12.472,12.374-12.472a12.094,12.094,0,0,1,12.521,12.472c0,6.892-4.708,12.472-12.472,12.472S10104.318,504.5,10104.318,497.613Zm5.92,0c0,3.64,2.187,7.037,6.5,7.037s6.5-3.4,6.5-7.037c0-3.592-2.524-7.085-6.5-7.085C10112.471,490.528,10110.238,494.021,10110.238,497.613ZM10039,506.5c0-4.611,6.986-4.611,6.986,0a3.493,3.493,0,0,1-6.986,0Zm51.533,3.056V491.159h-4.464v-5.191h4.464v-1.6c0-6.406,4.322-9.365,9.124-9.365a11.545,11.545,0,0,1,6.213,1.94l-2.187,4.416a6.563,6.563,0,0,0-3.635-1.261c-2.041,0-3.592,1.357-3.592,4.271v1.6h7.039v5.191h-7.039v18.392Zm-12.227,0v-12.52c0-3.64-1.993-6.406-5.776-6.406-3.638,0-6.113,3.058-6.113,6.7v12.228h-5.87V485.579h5.288l.389,3.251c2.425-2.377,4.851-3.592,7.86-3.592,5.628,0,10.143,4.222,10.143,11.744v12.568Zm-28.146,0v-24.02h5.921v24.02Zm-.534-30.668c0-4.611,6.991-4.611,6.991,0a3.5,3.5,0,0,1-6.991,0Z" transform="translate(-9760.212 -475.001)" fill="#00a1c9" stroke="rgba(0,0,0,0)" stroke-width="1"/>
    <g id="Group_109" data-name="Group 109" transform="translate(142.79 1.449)">
      <g id="Group_108" data-name="Group 108">
        <path id="Union_20" data-name="Union 20" d="M9436.044,175.3l-5.834-5.831,12.353-12.355a22.116,22.116,0,0,1,18.924-33.561,21.12,21.12,0,0,1,15.592,6.488,22.268,22.268,0,0,1,0,31.3,21.129,21.129,0,0,1-15.592,6.488,21.455,21.455,0,0,1-11.427-3.213L9437.7,176.975Zm7.59-29.391a17.7,17.7,0,1,0,17.7-17.705A17.7,17.7,0,0,0,9443.634,145.906Zm17.738,13.709h-.057a13.716,13.716,0,0,1-10.471-4.955c-.23-.276-.449-.564-.656-.859a13.677,13.677,0,0,1,0-15.837q.311-.443.656-.859a13.71,13.71,0,0,1,10.471-4.953l.047,0,.013,0,.019,0a13.708,13.708,0,0,1,10.551,4.955c.23.276.45.564.659.859a13.677,13.677,0,0,1,0,15.837q-.313.443-.659.862a13.709,13.709,0,0,1-10.551,4.953Zm-5.979-7.271c1.131,3.415,3.127,5.788,5.438,6.1v-6.935A20.855,20.855,0,0,0,9455.394,152.344Zm6.566,6.1c2.285-.352,4.258-2.72,5.379-6.114a20.992,20.992,0,0,0-5.379-.814Zm3.349-.576a12.634,12.634,0,0,0,5.722-3.879,13.017,13.017,0,0,0-2.645-1.307A12.84,12.84,0,0,1,9465.309,157.864Zm-13.55-3.879a12.622,12.622,0,0,0,5.622,3.844,12.777,12.777,0,0,1-3.034-5.131A13,13,0,0,0,9451.759,153.984Zm17.658-6.966.5.407a.466.466,0,0,1,.188.347.505.505,0,0,1-.121.383l-.771.881a20.983,20.983,0,0,1-.509,2.587,14.554,14.554,0,0,1,2.994,1.5,12.492,12.492,0,0,0,2.258-6.231h-4.531C9469.424,146.937,9469.419,146.977,9469.417,147.018Zm-18.324,6.107a14.432,14.432,0,0,1,2.933-1.478,21.822,21.822,0,0,1-.729-4.753h-4.463A12.53,12.53,0,0,0,9451.093,153.125Zm3.984-1.837a21.457,21.457,0,0,1,5.755-.9v-.5l-1.007-3h-5.4A20.826,20.826,0,0,0,9455.077,151.288Zm6.883-1.161v.259a21.424,21.424,0,0,1,5.69.885c.067-.248.112-.514.164-.771a.5.5,0,0,1-.469-.09l-3.589-2.889Zm2-3.746,3.625,2.932,1.252-1.428-3.463-2.806a.522.522,0,0,1-.188-.424.536.536,0,0,1,.227-.4l2.313-1.568-9.025-2.292,2.86,8.494,1.654-2.4a.508.508,0,0,1,.258-.2.6.6,0,0,1,.095-.021.493.493,0,0,1,.073-.005A.511.511,0,0,1,9463.964,146.38Zm4.739-6.236c.164.593.292,1.216.4,1.849a.5.5,0,0,1,.143.883,22.728,22.728,0,0,1,.2,2.889H9474a12.555,12.555,0,0,0-2.3-7.123A14.553,14.553,0,0,1,9468.7,140.144Zm-2.136,4.567,1.3,1.054h.45c0-.74-.058-1.457-.129-2.163Zm-12.166,1.054h5.041l-1.573-4.674a20.112,20.112,0,0,1-2.787-.612A21.192,21.192,0,0,0,9454.4,145.766Zm-5.61,0h4.484a21.765,21.765,0,0,1,.752-5.645,14.454,14.454,0,0,1-2.935-1.48A12.554,12.554,0,0,0,9448.791,145.766Zm16.561-4.739,2.554.65c-.076-.4-.159-.8-.26-1.178A20.069,20.069,0,0,1,9465.352,141.027Zm-3.392-.864.293.074a20.612,20.612,0,0,0,5.081-.8c-1.116-3.392-3.089-5.76-5.374-6.112Zm-6.564-.74a19.057,19.057,0,0,0,2.073.481l-.023-.074a.527.527,0,0,1,.1-.512.5.5,0,0,1,.5-.15l2.785.709v-6.559C9458.521,133.635,9456.526,136.01,9455.4,139.423Zm12.988-.333a13.038,13.038,0,0,0,2.649-1.309,12.633,12.633,0,0,0-5.725-3.879A12.858,12.858,0,0,1,9468.384,139.09Zm-16.627-1.309a13.02,13.02,0,0,0,2.59,1.29,12.858,12.858,0,0,1,3.034-5.136A12.617,12.617,0,0,0,9451.757,137.781Z" transform="translate(-9430.211 -123.55)" fill="#00a1c9" stroke="rgba(0,0,0,0)" stroke-width="1"/>
      </g>
    </g>
  </g>
</svg>
