<svg xmlns="http://www.w3.org/2000/svg" width="47.827" height="38.197" viewBox="0 0 47.827 38.197">
  <g id="Component_265_1" data-name="Component 265 – 1" transform="translate(0 0.25)">
    <g id="alert-circle-outline" transform="translate(29.091)">
      <path id="Path_40720" data-name="Path 40720" d="M105.243,96A9.243,9.243,0,1,1,96,105.243,9.254,9.254,0,0,1,105.243,96Zm0,17.064a7.821,7.821,0,1,0-7.821-7.821A7.83,7.83,0,0,0,105.243,113.064Z" transform="translate(-96 -96)" fill="#ffc107" stroke="#ffc107" stroke-width="0.5"/>
      <path id="Path_40721" data-name="Path 40721" d="M469.474,288.1a.967.967,0,0,1,.966.966c0,.012,0,.036,0,.048l-.254,5.416a.711.711,0,0,1-1.421,0l-.255-5.419c0-.011,0-.034,0-.045a.969.969,0,0,1,.957-.966Z" transform="translate(-460.231 -283.831)" fill="#ffc107" stroke="#ffc107" stroke-linecap="round" stroke-width="0.5"/>
      <path id="Path_40722" data-name="Path 40722" d="M472.889,657.6a.889.889,0,1,1,.889-.889h0a.889.889,0,0,1-.889.889Z" transform="translate(-463.646 -643.381)" fill="#ffc107" stroke="#ffc107" stroke-width="0.5"/>
    </g>
    <g id="barcode-outline" transform="translate(-96 -176.453)">
      <path id="Path_40723" data-name="Path 40723" d="M737.119,214.4a1.119,1.119,0,0,1-.01-2.238l2.457-.023a.913.913,0,0,0,.911-.9v-16.1a.911.911,0,0,0-.9-.9l-2.441.023h-.011a1.119,1.119,0,0,1-.01-2.238l2.457-.023a3.16,3.16,0,0,1,3.148,3.132v16.107a3.157,3.157,0,0,1-3.132,3.137l-2.451.023Z" transform="translate(-617.623 -0.001)" fill="#686868"/>
      <path id="Path_40724" data-name="Path 40724" d="M99.031,214.4A3.05,3.05,0,0,1,96,211.263v-16.1a3.048,3.048,0,0,1,3.021-3.138l2.563-.023a1.119,1.119,0,0,1,.02,2.238l-2.573.023a.826.826,0,0,0-.793.9v16.1a.824.824,0,0,0,.783.9l2.563-.023a1.119,1.119,0,0,1,.02,2.238Z" fill="#686868"/>
      <path id="Path_40725" data-name="Path 40725" d="M737.119,363.189A1.119,1.119,0,0,1,736,362.07v-8.951a1.119,1.119,0,1,1,2.238,0v8.951A1.119,1.119,0,0,1,737.119,363.189Z" transform="translate(-617.623 -154.406)" fill="#686868"/>
      <path id="Path_40726" data-name="Path 40726" d="M609.119,303.664A1.119,1.119,0,0,1,608,302.545V289.119a1.119,1.119,0,1,1,2.238,0v13.426A1.119,1.119,0,0,1,609.119,303.664Z" transform="translate(-494.098 -92.643)" fill="#686868"/>
      <path id="Path_40727" data-name="Path 40727" d="M481.119,333.426A1.119,1.119,0,0,1,480,332.307V321.119a1.119,1.119,0,1,1,2.238,0v11.189A1.119,1.119,0,0,1,481.119,333.426Z" transform="translate(-370.574 -123.525)" fill="#686868"/>
      <path id="Path_40728" data-name="Path 40728" d="M353.119,303.664A1.119,1.119,0,0,1,352,302.545V289.119a1.119,1.119,0,1,1,2.238,0v13.426A1.119,1.119,0,0,1,353.119,303.664Z" transform="translate(-247.049 -92.643)" fill="#686868"/>
      <path id="Path_40729" data-name="Path 40729" d="M225.119,363.189A1.119,1.119,0,0,1,224,362.07v-8.951a1.119,1.119,0,0,1,2.238,0v8.951A1.119,1.119,0,0,1,225.119,363.189Z" transform="translate(-123.525 -154.406)" fill="#686868"/>
    </g>
  </g>
</svg>
