<svg id="Component_267_1" data-name="Component 267 – 1" xmlns="http://www.w3.org/2000/svg" xmlns:xlink="http://www.w3.org/1999/xlink" width="43.763" height="40" viewBox="0 0 43.763 40">
  <defs>
    <clipPath id="clip-path">
      <rect id="Rectangle_4630" data-name="Rectangle 4630" width="43.763" height="40" fill="none"/>
    </clipPath>
  </defs>
  <g id="Group_10006" data-name="Group 10006" clip-path="url(#clip-path)">
    <path id="Path_41279" data-name="Path 41279" d="M29.391,35.609a3.921,3.921,0,0,0-.707.724,10.67,10.67,0,0,1-6.293,3.5A17.172,17.172,0,0,1,13.1,38.4,17.415,17.415,0,0,1,8.5,35.791a7.416,7.416,0,0,1-1.282-1.312.48.48,0,0,1,.44-.061,7.651,7.651,0,0,0,1.835.112c4.523.007,9.046-.011,13.567.008,1.053.044,2.107.015,3.154.017.075-.216-.078-.282-.162-.369-.477-.488-.963-.967-1.445-1.451A6.021,6.021,0,0,1,26.2,23.1a6.592,6.592,0,0,1,1.168-.516,27.267,27.267,0,0,0-4.133-.872c-1.176-.054-2.345-.233-3.523-.2A28.35,28.35,0,0,0,7.437,24.533,2.685,2.685,0,0,0,5.812,27.2c.049,1.741-.043,3.483.047,5.224a.346.346,0,0,1-.1.326A32.422,32.422,0,0,1,.532,20.356,24.837,24.837,0,0,1,.043,13.8,11.812,11.812,0,0,1,2.267,7.022,8.939,8.939,0,0,1,6.5,4.1a11.8,11.8,0,0,1,5.388-.513c.539.065,1.085.044,1.63.1a34.99,34.99,0,0,0,5.371.1,33.854,33.854,0,0,0,7.6-1.391c1.935-.566,3.78-1.372,5.678-2.032a6.362,6.362,0,0,1,7.2,2.267,20.022,20.022,0,0,1,3.858,9.014,26.208,26.208,0,0,1,.5,6.808,9.9,9.9,0,0,1-1.314,5.028,2.711,2.711,0,0,1-1.938,1.281,7.181,7.181,0,0,0-2.785,1.105.407.407,0,0,0-.214.324c-.247-.008-.331-.222-.452-.375a4.288,4.288,0,0,0-5.154-1.338,1.67,1.67,0,0,1-1.45,0,4.3,4.3,0,0,0-5.851,2.635,4.244,4.244,0,0,0,1.049,4.5c1.116,1.157,2.271,2.275,3.4,3.417.162.164.39.3.374.58" transform="translate(0 0)" fill="#f8dfe7"/>
    <path id="Path_41280" data-name="Path 41280" d="M41.465,167.628c-.151-2.079-.086-4.161-.039-6.24a2.195,2.195,0,0,1,1.286-1.905,27.611,27.611,0,0,1,9.033-2.941,29.067,29.067,0,0,1,7.249-.089,3.267,3.267,0,0,1-.125,2.075c-.1.294-.476.238-.737.2a21.99,21.99,0,0,0-3.168-.081,23.913,23.913,0,0,0-8.006,1.495c-.593.213-1.179.45-1.753.714-1.682.857-1.39.421-1.414,2.278-.015,1.127-.007,2.254,0,3.381,0,.59.059.64.647.649.239,0,.478,0,.718,0,3.112-.037,6.224-.007,9.336-.016,1.111,0,2.223,0,3.334,0,1.268,0,1.268,0,1.268,1.293,0,.205.006.411-.007.616a.575.575,0,0,1-.2.5q-7.148,0-14.3-.005a5.781,5.781,0,0,1-1.667-.2,2.886,2.886,0,0,1-1.458-1.731" transform="translate(-35.708 -134.881)"/>
    <path id="Path_41281" data-name="Path 41281" d="M181.992,186.746c-1.31-1.323-2.64-2.628-3.926-3.974a4.519,4.519,0,0,1,1.907-7.451,4.337,4.337,0,0,1,3.466.329.526.526,0,0,0,.559.028,4.453,4.453,0,0,1,6,1.585.4.4,0,0,0,.075.066,4.575,4.575,0,0,1-1.081,5.871l-.362.362q-1.951,1.956-3.9,3.911c-.727.727-1.246.725-1.964.012-.253-.251-.514-.492-.772-.737" transform="translate(-152.6 -151.137)"/>
    <path id="Path_41282" data-name="Path 41282" d="M104.846,36.989a7.666,7.666,0,1,1-7.6-7.673,7.659,7.659,0,0,1,7.6,7.673" transform="translate(-77.262 -25.303)"/>
    <path id="Path_41283" data-name="Path 41283" d="M59.141,188.985a37.538,37.538,0,0,0-.1,4.427c-.02.714,0,1.429,0,2.144-1.783.075-1.456.112-1.474-1.315-.017-1.362,0-2.724-.01-4.086a.573.573,0,0,1,.384-.631,9.932,9.932,0,0,1,1.2-.539" transform="translate(-49.676 -163.119)" fill="#d5dae0"/>
    <path id="Path_41284" data-name="Path 41284" d="M197.624,191.614a2.218,2.218,0,0,1,2.664.138c.832.652,1.106.653,1.917.007a2.323,2.323,0,0,1,3.123.171,2.278,2.278,0,0,1,.108,3.121c-1.3,1.381-2.669,2.7-4,4.045-.151.153-.241.12-.372-.013q-1.653-1.681-3.313-3.355a3.843,3.843,0,0,1-.126-4.113" transform="translate(-170.112 -165.06)" fill="#d7406e"/>
    <path id="Path_41285" data-name="Path 41285" d="M193.921,194.006c-.1.355-.2.709-.29,1.066a4.816,4.816,0,0,0,.416,3.047c-1.1-.908-1.47-1.83-1.123-2.877a2.016,2.016,0,0,1,1-1.236" transform="translate(-166.409 -167.452)" fill="#c9003d"/>
    <path id="Path_41286" data-name="Path 41286" d="M13.561,279.719a.643.643,0,0,1-.7-.7.708.708,0,0,1,.68-.743.775.775,0,0,1,.757.742.761.761,0,0,1-.739.7" transform="translate(-11.103 -240.192)" fill="#fdfdfd"/>
    <path id="Path_41287" data-name="Path 41287" d="M117.273,45.648a5.406,5.406,0,0,1,7.452,3.712,5.2,5.2,0,0,1-1.814,5.476,5.293,5.293,0,0,1-5.616.856.567.567,0,0,1-.123-.09,4.953,4.953,0,0,1-1.455-2.365,7.732,7.732,0,0,1,.871-6.909,2.565,2.565,0,0,1,.684-.678" transform="translate(-99.497 -38.973)" fill="#f2f2f0"/>
    <path id="Path_41288" data-name="Path 41288" d="M109,48.765a7.577,7.577,0,0,0-1.845,5.262,7.44,7.44,0,0,0,1.466,4.267c.1.136.186.283.278.425a5.441,5.441,0,0,1-1.909-8.507A4.728,4.728,0,0,1,109,48.765" transform="translate(-91.22 -42.091)" fill="#d5dae0"/>
  </g>
</svg>
