<svg id="Component_269_1" data-name="Component 269 – 1" xmlns="http://www.w3.org/2000/svg" xmlns:xlink="http://www.w3.org/1999/xlink" width="41.839" height="46.402" viewBox="0 0 41.839 46.402">
  <defs>
    <clipPath id="clip-path">
      <rect id="Rectangle_4632" data-name="Rectangle 4632" width="41.839" height="46.402" fill="none"/>
    </clipPath>
  </defs>
  <g id="Group_10015" data-name="Group 10015" clip-path="url(#clip-path)">
    <path id="Path_41296" data-name="Path 41296" d="M30.5,41.49c-.422-.016-.608.361-.874.57a20.242,20.242,0,0,1-8.5,4.007,15.923,15.923,0,0,1-4.417.291,16.244,16.244,0,0,1-8.258-2.94A18.507,18.507,0,0,1,1.605,33.59,30.021,30.021,0,0,1,.376,27.9c-.155-1.235-.22-2.475-.3-3.716A26.784,26.784,0,0,1,.021,21.2a56.613,56.613,0,0,1,.427-5.762c.207-1.37.473-2.721.783-4.067.378.02.519.361.751.57.384.346.373.358.775-.044.375-.375.376-.376.027-.727-.318-.32-.642-.634-.954-.959-.113-.118-.279-.215-.235-.424A4.8,4.8,0,0,0,2.34,8.15,13.4,13.4,0,0,1,8.585,1.143,10.731,10.731,0,0,1,14.3.036a12.586,12.586,0,0,1,2.947.684c2.041.681,4.068,1.4,6.116,2.06a32.945,32.945,0,0,0,6.08,1.382,48.073,48.073,0,0,0,4.843.281,6.368,6.368,0,0,1,3.944,1.485,9.687,9.687,0,0,1,3.14,5.643,18.64,18.64,0,0,1,.468,4.534,32.512,32.512,0,0,1-.737,6.328,38.451,38.451,0,0,1-3.448,9.6,31.491,31.491,0,0,1-4.1,6.171,3.106,3.106,0,0,0-.25.393c-.17.088-.3-.033-.433-.094a1.877,1.877,0,0,0-2.153.361,1.849,1.849,0,0,0-.366,2.149c.067.151.207.281.151.472" transform="translate(0 0)" fill="#edf8e2"/>
    <path id="Path_41297" data-name="Path 41297" d="M48.071,112.984a.405.405,0,0,0-.01-.093c-.3-.865-.3-.863.541-1.217a5.5,5.5,0,0,1,1.686-.534,3.377,3.377,0,0,1,2.811,1.01.556.556,0,0,0,.791.1c1-.516,2.011-1,3-1.516a3.7,3.7,0,0,1,3.292-.138q2.657,1.1,5.319,2.178c.114.047.23.086.35.13.105-.982.377-1.227,1.345-1.228s1.907-.006,2.86,0a1.015,1.015,0,0,1,1.158,1.149q.009,5.511,0,11.021c0,.788-.4,1.163-1.2,1.166q-1.477.005-2.954,0c-.809,0-1.174-.367-1.182-1.17,0-.262,0-.523,0-.79-.181-.013-.229.127-.311.205a3.528,3.528,0,0,1-3.631.879c-.18-.052-.355-.117-.532-.178-1.423-.492-1.422-.488-2.751.115-.154.07-.14.185-.166.3a2.726,2.726,0,0,1-2.546,2.231c-.237.019-.3.114-.373.312a2.78,2.78,0,0,1-4.545,1.144c-1.066-.941-2.106-1.912-3.176-2.849a5.607,5.607,0,0,0-3.009-1.293c-.188-.026-.3-.031-.344.226a.949.949,0,0,1-1,.863q-1.641.021-3.283,0a.987.987,0,0,1-1.027-1c-.025-.374-.008-.75-.008-1.125q0-4.948,0-9.9c0-1,.32-1.313,1.324-1.314q1.336,0,2.673,0c1.042,0,1.333.29,1.339,1.332,0,.093,0,.186,0,.3A2.491,2.491,0,0,0,45.4,113c.237-.1.362-.1.442.176a4.426,4.426,0,0,0,.267.594,1.5,1.5,0,0,1,.409.973c-.075.153-.229.2-.365.267-.37.167-.752.3-1.123.47a.576.576,0,0,0-.385.577q0,2.645,0,5.29c0,.28.1.433.4.452a5.492,5.492,0,0,1,1.056.2,8.624,8.624,0,0,1,2.433,1.06c1.16.849,2.157,1.884,3.229,2.835a8.578,8.578,0,0,0,.712.605.65.65,0,0,0,.959-.054.685.685,0,0,0-.127-.932c-.3-.319-.622-.616-.923-.934-.325-.343-.327-.452-.012-.785.257-.273.525-.536.8-.8.377-.364.485-.367.854-.011.405.391.792.8,1.2,1.19.358.344.721.381.994.12a.707.707,0,0,0-.058-.977c-.273-.343-.611-.626-.911-.944-.343-.364-.344-.442.012-.81.272-.281.551-.555.83-.828a.411.411,0,0,1,.653,0c.326.315.636.647.967.956.377.352.764.387,1.034.105a.766.766,0,0,0-.1-1.086c-.934-.945-1.882-1.877-2.814-2.825a.524.524,0,0,0-.707-.109,2.806,2.806,0,0,1-4.041-2.194,2.668,2.668,0,0,1,.286-1.543c.211-.435.145-.566-.312-.716a1.477,1.477,0,0,0-1.005.051,6.5,6.5,0,0,1-1.532.548,1.1,1.1,0,0,1-.451-.935" transform="translate(-34.277 -96.477)"/>
    <path id="Path_41298" data-name="Path 41298" d="M96.533,131.913c.212.267.212.646.47.889.009.117-.077.166-.16.2-.513.226-1.024.455-1.551.645a.323.323,0,0,1-.353-.017l-.364-.935,1.959-.785" transform="translate(-82.74 -115.406)" fill="#73c914"/>
    <path id="Path_41299" data-name="Path 41299" d="M94.465,134.623a17.587,17.587,0,0,0,2.064-.831c.49-.2.98-.4,1.469-.609a1.478,1.478,0,0,1,1.048-.074c.6.188.678.33.409.873a2.672,2.672,0,0,0,.452,3.042,2.536,2.536,0,0,0,2.993.629.884.884,0,0,1,1.248.265c.83.891,1.71,1.734,2.575,2.592a.9.9,0,0,1,.345.733.807.807,0,0,1-.507.726.7.7,0,0,1-.817-.164c-.37-.359-.742-.716-1.09-1.1-.188-.205-.3-.183-.481.008-.37.4-1.032.759-1.069,1.179s.675.774,1.039,1.176c.135.15.31.277.354.485a.762.762,0,0,1-1.273.745c-.468-.459-.931-.924-1.381-1.4-.17-.181-.285-.236-.478-.022a13.627,13.627,0,0,1-.993.993c-.216.195-.156.311.023.478.364.342.715.7,1.062,1.058a.688.688,0,0,1,.046,1.035c-.535-.147-.844-.6-1.228-.941a13.091,13.091,0,0,0-2.19-1.735,10.662,10.662,0,0,0-1.58-.69,12.286,12.286,0,0,0-2.32-1.04.877.877,0,0,1-.149-.622q0-3,0-5.991a.91.91,0,0,1,.148-.623l.282-.177" transform="translate(-82.266 -116.396)" fill="#a8dd6c"/>
    <path id="Path_41300" data-name="Path 41300" d="M160.528,136.032c-.429-.136-.857-.275-1.288-.406-.181-.055-.226-.157-.216-.345a2.93,2.93,0,0,0-.977-2.336c-.805-.784-1.584-1.6-2.394-2.374-.244-.234-.191-.336.079-.438a.3.3,0,0,0,.043-.018,7.455,7.455,0,0,0,1.137-.627c-.266-.545-.521-1.1-.8-1.633-.105-.2-.254-.019-.357.032-1.157.574-2.309,1.158-3.461,1.742a.793.793,0,0,1-.882.011.684.684,0,0,1,.081-1.169c1.508-.777,3.028-1.532,4.551-2.28a1.308,1.308,0,0,1,1.094-.008q2.5,1.028,5,2.064a.825.825,0,0,1,.144.619c0,1.9-.006,3.8.008,5.7a1.012,1.012,0,0,1-.549.994c-.385.212-.7.6-1.214.474" transform="translate(-132.209 -110.293)" fill="#f2f2f0"/>
    <path id="Path_41301" data-name="Path 41301" d="M56.63,141.983c0,1.4-.011,2.809.008,4.213,0,.353-.072.49-.457.481-.88-.02-.88,0-.88-.892,0-2.668.007-5.337-.008-8,0-.359.08-.48.458-.469.879.025.879,0,.879.88v3.792" transform="translate(-48.374 -120.128)" fill="#a8dd6c"/>
    <path id="Path_41302" data-name="Path 41302" d="M268.436,141.975c0-1.42.008-2.84-.007-4.259,0-.294.058-.4.377-.394.96.009.961-.006.961.972,0,2.621-.008,5.242.008,7.863,0,.385-.053.549-.5.528-.841-.041-.842-.01-.842-.872v-3.838" transform="translate(-234.839 -120.139)" fill="#f2f2f0"/>
    <path id="Path_41303" data-name="Path 41303" d="M83.521,147.072v7.236a12.89,12.89,0,0,0-1.428-.2c-.215.005-.249-.124-.249-.3q0-2.918,0-5.836a.3.3,0,0,1,.2-.324c.493-.187.982-.382,1.473-.573" transform="translate(-71.604 -128.668)" fill="#73c914"/>
    <path id="Path_41304" data-name="Path 41304" d="M226.311,151.274a4.276,4.276,0,0,0,1.522-.875c.158-.1.088-.288.089-.437q0-3.236,0-6.472c.475.186.949.378,1.428.557a.344.344,0,0,1,.254.378q-.014,2.219,0,4.438a.6.6,0,0,1-.2.45c-.52.537-1.026,1.088-1.559,1.612a1.371,1.371,0,0,1-1.535.348" transform="translate(-197.992 -125.535)" fill="#d4dae0"/>
    <path id="Path_41305" data-name="Path 41305" d="M113.779,213.212a4.321,4.321,0,0,1,2.335,1.052c.923.727,1.779,1.539,2.664,2.314a.725.725,0,0,1-1.142.047c-.833-.732-1.646-1.487-2.474-2.225-.454-.4-.921-.793-1.382-1.189" transform="translate(-99.541 -186.532)" fill="#73c914"/>
  </g>
</svg>
