<svg id="Component_270_1" data-name="Component 270 – 1" xmlns="http://www.w3.org/2000/svg" xmlns:xlink="http://www.w3.org/1999/xlink" width="41.81" height="46.401" viewBox="0 0 41.81 46.401">
  <defs>
    <clipPath id="clip-path">
      <rect id="Rectangle_4633" data-name="Rectangle 4633" width="41.81" height="46.401" fill="none"/>
    </clipPath>
  </defs>
  <g id="Group_10017" data-name="Group 10017" clip-path="url(#clip-path)">
    <path id="Path_41306" data-name="Path 41306" d="M37.01,42.3c-.267.022-.391.246-.545.41a11.374,11.374,0,0,1-4.85,3.127,12.1,12.1,0,0,1-3.43.568,10,10,0,0,1-3.237-.583c-2.418-.762-4.756-1.75-7.163-2.543a32.783,32.783,0,0,0-6.154-1.427,24.541,24.541,0,0,0-3.345-.213,7.248,7.248,0,0,1-5.215-1.874A8.378,8.378,0,0,1,.963,36.443a16.823,16.823,0,0,1-.954-5.428,32.072,32.072,0,0,1,1.98-11.5A36.423,36.423,0,0,1,7.566,9.172a27.078,27.078,0,0,1,5.081-5.043A20.3,20.3,0,0,1,20.105.517,21.31,21.31,0,0,1,23.273.054a15.316,15.316,0,0,1,7.093,1.173,15.267,15.267,0,0,1,4.215,2.536,17.469,17.469,0,0,1,4.587,5.991,27.218,27.218,0,0,1,2.162,7.154,46.184,46.184,0,0,1,.429,9.255,35.642,35.642,0,0,1-1.673,10.1c-.3.9-.676,1.769-1.018,2.653-.156.073-.264-.041-.382-.1A1.868,1.868,0,0,0,35.879,40.1a1.907,1.907,0,0,0,.791,1.86c.129.091.338.112.34.335" transform="translate(0 0)" fill="#fff7e0"/>
    <path id="Path_41307" data-name="Path 41307" d="M132.865,127.653a7.535,7.535,0,0,1,1.792,2.644.321.321,0,0,1-.251.253c-.475.115-.421.392-.321.774a7.3,7.3,0,0,1-2.482,7.984,6.663,6.663,0,0,0-2.4,3.749.825.825,0,0,1-.151.389,9.384,9.384,0,0,1-2.363.069c-.179,0-.266-.148-.3-.313a6.306,6.306,0,0,0-2.419-3.491,7.93,7.93,0,0,1-2.744-5.734,8.333,8.333,0,0,1,1.878-5.863,8.659,8.659,0,0,1,2.065-1.807,7.211,7.211,0,0,1,6.516,1.425c.334.282.6.425.927.019a.287.287,0,0,1,.253-.1" transform="translate(-106.074 -110.297)" fill="#ffd864"/>
    <path id="Path_41308" data-name="Path 41308" d="M107.773,114.6c-.29.148-.422.613-.734.569-.262-.037-.476-.37-.723-.555a7.153,7.153,0,0,0-6.209-1.266c-.509.272-1.064.442-1.575.711a7.184,7.184,0,0,0-1.144,11.976,6.532,6.532,0,0,1,2.459,3.856c.053.251.138.436.442.445,1.166.033,2.332.116,3.5.078a.2.2,0,0,0,.127-.048,6.8,6.8,0,0,1,2.575-4.248,7.221,7.221,0,0,0,2.316-8.036c-.125-.368-.069-.532.294-.629a3.058,3.058,0,0,0,.466-.208,1.04,1.04,0,0,0,.134-.033c.84-.326.84-.326,1.1.523a9.257,9.257,0,0,1-3.012,9.9,4.771,4.771,0,0,0-1.839,2.786,11.3,11.3,0,0,0-.061,1.962c-.012.655.033,1.315-.039,1.963a2.265,2.265,0,0,1-2.272,2.068c-1.123.034-2.248.032-3.37,0a2.3,2.3,0,0,1-2.261-2.092,18.142,18.142,0,0,1-.058-2.758,4.777,4.777,0,0,0-1.869-3.93,9.288,9.288,0,0,1,4.361-16.375,9.061,9.061,0,0,1,7.763,2.26c.3.257.332.424.01.664a2.9,2.9,0,0,0-.377.41" transform="translate(-80.981 -97.24)"/>
    <path id="Path_41309" data-name="Path 41309" d="M159.241,60c0-.653.015-1.307-.007-1.96-.01-.295.089-.377.373-.364.45.021.9.014,1.353,0,.219-.006.3.066.3.292q-.012,2.03,0,4.061c0,.209-.083.269-.276.266-.482-.007-.965-.014-1.447,0-.265.009-.3-.116-.3-.339.011-.653,0-1.307,0-1.96" transform="translate(-139.347 -50.471)" fill="#010101"/>
    <path id="Path_41310" data-name="Path 41310" d="M41.59,179.658c-.654,0-1.307-.011-1.96.005-.264.006-.356-.076-.345-.343.019-.45.015-.9,0-1.353-.007-.234.056-.33.311-.328q2.007.016,4.014,0c.226,0,.3.076.3.3-.011.482-.012.965,0,1.447.006.237-.1.283-.31.28-.669-.009-1.338,0-2.007,0" transform="translate(-34.378 -155.454)" fill="#010101"/>
    <path id="Path_41311" data-name="Path 41311" d="M260.7,179.654c-.654,0-1.307-.011-1.96.006-.261.007-.359-.069-.348-.338.018-.45.013-.9,0-1.353-.006-.225.04-.336.3-.333,1.338.012,2.676.009,4.014,0,.216,0,.307.06.3.29q-.019.723,0,1.447c.007.235-.1.287-.306.285-.669-.009-1.338,0-2.007,0" transform="translate(-226.124 -155.45)" fill="#010101"/>
    <path id="Path_41312" data-name="Path 41312" d="M73.07,89.731c.081.075.15.135.215.2.938.937,1.874,1.878,2.817,2.811.156.154.224.259.024.441-.358.325-.7.672-1.028,1.024-.144.152-.232.138-.373,0q-1.432-1.448-2.879-2.881c-.13-.129-.188-.213-.02-.369.366-.339.71-.7,1.064-1.055.053-.053.11-.1.18-.167" transform="translate(-62.766 -78.525)"/>
    <path id="Path_41313" data-name="Path 41313" d="M231.283,91.577c-.083.089-.144.158-.208.223-.934.935-1.874,1.864-2.8,2.809-.189.193-.3.188-.474,0-.3-.333-.627-.648-.956-.957-.166-.155-.2-.257-.015-.439q1.433-1.4,2.838-2.836c.174-.177.274-.172.437,0,.316.342.656.663.985.994.063.063.121.131.191.207" transform="translate(-198.393 -78.971)"/>
    <path id="Path_41314" data-name="Path 41314" d="M73.077,249.678c-.065-.058-.121-.1-.172-.155-.353-.351-.7-.714-1.061-1.051-.181-.167-.127-.259.019-.4q1.426-1.411,2.836-2.839c.175-.179.283-.17.439.009a15.282,15.282,0,0,1,1.145,1.212c-.368.379-.732.761-1.1,1.136q-.92.928-1.847,1.848c-.076.076-.156.149-.255.244" transform="translate(-62.772 -214.489)"/>
    <path id="Path_41315" data-name="Path 41315" d="M228.047,244.667c.078.067.149.122.212.184.947.945,1.888,1.9,2.842,2.833.175.172.176.273,0,.437-.343.316-.676.645-.989.99-.176.194-.276.152-.438-.012q-1.392-1.412-2.805-2.8c-.188-.184-.2-.295,0-.474.333-.3.641-.634.961-.952.065-.065.135-.125.22-.2" transform="translate(-198.406 -214.111)"/>
    <path id="Path_41316" data-name="Path 41316" d="M303.779,322.941c-.122-.368.222-.518.357-.765.006.314.07.654-.357.765" transform="translate(-265.817 -281.94)" fill="#f4f5f7"/>
    <path id="Path_41317" data-name="Path 41317" d="M117.976,145.965c-.071.123-.192.082-.294.082-1.153,0-2.306-.013-3.459,0a.338.338,0,0,1-.4-.331,6.814,6.814,0,0,0-2.568-4.089,7.3,7.3,0,0,1,2.911-12.68,9.415,9.415,0,0,0-2.394,2.319,8.418,8.418,0,0,0,.243,9.846,7.753,7.753,0,0,0,1.507,1.514,5.026,5.026,0,0,1,1.927,2.994c.075.324.212.351.468.348.686-.008,1.372,0,2.058,0" transform="translate(-95.045 -112.843)" fill="#ffc107"/>
    <path id="Path_41318" data-name="Path 41318" d="M174.664,143.408a2.272,2.272,0,0,1-.877-.023c-.286-.132-.156-.529-.226-.8a3.628,3.628,0,0,0-3.109-2.768c-.34-.045-.49-.149-.456-.515a6.934,6.934,0,0,0,0-1.121c-.023-.326.075-.426.414-.406a5.741,5.741,0,0,1,5.147,4.614c.172,1.035.172,1.035-.895,1.023" transform="translate(-148.762 -120.563)"/>
    <path id="Path_41319" data-name="Path 41319" d="M163.121,281.693c.7-.006,1.4-.006,2.1-.02.193,0,.279.039.271.254-.015.434-.009.87,0,1.3,0,.285-.111.439-.411.434-.651-.011-1.3-.017-1.954-.026a2.749,2.749,0,0,1,0-1.947" transform="translate(-142.592 -246.494)" fill="#f2f2f0"/>
    <path id="Path_41320" data-name="Path 41320" d="M153.023,281.709q0,.973,0,1.947c-.372.009-.744.006-1.115.029a.4.4,0,0,1-.476-.435c-.019-.45-.01-.9-.027-1.351-.008-.217.122-.21.269-.207.45.008.9.012,1.35.018" transform="translate(-132.494 -246.51)" fill="#d4dae0"/>
  </g>
</svg>
