<svg id="Component_268_1" data-name="Component 268 – 1" xmlns="http://www.w3.org/2000/svg" xmlns:xlink="http://www.w3.org/1999/xlink" width="41.985" height="40" viewBox="0 0 41.985 40">
  <defs>
    <clipPath id="clip-path">
      <rect id="Rectangle_4631" data-name="Rectangle 4631" width="41.985" height="40" fill="none"/>
    </clipPath>
  </defs>
  <g id="Group_10008" data-name="Group 10008" clip-path="url(#clip-path)">
    <path id="Path_41289" data-name="Path 41289" d="M0,25.862V22.249a9.139,9.139,0,0,1,2.024-4.576c1.443-2.1,2.987-4.129,4.275-6.334A27.111,27.111,0,0,0,8.883,5.29a7.387,7.387,0,0,1,1.674-3.155A6.8,6.8,0,0,1,14.663.126,15.25,15.25,0,0,1,21.5.847,32.206,32.206,0,0,1,32.662,7.208a30,30,0,0,1,6.171,7.157,20.516,20.516,0,0,1,3.026,8.347,15.347,15.347,0,0,1-1.434,8.829A14.472,14.472,0,0,1,34.337,37.9a17.235,17.235,0,0,1-6.343,1.944,25.573,25.573,0,0,1-7.847-.387A43.193,43.193,0,0,1,8.36,35.513a19.619,19.619,0,0,1-5.8-4.375A11.145,11.145,0,0,1,.144,26.806C.055,26.5.105,26.168,0,25.862" transform="translate(0 0.001)" fill="#dff3f8"/>
    <path id="Path_41290" data-name="Path 41290" d="M87.923,73.879c-1.54,0-3.081-.006-4.621.006-.271,0-.374-.063-.353-.348a7.222,7.222,0,0,0,0-1.049c-.023-.317.058-.433.405-.425,1.092.025,2.184,0,3.276.016.293,0,.413-.041.4-.378-.028-.9-.024-1.792,0-2.688.008-.316-.092-.384-.395-.412a13.038,13.038,0,0,1-11.82-11.455,2.052,2.052,0,0,1,2.2-2.4c.754,0,.754,0,.841-.742a10.157,10.157,0,0,1,20.019-.689,9.763,9.763,0,0,1,.163,1.162c.02.215.1.284.313.274a4.889,4.889,0,0,1,.922.018,2.025,2.025,0,0,1,1.778,2.259,12.338,12.338,0,0,1-2.8,6.753,12.973,12.973,0,0,1-9.124,4.824c-.244.023-.3.108-.3.332.01.938.014,1.876,0,2.814,0,.263.07.327.327.324,1.134-.014,2.268,0,3.4-.012.272,0,.373.065.352.349a7.239,7.239,0,0,0,0,1.049c.023.318-.06.429-.406.424-1.526-.021-3.052-.009-4.579-.009" transform="translate(-66.417 -40.138)"/>
    <path id="Path_41291" data-name="Path 41291" d="M134.058,61.343a7.88,7.88,0,0,1,5.569.279,8.361,8.361,0,0,1-1.5,15.9,7.89,7.89,0,0,1-4.166-.2,8.851,8.851,0,0,1-4.283-5.806,9.093,9.093,0,0,1,1.928-8.186,6.431,6.431,0,0,1,2.448-1.991" transform="translate(-114.899 -54.13)" fill="#f2f2f0"/>
    <path id="Path_41292" data-name="Path 41292" d="M112.186,149.961a10.334,10.334,0,0,0,5.149,4.437,10.175,10.175,0,0,0,13.709-7.779c.027-.167-.055-.459.213-.476a1.637,1.637,0,0,1,1.025.083c.152.095.089.282.07.431a11.4,11.4,0,0,1-15.018,9.181,11.507,11.507,0,0,1-5.023-5.108,1.177,1.177,0,0,1-.226-.744.071.071,0,0,1,.1-.025" transform="translate(-99.515 -129.728)" fill="#60c4dd"/>
    <path id="Path_41293" data-name="Path 41293" d="M123.3,64.359c-.484.392-1.005.732-1.477,1.148A9.056,9.056,0,0,0,120,67.772a8.828,8.828,0,0,0-1.229,4.8,9.131,9.131,0,0,0,2.054,5.583,10.306,10.306,0,0,0,2.156,1.961c.09.063.2.1.225.23a8.354,8.354,0,0,1-.149-15.934,2.064,2.064,0,0,1,.242-.049" transform="translate(-104.141 -57.146)" fill="#d4dae0"/>
    <path id="Path_41294" data-name="Path 41294" d="M93.147,150.113a9.886,9.886,0,0,0,1.959,3.174,11.717,11.717,0,0,0,3.143,2.58c.045.025.074.081.11.123a10.724,10.724,0,0,1-5.026-3.339,11.014,11.014,0,0,1-2.6-5.762c-.075-.517,0-.609.547-.615.665-.007.662-.007.783.664a10.6,10.6,0,0,0,.978,2.84c-.017.128.089.217.107.334" transform="translate(-80.54 -129.879)" fill="#00a1c9"/>
    <path id="Path_41295" data-name="Path 41295" d="M111.323,177.885c-.091-.093-.208-.179-.107-.334l.172.334h-.064Z" transform="translate(-98.716 -157.651)" fill="#22d07d"/>
  </g>
</svg>
