<svg xmlns="http://www.w3.org/2000/svg" width="48.106" height="39.583" viewBox="0 0 48.106 39.583">
  <g id="Component_264_1" data-name="Component 264 – 1" transform="translate(0 0.25)">
    <g id="file-tray-full-outline" transform="translate(0 14.16)">
      <path id="Path_40720" data-name="Path 40720" d="M70.293,128H87.075a4.011,4.011,0,0,1,4.178,3.48l2.093,9.939a1.049,1.049,0,0,1,.022.216v7.343a4.215,4.215,0,0,1-4.192,4.2H68.2a4.215,4.215,0,0,1-4.2-4.192v-7.345a1.049,1.049,0,0,1,.022-.216l2.1-9.964A3.978,3.978,0,0,1,70.293,128Zm20.978,13.745L89.2,131.887a1.921,1.921,0,0,0-2.12-1.789H70.293a1.924,1.924,0,0,0-2.117,1.771L66.1,141.745v7.233a2.111,2.111,0,0,0,2.1,2.1H89.173a2.111,2.111,0,0,0,2.1-2.1Z" transform="translate(-64 -128)" fill="#686868"/>
      <path id="Path_40721" data-name="Path 40721" d="M74.489,514.1h-9.44a1.049,1.049,0,0,1,0-2.1h9.44a1.049,1.049,0,0,1,0,2.1Z" transform="translate(-64 -499.413)" fill="#686868"/>
      <path id="Path_40722" data-name="Path 40722" d="M618.489,514.1h-9.44a1.049,1.049,0,1,1,0-2.1h9.44a1.049,1.049,0,0,1,0,2.1Z" transform="translate(-590.169 -499.413)" fill="#686868"/>
      <path id="Path_40723" data-name="Path 40723" d="M357.244,518.293A5.25,5.25,0,0,1,352,513.049a1.049,1.049,0,0,1,2.1,0,3.147,3.147,0,1,0,6.293,0,1.049,1.049,0,1,1,2.1,0A5.25,5.25,0,0,1,357.244,518.293Z" transform="translate(-342.56 -499.413)" fill="#686868"/>
      <path id="Path_40724" data-name="Path 40724" d="M271.733,258.1H257.049a1.049,1.049,0,0,1,0-2.1h14.684a1.049,1.049,0,1,1,0,2.1Z" transform="translate(-249.707 -251.804)" fill="#686868"/>
      <path id="Path_40725" data-name="Path 40725" d="M241.831,386.1H225.049a1.049,1.049,0,0,1,0-2.1h16.782a1.049,1.049,0,0,1,0,2.1Z" transform="translate(-218.756 -375.609)" fill="#686868"/>
    </g>
    <g id="alert-circle-outline" transform="translate(29.369)">
      <path id="Path_40720-2" data-name="Path 40720" d="M105.243,96A9.243,9.243,0,1,1,96,105.243,9.254,9.254,0,0,1,105.243,96Zm0,17.064a7.821,7.821,0,1,0-7.821-7.821A7.83,7.83,0,0,0,105.243,113.064Z" transform="translate(-96 -96)" fill="#ffc107" stroke="#ffc107" stroke-width="0.5"/>
      <path id="Path_40721-2" data-name="Path 40721" d="M469.474,288.1a.967.967,0,0,1,.966.966c0,.012,0,.036,0,.048l-.254,5.416a.711.711,0,0,1-1.421,0l-.255-5.419c0-.011,0-.034,0-.045a.969.969,0,0,1,.957-.966Z" transform="translate(-460.231 -283.831)" fill="#ffc107" stroke="#ffc107" stroke-linecap="round" stroke-width="0.5"/>
      <path id="Path_40722-2" data-name="Path 40722" d="M472.889,657.6a.889.889,0,1,1,.889-.889h0a.889.889,0,0,1-.889.889Z" transform="translate(-463.646 -643.381)" fill="#ffc107" stroke="#ffc107" stroke-width="0.5"/>
    </g>
  </g>
</svg>
