<svg id="ABW" xmlns="http://www.w3.org/2000/svg" width="93.996" height="67.886" viewBox="0 0 93.996 67.886">
  <path id="Path_39316" data-name="Path 39316" d="M83.55,4.444H10.444A10.445,10.445,0,0,0,0,14.889V48.973H93.992V14.889A10.445,10.445,0,0,0,83.547,4.444ZM16.389,20.831l-2.461,7.981-2.461-7.981L3.486,18.37l7.981-2.461,2.461-7.981,2.461,7.981L24.37,18.37l-7.981,2.461Zm-5.942,51.5H83.553a10.419,10.419,0,0,0,10.1-7.907H.349a10.422,10.422,0,0,0,10.1,7.907ZM0,54.125H93.995v5.149H0Z" transform="translate(0.001 -4.444)" fill="#4189dd"/>
  <path id="Path_39317" data-name="Path 39317" d="M11.625,5.629,9.167,13.613,1.186,16.074l7.981,2.461,2.461,7.981,2.461-7.981,7.981-2.461-7.984-2.461Zm1.9,12.342-1.895,6.148-1.9-6.148L3.586,16.077l6.148-1.895,1.895-6.148,1.9,6.145,6.148,1.895-6.148,1.9Z" transform="translate(2.301 -2.148)" fill="#fff"/>
  <path id="Path_39318" data-name="Path 39318" d="M10.044,6.446,8.15,12.594,2,14.488l6.148,1.9,1.895,6.148,1.9-6.148,6.148-1.9-6.148-1.895Z" transform="translate(3.881 -0.566)" fill="#d21034"/>
  <path id="Path_39319" data-name="Path 39319" d="M0,19.6H93.993v5.149H0ZM0,32.516a10.332,10.332,0,0,0,.347,2.538h93.3a10.332,10.332,0,0,0,.347-2.538V29.905H0Z" transform="translate(0.003 24.925)" fill="#f9d616"/>
</svg>
