<svg id="AFG" xmlns="http://www.w3.org/2000/svg" width="93.996" height="67.889" viewBox="0 0 93.996 67.889">
  <path id="Path_39237" data-name="Path 39237" d="M93.995,61.884A10.445,10.445,0,0,1,83.55,72.329H10.444A10.445,10.445,0,0,1,0,61.884v-47A10.445,10.445,0,0,1,10.444,4.443H83.55A10.445,10.445,0,0,1,93.995,14.888Z" transform="translate(0.001 -4.443)" fill="#141414"/>
  <path id="Path_39238" data-name="Path 39238" d="M42.22,4.444A10.445,10.445,0,0,1,52.665,14.889v47A10.445,10.445,0,0,1,42.22,72.33H21.333V4.447H42.22Z" transform="translate(41.331 -4.441)" fill="#007a36"/>
  <path id="Path_39239" data-name="Path 39239" d="M10.667,4.444H42V72.327H10.667Z" transform="translate(20.668 -4.441)" fill="#d32011"/>
  <path id="Path_39240" data-name="Path 39240" d="M22.631,41.357a.442.442,0,1,1-.814-.323,2.758,2.758,0,0,1,.79-.808,2.725,2.725,0,0,1,.021,1.131Zm.159.2a.442.442,0,1,0,.138.864,2.758,2.758,0,0,0,.96-.6,2.84,2.84,0,0,0-1.1-.27Zm.919-1.046a.479.479,0,0,1-.549.285.469.469,0,0,1-.2-.585,2.542,2.542,0,0,1,.734-.749,2.542,2.542,0,0,1,.018,1.049Zm.147.182a.41.41,0,1,0,.129.8,2.536,2.536,0,0,0,.89-.552,2.548,2.548,0,0,0-1.019-.247Zm-4.779,1.4a.532.532,0,1,1-1.037-.188,3.348,3.348,0,0,1,.74-1.14,3.343,3.343,0,0,1,.294,1.328Zm.232.194a.532.532,0,1,0,.367.987,3.287,3.287,0,0,0,.99-.931,3.311,3.311,0,0,0-1.357-.056Zm.69-1.26a.442.442,0,1,1-.861-.159,2.742,2.742,0,0,1,.617-.949,2.748,2.748,0,0,1,.244,1.1Zm.194.162a.441.441,0,1,0,.305.819,2.744,2.744,0,0,0,.822-.775A2.8,2.8,0,0,0,20.193,41.19Zm.693-1.207a.41.41,0,1,1-.8-.144,2.551,2.551,0,0,1,.573-.881,2.574,2.574,0,0,1,.226,1.025Zm.182.15a.41.41,0,1,0,.285.761,2.6,2.6,0,0,0,.764-.717,2.582,2.582,0,0,0-1.049-.041Zm.587-1.052a.428.428,0,0,1-.435.35.433.433,0,0,1-.285-.482,2.31,2.31,0,0,1,.517-.793A2.3,2.3,0,0,1,21.656,39.081Zm.162.138a.424.424,0,0,0-.267.491.432.432,0,0,0,.526.2,2.3,2.3,0,0,0,.693-.649,2.331,2.331,0,0,0-.952-.035ZM21.565,43.8a.532.532,0,1,1-.717-.773,3.323,3.323,0,0,1,1.278-.464,3.327,3.327,0,0,1-.561,1.237Zm.068.294a.53.53,0,1,0-.3,1.007,3.286,3.286,0,0,0,1.351-.15,3.273,3.273,0,0,0-1.052-.858Zm1.313-.59a.442.442,0,1,1-.593-.643,2.815,2.815,0,0,1,1.063-.388,2.786,2.786,0,0,1-.47,1.028Zm.056.247a.441.441,0,1,0-.247.837,2.767,2.767,0,0,0,1.122-.123A2.812,2.812,0,0,0,23,43.748Zm1.281-.549a.477.477,0,0,1-.62.018.469.469,0,0,1,.068-.614,2.561,2.561,0,0,1,.984-.358,2.5,2.5,0,0,1-.435.952Zm.056.226a.41.41,0,1,0-.232.778,2.571,2.571,0,0,0,1.043-.115,2.57,2.57,0,0,0-.811-.664Zm1.1-.485a.37.37,0,1,1-.5-.538,2.311,2.311,0,0,1,.89-.323A2.346,2.346,0,0,1,25.436,42.944Zm.05.206a.423.423,0,0,0-.508.232.433.433,0,0,0,.3.473,2.222,2.222,0,0,0,.943-.106,2.314,2.314,0,0,0-.734-.6Zm.9-7.235a.609.609,0,0,1-.449.664.617.617,0,0,1-.6-.538,3.291,3.291,0,0,1,.37-1.307,3.322,3.322,0,0,1,.673,1.184Zm.279.115a.533.533,0,1,0,.646.834,3.323,3.323,0,0,0,.67-1.184,3.343,3.343,0,0,0-1.316.35Zm.288-1.41a.442.442,0,1,1-.869.106,2.824,2.824,0,0,1,.308-1.09,2.738,2.738,0,0,1,.561.981Zm.232.1a.442.442,0,1,0,.538.69,2.8,2.8,0,0,0,.555-.984,2.807,2.807,0,0,0-1.093.294Zm.305-1.357a.409.409,0,1,1-.8.1,2.58,2.58,0,0,1,.285-1.007,2.589,2.589,0,0,1,.523.911Zm.214.088a.409.409,0,1,0,.5.64,2.58,2.58,0,0,0,.517-.911,2.535,2.535,0,0,0-1.013.27Zm.25-1.175a.371.371,0,1,1-.728.088,2.309,2.309,0,0,1,.258-.911,2.253,2.253,0,0,1,.47.822Zm.2.082a.429.429,0,0,0-.109.549.425.425,0,0,0,.558.032,2.292,2.292,0,0,0,.467-.825,2.317,2.317,0,0,0-.916.247Zm1.116,4.45a.531.531,0,1,1-.911-.526,3.316,3.316,0,0,1,1.081-.822A3.352,3.352,0,0,1,29.263,36.8Zm.153.261a.53.53,0,1,0,.012,1.049,3.275,3.275,0,0,0,1.245-.543A3.367,3.367,0,0,0,29.416,37.066Zm1.078-.952a.507.507,0,0,1-.629.217.513.513,0,0,1-.129-.655,2.723,2.723,0,0,1,.9-.684,2.7,2.7,0,0,1-.144,1.122Zm.126.214a.442.442,0,1,0,.009.875,2.764,2.764,0,0,0,1.037-.452A2.784,2.784,0,0,0,30.62,36.329Zm1.06-.9a.409.409,0,1,1-.7-.405,2.565,2.565,0,0,1,.834-.634A2.575,2.575,0,0,1,31.681,35.427Zm.12.2a.409.409,0,1,0,.012.811,2.607,2.607,0,0,0,.96-.417,2.593,2.593,0,0,0-.972-.394Zm.9-.787a.37.37,0,1,1-.634-.367,2.4,2.4,0,0,1,.755-.576,2.26,2.26,0,0,1-.118.94Zm.109.182a.371.371,0,1,0,.012.734,2.3,2.3,0,0,0,.869-.379A2.33,2.33,0,0,0,32.815,35.022Zm-2.743-1.448a.531.531,0,1,1-1.052-.023,3.33,3.33,0,0,1,.552-1.24A3.281,3.281,0,0,1,30.071,33.574Zm.261.156a.531.531,0,1,0,.517.916,3.327,3.327,0,0,0,.834-1.072,3.374,3.374,0,0,0-1.351.156Zm.488-1.354a.442.442,0,1,1-.875-.021,2.752,2.752,0,0,1,.461-1.031,2.75,2.75,0,0,1,.411,1.052Zm.214.129a.511.511,0,0,0-.223.629.5.5,0,0,0,.652.132,2.748,2.748,0,0,0,.693-.893,2.7,2.7,0,0,0-1.119.129Zm.5-1.3a.479.479,0,0,1-.414.458.473.473,0,0,1-.394-.476,2.584,2.584,0,0,1,.429-.958,2.59,2.59,0,0,1,.382.975Zm.2.12a.409.409,0,1,0,.4.7,2.567,2.567,0,0,0,.643-.828A2.559,2.559,0,0,0,31.734,31.324Zm-2.206-4.462a.531.531,0,1,1-.966.411,3.336,3.336,0,0,1-.006-1.36,3.328,3.328,0,0,1,.975.952Zm.3.038a.53.53,0,1,0,.846.623,3.329,3.329,0,0,0,.317-1.322A3.311,3.311,0,0,0,29.827,26.9Zm-.112-1.436a.441.441,0,1,1-.8.341,2.8,2.8,0,0,1-.006-1.131,2.75,2.75,0,0,1,.811.787Zm.25.029a.513.513,0,0,0,.056.667.507.507,0,0,0,.649-.147,2.829,2.829,0,0,0,.264-1.1A2.848,2.848,0,0,0,29.965,25.493ZM29.886,24.1a.409.409,0,1,1-.746.317,2.584,2.584,0,0,1,0-1.046,2.541,2.541,0,0,1,.749.731Zm.232.026a.476.476,0,0,0,.05.617.47.47,0,0,0,.6-.135,2.645,2.645,0,0,0,.247-1.019A2.576,2.576,0,0,0,30.118,24.13Zm-.088-1.2a.372.372,0,1,1-.679.285,2.321,2.321,0,0,1,0-.949,2.316,2.316,0,0,1,.679.661Zm.211.026a.371.371,0,1,0,.593.435,2.352,2.352,0,0,0,.223-.922,2.25,2.25,0,0,0-.814.485Zm2.3,3.971a.611.611,0,0,1-.655.458.617.617,0,0,1-.364-.717,3.325,3.325,0,0,1,.811-1.09,3.378,3.378,0,0,1,.206,1.345Zm.22.209a.531.531,0,1,0,.3,1.007,3.364,3.364,0,0,0,1.046-.864,3.243,3.243,0,0,0-1.351-.144Zm.775-1.216a.514.514,0,0,1-.546.385.509.509,0,0,1-.3-.6,2.716,2.716,0,0,1,.676-.9,2.84,2.84,0,0,1,.173,1.116Zm.179.173a.442.442,0,1,0,.253.837,2.763,2.763,0,0,0,.872-.72,2.849,2.849,0,0,0-1.125-.117Zm.773-1.16a.473.473,0,0,1-.505.355.479.479,0,0,1-.282-.552,2.542,2.542,0,0,1,.626-.84,2.531,2.531,0,0,1,.162,1.037Zm.167.164a.409.409,0,1,0,.235.775,2.532,2.532,0,0,0,.811-.67,2.445,2.445,0,0,0-1.046-.106Zm.658-1.01a.37.37,0,1,1-.711-.179,2.353,2.353,0,0,1,.567-.761,2.349,2.349,0,0,1,.144.937Zm.153.144a.37.37,0,1,0,.211.7,2.381,2.381,0,0,0,.731-.6,2.333,2.333,0,0,0-.943-.1Zm-3.04-.634a.611.611,0,0,1-.355.717.62.62,0,0,1-.664-.452,3.313,3.313,0,0,1,.191-1.345,3.274,3.274,0,0,1,.828,1.078Zm.294.076a.531.531,0,1,0,.749.737,3.322,3.322,0,0,0,.505-1.26,3.406,3.406,0,0,0-1.254.526Zm.1-1.436a.442.442,0,1,1-.846.223,2.713,2.713,0,0,1,.159-1.119,2.872,2.872,0,0,1,.687.9Zm.241.065a.443.443,0,1,0,.626.614,2.737,2.737,0,0,0,.42-1.049,2.842,2.842,0,0,0-1.046.435Zm.12-1.386a.472.472,0,0,1-.273.552.48.48,0,0,1-.511-.35,2.584,2.584,0,0,1,.147-1.04,2.6,2.6,0,0,1,.64.834Zm.226.062a.41.41,0,1,0,.579.57,2.573,2.573,0,0,0,.388-.975,2.553,2.553,0,0,0-.966.405ZM29.915,18a.492.492,0,1,1-.358.908,3.031,3.031,0,0,1-.9-.881,3.05,3.05,0,0,1,1.257-.029Zm.22-.179a.493.493,0,1,0,.963-.156,3.032,3.032,0,0,0-.67-1.069,2.957,2.957,0,0,0-.294,1.225Zm-1.025-.855a.409.409,0,1,1-.3.755,2.538,2.538,0,0,1-.749-.731,2.513,2.513,0,0,1,1.046-.024Zm.185-.147a.41.41,0,1,0,.8-.132,2.48,2.48,0,0,0-.555-.887A2.548,2.548,0,0,0,29.3,16.816Zm-.975-.852a.38.38,0,1,1-.276.7,2.38,2.38,0,0,1-.693-.679,2.369,2.369,0,0,1,.972-.021Zm.17-.135a.436.436,0,0,0,.441.364.44.44,0,0,0,.3-.488,2.451,2.451,0,0,0-.514-.825,2.325,2.325,0,0,0-.229.949Zm-.849-.723a.342.342,0,1,1-.247.632,2.158,2.158,0,0,1-.629-.614,2.129,2.129,0,0,1,.878-.018Zm.153-.123a.4.4,0,0,0,.4.332.4.4,0,0,0,.273-.441A2.205,2.205,0,0,0,28,14.129a2.23,2.23,0,0,0-.209.858Zm4.121,1.057a.493.493,0,1,1-.831.511,3.08,3.08,0,0,1-.191-1.245,3.112,3.112,0,0,1,1.022.737Zm.279-.009a.492.492,0,1,0,.864.452,3.083,3.083,0,0,0,.109-1.257,3.03,3.03,0,0,0-.972.8Zm-.3-1.3a.411.411,0,1,1-.693.426,2.53,2.53,0,0,1-.159-1.037,2.5,2.5,0,0,1,.852.611Zm.235-.009a.467.467,0,0,0,.141.6.476.476,0,0,0,.576-.223,2.58,2.58,0,0,0,.091-1.046,2.524,2.524,0,0,0-.811.67Zm-.27-1.263a.38.38,0,1,1-.64.394,2.4,2.4,0,0,1-.15-.96,2.351,2.351,0,0,1,.787.567Zm.217-.009a.379.379,0,1,0,.664.35,2.343,2.343,0,0,0,.082-.969,2.348,2.348,0,0,0-.749.62Zm-.241-1.09a.343.343,0,1,1-.579.355,2.119,2.119,0,0,1-.132-.869,2.119,2.119,0,0,1,.714.514Zm.194,0a.344.344,0,1,0,.6.317,2.178,2.178,0,0,0,.076-.875,2.134,2.134,0,0,0-.679.558Zm-2.391,1.595a.492.492,0,1,1-.482.846,2.981,2.981,0,0,1-.764-1,3.088,3.088,0,0,1,1.248.153Zm.241-.144a.492.492,0,1,0,.975-.018,3.08,3.08,0,0,0-.505-1.154,3.134,3.134,0,0,0-.467,1.169Zm-.887-1a.473.473,0,0,1,.2.585.467.467,0,0,1-.605.117,2.592,2.592,0,0,1-.637-.834,2.519,2.519,0,0,1,1.04.129Zm.2-.12A.408.408,0,1,0,30,12.681a2.566,2.566,0,0,0-.42-.958A2.619,2.619,0,0,0,29.193,12.7Zm-.84-.978a.379.379,0,1,1-.373.652,2.349,2.349,0,0,1-.59-.773A2.325,2.325,0,0,1,28.353,11.717Zm.188-.112a.38.38,0,1,0,.752-.012,2.4,2.4,0,0,0-.391-.89,2.389,2.389,0,0,0-.361.9Z" transform="translate(34.937 7.686)" fill="#fff"/>
  <path id="Path_39241" data-name="Path 39241" d="M29.855,22.428a7.048,7.048,0,0,1-3.466-1.1c-1.6-1.078-4.87-3.064-7.487-.491a4.345,4.345,0,0,1,3.2.834c1.375,1.143,3.5,2.482,5.293,2.335a3.036,3.036,0,0,0,2.461-1.577Z" transform="translate(36.621 24.877)" fill="#fff"/>
  <path id="Path_39242" data-name="Path 39242" d="M13.09,16.578l-2.309-2.309a21.848,21.848,0,0,1,30.9,0L39.37,16.578a18.583,18.583,0,0,0-26.28,0Z" transform="translate(20.889 2.194)" fill="#ff5b57"/>
  <path id="Path_39243" data-name="Path 39243" d="M12.973,20.468l-.021-1.651H30.678l.07,1.686Z" transform="translate(25.095 23.403)" fill="#fff"/>
  <path id="Path_39244" data-name="Path 39244" d="M30.393,17.922,28.9,17.737V14.251a.94.94,0,0,0-.044-.223h.07a.414.414,0,1,0,0-.828H27.085a.414.414,0,1,0,0,.828h.07a.94.94,0,0,0-.044.223v3.263l-.681-.082-1.351-1.454a2.412,2.412,0,0,0,.435-1.345c0-1.618-1.674-2.928-3.742-2.928s-3.742,1.31-3.742,2.928a2.431,2.431,0,0,0,.429,1.336L17.1,17.435l-.684.082V14.254a.94.94,0,0,0-.044-.223h.07a.414.414,0,0,0,0-.828H14.6a.414.414,0,0,0,0,.828h.07a.94.94,0,0,0-.044.223V17.74l-1.486.182,1.234,1.845h.194v2.552h1.909V19.767H27.056v2.552h1.909V19.767h.2L30.4,17.922Z" transform="translate(25.451 9.624)" fill="#fff"/>
  <path id="Path_39245" data-name="Path 39245" d="M27.276,14.9c.7,0,1.275-.3,1.275-.676,0-.2-.179-.382-.452-.505l-.825-1.184-.822,1.184c-.27.123-.452.3-.452.505C26,14.6,26.574,14.9,27.276,14.9Zm-6.389-1.548c.731,0,1.325-.364,1.325-.814a.737.737,0,0,0-.441-.6L20.89,10.67l-.881,1.269a.735.735,0,0,0-.441.6c0,.449.593.814,1.325.814Zm-6.1,1.548c.7,0,1.275-.3,1.275-.676,0-.2-.179-.382-.452-.505l-.822-1.184-.822,1.184c-.27.123-.452.3-.452.505C13.512,14.6,14.082,14.9,14.787,14.9Z" transform="translate(26.179 7.62)" fill="#fff"/>
  <path id="Path_39246" data-name="Path 39246" d="M27.392,24.131l-1.257-1.357V20.395H24.225v2.282h-.767l-4.92-6.814-3.754-.2-.191,5.81,4.932.05,2.318,1.157v1.454Z" transform="translate(28.276 17.293)" fill="#fff"/>
  <path id="Path_39247" data-name="Path 39247" d="M19.834,23.466H17.928v2.491L16.774,27.2h5.543V25.748H19.834Zm-5.146-9.388-.585.511s-2.529,1.845-1.689,3.625c-.47.655-1.536,1.965-.717,3.3s1.6,2.52,1.087,3.769a3.241,3.241,0,0,0,1.759-3.933c-.394-1.392,1.56-2.456,2.2-2.767l1.181,1.78V22h1.909V19.186H18.184l-3.492-5.108ZM37.84,18.217c.84-1.78-1.689-3.625-1.689-3.625l-.585-.511-3.492,5.108H30.42V22H32.33V20.364l1.181-1.78c.643.308,2.6,1.375,2.2,2.767a3.246,3.246,0,0,0,1.759,3.933c-.511-1.248.267-2.435,1.087-3.769s-.247-2.644-.717-3.3Z" transform="translate(22.084 14.223)" fill="#fff"/>
  <path id="Path_39248" data-name="Path 39248" d="M22.083,23.786a.908.908,0,0,1-.908.908c-.5,0-3.366-.408-3.366-.908s2.864-.908,3.366-.908A.908.908,0,0,1,22.083,23.786Z" transform="translate(34.504 31.271)" fill="#fff"/>
  <path id="Path_39249" data-name="Path 39249" d="M45.029,47.438c2.558-.479,2.661-1.862,2.661-1.862a4.545,4.545,0,0,1-3.028.558,15.122,15.122,0,0,0-3.114-.273s1.56,1.727.247,2.588a5.235,5.235,0,0,1-2.884.065,23.964,23.964,0,0,0-2.535-.435.908.908,0,1,0,0,1.815,22.689,22.689,0,0,0,2.6-.455c.775-.179,1.319-.261,1.9-.382a21.454,21.454,0,0,1,3.974.185,4.467,4.467,0,0,0,3.769-1.433,5.644,5.644,0,0,1-3.583-.376ZM57.316,26.809c.1-.247-2.235,1.5-3.83,1.3s-4.661-.632-5.287.558-1.19,2.42-1.19,2.42a5.379,5.379,0,0,1,2.438-.626,25.132,25.132,0,0,0,5.422-.523c1.146-.385,2.038-2.15,2.447-3.131ZM55.11,19.1c-.029-.52-1.063-.3-1.278-.731s.579-1.348.141-1.657-2.661,1.68-3.9,3.017-1.583,3.469-1.184,4.1.141.056.141.056a5.584,5.584,0,0,1,2.038-2.188c1.257-.632,4.036-2.594,4.036-2.594ZM21.425,41.357a.442.442,0,1,0,.814-.323,2.758,2.758,0,0,0-.79-.808,2.724,2.724,0,0,0-.021,1.131Zm-.159.2a.442.442,0,1,1-.138.864,2.73,2.73,0,0,1-.96-.6,2.84,2.84,0,0,1,1.1-.27Zm-.919-1.046a.479.479,0,0,0,.549.285.469.469,0,0,0,.2-.585,2.542,2.542,0,0,0-.734-.749,2.492,2.492,0,0,0-.018,1.049Zm-.144.182a.41.41,0,1,1-.129.8,2.564,2.564,0,0,1-.89-.552,2.548,2.548,0,0,1,1.019-.247Zm4.779,1.4a.532.532,0,1,0,1.037-.188,3.348,3.348,0,0,0-.74-1.14,3.293,3.293,0,0,0-.294,1.328Zm-.232.194a.532.532,0,1,1-.367.987,3.287,3.287,0,0,1-.99-.931,3.311,3.311,0,0,1,1.357-.056Zm-.693-1.26a.442.442,0,1,0,.861-.159,2.742,2.742,0,0,0-.617-.949,2.8,2.8,0,0,0-.244,1.1Zm-.194.162a.441.441,0,1,1-.305.819,2.744,2.744,0,0,1-.822-.775A2.8,2.8,0,0,1,23.863,41.19Zm-.7-1.207a.41.41,0,1,0,.8-.144,2.551,2.551,0,0,0-.573-.881,2.575,2.575,0,0,0-.226,1.025Zm-.176.15a.41.41,0,1,1-.285.761,2.6,2.6,0,0,1-.764-.717,2.586,2.586,0,0,1,1.049-.041ZM22.4,39.081a.428.428,0,0,0,.435.35.433.433,0,0,0,.285-.482,2.241,2.241,0,0,0-.517-.793A2.3,2.3,0,0,0,22.4,39.081Zm-.164.138a.424.424,0,0,1,.267.491.432.432,0,0,1-.526.2,2.3,2.3,0,0,1-.693-.649,2.341,2.341,0,0,1,.952-.035Zm.256,4.582a.532.532,0,1,0,.717-.773,3.323,3.323,0,0,0-1.278-.464,3.234,3.234,0,0,0,.561,1.237Zm-.07.294a.53.53,0,1,1,.3,1.007,3.286,3.286,0,0,1-1.351-.15,3.306,3.306,0,0,1,1.052-.858Zm-1.31-.59a.442.442,0,1,0,.593-.643,2.815,2.815,0,0,0-1.063-.388,2.738,2.738,0,0,0,.47,1.028Zm-.059.247a.441.441,0,1,1,.247.837,2.767,2.767,0,0,1-1.122-.123,2.777,2.777,0,0,1,.875-.717ZM19.774,43.2a.477.477,0,0,0,.62.018.469.469,0,0,0-.068-.614,2.561,2.561,0,0,0-.984-.358,2.5,2.5,0,0,0,.435.952Zm-.053.226a.41.41,0,1,1,.232.778,2.571,2.571,0,0,1-1.043-.115A2.536,2.536,0,0,1,19.721,43.428Zm-1.1-.485a.37.37,0,1,0,.5-.538,2.31,2.31,0,0,0-.89-.323A2.346,2.346,0,0,0,18.62,42.944Zm-.047.206a.423.423,0,0,1,.508.232.433.433,0,0,1-.3.473,2.222,2.222,0,0,1-.943-.106A2.281,2.281,0,0,1,18.573,43.149Zm-.9-7.235a.609.609,0,0,0,.449.664.617.617,0,0,0,.6-.538,3.291,3.291,0,0,0-.37-1.307,3.278,3.278,0,0,0-.673,1.184Zm-.279.115a.533.533,0,1,1-.646.834,3.323,3.323,0,0,1-.67-1.184,3.38,3.38,0,0,1,1.316.35Zm-.291-1.41a.442.442,0,1,0,.869.106,2.824,2.824,0,0,0-.308-1.09,2.782,2.782,0,0,0-.561.981Zm-.232.1a.442.442,0,1,1-.538.69,2.8,2.8,0,0,1-.555-.984,2.794,2.794,0,0,1,1.093.294Zm-.305-1.357a.409.409,0,1,0,.8.1,2.58,2.58,0,0,0-.285-1.007,2.589,2.589,0,0,0-.523.911Zm-.214.088a.409.409,0,1,1-.5.64,2.58,2.58,0,0,1-.517-.911,2.547,2.547,0,0,1,1.013.27Zm-.25-1.175a.371.371,0,1,0,.728.088,2.309,2.309,0,0,0-.258-.911,2.3,2.3,0,0,0-.47.822Zm-.2.082a.429.429,0,0,1,.109.549.425.425,0,0,1-.558.032,2.292,2.292,0,0,1-.467-.825,2.305,2.305,0,0,1,.916.247ZM14.8,36.8a.531.531,0,1,0,.911-.526,3.316,3.316,0,0,0-1.081-.822A3.352,3.352,0,0,0,14.8,36.8Zm-.156.261a.53.53,0,1,1-.012,1.049,3.275,3.275,0,0,1-1.245-.543A3.388,3.388,0,0,1,14.64,37.066Zm-1.078-.952a.507.507,0,0,0,.629.217.513.513,0,0,0,.129-.655,2.723,2.723,0,0,0-.9-.684,2.749,2.749,0,0,0,.144,1.122Zm-.126.214a.442.442,0,1,1-.009.875,2.764,2.764,0,0,1-1.037-.452A2.784,2.784,0,0,1,13.436,36.329Zm-1.06-.9a.409.409,0,1,0,.7-.405,2.565,2.565,0,0,0-.834-.634A2.574,2.574,0,0,0,12.375,35.427Zm-.117.2a.409.409,0,1,1-.012.811,2.607,2.607,0,0,1-.96-.417,2.593,2.593,0,0,1,.972-.394Zm-.911-.787a.37.37,0,1,0,.634-.367,2.4,2.4,0,0,0-.755-.576,2.26,2.26,0,0,0,.117.94Zm-.106.182a.371.371,0,1,1-.012.734,2.3,2.3,0,0,1-.869-.379,2.372,2.372,0,0,1,.881-.355Zm2.743-1.448a.616.616,0,0,0,.54.593.613.613,0,0,0,.511-.617,3.33,3.33,0,0,0-.552-1.24A3.281,3.281,0,0,0,13.985,33.574Zm-.258.156a.531.531,0,1,1-.517.916,3.37,3.37,0,0,1-.834-1.072A3.379,3.379,0,0,1,13.726,33.729Zm-.488-1.354a.512.512,0,0,0,.449.493.509.509,0,0,0,.426-.514,2.751,2.751,0,0,0-.461-1.031,2.75,2.75,0,0,0-.411,1.052Zm-.217.129a.511.511,0,0,1,.223.629.5.5,0,0,1-.652.132,2.854,2.854,0,0,1-.693-.893,2.689,2.689,0,0,1,1.119.129Zm-.5-1.3a.479.479,0,0,0,.414.458.473.473,0,0,0,.394-.476,2.584,2.584,0,0,0-.429-.958,2.59,2.59,0,0,0-.382.975Zm-.2.12a.409.409,0,1,1-.4.7,2.567,2.567,0,0,1-.643-.828A2.568,2.568,0,0,1,12.325,31.324Zm2.2-4.462a.619.619,0,0,0,.247.764.614.614,0,0,0,.72-.352,3.336,3.336,0,0,0,.006-1.36,3.4,3.4,0,0,0-.975.952Zm-.3.038a.618.618,0,0,1-.065.8.617.617,0,0,1-.784-.176,3.34,3.34,0,0,1-.317-1.322A3.294,3.294,0,0,1,14.229,26.9Zm.112-1.436a.441.441,0,1,0,.8.341,2.8,2.8,0,0,0,.006-1.131,2.822,2.822,0,0,0-.811.787Zm-.25.029a.513.513,0,0,1-.056.667.507.507,0,0,1-.649-.147,2.829,2.829,0,0,1-.264-1.1A2.848,2.848,0,0,1,14.091,25.493Zm.082-1.389a.409.409,0,1,0,.746.317,2.583,2.583,0,0,0,0-1.046,2.541,2.541,0,0,0-.749.731Zm-.232.026a.476.476,0,0,1-.05.617.47.47,0,0,1-.6-.135,2.645,2.645,0,0,1-.247-1.019A2.6,2.6,0,0,1,13.941,24.13Zm.085-1.2a.372.372,0,1,0,.679.285,2.321,2.321,0,0,0,0-.949,2.316,2.316,0,0,0-.679.661Zm-.211.026a.371.371,0,1,1-.593.435A2.352,2.352,0,0,1,13,22.468a2.2,2.2,0,0,1,.814.485Zm-2.3,3.971a.611.611,0,0,0,.655.458.617.617,0,0,0,.364-.717,3.325,3.325,0,0,0-.811-1.09,3.378,3.378,0,0,0-.206,1.345Zm-.217.209a.531.531,0,1,1-.3,1.007,3.364,3.364,0,0,1-1.046-.864,3.256,3.256,0,0,1,1.351-.144Zm-.773-1.216a.514.514,0,0,0,.546.385.509.509,0,0,0,.3-.6,2.715,2.715,0,0,0-.676-.9A2.787,2.787,0,0,0,10.522,25.919Zm-.185.173a.442.442,0,1,1-.253.837,2.764,2.764,0,0,1-.872-.72,2.849,2.849,0,0,1,1.125-.117Zm-.77-1.16a.473.473,0,0,0,.505.355.479.479,0,0,0,.282-.552,2.542,2.542,0,0,0-.626-.84,2.582,2.582,0,0,0-.162,1.037ZM9.4,25.1a.409.409,0,1,1-.235.775,2.532,2.532,0,0,1-.811-.67A2.445,2.445,0,0,1,9.4,25.1Zm-.652-1.01a.429.429,0,0,0,.458.32.428.428,0,0,0,.253-.5,2.353,2.353,0,0,0-.567-.761,2.3,2.3,0,0,0-.144.937Zm-.153.144a.37.37,0,1,1-.211.7,2.381,2.381,0,0,1-.731-.6A2.319,2.319,0,0,1,8.592,24.23Zm3.037-.634a.611.611,0,0,0,.355.717.62.62,0,0,0,.664-.452,3.313,3.313,0,0,0-.191-1.345,3.314,3.314,0,0,0-.828,1.078Zm-.294.076a.613.613,0,0,1,.05.8.618.618,0,0,1-.8-.062,3.3,3.3,0,0,1-.505-1.26,3.406,3.406,0,0,1,1.254.526Zm-.094-1.436a.512.512,0,0,0,.294.6.509.509,0,0,0,.552-.376,2.713,2.713,0,0,0-.159-1.119,2.755,2.755,0,0,0-.687.9Zm-.247.065a.443.443,0,1,1-.626.614,2.737,2.737,0,0,1-.42-1.049A2.822,2.822,0,0,1,10.995,22.3Zm-.117-1.386a.472.472,0,0,0,.273.552.48.48,0,0,0,.511-.35,2.584,2.584,0,0,0-.147-1.04,2.553,2.553,0,0,0-.64.834Zm-.226.062a.41.41,0,1,1-.579.57,2.573,2.573,0,0,1-.388-.975A2.553,2.553,0,0,1,10.651,20.976ZM14.144,18a.492.492,0,1,0,.358.908,3.1,3.1,0,0,0,.9-.881,3.053,3.053,0,0,0-1.257-.029Zm-.22-.179a.569.569,0,0,1-.573.476.567.567,0,0,1-.391-.632,3.032,3.032,0,0,1,.67-1.069,3,3,0,0,1,.294,1.225Zm1.019-.855a.409.409,0,1,0,.3.755,2.538,2.538,0,0,0,.749-.731A2.51,2.51,0,0,0,14.943,16.963Zm-.179-.147a.41.41,0,1,1-.8-.132,2.549,2.549,0,0,1,.555-.887A2.6,2.6,0,0,1,14.763,16.816Zm.972-.852a.38.38,0,1,0,.276.7,2.38,2.38,0,0,0,.693-.679,2.422,2.422,0,0,0-.972-.021Zm-.167-.135a.436.436,0,0,1-.441.364.44.44,0,0,1-.3-.488,2.451,2.451,0,0,1,.514-.825,2.373,2.373,0,0,1,.229.949Zm.849-.723a.342.342,0,1,0,.247.632,2.158,2.158,0,0,0,.629-.614,2.131,2.131,0,0,0-.878-.018Zm-.156-.123a.4.4,0,0,1-.4.332.4.4,0,0,1-.273-.441,2.19,2.19,0,0,1,.464-.746,2.094,2.094,0,0,1,.209.858Zm-4.118,1.057a.574.574,0,0,0,.123.734.571.571,0,0,0,.708-.223,3.08,3.08,0,0,0,.191-1.245,3.082,3.082,0,0,0-1.022.737Zm-.282-.009a.567.567,0,0,1-.17.723.572.572,0,0,1-.693-.27,3.083,3.083,0,0,1-.109-1.257,3.031,3.031,0,0,1,.972.8Zm.3-1.3a.411.411,0,1,0,.693.426,2.53,2.53,0,0,0,.159-1.037,2.5,2.5,0,0,0-.852.611Zm-.232-.009a.467.467,0,0,1-.141.6.476.476,0,0,1-.576-.223,2.58,2.58,0,0,1-.091-1.046,2.524,2.524,0,0,1,.811.67Zm.264-1.263a.38.38,0,1,0,.64.394,2.4,2.4,0,0,0,.15-.96,2.351,2.351,0,0,0-.787.567Zm-.214-.009a.379.379,0,1,1-.664.35,2.343,2.343,0,0,1-.082-.969,2.318,2.318,0,0,1,.749.62Zm.241-1.09a.343.343,0,1,0,.579.355,2.118,2.118,0,0,0,.132-.869,2.148,2.148,0,0,0-.714.514Zm-.194,0a.344.344,0,1,1-.6.317,2.178,2.178,0,0,1-.076-.875,2.065,2.065,0,0,1,.679.558Zm2.394,1.595a.492.492,0,1,0,.482.846,2.981,2.981,0,0,0,.764-1,3.068,3.068,0,0,0-1.248.153Zm-.244-.144a.571.571,0,0,1-.5.552.569.569,0,0,1-.479-.57,3.079,3.079,0,0,1,.505-1.154,3.039,3.039,0,0,1,.467,1.169Zm.887-1a.41.41,0,1,0,.4.7,2.561,2.561,0,0,0,.637-.834A2.519,2.519,0,0,0,15.063,12.816Zm-.2-.12a.408.408,0,1,1-.808-.015,2.566,2.566,0,0,1,.42-.958,2.619,2.619,0,0,1,.388.972Zm.84-.978a.379.379,0,1,0,.373.652,2.349,2.349,0,0,0,.59-.773A2.325,2.325,0,0,0,15.7,11.717Zm-.185-.112a.38.38,0,1,1-.752-.012,2.4,2.4,0,0,1,.391-.89,2.389,2.389,0,0,1,.361.9Z" transform="translate(14.821 7.686)" fill="#fff"/>
  <path id="Path_39250" data-name="Path 39250" d="M9.308,22.428a7.048,7.048,0,0,0,3.466-1.1c1.6-1.078,4.87-3.064,7.487-.491a4.345,4.345,0,0,0-3.2.834c-1.375,1.143-3.5,2.482-5.293,2.335A3.042,3.042,0,0,1,9.3,22.431Zm25.713,3.783a23.387,23.387,0,0,1-6.145.858,23.527,23.527,0,0,1-6.145-.858l-2.887,2.764a4.553,4.553,0,0,1,2.949.491,14.579,14.579,0,0,0,6.08,1.586,14.567,14.567,0,0,0,6.08-1.586,4.529,4.529,0,0,1,2.949-.491l-2.881-2.764Z" transform="translate(18.029 24.877)" fill="#fff"/>
  <path id="Path_39251" data-name="Path 39251" d="M12.673,23.786a.908.908,0,0,0,.908.908c.5,0,3.366-.408,3.366-.908s-2.864-.908-3.366-.908A.908.908,0,0,0,12.673,23.786Z" transform="translate(24.554 31.271)" fill="#fff"/>
  <path id="Path_39252" data-name="Path 39252" d="M19.671,43.5c-2.558-.479-2.661-1.862-2.661-1.862a4.545,4.545,0,0,0,3.028.558,15.122,15.122,0,0,1,3.114-.273s-1.56,1.727-.247,2.588a5.235,5.235,0,0,0,2.884.065,23.961,23.961,0,0,1,2.535-.435.908.908,0,0,1,0,1.815,22.691,22.691,0,0,1-2.6-.455c-.775-.179-1.319-.261-1.9-.382a21.456,21.456,0,0,0-3.974.185,4.467,4.467,0,0,1-3.769-1.433,5.65,5.65,0,0,0,3.583-.376ZM7.381,22.871c-.1-.247,2.235,1.5,3.83,1.3s4.661-.632,5.287.558,1.19,2.42,1.19,2.42a5.379,5.379,0,0,0-2.438-.626A25.132,25.132,0,0,1,9.828,26c-1.14-.382-2.038-2.15-2.447-3.131Zm2.206-7.713c.029-.52,1.063-.3,1.278-.731s-.579-1.348-.141-1.657,2.661,1.68,3.9,3.017,1.583,3.469,1.184,4.1-.141.056-.141.056a5.584,5.584,0,0,0-2.038-2.188C12.369,17.123,9.59,15.16,9.59,15.16ZM38.449,35.574A3.872,3.872,0,0,0,36.7,37.228a1.657,1.657,0,0,0-1.648-1.554,1.7,1.7,0,0,0-.6.12,1.186,1.186,0,0,0-.969-.52,1.2,1.2,0,0,0-.814.326,1.17,1.17,0,0,0-1.783.194,1.627,1.627,0,0,0-.6-.12,1.668,1.668,0,0,0-1.665,1.648,4.005,4.005,0,0,0-1.8-1.745c-.875-.214-1.551-1.137-2.135-1.551a3.786,3.786,0,0,0,1.63,2.717c1.046.752.767,2.488.767,2.488s1.9.476,2.764.57a10.976,10.976,0,0,0-.461-1.087,1.611,1.611,0,0,0,.5.223l.485.9s1.116.1,2.3.1,2.309-.1,2.309-.1l.485-.9a1.606,1.606,0,0,0,.391-.15,10.883,10.883,0,0,0-.432,1.016c.858-.091,2.764-.57,2.764-.57s-.276-1.736.767-2.488a3.8,3.8,0,0,0,1.63-2.717c-.585.411-1.26,1.331-2.135,1.545Z" transform="translate(14.296 11.625)" fill="#fff"/>
</svg>
