<svg id="AGO" xmlns="http://www.w3.org/2000/svg" width="93.999" height="67.886" viewBox="0 0 93.999 67.886">
  <path id="Path_39278" data-name="Path 39278" d="M0,16V39.5A10.445,10.445,0,0,0,10.445,49.943H83.551A10.445,10.445,0,0,0,94,39.5V16H0Z" transform="translate(0.003 17.943)" fill="#141414"/>
  <path id="Path_39279" data-name="Path 39279" d="M93.995,38.387v-23.5A10.445,10.445,0,0,0,83.55,4.444H10.444A10.445,10.445,0,0,0,0,14.889v23.5H93.992Z" transform="translate(0.001 -4.444)" fill="#ce1b26"/>
  <path id="Path_39280" data-name="Path 39280" d="M20.058,12.13l1.571,3.187,3.519.511L22.6,18.31l.6,3.507L20.055,20.16l-3.149,1.657.6-3.507-2.55-2.482,3.522-.511Zm-5.995,9.247c.9,1.469,8.283,9.179,15.462,13.664.937.611,3.51,2.57,4.488,3.263-.408.529-.978,1.3-1.589,1.959C31.4,39.45,22.061,33.7,19,32.145s-5.833-4.241-5.833-6.812a7.722,7.722,0,0,1,.9-3.959ZM34.5,38.633c-.449.652-1.143,1.551-1.551,2.038a6.261,6.261,0,0,1,3.959,3.346c1.063,2.2,2.978,1.06,2.814-.123S37.235,40.143,34.5,38.633Z" transform="translate(25.511 10.446)" fill="#f9d616"/>
  <path id="Path_39281" data-name="Path 39281" d="M21.454,22.081a.47.47,0,1,1-.47-.47A.471.471,0,0,1,21.454,22.081Z" transform="translate(39.744 28.813)" fill="#292f33"/>
  <path id="Path_39282" data-name="Path 39282" d="M22.343,22.97a.47.47,0,1,1-.47-.47A.471.471,0,0,1,22.343,22.97Z" transform="translate(41.467 30.535)" fill="#292f33"/>
  <path id="Path_39283" data-name="Path 39283" d="M28.32,27.35a.4.4,0,0,1-.22-.068L15.939,19a.4.4,0,0,1-.106-.543.392.392,0,0,1,.543-.106l12.157,8.283a.392.392,0,0,1,.106.543A.385.385,0,0,1,28.32,27.35Z" transform="translate(30.552 22.366)" fill="#292f33"/>
  <path id="Path_39284" data-name="Path 39284" d="M41.5,29.67l.021-3.381-2.832.018a16.19,16.19,0,0,0-.637-3.155l2.538-1.019-1.143-3.184L36.71,20.036a16.092,16.092,0,0,0-1.6-2.373l1.824-2.083-2.6-2.171L32.7,15.263a16.756,16.756,0,0,0-2.6-1.727l1.187-2.526L28.125,9.817,26.97,12.258a16.126,16.126,0,0,0-2.881-.558l-.361,3.516a12.831,12.831,0,0,1,7.041,22.591l1.445,1,3.563,2.652,1.386-1.51-2.174-1.613a16.314,16.314,0,0,0,1.745-2.544l2.626,1.066,1.3-3.119-2.614-1.06a16.257,16.257,0,0,0,.623-2.993l2.823-.021ZM28.621,43.038l-1.075-2.085-1.331-.634a12.39,12.39,0,0,1-12-2.367L12.04,40.506a16.236,16.236,0,0,0,2.608,1.736l-1.163,2.5L16.6,46.057l1.175-2.538a16.552,16.552,0,0,0,2.79.573l-.018,2.638,3.381-.035.018-2.508a16.04,16.04,0,0,0,3.067-.59l.9,2.6,1.8-.529-1.125-2.608.035-.012Z" transform="translate(23.328 5.965)" fill="#f9d616"/>
</svg>
