<svg id="AIA" xmlns="http://www.w3.org/2000/svg" width="93.996" height="67.886" viewBox="0 0 93.996 67.886">
  <path id="Path_39258" data-name="Path 39258" d="M83.55,4.446H10.444a10.359,10.359,0,0,0-1.577.117L8.855,9.143,1.726,9.131A10.4,10.4,0,0,0,0,14.888v47A10.445,10.445,0,0,0,10.444,72.329H83.55A10.445,10.445,0,0,0,93.995,61.884v-47A10.445,10.445,0,0,0,83.55,4.443Z" transform="translate(0.001 -4.443)" fill="#00247d"/>
  <path id="Path_39259" data-name="Path 39259" d="M51,11.548a27.9,27.9,0,0,1-8.125,1.331,14.514,14.514,0,0,1-7.516-2.229,14.455,14.455,0,0,1-7.511,2.229,30.341,30.341,0,0,1-8.339-1.331c-.4,10.759.261,22.082,4.2,28.016,4.238,6.38,11.646,10.3,11.646,10.3s7.19-3.921,11.432-10.3C50.74,33.63,51.409,22.3,51.007,11.548Z" transform="translate(37.608 7.58)" fill="#cccc32"/>
  <path id="Path_39260" data-name="Path 39260" d="M48.605,11.975a22.477,22.477,0,0,1-7.138,1.146,14.149,14.149,0,0,1-7.141-2.036A14.11,14.11,0,0,1,27.2,13.121a22.371,22.371,0,0,1-7.132-1.146c-.388,10.186,0,20.628,3.948,26.1a39.666,39.666,0,0,0,10.316,9.3,39.635,39.635,0,0,0,10.327-9.3c3.942-5.472,4.332-15.917,3.951-26.1Z" transform="translate(38.644 8.424)" fill="#fff"/>
  <path id="Path_39261" data-name="Path 39261" d="M25.4,11.908a4.3,4.3,0,0,0,.89,2.417,6.828,6.828,0,0,1,3.44.256c1.21.505,3.44,1.4,4.585,1.019s2.165-.764,2.423-.508-1.278.637-1.533.89-1.143.511-.634,1.275,1.4,1.4,1.146,2.168a9.318,9.318,0,0,1-1.657-1.657c-.511-.767-1.657-1.4-3.569-1.146S27.054,17.9,26.8,19.043s1.143,1.019,2.291,1.272a10.03,10.03,0,0,1-2.547.637s-.764,1.4-1.53,2.673-.893,2.038-1.272,1.912-.511-1.912-.256-2.928c0,0-.89-.508-.764-3.055a8.8,8.8,0,0,1,1.657-4.2,6.092,6.092,0,0,1,0-1.657A3.918,3.918,0,0,1,25.4,11.911Z" transform="translate(44.002 10.019)" fill="#f90"/>
  <path id="Path_39262" data-name="Path 39262" d="M23.739,15.257a.446.446,0,1,1-.446-.444A.446.446,0,0,1,23.739,15.257Z" transform="translate(44.262 15.647)" fill="#fff"/>
  <path id="Path_39263" data-name="Path 39263" d="M25.346,27.72s1.3-1.228,1.31-2.221a6.859,6.859,0,0,1-1.977-2.829c-.376-1.254-1.09-3.548-2.109-4.194s-1.962-1.2-1.927-1.554,1.3.585,1.66.623,1.116.567,1.389-.311.2-1.971.952-2.259a9.308,9.308,0,0,1-.235,2.329c-.27.878-.038,2.168,1.363,3.487s3.161,1.859,4.212,1.328.065-1.527-.464-2.579a9.993,9.993,0,0,1,2.106,1.574s1.569-.294,3.037-.508,2.141-.6,2.285-.22-1.157,1.6-2.112,2.05c0,0,.173,1.01-1.883,2.523a8.787,8.787,0,0,1-4.306,1.375,5.847,5.847,0,0,1-1.281,1.046,3.875,3.875,0,0,1-2.018.341Z" transform="translate(39.994 15.96)" fill="#f90"/>
  <path id="Path_39264" data-name="Path 39264" d="M25.019,17.815a.446.446,0,0,1,.626.065.443.443,0,1,1-.684.564.446.446,0,0,1,.059-.629Z" transform="translate(48.16 21.271)" fill="#fff"/>
  <path id="Path_39265" data-name="Path 39265" d="M36.786,21.705a4.286,4.286,0,0,0-2.567-.261,6.807,6.807,0,0,1-1.733,2.978c-.984.872-2.764,2.479-2.926,3.677s-.261,2.282-.6,2.4-.015-1.422-.132-1.765.044-1.254-.866-1.131-1.874.646-2.45.082a9.3,9.3,0,0,1,2.215-.767c.908-.12,1.986-.875,2.594-2.7s.361-3.651-.561-4.382-1.419.585-2.15,1.507a10.02,10.02,0,0,1,.543-2.573s-.925-1.3-1.733-2.547-1.445-1.692-1.16-1.983S27.2,14.621,28,15.3c0,0,.852-.579,3.087.649a8.755,8.755,0,0,1,3.049,3.328A6.085,6.085,0,0,1,35.632,20a3.962,3.962,0,0,1,1.154,1.7Z" transform="translate(48.806 14.408)" fill="#f90"/>
  <path id="Path_39266" data-name="Path 39266" d="M26.767,15.529a.44.44,0,0,1-.206-.6.447.447,0,0,1,.6-.206.447.447,0,0,1-.394.8Z" transform="translate(51.368 15.392)" fill="#fff"/>
  <path id="Path_39267" data-name="Path 39267" d="M21.132,19.973c.185.308.382.605.587.887a39.666,39.666,0,0,0,10.316,9.3,39.635,39.635,0,0,0,10.327-9.3c.2-.282.4-.579.585-.887H21.129Z" transform="translate(40.936 25.643)" fill="#9cf"/>
  <path id="Path_39268" data-name="Path 39268" d="M49.61,38.387V4.444H10.447a11.38,11.38,0,0,0-1.577.117L8.858,9.141,1.729,9.129s-.109.153-.332.535A10.428,10.428,0,0,0,0,14.886v23.5H49.607Z" transform="translate(0.001 -4.441)" fill="#00247d"/>
  <path id="Path_39269" data-name="Path 39269" d="M49.6,4.446H43.518l-12.19,8.536V4.446H18.275v6.709L8.864,4.563A10.305,10.305,0,0,0,4.5,6.3l12.278,8.589H12.245L2.525,8.076a10.661,10.661,0,0,0-.8,1.054l8.227,5.757H0V27.941H10.144L0,35.164v3.222H8.7l9.576-6.706v6.706H31.331V29.85l12.187,8.536h6.089v-5.3l-7.349-5.146h7.349V14.888H42.261l7.346-5.146v-5.3Z" transform="translate(0.007 -4.443)" fill="#eee"/>
  <path id="Path_39270" data-name="Path 39270" d="M28.721,4.444H20.887V17.5H0v7.834H20.887V38.384h7.834V25.331H49.608V17.5H28.721Z" transform="translate(0.003 -4.441)" fill="#cf1b2b"/>
  <path id="Path_39271" data-name="Path 39271" d="M48.343,4.444H44.527L30.064,14.572v.317h4.1L48.34,4.961ZM3.235,6.3A10.536,10.536,0,0,0,1.258,8.077l9.719,6.812h4.529L3.232,6.3ZM15.542,27.942.653,38.387H5.162l11.852-8.3V27.942Zm32.8,9.928V34.686l-9.625-6.741h-4.55Z" transform="translate(1.268 -4.441)" fill="#cf1b2b"/>
</svg>
