<svg id="ALA" xmlns="http://www.w3.org/2000/svg" width="93.996" height="67.886" viewBox="0 0 93.996 67.886">
  <path id="Path_39320" data-name="Path 39320" d="M47,4.444H41.774V33.165H93.993V27.942H47ZM41.774,48.832v23.5H47v-23.5h47V43.61H41.774ZM33.943,43.61H0v5.222H28.721v23.5h5.222V43.61Zm0-15.667V4.444H28.721v23.5H0v5.222H33.943Z" transform="translate(0.003 -4.444)" fill="#ffce00"/>
  <path id="Path_39321" data-name="Path 39321" d="M41.776,4.444H33.942V33.165H0V43.61H33.942V72.33h7.834V43.61H93.995V33.165H41.776Z" transform="translate(0.001 -4.444)" fill="#d21034"/>
  <path id="Path_39322" data-name="Path 39322" d="M47,48.832v23.5H83.548A10.445,10.445,0,0,0,93.993,61.885V48.832Zm-47,0V61.885A10.445,10.445,0,0,0,10.445,72.33H28.721v-23.5ZM28.721,4.444H10.445A10.445,10.445,0,0,0,0,14.889V27.942H28.721V4.444Zm54.827,0H47v23.5h47V14.889A10.445,10.445,0,0,0,83.548,4.444Z" transform="translate(0.003 -4.444)" fill="#0053a5"/>
</svg>
