<svg id="ALB" xmlns="http://www.w3.org/2000/svg" width="93.996" height="67.886" viewBox="0 0 93.996 67.886">
  <path id="Path_39272" data-name="Path 39272" d="M83.55,4.444H10.444A10.445,10.445,0,0,0,0,14.889v47A10.445,10.445,0,0,0,10.444,72.33H83.55A10.445,10.445,0,0,0,93.995,61.885v-47A10.445,10.445,0,0,0,83.55,4.444Z" transform="translate(0.001 -4.444)" fill="#e41e20"/>
  <path id="Path_39273" data-name="Path 39273" d="M48.392,38.007a.944.944,0,0,1-.52-.273,1.026,1.026,0,0,0-1.363-.123,2.186,2.186,0,0,0-.455.37.372.372,0,0,1-.3.129l-2.03.056c-.053,0-.117.035-.153-.041.3-.294.62-.579.919-.875a.475.475,0,0,1,.511-.141,1.148,1.148,0,0,0,1.43-.585,1.037,1.037,0,0,1,.708-.555c.138-.035.279-.05.446-.082a1.1,1.1,0,0,0-1.284-.2.489.489,0,0,1-.391.026c-.629-.241-.919-.106-1.163.52a.579.579,0,0,1-.211.311c-.626.411-1.251.825-1.874,1.248a.36.36,0,0,1-.341.053c-.849-.229-1.7-.444-2.552-.67-.54-.141-1.078-.285-1.683-.452.332-.329.629-.614.922-.9.238-.238.17-.5-.153-.59-.267-.076-.535-.129-.808-.2a5.411,5.411,0,0,1-4.109-3.912,1.176,1.176,0,0,1-.05-.7.4.4,0,0,1,.311-.311.353.353,0,0,1,.364.194,2.987,2.987,0,0,1,.2.414,5.1,5.1,0,0,0,1.692,2.294.927.927,0,0,0,.667.176c.2-.018.435-.041.508-.267s-.1-.37-.264-.482a3.2,3.2,0,0,1-1.263-2.021.679.679,0,0,1,.423-.846.645.645,0,0,1,.74.517c.144.467.27.94.438,1.4a4.043,4.043,0,0,0,2.209,2.367,1,1,0,0,0,1.14-.247.5.5,0,0,0,0-.726,1.3,1.3,0,0,0-.467-.3,3.586,3.586,0,0,1-1.51-1.093,2.423,2.423,0,0,1-.446-1.915c.059-.361.267-.441.585-.276a1.288,1.288,0,0,1,.379.311c1.281,1.407,2.55,2.823,3.912,4.144a2.76,2.76,0,0,0,2.555.784,2.045,2.045,0,0,0,1.486-.928.669.669,0,0,0,.044-.764.712.712,0,0,0-.728-.247,4.609,4.609,0,0,1-3.536-1.025,10.644,10.644,0,0,1-2.347-2.826,1.526,1.526,0,0,1-.25-.834c.009-.256.123-.317.35-.2a1.2,1.2,0,0,1,.394.355,8.259,8.259,0,0,0,2.605,2.182,4.307,4.307,0,0,0,2.582.579c.681-.082,1-.308,1.125-1.154.085-.576-.2-.808-.749-.64a4.077,4.077,0,0,1-3.3-.4,8.471,8.471,0,0,1-2.488-2.282,1.274,1.274,0,0,1-.238-.928.3.3,0,0,1,.382-.285.93.93,0,0,1,.493.247,11.641,11.641,0,0,0,2.62,1.648,3.66,3.66,0,0,0,2.08.411,1.328,1.328,0,0,0,1.157-1.357.663.663,0,0,0-.62-.664,2.858,2.858,0,0,0-.634.035,4.4,4.4,0,0,1-3.017-.646,18.787,18.787,0,0,1-1.942-1.524.639.639,0,0,1-.141-.167c-.141-.214-.167-.5-.041-.59.191-.144.358-.009.508.088a8.712,8.712,0,0,0,2.717,1.125,4.7,4.7,0,0,0,2.25.076,1.167,1.167,0,0,0,.931-.987.715.715,0,0,0-.864-.89,1.6,1.6,0,0,0-.529.176,2.789,2.789,0,0,1-2.15.253,7.412,7.412,0,0,1-2.053-.949,4.46,4.46,0,0,1-.937-.661.532.532,0,0,1-.085-.711c.15-.188.364-.209.667-.056a9.65,9.65,0,0,0,1.137.511,5.636,5.636,0,0,0,2.879.373,2.348,2.348,0,0,0,1.991-1.921.813.813,0,0,0-.012-.411.486.486,0,0,0-.632-.379,1.553,1.553,0,0,0-.629.361,3.417,3.417,0,0,1-3.252.7,5.731,5.731,0,0,1-1.545-.717,1.1,1.1,0,0,1-.546-.593c-.094-.305.035-.482.355-.479a1.943,1.943,0,0,1,.364.038,7.838,7.838,0,0,0,3.8-.035,2.688,2.688,0,0,0,2.056-1.924.894.894,0,0,0-.285-.949.715.715,0,0,0-.878.129c-.153.12-.294.258-.444.385A5.791,5.791,0,0,1,41.9,16.109a.679.679,0,0,1-.62-.749c.035-.317.291-.485.714-.514a8.165,8.165,0,0,0,4.943-2.109A3.049,3.049,0,0,0,47.9,11.1a1.4,1.4,0,0,0-.391-1.348.575.575,0,0,0-.943.062c-.085.109-.153.232-.229.347A7.3,7.3,0,0,1,41.5,13.4a.378.378,0,0,1-.455-.191c-.217-.326-.414-.4-.693-.291a40.242,40.242,0,0,0-4.535,2.115.37.37,0,0,0-.211.376,2.606,2.606,0,0,0,.162.737,2.254,2.254,0,0,1-.059,1.533,1.478,1.478,0,0,1-1.551.984,1.447,1.447,0,0,1-1.287-1.137,2.644,2.644,0,0,1,.211-1.95,4.927,4.927,0,0,1,2.491-2.282,15.766,15.766,0,0,1,2.591-.7,3.4,3.4,0,0,0,1.351-.473.566.566,0,0,0,.27-.408c-.367.109-.7.226-1.046.314a1.259,1.259,0,0,1-1.2-.376,1.254,1.254,0,0,1,.358-.032,8.308,8.308,0,0,0,2.141-.1,2.124,2.124,0,0,0,1.5-.814.712.712,0,0,0,.129-.388c0-.326-.223-.458-.505-.291a1.888,1.888,0,0,0-.491.476,1.886,1.886,0,0,1-1.046.632,4.489,4.489,0,0,1-1.428.138,1.045,1.045,0,0,1-.391-.091,2.836,2.836,0,0,1,.934-.7.754.754,0,0,1,.972.2c.035.035.056.106.129.082a.867.867,0,0,0-.775-1.1,3.744,3.744,0,0,0-1.025.012c-.059.006-.147.068-.176-.047-.1-.317-.382-.411-.646-.5a3.291,3.291,0,0,0-2.32.115,10.28,10.28,0,0,1-2.062.593c-.42.076-.843.123-1.289.188a13.824,13.824,0,0,0,1.275.952,4.534,4.534,0,0,0-1.9,1.439l.015.082h1.187l-.006.068c-.367.132-.74.253-1.1.4a2.567,2.567,0,0,0-.984.693c.2.05.385.088.564.135.144.035.173.117.059.22-.517.452-.949.99-1.419,1.486-.12.126-.179.07-.27-.023-.461-.482-.881-1.007-1.386-1.448-.147-.129-.082-.206.073-.247s.341-.082.535-.126a4.462,4.462,0,0,0-2.094-1.09l.018-.082h1.24a4.654,4.654,0,0,0-1.947-1.51A11.212,11.212,0,0,0,26.692,10a11.755,11.755,0,0,1-3.41-.784,3.227,3.227,0,0,0-2.388-.059.744.744,0,0,0-.5.394c-.044.123-.1.129-.214.115a2.675,2.675,0,0,0-1.21.035.829.829,0,0,0-.567,1.084,1.043,1.043,0,0,1,.6-.4,1.762,1.762,0,0,1,1.378.814,2.659,2.659,0,0,1-1,.059,2.492,2.492,0,0,1-1.986-.937,1.072,1.072,0,0,0-.223-.223c-.147-.112-.305-.232-.485-.1a.436.436,0,0,0-.1.517,1.094,1.094,0,0,0,.253.388,2.042,2.042,0,0,0,1.09.561,8.284,8.284,0,0,0,2.409.153.556.556,0,0,1,.364.044,1.444,1.444,0,0,1-1.539.285,4.036,4.036,0,0,0-.72-.229.513.513,0,0,0,.256.394,2.36,2.36,0,0,0,.916.382c.646.15,1.284.3,1.93.438a5.355,5.355,0,0,1,3.2,2.006,2.974,2.974,0,0,1,.652,2.356,1.479,1.479,0,0,1-1.3,1.354,1.461,1.461,0,0,1-1.633-1.1,2.253,2.253,0,0,1-.009-1.419,2.41,2.41,0,0,0,.159-.764.335.335,0,0,0-.179-.32,40.205,40.205,0,0,0-4.6-2.15.432.432,0,0,0-.458.079,1.051,1.051,0,0,0-.27.311.222.222,0,0,1-.279.12,7.341,7.341,0,0,1-4.012-2.083,6.774,6.774,0,0,1-1.06-1.369c-.344-.57-.849-.576-1.216-.021a1.466,1.466,0,0,0-.191,1.307,4.018,4.018,0,0,0,1.862,2.221,8.19,8.19,0,0,0,4.171,1.383.547.547,0,0,1,.514.355.567.567,0,0,1-.1.62.782.782,0,0,1-.614.3c-.391,0-.784.006-1.175-.012a4.7,4.7,0,0,1-3.24-1.287A1.371,1.371,0,0,0,11.3,14.5a.6.6,0,0,0-.8.317.916.916,0,0,0-.068.646,2.426,2.426,0,0,0,1.054,1.5,4.528,4.528,0,0,0,2,.655,9.063,9.063,0,0,0,2.87-.176c.223-.044.482-.126.646.126.1.153-.021.505-.223.708a.307.307,0,0,1-.076.062,9.562,9.562,0,0,1-1.148.643,3.549,3.549,0,0,1-3.971-.555,1.24,1.24,0,0,0-.555-.294.484.484,0,0,0-.617.367.907.907,0,0,0-.012.435A2.432,2.432,0,0,0,12.793,20.9a6.408,6.408,0,0,0,2.558-.455,12,12,0,0,0,1.151-.532.427.427,0,0,1,.523.059.459.459,0,0,1,.094.54.8.8,0,0,1-.308.373,11.858,11.858,0,0,1-2.05,1.187,3.148,3.148,0,0,1-3.043-.047,1.135,1.135,0,0,0-.52-.129.708.708,0,0,0-.764.869,1.183,1.183,0,0,0,.928,1.022,3.658,3.658,0,0,0,1.36.079,8.555,8.555,0,0,0,3.651-1.3.833.833,0,0,1,.15-.082c.109-.041.22-.082.323.006a.3.3,0,0,1,.076.317.829.829,0,0,1-.294.491c-.461.4-.937.787-1.422,1.16a4.471,4.471,0,0,1-3.237,1c-.22-.021-.438-.047-.658-.062a.718.718,0,0,0-.855.852A1.369,1.369,0,0,0,11.6,27.421a2.79,2.79,0,0,0,1.328-.129A10.434,10.434,0,0,0,16.3,25.365a1.122,1.122,0,0,1,.4-.232c.3-.085.488.038.493.352a1.312,1.312,0,0,1-.267.872,9.578,9.578,0,0,1-1.886,1.874,4.463,4.463,0,0,1-2.937.952,5.38,5.38,0,0,1-1.078-.209.447.447,0,0,0-.605.294,1.276,1.276,0,0,0,.84,1.48,3.527,3.527,0,0,0,2.177-.223,7.909,7.909,0,0,0,3.278-2.479,1.254,1.254,0,0,1,.414-.373c.214-.112.329-.044.332.2a1.66,1.66,0,0,1-.273.9,11.836,11.836,0,0,1-1.977,2.479A4.73,4.73,0,0,1,11.656,32.6c-.179-.009-.358-.044-.535-.035a.569.569,0,0,0-.561.819,1.205,1.205,0,0,0,.414.593,2.786,2.786,0,0,0,3.689-.232C16.038,32.42,17.31,31,18.6,29.588a1.386,1.386,0,0,1,.391-.326c.311-.153.511-.07.576.27a2.449,2.449,0,0,1-.179,1.48,3.188,3.188,0,0,1-1.765,1.536,1.358,1.358,0,0,0-.435.267.51.51,0,0,0,0,.811.955.955,0,0,0,1.11.206,4.1,4.1,0,0,0,2.2-2.376c.17-.467.294-.949.444-1.422a.636.636,0,0,1,.717-.482.651.651,0,0,1,.452.764,3.111,3.111,0,0,1-1.2,2.036.929.929,0,0,0-.279.267c-.141.206-.106.385.129.476a.95.95,0,0,0,.934-.073,5,5,0,0,0,1.745-2.338,2.814,2.814,0,0,1,.2-.411.351.351,0,0,1,.37-.182.385.385,0,0,1,.294.294,1.161,1.161,0,0,1-.041.7,5.427,5.427,0,0,1-4.15,3.93q-.4.088-.784.194a.318.318,0,0,0-.15.576c.247.253.5.5.74.749.05.047.123.079.117.176a1.272,1.272,0,0,1-.206.062c-1.316.347-2.632.69-3.945,1.043a.4.4,0,0,1-.364-.059c-.532-.361-1.066-.723-1.61-1.069a1.194,1.194,0,0,1-.532-.629.607.607,0,0,0-.846-.441,1.411,1.411,0,0,1-.908-.035.956.956,0,0,0-1.016.285c.059.012.088.021.12.023a1.179,1.179,0,0,1,1.072.684.96.96,0,0,0,.817.543,1.58,1.58,0,0,0,.652-.05.309.309,0,0,1,.347.082c.32.314.655.614.981.922.012.012.009.041.006.018-.646,0-1.289-.009-1.933,0a.869.869,0,0,1-.67-.258,1.144,1.144,0,0,0-1.833.015.39.39,0,0,1-.261.106.848.848,0,0,0-.734.6c.491-.329.9-.112,1.3.141a.344.344,0,0,0,.088.041,1.362,1.362,0,0,0,1.475-.147.256.256,0,0,1,.179-.056c.787.053,1.574.1,2.409.153a3.089,3.089,0,0,1-.529.361,1.251,1.251,0,0,1-1.075.247,1.216,1.216,0,0,0-1.413.593,3.535,3.535,0,0,0-.488,1.815c0,.044-.015.1.035.138.07-.138.129-.279.209-.411.2-.332.432-.6.881-.435a.734.734,0,0,0,.267.023.894.894,0,0,0,.978-.74.554.554,0,0,1,.344-.429c.132-.062.261-.135.394-.2a6.111,6.111,0,0,0,1.234-.593.222.222,0,0,1,.229,0l1.342.455a.273.273,0,0,1,.185.138,1.181,1.181,0,0,0,1.48.755,1.315,1.315,0,0,1,.811.123c.223.12.209.361.258.582a.783.783,0,0,0-.1-1.093,2.518,2.518,0,0,1-.423-.526.781.781,0,0,0-1.01-.364.738.738,0,0,1-.649-.041,7.8,7.8,0,0,0-1.04-.482c.267-.082.473-.153.684-.209,1.163-.317,2.353-.52,3.5-.887a.273.273,0,0,1,.282.082c.311.273.62.552.937.822a.4.4,0,0,0,.687-.106c.112-.17.223-.347.332-.517.441-.711.808-1.469,1.281-2.168a6.425,6.425,0,0,1,1.639-1.762.806.806,0,0,1,1.345.555,2.933,2.933,0,0,1-.27,1.806,6.91,6.91,0,0,1-2.984,3.257,2.073,2.073,0,0,1-1.475.288,1.691,1.691,0,0,0-1.007.082.425.425,0,0,0-.2.708,1.425,1.425,0,0,0,.767.529,2.021,2.021,0,0,0,2.318-.444,5.857,5.857,0,0,1,.529-.476.411.411,0,0,1,.482-.044.423.423,0,0,1,.217.432.561.561,0,0,1-.144.329,7.744,7.744,0,0,1-.846.881,3,3,0,0,1-1.965.819,1.032,1.032,0,0,0-.511.15.347.347,0,0,0-.115.585,1.135,1.135,0,0,0,.411.3,2.208,2.208,0,0,0,2.165-.223,5.929,5.929,0,0,0,1.131-.966c.141-.147.3-.388.526-.247s.159.411.091.629a3.828,3.828,0,0,1-.59,1.228,1.931,1.931,0,0,1-1.1.731,3.528,3.528,0,0,1-.681.068.387.387,0,0,0-.341.632.779.779,0,0,0,.129.176,1.367,1.367,0,0,0,1.895.191,4.548,4.548,0,0,0,1.269-1.771c.091-.188.173-.426.432-.4s.326.267.391.476a1.157,1.157,0,0,1,.053.388,2.761,2.761,0,0,1-.5,1.513,5.677,5.677,0,0,1-1.01,1.1.177.177,0,0,0-.044.279c.916,1.375,1.827,2.761,2.735,4.142.079.12.12.1.182-.006.17-.27.341-.538.517-.8.728-1.1,1.454-2.2,2.191-3.3.1-.147.091-.223-.047-.338a5.826,5.826,0,0,1-.714-.711,2.875,2.875,0,0,1-.77-1.927,1.078,1.078,0,0,1,.206-.67.288.288,0,0,1,.493-.021,1.319,1.319,0,0,1,.185.317,4.389,4.389,0,0,0,1.281,1.759,1.385,1.385,0,0,0,1.965-.332c.238-.367.085-.7-.344-.693A2.14,2.14,0,0,1,32,43.314a1.771,1.771,0,0,1-.226-.864c.012-.112.015-.238.129-.3a.28.28,0,0,1,.329.085c.2.182.385.379.582.561a3.254,3.254,0,0,0,1.774.972,1.819,1.819,0,0,0,1.448-.37c.329-.267.276-.576-.109-.728a1.343,1.343,0,0,0-.429-.1,3.831,3.831,0,0,1-2.855-1.789.445.445,0,0,1,.056-.623.438.438,0,0,1,.617.05c.247.214.485.435.737.643a1.482,1.482,0,0,0,.734.361,2.875,2.875,0,0,0,1.574-.247,1.2,1.2,0,0,0,.485-.394c.247-.329.17-.593-.206-.752a1.724,1.724,0,0,0-1.01-.068,1.853,1.853,0,0,1-1.383-.261c-.317-.209-.652-.4-.955-.634a6.35,6.35,0,0,1-2.262-3.143,2.272,2.272,0,0,1-.05-1.489.773.773,0,0,1,1.16-.467,1.748,1.748,0,0,1,.479.338,8.875,8.875,0,0,1,1.334,1.557c.549.849.987,1.762,1.554,2.6.235.35.435.376.758.1.294-.253.593-.505.881-.773a.283.283,0,0,1,.323-.082c.822.261,1.668.441,2.508.634a14.812,14.812,0,0,1,1.636.455,10.251,10.251,0,0,0-1.151.529.567.567,0,0,1-.464.006.8.8,0,0,0-1.034.294,4.09,4.09,0,0,1-.5.623.748.748,0,0,0-.062,1.028c.085-.67.411-.676.96-.693a1.424,1.424,0,0,1,.244.032,1.159,1.159,0,0,0,1.328-.717.372.372,0,0,1,.244-.211c.382-.12.764-.238,1.134-.379a.544.544,0,0,1,.587.056,3.455,3.455,0,0,0,.611.3,7.033,7.033,0,0,1,.928.435.428.428,0,0,1,.232.317.888.888,0,0,0,.858.79,1.4,1.4,0,0,0,.605-.044.378.378,0,0,1,.391.115,2.3,2.3,0,0,1,.505.764,1.5,1.5,0,0,0,.026-.341,4.009,4.009,0,0,0-.285-1.184,1.284,1.284,0,0,0-1.53-1.022,1.72,1.72,0,0,1-1.319-.338c-.115-.076-.258-.117-.35-.27.808-.05,1.577-.1,2.35-.153a.285.285,0,0,1,.206.044,1.365,1.365,0,0,0,1.686.05,1.136,1.136,0,0,1,1.146-.1c.012.006.026-.012.05-.026A.775.775,0,0,0,48.4,38Z" transform="translate(17.758 4.296)"/>
  <path id="Path_39274" data-name="Path 39274" d="M27.25,9.539c-.244.147-.25.364-.018.52a1.617,1.617,0,0,0,1.451-.012c.238-.17.232-.373-.021-.517a1.311,1.311,0,0,0-.681-.144,1.35,1.35,0,0,0-.731.153Zm-12.357.535c.276-.132.27-.388,0-.543a1.5,1.5,0,0,0-.8-.144,1.227,1.227,0,0,0-.576.126.329.329,0,0,0-.22.27.315.315,0,0,0,.2.282,1.519,1.519,0,0,0,1.386.012Z" transform="translate(25.776 5.129)" fill="#e41e20"/>
</svg>
