<svg id="AND" xmlns="http://www.w3.org/2000/svg" width="93.996" height="67.886" viewBox="0 0 93.996 67.886">
  <path id="Path_39218" data-name="Path 39218" d="M93.995,61.885A10.445,10.445,0,0,1,83.55,72.33H10.444A10.445,10.445,0,0,1,0,61.885v-47A10.445,10.445,0,0,1,10.444,4.444H83.55A10.445,10.445,0,0,1,93.995,14.889Z" transform="translate(0.001 -4.444)" fill="#d01c3a"/>
  <path id="Path_39219" data-name="Path 39219" d="M10.445,4.444A10.445,10.445,0,0,0,0,14.889v47A10.445,10.445,0,0,0,10.445,72.33H31.332V4.447H10.445Z" transform="translate(0.003 -4.444)" fill="#0020a8"/>
  <path id="Path_39220" data-name="Path 39220" d="M10.667,4.444H42V72.327H10.667Z" transform="translate(20.668 -4.444)" fill="#fedf00"/>
  <path id="Path_39221" data-name="Path 39221" d="M38.391,29.8c-.414-1.234-1.469-1-1.469-.587a2.111,2.111,0,0,1-.352-2.881s2.053.244.881-1.342a3.847,3.847,0,0,0,1.818-3.049c.059-2.05-2.288-3.346-3.284-2.526,0,0-.059-.82-.47-.82s-.646.529-.646.529a3.3,3.3,0,0,1,.937-2.112c.881-.764,2.7-2.817-1.116-3.989s-3.986,1.234-3.4,1.762a4.113,4.113,0,0,1-1.994.467c-1.057-.059-.294-1.287-.059-1.818S29.294,11.03,28,11.092s-1.351.587-1.818.764a1.745,1.745,0,0,1-.931.056,1.759,1.759,0,0,1-.94-.059c-.467-.176-.529-.7-1.818-.764s-1.469,1.818-1.234,2.344,1,1.762-.059,1.818a4.151,4.151,0,0,1-1.994-.467c.587-.529.411-2.934-3.4-1.762s-1.994,3.228-1.116,3.989a3.3,3.3,0,0,1,.94,2.112s-.235-.529-.646-.529-.467.819-.467.819c-1-.819-3.346.47-3.287,2.526a3.834,3.834,0,0,0,1.821,3.049c-1.175,1.583.881,1.342.881,1.342a2.108,2.108,0,0,1-.352,2.881c0-.411-1.054-.646-1.472.587a1.266,1.266,0,0,0,.825,1.642c-1.642,2.115-.587,4.106,1,5.278s4.635,1,6.159,1.116,1.821.881,1.821.881c-1.172,1.116.587,2,.587,2,.352,1.172,1.759-.117,1.759-.117l1,.881,1-.881s1.41,1.289,1.759.117c0,0,1.762-.881.587-2,0,0,.294-.764,1.821-.881s4.576.059,6.159-1.116,2.641-3.166,1-5.278a1.267,1.267,0,0,0,.825-1.639Z" transform="translate(21.756 8.426)" fill="#c7b37f"/>
  <path id="Path_39222" data-name="Path 39222" d="M20.947,20.788V13.045H13.2v7.743Z" transform="translate(25.583 12.218)" fill="#d01c3a"/>
  <path id="Path_39223" data-name="Path 39223" d="M15.682,17.69l-2.3,2.376.361.411,1.942-2.141Zm3.783-3.02s1.022.267,1.022-.646-.611-.911-.814-.911-1.143.15-1.175.529.367.617.153.822-.787.714-.787.714l.341.408a5.437,5.437,0,0,0,.881-.975c.2-.288.047-.987.235-1.028.555-.115.764.15.734.355s-.382.411-.382.411l-.206.323Z" transform="translate(25.922 12.352)" fill="#fedf00"/>
  <path id="Path_39224" data-name="Path 39224" d="M17.767,15.389s.147,1.087.673,1.143.7-1.686,1.569-1.686.952,1.513,0,1.748l-.129-.438s.617-.617.176-.708-.646.47-.7.708-.411.849-.94.849c-.881,0-1-.808-1.131-1.428s.485-.185.485-.185Zm-1.569,0s-.147,1.087-.676,1.143-.7-1.686-1.569-1.686-.955,1.513,0,1.748l.129-.438s-.617-.617-.176-.708.646.47.7.708.411.849.937.849c.881,0,1-.808,1.131-1.428s-.482-.185-.482-.185Z" transform="translate(25.714 15.708)" fill="#fff"/>
  <path id="Path_39225" data-name="Path 39225" d="M16.161,13.154l2.259,2.876-1.131,3.081a2.417,2.417,0,0,0-1.131-.267,2.946,2.946,0,0,0-1.2.267L13.752,16Z" transform="translate(26.644 12.43)" fill="#fff"/>
  <path id="Path_39226" data-name="Path 39226" d="M17.41,13.493l1.577,1.892-.8,2.42-.764-.235Zm-.517,0-1.577,1.892.8,2.42.764-.235ZM13.2,20.622v4.811c0,3.169,2.315,3.607,4.3,3.169a9.843,9.843,0,0,1,3.442,0V20.622H13.207Z" transform="translate(25.583 13.086)" fill="#fedf00"/>
  <path id="Path_39227" data-name="Path 39227" d="M16.884,23.9l.156-.032V15.919H15.865v8.116A5.978,5.978,0,0,0,16.884,23.9Zm2.505-.12v-7.86H18.215V23.75a10.481,10.481,0,0,1,1.175.035Zm-4.694.153V15.922H13.524v7.417A2.638,2.638,0,0,0,14.7,23.935Z" transform="translate(26.203 17.786)" fill="#d01c3a"/>
  <path id="Path_39228" data-name="Path 39228" d="M16.16,20.788V13.045H23.9v7.743Z" transform="translate(31.309 12.218)" fill="#fedf00"/>
  <path id="Path_39229" data-name="Path 39229" d="M16.479,13.044h1.175v7.743H16.479Zm2.347,0H20v7.743H18.826Zm2.347,0h1.172v7.743H21.173Z" transform="translate(31.927 12.217)" fill="#d01c3a"/>
  <path id="Path_39230" data-name="Path 39230" d="M23.9,15.92v4.811c0,3.169-2.315,3.607-4.3,3.169a9.843,9.843,0,0,0-3.442,0V15.92H23.9Z" transform="translate(31.307 17.788)" fill="#fedf00"/>
  <path id="Path_39231" data-name="Path 39231" d="M16.628,16.746l.734-.587h.908v.473s1.292-.021,2.347-.129,1.378.684,1.054.887.059,1,0,1.378-.764.937-.587.617a2.67,2.67,0,0,0,0-1.2,3.583,3.583,0,0,1-.382.881c-.176.206-.793.235-.558.059s.47-.555.264-.764a1.734,1.734,0,0,0-1.163-.147,5.876,5.876,0,0,1-.329,1.172c-.12.059-.267-.088-.176-.411a2.647,2.647,0,0,0,0-.881s-.614-.032-.587.235.294.382.238.587-.441.47-.47.117-.617-.587-.352-.764a3.771,3.771,0,0,0,.529-.452,1.058,1.058,0,0,1-.564-.4c-.235-.32-.435-.294-.9-.294-.235,0,0-.385,0-.385Zm0,3.522.734-.587h.908v.47s1.292-.018,2.347-.129,1.378.684,1.054.89.059,1,0,1.378-.764.934-.587.617a2.668,2.668,0,0,0,0-1.2,3.631,3.631,0,0,1-.382.881c-.176.206-.793.235-.558.059s.47-.558.264-.764a1.756,1.756,0,0,0-1.163-.15,5.959,5.959,0,0,1-.329,1.175c-.12.056-.267-.088-.176-.411a2.647,2.647,0,0,0,0-.881s-.614-.029-.587.235.294.382.238.587-.441.473-.47.117-.617-.587-.352-.764a3.771,3.771,0,0,0,.529-.452,1.063,1.063,0,0,1-.564-.4c-.235-.323-.435-.294-.9-.294-.235,0,0-.382,0-.382Z" transform="translate(32.013 18.251)" fill="#d01c3a"/>
  <path id="Path_39232" data-name="Path 39232" d="M13.038,18.836c0,.085,4.312,1.257,4.8,1.351s.308,1.084-.338,1.025a32.471,32.471,0,0,1-4.253-.966C12.832,20.038,13.038,18.836,13.038,18.836Zm5.924,1.454s1.292.176,2.406.223a12.508,12.508,0,0,0,1.877-.053l.793,1.075s-1.378.15-2.318.15-2.464-.15-2.464-.15Zm5.634,0s1.848-.338,2.967-.6,2.579-.79,2.964-.849.646.629.761.723l.117.1a27.653,27.653,0,0,1-2.876,1.172c-.937.267-3.933.676-3.933.676s-.429-1.14,0-1.216Z" transform="translate(25.161 23.437)" fill="#af9167"/>
</svg>
