<svg id="ARE" xmlns="http://www.w3.org/2000/svg" width="93.993" height="67.886" viewBox="0 0 93.993 67.886">
  <path id="Path_39233" data-name="Path 39233" d="M68.05,4.444H8v23.5H78.495V14.889A10.445,10.445,0,0,0,68.05,4.444Z" transform="translate(15.498 -4.444)" fill="#068241"/>
  <path id="Path_39234" data-name="Path 39234" d="M8,12.444H78.495V33.331H8Z" transform="translate(15.498 11.054)" fill="#eee"/>
  <path id="Path_39235" data-name="Path 39235" d="M8,43.054H68.05A10.445,10.445,0,0,0,78.495,32.609V19.556H8Z" transform="translate(15.498 24.832)" fill="#141414"/>
  <path id="Path_39236" data-name="Path 39236" d="M10.445,4.444A10.445,10.445,0,0,0,0,14.889v47A10.445,10.445,0,0,0,10.445,72.33H23.5V4.447H10.445Z" transform="translate(0 -4.444)" fill="#ec2028"/>
</svg>
