<svg id="ARG" xmlns="http://www.w3.org/2000/svg" width="93.996" height="67.886" viewBox="0 0 93.996 67.886">
  <path id="Path_39287" data-name="Path 39287" d="M93.995,61.885A10.445,10.445,0,0,1,83.55,72.33H10.444A10.445,10.445,0,0,1,0,61.885v-47A10.445,10.445,0,0,1,10.444,4.444H83.55A10.445,10.445,0,0,1,93.995,14.889Z" transform="translate(0.001 -4.444)" fill="#75aadb"/>
  <path id="Path_39288" data-name="Path 39288" d="M0,11.556H93.993V37.665H0Z" transform="translate(0.003 9.334)" fill="#eee"/>
  <path id="Path_39289" data-name="Path 39289" d="M24.611,11.556l1.275,6.653,3.724-5.657-1.372,6.632,5.6-3.8-3.8,5.6,6.635-1.369-5.657,3.722,6.653,1.275-6.653,1.275,5.657,3.724L30.039,28.24l3.8,5.6-5.6-3.8,1.372,6.635-3.724-5.657-1.275,6.653-1.275-6.653-3.722,5.657,1.369-6.635-5.6,3.8,3.8-5.6-6.632,1.372,5.657-3.724-6.653-1.275,6.653-1.275-5.657-3.722,6.632,1.369-3.8-5.6,5.6,3.8-1.369-6.632,3.722,5.657Z" transform="translate(22.388 9.334)" fill="#fcbf49"/>
  <path id="Path_39290" data-name="Path 39290" d="M24.611,15.028l.632,3.3.3,1.58.884-1.342,1.848-2.808-1.007,4.87,4.115-2.79-2.79,4.115,4.87-1L30.656,22.8l-1.345.881,4.882.934-4.882.934,1.342.884,2.808,1.848L28.588,27.27l2.79,4.112-4.112-2.79.326,1.577.681,3.3-1.848-2.808-.881-1.345-.3,1.58-.632,3.3-.632-3.3-.3-1.58-2.735,4.153.679-3.3.326-1.574-4.115,2.79,2.79-4.115-4.87,1.007,4.15-2.735-4.876-.934,4.882-.934-4.153-2.735,4.867,1-.9-1.331L17.826,17.83l4.115,2.793-.326-1.574-.679-3.293,2.735,4.153.3-1.58.634-3.3Zm0-3.472-1.275,6.653-3.722-5.657,1.369,6.635-5.6-3.8,3.8,5.6-6.632-1.369,5.657,3.722-6.653,1.272,6.653,1.275-5.657,3.724,6.632-1.372-3.8,5.6,5.6-3.8-1.369,6.635,3.722-5.657,1.275,6.653,1.275-6.653,3.724,5.657L28.239,30.04l5.6,3.8-3.8-5.6,6.635,1.372-5.657-3.724,6.653-1.275-6.653-1.275,5.657-3.722-6.635,1.369,3.8-5.6-5.6,3.8,1.372-6.635-3.724,5.657-1.275-6.65Zm5,.993Zm4.233,2.829Zm2.832,4.238Z" transform="translate(22.388 9.334)" fill="#843511"/>
  <path id="Path_39291" data-name="Path 39291" d="M24.667,19.444a5.222,5.222,0,1,1-5.222-5.222A5.222,5.222,0,0,1,24.667,19.444Z" transform="translate(27.555 14.499)" fill="#fcbf49"/>
  <path id="Path_39292" data-name="Path 39292" d="M19.66,25.208a5.549,5.549,0,1,1,5.549-5.549A5.553,5.553,0,0,1,19.66,25.208Zm0-10.445a4.9,4.9,0,1,0,4.9,4.9A4.9,4.9,0,0,0,19.66,14.763Z" transform="translate(27.34 14.284)" fill="#843511"/>
  <path id="Path_39293" data-name="Path 39293" d="M17.832,16.343c0,.405-.681.731-1.522.731s-1.524-.326-1.524-.731.681-.731,1.524-.731,1.522.326,1.522.731Zm4.056-.062c0-.42-.693-.764-1.551-.764s-1.551.341-1.551.764.693.764,1.551.764S21.888,16.7,21.888,16.282Z" transform="translate(28.648 17.009)" fill="#c16540"/>
  <path id="Path_39294" data-name="Path 39294" d="M15.523,17.172c0-.329.643-.6,1.43-.6s1.43.267,1.43.6-.643.6-1.43.6-1.43-.27-1.43-.6Z" transform="translate(30.075 19.053)" fill="#ed8662"/>
</svg>
