<svg id="ASM" xmlns="http://www.w3.org/2000/svg" width="93.996" height="67.886" viewBox="0 0 93.996 67.886">
  <path id="Path_39295" data-name="Path 39295" d="M93.995,61.885A10.445,10.445,0,0,1,83.55,72.33H10.444A10.445,10.445,0,0,1,0,61.885v-47A10.445,10.445,0,0,1,10.444,4.444H83.55A10.445,10.445,0,0,1,93.995,14.889Z" transform="translate(0.001 -4.444)" fill="#00247d"/>
  <path id="Path_39296" data-name="Path 39296" d="M89.252,5.026,0,37.172v.106L89.255,69.49a10.414,10.414,0,0,0,4.738-8.73v-47a10.427,10.427,0,0,0-4.741-8.735Z" transform="translate(0.003 -3.317)" fill="#bd1721"/>
  <path id="Path_39297" data-name="Path 39297" d="M85.3,64.937a10.4,10.4,0,0,0,1.9-5.986v-47a10.383,10.383,0,0,0-1.912-5.995L3.5,35.414,85.3,64.937Z" transform="translate(6.793 -1.509)" fill="#eee"/>
  <path id="Path_39298" data-name="Path 39298" d="M19.556,17.783a8.143,8.143,0,0,0,2.843,0c.843-.317,1.895-.632,1.895-.632l1.58,1.683.632-1.58,1.16.317-.106.529s.949.317.949.42-.106.949-.106.949l2.949.737.529-1.157a10.1,10.1,0,0,0,2.635,1.789c.734.106,2.949,0,3.369.317s1.369.949,1.369.949,7.478,1.686,7.478,1.795a.63.63,0,0,1-.737.629c-.632-.106-10.322-2-11.588-2.423a5.481,5.481,0,0,0-3.161.42V21.366l-3.266-.949-.314.843h-.843L26.506,22l-1.157-.317.209-1.583a2.446,2.446,0,0,0-1.366.211,8.311,8.311,0,0,1-1.052.632,5.79,5.79,0,0,0-1.583-1.792c-.949-.629-2-1.366-2-1.366Z" transform="translate(37.888 20.173)" fill="#d89500"/>
  <path id="Path_39299" data-name="Path 39299" d="M26.926,19.936s14.111,1.157,14.957,1.26.84.843,0,.949-14.957-1.052-14.957-1.052-.632.632-.632.843,5.581.317,5.581.317l-.526.526a16.387,16.387,0,0,0,3.055-.106c.84-.211.946-.84,1.052-.632s-.632,1.052-.42,1.052,2.526-.211,2.526-.211l-1.686.843,2.529.949a11.428,11.428,0,0,1-1.795.317,7.351,7.351,0,0,1-1.369-.211s.843,1.157,1.475,1.369a11.342,11.342,0,0,1-2.426-.843c-.314-.314.632,1.583-1.26-.106s-1.895-.84-1.895-.84l.629,1.052a6.036,6.036,0,0,1-2.635-.632,15.792,15.792,0,0,0-3.263-1.263,13.959,13.959,0,0,1-2.526-1.052c-.737-.42-2.318-1.369-2-2.315s1.577-.632,1.577-.632a4.388,4.388,0,0,1,1.475-.106c.632.106,1.052-.737,1.686-.42a1.809,1.809,0,0,1,.846.952Z" transform="translate(41.258 23.603)" fill="#d89500"/>
  <path id="Path_39300" data-name="Path 39300" d="M28.269,14.124a13.356,13.356,0,0,0,4.632-.317c1.052-.211,1.789-.529,2.212-.106s.317.632.317.632.629.317.629.632v.317s.423.737,0,1.052c0,0,.423,1.16-.317,1.369,0,0,.529.949-.314,1.052l-.317,1.052-6.95-1.16.106-4.523Z" transform="translate(54.557 13.086)" fill="#fff"/>
  <path id="Path_39301" data-name="Path 39301" d="M35.38,20.16l-7.287-1.213,0-.17L28.208,14l.241.059A11.431,11.431,0,0,0,33,13.745c.223-.044.432-.094.623-.138.755-.179,1.357-.323,1.762.088a1.1,1.1,0,0,1,.388.658c.22.129.62.408.62.74v.267a1.088,1.088,0,0,1,.029,1.16,1.653,1.653,0,0,1-.015,1.116.716.716,0,0,1-.267.294,1.021,1.021,0,0,1,.029.793.637.637,0,0,1-.449.332l-.332,1.1ZM28.49,18.612l6.615,1.1.305-1.01.126-.015c.22-.029.264-.115.276-.144a.87.87,0,0,0-.109-.62l-.12-.217.238-.068a.345.345,0,0,0,.229-.182,1.436,1.436,0,0,0-.044-.928l-.053-.138.117-.085c.273-.206-.05-.793-.056-.8l-.026-.044V15.1c0-.109-.273-.332-.52-.458l-.176-.085.085-.173a.936.936,0,0,0-.279-.411c-.244-.247-.67-.159-1.4.015-.2.047-.411.1-.64.144a13.53,13.53,0,0,1-4.479.364l-.1,4.124Z" transform="translate(54.427 12.963)" fill="#66757f"/>
  <path id="Path_39302" data-name="Path 39302" d="M28.992,18.455a10.448,10.448,0,0,1-1.263,2.423,8.617,8.617,0,0,1-1.789,1.157.558.558,0,0,0-.42.529s-.949.529-1.263.737-.632.211.211.317a4,4,0,0,1,1.052.211s-.632.629-.42.949,1.063.37,2.106.629c.84.211,1.686-.106,1.686-.42a4.265,4.265,0,0,0-.211-1.052c0,.106.632-.317,1.263-.632a1.347,1.347,0,0,0,.737-1.583,3.027,3.027,0,0,1,.526-2.315,1.631,1.631,0,0,0-.629-2.215c-.529-.1-1.375.74-1.586,1.269Z" transform="translate(46.355 20.237)" fill="#ffc220"/>
  <path id="Path_39303" data-name="Path 39303" d="M25.009,23.954A8.029,8.029,0,0,0,26.8,22.06s-.317-.423-1.472.106-2.635,1.16-3.266.423c-.966-1.134.446-2.558,1.58-2.949,3.372-1.157-1.369-2.42,2.635-4.212,1.68-.752,4.949-1.263,5.581-1.58s1.577-1.475,1.577-1.369.106.843.106.843,2.318-.632,3.055-.949a4.162,4.162,0,0,0,1.369-1.157l.209.737a7.732,7.732,0,0,0,2.635-.737,1.036,1.036,0,0,1,1.263-.106,21.462,21.462,0,0,0,2.949-.949c.843-.42,2-.632,1.792.106a34.272,34.272,0,0,1-2,5.161c-.526.737-.42,1.895-1.052,2.423S38.811,20.8,38.811,20.8a14.519,14.519,0,0,1,2.949.423c.84.317.42,1.369.42,1.369a2.161,2.161,0,0,1,.211.84c0,.423-.529.529-.529.529s.529.211.42.632-1.052.423-.84.423,1.052.84.949,1.157-1.792-.42-2.529-.209a1.333,1.333,0,0,0,.737.843c.632.314.632.529.106.843s-1.054.737-.529.737.737.317.42.529,1.263,0,.317.737-1.157.74-1.157.74.949,1.157.526,1.263-1.792-.634-1.792-.634a2.928,2.928,0,0,0,.843,1.372s-1.16.734-1.792-.106a3.537,3.537,0,0,0,.42,1.475,1.594,1.594,0,0,1-1.16-.317,2.119,2.119,0,0,0-.209,1.369l-1.052-1.686-1.475-.417-.84,1.472a4.2,4.2,0,0,1-.42-2,11.8,11.8,0,0,0-.106-2.843,4.225,4.225,0,0,0-2.42-2.212,21.142,21.142,0,0,0-3.058-.211L24.8,23.963Z" transform="translate(42.122 5.891)" fill="#9c3900"/>
  <path id="Path_39304" data-name="Path 39304" d="M21.933,18.2s2.215.737,2.949-.74-1.789-2-2.738-1.472-1.686,1.472-1.577,2.212,1.052,1.054,1.052,1.054Z" transform="translate(39.826 17.54)" fill="#ffc220"/>
  <path id="Path_39305" data-name="Path 39305" d="M20.954,19.822l.529,1.263h2.632s2.423-2,4.318-2.106,3.263-1.052,1.157-1.16c0,0,2.843-1.263-.211-1.052,0,0,2-1.369-.632-.843,0,0,2.318-1.58-.737-.84l.317-1.16a10.077,10.077,0,0,1-2.106,1.895c-.84.42-3.475,1.686-4.106,1.895s-.526.529-.629,1.052a2.933,2.933,0,0,1-.529,1.054Z" transform="translate(40.597 13.921)" fill="#fff"/>
  <path id="Path_39306" data-name="Path 39306" d="M24.332,21.8H21.5l-.623-1.492.07-.091a2.81,2.81,0,0,0,.491-.972c.018-.1.032-.188.041-.27a.923.923,0,0,1,.717-.928c.6-.2,3.166-1.428,4.08-1.886a10.033,10.033,0,0,0,2.044-1.848l.567-.661-.458,1.683c1.072-.232,1.372-.126,1.469.106.091.206-.065.455-.311.693.488-.044.743.035.831.241s-.079.464-.308.687h.023c.64,0,.928.109.99.347s-.179.505-.714.811c.32.073.582.211.582.476,0,.532-1.248.931-2.406,1-1.809.1-4.183,2.041-4.2,2.062l-.056.044Zm-2.573-.391h2.432c.382-.308,2.573-2.006,4.379-2.1A3.229,3.229,0,0,0,30.6,18.7a2.06,2.06,0,0,0-.875-.159l-.817-.041.749-.332a3.835,3.835,0,0,0,1.06-.643,3.311,3.311,0,0,0-1.181-.035l-.717.05.6-.408a2.246,2.246,0,0,0,.629-.585,2.709,2.709,0,0,0-1.116.1l-.943.188.8-.543a2.88,2.88,0,0,0,.74-.67A3.463,3.463,0,0,0,28.2,15.8l-.32.079.188-.7a7.242,7.242,0,0,1-1.616,1.342c-.764.385-3.463,1.683-4.133,1.906-.388.129-.408.261-.452.605-.012.091-.026.191-.05.3a3,3,0,0,1-.493,1.043l.432,1.043Z" transform="translate(40.449 13.398)" fill="#66757f"/>
  <path id="Path_39307" data-name="Path 39307" d="M22.521,15.7c.1.2-.056.485-.35.632s-.614.1-.717-.1.056-.485.35-.632S22.418,15.49,22.521,15.7Z" transform="translate(41.509 16.99)"/>
</svg>
