<svg id="ATA" xmlns="http://www.w3.org/2000/svg" width="93.996" height="67.886" viewBox="0 0 93.996 67.886">
  <path id="Path_39285" data-name="Path 39285" d="M93.995,61.885A10.445,10.445,0,0,1,83.55,72.33H10.444A10.445,10.445,0,0,1,0,61.885v-47A10.445,10.445,0,0,1,10.444,4.444H83.55A10.445,10.445,0,0,1,93.995,14.889Z" transform="translate(0.001 -4.444)" fill="#265fb5"/>
  <path id="Path_39286" data-name="Path 39286" d="M60.454,32.958c-.132-1.372,2.091-4.773.305-4.526-2.185.3-3.892-1.207-4.632-1.169,2.365-3.346.608-4.194.082-6.365-.928-3.807,2.038-5.672-3.263-6.485-3.448-.529-5.831-.173-6.867-4.112a5.042,5.042,0,0,1-5.043.585c-1.1-.479-1.439-1.389-2.47-1.83a17.974,17.974,0,0,0-3.29-.467c-2.409-.382-3.654.69-5.816.332a6.5,6.5,0,0,1,.382,1.049,2.293,2.293,0,0,0-2.288,2.185c-1.95-.2-2.447,2.344-2.226,3.948l-.2.062.082.082c-.411,4.241-2.135,6.365-6.483,7.032-2.861.438-5.4-1.463-7.878-2.993a11.152,11.152,0,0,1-2-1.633,27.073,27.073,0,0,0-1.959-2.529c-.326-.267-1.022-.491-.925.056-.449,2.814,1.607,6.321,3.974,7.672-3.243,1.5.819,2.391,1.4,2.9.012.012,1.41,1.933,1.422,2.006.223,1.375-.726,1.216-.825,2.315a7.161,7.161,0,0,0,.279,3.19l-.082.082c.015.913-.676.587-1.574.382.123,2.773,2.764,3.014,3.208,3.557,1.422,1.748.931,4.288,2.594,5.913,4.083,4,8.735,1.639,13.359,2.312,2.6.379,4.82,2.555,7.173.1,2.764,3.028-2.127,6.618-.931,7.643a1.734,1.734,0,0,0,1.069.435,5.043,5.043,0,0,0-.223.552c3.322.314,6.82,1.107,9.928-.529a8.16,8.16,0,0,0,.347,1.369c.764-.911,1.357-.858,2.329-1.345,1.216-.605,3.357-1.334,4.165-2.55.96-1.445-.549-3.442,2.476-2.826.235-1.046.332-.934.887-1.63-.834-2.088,1.642-3.5,2.385-4.993.15-.3.159-1.7.358-2.229.376-1,1.451-1.563,1.751-2.823.543-2.315-.781-2.714-.975-4.72Z" transform="translate(11.433 3.42)" fill="#fff"/>
</svg>
