<svg id="ATG" xmlns="http://www.w3.org/2000/svg" width="93.993" height="67.886" viewBox="0 0 93.993 67.886">
  <path id="Path_39253" data-name="Path 39253" d="M9.846,18.667,27.922,44.776,46,18.667Z" transform="translate(19.074 23.11)" fill="#fff"/>
  <path id="Path_39254" data-name="Path 39254" d="M25.174,30.553l-.273-.059,10.413-2.159-8.856-6.309,10.383,2.32-5.954-9.505,8.774,6.45L37.516,10.045l5.828,9.6L45.332,8.362l1.991,11.282,5.828-9.6L51.007,21.3l8.774-6.45L53.827,24.35l10.383-2.32-8.856,6.309L65.767,30.5l-.276.056h8.762L89.8,8.092a10.414,10.414,0,0,0-7.919-3.648H8.778A10.414,10.414,0,0,0,.859,8.092l15.55,22.461h8.762Z" transform="translate(1.664 -4.444)" fill="#141414"/>
  <path id="Path_39255" data-name="Path 39255" d="M49.907,27.911,39.495,25.752l8.856-6.309-10.38,2.32,5.954-9.505-8.774,6.45L37.295,7.462l-5.828,9.6L29.476,5.779,27.484,17.061l-5.828-9.6L23.8,18.709l-8.774-6.45,5.954,9.505L10.6,19.443l8.856,6.309L9.044,27.911l.273.059H49.634Z" transform="translate(17.521 -1.858)" fill="#fcd116"/>
  <path id="Path_39256" data-name="Path 39256" d="M14.916,13.333H6.154L17,29H53.15L63.995,13.333H14.916Z" transform="translate(11.922 12.776)" fill="#0072c6"/>
  <path id="Path_39257" data-name="Path 39257" d="M75.917,28.149,47,69.923H83.548A10.445,10.445,0,0,0,93.993,59.478v-47a10.39,10.39,0,0,0-2.526-6.8L75.917,28.146Zm-57.841,0L2.526,5.688A10.4,10.4,0,0,0,0,12.485v47A10.445,10.445,0,0,0,10.445,69.926H47L18.076,28.152Z" transform="translate(0 -2.04)" fill="#ce1126"/>
</svg>
