<svg id="AUS" xmlns="http://www.w3.org/2000/svg" width="93.996" height="67.886" viewBox="0 0 93.996 67.886">
  <path id="Path_39310" data-name="Path 39310" d="M83.55,4.446H10.444a10.359,10.359,0,0,0-1.577.117L8.855,9.143,1.726,9.131A10.4,10.4,0,0,0,0,14.888v47A10.445,10.445,0,0,0,10.444,72.329H83.55A10.445,10.445,0,0,0,93.995,61.884v-47A10.445,10.445,0,0,0,83.55,4.443Z" transform="translate(0.001 -4.443)" fill="#00247d"/>
  <path id="Path_39311" data-name="Path 39311" d="M12.727,56.238l-3.19,2.949.317-4.335L5.56,54.2l3.583-2.456L6.979,47.973l4.153,1.275L12.727,45.2l1.6,4.045,4.153-1.275L16.31,51.741,19.9,54.2l-4.294.655.317,4.335ZM62.2,13.26l-2.085,1.927.206-2.834-2.811-.429,2.347-1.607L58.443,7.852l2.714.834L62.2,6.043l1.046,2.644,2.717-.834-1.419,2.464,2.344,1.607-2.808.429.206,2.834ZM51.76,28.924l-2.085,1.93.206-2.834-2.811-.429,2.347-1.61L48,23.517l2.714.834,1.046-2.644,1.046,2.644,2.717-.834L54.1,25.981l2.344,1.61-2.808.429.206,2.834Zm23.5-5.222-2.085,1.93.206-2.834-2.811-.429,2.347-1.61L71.5,18.294l2.714.834,1.046-2.644L76.3,19.129l2.717-.834L77.6,20.759l2.344,1.61-2.808.429.206,2.834ZM62.2,60.256l-2.085,1.93.206-2.834-2.811-.429,2.347-1.61-1.416-2.464,2.714.834L62.2,53.039l1.046,2.644,2.717-.834-1.419,2.464,2.344,1.61-2.808.429.206,2.834Zm7.966-30.189.767,1.557,1.715.247-1.24,1.21L71.7,34.79l-1.536-.808-1.536.808.294-1.709-1.24-1.21,1.715-.247Z" transform="translate(10.774 -1.343)" fill="#fff"/>
  <path id="Path_39312" data-name="Path 39312" d="M49.61,38.387V4.444H10.447a11.38,11.38,0,0,0-1.577.117L8.858,9.141,1.729,9.129s-.109.153-.332.535A10.428,10.428,0,0,0,0,14.886v23.5H49.607Z" transform="translate(0.001 -4.441)" fill="#00247d"/>
  <path id="Path_39313" data-name="Path 39313" d="M49.6,4.446H43.518l-12.19,8.536V4.446H18.275v6.709L8.864,4.563A10.305,10.305,0,0,0,4.5,6.3l12.278,8.589H12.245L2.525,8.076a10.661,10.661,0,0,0-.8,1.054l8.227,5.757H0V27.941H10.144L0,35.164v3.222H8.7l9.576-6.706v6.706H31.331V29.85l12.187,8.536h6.089v-5.3l-7.349-5.146h7.349V14.888H42.261l7.346-5.146v-5.3Z" transform="translate(0.007 -4.443)" fill="#eee"/>
  <path id="Path_39314" data-name="Path 39314" d="M28.721,4.444H20.887V17.5H0v7.834H20.887V38.384h7.834V25.331H49.608V17.5H28.721Z" transform="translate(0.003 -4.441)" fill="#cf1b2b"/>
  <path id="Path_39315" data-name="Path 39315" d="M48.343,4.444H44.527L30.064,14.572v.317h4.1L48.34,4.961ZM3.235,6.3A10.536,10.536,0,0,0,1.258,8.077l9.719,6.812h4.529L3.232,6.3ZM15.542,27.942.653,38.387H5.162l11.852-8.3V27.942Zm32.8,9.928V34.686l-9.625-6.741h-4.55Z" transform="translate(1.268 -4.441)" fill="#cf1b2b"/>
</svg>
