<svg id="AZE" xmlns="http://www.w3.org/2000/svg" width="93.999" height="67.886" viewBox="0 0 93.999 67.886">
  <path id="Path_39323" data-name="Path 39323" d="M0,11.556H93.993V37.665H0Z" transform="translate(0.003 9.334)" fill="#e00034"/>
  <path id="Path_39324" data-name="Path 39324" d="M83.55,4.444H10.444A10.445,10.445,0,0,0,0,14.889V25.334H93.992V14.889A10.445,10.445,0,0,0,83.547,4.444Z" transform="translate(0.001 -4.444)" fill="#0098c3"/>
  <path id="Path_39325" data-name="Path 39325" d="M24.2,31.592a8.7,8.7,0,1,1,6.462-14.531,10.443,10.443,0,1,0,0,11.655A8.68,8.68,0,0,1,24.2,31.592Z" transform="translate(22.388 11.054)" fill="#fff"/>
  <path id="Path_39326" data-name="Path 39326" d="M28.693,19.822l-3.122-1.107,1.422-2.993L24,17.143l-1.113-3.119-1.107,3.122-.009-.006-2.987-1.416,1.425,2.993-3.122,1.113,3.122,1.107-1.422,2.993,2.993-1.422,1.113,3.119L24,22.507l3,1.422-1.425-2.993Z" transform="translate(33.101 14.115)" fill="#fff"/>
  <path id="Path_39327" data-name="Path 39327" d="M10.443,41.334H83.549A10.445,10.445,0,0,0,93.994,30.889V20.444H0V30.889A10.445,10.445,0,0,0,10.446,41.334Z" transform="translate(0.005 26.552)" fill="#00ae65"/>
</svg>
