<svg id="BDI" xmlns="http://www.w3.org/2000/svg" width="93.996" height="67.886" viewBox="0 0 93.996 67.886">
  <path id="Path_39348" data-name="Path 39348" d="M93.995,61.885A10.445,10.445,0,0,1,83.55,72.33H10.444A10.445,10.445,0,0,1,0,61.885v-47A10.445,10.445,0,0,1,10.444,4.444H83.55A10.445,10.445,0,0,1,93.995,14.889Z" transform="translate(0.001 -4.444)" fill="#eee"/>
  <path id="Path_39349" data-name="Path 39349" d="M30.866,25.51a16.9,16.9,0,0,1,22.494-.085L81.643,4.92a10.391,10.391,0,0,0-2.961-.476H5.577a10.415,10.415,0,0,0-3.067.508L30.861,25.507Z" transform="translate(4.866 -4.444)" fill="#ce1126"/>
  <path id="Path_39350" data-name="Path 39350" d="M62.761,28.108a16.9,16.9,0,0,1-.2,13.144L92.7,63.1a10.342,10.342,0,0,0,1.287-4.926v-47a10.333,10.333,0,0,0-1.234-4.823l-30,21.748ZM31.432,41.147a16.905,16.905,0,0,1-.185-12.921L1.19,6.434A10.311,10.311,0,0,0,0,11.181v47A10.339,10.339,0,0,0,1.248,63.03L31.432,41.144Z" transform="translate(0.003 -0.736)" fill="#1eb53a"/>
  <path id="Path_39351" data-name="Path 39351" d="M52.886,20.422a16.952,16.952,0,0,1-21.739-.079L2.562,41.065a10.433,10.433,0,0,0,2.923.464H78.591a10.263,10.263,0,0,0,2.817-.435L52.892,20.422Z" transform="translate(4.966 26.357)" fill="#ce1126"/>
  <path id="Path_39352" data-name="Path 39352" d="M21.548,16.747l.828-1.43.564-.978H20.156l-.828-1.43-.564-.978-.567.978-.825,1.43H14.587l.567.978.825,1.43-.825,1.433-.567.978h2.785l.825,1.43.567.978.564-.978.828-1.43h2.785l-.564-.978Z" transform="translate(28.262 10.058)" fill="#1eb53a"/>
  <path id="Path_39353" data-name="Path 39353" d="M21.066,14.13h-2.03L18.02,12.374,17,14.13H14.971l1.016,1.756-1.016,1.759H17L18.02,19.4l1.016-1.756h2.03L20.05,15.887Z" transform="translate(29.006 10.919)" fill="#ce1126"/>
  <path id="Path_39354" data-name="Path 39354" d="M24.081,20.783l.828-1.433.567-.978H22.692l-.825-1.43-.567-.978-.564.978-.828,1.43H17.123l.564.978.828,1.433-.828,1.43-.564.978h2.785l.828,1.43.564.981,1.392-2.412h2.785l-.567-.978Z" transform="translate(33.175 17.871)" fill="#1eb53a"/>
  <path id="Path_39355" data-name="Path 39355" d="M20.553,16.407l-1.016,1.756h-2.03l1.013,1.759-1.013,1.756h2.03l1.016,1.756,1.016-1.756H23.6l-1.016-1.756L23.6,18.163H21.569Z" transform="translate(33.919 18.732)" fill="#ce1126"/>
  <path id="Path_39356" data-name="Path 39356" d="M19.842,22.215l-.825-1.43.825-1.433.567-.978H17.624l-1.4-2.409-.564.978-.828,1.43H12.052l.564.978.828,1.433-.828,1.43-.564.978h2.785l.828,1.43.564.981.567-.981.828-1.43h2.785Z" transform="translate(23.351 17.873)" fill="#1eb53a"/>
  <path id="Path_39357" data-name="Path 39357" d="M18.532,18.163H16.5l-1.016-1.756L14.47,18.163H12.437l1.016,1.759-1.016,1.756H14.47l1.013,1.756L16.5,21.679h2.033l-1.016-1.756Z" transform="translate(24.097 18.732)" fill="#ce1126"/>
</svg>
