<svg id="BES" xmlns="http://www.w3.org/2000/svg" width="93.996" height="67.883" viewBox="0 0 93.996 67.883">
  <path id="Path_39429" data-name="Path 39429" d="M3.575,69.745,90.424,7.029a10.433,10.433,0,0,0-6.873-2.585H34.6L0,32.727V61.882a10.386,10.386,0,0,0,3.575,7.86Z" transform="translate(0 -4.444)" fill="#eeeded"/>
  <path id="Path_39430" data-name="Path 39430" d="M88.066,5.326,1.217,68.043a10.417,10.417,0,0,0,6.87,2.582H81.193A10.445,10.445,0,0,0,91.638,60.18v-47a10.4,10.4,0,0,0-3.569-7.86Z" transform="translate(2.358 -2.741)" fill="#012a87"/>
  <path id="Path_39431" data-name="Path 39431" d="M10.445,4.444A10.445,10.445,0,0,0,0,14.889V32.73L34.6,4.447H10.445Z" transform="translate(0 -4.444)" fill="#f9d90f"/>
  <path id="Path_39432" data-name="Path 39432" d="M35.721,26.862l3.114-1.8-3.114-1.8a14.528,14.528,0,0,0-12.6-12.6l-1.8-3.114-1.8,3.114a14.528,14.528,0,0,0-12.6,12.6l-3.114,1.8,3.114,1.8a14.528,14.528,0,0,0,12.6,12.6l1.8,3.116,1.8-3.114A14.534,14.534,0,0,0,35.721,26.862ZM21.328,37.706A12.642,12.642,0,1,1,33.97,25.064,12.66,12.66,0,0,1,21.328,37.706Z" transform="translate(7.393 1.583)"/>
  <path id="Path_39433" data-name="Path 39433" d="M19.718,19.225l2.5-4.33h-5l-2.5-4.327-2.5,4.327h-5l2.5,4.33-2.5,4.327h5l2.5,4.33,2.5-4.33h5Z" transform="translate(13.999 7.422)" fill="#dc171d"/>
</svg>
