<svg id="BFA" xmlns="http://www.w3.org/2000/svg" width="93.999" height="67.886" viewBox="0 0 93.999 67.886">
  <path id="Path_39340" data-name="Path 39340" d="M51.179,18.458l2.585,7.957L47,21.5l-6.77,4.92,2.585-7.957L39.427,16H0V39.5A10.445,10.445,0,0,0,10.445,49.943H83.551A10.445,10.445,0,0,0,94,39.5V16H54.569l-3.387,2.458Z" transform="translate(0.003 17.943)" fill="#009e49"/>
  <path id="Path_39341" data-name="Path 39341" d="M83.55,4.444H10.444A10.445,10.445,0,0,0,0,14.889v23.5H39.426l-3.384-2.458h8.368L47,27.972l2.585,7.957h8.368l-3.384,2.458H93.992v-23.5A10.445,10.445,0,0,0,83.547,4.444Z" transform="translate(0.001 -4.444)" fill="#ef2b2d"/>
  <path id="Path_39342" data-name="Path 39342" d="M16.454,33.288l6.77-4.92,6.77,4.92-2.588-7.957,6.77-4.92H25.809l-2.585-7.957-2.585,7.957H12.271l6.77,4.92Z" transform="translate(23.775 11.074)" fill="#fcd116"/>
</svg>
