<svg id="BHR" xmlns="http://www.w3.org/2000/svg" width="93.996" height="67.892" viewBox="0 0 93.996 67.892">
  <path id="Path_39346" data-name="Path 39346" d="M39.165,7.055,20.889,4.444H10.444A10.445,10.445,0,0,0,0,14.889v47A10.445,10.445,0,0,0,10.444,72.33H20.889l18.276-2.611V7.058Z" transform="translate(0.001 -4.438)" fill="#eee"/>
  <path id="Path_39347" data-name="Path 39347" d="M69.772,4.448H7.111l15.876,6.788L7.111,18.024l15.876,6.788L7.111,31.6l15.876,6.788L7.111,45.176l15.876,6.788L7.111,58.752,22.987,65.54,7.111,72.328H69.772A10.445,10.445,0,0,0,80.217,61.883v-47A10.445,10.445,0,0,0,69.772,4.442Z" transform="translate(13.779 -4.442)" fill="#ce1126"/>
</svg>
