<svg id="BHS" xmlns="http://www.w3.org/2000/svg" width="93.99" height="67.886" viewBox="0 0 93.99 67.886">
  <path id="Path_39441" data-name="Path 39441" d="M1.212,39.549a10.353,10.353,0,0,0,6.882,2.644H81.2A10.445,10.445,0,0,0,91.645,31.748V20H27.527L1.215,39.547Z" transform="translate(2.345 25.693)" fill="#00abc9"/>
  <path id="Path_39442" data-name="Path 39442" d="M25.988,23.749,10.171,35.5H74.289V12H10.171Z" transform="translate(19.701 10.197)" fill="#fae042"/>
  <path id="Path_39443" data-name="Path 39443" d="M81.2,4.446H8.094A10.368,10.368,0,0,0,1.212,7.089L27.524,26.637H91.642V14.888A10.445,10.445,0,0,0,81.2,4.443Z" transform="translate(2.345 -4.443)" fill="#00abc9"/>
  <path id="Path_39444" data-name="Path 39444" d="M45.69,36.642,3.561,5.345A10.375,10.375,0,0,0,0,13.143v47a10.38,10.38,0,0,0,3.56,7.8Z" transform="translate(-0.001 -2.696)" fill="#141414"/>
</svg>
