<svg id="BIH" xmlns="http://www.w3.org/2000/svg" width="93.99" height="67.886" viewBox="0 0 93.99 67.886">
  <path id="Path_39328" data-name="Path 39328" d="M83.552,4.444H23.963L22.227,5.707l.952,2.931-2.5-1.815-2.5,1.815.952-2.931L17.4,4.444H10.443A10.445,10.445,0,0,0,0,14.889v47A10.445,10.445,0,0,0,10.443,72.33h51.5l.273-.846-2.494-1.815h3.084l.952-2.931.952,2.931h3.084L65.3,71.484l.273.846h17.97A10.445,10.445,0,0,0,93.988,61.885v-47A10.445,10.445,0,0,0,83.543,4.444Z" transform="translate(0.002 -4.444)" fill="#2d3189"/>
  <path id="Path_39329" data-name="Path 39329" d="M6.708,8.639,9.2,6.824,11.7,8.639l-.952-2.931,1.736-1.263H5.924L7.66,5.708ZM56.322,69.667H53.238l-.952-2.928-.952,2.928H48.25l2.494,1.815-.273.846H54.1l-.276-.846ZM14.63,9.183l.952,2.931h3.087l-2.5,1.815.952,2.931L14.63,15.046l-2.5,1.815.952-2.931-2.494-1.815h3.081Zm5.4,8.224.952,2.928h3.087l-2.5,1.815.952,2.931-2.5-1.812-2.494,1.812.952-2.931-2.5-1.815h3.084ZM25.4,25.626l.952,2.931h3.084l-2.5,1.815.952,2.931-2.494-1.815L22.9,33.3l.952-2.931-2.494-1.815h3.084Zm5.381,8.224.952,2.931h3.084l-2.494,1.812.952,2.931-2.5-1.812L28.28,41.525l.952-2.931-2.5-1.812h3.084Zm5.381,8.221L37.109,45H40.2l-2.5,1.812.952,2.934-2.5-1.815-2.494,1.815.952-2.934L32.119,45H35.2Zm5.384,8.221.952,2.931h3.084l-2.494,1.812.952,2.931-2.494-1.812-2.494,1.812L40,55.037l-2.494-1.812H40.59ZM46.9,58.511l.952,2.934h3.087l-2.5,1.812.952,2.931-2.5-1.812-2.494,1.812.952-2.931-2.5-1.812h3.084Z" transform="translate(11.482 -4.442)" fill="#e1e8ed"/>
  <path id="Path_39330" data-name="Path 39330" d="M54.163,72.328V4.445H9.778Z" transform="translate(18.949 -4.442)" fill="#fbd116"/>
</svg>
