<svg id="BLM" xmlns="http://www.w3.org/2000/svg" width="94" height="67.89" viewBox="0 0 94 67.89">
  <path id="Path_41328" data-name="Path 41328" d="M94,199.666a10.445,10.445,0,0,1-10.444,10.444H10.444A10.445,10.445,0,0,1,0,199.666v-47a10.445,10.445,0,0,1,10.444-10.444H83.556A10.445,10.445,0,0,1,94,152.666Z" transform="translate(0 -142.222)" fill="#eee"/>
  <path id="Path_41329" data-name="Path 41329" d="M246.828,604.558a15.233,15.233,0,0,0-.661,5.3c.222,2.65,6.4,2.428,7.726,2.209s2.209-.222,1.324.885a6.876,6.876,0,0,0-1.765,4.854c.219,1.982-2.65.661-3.53-1.329s-1.768-1.984-3.314-2.867-3.042-3.107-3.974-4.415c-1.1-1.543-1.768-2.648,4.193-4.635Zm39.733,0a15.132,15.132,0,0,1,.663,5.3c-.217,2.65-6.4,2.428-7.726,2.209s-2.206-.222-1.326.885a6.845,6.845,0,0,1,1.77,4.854c-.222,1.982,2.648.661,3.53-1.329s1.768-1.984,3.314-2.867,3.039-3.107,3.974-4.415c1.1-1.543,1.765-2.648-4.2-4.635Z" transform="translate(-219.696 -562.117)" fill="#ce1a24"/>
  <path id="Path_41330" data-name="Path 41330" d="M288.81,637.14c-2.431,1.107-7.47,1.836-9.5,1.99-2.676.206-3.089.883-3.089,1.546s2.87,1.1,4.413.883,3.314.222.663,1.768-6.181,3.755-9.494,4.635a33.389,33.389,0,0,1-13.244,0c-3.311-.883-6.844-3.092-9.491-4.635s-.885-1.984.661-1.768,4.415-.217,4.415-.883-.413-1.339-3.092-1.546c-2.021-.154-7.066-.883-9.491-1.99a2.536,2.536,0,0,1-1.324-1.321,13,13,0,0,0,.222,1.765c.219,1.324,1.324,2.206,1.546,3.533s.219,1.987,1.324,2.206,3.533.444,3.533.444a10.744,10.744,0,0,1-.441,3.089c-.444,1.1,1.1,3.094,7.063,5.3a26.852,26.852,0,0,0,11.7,1.99,26.831,26.831,0,0,0,11.7-1.99c5.964-2.206,7.5-4.2,7.066-5.3a10.744,10.744,0,0,1-.441-3.089s2.428-.222,3.53-.444,1.11-.885,1.326-2.206,1.324-2.212,1.546-3.533a13.154,13.154,0,0,0,.219-1.765,2.529,2.529,0,0,1-1.321,1.321Z" transform="translate(-218.188 -590.508)" fill="#f6e4be"/>
  <path id="Path_41331" data-name="Path 41331" d="M393.438,777.188c2.449.817,12.62,2.951,18.761.222,1.99-.89,2.65,1.76.885,2.428a44.248,44.248,0,0,1-9.272,1.321c-2.428,0-9.092-.77-11.037-1.543-1.1-.446-.661-2.875.663-2.428Z" transform="translate(-356.151 -718.851)" fill="#bcad96"/>
  <path id="Path_41332" data-name="Path 41332" d="M358.087,299.15h28.255v3.971H358.087Z" transform="translate(-325.216 -284.744)" fill="#666"/>
  <path id="Path_41333" data-name="Path 41333" d="M372.216,327.993H358.087v16.776c0,8.392,5.3,11.7,7.946,13.687s9.713,1.987,12.361,0,7.948-5.293,7.948-13.687V327.993Z" transform="translate(-325.216 -310.94)" fill="#ce1a24"/>
  <path id="Path_41334" data-name="Path 41334" d="M358.437,348.3c1.222,5.846,5.358,8.476,7.6,10.155a29,29,0,0,0,6.183,3.316,28.9,28.9,0,0,0,6.178-3.316c2.246-1.676,6.376-4.306,7.6-10.155Zm-.35-20.312h28.255V338.37H358.087Z" transform="translate(-325.216 -310.94)" fill="#1353b4"/>
  <path id="Path_41335" data-name="Path 41335" d="M383.513,347.041a1.539,1.539,0,0,0,0-1.1c-.2-.593-1.1-1.1-1.1-1.1s-.906.512-1.1,1.1a1.525,1.525,0,0,0,0,1.1c-1.1-.441-1.546.663-1.546,1.324s.885,1.1.885,1.1,0-.883.439-.883.441.883.441.883c-.883,0,0,.663,0,.663l-.661,1.1.883-.222c-.219.663.663,1.324.663,1.324s.885-.661.661-1.324l.885.222-.661-1.1s.883-.663,0-.663c0,0,0-.883.439-.883s.441.883.441.883.883-.439.883-1.1-.444-1.768-1.546-1.324Zm18.985,0a1.54,1.54,0,0,0,0-1.1c-.2-.593-1.1-1.1-1.1-1.1s-.906.512-1.1,1.1a1.525,1.525,0,0,0,0,1.1c-1.1-.441-1.546.663-1.546,1.324s.883,1.1.883,1.1,0-.883.441-.883.441.883.441.883c-.883,0,0,.663,0,.663l-.661,1.1.88-.222c-.219.663.666,1.324.666,1.324s.883-.661.661-1.324l.885.222-.663-1.1s.883-.663,0-.663c0,0,0-.883.441-.883s.441.883.441.883.885-.439.885-1.1-.447-1.768-1.546-1.324Zm-9.494,0a1.539,1.539,0,0,0,0-1.1c-.2-.593-1.1-1.1-1.1-1.1s-.906.512-1.1,1.1a1.542,1.542,0,0,0,0,1.1c-1.1-.441-1.546.663-1.546,1.324s.883,1.1.883,1.1,0-.883.441-.883.441.883.441.883c-.883,0,0,.663,0,.663l-.661,1.1.883-.222c-.219.666.663,1.329.663,1.329s.883-.661.661-1.324l.883.222-.661-1.1s.883-.663,0-.663c0,0,0-.883.441-.883s.441.883.441.883.883-.439.883-1.1-.439-1.773-1.543-1.329Z" transform="translate(-344.9 -326.233)" fill="#eace23"/>
  <path id="Path_41336" data-name="Path 41336" d="M479.476,461.377l1.1-1.548-3.091.885.883-2.872-1.324.885-1.324-.885.883,2.872-3.092-.885,1.1,1.548-1.1,1.321,3.092-1.1-1.1,3.089,1.546-.883,1.546.883-1.1-3.089,3.091,1.1Z" transform="translate(-430.048 -428.869)" fill="#fff"/>
  <path id="Path_41337" data-name="Path 41337" d="M324.42,228.708a.65.65,0,0,0-.663.663.978.978,0,0,0,.663.883,1.529,1.529,0,0,1-1.1.661.981.981,0,0,1-.883-.661s.883-.217.883-.661-.663-.663-.663-.663,0-1.1-.661-1.1-.661,1.1-.661,1.1-.663.219-.663.663.883.661.883.661a.985.985,0,0,1-.883.661,1.521,1.521,0,0,1-1.1-.661.977.977,0,0,0,.661-.883.648.648,0,0,0-.661-.663c0-.883-.883-.444-.883-.444l.661,4.637h5.3l.661-4.637S324.42,227.825,324.42,228.708Zm-5.079-5.744a.649.649,0,0,0-.661.668.985.985,0,0,0,.661.883,1.515,1.515,0,0,1-1.1.661.985.985,0,0,1-.883-.661s.883-.222.883-.661-.661-.668-.661-.668,0-1.1-.663-1.1-.661,1.1-.661,1.1-.663.222-.663.668.883.661.883.661a.981.981,0,0,1-.883.661,1.529,1.529,0,0,1-1.1-.661.986.986,0,0,0,.663-.883.651.651,0,0,0-.663-.668c0-.877-.88-.439-.88-.439l.661,4.637h5.3l.661-4.637s-.888-.439-.888.439Zm10.155,0a.649.649,0,0,0-.661.668.985.985,0,0,0,.661.883,1.516,1.516,0,0,1-1.1.661.985.985,0,0,1-.883-.661s.883-.222.883-.661-.661-.668-.661-.668,0-1.1-.663-1.1-.661,1.1-.661,1.1-.666.222-.666.668.885.661.885.661a.982.982,0,0,1-.885.661,1.521,1.521,0,0,1-1.1-.661.985.985,0,0,0,.661-.883.649.649,0,0,0-.661-.668c0-.877-.883-.439-.883-.439l.663,4.637h5.3l.663-4.637s-.885-.439-.885.439Zm9.494-32.224-.444,1.324-.88-.222.219-1.324-2.206-.441-.243,1.4-.864-.24,0-1.6-2.209-.219-.185,1.379-1.58-.277v.883h-.441v-1.1h-1.1v.885h-.666v-1.1h-1.1v.883l-.883-.219v-1.99l-2.209-.219v1.324h-1.1v-1.324h-2.209v1.324h-1.1v-1.324l-2.2.219v1.987l-.885.219v-.88h-1.1v1.1h-.661V190.3h-1.1v1.1h-.439v-.883l-1.582.277-.185-1.379-2.212.217v1.6l-.864.24-.24-1.4-2.209.441.219,1.324-.883.222-.439-1.324-2.206.661,1.1,2.87.661-.219,3.311,7.285a54.1,54.1,0,0,1,7.285-1.546,53.293,53.293,0,0,1,13.687,0,53.561,53.561,0,0,1,7.282,1.546l3.311-7.285.663.219,1.1-2.87-2.2-.661Z" transform="translate(-274.992 -184.28)" fill="#eace23"/>
  <path id="Path_41338" data-name="Path 41338" d="M373.137,227.015a.881.881,0,0,0-.883.88V230.1h1.768v-2.209A.885.885,0,0,0,373.137,227.015Zm-13.374,1.373a.88.88,0,0,0-.632,1.078l.556,2.136,1.708-.444-.556-2.136A.879.879,0,0,0,359.763,228.388Zm26.746,0a.884.884,0,0,1,.635,1.078l-.559,2.133-1.708-.444.556-2.136a.881.881,0,0,1,1.076-.632Z" transform="translate(-326.137 -219.231)" fill="#5e520d"/>
</svg>
