<svg id="BLR" xmlns="http://www.w3.org/2000/svg" width="93.993" height="67.886" viewBox="0 0 93.993 67.886">
  <path id="Path_39454" data-name="Path 39454" d="M5.333,41.334H73.216A10.445,10.445,0,0,0,83.661,30.889V20.444H5.333V41.331Z" transform="translate(10.332 26.552)" fill="#4aa657"/>
  <path id="Path_39455" data-name="Path 39455" d="M73.216,4.444H5.333v47H83.661V14.889A10.445,10.445,0,0,0,73.216,4.444Z" transform="translate(10.332 -4.444)" fill="#c8313e"/>
  <path id="Path_39456" data-name="Path 39456" d="M10.445,4.444A10.445,10.445,0,0,0,0,14.889v47A10.445,10.445,0,0,0,10.445,72.33h5.222V4.447H10.445Z" transform="translate(0 -4.444)" fill="#fff"/>
  <path id="Path_39457" data-name="Path 39457" d="M1.578,67.6l1.633-2.9,1.674,2.978L3.47,69.952a10.043,10.043,0,0,0,1.422.972l2.068-3.751L3.252,61.231.335,65.737a10.44,10.44,0,0,0,2.038,3.21L1.581,67.6Zm13.614-.238-3.91-5.8L7.361,67.226l3.357,5.1h1.689ZM11.4,64.7l1.674,2.978L11.4,70.366,9.767,67.593l1.633-2.9Zm3.842-25.443V36.919l-.817,1.14ZM6.953,9.732,4.618,5.987a10.408,10.408,0,0,0-4.4,5.4l3.354,4.473L6.95,9.732Zm-5.375.423,1.633-2.9,1.674,2.978L3.211,12.928Zm10.054,6.118,3.56-6.356L11.506,4.445h-.446l-3.7,5.343,4.265,6.488Zm1.439-6.036L11.4,12.928,9.767,10.155l1.633-2.9,1.671,2.975Z" transform="translate(0.422 -4.442)" fill="#c8313e"/>
  <path id="Path_39458" data-name="Path 39458" d="M12.931,20.652l2.285-3.795.449.2V15.43L11.994,9.717,7.588,15.838,3.673,9.555,0,15.23v1.7l2.244,3.724,1.589-2.326-1.14-1.589.858-1.143L6.04,18.816,2.368,24.852,0,21.6v4.053l.153-.2,2.488,3.222L0,33.018V36.09l2.365-3.257L6.04,38.869,3.552,42.094l-.858-1.143,1.143-1.589L2.248,37.036,0,40.764v1.5l3.754,5.725L7.553,41.3l.153.247,4.215,6.812,3.751-6.65V40.684l-.326.147L13.06,37.036l-1.592,2.326,1.143,1.589-.858,1.143L9.265,38.872l3.672-6.036L15.671,36.6V33.617l-3.02-4.967,2.488-3.222.532.711V20.925l-2.855,3.936L9.145,18.822,11.633,15.6l.858,1.14-1.143,1.589,1.592,2.326Zm-1.745,5.3v5.034L7.544,36.742,4.113,30.968V25.986l3.431-5.778,3.642,5.748Z" transform="translate(0.002 5.457)" fill="#c8313e"/>
  <path id="Path_39459" data-name="Path 39459" d="M5.257,28.4,6.82,31.246,5.257,34.1l1.143.626L7.563,32.6l1.163,2.118L9.869,34.1,8.306,31.246,9.869,28.4l-1.143-.626L7.563,29.889,6.4,27.771ZM.023,52.847l1.633,2.773L3.33,52.929,1.656,49.95Zm3.959,0,1.633,2.773,1.671-2.691L5.616,49.95Zm3.874,0L9.49,55.619l1.674-2.691L9.49,49.95Zm4.156,0,1.633,2.773,1.671-2.691L13.646,49.95ZM.023,10.908l1.633,2.776L3.33,10.99,1.656,8.015Zm3.959,0,1.633,2.776L7.287,10.99,5.616,8.015Zm3.874,0L9.49,13.684l1.674-2.693L9.49,8.015Zm4.156,0,1.633,2.776,1.671-2.693L13.646,8.015Z" transform="translate(0.045 2.474)" fill="#c8313e"/>
</svg>
