<svg id="BLZ" xmlns="http://www.w3.org/2000/svg" width="93.996" height="67.886" viewBox="0 0 93.996 67.886">
  <path id="Path_39460" data-name="Path 39460" d="M93.995,61.885A10.445,10.445,0,0,1,83.55,72.33H10.444A10.445,10.445,0,0,1,0,61.885v-47A10.445,10.445,0,0,1,10.444,4.444H83.55A10.445,10.445,0,0,1,93.995,14.889Z" transform="translate(0.001 -4.444)" fill="#ce1b26"/>
  <path id="Path_39461" data-name="Path 39461" d="M1.448,6.222A10.315,10.315,0,0,0,0,11.444v47a10.361,10.361,0,0,0,1.448,5.222h91.1a10.351,10.351,0,0,0,1.445-5.222v-47a10.353,10.353,0,0,0-1.448-5.222Z" transform="translate(0.003 -1)" fill="#003e87"/>
  <path id="Path_39462" data-name="Path 39462" d="M59.33,33.22A26.109,26.109,0,1,1,33.22,7.111,26.11,26.11,0,0,1,59.33,33.22Z" transform="translate(13.779 0.723)" fill="#fff"/>
  <path id="Path_39463" data-name="Path 39463" d="M55,31.5A23.5,23.5,0,1,1,31.5,8,23.5,23.5,0,0,1,55,31.5Z" transform="translate(15.501 2.445)" fill="#730900"/>
  <path id="Path_39464" data-name="Path 39464" d="M53.885,31.056A22.829,22.829,0,1,1,31.057,8.228,22.828,22.828,0,0,1,53.885,31.056Z" transform="translate(15.943 2.887)" fill="#fff"/>
  <path id="Path_39465" data-name="Path 39465" d="M18.208,9.131a1.56,1.56,0,0,1-1.331,1.715,1.56,1.56,0,0,1-1.331-1.715,1.56,1.56,0,0,1,1.331-1.715,1.56,1.56,0,0,1,1.331,1.715Z" transform="translate(30.122 1.314)" fill="#007f00"/>
  <path id="Path_39466" data-name="Path 39466" d="M18.208,25.131a1.56,1.56,0,0,1-1.331,1.715,1.56,1.56,0,0,1-1.331-1.715,1.56,1.56,0,0,1,1.331-1.715A1.56,1.56,0,0,1,18.208,25.131Z" transform="translate(30.122 32.31)" fill="#007f00"/>
  <path id="Path_39467" data-name="Path 39467" d="M24.717,54.443a1.561,1.561,0,0,1,1.727-1.313,1.772,1.772,0,0,1-.887,3.316A1.562,1.562,0,0,1,24.717,54.443Zm13.006-43.4a1.551,1.551,0,0,0,1.727-1.307,1.563,1.563,0,0,0-.84-2,1.558,1.558,0,0,0-1.727,1.31A1.554,1.554,0,0,0,37.723,11.041ZM19.183,51.77a1.562,1.562,0,0,1,2.009-.822,1.771,1.771,0,1,1-2.012.822ZM42.975,13.218a1.558,1.558,0,0,0,2.009-.817,1.562,1.562,0,0,0-.294-2.15,1.558,1.558,0,0,0-2.009.817A1.562,1.562,0,0,0,42.975,13.218ZM14.528,47.76a1.556,1.556,0,0,1,2.153-.27,1.561,1.561,0,0,1-.27,2.153,1.556,1.556,0,0,1-2.153.27A1.558,1.558,0,0,1,14.528,47.76ZM47.487,16.684a1.558,1.558,0,0,0,2.15-.27,1.559,1.559,0,0,0,.27-2.153,1.555,1.555,0,0,0-2.15.27,1.555,1.555,0,0,0-.27,2.15Zm-36.419,26a1.559,1.559,0,0,1,2.15.3,1.559,1.559,0,0,1-.82,2.009,1.562,1.562,0,0,1-2.15-.294A1.559,1.559,0,0,1,11.068,42.682ZM50.953,21.2a1.77,1.77,0,1,0,.82-2.012,1.557,1.557,0,0,0-.817,2.009ZM9.044,36.884a1.556,1.556,0,0,1,2,.84,1.56,1.56,0,0,1-1.31,1.73,1.557,1.557,0,0,1-2-.843A1.553,1.553,0,0,1,9.044,36.884ZM53.127,26.447a1.768,1.768,0,0,0,3.31-.887,1.769,1.769,0,0,0-3.31.887Z" transform="translate(14.916 1.856)" fill="#007f00"/>
  <path id="Path_39468" data-name="Path 39468" d="M10.847,16.878a1.56,1.56,0,0,1-1.715,1.331,1.56,1.56,0,0,1-1.715-1.331,1.56,1.56,0,0,1,1.715-1.331,1.56,1.56,0,0,1,1.715,1.331Z" transform="translate(14.37 17.066)" fill="#007f00"/>
  <path id="Path_39469" data-name="Path 39469" d="M53.875,32.086a1.767,1.767,0,0,0,3.425,0,1.767,1.767,0,0,0-3.425,0ZM9.733,24.719a1.561,1.561,0,0,1,1.313,1.727,1.562,1.562,0,0,1-2,.843,1.562,1.562,0,0,1-1.313-1.73A1.562,1.562,0,0,1,9.733,24.719Zm43.4,13.006a1.769,1.769,0,0,0,3.31.887,1.769,1.769,0,0,0-3.31-.887ZM12.406,19.182a1.56,1.56,0,0,1,.82,2.009,1.559,1.559,0,0,1-2.15.294,1.56,1.56,0,0,1-.82-2.009,1.553,1.553,0,0,1,2.15-.3ZM50.958,42.977a1.769,1.769,0,0,0,2.967,1.715,1.768,1.768,0,0,0-2.967-1.715ZM16.416,14.527a1.556,1.556,0,0,1,.27,2.153,1.561,1.561,0,0,1-2.153-.27,1.556,1.556,0,0,1-.27-2.153A1.561,1.561,0,0,1,16.416,14.527ZM47.492,47.489a1.767,1.767,0,0,0,2.423,2.42,1.767,1.767,0,0,0-2.423-2.42Zm-26-36.422a1.559,1.559,0,0,1-.3,2.15,1.559,1.559,0,0,1-2.009-.819,1.559,1.559,0,0,1,.294-2.15,1.559,1.559,0,0,1,2.009.819ZM42.98,50.952a1.77,1.77,0,1,0,2.012.82A1.559,1.559,0,0,0,42.98,50.952ZM27.292,9.043a1.556,1.556,0,0,1-.84,2,1.56,1.56,0,0,1-1.73-1.31,1.557,1.557,0,0,1,.843-2A1.556,1.556,0,0,1,27.292,9.043ZM37.729,53.128a1.769,1.769,0,1,0,1.727,1.31A1.552,1.552,0,0,0,37.729,53.128Z" transform="translate(14.91 1.857)" fill="#007f00"/>
  <path id="Path_39470" data-name="Path 39470" d="M13.3,12.406l2.591,4.421H18.73L20,17.849l.784,2.705-2.808-1.234,2.62,2.147-.632,2.15h2.159V19.8l3.525-2.159-.582-.435-2.926,1.633L21.8,16.454l-.529-.567,1.8-2.218-.928-.376L20.786,15.3,20.6,13.669l.191-2.018s-.9-.717-.82-.482a12.646,12.646,0,0,1,0,1.774l-1.7-1.821-.787.314,1.7,1.513L17.2,14.427,14.8,13.766l.461-2.453h-.493l-.426,2.312-.426-1.968-.617,1.09Zm9.106-2.37h.567V12.16h-.567Zm2.973.423h.708V11.59H25.38Z" transform="translate(25.761 6.389)" fill="#b34b00"/>
  <path id="Path_39471" data-name="Path 39471" d="M14.364,11.842c.085.214.467,1.251.467,1.251l2.729.282,1.157,1.187L18.262,13.2l-.7-1.577Z" transform="translate(27.83 9.462)" fill="#fff"/>
  <path id="Path_39472" data-name="Path 39472" d="M14.41,11.173a1.992,1.992,0,0,1,2.714.661,3.311,3.311,0,0,1,2.708-2.218c2.027-.141,2.009.755,2.009.755s.449-1.3,3.158-.77,2.626,1.43,2.174,1.806-4.556.141-4.556.141a5.816,5.816,0,0,1,.47,1.131c.047.332,1.51-.611,3.818,0,0,0,1.137-1.98,2.879-.943s2.887,3.02,2.456,3.583-3.542.188-3.895-.188a2.112,2.112,0,0,1-2.1.849,13.706,13.706,0,0,1-3.915-1.745l-.491-.758a4.862,4.862,0,0,0-2.517-.943c-1.378-.044-2.338,0-2.338,0a3.849,3.849,0,0,1-2.012,1.228,14.493,14.493,0,0,1-2.215.094,2.871,2.871,0,0,1,1.657-2.688Z" transform="translate(24.705 5.299)" fill="#289400"/>
  <path id="Path_39473" data-name="Path 39473" d="M16.238,11.184c2.714-.426,4.5,0,4.691,1.322s-2.024,1.087-2.473,1.134a29.452,29.452,0,0,1-3.892.9c-.846-.047-2.6-.9-1.322-2.121A4.732,4.732,0,0,1,16.238,11.184ZM26.627,13.59c2.667.623,3.927,2.077,3.31,2.691s-2.185.52-3.616,0-3.416-.141-3.86-1.134,1.137-2.265,4.165-1.557Zm-.908,3.4c2.027.332,2.1,2.121,1.771,2.453s-3.442-.094-4.147-.943.373-1.839,2.379-1.51Zm-7.534-.9c2.526-.955,3.61.144,3.581,1.134s-2.15.943-2.975,1.322-2.335.849-2.852.282.25-1.983,2.247-2.738Z" transform="translate(24.784 8.305)" fill="#289400"/>
  <path id="Path_39474" data-name="Path 39474" d="M14.612,21.632c-.7.693-1.768,2.141.514,2.585s1.4-1.8.913-2.174A3.013,3.013,0,0,0,14.612,21.632Z" transform="translate(26.621 28.854)" fill="#adadad"/>
  <path id="Path_39475" data-name="Path 39475" d="M15.358,21.852c.047.138.329.8,0,1.178a1.776,1.776,0,0,1-1.416.611,19.632,19.632,0,0,1,2.688.617c.473.229.9-.476.661-1.466s-1.933-.94-1.933-.94Z" transform="translate(27.012 29.28)" fill="#69f"/>
  <path id="Path_39476" data-name="Path 39476" d="M33.714,20.3a7.191,7.191,0,0,0-2.879.99,1.655,1.655,0,0,0-1.983-.1c-1.228.664-1.933.852-1.839,2.077a8.187,8.187,0,0,1-1.322.52,3.208,3.208,0,0,1-1.745.044,3.208,3.208,0,0,1-1.745-.044,7.8,7.8,0,0,1-1.319-.52c.094-1.225-.614-1.413-1.842-2.077a1.655,1.655,0,0,0-1.983.1,7.191,7.191,0,0,0-2.879-.99,2.57,2.57,0,0,0-2.265,1.51,10.443,10.443,0,0,0,.943,2.024,1.462,1.462,0,0,0,1.51.9,14.245,14.245,0,0,0,2.782-.567,9.366,9.366,0,0,0,2.644,1.275,12.129,12.129,0,0,0,4.147.8,12.034,12.034,0,0,0,4.147-.8,9.366,9.366,0,0,0,2.644-1.275,14.289,14.289,0,0,0,2.785.567,1.465,1.465,0,0,0,1.51-.9,10.177,10.177,0,0,0,.943-2.024,2.561,2.561,0,0,0-2.262-1.51Z" transform="translate(23.085 26.264)" fill="#eee"/>
  <path id="Path_39477" data-name="Path 39477" d="M16.825,21.049a28.166,28.166,0,0,0,3.61,1.824A1.065,1.065,0,0,0,20,21.619a15.084,15.084,0,0,0-2.3-1.087c-.52-.206-.875.514-.875.514Zm.355,2.785a6.151,6.151,0,0,0-3.02-1.759c-.946-.191-2.047.159-2.012.881a1.687,1.687,0,0,0,1.777,1.381c.837-.091,3.255-.505,3.255-.505Z" transform="translate(23.536 26.652)" fill="#adadad"/>
  <path id="Path_39478" data-name="Path 39478" d="M16.85,21.179s.047-.893.661-.52a.974.974,0,0,1,.426,1.06l-1.087-.54ZM16,23.4a6.814,6.814,0,0,0-2.312-1.178c-.711,0-1.416.047-1.369.587s.993.781,1.513.872A9.851,9.851,0,0,0,16,23.4Z" transform="translate(23.867 26.793)" fill="#69f"/>
  <path id="Path_39479" data-name="Path 39479" d="M19.312,21.632c.708.693,1.771,2.141-.511,2.585s-1.4-1.8-.916-2.174A3.021,3.021,0,0,1,19.312,21.632Z" transform="translate(33.527 28.854)" fill="#adadad"/>
  <path id="Path_39480" data-name="Path 39480" d="M18.923,21.852c-.047.138-.332.8,0,1.178a1.779,1.779,0,0,0,1.413.611,19.633,19.633,0,0,0-2.688.617c-.473.229-.9-.476-.658-1.466s1.933-.94,1.933-.94Z" transform="translate(32.785 29.28)" fill="#69f"/>
  <path id="Path_39481" data-name="Path 39481" d="M20.7,21.049a28.358,28.358,0,0,1-3.61,1.824,1.065,1.065,0,0,1,.435-1.254,15.216,15.216,0,0,1,2.3-1.087c.52-.206.875.514.875.514Zm-.355,2.785a6.151,6.151,0,0,1,3.02-1.759c.94-.188,2.044.159,2.012.881A1.687,1.687,0,0,1,23.6,24.336c-.843-.091-3.255-.505-3.255-.505Z" transform="translate(33.007 26.652)" fill="#adadad"/>
  <path id="Path_39482" data-name="Path 39482" d="M18.9,21.179s-.047-.893-.658-.52a.969.969,0,0,0-.426,1.06l1.084-.54Zm.849,2.221a6.814,6.814,0,0,1,2.312-1.178c.708,0,1.416.047,1.369.587s-.993.781-1.51.872A9.911,9.911,0,0,1,19.746,23.4Z" transform="translate(34.458 26.793)" fill="#69f"/>
  <path id="Path_39483" data-name="Path 39483" d="M14.5,20.866c1.1.429,2.879,2.356,0,1.134S12.8,20.2,14.5,20.866Zm3.818,2.265a21.551,21.551,0,0,0,4.526.7c1.178,0,1.933,1.231.47,1.087a29.811,29.811,0,0,1-5.516-.887C16.76,23.6,17.292,22.846,18.317,23.131Zm7.452.135a39.775,39.775,0,0,1,4.667-2.453c.849-.188,1.889-.091,1.795.332s-.614.658-1.416.755-3.4,2.265-5.046,2.5,0-1.134,0-1.134Z" transform="translate(24.711 26.826)" fill="#d3d3d3"/>
  <path id="Path_39484" data-name="Path 39484" d="M13.606,19.32A108.655,108.655,0,0,1,31.289,18.9c3.346.423,10.659,2.456,9.717,3.63s-5,1.087-7.308.708-3.208,1.654-7.123,1.7-5.9-1.231-7.546-1.842a9.593,9.593,0,0,0-5.422.144c-1.416.426-6.083-2.688,0-3.915Z" transform="translate(20.46 23.179)" fill="#289400"/>
  <path id="Path_39485" data-name="Path 39485" d="M13.652,14.467v8.915c0,3.254,2.453,5.9,3.466,6.838a25.257,25.257,0,0,0,3.466,2.312A24.793,24.793,0,0,0,24.05,30.22c1.016-.943,3.466-3.583,3.466-6.838V14.467H13.655Z" transform="translate(26.451 14.973)"/>
  <path id="Path_39486" data-name="Path 39486" d="M13.893,14.66v8.357c0,2.923,2.2,5.581,3.114,6.427A22.317,22.317,0,0,0,20.12,31.52a22.168,22.168,0,0,0,3.111-2.077c.911-.846,3.114-3.5,3.114-6.427V14.66H13.9Z" transform="translate(26.918 15.347)" fill="#9ed7ff"/>
  <path id="Path_39487" data-name="Path 39487" d="M15.263,20.264h8.142a12.277,12.277,0,0,0,.963-1.413H14.3A11.916,11.916,0,0,0,15.263,20.264Z" transform="translate(27.706 23.466)" fill="#006ac8"/>
  <path id="Path_39488" data-name="Path 39488" d="M14.63,19.332a9.825,9.825,0,0,0,.958,1.06,7.71,7.71,0,0,0,.614.493h5a6.7,6.7,0,0,0,.611-.493,10.12,10.12,0,0,0,.958-1.06H14.627Z" transform="translate(28.34 24.398)" fill="#5ac800"/>
  <path id="Path_39489" data-name="Path 39489" d="M17.662,21.441a28.823,28.823,0,0,0,2.5-1.58h-5a28.662,28.662,0,0,0,2.5,1.58Z" transform="translate(29.376 25.423)" fill="#ffd801"/>
  <path id="Path_39490" data-name="Path 39490" d="M14.4,25.551l5.719-5.093v-5.8H13.894v8.357A7.078,7.078,0,0,0,14.4,25.551Z" transform="translate(26.92 15.347)" fill="#fff"/>
  <path id="Path_39491" data-name="Path 39491" d="M21.728,25.551a7.015,7.015,0,0,0,.508-2.535V14.66H16.012v5.8l5.716,5.093Z" transform="translate(31.023 15.347)" fill="#ffd83c"/>
  <path id="Path_39492" data-name="Path 39492" d="M19.06,19.061l-.029-.026a.213.213,0,0,0-.3,0l-.176.176-1.234-1.234a.443.443,0,0,0,.029-.57l-2.5-2.456a.547.547,0,0,0-.734.743l2.5,2.458a.39.39,0,0,0,.432.041l1.26,1.26-.258.261a.216.216,0,0,0,0,.3l.029.026a.213.213,0,0,0,.3,0l.681-.684a.21.21,0,0,0,0-.3Z" transform="translate(27.164 15.737)" fill="#b34b00"/>
  <path id="Path_39493" data-name="Path 39493" d="M14.716,19.338a.291.291,0,0,1-.408.056.287.287,0,0,1-.056-.405l2.676-3.5a.287.287,0,0,1,.405-.056.293.293,0,0,1,.056.408Z" transform="translate(27.498 16.738)" fill="#782121"/>
  <path id="Path_39494" data-name="Path 39494" d="M14.965,16.028l.743-1.175,1.566.993-.746,1.175Z" transform="translate(28.994 15.721)" fill="#d3d3d3"/>
  <path id="Path_39495" data-name="Path 39495" d="M19.789,19.049a.289.289,0,0,0,.411.018.286.286,0,0,0,.018-.408L17.248,15.4a.291.291,0,1,0-.429.394Z" transform="translate(32.436 16.606)" fill="#782121"/>
  <path id="Path_39496" data-name="Path 39496" d="M16.192,16.26l1.345-1.275L18.495,16,17.15,17.27Zm.558,2.088,3.513-3.372.881.919-3.513,3.372Z" transform="translate(31.371 15.959)" fill="#fff"/>
  <path id="Path_39497" data-name="Path 39497" d="M14.835,18.309a10.776,10.776,0,0,0,3.536.916A4.235,4.235,0,0,0,20.41,19l-.464.9H15.969l-1.137-1.589Z" transform="translate(28.737 22.416)" fill="#b34b00"/>
  <path id="Path_39498" data-name="Path 39498" d="M15.046,19.409l1,.717h3.7l-.5-2.447-3.2.153Z" transform="translate(29.151 21.196)" fill="#fff"/>
  <path id="Path_39499" data-name="Path 39499" d="M12.859,13.471c1.1-.529,3.184-1.7,3.5-1.874s.849.458.355.673S13.6,14.038,12.859,14.39s0-.919,0-.919Z" transform="translate(24.274 9.354)" fill="#892614"/>
  <path id="Path_39500" data-name="Path 39500" d="M13.529,34.542c-.141,1.037-.755,2.077.426,2.4s1.4-.764,1.078-1.751S13.529,34.542,13.529,34.542Zm4.106-.056c-.188.435-.755,1.381.376,1.257a9.1,9.1,0,0,1,2.547,0c.711.117,1.134-.652.379-.623a1.5,1.5,0,0,1-1.607-.949c-.282-.7-1.695.311-1.695.311Zm-2.77-13.033-.338-1.827a18.063,18.063,0,0,0-1.281,1.445c-.329.473-.984-.211-1.363-.52a3.68,3.68,0,0,1-.9-2.05c-.094-.8-1.04-1.272-.708-1.839s.614-.849,1.181-.849.708.755.708.755,1.093.138.661.661c-1.06,1.287-.223,1.5-.223,1.5l.643-.8s-.238-1.51,0-1.792a5.773,5.773,0,0,1,2.127-.852c.473-.05,1.04-.47.825-.755a2.5,2.5,0,0,1-.684-1.419c0-.611-.214-1.933,1.166-1.742s1.853,1.084,1.475,1.839-.564.99-.426,1.416.182.943,1.1.99,1.1.341,1.24,1.143a6.543,6.543,0,0,1,.106,1.874,3.794,3.794,0,0,0,0,.9,5.217,5.217,0,0,1,1.457-.07,8.006,8.006,0,0,1,1.889.875H20.464l-.235.993s-.332.379-.473.329a9.7,9.7,0,0,1-.922-1.275l-.35,1.275-3.622-.211Z" transform="translate(19.783 8.953)" fill="#fbd44d"/>
  <path id="Path_39501" data-name="Path 39501" d="M12.889,14.756a13.154,13.154,0,0,0-.9,4.9,11.212,11.212,0,0,1-.012,3.912c-.364,1.231-.881,4.717-.881,4.717l1.322.9,1.463-.943.235-5.516.834-2.732.814,1.977-.332,6.13,2.406-.044S17.65,22.4,17.6,21.5s-.382-3.63-.5-4.479-.35-1.933-.35-1.933l-3.865-.335Z" transform="translate(21.507 15.533)" fill="#d3d3d3"/>
  <path id="Path_39502" data-name="Path 39502" d="M11.867,14.694a7.624,7.624,0,0,0,1.968.238c1.043-.032,2.112-.358,2.132-.238a7.015,7.015,0,0,1,0,1.04,5.978,5.978,0,0,0-2.038,0,4.069,4.069,0,0,1-2.062,0C11.441,15.592,11.867,14.694,11.867,14.694Z" transform="translate(22.626 15.361)" fill="#9b5f00"/>
  <path id="Path_39503" data-name="Path 39503" d="M13.753,11.111A1.423,1.423,0,0,1,15.2,12.762c-.047.849-.3,1.087-.3,1.087s.17-.919-.373-.473v-.9a8.557,8.557,0,0,1-1.58,0,4.875,4.875,0,0,1-.637-.188l-.164.637a.979.979,0,0,1-.026-1.251,1.874,1.874,0,0,1,1.4-.567Z" transform="translate(23.036 8.471)"/>
  <path id="Path_39504" data-name="Path 39504" d="M9.848,16.3a5.081,5.081,0,0,1,1.345-1.237s.141.176.637,0,.458-.317.743-.426a.411.411,0,0,0,.247-.426s1.663-.673,2.37-.993,1.522-.811,1.522-.811l.317.247s0,.529-.282.7-2.406,1.24-2.582,1.381a2.617,2.617,0,0,1-.567.282s-.176-.355-.352-.211a1.29,1.29,0,0,0-.285.529,9.663,9.663,0,0,0-1.134.6c-.426.282-.919,1.275-1.378,1.486s-.787-.864-.605-1.131Z" transform="translate(18.976 10.983)" fill="#892614"/>
  <path id="Path_39505" data-name="Path 39505" d="M13.276,12.244c.258-.247,1.21-.916,1.445-.564s.585,2.3,1.715,2.121a7.021,7.021,0,0,1-1.237.881,5.317,5.317,0,0,1-1.569.355s-.012-.919,0-1.448a4.109,4.109,0,0,0-.352-1.345Z" transform="translate(25.722 9.38)" fill="#d3d3d3"/>
  <path id="Path_39506" data-name="Path 39506" d="M17.378,10.958c.388-.176,4.227,1.874,4.873,2.156s1.034,1.416,1.674,1.662.106.67-.282.458-1.24-.141-1.986-.388a27.48,27.48,0,0,1-4.823-2.682c-.109-.317.543-1.21.543-1.21Z" transform="translate(32.593 8.155)" fill="#b34b00"/>
  <path id="Path_39507" data-name="Path 39507" d="M27.234,34.538c.141,1.037.755,2.077-.426,2.4s-1.4-.764-1.072-1.751S27.234,34.538,27.234,34.538Zm-4.1-.056c.188.435.752,1.381-.379,1.257a9.126,9.126,0,0,0-2.55,0c-.708.117-1.131-.652-.376-.623a1.491,1.491,0,0,0,1.6-.949c.288-.7,1.7.311,1.7.311ZM25.9,21.449l.338-1.827a13.1,13.1,0,0,1,1.09,1.234,1.094,1.094,0,0,0,1.472.214A5.688,5.688,0,0,0,29.78,18.5c.094-.8.987-.661.655-1.228s-.681-.928-1.248-.928-.587.223-.587.223-.72.188-.438.8a2.04,2.04,0,0,1-.082,1.436l-.561-.482a8.37,8.37,0,0,0-.414-2.085A4.063,4.063,0,0,0,25.4,15.3c-.47-.05-1.037-.47-.825-.755a2.483,2.483,0,0,0,.684-1.419c0-.611.217-1.933-1.163-1.742s-1.853,1.084-1.472,1.839a1.571,1.571,0,0,1,.176,1.463c-.141.426.062.9-.858.943s-1.231.532-1.372,1.334a4.983,4.983,0,0,0,.026,1.683,3.442,3.442,0,0,1-.006.9,5.206,5.206,0,0,0-1.457-.07,8.006,8.006,0,0,0-1.889.875h3.067l.238.993s.329.379.473.329a9.391,9.391,0,0,0,.919-1.275l.352,1.275,3.616-.211Z" transform="translate(33.409 8.957)" fill="#892614"/>
  <path id="Path_39508" data-name="Path 39508" d="M23.542,14.756a13.154,13.154,0,0,1,.9,4.9,11.142,11.142,0,0,0,.012,3.912c.364,1.231.881,4.717.881,4.717l-1.319.9-1.463-.943-.235-5.516-.834-2.732-.814,1.977L21,28.1l-2.409-.044s.188-5.66.238-6.553.382-3.63.5-4.479.352-1.933.352-1.933l3.865-.335Z" transform="translate(36.017 15.533)" fill="#d3d3d3"/>
  <path id="Path_39509" data-name="Path 39509" d="M22.96,14.694A7.589,7.589,0,0,1,21,14.931c-1.04-.032-2.112-.358-2.135-.238a7.949,7.949,0,0,0,0,1.04,6,6,0,0,1,2.041,0,4.055,4.055,0,0,0,2.059,0C23.389,15.592,22.96,14.694,22.96,14.694Z" transform="translate(36.502 15.361)" fill="#9b5f00"/>
  <path id="Path_39510" data-name="Path 39510" d="M20.416,11.111a1.426,1.426,0,0,0-1.445,1.651c.047.849.291,1.087.291,1.087s-.2-.919.364-.473v-.9a8.656,8.656,0,0,0,1.589,0,5.38,5.38,0,0,0,.646-.188l.164.637a.983.983,0,0,0,.026-1.251,1.869,1.869,0,0,0-1.392-.567Z" transform="translate(36.749 8.471)"/>
  <path id="Path_39511" data-name="Path 39511" d="M19.74,12.408l3.874,2.08s-.514,0-.505.444-3.172-1.5-3.172-1.5l-.2-1.025Zm5.434,3.114,1.2.388a.338.338,0,0,1,.493-.2c.355.2-.176,1.771-.423,1.745s-.529-.417-.567-.734-1.1-.743-1.1-.743l.388-.458Z" transform="translate(38.239 10.984)" fill="#b34b00"/>
</svg>
