<svg id="BMU" xmlns="http://www.w3.org/2000/svg" width="93.996" height="67.886" viewBox="0 0 93.996 67.886">
  <path id="Path_39372" data-name="Path 39372" d="M83.55,4.446H10.444a10.359,10.359,0,0,0-1.577.117L8.855,9.143,1.726,9.131A10.4,10.4,0,0,0,0,14.888v47A10.445,10.445,0,0,0,10.444,72.329H83.55A10.445,10.445,0,0,0,93.995,61.884v-47A10.445,10.445,0,0,0,83.55,4.443Z" transform="translate(0.001 -4.443)" fill="#cf1b2b"/>
  <path id="Path_39373" data-name="Path 39373" d="M20.076,11.187V34.861A5.4,5.4,0,0,0,23.5,40.231c2.594,1.207,6.456,2.594,8.213,3.7.984.617,2.5,1.665,2.5,1.665s1.519-1.046,2.5-1.665c1.759-1.113,5.349-2.5,7.942-3.7a5.393,5.393,0,0,0,3.425-5.369V11.187H20.073Z" transform="translate(38.89 8.622)"/>
  <path id="Path_39374" data-name="Path 39374" d="M20.542,19.069a5.325,5.325,0,0,0,3.2,5.17c2.429,1.128,5.581,2.426,7.226,3.466.919.579,2.341,1.56,2.341,1.56s1.422-.978,2.338-1.56c1.648-1.043,4.808-2.338,7.235-3.466a5.34,5.34,0,0,0,3.208-5.17H20.539Z" transform="translate(39.793 23.892)" fill="#2e8f22"/>
  <path id="Path_39375" data-name="Path 39375" d="M20.54,11.65H46.094V33.682H20.54Z" transform="translate(39.795 9.519)" fill="#fff"/>
  <path id="Path_39376" data-name="Path 39376" d="M41.878,30.2c-.182-1.019,0-2.594-.276-3.058s-2.87-1.386-4.723-1.2-.555-2.315.74-2.961,2.5-1.207,2.685-1.944-.464-1.3-1.574-1.113-1.759.185-2.409.834-.74-.091-1.019-.834.182-1.019.279-1.759a7.338,7.338,0,0,0-.649-3.61c-.555-.831-.27-1.386-1.193-1.85S31.8,11.87,31.8,11.87a20.951,20.951,0,0,0-1.944.834c-.925.464-.646,1.019-1.2,1.85a7.344,7.344,0,0,0-.649,3.61c.094.74.552,1.022.279,1.759s-.37,1.48-1.019.834-1.3-.646-2.409-.834-1.759.37-1.574,1.113,1.386,1.3,2.685,1.944,2.591,3.146.74,2.961-4.444.74-4.723,1.2-.094,2.038-.276,3.058-.646,1.85-.185,1.665A19.175,19.175,0,0,0,25.136,30.2c1.019-.74,2.221,2.964,1.759,3.889s-.555,1.574-1.3,1.2a1.868,1.868,0,0,0-2.221.928c-.37.74.461,1.2,1.389,1.848s2.033-.646,2.5-1.3S31.8,34.093,31.8,34.093s4.068,2.033,4.526,2.685,1.571,1.944,2.5,1.3,1.757-1.11,1.383-1.848a1.872,1.872,0,0,0-2.221-.928c-.74.37-.834-.279-1.3-1.2s.74-4.629,1.759-3.889a19.091,19.091,0,0,0,3.613,1.665c.467.185.009-.646-.179-1.665Z" transform="translate(41.314 9.945)" fill="#cf1b2b"/>
  <path id="Path_39377" data-name="Path 39377" d="M38.185,19.342s.279.646.646.646a.933.933,0,0,0,.464-1.477c-.552-.649-1.022-.928-.74-1.48s-.464-1.483-.464-1.483c-.37.552-1.389,1.389-3.149.276s-3.149-1.3-3.425-.646H29.881c-.273-.646-1.665-.461-3.425.646s-2.782.276-3.149-.276c0,0-.74.928-.464,1.483s-.185.831-.74,1.48a.933.933,0,0,0,.464,1.477c.37,0,.646-.646.646-.646a3.273,3.273,0,0,1,1.113,2.409c-.094,1.386-1.944,2.682-1.944,2.682.555.646.555,1.577,1.113,3.24s2.5,1.2,2.5,1.2c.094,1.022,1.853,2.038,2.5,2.038a.869.869,0,0,1,.834.552s-.74.464-.37.834c.347.344,1.589-.123,1.745-.179.153.059,1.4.526,1.745.179.37-.373-.37-.834-.37-.834a.865.865,0,0,1,.834-.552c.646,0,2.406-1.022,2.5-2.038,0,0,1.944.464,2.5-1.2s.555-2.594,1.113-3.24c0,0-1.85-1.3-1.944-2.682A3.282,3.282,0,0,1,38.2,19.342Z" transform="translate(42.405 15.623)" fill="#ffe000"/>
  <path id="Path_39378" data-name="Path 39378" d="M39.295,17.865c-.555-.646-1.019-.928-.74-1.48s-.37-.925-.37-.925a2.643,2.643,0,0,1-3.237.555,6.42,6.42,0,0,0-2.13-.834s.226.646-.276.834a.767.767,0,0,1-1.022-.373H29.857a.765.765,0,0,1-1.022.373c-.505-.191-.276-.834-.276-.834a6.4,6.4,0,0,0-2.13.834,2.646,2.646,0,0,1-3.237-.555s-.649.37-.37.925-.185.834-.74,1.48.276.091.646.091a4.152,4.152,0,0,1,1.3.649,2.885,2.885,0,0,1,.925,2.5c-.073,1.389-2.13,2.773-2.13,2.773a11.227,11.227,0,0,1,1.11,2.967c.555,1.207,12.574-4.35,12.5-5.739a2.9,2.9,0,0,1,.925-2.5,4.152,4.152,0,0,1,1.3-.649c.37,0,1.207.555.649-.091Z" transform="translate(42.423 16.358)" fill="#64b4d1"/>
  <path id="Path_39379" data-name="Path 39379" d="M29.834,18.4a4.127,4.127,0,0,1,.021-.673,2.672,2.672,0,0,1-2.056-.811c-.37-.461-.831-.461-1.665,0s-.834,1.756-.834,1.756v.188l5.09,3.328,1.469-.878c.035-.053.068-.1.106-.144,0,0-2.056-1.381-2.13-2.77Z" transform="translate(49.014 19.06)" fill="#ccc"/>
  <path id="Path_39380" data-name="Path 39380" d="M22.809,16.274l.646,6.85,2.961,2.221,3.058-2.5L28.827,20.9l-.37-2.5-1.113-.74-.928-1.85-1.2-.094-.646.461s-.555-.37-.555-.276-.464.555-.464.555l-.74-.185Z" transform="translate(44.19 17.396)" fill="#e4cb5e"/>
  <path id="Path_39381" data-name="Path 39381" d="M24.573,16.182l1.113-.276,1.574,2.779,1.571-.185.279.74-4.259,1.389V19.516l.185-.367Z" transform="translate(47.608 17.764)"/>
  <path id="Path_39382" data-name="Path 39382" d="M23.565,16.985l.461,6.668.464-.279s-.646-5.463-.555-5.369,1.389,4.723,1.389,4.723l.555.185L24.305,17.17l2.5,4.353.461-1.113-2.591-3.516-.74-.925-.37,1.016Z" transform="translate(45.655 17.886)"/>
  <path id="Path_39383" data-name="Path 39383" d="M25.3,17.9l4.171-.925,1.85,2.776-.74,2.127s-3.149,1.574-3.237,1.668-3.058-.279-3.058-.279L25.307,17.9Z" transform="translate(47.061 19.839)" fill="#9f5a2b"/>
  <path id="Path_39384" data-name="Path 39384" d="M33.748,22.008a.682.682,0,0,1,.74-.464c.552.091.37.74.37.74a1.176,1.176,0,0,0,1.574-.74.754.754,0,0,0,.091-.182,9,9,0,0,1,1.019-2.782s-.053-.032-.138-.1a5.15,5.15,0,0,0-.881.47,1.079,1.079,0,0,0-.925-1.019c-.925-.185-1.85,1.2-1.85,1.2-.37-1.11-1.853,0-2.5,1.019s-2.221.74-2.221.74l-.282-.555a1.54,1.54,0,0,0-.646-1.389c-.74-.461-1.853.646-1.853.646.279-1.2-1.019-1.022-1.292-.831s-.74-.464-1.389-.646c-.485-.138-.919.913-1.143,1.8.132.464.247.966.4,1.442a.812.812,0,0,0,.091.182,1.176,1.176,0,0,0,1.574.74s-.182-.646.37-.74a.682.682,0,0,1,.74.464s.646-.185.834.37-.646.74-.646.74c-.091.182.461,1.019,2.388,1.448a2,2,0,0,1,.573.767v.831H30.6v-.831a1.973,1.973,0,0,1,.573-.773c1.927-.432,2.479-1.263,2.388-1.448,0,0-.831-.185-.646-.74s.834-.367.834-.367Z" transform="translate(43.435 21.66)" fill="#ccc"/>
  <path id="Path_39385" data-name="Path 39385" d="M24.567,12.5l.928.461-.185.37-.925-.185.179-.646Zm2.5,0-.925.461.182.37.925-.185Z" transform="translate(47.244 11.168)" fill="#fff"/>
  <path id="Path_39386" data-name="Path 39386" d="M28.728,13.336l.182-.646-.831.834-.37.461-.464-.461-.461.461-.461-.461-.464.461-.37-.461-.831-.834.182.646-.928.649.834-.37.461.185.461.461.649-.182.461.552.461-.552.649.182.461-.461.461-.185.834.37Z" transform="translate(46.325 11.534)"/>
  <path id="Path_39387" data-name="Path 39387" d="M49.61,38.387V4.444H10.447a11.38,11.38,0,0,0-1.577.117L8.858,9.141,1.729,9.129s-.109.153-.332.535A10.428,10.428,0,0,0,0,14.886v23.5H49.607Z" transform="translate(0.001 -4.441)" fill="#00247d"/>
  <path id="Path_39388" data-name="Path 39388" d="M49.6,4.446H43.518l-12.19,8.536V4.446H18.275v6.709L8.864,4.563A10.305,10.305,0,0,0,4.5,6.3l12.278,8.589H12.245L2.525,8.076a10.661,10.661,0,0,0-.8,1.054l8.227,5.757H0V27.941H10.144L0,35.164v3.222H8.7l9.576-6.706v6.706H31.331V29.85l12.187,8.536h6.089v-5.3l-7.349-5.146h7.349V14.888H42.261l7.346-5.146v-5.3Z" transform="translate(0.007 -4.443)" fill="#eee"/>
  <path id="Path_39389" data-name="Path 39389" d="M28.721,4.444H20.887V17.5H0v7.834H20.887V38.384h7.834V25.331H49.608V17.5H28.721Z" transform="translate(0.003 -4.441)" fill="#cf1b2b"/>
  <path id="Path_39390" data-name="Path 39390" d="M48.343,4.444H44.527L30.064,14.572v.317h4.1L48.34,4.961ZM3.235,6.3A10.536,10.536,0,0,0,1.258,8.077l9.719,6.812h4.529L3.232,6.3ZM15.542,27.942.653,38.387H5.162l11.852-8.3V27.942Zm32.8,9.928V34.686l-9.625-6.741h-4.55Z" transform="translate(1.268 -4.441)" fill="#cf1b2b"/>
</svg>
