<svg id="BOL" xmlns="http://www.w3.org/2000/svg" width="93.996" height="67.886" viewBox="0 0 93.996 67.886">
  <path id="Path_39397" data-name="Path 39397" d="M93.995,61.885A10.445,10.445,0,0,1,83.55,72.33H10.444A10.445,10.445,0,0,1,0,61.885v-47A10.445,10.445,0,0,1,10.444,4.444H83.55A10.445,10.445,0,0,1,93.995,14.889Z" transform="translate(0.001 -4.444)" fill="#007934"/>
  <path id="Path_39398" data-name="Path 39398" d="M0,11.556H93.993V37.665H0Z" transform="translate(0.003 9.334)" fill="#ffe000"/>
  <path id="Path_39399" data-name="Path 39399" d="M83.55,4.444H10.444A10.445,10.445,0,0,0,0,14.889V25.334H93.992V14.889A10.445,10.445,0,0,0,83.547,4.444Z" transform="translate(0.001 -4.444)" fill="#d52b1e"/>
  <path id="Path_39400" data-name="Path 39400" d="M11.461,16.419c.106.162,1,1.436,1,1.436h1.278l-.523-.717-1.751-.717Zm1.915-1.275c.106.159,1,1.436,1,1.436H15.65l-.523-.717-1.751-.717Zm1.78-1.6c.05.185.482,1.68.482,1.68l1.207.411-.261-.846-1.428-1.242Z" transform="translate(22.206 13.177)" fill="#fff"/>
  <path id="Path_39401" data-name="Path 39401" d="M12.606,21.545a.208.208,0,0,1-.285-.094.211.211,0,0,1,.091-.285l6.441-3.29a.212.212,0,1,1,.194.376ZM13.9,22.737a.215.215,0,0,1-.294-.062.212.212,0,0,1,.059-.294l6.03-3.986a.209.209,0,0,1,.294.059.212.212,0,0,1-.059.294L13.9,22.743Z" transform="translate(23.828 21.53)" fill="#a05a2d"/>
  <path id="Path_39402" data-name="Path 39402" d="M13.53,23.7a.212.212,0,1,1-.317-.282L18,17.995a.213.213,0,0,1,.3-.018.207.207,0,0,1,.018.3Z" transform="translate(25.497 21.67)" fill="#a05a2d"/>
  <path id="Path_39403" data-name="Path 39403" d="M18,19.114,16.509,22.2l-.267-.27-.579.8-1.574-.858,1.956-3.821Z" transform="translate(27.297 21.916)" fill="#a05a2d"/>
  <path id="Path_39404" data-name="Path 39404" d="M22.575,31.084l1.063-5.046-.109-4.415-7.652-7.311-.532,1.677-1.063-.852-.317,1.754s-1.331-.955-1.383-.8-.373,4.042-.482,6.221-.194,5.419,2.179,5.848a8.876,8.876,0,0,0,7.229-2.338,11.091,11.091,0,0,1,1.063,1.116,26.585,26.585,0,0,1-.532,2.764,1.675,1.675,0,0,0,.538,1.375Z" transform="translate(23.361 14.673)" fill="#d52b1e"/>
  <path id="Path_39405" data-name="Path 39405" d="M14.916,14.795l-.423,1.213-.693-.373s-1.762,8.879,1.113,9.573,3.2-.482,3.2-.482l-1.383-1.859-1.037.479a10.324,10.324,0,0,1-.505-3.237,23.455,23.455,0,0,1,.267-3.3l.529.37.109-1.222L14.916,14.8Z" transform="translate(25.701 15.609)" fill="#ffe000"/>
  <path id="Path_39406" data-name="Path 39406" d="M16.753,16.681,15,15.189l-.109,1.222-.687-.479a11.173,11.173,0,0,0-.376,2.926,29,29,0,0,0,.217,3.246s1.222.423,1.859,0,.852-5.422.852-5.422Z" transform="translate(26.79 16.372)" fill="#007934"/>
  <path id="Path_39407" data-name="Path 39407" d="M16.991,17.4c-1.381.593-4.206,1.657-3.463,2.981s2.926.8,4.309-.7S16.991,17.4,16.991,17.4Z" transform="translate(25.973 20.651)" fill="#e8a30f"/>
  <path id="Path_39408" data-name="Path 39408" d="M24.089,16.419c-.106.162-1,1.436-1,1.436H21.816l.52-.717,1.751-.717Zm-1.915-1.275c-.106.159-.993,1.436-.993,1.436H19.9l.52-.717,1.751-.717ZM20.4,13.54l-.482,1.68-1.21.411.264-.846L20.4,13.543Z" transform="translate(36.24 13.177)" fill="#fff"/>
  <path id="Path_39409" data-name="Path 39409" d="M24.485,21.545a.213.213,0,0,0,.194-.379l-6.439-3.29a.215.215,0,0,0-.288.088.212.212,0,0,0,.094.288ZM23.2,22.737a.213.213,0,0,0,.235-.355L17.4,18.4a.21.21,0,0,0-.294.059.212.212,0,0,0,.059.294L23.2,22.743Z" transform="translate(33.08 21.53)" fill="#a05a2d"/>
  <path id="Path_39410" data-name="Path 39410" d="M21.9,23.7a.213.213,0,0,0,.3.021.22.22,0,0,0,.021-.3l-4.782-5.425a.211.211,0,0,0-.317.279Z" transform="translate(33.071 21.67)" fill="#a05a2d"/>
  <path id="Path_39411" data-name="Path 39411" d="M16.58,19.114,18.069,22.2l.267-.27.579.8,1.574-.858-1.956-3.821Z" transform="translate(32.123 21.916)" fill="#a05a2d"/>
  <path id="Path_39412" data-name="Path 39412" d="M17.063,31.084,16,26.038l.109-4.415,7.652-7.311.535,1.677,1.063-.852.317,1.754s1.328-.955,1.378-.8.376,4.042.482,6.221.2,5.419-2.177,5.848a8.885,8.885,0,0,1-7.232-2.338,11.09,11.09,0,0,0-1.063,1.116,26.586,26.586,0,0,0,.532,2.764,1.667,1.667,0,0,1-.535,1.375Z" transform="translate(30.999 14.673)" fill="#d52b1e"/>
  <path id="Path_39413" data-name="Path 39413" d="M20.281,14.795l.42,1.213.693-.373s1.765,8.879-1.113,9.573-3.2-.482-3.2-.482l1.381-1.859,1.04.479a10.378,10.378,0,0,0,.5-3.237,23.455,23.455,0,0,0-.267-3.3l-.529.37L19.1,15.955l1.178-1.16Z" transform="translate(33.101 15.609)" fill="#ffe000"/>
  <path id="Path_39414" data-name="Path 39414" d="M17.179,16.681l1.754-1.492.109,1.222.687-.479a11.174,11.174,0,0,1,.376,2.926,29,29,0,0,1-.217,3.246s-1.225.423-1.862,0-.849-5.422-.849-5.422Z" transform="translate(33.278 16.372)" fill="#007934"/>
  <path id="Path_39415" data-name="Path 39415" d="M18.23,17.4c1.381.593,4.2,1.657,3.46,2.981s-2.926.8-4.306-.7S18.23,17.4,18.23,17.4Z" transform="translate(32.805 20.651)" fill="#e8a30f"/>
  <path id="Path_39416" data-name="Path 39416" d="M15.851,14.38a1.124,1.124,0,1,1-1.7,1.445,1.124,1.124,0,1,1,1.7-1.445Z" transform="translate(26.789 13.885)" fill="#d52b1e"/>
  <path id="Path_39417" data-name="Path 39417" d="M17.767,14.38a1.126,1.126,0,1,0,1.71,1.445,1.126,1.126,0,1,0-1.71-1.445Z" transform="translate(33.803 13.885)" fill="#e7e7e7"/>
  <path id="Path_39418" data-name="Path 39418" d="M22.378,12c-.373.267.693,1.965.482,3.827s-3.351,3.348-3.351,3.348-3.137-1.489-3.348-3.348.852-3.56.479-3.827-2.338,1.436-2.444,3.243A6.716,6.716,0,0,0,17.12,20.3a15.423,15.423,0,0,0,2.394.8,15.919,15.919,0,0,0,2.394-.8,6.7,6.7,0,0,0,2.926-5.052c-.109-1.806-2.08-3.51-2.45-3.243Z" transform="translate(27.494 10.149)" fill="#007934"/>
  <path id="Path_39419" data-name="Path 39419" d="M20.946,17.534s.317-1.116,2.394-1.754a30.2,30.2,0,0,1,4.785-1.169c.746-.053-2.949-1.489-3.827-1.595s-1.965.106-2.127.746-.426.426-1.222.532-1.328-.64-1.7-1.169-1.783-.267-2.473-.211a17.075,17.075,0,0,0-3.325,1.7,40.262,40.262,0,0,1,5.531,1.222c.955.482.053,2.179-.211,2.661s1.58-.15,2.177-.96Z" transform="translate(26.054 11.744)" fill="#fff"/>
  <path id="Path_39420" data-name="Path 39420" d="M20.946,17.241s.317-1.116,2.394-1.754a30.2,30.2,0,0,1,4.785-1.169c.746-.053-2.711-1.116-3.589-1.225s-1.566-.106-1.727.532-1.063.267-1.862.373a2.274,2.274,0,0,1-2.074-.693c-.37-.535-1.01-.317-1.7-.267a29.186,29.186,0,0,0-3.722,1.278,40.262,40.262,0,0,1,5.531,1.222c.955.482.053,2.179-.211,2.661s1.577-.147,2.174-.958Z" transform="translate(26.054 12.038)"/>
  <path id="Path_39421" data-name="Path 39421" d="M14.063,20.684a5.971,5.971,0,0,1,5.69-6.218,5.973,5.973,0,0,1,5.69,6.218,5.972,5.972,0,0,1-5.69,6.221A5.972,5.972,0,0,1,14.063,20.684Z" transform="translate(27.247 14.971)" fill="#00a6de"/>
  <path id="Path_39422" data-name="Path 39422" d="M14.579,19.809c0-2.7,1.868-4.891,4.174-4.891s4.174,2.191,4.174,4.891S21.059,24.7,18.753,24.7,14.579,22.514,14.579,19.809Z" transform="translate(28.247 15.847)" fill="#e8a30f"/>
  <path id="Path_39423" data-name="Path 39423" d="M15.385,17.051a1.806,1.806,0,1,1,1.806,1.809A1.807,1.807,0,0,1,15.385,17.051Z" transform="translate(29.808 16.48)" fill="#d52b1e"/>
  <path id="Path_39424" data-name="Path 39424" d="M18.743,22.877c2.218,0,4.03-2.024,4.168-4.582-1.36-.505-3.607-2.435-4.168-2.435-.585,0-1.328.64-2.285,1.489a6.54,6.54,0,0,1-1.874,1.031c.17,2.517,1.965,4.5,4.159,4.5Z" transform="translate(28.256 17.672)" fill="#007934"/>
  <path id="Path_39425" data-name="Path 39425" d="M17.795,13.768c0,.267-.549.482-1.222.482s-1.225-.214-1.225-.482.549-.479,1.225-.479S17.795,13.506,17.795,13.768Z" transform="translate(29.736 12.691)" fill="#e8a30f"/>
  <path id="Path_39426" data-name="Path 39426" d="M15.276,18.1h1.278l.37-1.063.482.582-.532,1.542H15.7Z" transform="translate(29.597 19.95)" fill="#fff"/>
  <path id="Path_39427" data-name="Path 39427" d="M17.114,19c0,.5-.247.9-.555.9S16,19.5,16,19s.25-.9.558-.9S17.114,18.5,17.114,19Zm.8.9a.106.106,0,0,1-.211,0V17.143a.105.105,0,0,1,.106-.106.107.107,0,0,1,.106.106Z" transform="translate(31.001 19.952)" fill="#b37d0a"/>
  <path id="Path_39428" data-name="Path 39428" d="M18.147,17.543a.932.932,0,1,1-.928-.852A.892.892,0,0,1,18.147,17.543Z" transform="translate(31.563 19.282)" fill="#32b266"/>
</svg>
