<svg id="BRA" xmlns="http://www.w3.org/2000/svg" width="93.996" height="67.886" viewBox="0 0 93.996 67.886">
  <path id="Path_39434" data-name="Path 39434" d="M93.995,61.885A10.445,10.445,0,0,1,83.55,72.33H10.444A10.445,10.445,0,0,1,0,61.885v-47A10.445,10.445,0,0,1,10.444,4.444H83.55A10.445,10.445,0,0,1,93.995,14.889Z" transform="translate(0.001 -4.444)" fill="#009b3a"/>
  <path id="Path_39435" data-name="Path 39435" d="M79.818,35.158,41.363,64.2,2.908,35.158,41.363,6.111Z" transform="translate(5.637 -1.215)" fill="#fedf01"/>
  <path id="Path_39436" data-name="Path 39436" d="M43.959,27.052A16.86,16.86,0,1,1,27.1,10.192,16.86,16.86,0,0,1,43.959,27.052Z" transform="translate(19.839 6.691)" fill="#002776"/>
  <path id="Path_39437" data-name="Path 39437" d="M12.07,13.233a16.7,16.7,0,0,0-1.754,5.281c10.43-.758,24.588,4.938,30.662,12a16.959,16.959,0,0,0,2.306-5.231c-7.5-7.331-20.67-12.09-31.214-12.046Z" transform="translate(19.988 12.582)" fill="#cbe9d4"/>
  <path id="Path_39438" data-name="Path 39438" d="M10.667,16.207h2.611v2.611H10.667Zm2.611,5.222h2.611v2.611H13.278Z" transform="translate(20.668 18.344)" fill="#88c9f9"/>
  <path id="Path_39439" data-name="Path 39439" d="M13.333,19.651h2.611v2.611H13.333Zm5.222,2.611h2.611v2.611H18.555ZM29,27.485h2.611V30.1H29ZM21.167,30.1h2.611v2.611H21.167ZM29,14.429h2.611V17.04H29Z" transform="translate(25.833 14.9)" fill="#55acee"/>
  <path id="Path_39440" data-name="Path 39440" d="M16.889,17.985H19.5V20.6H16.889Z" transform="translate(32.722 21.789)" fill="#3b88c3"/>
</svg>
