<svg id="BRB" xmlns="http://www.w3.org/2000/svg" width="93.996" height="67.886" viewBox="0 0 93.996 67.886">
  <path id="Path_39331" data-name="Path 39331" d="M93.995,61.885A10.445,10.445,0,0,1,83.55,72.33H10.444A10.445,10.445,0,0,1,0,61.885v-47A10.445,10.445,0,0,1,10.444,4.444H83.55A10.445,10.445,0,0,1,93.995,14.889Z" transform="translate(0.001 -4.444)" fill="#00267f"/>
  <path id="Path_39332" data-name="Path 39332" d="M10.445,4.444A10.445,10.445,0,0,0,0,14.889v47A10.445,10.445,0,0,0,10.445,72.33H31.332V4.447H10.445Z" transform="translate(0.003 -4.444)" fill="#00267f"/>
  <path id="Path_39333" data-name="Path 39333" d="M10.667,4.444H42V72.327H10.667Z" transform="translate(20.668 -4.444)" fill="#ffc726"/>
  <path id="Path_39334" data-name="Path 39334" d="M36.882,13.8c-3.672,0-6.527,2.691-7.464,3.754,1.1-.247,1.348.611,1.184,1.143A76.018,76.018,0,0,0,28.17,29.532H25.811V15.991l2.846-.59-3.566-.714-.74-3.6-.74,3.6-3.569.714,2.873.6V29.532H20.442A75.842,75.842,0,0,0,18.01,18.7c-.162-.529.082-1.386,1.184-1.143C18.257,16.494,15.4,13.8,11.73,13.8c1.6,2.365,5.863,8.962,6.418,16.719v1.624h4.767v6.3h2.9v-6.3H30.4v-.605c.223-8.2,4.814-15.268,6.486-17.735Z" transform="translate(22.727 8.435)"/>
</svg>
