<svg id="BRN" xmlns="http://www.w3.org/2000/svg" width="93.996" height="67.886" viewBox="0 0 93.996 67.886">
  <path id="Path_39391" data-name="Path 39391" d="M93.995,61.885A10.445,10.445,0,0,1,83.55,72.33H10.444A10.445,10.445,0,0,1,0,61.885v-47A10.445,10.445,0,0,1,10.444,4.444H83.55A10.445,10.445,0,0,1,93.995,14.889Z" transform="translate(0.001 -4.444)" fill="#f7e017"/>
  <path id="Path_39392" data-name="Path 39392" d="M93.993,46.385,0,25.5V12.445L93.993,33.332Z" transform="translate(0.003 11.056)" fill="#141414"/>
  <path id="Path_39393" data-name="Path 39393" d="M93.993,41.941,0,21.054V8L93.993,28.888Z" transform="translate(0.003 2.447)" fill="#eee"/>
  <path id="Path_39394" data-name="Path 39394" d="M40.627,13.276a11.536,11.536,0,1,1-19.424,0,13.243,13.243,0,1,0,19.424,0ZM9.577,14.765c1.4.308,1.712.843,1.642,1.98a2.112,2.112,0,0,1,1.21.849,3.821,3.821,0,0,0,1.809,1.7c.855.285,1.527.849,1.527,2.552v6.318a2.591,2.591,0,0,0,.2,1.489c.355.855.153,2.059-2.473,2.059s-2.644-1.137-2.291-1.986a15.537,15.537,0,0,1,.764-1.563V22.737a5.626,5.626,0,0,0-1.222-1.242,6.942,6.942,0,0,1-2.42-3.977c-.214-1.7-.611-3.158,1.254-2.749Zm42.447,0c-1.4.308-1.712.843-1.642,1.98a2.1,2.1,0,0,0-1.21.849c-.493.711-.7,1.419-1.551,1.7s-1.266.849-1.266,2.552v6.318a7.264,7.264,0,0,1-.458,1.489c-.355.855-.279,2.059,2.344,2.059s2.837-1.137,2.482-1.986-.573-1.563-.573-1.563V22.737a2.789,2.789,0,0,1,.96-1.242A6.843,6.843,0,0,0,53.4,17.517c.217-1.7.482-3.158-1.378-2.749Z" transform="translate(15.76 12.666)" fill="#cf1b26"/>
  <path id="Path_39395" data-name="Path 39395" d="M40.933,44.781s.849-1.7-.073-2.056a6.8,6.8,0,0,0-2.767,0s1.539-1.95.068-2.77-2.473,1.207-3.757,2.127a14.563,14.563,0,0,1-4.142,1.953,20.751,20.751,0,0,1-3.6.743,21.56,21.56,0,0,1-3.845-.743,16.054,16.054,0,0,1-4.385-1.953c-1.284-.922-2.291-2.949-3.757-2.127s.073,2.77.073,2.77a6.807,6.807,0,0,0-2.767,0c-.925.355-.068,2.056-.068,2.056-2.056.285-1.339,1.563-1.339,1.563s.511-.661,2.644-.661,3.011,2.08,4.429,2.08a1.335,1.335,0,0,0,1.41-1.351c2.629,2.2,7.61,2.2,7.61,2.2s4.735,0,7.364-2.2a1.2,1.2,0,0,0,1.287,1.351c1.419,0,2.238-2.08,4.371-2.08s2.611.661,2.611.661.7-1.278-1.366-1.563Zm-5.64-27.6c-1.563-.426-3.231-2.412-5.434-2.412a3.808,3.808,0,0,0-3.2,1.7,4.462,4.462,0,0,0-3.419-1.7c-2.2,0-4.1,1.986-5.66,2.412a6.28,6.28,0,0,1-3.052,0,2.9,2.9,0,0,0,2.179,2.006c.194,1.013,1.721,1.046,1.721,1.046.206,1.207,2.42.376,2.42.376s-.138,1.187,1,1.046,3.061-2.13,3.061-2.13a1.643,1.643,0,0,0-.482,1.084c.07.517.952.479.952.479-.781.781.629,1.7.629,1.7l.652-.5.432.5s1.3-.922.514-1.7c0,0,.825.038.9-.479S28,19.526,28,19.526s1.912,1.989,3.046,2.13.993-1.046.993-1.046,2.212.834,2.42-.376c0,0,1.524-.035,1.715-1.046a2.9,2.9,0,0,0,2.179-2.006,6.307,6.307,0,0,1-3.058,0ZM24.187,10.794c0-.317,1-.57,2.238-.57s2.238.253,2.238.57-1,.567-2.238.567S24.187,11.108,24.187,10.794Z" transform="translate(20.257 6.753)" fill="#cf1b26"/>
  <path id="Path_39396" data-name="Path 39396" d="M20.6,14.8c-.07-.5-.37-.57-.37-.57a10.511,10.511,0,0,1-2.253.3,10.257,10.257,0,0,1-2.238-.3s-.285.07-.355.57-.567,2.024-.567,2.024l.925-1.013.781,1.013.781-1.013.673,1.013.693-1.013.79,1.013.784-1.013.928,1.013s-.5-1.524-.57-2.024ZM18.213,8.739v2.767l1.9.817-.734-1.137,1.492-.714Zm-.808,8.089h1.172V19.81H17.406Zm2.13,21.087a3.06,3.06,0,0,0,.608-1.865c-.159-.8-.9-2.059-1.116-2.867a1.864,1.864,0,0,1,.517-1.554l-.567-.106s.764-.693.567-1.439a20.342,20.342,0,0,1-.673-2.552,3.186,3.186,0,0,1,.673-1.865l-1.01.585-.552-.585-.535.585-.993-.585a3.147,3.147,0,0,1,.673,1.865,21.11,21.11,0,0,1-.673,2.552c-.191.743.57,1.439.57,1.439l-.57.106a1.856,1.856,0,0,1,.514,1.554c-.211.808-.958,2.068-1.116,2.867a3.077,3.077,0,0,0,.6,1.865L14.93,37.6a2.888,2.888,0,0,0,3.052,1.915A2.9,2.9,0,0,0,21.048,37.6l-1.516.317Z" transform="translate(28.704 3.877)" fill="#cf1b26"/>
</svg>
