<svg id="BTN" xmlns="http://www.w3.org/2000/svg" width="93.996" height="67.886" viewBox="0 0 93.996 67.886">
  <path id="Path_39445" data-name="Path 39445" d="M1.06,66.527a10.406,10.406,0,0,0,7.329,3.014H81.494A10.445,10.445,0,0,0,91.939,59.1v-47a10.333,10.333,0,0,0-2.1-6.215L1.06,66.527Z" transform="translate(2.056 -1.654)" fill="#ff4e11"/>
  <path id="Path_39446" data-name="Path 39446" d="M83.55,4.444H10.444A10.445,10.445,0,0,0,0,14.889v47a10.417,10.417,0,0,0,3.114,7.431L91.895,8.674a10.4,10.4,0,0,0-8.348-4.227Z" transform="translate(0.001 -4.444)" fill="#ffd521"/>
  <path id="Path_39447" data-name="Path 39447" d="M78.536,14.629c-.943.062-1.445.755-2.012.755H75.517a9.015,9.015,0,0,1,1.257-1.445c.438-.317,2.074-.441,2.453-.755a1.3,1.3,0,0,0,.438-.755c-.817.567-2.705.25-3.519.438a3.336,3.336,0,0,0-1.513,1.069,27.913,27.913,0,0,0,1.2-2.708c.25-.817.25-2.2,1.257-2.955a1.233,1.233,0,0,0,.379-1.7,3.352,3.352,0,0,1-.943,1.2c-.693.567-1.383.505-1.322,1.574s.126,1.069-.376,1.571A5.363,5.363,0,0,0,73.5,12.676c-.817,1.383-1.2-.062-2.958.567s-2.579-1.134-3.959-.943a19.464,19.464,0,0,1-5.974-.881c-1.325-.441-.629-1.007-3.842-2.514s-5.222-.062-3.962-.129a8.007,8.007,0,0,1,2.388.47,3.778,3.778,0,0,0-1.821.347,9.445,9.445,0,0,1,3.208,1.759c1.445,1.257,0,1.134-1.889,0a8.921,8.921,0,0,0-5.6-1.2c-1.7.188-1.257.755-.314.693a16.427,16.427,0,0,1,4.782,1.2c1.695.629-.129.758-.129.758-3.713-2.2-5.346-.441-4.341-.82s2.138.505,3.9,1.448-2.514.379-2.514.379A15.647,15.647,0,0,0,46.634,12.8c-1.889-.188-3.331,1.633-2.705,2.514s1.821.376,1.821.376c-1.351-.391-.943-1.383-.059-1.633s4.28.629,5.222,1.007,1.322,1.824-1.257.626-1.636.191-1.636.191c-2.517-.191,1.134,1.445-.441,1.007s-3.4.188-4.905.188A2.428,2.428,0,0,0,40.6,18.715a12.718,12.718,0,0,1,1.983-.881c1.1-.376,4.183.379,4.183.379a5.57,5.57,0,0,0-1.2,3.583c-1.319.314-2.576,2.705-2.576,2.705.5-.817,2.265-1.069,2.265-1.069s.314.693-.5,1.7a2.979,2.979,0,0,0-.567,2.265,5.155,5.155,0,0,1,.881-1.51,2.864,2.864,0,0,1,1.759-.441c-.567,1.322,1.574,2.138,1.574,2.138-.629,1.131.57,2.391.376,2.329a15.885,15.885,0,0,0-2.2.626s2.773.062,1.322.441-4.086-1.134-4.086-1.134L40.73,28.463s1.322,1.257-.188,1.069-3.02.567-4.341-.314-3.525-1.386-3.084-.567a13.435,13.435,0,0,0,1.069,1.633c-2.388-.505-1.2,1.633-2.955,1.448s-.317,1.51-2.012,1-3.334,1.383-3.334,1.383c.567-.317,2.388.188,2.388.188-.693.25-.376,1.569-.376,1.569-1.636.435-1.2,2.9-1.2,2.9-1.383,0-1.633.94-2.2,1.569a3.012,3.012,0,0,1-1.889.629c.925.717,2.743.226,3.4.021-.6.388-.5,2.118-.5,2.118-1.134.188-.126,1.889-.376,1.7s-.881.253-1.51.755a3.413,3.413,0,0,1-1.445.629,2.261,2.261,0,0,0,1.445.629s-.758,1.445-1.7,1.762a35.076,35.076,0,0,1-4.277,1,11.545,11.545,0,0,1-3.583-.379c-1.383-.376-2.832,0-3.962-.129a2.1,2.1,0,0,0-1.824,1.007,3.786,3.786,0,0,1,1.759-.126c.817.188,1.069.943,1.95.567s2.705.505,2.705.505a9.552,9.552,0,0,1-1.51.693,22.388,22.388,0,0,1-3.084.881c-1.007.191-2.2,1.636-1.383.943s1.319-.126,2.453-.317,2.2-.25,2.2-.25a1.847,1.847,0,0,0-1.322.693A4.9,4.9,0,0,1,9.025,55a4.254,4.254,0,0,0-3.146,1.51,3.3,3.3,0,0,1-1.824,1.257,1.137,1.137,0,0,0,1.574,0,4.545,4.545,0,0,1,2.517-1.257,21.693,21.693,0,0,0,2.832-.755c-.755.629-1.2,1.383-2.453,1.571s-3.208,1.7-3.962,2.456a7.945,7.945,0,0,1-2.077,1.325c1.257.755,1.889-.188,3.208-.943s2.012-.253,3.586-.693,1.383-1.759,1.886-1.821,1.824,0,2.2-.629.126-1.131,1.069-1.131a1.744,1.744,0,0,0,1.319-.441,4.86,4.86,0,0,1-1.319,1.51c1.134.314,2.012-.755,3.146-1.448a4.041,4.041,0,0,1,1.889-.693s-.693,1.2-1.445,1.322-1.636,1.448-1.636,1.448c.505-1.069,2.893-.881,3.774-1.636A30.189,30.189,0,0,1,23,53.5a26.735,26.735,0,0,0,2.832-2.576c1.322-1.2,3.648-.943,3.648-1.134s-.062,1.759-.062,1.759l-2.2.191,1.383,1c-.881-.379-2.138,1.383-2.138,1.383l2.177-.253.464,1.26C29.795,53.683,30.3,54,30.3,54a5.862,5.862,0,0,1,.817,2.893s-1-.253-2.138,1.069.943,3.839.943,3.839a1.9,1.9,0,0,0,0,1.636c.376,1.069,2.326,2.2,4.277,1.571s1.762-3.269,1.762-3.269a2.657,2.657,0,0,0,.564-2.08,4.1,4.1,0,0,0-.755-2.135,1.921,1.921,0,0,1,1.95.376,5.8,5.8,0,0,1,.943,2.7s.755-3.522-.376-4.4-3.9-.817-3.9-.817c-.062-1.448-1.322-2.268-1.636-3.207a9.382,9.382,0,0,1,.188-3.272l1.571.129s-.126.567,1,1.383a3.882,3.882,0,0,0,2.955.25,3.345,3.345,0,0,0,3.084-1.633c1-1.821-.881-3.272-.881-3.272-.314-2.893-4.594-1.257-4.594-1.257a2.447,2.447,0,0,1,2.329-1.95s-2.2-1.137-3.46-.693-.819,3.586-1.824,3.463-1.134-3.21-.317-5.6,4.97-2.514,8.932-.94A36.89,36.89,0,0,0,51.3,40.665,6.412,6.412,0,0,1,50.1,42.557l-1.762-.693,1.069,1.325a4.3,4.3,0,0,1-1.383,1.633c1.069.755,2.265-.755,2.265-.755l.441,1.824,1.069-1.51a21.892,21.892,0,0,0,4.024,2.262,40.124,40.124,0,0,0,5.349,1.325s-1.2.567.059,2.576,4.15,2.576,4.15,2.576a4.061,4.061,0,0,0,4.212-.755c2.015-1.762.379-4.97.379-4.97,0-3.707-3.959-2.547-3.959-2.547a7.644,7.644,0,0,1,2.738-2.676c-3.114-1.821-4.432,1.765-6.762,2.52s-6.418-1.448-6.6-1.448.123-.379.185-1.2,1.95-2.388,2.893-4.338a12.3,12.3,0,0,0,.693-5.158,2.583,2.583,0,0,1,2.958-.317,2.458,2.458,0,0,1-.881,1.889,1.53,1.53,0,0,0,1.383-.82c-.441,1.383,1.007,3.02,1.007,3.02l.438-2.141L65.386,35.7l-.814-2.767A10.838,10.838,0,0,0,69.73,31.1,4.751,4.751,0,0,0,73.5,32.928c2.514,0,5.032-2.705,5.032-3.9s-2.265-2.893-2.265-2.893.881-2.012-2.453-2.012-4.338,4.059-4.338,4.059a5.4,5.4,0,0,0-3.275-.1c-1.886.505-4.967-1.069-6.853-2.009a24.54,24.54,0,0,1-4.529-3.525,8.924,8.924,0,0,1,.491-2.268s2.714.191,1.9.505-2.955.946-1.257,1.069,3.331-.567,2.829,0-2.388,1.889-1.633,1.889,1.762-.946,2.268-1.069,1.381.188,2.644.188a1.732,1.732,0,0,0,1.022-.467,20.011,20.011,0,0,1,4.133,3.36c1.134,1.131,1.821-.379,2.329-1.069.291-.4-.505-1.148-1.366-1.824.144-.176.291-.352.42-.505a1.136,1.136,0,0,1,.282-.194l1.445.523c.009,1.093-.026,2.567-.026,2.567.693-.493.726-1.486.74-2.32a10.1,10.1,0,0,0,2.409.623c1.821.062,3.017-.567,4.714-.755a1.532,1.532,0,0,1,1.821,1.386s.693-.505-.314-1.513a3.343,3.343,0,0,0-2.329-.943c0-1.448-1.748-1.383-1.748-1.383,1.463.817-.012,1.7-.012,1.7.188-.817-1.636-1.316-1.636-1.316s1.2.561.444,1.251a2.2,2.2,0,0,1-1.924.305A8.527,8.527,0,0,1,73,20.6a1.961,1.961,0,0,0-.314-1.886L73.5,17.2a21.176,21.176,0,0,0,3.457-.817,6.02,6.02,0,0,1,3.4-.629c1.886.065,2.332-1,2.332-1-.825.511-3.216-.176-4.159-.115ZM66.017,18.718c.629-.438,1.007-.062,1.007-.062l.5,1.134.634-1.383.881.693-.5.881,1.889-.25-.188.629s-.67.6-1.328,1.134a23.485,23.485,0,0,1-3.9-1.563,4.156,4.156,0,0,1,1.01-1.21Zm2.138,3.331a1.236,1.236,0,0,0-.42.482c-.479-.358-.928-.673-1.148-.858a4.319,4.319,0,0,0-.8-.485c.8.2,1.642.473,2.494.772l-.123.088Zm1.8-.258c.191-.035.338-.056.338-.056l.009.138c-.112-.026-.22-.05-.344-.082Zm1.16.258a2.157,2.157,0,0,1,.752-1.131,4.276,4.276,0,0,0,.153,1.3l-.9-.176Z" transform="translate(4.821 -0.321)" fill="#fff"/>
</svg>
