<svg id="CAF" xmlns="http://www.w3.org/2000/svg" width="93.999" height="67.886" viewBox="0 0 93.999 67.886">
  <path id="Path_39522" data-name="Path 39522" d="M83.55,4.444H10.444A10.445,10.445,0,0,0,0,14.889v6.527H93.992V14.889A10.445,10.445,0,0,0,83.547,4.444Z" transform="translate(0.001 -4.444)" fill="#003082"/>
  <path id="Path_39523" data-name="Path 39523" d="M0,10.222H93.993V27.194H0Z" transform="translate(0.003 6.75)" fill="#eee"/>
  <path id="Path_39524" data-name="Path 39524" d="M0,16H93.993V32.972H0Z" transform="translate(0.003 17.943)" fill="#289728"/>
  <path id="Path_39525" data-name="Path 39525" d="M0,21.778V28.3A10.445,10.445,0,0,0,10.445,38.75H83.551A10.445,10.445,0,0,0,94,28.3V21.778H0Z" transform="translate(0.003 29.137)" fill="#ffce00"/>
  <path id="Path_39526" data-name="Path 39526" d="M13.333,4.444H29V72.327H13.333Z" transform="translate(25.833 -4.444)" fill="#d21034"/>
  <path id="Path_39527" data-name="Path 39527" d="M12.245,10.371,10.471,4.9,8.694,10.371H2.949L7.6,13.749,5.825,19.215l4.65-3.378,4.65,3.378-1.777-5.466L18,10.371Z" transform="translate(5.716 -3.551)" fill="#ffce00"/>
</svg>
