<svg id="CAN" xmlns="http://www.w3.org/2000/svg" width="93.993" height="67.889" viewBox="0 0 93.993 67.889">
  <path id="Path_39512" data-name="Path 39512" d="M10.445,4.446A10.445,10.445,0,0,0,0,14.891v47A10.445,10.445,0,0,0,10.445,72.332H26.109V4.449H10.445Zm73.1,0H67.883V72.329H83.548A10.445,10.445,0,0,0,93.993,61.884v-47A10.445,10.445,0,0,0,83.548,4.443Z" transform="translate(0 -4.443)" fill="#d52b1e"/>
  <path id="Path_39513" data-name="Path 39513" d="M8.889,4.444H50.663V72.327H8.889Z" transform="translate(17.22 -4.441)" fill="#eee"/>
  <path id="Path_39514" data-name="Path 39514" d="M29.773,39.98c3.128.364,5.933.69,9.059,1.046l-.8-2.617a1.2,1.2,0,0,1,.414-1.242l9.082-7.4-1.88-.884c-.828-.294-.6-.764-.3-1.886l1.386-5.055-5.275,1.116a.8.8,0,0,1-.934-.561l-.681-2.379L35.677,24.8c-.593.752-1.795.752-1.422-.981l1.783-9.487-2.394,1.24c-.67.376-1.342.438-1.715-.232l-3.3-6.177-3.3,6.177c-.376.67-1.046.608-1.718.232l-2.391-1.24L23,23.822c.376,1.733-.828,1.733-1.422.981l-4.171-4.682L16.728,22.5a.807.807,0,0,1-.937.561l-5.275-1.116L11.9,27c.294,1.122.526,1.589-.3,1.886l-1.88.884,9.082,7.4a1.186,1.186,0,0,1,.411,1.242l-.8,2.617,9.059-1.046a.422.422,0,0,1,.458.473l-.558,9.67h2.5l-.555-9.67a.429.429,0,0,1,.461-.476Z" transform="translate(18.83 4.705)" fill="#d52b1e"/>
</svg>
