<svg id="CCK" xmlns="http://www.w3.org/2000/svg" width="93.996" height="67.886" viewBox="0 0 93.996 67.886">
  <path id="Path_39515" data-name="Path 39515" d="M93.995,61.885A10.445,10.445,0,0,1,83.55,72.33H10.444A10.445,10.445,0,0,1,0,61.885v-47A10.445,10.445,0,0,1,10.444,4.444H83.55A10.445,10.445,0,0,1,93.995,14.889Z" transform="translate(0.001 -4.444)" fill="green"/>
  <path id="Path_39516" data-name="Path 39516" d="M76.607,39.425l.444,1.522h1.533l-1.21.934.446,1.48-1.21-.931-1.21.887.444-1.436-1.21-.934h1.5Zm-4-16.98-1.774,1.636.176-2.406-2.385-.364,1.989-1.366-1.2-2.091,2.309.7.884-2.244.884,2.244,2.309-.7-1.2,2.091,1.986,1.363-2.385.364.176,2.406ZM63.152,36.318l-1.774,1.636.176-2.409-2.385-.364,1.989-1.363-1.2-2.094,2.309.708.884-2.244.884,2.244,2.309-.708-1.2,2.094,1.986,1.363-2.385.364.176,2.409Zm18.564-1.146-1.771,1.636L80.12,34.4l-2.385-.364,1.991-1.363-1.2-2.094,2.306.708.884-2.244.884,2.244,2.309-.708-1.2,2.094L85.7,34.035,83.31,34.4l.176,2.409ZM72.454,55.381l-1.771,1.636.176-2.406-2.385-.364,1.991-1.366-1.2-2.091,2.309.7.881-2.244.884,2.244,2.309-.7-1.2,2.091,1.989,1.363-2.385.364.176,2.406Zm-22.385-10a10.288,10.288,0,1,1,5.816-18.76,12.909,12.909,0,1,0,.009,16.951,10.248,10.248,0,0,1-5.825,1.815ZM28.16,19.425A13.279,13.279,0,1,1,14.88,6.146,13.276,13.276,0,0,1,28.16,19.425Z" transform="translate(3.105 -1.147)" fill="#ffe000"/>
  <path id="Path_39517" data-name="Path 39517" d="M8.3,23.411H5.342a10.645,10.645,0,0,0,1.48-1.751,19.74,19.74,0,0,0,2.312-9.288c-.229-4.036.464-3.36.7-.952A37.115,37.115,0,0,1,9.416,20.2C9,21.631,8.538,22.544,9.14,22.729a1.243,1.243,0,0,1,.784.679H8.306Z" transform="translate(10.352 5.31)" fill="#802000"/>
  <path id="Path_39518" data-name="Path 39518" d="M8.234,9.606h1.8l3.7,3.519-1.251-2.268,1.14-.708.341-2.808,3.1-.279-.414,1.574,1.618.834-1.8,2.635,3.933-.367-.74,2.315h2.127l.881,2.914-5.181-.414,2.591,1.942v2.961l-5.46-5.134-.461,2.174-.323,2.174-1.2.358-.285-1.654L11.1,21.452H9.439l1.618-5.869-8.33,1.566,2.221-2.682,4.394-.881L5.456,11.553l5.737,1.019L5.271,9.609Z" transform="translate(5.286 0.628)" fill="green"/>
</svg>
