<svg id="CHL" xmlns="http://www.w3.org/2000/svg" width="93.996" height="67.886" viewBox="0 0 93.996 67.886">
  <path id="Path_39542" data-name="Path 39542" d="M33.943,4.444h-23.5A10.445,10.445,0,0,0,0,14.889v23.5H33.943V4.444ZM21.768,28.706l-4.914-3.569L11.94,28.706l1.877-5.775L8.9,19.359h6.074l1.877-5.775,1.877,5.775h6.074l-4.914,3.572Z" transform="translate(0 -4.444)" fill="#1f429b"/>
  <path id="Path_39543" data-name="Path 39543" d="M61.163,4.444H11.555V38.387H71.6v-23.5A10.445,10.445,0,0,0,61.16,4.444Z" transform="translate(22.385 -4.444)" fill="#eee"/>
  <path id="Path_39544" data-name="Path 39544" d="M0,16V39.5A10.445,10.445,0,0,0,10.445,49.943H83.551A10.445,10.445,0,0,0,94,39.5V16H0Z" transform="translate(0 17.943)" fill="#d42d27"/>
  <path id="Path_39545" data-name="Path 39545" d="M12.859,13.331,10.982,7.556,9.105,13.331H3.031L7.945,16.9,6.068,22.677l4.914-3.569L15.9,22.677,14.019,16.9l4.914-3.572Z" transform="translate(5.872 1.585)" fill="#fff"/>
</svg>
