<svg id="CHN" xmlns="http://www.w3.org/2000/svg" width="93.996" height="67.886" viewBox="0 0 93.996 67.886">
  <path id="Path_39549" data-name="Path 39549" d="M93.995,61.885A10.445,10.445,0,0,1,83.55,72.33H10.444A10.445,10.445,0,0,1,0,61.885v-47A10.445,10.445,0,0,1,10.444,4.444H83.55A10.445,10.445,0,0,1,93.995,14.889Z" transform="translate(0.001 -4.444)" fill="#de2910"/>
  <path id="Path_39550" data-name="Path 39550" d="M23.489,8.342l1.921.928,1.539-1.477-.291,2.115,1.88,1.007-2.1.376-.376,2.1-1.007-1.88L22.94,11.8l1.477-1.539ZM35.667,16.02l-.928,1.918,1.477,1.539L34.1,19.184,33.1,21.067l-.376-2.1-2.1-.376L32.5,17.58l-.294-2.112,1.539,1.477Zm-2.5,9.866.7,2.015L36,27.946l-1.7,1.287.62,2.044L33.17,30.058,31.42,31.277l.617-2.044-1.7-1.287,2.132-.044Zm-9.681,8.562,1.921.928L26.949,33.9l-.291,2.115,1.88,1.007-2.1.376-.376,2.1-1.007-1.88-2.115.291,1.477-1.539Zm-10.8-20.955,2.426,6.973,7.378.153L16.61,25.079l2.138,7.064-6.06-4.218-6.06,4.218,2.138-7.064L2.884,20.62l7.378-.153Z" transform="translate(5.59 2.044)" fill="#ffde02"/>
</svg>
