<svg id="CMR" xmlns="http://www.w3.org/2000/svg" width="93.993" height="67.889" viewBox="0 0 93.993 67.889">
  <path id="Path_39546" data-name="Path 39546" d="M10.667,4.444V72.327H42V4.444H10.667Zm20.579,40.7L26.332,41.58l-4.914,3.569,1.877-5.775L18.38,35.805h6.074l1.877-5.778L28.208,35.8h6.074l-4.914,3.569,1.877,5.778Z" transform="translate(20.665 -4.441)" fill="#cc212d"/>
  <path id="Path_39547" data-name="Path 39547" d="M10.445,4.444A10.445,10.445,0,0,0,0,14.889v47A10.445,10.445,0,0,0,10.445,72.33H31.332V4.447H10.445Z" transform="translate(0 -4.441)" fill="#288541"/>
  <path id="Path_39548" data-name="Path 39548" d="M57.8,4.446H36.909V72.329H57.8A10.445,10.445,0,0,0,68.241,61.884v-47A10.445,10.445,0,0,0,57.8,4.443ZM23.121,35.807,21.244,30.03l-1.877,5.778H13.293l4.914,3.569L16.33,45.151l4.914-3.569,4.914,3.569-1.877-5.775L29.2,35.807Z" transform="translate(25.752 -4.443)" fill="#fee833"/>
</svg>
