<svg id="COD" xmlns="http://www.w3.org/2000/svg" width="93.999" height="67.886" viewBox="0 0 93.999 67.886">
  <path id="Path_39519" data-name="Path 39519" d="M10.447,72.33H83.553A10.445,10.445,0,0,0,94,61.885V20.763L8.4,72.122a10.713,10.713,0,0,0,2.05.206ZM83.55,4.444H10.444A10.445,10.445,0,0,0,0,14.889V56.011L85.6,4.653a10.713,10.713,0,0,0-2.05-.206Zm-58.4,28.774-7.989-6.11-7.989,6.11,3.055-9.869-7.989-6.11H14.1L17.156,7.37l3.055,9.869H30.08l-7.989,6.11,3.055,9.869Z" transform="translate(0.001 -4.444)" fill="#007fff"/>
  <path id="Path_39520" data-name="Path 39520" d="M20.208,17.1,17.154,7.232,14.1,17.1H4.23l7.989,6.11L9.164,33.08l7.989-6.11,7.989,6.11-3.055-9.869,7.989-6.11ZM8.395,71.984l85.6-51.358V17.1L4.891,70.563a10.34,10.34,0,0,0,3.5,1.422ZM85.6,4.515,0,55.873V59.4L89.1,5.937a10.34,10.34,0,0,0-3.5-1.422Z" transform="translate(0.003 -4.306)" fill="#f7d618"/>
  <path id="Path_39521" data-name="Path 39521" d="M89.1,5,0,58.46v2.35a10.41,10.41,0,0,0,4.891,8.815l89.1-53.461v-2.35A10.41,10.41,0,0,0,89.1,5Z" transform="translate(0.003 -3.369)" fill="#ce1021"/>
</svg>
