<svg id="COG" xmlns="http://www.w3.org/2000/svg" width="93.996" height="67.886" viewBox="0 0 93.996 67.886">
  <path id="Path_39528" data-name="Path 39528" d="M10.445,4.444A10.445,10.445,0,0,0,0,14.889v47A10.412,10.412,0,0,0,3.061,69.27L67.883,4.447H10.442Z" transform="translate(0 -4.444)" fill="#009543"/>
  <path id="Path_39529" data-name="Path 39529" d="M81.529,4.444H65.865L1.042,69.267a10.407,10.407,0,0,0,7.384,3.061H24.091L88.914,7.5a10.407,10.407,0,0,0-7.384-3.061Z" transform="translate(2.019 -4.444)" fill="#fbde4a"/>
  <path id="Path_39530" data-name="Path 39530" d="M8.889,70.312H66.33A10.445,10.445,0,0,0,76.775,59.867v-47a10.412,10.412,0,0,0-3.061-7.384L8.892,70.309Z" transform="translate(17.22 -2.425)" fill="#dc241f"/>
</svg>
