<svg id="COK" xmlns="http://www.w3.org/2000/svg" width="93.996" height="67.886" viewBox="0 0 93.996 67.886">
  <path id="Path_39536" data-name="Path 39536" d="M83.55,4.446H10.444a10.359,10.359,0,0,0-1.577.117L8.855,9.143,1.726,9.131A10.4,10.4,0,0,0,0,14.888v47A10.445,10.445,0,0,0,10.444,72.329H83.55A10.445,10.445,0,0,0,93.995,61.884v-47A10.445,10.445,0,0,0,83.55,4.443Z" transform="translate(0.001 -4.443)" fill="#00247d"/>
  <path id="Path_39537" data-name="Path 39537" d="M39.226,13.134l2.121-1.539h-2.62L37.916,9.1l-.811,2.494h-2.62l2.121,1.539L35.8,15.625l2.121-1.539,2.121,1.539Zm6.688,1.933,2.564-.543-2.394-1.069.273-2.605L44.6,12.8l-2.391-1.069L43.52,14l-1.754,1.944,2.564-.543,1.31,2.268Zm5.352,4.6,2.567.538-1.759-1.942,1.3-2.271-2.391,1.069-1.756-1.944.279,2.605L47.119,18.8l2.564.538.279,2.605Zm2.987,6.265,2.13,1.527-.825-2.488,2.112-1.551-2.62.015-.825-2.488-.8,2.5-2.62.012,2.127,1.53-.8,2.5Zm.211,7.023,1.313,2.268.27-2.605,2.564-.552-2.4-1.06.27-2.608-1.751,1.95-2.4-1.06,1.316,2.268L51.9,33.507Zm-2.708,6.386.273,2.605,1.31-2.268,2.564.546L54.15,38.28l1.313-2.268L53.07,37.079l-1.754-1.95.273,2.608L49.2,38.8ZM46.7,44.251l-.8,2.5L48.009,45.2l2.127,1.533-.82-2.491,2.112-1.548-2.62.012-.82-2.488-.8,2.5-2.62.012Zm-6.579,2.3L38.368,48.5l2.561-.552,1.319,2.265.264-2.605,2.561-.555L42.675,46l.267-2.605-1.748,1.953-2.4-1.057Zm-10.2-31.482-2.564-.543,2.394-1.069-.273-2.605L31.225,12.8l2.394-1.069L32.309,14l1.754,1.944L31.5,15.4l-1.307,2.268Zm-5.355,4.6L22,20.207l1.756-1.942-1.3-2.271,2.391,1.069L26.6,15.119l-.279,2.605L28.711,18.8l-2.564.538-.279,2.605Zm-2.987,6.265-2.127,1.527.822-2.488L18.16,23.423l2.62.015L21.6,20.95l.8,2.5,2.62.012-2.127,1.53.8,2.5Zm-.209,7.023-1.313,2.268-.27-2.605-2.561-.552,2.4-1.06L19.35,28.4l1.751,1.95,2.394-1.06-1.313,2.268,1.751,1.95Zm2.708,6.386-.27,2.605L22.5,39.681l-2.564.546,1.751-1.947-1.31-2.268,2.394,1.066,1.751-1.95-.27,2.608L26.64,38.8Zm5.061,4.908.8,2.5L27.821,45.2l-2.127,1.533.819-2.491L24.4,42.695l2.62.012.819-2.488.8,2.5,2.62.012Zm6.58,2.3L37.464,48.5,34.9,47.949l-1.319,2.265-.264-2.605-2.561-.555L33.155,46l-.264-2.605,1.748,1.953,2.4-1.057Z" transform="translate(33.369 4.581)" fill="#fff"/>
  <path id="Path_39538" data-name="Path 39538" d="M49.61,38.387V4.444H10.447a11.38,11.38,0,0,0-1.577.117L8.858,9.141,1.729,9.129s-.109.153-.332.535A10.428,10.428,0,0,0,0,14.886v23.5H49.607Z" transform="translate(0.001 -4.441)" fill="#00247d"/>
  <path id="Path_39539" data-name="Path 39539" d="M49.6,4.446H43.518l-12.19,8.536V4.446H18.275v6.709L8.864,4.563A10.305,10.305,0,0,0,4.5,6.3l12.278,8.589H12.245L2.525,8.076a10.661,10.661,0,0,0-.8,1.054l8.227,5.757H0V27.941H10.144L0,35.164v3.222H8.7l9.576-6.706v6.706H31.331V29.85l12.187,8.536h6.089v-5.3l-7.349-5.146h7.349V14.888H42.261l7.346-5.146v-5.3Z" transform="translate(0.007 -4.443)" fill="#eee"/>
  <path id="Path_39540" data-name="Path 39540" d="M28.721,4.444H20.887V17.5H0v7.834H20.887V38.384h7.834V25.331H49.608V17.5H28.721Z" transform="translate(0.003 -4.441)" fill="#cf1b2b"/>
  <path id="Path_39541" data-name="Path 39541" d="M48.343,4.444H44.527L30.064,14.572v.317h4.1L48.34,4.961ZM3.235,6.3A10.536,10.536,0,0,0,1.258,8.077l9.719,6.812h4.529L3.232,6.3ZM15.542,27.942.653,38.387H5.162l11.852-8.3V27.942Zm32.8,9.928V34.686l-9.625-6.741h-4.55Z" transform="translate(1.268 -4.441)" fill="#cf1b2b"/>
</svg>
