<svg id="COM" xmlns="http://www.w3.org/2000/svg" width="93.999" height="67.886" viewBox="0 0 93.999 67.886">
  <path id="Path_40158" data-name="Path 40158" d="M0,16V39.5A10.445,10.445,0,0,0,10.445,49.943H83.551A10.445,10.445,0,0,0,94,39.5V16H0Z" transform="translate(0.003 17.943)" fill="#3a75c4"/>
  <path id="Path_40159" data-name="Path 40159" d="M93.995,38.387v-23.5A10.445,10.445,0,0,0,83.55,4.444H10.444A10.445,10.445,0,0,0,0,14.889v23.5H93.992Z" transform="translate(0.001 -4.444)" fill="#ffc61e"/>
  <path id="Path_40160" data-name="Path 40160" d="M0,16H93.993V32.972H0Z" transform="translate(0.003 17.943)" fill="#ce1126"/>
  <path id="Path_40161" data-name="Path 40161" d="M0,10.222H93.993V27.194H0Z" transform="translate(0.003 6.75)" fill="#eee"/>
  <path id="Path_40162" data-name="Path 40162" d="M3.528,5.337h0A10.424,10.424,0,0,0,0,13.159v47A10.418,10.418,0,0,0,3.528,67.98L45.692,36.657,3.528,5.337Z" transform="translate(0.003 -2.714)" fill="#3d8e33"/>
  <path id="Path_40163" data-name="Path 40163" d="M7.715,25.508A14.413,14.413,0,0,1,18.93,11.462a14.416,14.416,0,1,0,0,28.092A14.413,14.413,0,0,1,7.715,25.508Z" transform="translate(2.539 8.435)" fill="#fff"/>
  <path id="Path_40164" data-name="Path 40164" d="M7.412,16.407l1.569-1.14,1.569,1.14-.6-1.845,1.569-1.14H9.58l-.6-1.845-.6,1.845H6.443l1.569,1.14Zm0,6.879,1.569-1.14,1.569,1.14-.6-1.845,1.569-1.14H9.58l-.6-1.845-.6,1.845H6.443l1.569,1.14Zm0,6.882,1.569-1.14,1.569,1.14-.6-1.845,1.569-1.14H9.58l-.6-1.845-.6,1.845H6.443l1.569,1.14ZM8.984,35.9l1.569,1.14-.6-1.845,1.569-1.14H9.583l-.6-1.845-.6,1.845H6.446L8.014,35.2l-.6,1.845Z" transform="translate(12.485 9.377)" fill="#fff"/>
</svg>
