<svg id="CPV" xmlns="http://www.w3.org/2000/svg" width="93.999" height="67.886" viewBox="0 0 93.999 67.886">
  <path id="Path_39572" data-name="Path 39572" d="M83.55,4.444H10.444A10.445,10.445,0,0,0,0,14.889V41H93.992V14.889A10.445,10.445,0,0,0,83.547,4.444Z" transform="translate(0.001 -4.444)" fill="#003893"/>
  <path id="Path_39573" data-name="Path 39573" d="M0,16.889H93.993v5.222H0ZM0,29.942H93.993v5.222H0Z" transform="translate(0.003 19.665)" fill="#eee"/>
  <path id="Path_39574" data-name="Path 39574" d="M0,18.667V26.5H93.993V18.667Z" transform="translate(0.003 23.11)" fill="#cf2027"/>
  <path id="Path_39575" data-name="Path 39575" d="M10.443,36.167H83.549A10.445,10.445,0,0,0,93.994,25.722V23.111H0v2.611A10.445,10.445,0,0,0,10.446,36.167Z" transform="translate(0.005 31.719)" fill="#003893"/>
  <path id="Path_39576" data-name="Path 39576" d="M26.341,16.637l1.994-1.448H25.871l-.764-2.344-.764,2.344H21.879l1.994,1.448-.764,2.347L25.1,17.536,27.1,18.984Zm16.14,11.729,1.994-1.448H42.011l-.764-2.347-.764,2.347H38.017l2,1.448-.764,2.344,1.994-1.448,1.994,1.448Zm-32.281,0,2-1.448H9.731l-.764-2.347L8.2,26.917H5.739l1.994,1.448L6.97,30.709l1.994-1.448,1.994,1.448Zm0,10.489,2-1.448H9.731l-.764-2.344L8.2,37.406H5.739l1.994,1.448L6.97,41.2,8.964,39.75,10.959,41.2Zm32.281,0,1.994-1.448H42.011l-.764-2.344-.764,2.344H38.017l2,1.448L39.25,41.2l1.994-1.448L43.239,41.2ZM25.871,49.129l-.764-2.344-.764,2.344H21.879l1.994,1.448-.764,2.347L25.1,51.476,27.1,52.924l-.764-2.347,1.994-1.448Zm10.445-1.792,1.994-1.448H35.843l-.761-2.344-.764,2.344H31.851l1.994,1.448-.764,2.344,2-1.448,1.994,1.448Zm0-27.422,1.994-1.448H35.843l-.761-2.344-.764,2.344H31.851l1.994,1.448-.764,2.344,2-1.448,1.994,1.448ZM13.9,47.337,11.9,45.889h2.467l.761-2.344.764,2.344h2.467l-1.994,1.448.764,2.344-2-1.448-1.994,1.448Zm0-27.422L11.9,18.467h2.467l.761-2.344.764,2.344h2.467l-1.994,1.448.764,2.344-2-1.448-1.994,1.448Z" transform="translate(11.121 11.831)" fill="#f7d116"/>
</svg>
