<svg id="CRI" xmlns="http://www.w3.org/2000/svg" width="93.996" height="67.886" viewBox="0 0 93.996 67.886">
  <path id="Path_39557" data-name="Path 39557" d="M93.995,61.885A10.445,10.445,0,0,1,83.55,72.33H10.444A10.445,10.445,0,0,1,0,61.885v-47A10.445,10.445,0,0,1,10.444,4.444H83.55A10.445,10.445,0,0,1,93.995,14.889Z" transform="translate(0.001 -4.444)" fill="#002b7f"/>
  <path id="Path_39558" data-name="Path 39558" d="M0,8H93.993V55H0Z" transform="translate(0.003 2.445)" fill="#eee"/>
  <path id="Path_39559" data-name="Path 39559" d="M0,11.556H93.993V37.665H0Z" transform="translate(0.003 9.334)" fill="#ce1225"/>
  <path id="Path_39560" data-name="Path 39560" d="M22.721,22.889c0,5.769-4.092,10.445-9.138,10.445S4.445,28.658,4.445,22.889s4.092-10.445,9.138-10.445S22.721,17.12,22.721,22.889Z" transform="translate(8.614 11.054)" fill="#eee"/>
  <path id="Path_39561" data-name="Path 39561" d="M15.219,19.915c0,2.162-2.068,5.428-4.617,5.428s-4.617-3.266-4.617-5.428S8.052,16,10.6,16,15.219,17.751,15.219,19.915Z" transform="translate(11.596 17.943)" fill="#f4cb58"/>
  <path id="Path_39562" data-name="Path 39562" d="M18.387,19.915c0,2.162-2.923,3.915-6.527,3.915s-6.527-1.754-6.527-3.915S8.257,16,11.861,16,18.387,17.754,18.387,19.915Z" transform="translate(10.336 17.943)" fill="#dca841"/>
  <path id="Path_39563" data-name="Path 39563" d="M14.054,15.944c0,1.442-1.754,2.611-3.915,2.611s-3.915-1.169-3.915-2.611,1.754-2.611,3.915-2.611S14.054,14.5,14.054,15.944Z" transform="translate(12.059 12.776)" fill="#89c5e4"/>
  <path id="Path_39564" data-name="Path 39564" d="M14.054,20.749c0,3.6-1.754,6.527-3.915,6.527s-3.915-2.923-3.915-6.527,1.754-6.527,3.915-6.527S14.054,17.145,14.054,20.749Z" transform="translate(12.059 14.499)" fill="#088930"/>
  <path id="Path_39565" data-name="Path 39565" d="M14.054,15.527c0,.72-1.754,1.3-3.915,1.3s-3.915-.585-3.915-1.3,1.754-1.3,3.915-1.3S14.054,14.808,14.054,15.527Z" transform="translate(12.059 14.501)" fill="#dca841"/>
  <path id="Path_39566" data-name="Path 39566" d="M14.054,18.58c0,2.881-1.751,5.222-3.915,5.222S6.223,21.465,6.223,18.58s1.751-3.912,3.915-3.912S14.054,15.7,14.054,18.58Z" transform="translate(12.059 15.363)" fill="#89c5e4"/>
  <path id="Path_39567" data-name="Path 39567" d="M14.054,17.3c0,.72-1.754,1.3-3.915,1.3s-3.915-.585-3.915-1.3S7.977,16,10.138,16,14.054,16.585,14.054,17.3Z" transform="translate(12.059 17.943)" fill="#dca841"/>
</svg>
