<svg id="CUB" xmlns="http://www.w3.org/2000/svg" width="93.996" height="67.886" viewBox="0 0 93.996 67.886">
  <path id="Path_39568" data-name="Path 39568" d="M83.55,4.444H10.444A10.445,10.445,0,0,0,0,14.889v47A10.445,10.445,0,0,0,10.444,72.33H83.55A10.445,10.445,0,0,0,93.995,61.885v-47A10.445,10.445,0,0,0,83.55,4.444Z" transform="translate(0.001 -4.444)" fill="#002a8f"/>
  <path id="Path_39569" data-name="Path 39569" d="M24.23,21.942H82.071V8.889H6.154ZM6.154,50.663H82.071V37.61H24.23Z" transform="translate(11.925 4.167)" fill="#eee"/>
  <path id="Path_39570" data-name="Path 39570" d="M36.15,28.835,3.608,5.331A10.369,10.369,0,0,0,0,13.168v47A10.375,10.375,0,0,0,3.608,68L47,36.666,36.153,28.832Z" transform="translate(0.005 -2.726)" fill="#cf142b"/>
  <path id="Path_39571" data-name="Path 39571" d="M14.4,23.106l5.234-3.795H13.167l-2.009-6.168L9.143,19.311H2.666L7.9,23.106,5.891,29.269l5.261-3.81,5.261,3.81Z" transform="translate(5.168 12.408)" fill="#fff"/>
</svg>
