<svg id="CUW" xmlns="http://www.w3.org/2000/svg" width="93.999" height="67.886" viewBox="0 0 93.999 67.886">
  <path id="Path_39577" data-name="Path 39577" d="M0,27.444A10.445,10.445,0,0,0,10.445,37.889H83.551A10.445,10.445,0,0,0,94,27.444V22.222H0v5.222Z" transform="translate(0.003 29.997)" fill="#002b7f"/>
  <path id="Path_39578" data-name="Path 39578" d="M0,18.667H93.993V29.112H0Z" transform="translate(0.003 23.11)" fill="#f9e814"/>
  <path id="Path_39579" data-name="Path 39579" d="M83.55,4.444H10.444A10.445,10.445,0,0,0,0,14.889V46.221H93.992V14.889A10.445,10.445,0,0,0,83.547,4.444Zm-73.1,12.439L7.377,19.113l1.172-3.607L5.483,13.276H9.278L10.45,9.669l1.172,3.607h3.795L12.35,15.506l1.172,3.607-3.069-2.229ZM24.981,30.965l-4.092-2.973L16.8,30.965l1.563-4.811-4.092-2.973h5.058l1.563-4.811,1.563,4.811H27.51l-4.092,2.973,1.563,4.808Z" transform="translate(0.001 -4.444)" fill="#002b7f"/>
  <path id="Path_39580" data-name="Path 39580" d="M18.841,19.734l-1.563-4.811-1.563,4.811H10.658l4.092,2.973-1.563,4.808,4.092-2.973,4.092,2.973-1.563-4.808L23.9,19.734ZM11.8,9.83H8L6.831,6.223,5.659,9.83H1.864l3.067,2.229L3.759,15.666l3.069-2.229L9.9,15.666,8.725,12.059Z" transform="translate(3.614 -0.998)" fill="#fff"/>
</svg>
