<svg id="CXR" xmlns="http://www.w3.org/2000/svg" width="93.996" height="67.886" viewBox="0 0 93.996 67.886">
  <path id="Path_39581" data-name="Path 39581" d="M93.995,61.885A10.445,10.445,0,0,1,83.55,72.33H10.444A10.445,10.445,0,0,1,0,61.885v-47A10.445,10.445,0,0,1,10.444,4.444H83.55A10.445,10.445,0,0,1,93.995,14.889Z" transform="translate(0.001 -4.444)" fill="#0021ad"/>
  <path id="Path_39582" data-name="Path 39582" d="M88.007,69.722a10.374,10.374,0,0,0,3.607-7.837v-47A10.445,10.445,0,0,0,81.169,4.444H8.063A10.351,10.351,0,0,0,1.228,7.049L88,69.722Z" transform="translate(2.382 -4.444)" fill="#1b8a42"/>
  <path id="Path_39583" data-name="Path 39583" d="M19.075,35.03l.441,1.524h1.533l-1.21.931.446,1.48-1.21-.934-1.21.893.444-1.439-1.21-.931H18.59Zm-4-16.98-1.771,1.636.176-2.406L11.1,16.916l1.991-1.366-1.2-2.091,2.306.7.884-2.244.884,2.244,2.309-.7-1.2,2.091,1.989,1.363-2.385.364.176,2.406ZM5.616,31.92,3.845,33.556l.176-2.406-2.385-.364,1.991-1.363-1.2-2.094,2.306.708.884-2.244L6.5,28.037l2.309-.708-1.2,2.094L9.6,30.786l-2.385.364.176,2.406Zm18.567-1.143-1.774,1.636.176-2.406L20.2,29.644l1.991-1.363-1.2-2.091,2.309.7.884-2.244.881,2.244,2.309-.7-1.2,2.091,1.989,1.36-2.385.367.176,2.406ZM14.921,50.986l-1.774,1.636.176-2.409-2.385-.361,1.991-1.369-1.2-2.091,2.309.7.884-2.244.884,2.244,2.306-.7-1.2,2.091L18.9,49.846l-2.385.364.176,2.409Z" transform="translate(3.172 10.039)" fill="#fff"/>
  <path id="Path_39584" data-name="Path 39584" d="M12.833,22.135a9.3,9.3,0,1,1,9.3,9.3A9.3,9.3,0,0,1,12.833,22.135Z" transform="translate(24.864 11.808)" fill="#ffc639"/>
  <path id="Path_39585" data-name="Path 39585" d="M15.208,15.5S18.04,18.13,19.5,18.241c2.376.182,4.641-1.8,4.641-3.254l2.232-.943V16.97l2.127,1.46L24.51,22.083v4.382l-2.385-.579-.173-3.043a1.392,1.392,0,0,0-1.566-1.157c-1.463,0-2.605-.091-2.908-.881-.082-.217-3.951.549-3.951.549l2.5-3.489-.822-.89V15.51Z" transform="translate(26.21 14.154)" fill="#1b8a42"/>
  <path id="Path_39586" data-name="Path 39586" d="M36.921,5.813c.605-.476,6.289,5.14,6.967,6.224S44.3,17.177,44.972,19s1.281,2.235,1.962,1.827,3.046,0,3.384.881c0,0-1.895,1.151-2.03,1.962a97.822,97.822,0,0,0-9.473,3.857c-3.451,1.759-2.555.858-5.41,2.1-4.194,1.824-7.986.946-10.756.54s-1.965-1.016,0-.74a35.327,35.327,0,0,0,9.4-.881c1.56-.54,4.6-2.975,5.886-3.583s2.908-2.84,1.489-4.194-5.687-3.254-7.378-5.084S30.359,13.591,33,14a11.806,11.806,0,0,1,6.221,3.064c1.357,1.354,2.561-.379,1.748-2.547s-1.944-1.939-2.691-3.9-1.962-4.327-1.351-4.8Z" transform="translate(40.409 -1.848)" fill="#ffc639"/>
</svg>
