<svg id="CYM" xmlns="http://www.w3.org/2000/svg" width="93.996" height="67.886" viewBox="0 0 93.996 67.886">
  <path id="Path_40182" data-name="Path 40182" d="M83.55,4.446H10.444a10.359,10.359,0,0,0-1.577.117L8.855,9.143,1.726,9.131A10.4,10.4,0,0,0,0,14.888v47A10.445,10.445,0,0,0,10.444,72.329H83.55A10.445,10.445,0,0,0,93.995,61.884v-47A10.445,10.445,0,0,0,83.55,4.443Z" transform="translate(0.001 -4.443)" fill="#00247d"/>
  <path id="Path_40183" data-name="Path 40183" d="M51.081,22.447c-.728.106-1.034,1.148-1.348,1.774a2.683,2.683,0,0,1-1.88.523s.529-.834,1.046-1.674.211-1.88-.52-1.983-.834-.526-1.774-1.357-2.611-.94-2.926-.209-1.777,1.254-1.566,2.3a10.853,10.853,0,0,0,1.251,3.237,29.131,29.131,0,0,1-4.456,2.3,13.828,13.828,0,0,1-3.422.834,15.748,15.748,0,0,1-4.071-.834,15.607,15.607,0,0,1-3.874-2.3A11.221,11.221,0,0,0,28.8,21.819c.206-1.043-1.257-1.569-1.569-2.3s-1.986-.626-2.926.209-1.043,1.251-1.777,1.357-1.046,1.146-.523,1.983,1.04,1.674,1.04,1.674a2.685,2.685,0,0,1-1.883-.523c-.314-.626-.637-1.671-1.369-1.774s-.746.623-.643,1.36a18.839,18.839,0,0,0,.9,2.923c.311.834.864.94,2.015,1.148a5.74,5.74,0,0,0,2.879-.728c4.077,3.965,9.943,3.863,9.943,3.863s6.436.106,10.51-3.863a7.255,7.255,0,0,0,3.166.728c1.151-.209,1.845-.314,2.156-1.148a18.932,18.932,0,0,0,.975-2.923C51.8,23.07,51.816,22.341,51.081,22.447Z" transform="translate(37.013 23.824)" fill="#f9d050"/>
  <path id="Path_40184" data-name="Path 40184" d="M50.649,26.789s.834-2.5,1.043-3.343-.626-1.148-1.251-.626-1.569,3.554-1.569,3.554a.959.959,0,0,1,.94-.526C50.44,25.954,50.649,26.789,50.649,26.789Zm-5.017-3.863a6.316,6.316,0,0,0,1.254-2.2A1.926,1.926,0,0,0,45,18.955c-.834.106-1.463.731-1.251,1.463a19.447,19.447,0,0,0,.937,2.2s0-.209.42-.209.523.523.523.523ZM20.2,26.789s-.834-2.5-1.046-3.343.626-1.148,1.254-.626,1.569,3.554,1.569,3.554a.959.959,0,0,0-.94-.526c-.629.106-.834.94-.834.94Zm5.011-3.863a6.316,6.316,0,0,1-1.254-2.2,1.925,1.925,0,0,1,1.88-1.774c.834.106,1.466.731,1.254,1.463a18.75,18.75,0,0,1-.94,2.2s0-.209-.414-.209-.526.523-.526.523Z" transform="translate(37.05 23.656)" fill="#db1c1c"/>
  <path id="Path_40185" data-name="Path 40185" d="M30.246,14.078H21.81v7.646H40.086V14.078Z" transform="translate(42.255 14.223)" fill="#cf1b2b"/>
  <path id="Path_40186" data-name="Path 40186" d="M36.784,29.649a14.934,14.934,0,0,0,3.3-9.505v-3.88a10.81,10.81,0,0,0-1.313-.018c-.963.276-1.125,1.287-2.294,1.287-1.354,0-1.727-1.357-3.084-1.357s-1.8,1.357-3.16,1.357c-1.146,0-2.1-1.357-3.146-1.357s-2.2,1.357-3.14,1.357c-.831,0-1.378-1.057-2.138-1.3l.006,3.915a20.155,20.155,0,0,0,1.375,7.478,12.076,12.076,0,0,0,1.845,2.89,6.5,6.5,0,0,1,3.9,3.052,2.717,2.717,0,0,0,1.342.185c1.087,0,1.325-.241,1.325-.241,1.428-2.608,3.88-2.273,5.184-3.863Z" transform="translate(42.255 18.287)" fill="#fff"/>
  <path id="Path_40187" data-name="Path 40187" d="M23.636,21.176c1.251,0,2.817-1.146,3.654-1.146S28.855,21.176,30,21.176s2.611-1.146,3.343-1.146,1.88,1.146,3.025,1.146,1.566-1.146,2.608-1.146a4.442,4.442,0,0,1,.993.153A17.558,17.558,0,0,0,40.1,17.3c-.435-.012-.74-.026-.952-.026a1.259,1.259,0,0,0-.452.035c-.887.311-1.072,1.26-2.209,1.26-1.354,0-1.727-1.357-3.084-1.357s-1.8,1.357-3.161,1.357c-1.146,0-2.1-1.357-3.146-1.357s-2.2,1.357-3.14,1.357c-.646,0-1.116-.64-1.648-1.04a1.544,1.544,0,0,0-.485-.244A23.421,23.421,0,0,0,21.9,20.16c.517.3.755,1.01,1.739,1.01Zm9.825,6.165c-1.345,0-1.774,1.319-3.093,1.348-1.322-.029-1.751-1.348-3.093-1.348-.908,0-1.633.773-2.235,1.175a23.777,23.777,0,0,1,3.037,1.7A4.826,4.826,0,0,0,30.368,31a4.854,4.854,0,0,0,2.291-.775,23.778,23.778,0,0,1,3.037-1.7c-.6-.4-1.328-1.175-2.235-1.175ZM39.5,21.8c-1.463,0-1.351,1.357-2.708,1.357S35.114,21.8,33.76,21.8s-1.777,1.357-3.134,1.357c-1.151,0-2.091-1.357-3.137-1.357s-2.194,1.357-3.131,1.357c-.717,0-1.492-.787-2.238-1.166a15.837,15.837,0,0,0,1.057,3.586,2.232,2.232,0,0,0,.864.191c1.254,0,2.817-1.146,3.654-1.146s1.566,1.146,2.714,1.146,2.611-1.146,3.343-1.146,1.88,1.146,3.025,1.146a3.148,3.148,0,0,0,1.754-.84,12.47,12.47,0,0,0,1.134-3.119,1.645,1.645,0,0,0-.176-.009Z" transform="translate(42.245 20.286)" fill="#0b50a0"/>
  <path id="Path_40188" data-name="Path 40188" d="M25.138,19.709l.928-3.152.952,3.143,3.284-.094-2.693,1.88,1.1,3.093-2.62-1.986-2.6,2.009,1.075-3.1-2.711-1.856Zm9.611,0,.925-3.152.955,3.143,3.284-.094-2.7,1.88,1.1,3.093L35.7,22.593,33.1,24.6l1.075-3.1-2.714-1.856Z" transform="translate(42.334 19.025)" fill="#059334"/>
  <path id="Path_40189" data-name="Path 40189" d="M26.776,21.631l.925-3.155.955,3.146,3.284-.091-2.7,1.877,1.1,3.093-2.62-1.98-2.605,2,1.078-3.1-2.714-1.859Z" transform="translate(45.502 22.743)" fill="#059334"/>
  <path id="Path_40190" data-name="Path 40190" d="M22.633,23.745c.652-.535,1.254.314,1.36.834a1.687,1.687,0,0,0,1.357,1.254,19.167,19.167,0,0,1,.731-1.88,1.4,1.4,0,0,1,1.674-.626c.523.209,1.463.106,1.357,1.046a2.965,2.965,0,0,1-.417,1.357,22.008,22.008,0,0,0,2.714,0c.834-.106,1.777-.626,2.406-.314a2.515,2.515,0,0,0,1.88.209c.314-.209.523-.834-.209-.731s-1.357.106-1.986.211-3.343.209-3.343-.626,1.043-.94,1.251-.834,1.777-1.046,2.091-.523.314,1.148-.626,1.148-2.3-.209-2.3.106.42.523,1.046.523,1.671-.417,2.4-.417,1.777-.834,2.4-.314,1.148,1.254.626,1.566a7.39,7.39,0,0,1-3.028.314,5.031,5.031,0,0,0,1.36.523c.629.106,1.88.314,1.777.94s.206,1.463-.626,1.357-.731-.523-.523-.834-.314-.626-1.254-.523a4.8,4.8,0,0,1-2.088-.417s-.314.834.106,1.046a11.075,11.075,0,0,1-1.986.626c-.731.1-1.463.417-1.463,0s.523-1.046.94-.834,1.146-.106,1.36-.106-.734-.626-.211-.834-.414-.314-.937,0-3.654,1.148-4.7,1.566-1.986.314-2.4.523-1.251-.314-.834-.834.626-.834.94-.523.834.209,1.566,0-.414-.417-.623-.626a6.14,6.14,0,0,1-1.046-1.774c-.012-.314-1.892-.626-.743-1.566ZM26.5,15.865A11.843,11.843,0,0,0,24,13.671l1.774.523A3.839,3.839,0,0,0,24,12.836a6.287,6.287,0,0,1,2.4.626A10.966,10.966,0,0,0,24.2,11.476a7.677,7.677,0,0,1,2.406,1.148l-.731-1.566a4.355,4.355,0,0,1,1.774,1.463A6.432,6.432,0,0,0,26.4,10.017a6.715,6.715,0,0,1,1.677,1.357l.308-1.492.922.831.629-1.16.737,1.2,1.266-1.313a12.321,12.321,0,0,0-.417,1.962,3.447,3.447,0,0,1,1.671-1.266,18.425,18.425,0,0,0-1.671,3.075,14.738,14.738,0,0,1,3.445-2.591s-1.883,2.206-2.4,3.043a9.925,9.925,0,0,1,3.025-1.771S33.709,13.876,33.4,14.3a5.918,5.918,0,0,1,2.4-.314s-3.131,1.774-3.863,2.4-5.434-.52-5.434-.52Z" transform="translate(43.124 5.234)" fill="#f9d050"/>
  <path id="Path_40191" data-name="Path 40191" d="M24.09,13.6c-1.128.206-1.436.822-1.334,1.439a1.123,1.123,0,0,0,1.539.82,7.469,7.469,0,0,1,1.336-.511c.7-.129,1.642-.411,1.642-.411a4.715,4.715,0,0,0,1.748,0,2.871,2.871,0,0,0,2.053.1s2.259,1.025,3.284.617.188-1.786-.308-1.95a25.207,25.207,0,0,0-4.929-.717,25.826,25.826,0,0,0-5.029.614Z" transform="translate(44.052 12.103)" fill="#fff"/>
  <path id="Path_40192" data-name="Path 40192" d="M33.263,13.7a11.963,11.963,0,0,0-1.71-.373s.144.579.247,1.207a2.473,2.473,0,0,0,.32,1.146,2.237,2.237,0,0,0,1.457,0c1.043-.411.191-1.812-.317-1.98Zm-6.118-.714c.32.376.52,1.36.969,1.977a2.447,2.447,0,0,0,2.077.115,10.1,10.1,0,0,0-.731-2.012C29.045,13.025,27.544,12.961,27.145,12.987ZM24.9,15.328a3.3,3.3,0,0,0,1.419-.361,4.285,4.285,0,0,0-.364-.852,3.376,3.376,0,0,0-.629-.922c-1.031.156-1.915.341-2.132.388A4.593,4.593,0,0,0,24.9,15.328Z" transform="translate(44.93 12.097)" fill="#073163"/>
  <path id="Path_40193" data-name="Path 40193" d="M22.035,12.527a1.677,1.677,0,0,1,1.671-1.151c1.357,0,.731.834,2.3.94s7.105.834,7.937,1.254a3.95,3.95,0,0,0,2.4.209c.523-.106.106.523-.414.834a2.849,2.849,0,0,1-1.569.106,7.52,7.52,0,0,1,1.466,1.774c.314.731,0,1.046-.523.731s-1.148.314-1.257-.106a12.521,12.521,0,0,0-1.146-1.88s-3.028-.417-3.865.314a4.279,4.279,0,0,1-3.551.834c-1.043-.106-1.671-.626-1.46-1.254a1.4,1.4,0,0,1,.728-.834s-.106-1.254-.52-.94a1.4,1.4,0,0,1-1.466-.106,4.6,4.6,0,0,0-.734-.728Z" transform="translate(42.685 8.988)" fill="#059334"/>
  <path id="Path_40194" data-name="Path 40194" d="M23.3,12.389a9.458,9.458,0,0,1,4.285-1.148,8.437,8.437,0,0,1,3.863,1.148c1.151.626,1.046,1.148,1.674,1.357s.314.523,0,.834-1.36,2.088-4.7,1.986S24.769,15.52,24.246,15.1a3.031,3.031,0,0,1-.834-1.774c0-.311-.623-.629-.106-.94Z" transform="translate(44.756 8.71)" fill="#059334"/>
  <path id="Path_40195" data-name="Path 40195" d="M28.954,15.522c1.134-.311,2.667-.72,3.416-1.833-.482-.238-.482-.726-1.536-1.3a8.412,8.412,0,0,0-3.863-1.148,8.541,8.541,0,0,0-3.5.773c-.05.74-.05,1.63-.05,1.63a11.847,11.847,0,0,1,1.671,1.148A5.318,5.318,0,0,0,28.954,15.522Z" transform="translate(45.374 8.708)" fill="#00493d"/>
  <path id="Path_40196" data-name="Path 40196" d="M49.61,38.387V4.444H10.447a11.38,11.38,0,0,0-1.577.117L8.858,9.141,1.729,9.129s-.109.153-.332.535A10.428,10.428,0,0,0,0,14.886v23.5H49.607Z" transform="translate(0.001 -4.441)" fill="#00247d"/>
  <path id="Path_40197" data-name="Path 40197" d="M49.6,4.446H43.518l-12.19,8.536V4.446H18.275v6.709L8.864,4.563A10.305,10.305,0,0,0,4.5,6.3l12.278,8.589H12.245L2.525,8.076a10.661,10.661,0,0,0-.8,1.054l8.227,5.757H0V27.941H10.144L0,35.164v3.222H8.7l9.576-6.706v6.706H31.331V29.85l12.187,8.536h6.089v-5.3l-7.349-5.146h7.349V14.888H42.261l7.346-5.146v-5.3Z" transform="translate(0.007 -4.443)" fill="#eee"/>
  <path id="Path_40198" data-name="Path 40198" d="M28.721,4.444H20.887V17.5H0v7.834H20.887V38.384h7.834V25.331H49.608V17.5H28.721Z" transform="translate(0.003 -4.441)" fill="#cf1b2b"/>
  <path id="Path_40199" data-name="Path 40199" d="M48.343,4.444H44.527L30.064,14.572v.317h4.1L48.34,4.961ZM3.235,6.3A10.536,10.536,0,0,0,1.258,8.077l9.719,6.812h4.529L3.232,6.3ZM15.542,27.942.653,38.387H5.162l11.852-8.3V27.942Zm32.8,9.928V34.686l-9.625-6.741h-4.55Z" transform="translate(1.268 -4.441)" fill="#cf1b2b"/>
</svg>
