<svg id="CYP" xmlns="http://www.w3.org/2000/svg" width="93.996" height="67.886" viewBox="0 0 93.996 67.886">
  <path id="Path_39587" data-name="Path 39587" d="M93.995,61.885A10.445,10.445,0,0,1,83.55,72.33H10.444A10.445,10.445,0,0,1,0,61.885v-47A10.445,10.445,0,0,1,10.444,4.444H83.55A10.445,10.445,0,0,1,93.995,14.889Z" transform="translate(0.001 -4.444)" fill="#eee"/>
  <path id="Path_39588" data-name="Path 39588" d="M13.455,21.668a1.19,1.19,0,0,0-.194-.623,4.056,4.056,0,0,0-2.532-1.78c-.182-.047-.211.035-.176.188a2.361,2.361,0,0,0,.388.872,4.039,4.039,0,0,0,2.326,1.483c.17.05.223.021.191-.138Zm22.112.179a4.575,4.575,0,0,0,1.927-.9,2.644,2.644,0,0,0,.955-1.492c.032-.138.026-.241-.164-.194a4.084,4.084,0,0,0-2.55,1.8A1.078,1.078,0,0,0,35.566,21.847Zm2.482.6a.678.678,0,0,0-.247-.07,4.913,4.913,0,0,0-2.027.106,3.289,3.289,0,0,0-1.319.67c-.106.091-.115.15,0,.229a1.5,1.5,0,0,0,.726.294,3.405,3.405,0,0,0,2.711-.99.405.405,0,0,0,.153-.241ZM12.059,22.32a4.253,4.253,0,0,0-.861.056c-.079.015-.191.012-.217.076-.035.085.059.159.12.22a3.6,3.6,0,0,0,1.8.963,2.075,2.075,0,0,0,1.345-.082c.153-.065.373-.135.388-.285.012-.129-.2-.223-.335-.311a4.093,4.093,0,0,0-2.241-.637Zm2.849-1a3.88,3.88,0,0,0-1-2.52c-.179-.191-.209-.185-.27.07a3.68,3.68,0,0,0,.188,2.147,2.206,2.206,0,0,0,.743,1.075c.117.088.176.068.226-.065A2.045,2.045,0,0,0,14.909,21.318ZM34.1,21.239a2.942,2.942,0,0,0,.029.411c.032.179.021.435.194.482.144.041.3-.162.4-.3a3.587,3.587,0,0,0,.652-2.952c-.05-.27-.085-.273-.276-.07a3.846,3.846,0,0,0-1,2.432Zm-5.816,1.618a3.016,3.016,0,0,0-1.577,3.4A4.2,4.2,0,0,0,28.282,22.857Zm-5.96,3.431a2.866,2.866,0,0,0,.044-.937,2.936,2.936,0,0,0-1.425-2.4c-.153-.091-.217-.085-.223.112a4.264,4.264,0,0,0,1.6,3.228Zm9.47-4.982-.082.032a1.116,1.116,0,0,0-.109.1,3.608,3.608,0,0,0-1.043,1.78,1.855,1.855,0,0,0,.041,1.163c.123.305.159.311.394.091a2.983,2.983,0,0,0,.849-1.642,2.81,2.81,0,0,0-.053-1.519Zm-14.6-.021a3.393,3.393,0,0,0,.673,3.037c.106.129.241.332.379.291s.182-.282.223-.455A3.188,3.188,0,0,0,17.2,21.286Zm14.681,3.733a2.2,2.2,0,0,0-.869.176c-.156.062-.159.129-.041.235a3.637,3.637,0,0,0,.955.643,2.852,2.852,0,0,0,2,.279c.276-.076.291-.1.106-.311a2.934,2.934,0,0,0-2.15-1.022Zm-14.736.006a2.269,2.269,0,0,0-.526.056,2.914,2.914,0,0,0-1.633.952c-.185.22-.176.235.094.311a2.209,2.209,0,0,0,1.046.041A3.85,3.85,0,0,0,18,25.463c.194-.162.182-.194-.059-.291a2.065,2.065,0,0,0-.8-.15Zm15.106,2.156a3.21,3.21,0,0,0-3.084-.919c-.173.041-.2.094-.1.256A2.477,2.477,0,0,0,32.247,27.181Zm-15.479.012a2.625,2.625,0,0,0,1.11.276,2.135,2.135,0,0,0,2.041-.931c.144-.209.138-.223-.112-.285a2.71,2.71,0,0,0-1.075-.059,3.182,3.182,0,0,0-1.962,1Zm3.654-2.409-.012-.156a2.093,2.093,0,0,0-.047-.282,4.264,4.264,0,0,0-1.26-1.986c-.053-.053-.1-.153-.185-.117-.059.021-.059.123-.073.194a3.034,3.034,0,0,0,.288,1.657,3.3,3.3,0,0,0,.934,1.348c.12.1.182.085.238-.062a1.919,1.919,0,0,0,.117-.6Zm8.166.012a1.515,1.515,0,0,0,.091.52c.1.247.115.258.317.082a3.722,3.722,0,0,0,1.063-1.821,2.464,2.464,0,0,0,.1-1.187c-.038-.188-.094-.176-.22-.059a5.3,5.3,0,0,0-1.063,1.386,2.3,2.3,0,0,0-.288,1.081Zm1.73,3.651a.171.171,0,0,0,.015-.038c-.012-.023-.015-.05-.032-.065a3.543,3.543,0,0,0-2.943-1.477c-.132,0-.129.059-.082.15a2.364,2.364,0,0,0,1.472,1.342,4.472,4.472,0,0,0,1.566.091Zm-11.673.021c.32,0,.6.006.881-.009A2.332,2.332,0,0,0,21.7,27.052c.094-.176.018-.188-.132-.188a3.562,3.562,0,0,0-2.332.893,2.062,2.062,0,0,0-.593.711Zm14.084-5.046a3.873,3.873,0,0,0,1-2.056,1.682,1.682,0,0,0-.156-1.1c-.073-.132-.129-.153-.238-.026a3.611,3.611,0,0,0-.843,1.571A1.932,1.932,0,0,0,32.729,23.421ZM15.543,20.146c-.587.7-.162,2.552.746,3.249.7-.931.065-2.547-.746-3.249ZM14.23,25.01a3.569,3.569,0,0,0,1.043-.129,1.5,1.5,0,0,0,.728-.4c.085-.1.088-.153-.059-.194a12.581,12.581,0,0,0-1.307-.305,1.877,1.877,0,0,0-1.61.379c-.206.176-.211.2.029.352a2.22,2.22,0,0,0,1.178.294Zm20.473,0a2.359,2.359,0,0,0,1.248-.294c.241-.153.238-.176.029-.352a1.669,1.669,0,0,0-.958-.4,5.218,5.218,0,0,0-1.724.273c-.123.032-.332.012-.341.144-.009.15.176.235.305.311l.129.065a3.056,3.056,0,0,0,1.307.256Z" transform="translate(20.421 23.105)" fill="#5c913b"/>
  <path id="Path_39589" data-name="Path 39589" d="M19.319,22.881c-.652-.159-1.31-.317-1.962-.482a.741.741,0,0,0-.376,0c-.652.167-1.31.32-1.971.47a4.223,4.223,0,0,1,1.439-.7l-2.127-.74a1.276,1.276,0,0,1,.6.085c.684.176,1.375.326,2.068.458a2.227,2.227,0,0,0,.858-.1c.834-.162,1.657-.379,2.485-.587-.781.326-1.586.582-2.444.872a4.1,4.1,0,0,1,1.43.72Z" transform="translate(27.751 28.178)" fill="#5c913b"/>
  <path id="Path_39590" data-name="Path 39590" d="M49.928,9.9l-.388.191a4.441,4.441,0,0,1-2.188.726.165.165,0,0,0-.185.126c-.056.261-.253.294-.458.294a1.1,1.1,0,0,0-.928.505,1.7,1.7,0,0,1-1.04.734,1.386,1.386,0,0,0-.411.194,1.929,1.929,0,0,1-1.219.294.317.317,0,0,0-.323.147c-.2.27-.423.529-.637.787a.808.808,0,0,1-.42.311,5.676,5.676,0,0,0-1.557.746,12.01,12.01,0,0,1-2.955,1.266,2.8,2.8,0,0,1-1.331.112.856.856,0,0,0-.808.2,3.033,3.033,0,0,0-.411.332,2.024,2.024,0,0,1-1.756.605.584.584,0,0,0-.373.05,6.048,6.048,0,0,1-1.845.441c-.282.059-.573-.044-.84.021a5.849,5.849,0,0,1-1.895-.082,5.33,5.33,0,0,0-1.383-.076.84.84,0,0,1-.737-.211.493.493,0,0,0-.64-.062.585.585,0,0,1-.6.018.9.9,0,0,0-.7-.059,1.523,1.523,0,0,1-.9.035,17.91,17.91,0,0,1-2.118-.708c-.326-.153-.326-.141-.294.229a11.042,11.042,0,0,1,.17,1.284c-.021.6-.047,1.2-.094,1.806a2.27,2.27,0,0,1-1.3,1.918.842.842,0,0,1-.84.018c-.532-.261-1.057-.538-1.616-.746a2.721,2.721,0,0,0-2.13-.021c-.247.106-.458.338-.767.258-.018-.006-.053.035-.073.056a2.091,2.091,0,0,0-.608.881,1.76,1.76,0,0,1-.9,1.24c-.291.147-.529.391-.828.532a1.134,1.134,0,0,1-1.213-.047c-.352-.323-.869-.517-1.034-1.037-.032-.1-.144-.17-.209-.024A1.185,1.185,0,0,0,9.041,24.2a2.518,2.518,0,0,0,.458.731.466.466,0,0,1,.12.232,2.058,2.058,0,0,1,.006.908.594.594,0,0,0,.079.482c.068.109.194.267.132.344-.241.308-.015.5.126.723a.148.148,0,0,1,.026.068c-.012.361.247.488.52.608a.6.6,0,0,1,.385.341c.153.5.223,1.025.4,1.527a.569.569,0,0,0,.261.379,2.2,2.2,0,0,1,.987.775.573.573,0,0,0,.582.22c.088-.012.2-.047.247.035a.415.415,0,0,0,.444.162.877.877,0,0,1,.849.4.777.777,0,0,0,.426.294,11.214,11.214,0,0,1,1.125.423.553.553,0,0,0,.634-.026.224.224,0,0,1,.182-.035,1.024,1.024,0,0,0,.911-.27.336.336,0,0,1,.376-.1.988.988,0,0,0,.681,0,.994.994,0,0,1,.752.047,2.992,2.992,0,0,1,.972,1.054,1.1,1.1,0,0,1,.12.834c-.018.1.018.118.109.123.5.035,1,.082,1.513.129a1.318,1.318,0,0,0-.256-.408A1.076,1.076,0,0,1,22,33.242a2.175,2.175,0,0,1,1.172-1.281c.229-.112.479-.209.711-.32a2.679,2.679,0,0,1,2-.085.979.979,0,0,0,1-.311.22.22,0,0,1,.167-.082,1.251,1.251,0,0,1,.552,0,.381.381,0,0,0,.485-.112.345.345,0,0,1,.288-.091.229.229,0,0,0,.194-.065,1.08,1.08,0,0,1,.634-.32c.056-.012.112-.006.153-.056a2.17,2.17,0,0,1,1.381-.667.613.613,0,0,0,.42-.27,1.11,1.11,0,0,1,1.4-.517c.162.044.2-.012.244-.15a.923.923,0,0,1,.405-.605.287.287,0,0,0,.159-.291c0-.37.009-.74.015-1.11a1.43,1.43,0,0,1,1.3-1.407,7.17,7.17,0,0,1,1.2-.012,1.422,1.422,0,0,1,.749.229c.206.138.394.3.6.438a.557.557,0,0,0,.632.009.368.368,0,0,0,.217-.455c-.035-.132.035-.173.156-.164a.9.9,0,0,0,.546-.041,1.45,1.45,0,0,1,1.025-.091.805.805,0,0,1,.376.073c.282.182.649.164.916.388.018.015.056,0,.147,0a.181.181,0,0,1-.106-.244.74.74,0,0,0-.126-.6c-.206-.294-.576-.467-.634-.878-.012-.079-.147-.147-.226-.209-.159-.123-.323-.238-.485-.358a.514.514,0,0,1-.223-.276,2.164,2.164,0,0,0-.746-1.093,2.4,2.4,0,0,1-.752-2.232,1.562,1.562,0,0,1,.27-.811c.173-.2.379-.358.361-.652a.145.145,0,0,1,.056-.1,1.361,1.361,0,0,1,1.175-.47,1.771,1.771,0,0,0,.646.009.658.658,0,0,0,.587-.5,1.675,1.675,0,0,1,.162-.479A5.836,5.836,0,0,1,43.072,15.2a8.182,8.182,0,0,1,.993-.485,2.21,2.21,0,0,1,.649-.247.47.47,0,0,0,.329-.2,2.952,2.952,0,0,1,1.56-1.231.568.568,0,0,0,.355-.4,1.125,1.125,0,0,1,.388-.626,4.547,4.547,0,0,1,2.127-1.087.344.344,0,0,0,.338-.294l.182-.723c.009-.012.029-.026.026-.032a.061.061,0,0,0-.073.009Z" transform="translate(17.368 6.068)" fill="#f4900c"/>
</svg>
