<svg id="CZE" xmlns="http://www.w3.org/2000/svg" width="93.996" height="67.89" viewBox="0 0 93.996 67.89">
  <path id="Path_39591" data-name="Path 39591" d="M1.229,47.261a9.913,9.913,0,0,0,6.832,2.682H81.167c5.769,0,10.445-4.676,10.445-11.749V16h-48.3L1.232,47.261Z" transform="translate(2.384 17.946)" fill="#d7141a"/>
  <path id="Path_39592" data-name="Path 39592" d="M81.217,4.446H8.111A10.406,10.406,0,0,0,1.2,7.072L43.359,38.386h48.3v-23.5A10.445,10.445,0,0,0,81.214,4.443Z" transform="translate(2.333 -4.443)" fill="#eee"/>
  <path id="Path_39593" data-name="Path 39593" d="M3.612,67.915,45.691,36.653,3.535,5.339A10.407,10.407,0,0,0,0,13.155V58.847a12.139,12.139,0,0,0,3.61,9.067Z" transform="translate(0.001 -2.707)" fill="#11457e"/>
</svg>
