<svg id="DJI" xmlns="http://www.w3.org/2000/svg" width="93.993" height="67.893" viewBox="0 0 93.993 67.893">
  <path id="Path_39617" data-name="Path 39617" d="M81.217,4.446H8.111A10.406,10.406,0,0,0,1.2,7.072L43.359,38.386h48.3v-23.5A10.445,10.445,0,0,0,81.214,4.443Z" transform="translate(2.333 -4.443)" fill="#6ab2e7"/>
  <path id="Path_39618" data-name="Path 39618" d="M81.217,49.941H8.111A10.406,10.406,0,0,1,1.2,47.315L43.359,16h48.3V39.5A10.445,10.445,0,0,1,81.214,49.944Z" transform="translate(2.333 17.948)" fill="#12ad2b"/>
  <path id="Path_39619" data-name="Path 39619" d="M3.612,67.915,45.691,36.653,3.535,5.339A10.407,10.407,0,0,0,0,13.155V58.847a12.139,12.139,0,0,0,3.61,9.067Z" transform="translate(0.001 -2.707)" fill="#eee"/>
  <path id="Path_39620" data-name="Path 39620" d="M11.809,12.889l2.156,6.638h6.982l-5.648,4.1,2.156,6.638-5.648-4.1-5.648,4.1,2.156-6.638-5.648-4.1H9.647L11.8,12.889Z" transform="translate(5.166 11.919)" fill="#d7141a"/>
</svg>
