<svg id="DMA" xmlns="http://www.w3.org/2000/svg" width="93.996" height="67.886" viewBox="0 0 93.996 67.886">
  <path id="Path_39623" data-name="Path 39623" d="M93.995,61.885A10.445,10.445,0,0,1,83.55,72.33H10.444A10.445,10.445,0,0,1,0,61.885v-47A10.445,10.445,0,0,1,10.444,4.444H83.55A10.445,10.445,0,0,1,93.995,14.889Z" transform="translate(0.001 -4.444)" fill="#006b3f"/>
  <path id="Path_39624" data-name="Path 39624" d="M93.991,30.553H54.828V4.444H39.164V30.553H0V46.218H39.164V72.327H54.828V46.218H93.991Z" transform="translate(0.005 -4.444)" fill="#eee"/>
  <path id="Path_39625" data-name="Path 39625" d="M13.333,4.444h5.222V72.327H13.333Z" transform="translate(25.833 -4.444)" fill="#fcd116"/>
  <path id="Path_39626" data-name="Path 39626" d="M0,13.333H93.993v5.222H0Z" transform="translate(0.003 12.776)" fill="#fcd116"/>
  <path id="Path_39627" data-name="Path 39627" d="M15.111,4.444h5.222V72.327H15.111Z" transform="translate(29.277 -4.444)" fill="#141414"/>
  <path id="Path_39628" data-name="Path 39628" d="M0,15.111H93.993v5.222H0Z" transform="translate(0.003 16.221)" fill="#141414"/>
  <path id="Path_39629" data-name="Path 39629" d="M42,26.331A15.665,15.665,0,1,1,26.332,10.667,15.664,15.664,0,0,1,42,26.331Z" transform="translate(20.668 7.612)" fill="#dd2e44"/>
  <path id="Path_39630" data-name="Path 39630" d="M24.582,11.236,24.142,12.6H22.693l1.178.849-.452,1.369,1.163-.849,1.163.849L25.3,13.445l1.172-.834H25.029ZM16.54,13.844l.446,1.366-1.169.852,1.448,0,.438,1.372.441-1.372,1.442,0-1.169-.852.458-1.363-1.166.846Zm-4.97,6.844,1.163.84L12.287,22.9l1.172-.855,1.163.852-.449-1.372,1.166-.843-1.448,0-.435-1.372-.444,1.375Zm0,8.456,1.436-.006.446,1.375.446-1.381,1.442.006-1.166-.84.449-1.372-1.175.849L12.3,26.921l.446,1.372Zm4.97,6.838,1.16-.846,1.169.852-.449-1.381,1.169-.84-1.442,0L17.7,32.4l-.449,1.375-1.436-.009,1.166.846Zm8.042,2.611.441-1.366h1.445l-1.178-.852.452-1.369-1.163.852-1.163-.852.444,1.375-1.169.837h1.442Zm8.042-2.611-.449-1.366,1.169-.852-1.448,0L31.458,32.4l-.441,1.372-1.442,0,1.169.852-.458,1.366,1.169-.852Zm4.967-6.841-1.163-.84.446-1.375-1.172.855-1.16-.852.446,1.369-1.163.846h1.445l.435,1.372.446-1.372Zm0-8.456-1.433,0-.446-1.375-.446,1.381-1.442-.009,1.166.843L34.54,22.9l1.172-.849,1.154.855-.446-1.375Zm-4.967-6.841-1.16.846-1.169-.849.446,1.378-1.166.84,1.442,0,.444,1.372.449-1.378,1.433.012-1.163-.846Z" transform="translate(22.417 8.714)" fill="#006000"/>
  <path id="Path_39631" data-name="Path 39631" d="M21.289,22.714c-.047-.358-.159-1.7-.179-2.773-.012-.72-1.322-1.686-2.185-1.68-.59-1.207-2.315-2.664-3.475-1.5a5.909,5.909,0,0,0,.47,2.975l1.771.4a1.238,1.238,0,0,0,.446-.6c.05-.015.082-.062.129-.082.329,1.272.984,3.254,1.169,3.73.2.514.493,1.566,1.143,1.751.291.153.693.041.514-1.3.2-.047.241-.561.2-.919Z" transform="translate(29.873 18.587)" fill="#00693f"/>
  <path id="Path_39632" data-name="Path 39632" d="M20.565,14.183a1.163,1.163,0,0,0,.4.7.711.711,0,0,0-.235.335c-.74.637-2.453,5.067-2.482,6.042a8.167,8.167,0,0,1-.555,1.7c-1.14-1.022-2.315-2.937-2.121-3.8a1.847,1.847,0,0,1-.279-.056,6.247,6.247,0,0,0,.079-.7.944.944,0,0,1-.294-.035,7.172,7.172,0,0,0,.068-.764.922.922,0,0,1-.347-.258c.076-.2.279-.593.382-.828a.538.538,0,0,1-.347-.291,1.413,1.413,0,0,0,.411-.505,1.214,1.214,0,0,1-.291-.314,9.023,9.023,0,0,0,.817-.928.942.942,0,0,1-.27-.035,2.83,2.83,0,0,0,.585-.526,1.453,1.453,0,0,0,1.469.073,2.573,2.573,0,0,0,2.218.132,1.809,1.809,0,0,0,.79.05Z" transform="translate(28.679 13.912)" fill="#7d76b6"/>
  <path id="Path_39633" data-name="Path 39633" d="M21.789,25.864c.132-4.735-.673-9.064-1.915-10.642a2.5,2.5,0,0,0-4.162.132,4,4,0,0,0-.035,2.52,26,26,0,0,0,3.528,5.4c1.242,1.21,2.112,2.012,2.585,2.585Z" transform="translate(30.01 14.417)" fill="#00693f"/>
  <path id="Path_39634" data-name="Path 39634" d="M22.106,18.442a2.216,2.216,0,0,1-1.119-.2A2.312,2.312,0,0,0,20,17.928a20,20,0,0,1-2.62-.25,5.961,5.961,0,0,0-1.545-.247c-.358.021-.919.27-1.143.27a.333.333,0,0,0-.335.358.83.83,0,0,0,.311.693,4.184,4.184,0,0,0,1.234-.156,10.78,10.78,0,0,0,2.059.382c.538.018,1.5.065,1.859.047a1.488,1.488,0,0,1,.9.021c.473.159,1.1.493,1.386.582s.47-.2.535-.514a.538.538,0,0,0-.532-.673Z" transform="translate(27.822 20.712)" fill="#ffd420"/>
  <path id="Path_39635" data-name="Path 39635" d="M16.333,13.825c-.012,0-.029.015-.041.015a1.012,1.012,0,0,0-.834-.758c-.819.217-.772,1.73-.035,2.25a1.044,1.044,0,0,1,.2-.681.592.592,0,0,0,.57.4c.388-.138.256-1,.138-1.228Z" transform="translate(28.784 12.29)" fill="#fff"/>
  <path id="Path_39636" data-name="Path 39636" d="M15.59,16.291a1.453,1.453,0,0,0,1.469.073,2.573,2.573,0,0,0,2.218.132,1.792,1.792,0,0,0,.787.053,1.759,1.759,0,0,1,.3-.235,1.865,1.865,0,0,1-.505-.77s.17-.2.235-.3a4.711,4.711,0,0,0-.67-.538,1.349,1.349,0,0,0,.2-.4,2.215,2.215,0,0,1-.808-.47l.035-.2c-.549-.035-.526-.7-1.71-.9-.808-.135-2.015.2-2.083,1.107.449.435,1.134,1.019.74,1.968a1.554,1.554,0,0,1-.4.37.477.477,0,0,0,.191.12Z" transform="translate(29.18 11.549)" fill="#7d76b6"/>
  <path id="Path_39637" data-name="Path 39637" d="M18.219,19.1a.55.55,0,0,1-.446-.47c0-.2.021-.608.4-.652a.452.452,0,0,0-.476-.247.651.651,0,0,0-.67-.182c.009-.012.012-.035.023-.041a.581.581,0,0,0-.658-.029c-.388-.226-.975.059-1.066.767s.27,1.187.784,1.163V19.4a.575.575,0,0,0,.649-.126l0-.05a.516.516,0,0,0,.62.009.52.52,0,0,0,.235.153.627.627,0,0,0,.6-.288Z" transform="translate(29.673 20.636)" fill="#fff"/>
  <path id="Path_39638" data-name="Path 39638" d="M15.905,12.969a.452.452,0,0,0,0,.9A.452.452,0,0,0,15.905,12.969Z" transform="translate(29.952 12.071)" fill="#ffd420"/>
  <path id="Path_39639" data-name="Path 39639" d="M15.685,13.084a.112.112,0,1,0,0,.223A.112.112,0,1,0,15.685,13.084Z" transform="translate(30.172 12.294)"/>
</svg>
