<svg id="DNK" xmlns="http://www.w3.org/2000/svg" width="93.996" height="67.886" viewBox="0 0 93.996 67.886">
  <path id="Path_39621" data-name="Path 39621" d="M83.548,4.444H39.163V33.165h54.83V14.889A10.445,10.445,0,0,0,83.548,4.444ZM39.163,72.33H83.548c5.769,0,10.445-4.676,10.445-11.749V43.61H39.163ZM0,43.61V60.581C0,67.654,4.676,72.33,10.445,72.33H28.721V43.61ZM28.721,4.444H10.445A10.445,10.445,0,0,0,0,14.889V33.165H28.721V4.444Z" transform="translate(0.003 -4.444)" fill="#c60c30"/>
  <path id="Path_39622" data-name="Path 39622" d="M39.165,4.444H28.72V33.165H0V43.61H28.72V72.33H39.165V43.61h54.83V33.165H39.165Z" transform="translate(0.001 -4.444)" fill="#eee"/>
</svg>
