<svg id="DOM" xmlns="http://www.w3.org/2000/svg" width="93.996" height="67.886" viewBox="0 0 93.996 67.886">
  <path id="Path_39640" data-name="Path 39640" d="M93.995,61.885A10.445,10.445,0,0,1,83.55,72.33H10.444A10.445,10.445,0,0,1,0,61.885v-47A10.445,10.445,0,0,1,10.444,4.444H83.55A10.445,10.445,0,0,1,93.995,14.889Z" transform="translate(0.001 -4.444)" fill="#002d62"/>
  <path id="Path_39641" data-name="Path 39641" d="M49.109,4.444H17.777V33.165H59.551V14.889A10.445,10.445,0,0,0,49.106,4.444Z" transform="translate(34.442 -4.444)" fill="#dd2e44"/>
  <path id="Path_39642" data-name="Path 39642" d="M10.443,46.5H41.775V17.778H0V36.054A10.445,10.445,0,0,0,10.446,46.5Z" transform="translate(0.005 21.388)" fill="#ce1225"/>
  <path id="Path_39643" data-name="Path 39643" d="M93.991,30.553H54.828V4.444H39.164V30.553H0V46.218H39.164V72.327H54.828V46.218H93.991Z" transform="translate(0.005 -4.444)" fill="#eee"/>
  <path id="Path_39644" data-name="Path 39644" d="M19.321,14.173H14.316l.875.843v4.321h4.13Zm0,10.278c.667-.726,1.119-.7,3-.7,1,0,1.122-.684,1.122-2.012v-2.4H19.321v5.111Z" transform="translate(27.737 14.404)" fill="#002d62"/>
  <path id="Path_39645" data-name="Path 39645" d="M18.744,24.451c-.667-.726-1.119-.7-3-.7-1.007,0-1.125-.684-1.125-2.012v-2.4h4.13v5.111Zm0-10.278h5l-.875.843v4.321H18.744Z" transform="translate(28.314 14.404)" fill="#ce1225"/>
  <path id="Path_39646" data-name="Path 39646" d="M17.2,23.917V14.174H15.776v9.752a1.777,1.777,0,0,1,.717.526,1.894,1.894,0,0,1,.714-.532Z" transform="translate(30.565 14.406)" fill="#fff"/>
  <path id="Path_39647" data-name="Path 39647" d="M14.613,15.684h8.254v1.428H14.613Z" transform="translate(28.312 17.331)" fill="#fff"/>
  <path id="Path_39648" data-name="Path 39648" d="M18.141,17.513l2.711-2.893V15.5l.5-.42v4.832c0,1.795-2.826,1.615-3.213.787-.388.828-3.216,1-3.216-.787V15.075l.505.42V14.62l2.714,2.893Z" transform="translate(28.917 15.27)" fill="#002d62"/>
  <path id="Path_39649" data-name="Path 39649" d="M18.141,19.864c-1.3.7-2.144.15-2.144-.517v-.831c-.505,0-1.072-.258-1.072-.423v-.714c0,.211.846.405,1.072.405v-2.5l.47.373v-.649l.717.731v.511l-.473-.4v2.115c.488,0,.869.291,1.43.291s.94-.291,1.428-.291V15.849l-.47.4v-.511l.714-.731v.649l.473-.373v2.5c.226,0,1.069-.2,1.069-.405v.714c0,.164-.57.423-1.069.423v.831c0,.667-.846,1.216-2.144.517v-.728c.7.405,1.428.505,1.428.065v-.52c-.488,0-.869.294-1.428.294s-.943-.294-1.43-.294v.52c0,.438.734.341,1.43-.065v.728Z" transform="translate(28.917 16.017)" fill="#fff"/>
  <path id="Path_39650" data-name="Path 39650" d="M17.921,15.257v.511l.47-.4v2.115c-.488,0-.869.291-1.428.291s-.943-.291-1.43-.291V15.369l.473.4v-.511l.958,1.025.958-1.025Z" transform="translate(30.095 16.504)" fill="#ce1225"/>
  <path id="Path_39651" data-name="Path 39651" d="M14.924,16.059v1.063c0,1.795,2.829,1.615,3.216.787.388.828,3.213,1,3.213-.787V16.059c0,.159-.57.42-1.069.42v.831c0,.664-.846,1.213-2.144.517-1.3.7-2.144.15-2.144-.517v-.831C15.491,16.479,14.924,16.221,14.924,16.059Z" transform="translate(28.915 18.057)" fill="#ce1225"/>
  <path id="Path_39652" data-name="Path 39652" d="M21.93,14.746c.05-.129.1-.317.147-.491a9.634,9.634,0,0,0-2.467,0c.047.173.1.361.147.491.032.1-.162.341-.858.3a10.867,10.867,0,0,0-2.229.153c.129.2.176.235.162.388-.018.17-.417.329-1.116.429s-.966.82-1.207,1.856a4.892,4.892,0,0,0-.978-.264c.156-.673.7-2.2,1.375-2.359-.164-.364-.126-.549.505-.843a8.9,8.9,0,0,1,3.108-.558c-.082-.308,0-.432.4-.6a4.913,4.913,0,0,1,1.936-.261,4.9,4.9,0,0,1,1.93.261c.4.17.482.294.4.6a8.882,8.882,0,0,1,3.1.558c.629.294.67.479.505.843.673.153,1.216,1.683,1.372,2.359a4.919,4.919,0,0,0-.975.264c-.241-1.037-.511-1.759-1.21-1.856s-1.1-.258-1.116-.429c-.018-.153.035-.191.159-.388a10.853,10.853,0,0,0-2.226-.153c-.693.041-.887-.2-.858-.3Z" transform="translate(26.212 12.1)" fill="#002d62"/>
  <path id="Path_39653" data-name="Path 39653" d="M18.261,18.206l3.325-2.846.073.085-3.4,2.9Zm0-.32,2.808-3.046.082.082-2.887,3.134Zm0-.417,2.229-3.078.088.065-2.318,3.208Zm0,.737-3.325-2.846-.073.085,3.4,2.9Z" transform="translate(28.797 14.824)" fill="#996b38"/>
  <path id="Path_39654" data-name="Path 39654" d="M17.926,17.885l-2.808-3.046-.082.082,2.887,3.134Zm0-.417L15.694,14.39l-.091.065,2.323,3.208Z" transform="translate(29.132 14.824)" fill="#996b38"/>
  <path id="Path_39655" data-name="Path 39655" d="M21.762,15.574l.479-.25-.317.435c-.026.023-.179-.164-.159-.185Zm-.52-.511.449-.305-.267.47C21.4,15.251,21.222,15.083,21.242,15.063Zm-.579-.446.411-.358-.214.5C20.84,14.79,20.646,14.643,20.664,14.616Zm-5.44.958-.482-.25.32.435c.026.023.179-.164.159-.185Zm.52-.511-.444-.305.27.47c.021.024.2-.144.176-.164Zm.579-.446-.408-.358.209.5C16.146,14.79,16.34,14.643,16.322,14.616Z" transform="translate(28.562 14.568)" fill="#ffce46"/>
  <path id="Path_39656" data-name="Path 39656" d="M15.747,15.742c.129-.106.5-.285.717-.17a.781.781,0,0,1,.781-.247l.458,1.419c-.129.091-.388.044-.549.144-.044.026-.17.1-.191.15a.676.676,0,0,0-.382.026c-.115.035-.2.153-.332.173l-.505-1.492Z" transform="translate(30.503 16.562)" fill="#fff"/>
  <path id="Path_39657" data-name="Path 39657" d="M16.257,17.249l-.514-1.5,0-.009a.826.826,0,0,1,.723-.17.788.788,0,0,1,.781-.247l.464,1.422a.532.532,0,0,1-.267.082.783.783,0,0,0-.285.073c-.059.035-.17.1-.188.147a.773.773,0,0,0-.385.029.453.453,0,0,0-.135.079.507.507,0,0,1-.2.1Zm-.5-1.5.505,1.489a.517.517,0,0,0,.179-.1.571.571,0,0,1,.141-.082.686.686,0,0,1,.388-.023c.009-.05.12-.112.173-.144a.774.774,0,0,1,.3-.082.548.548,0,0,0,.253-.068l-.464-1.41a.789.789,0,0,0-.764.25c-.211-.109-.57.059-.711.167Z" transform="translate(30.502 16.559)"/>
  <path id="Path_39658" data-name="Path 39658" d="M21.541,24.771a4.372,4.372,0,0,1,1.166.176,2.662,2.662,0,0,0-.743-.388,5.712,5.712,0,0,1,.749.194c.179.053.209.07.217.332,0,.176,0,.4.109.035.1-.329.135-.376-.038-.485a3.593,3.593,0,0,0-.681-.352,4.129,4.129,0,0,1,1.151.452,1.943,1.943,0,0,0-.617-.6,4.212,4.212,0,0,1,.958.376,1.939,1.939,0,0,0-.637-.6,4.755,4.755,0,0,1,1.172.385,1.859,1.859,0,0,0-.9-.726,3.348,3.348,0,0,1,1.172.338,2.872,2.872,0,0,0-.881-.664,3.908,3.908,0,0,1,1,.258,2.29,2.29,0,0,0-1.172-.576,6.064,6.064,0,0,1,1.028.1,2.05,2.05,0,0,0-.96-.282,3.1,3.1,0,0,1,1.689.106,4.193,4.193,0,0,0-1.157-.446,5.37,5.37,0,0,1,.834-.038,4.4,4.4,0,0,0-1.134-.191,12.129,12.129,0,0,1,1.287-.294,7.536,7.536,0,0,0-1.624.082,2.28,2.28,0,0,1,1.366-.552c.373-.065.649-.147.264-.185-.25-.023-.455-.044-.629-.047a7.161,7.161,0,0,0,1.087-.473c.17-.091.585-.388.138-.188a6.01,6.01,0,0,1-1.665.3,1.621,1.621,0,0,0-.6.167c.314-.179.667-.37,1.034-.549s.288-.238.608.129c.153.179.144,0-.059-.464-.162-.361-.3-.194-.652-.056a5.4,5.4,0,0,0-.491.229c.2-.244.908-1.057,1.022-1.2s.311.024.552.176.153.009-.068-.247-.326-.291-.473-.167-.849.57-1.242.943c.72-.681,1.557-1.451,1.748-1.668a8.41,8.41,0,0,0-1.116.726c.115-.162.323-.464.435-.593a4.6,4.6,0,0,0-.529.355c.194-.344.4-.661.426-.717a.172.172,0,0,1,.159-.115l.364-.032c.209-.015.129-.059.035-.082-.579-.153-.555-.085-.687.038a5.332,5.332,0,0,0-.355.417,4,4,0,0,1,.655-1,2.685,2.685,0,0,0-.858.652,8.611,8.611,0,0,1,1.052-1.049,2.906,2.906,0,0,0-.737.423c.106-.191.209-.388.3-.593a2.459,2.459,0,0,0-.814.872c.021-.082.056-.209.088-.314a4.416,4.416,0,0,1,.59-.708c.162-.179.2-.226.664.065a1.755,1.755,0,0,0-.238-.455c-.132-.2-.2-.115-.379.035-.1.082-.2.2-.379.355.2-.511.432-1.06.552-1.416a3.8,3.8,0,0,0-.8,1.266,14.1,14.1,0,0,0,.176-1.463,2.274,2.274,0,0,0-.4.919,4.766,4.766,0,0,0-.112-1.163,8.581,8.581,0,0,1-.288,1.187c-.156-.37-.329-.728-.429-.975.009.194.062.64.147,1.166-.129-.405-.6-.828-.62-1.151a7.327,7.327,0,0,0,.364,1.492c.006.073.035.182.059.308a6.5,6.5,0,0,1-.649-1.04,5.819,5.819,0,0,0,.109.743c-.2-.188-.347-.079-.693.573a1.686,1.686,0,0,0,.341-.244c.1-.068.188-.135.294.032a5.481,5.481,0,0,1,.673,1.331,6.2,6.2,0,0,0-.5-.787c.026.088.082.382.123.552a4.3,4.3,0,0,0-.435-.9c-.012.211.147.808.17,1.057-.091-.217-.194-.408-.273-.57a4.4,4.4,0,0,1,.138,1.069,6.757,6.757,0,0,0-.37-.582,4.874,4.874,0,0,1,.167,1.01,2.353,2.353,0,0,0-.117-.214c-.162-.261-.27.211-.364.455s-.047.209.065.041c.17-.258.15-.223.247.059a10.524,10.524,0,0,1,.382,1.09,7.837,7.837,0,0,1-.441-.764c-.1-.229-.115-.214,0,.238a3.686,3.686,0,0,1,.182,1.428c-.106-.37-.241-.814-.388-1.213.021.253.053.734.053.937a1.016,1.016,0,0,0-.217-.288,5.315,5.315,0,0,1,.132,1.3,2.481,2.481,0,0,0-.22-.6,6.734,6.734,0,0,0,.132,1.19,2.8,2.8,0,0,0-.235-.62,2.964,2.964,0,0,1-.015,1.125,2,2,0,0,0-.126-.493,2.977,2.977,0,0,1-.17.784,2.154,2.154,0,0,0,.041-.7,4.069,4.069,0,0,1-.311.822,3.7,3.7,0,0,0,.109-.69,2.494,2.494,0,0,1-.214.455,2.776,2.776,0,0,0,.029-.535,3.224,3.224,0,0,1-.532,1.022,2.612,2.612,0,0,0,.159-.89,5.759,5.759,0,0,1-.558.963,1.273,1.273,0,0,0,.106-.846,3.86,3.86,0,0,1-.308.658,2.391,2.391,0,0,1,.079-.872.878.878,0,0,0-.341.585,1.2,1.2,0,0,0-.261-.535c.112.725.07,1.357-.364,1.648-.972.637-1.795,2.05-2.981,2.573a2.082,2.082,0,0,1,.376.326c1.137-.5,1.9-1.633,2.782-2.265.417-.223,1.375.279,2.432.006a3.278,3.278,0,0,1,1.557.276,1.644,1.644,0,0,0-1.06-.523Z" transform="translate(29.915 15.126)" fill="#549334"/>
  <path id="Path_39659" data-name="Path 39659" d="M17.7,23.907a4.5,4.5,0,0,1,1.157.041c-.282-.106-.1-.778-.444-1.028a1.611,1.611,0,0,0,.684.135l.065.018a.651.651,0,0,1,.082-.388c.047.176.244.217.411.347a.6.6,0,0,1,.085.073c.009-.211.314-.488.347-.626.065.188.238.32.3.587.162.684-.373.828-.176,1.316.972.637,1.836,1.909,3.02,2.435a1.98,1.98,0,0,0-.373.326c-1.574-.7-2.591-2.714-4.03-2.814l-.109.044a1.623,1.623,0,0,1-1.007.235,1.4,1.4,0,0,0-.861.156c.4-.62.605-.8.852-.861a1.339,1.339,0,0,1-.908.018,1.085,1.085,0,0,1-.969.6,1,1,0,0,0-.764.408,1.4,1.4,0,0,1,.026-.611,2.042,2.042,0,0,0-.593.012c.223-.085.423-.717.966-.79a1,1,0,0,1-.267-.256c.129.073.244-.009.479-.07a1.644,1.644,0,0,1,.479-.053.965.965,0,0,1-.358-.532,1.13,1.13,0,0,1-1.046.667.814.814,0,0,0-.649.261,1.022,1.022,0,0,1,.167-.567,1.645,1.645,0,0,0-.394.056,1.026,1.026,0,0,1,.446-.72,1.028,1.028,0,0,1-.585-.77c.188.217.958-.009,1.334.411a1.055,1.055,0,0,1-.385-.749c.085.115.27.117.455.223-.253-.919-.89-.714-1.266-1-.479-.376-.285-1.025-.667-1.334a1.85,1.85,0,0,1,.417.038,2.457,2.457,0,0,1-.07-.825c.091.294.414.253.62.538a.409.409,0,0,0,.038-.238,3.067,3.067,0,0,1,.367.488.664.664,0,0,1,.194-.573,1.357,1.357,0,0,0,.147.62,1.378,1.378,0,0,1,.079.966,1.333,1.333,0,0,0,.305,1.06,3.369,3.369,0,0,0-.059-.9,1.7,1.7,0,0,1-.026-.773,1.366,1.366,0,0,0,.35.479.394.394,0,0,1,.091.162c.053-.115.085-.2.126-.3.053-.147-.623-.391-.587-1.154a1.712,1.712,0,0,1-.975-1.2.751.751,0,0,0,.25.129,1.365,1.365,0,0,1-.226-1.081c.059.2.258.247.473.4.053-.405-.376-.7-.364-1.087.015-.617.341-.623.452-1.007a1.889,1.889,0,0,1,.2.411c.073-.258.388-.452.391-.646a.876.876,0,0,1,.194.764.735.735,0,0,1,.59.079c-.4.073-.373.552-.634.673s-.749.464-.626.981a1.821,1.821,0,0,1,.4.952.927.927,0,0,1,.2.279,1.9,1.9,0,0,0,.173-.388c-.024-.2-.294-.429-.364-.626-.1-.264.135-.667.041-1.022a1.1,1.1,0,0,1,.5.326c.12-.282.352-.458.358-.931a2.826,2.826,0,0,1,.229.59,1.421,1.421,0,0,1,.7-.508,1.66,1.66,0,0,0-.129.911,1.2,1.2,0,0,1-.405,1.013c-.388.3-.491.385-.576,1.143.164-.358.558-.634.576-.825a3.117,3.117,0,0,1,.135.834.884.884,0,0,1,.643-.253c-.2.223-.341,1.11-.861,1.213s-.726.632-.866.846a.708.708,0,0,0-.044.831,1.807,1.807,0,0,1,.141-.773c.173-.344.543-.488.567-.731a2.508,2.508,0,0,1,.065.629c.261-.529.811-.376.966-.529a1.4,1.4,0,0,0-.27.62,1,1,0,0,1-.576.7c-.241.115-.449.132-.576.382-.032.147.094.27.094.491a.474.474,0,0,1,.073-.209,1.082,1.082,0,0,0,.247-.5.916.916,0,0,1,.294.981c-.106.344-.182.623.029.893a1.177,1.177,0,0,0,.408.226c.173-.173-.029-.382-.223-.585a.786.786,0,0,1-.015-.875,1.022,1.022,0,0,0,.294-.585,1.275,1.275,0,0,1,.291.4.751.751,0,0,1,.276-.37c.026.285.211.414.211.723a.716.716,0,0,1,.408-.408c-.041.156.1.394.123.543a.792.792,0,0,1-.059.4.763.763,0,0,1-.4.432c-.076.035-.194.073-.311.129.276-.035.781.056.9.261a1.637,1.637,0,0,0-.872.176Z" transform="translate(25.581 15.256)" fill="#549334"/>
  <path id="Path_39660" data-name="Path 39660" d="M17,18.457a.365.365,0,0,0-.256-.068.372.372,0,0,0-.253.068c-.511-.176-.843-.1-.843.059v.491c0,.082.188.188.881.021a.439.439,0,0,0,.444,0v0c.693.17.881.062.881-.021v-.491c0-.162-.335-.241-.855-.059Z" transform="translate(30.316 22.5)" fill="#ce1225"/>
  <path id="Path_39661" data-name="Path 39661" d="M18.178,18.381a2.084,2.084,0,0,1,.623.144,5.564,5.564,0,0,0-.076.587,1.451,1.451,0,0,0-.543-.182v-.549Zm-2.1,0a2.084,2.084,0,0,0-.623.144,4.913,4.913,0,0,1,.079.587,1.436,1.436,0,0,1,.54-.182v-.549Z" transform="translate(29.938 22.556)" fill="#ce1225"/>
  <path id="Path_39662" data-name="Path 39662" d="M20.952,18.972a17.569,17.569,0,0,1,3.619.294c-.115.088-.217.206-.294.264s-.056.276.141.452a1.148,1.148,0,0,0,1.143.109l.27-.12c-.132.112-.244.261-.182.4.279.623,1.354-.2,2,.59.173-.22.6-.676.781-.846a1.346,1.346,0,0,0-1.3-.338c.153-.253.17-.446-.167-.687a1.385,1.385,0,0,0-1.043.112c.079-.2.065-.538-.605-.834a12.234,12.234,0,0,0-4.365-.552,12.268,12.268,0,0,0-4.371.552c-.67.294-.687.629-.6.834a1.378,1.378,0,0,0-1.046-.112c-.335.241-.317.435-.162.687a1.345,1.345,0,0,0-1.3.338c.176.173.611.626.778.846.643-.787,1.721.035,2-.59.062-.141-.047-.288-.176-.4l.27.12a1.153,1.153,0,0,0,1.143-.109c.2-.176.226-.379.141-.452s-.176-.176-.294-.264a18,18,0,0,1,3.622-.294Z" transform="translate(26.106 21.459)" fill="#ce1225"/>
</svg>
