<svg id="DZA" xmlns="http://www.w3.org/2000/svg" width="93.993" height="67.889" viewBox="0 0 93.993 67.889">
  <path id="Path_39663" data-name="Path 39663" d="M10.445,4.444A10.445,10.445,0,0,0,0,14.889v47A10.445,10.445,0,0,0,10.445,72.33H47V4.447H10.445Z" transform="translate(0 -4.441)" fill="#006233"/>
  <path id="Path_39664" data-name="Path 39664" d="M52.551,4.446H16V72.329H52.551A10.445,10.445,0,0,0,63,61.884v-47A10.445,10.445,0,0,0,52.551,4.443Z" transform="translate(30.996 -4.443)" fill="#eee"/>
  <path id="Path_39665" data-name="Path 39665" d="M33.885,44.325A15.664,15.664,0,1,1,43.04,15.968a19.2,19.2,0,1,0,0,25.39,15.56,15.56,0,0,1-9.156,2.973Z" transform="translate(18.334 5.286)" fill="#d20f34"/>
  <path id="Path_39666" data-name="Path 39666" d="M33.493,22.184l-6.371,1.469-.576,6.509-3.363-5.6-6.371,1.466L21.1,21.095l-3.36-5.6,6.013,2.558,4.291-4.932-.576,6.512Z" transform="translate(32.57 12.361)" fill="#d20f34"/>
</svg>
