<svg id="ECU" xmlns="http://www.w3.org/2000/svg" width="93.996" height="67.886" viewBox="0 0 93.996 67.886">
  <path id="Path_39676" data-name="Path 39676" d="M93.995,61.885A10.445,10.445,0,0,1,83.55,72.33H10.444A10.445,10.445,0,0,1,0,61.885v-47A10.445,10.445,0,0,1,10.444,4.444H83.55A10.445,10.445,0,0,1,93.995,14.889Z" transform="translate(0.001 -4.444)" fill="#ed1c23"/>
  <path id="Path_39677" data-name="Path 39677" d="M0,15.111H93.993V33.387H0Z" transform="translate(0.003 16.221)" fill="#034ea2"/>
  <path id="Path_39678" data-name="Path 39678" d="M93.995,35.776V14.889A10.445,10.445,0,0,0,83.55,4.444H10.444A10.445,10.445,0,0,0,0,14.889V35.776H93.992Z" transform="translate(0.001 -4.444)" fill="#fd0"/>
  <path id="Path_39679" data-name="Path 39679" d="M37.664,25.5a5.224,5.224,0,0,1-5.222,5.222H16.777A5.224,5.224,0,0,1,11.555,25.5V17.666a5.224,5.224,0,0,1,5.222-5.222H32.442a5.224,5.224,0,0,1,5.222,5.222Z" transform="translate(22.388 11.054)" fill="#fd0"/>
  <path id="Path_39680" data-name="Path 39680" d="M33.334,21.167C33.334,24.048,31,29,28.111,29H17.666c-2.881,0-5.222-4.949-5.222-7.834V18.555a5.224,5.224,0,0,1,5.222-5.222H28.111a5.224,5.224,0,0,1,5.222,5.222Z" transform="translate(24.11 12.776)" fill="#034ea2"/>
  <path id="Path_39681" data-name="Path 39681" d="M29,21.167C29,24.048,26.662,29,23.778,29H18.555c-2.881,0-5.222-4.949-5.222-7.834V18.555a5.224,5.224,0,0,1,5.222-5.222h5.222A5.224,5.224,0,0,1,29,18.555Z" transform="translate(25.833 12.776)" fill="#ed1c23"/>
  <path id="Path_39682" data-name="Path 39682" d="M26.335,12.564c-.347,1.275-2.508,2.259-5.152,2.259s-4.805-.984-5.152-2.259c-3.146.449-2.682,1.287-2.682,2.259,0,1.442,2.065,2.611,7.834,2.611s7.834-1.169,7.834-2.611C29.016,13.851,29.48,13.013,26.335,12.564Z" transform="translate(25.817 11.287)" fill="#6dbe46"/>
  <path id="Path_39683" data-name="Path 39683" d="M20.333,23.778a2.611,2.611,0,0,1-5.222,0V15.944a2.611,2.611,0,0,1,5.222,0Z" transform="translate(29.277 12.776)" fill="#a6d388"/>
  <path id="Path_39684" data-name="Path 39684" d="M33.311,12.607a15.133,15.133,0,0,1,3.255.358c-1.627-2.808-7.17-5.581-12.392-.358-5.222-5.222-10.765-2.453-12.392.358a15.112,15.112,0,0,1,3.255-.358c5.046,0,9.138,2.338,9.138,5.222C24.173,14.948,28.262,12.607,33.311,12.607Z" transform="translate(22.826 5.672)" fill="#662113"/>
  <path id="Path_39685" data-name="Path 39685" d="M24.667,21.583c0,5.046-2.338,9.138-5.222,9.138s-5.222-4.092-5.222-9.138,2.338-9.138,5.222-9.138S24.667,16.537,24.667,21.583Z" transform="translate(27.555 11.056)" fill="#8ed2e7"/>
  <path id="Path_39686" data-name="Path 39686" d="M18.138,15.111a9.051,9.051,0,0,0-3.892.9c0,.135-.024.267-.024.405,0,5.046,2.338,9.138,5.222,9.138,2.62,0,4.764-3.381,5.143-7.778a9.122,9.122,0,0,0-6.45-2.667Z" transform="translate(27.557 16.221)" fill="#6dbe46"/>
  <path id="Path_39687" data-name="Path 39687" d="M29,21.278c0,1.442-3.507,2.611-7.834,2.611s-7.834-1.169-7.834-2.611,3.507-2.611,7.834-2.611S29,19.836,29,21.278Z" transform="translate(25.833 23.11)" fill="#ffcc4d"/>
  <path id="Path_39688" data-name="Path 39688" d="M24.667,23.888c0,2.162-2.338,2.611-5.222,2.611s-5.222-.449-5.222-2.611,2.338-5.222,5.222-5.222S24.667,21.727,24.667,23.888Z" transform="translate(27.555 23.108)" fill="#034ea2"/>
  <path id="Path_39689" data-name="Path 39689" d="M15.111,23.888c0-2.162,1.169-5.222,2.611-5.222s2.611,3.061,2.611,5.222S19.164,26.5,17.722,26.5,15.111,26.05,15.111,23.888Z" transform="translate(29.277 23.108)" fill="#ed1c23"/>
  <path id="Path_39690" data-name="Path 39690" d="M15.111,10.2c0-1.442,1.169,0,2.611,0s2.611-1.442,2.611,0a2.611,2.611,0,0,1-5.222,0Z" transform="translate(29.277 5.467)" fill="#ccd6dd"/>
  <path id="Path_39691" data-name="Path 39691" d="M20.333,16.416c0,.72-1.169,1.3-2.611,1.3s-2.611-.585-2.611-1.3,1.169-1.3,2.611-1.3S20.333,15.7,20.333,16.416Z" transform="translate(29.277 16.223)" fill="#fff"/>
  <path id="Path_39692" data-name="Path 39692" d="M15.888,14.638c0,.72-1.169,1.3-2.611,1.3s-2.611-.585-2.611-1.3,1.169-1.3,2.611-1.3S15.888,13.919,15.888,14.638Z" transform="translate(20.666 12.778)" fill="#c1694f"/>
  <path id="Path_39693" data-name="Path 39693" d="M16.777,12.86c0,.72-1.169,1.3-2.611,1.3s-2.611-.585-2.611-1.3,1.169-1.3,2.611-1.3S16.777,12.141,16.777,12.86Z" transform="translate(22.388 9.334)" fill="#c1694f"/>
  <path id="Path_39694" data-name="Path 39694" d="M24.777,14.638c0,.72-1.169,1.3-2.611,1.3s-2.611-.585-2.611-1.3,1.169-1.3,2.611-1.3S24.777,13.919,24.777,14.638Z" transform="translate(37.886 12.778)" fill="#c1694f"/>
  <path id="Path_39695" data-name="Path 39695" d="M23.888,12.86c0,.72-1.169,1.3-2.611,1.3s-2.611-.585-2.611-1.3,1.169-1.3,2.611-1.3S23.888,12.141,23.888,12.86Z" transform="translate(36.164 9.334)" fill="#c1694f"/>
</svg>
