<svg id="EGY" xmlns="http://www.w3.org/2000/svg" width="93.996" height="67.886" viewBox="0 0 93.996 67.886">
  <path id="Path_39699" data-name="Path 39699" d="M93.995,61.885A10.445,10.445,0,0,1,83.55,72.33H10.444A10.445,10.445,0,0,1,0,61.885v-47A10.445,10.445,0,0,1,10.444,4.444H83.55A10.445,10.445,0,0,1,93.995,14.889Z" transform="translate(0.001 -4.444)" fill="#141414"/>
  <path id="Path_39700" data-name="Path 39700" d="M0,11.556H93.993V37.665H0Z" transform="translate(0.003 9.334)" fill="#eee"/>
  <path id="Path_39701" data-name="Path 39701" d="M83.55,4.444H10.444A10.445,10.445,0,0,0,0,14.889V25.334H93.992V14.889A10.445,10.445,0,0,0,83.547,4.444Z" transform="translate(0.001 -4.444)" fill="#ce1225"/>
  <path id="Path_39702" data-name="Path 39702" d="M13.111,20.151a1.3,1.3,0,0,0,.611.978.652.652,0,0,0,.449.775c.611.285,2.814.734,6.65.734s6-.408,6.568-.693A1.19,1.19,0,0,0,28,21.009s.611-.326.573-.734-.858-.858-.858-.858a1.378,1.378,0,0,0-.775-.734c-.573-.2-2.409.9-5.916.734s-5.507-.693-6.159-.652a1.2,1.2,0,0,0-.937.693S13.19,19.784,13.111,20.151Z" transform="translate(25.403 23.091)" fill="#bf9300"/>
  <path id="Path_39703" data-name="Path 39703" d="M13.268,19.937c-.035.244.491.775.491.775a.831.831,0,0,0,.529.775,24.563,24.563,0,0,0,6.2.529c3.51-.041,6-.247,6.283-.491a2.765,2.765,0,0,0,.529-.775s.573-.408.529-.734-.858-.529-.858-.529a2.218,2.218,0,0,0-.5-.693c-.273-.2-2.027.814-5.781.814a26.28,26.28,0,0,1-6.159-.858c-.367.041-.611.734-.611.734s-.614.167-.655.452Z" transform="translate(25.695 23.268)" fill="#eee"/>
  <path id="Path_39704" data-name="Path 39704" d="M29.868,17.488s-.082-1.915-1.836-1.674-1.877,1.1-3.754,1.3l-.388.035a8.335,8.335,0,0,1-.511-2.646c0-1.225.367-1.754-.9-2.365s-1.51-.041-1.51-.041-.978-.491-1.428-.123-.2,1.3,0,1.022,1.022.529,1.022.529a5.3,5.3,0,0,1-1.046,3.639c-.185-.018-.335-.026-.543-.05-1.877-.2-2-1.06-3.754-1.3s-1.836,1.674-1.836,1.674L12.694,32.3l1.428-1.1.009-.176L17.1,28.38l.5-.5-1.231,3.6s-1.877-.123-1.348,1.386c0,0,.285-.858.775-.693s1.915.529,1.915.529l.491.775.611-.573,1.915-.082s.611.162.573.693a1.157,1.157,0,0,0,.1-.74l.576-.038a1.159,1.159,0,0,0,.088.781c-.041-.529.573-.693.573-.693l1.915.082.614.573.491-.775s1.425-.367,1.915-.529.775.693.775.693C28.873,31.358,27,31.481,27,31.481l-1.172-3.428.329.329,2.973,2.641.009.176,1.428,1.1Zm-8.11,8.976c-2.943-1.818-3.184-6.4-3.184-6.4a6.837,6.837,0,0,0,3.14-1.022,5.084,5.084,0,0,0,3.222.937S24.8,24.582,21.758,26.465Zm6.723-9.546-2.488,2.365-.417.167A5.935,5.935,0,0,1,21.753,18.3a8.224,8.224,0,0,1-3.874,1.225l-.347-.138-2.755-2.473-.723.3a.864.864,0,0,1,1.093-.828c1.472.211,2.08,1.022,3.63,1.184l.438.044-.153.2a4.565,4.565,0,0,0,.858-.129l.294.029-.132.464a3.709,3.709,0,0,0,.761-.4l.679.065.153.214.517-.258.347-.035a5.3,5.3,0,0,0,.728.332l.082-.408a2.086,2.086,0,0,0,.978.247,1.481,1.481,0,0,1-.214-.329l.376-.038c1.551-.162,2.156-.972,3.63-1.184a.863.863,0,0,1,1.093.828l-.726-.294Z" transform="translate(24.595 9.887)" fill="#bf9300"/>
  <path id="Path_39705" data-name="Path 39705" d="M18.026,18.164,16.558,23.75l-2.447-.488,2.529-7.179Zm1.827,0,1.469,5.587,2.45-.488-2.529-7.179Z" transform="translate(27.34 18.106)" fill="#eee"/>
  <path id="Path_39706" data-name="Path 39706" d="M14.9,15.143a11.65,11.65,0,0,0,1.263,4.2V14.611a5.2,5.2,0,0,1-1.263.529Zm5.1.082a11.65,11.65,0,0,1-1.263,4.2V14.693A5.139,5.139,0,0,0,20,15.222Z" transform="translate(28.874 15.252)" fill="#bf9300"/>
  <path id="Path_39707" data-name="Path 39707" d="M15.069,12.116s.285-.285,1.1.285c.529.37,1,.652,1,.652a.989.989,0,0,1,.825-.27c.491.082.217.764.3,2.188a3.369,3.369,0,0,0,.652,2.038L18.25,16.6l.041.449-.775-.367-.367.529-.367-.573-.6.364-.179-.485-.693.367a5.387,5.387,0,0,0,1.1-2.652,11.851,11.851,0,0,0-.082-1.348s-.649-.811-1.263-.77Z" transform="translate(29.196 10.281)" fill="#eee"/>
  <path id="Path_39708" data-name="Path 39708" d="M14.009,19.282c-.467.279-.285.449,0,.573a29,29,0,0,0,5.466.408,20.252,20.252,0,0,0,6.036-.491c.285-.164.326-.449-.162-.529s-2.937.326-5.916.326c-3.672,0-5.222-.408-5.425-.285Z" transform="translate(26.588 24.207)" fill="#bf9300"/>
</svg>
