<svg id="ERI" xmlns="http://www.w3.org/2000/svg" width="93.993" height="67.886" viewBox="0 0 93.993 67.886">
  <path id="Path_39715" data-name="Path 39715" d="M81.775,4.444H8.669A10.38,10.38,0,0,0,.915,7.951V38.387h91.3v-23.5A10.445,10.445,0,0,0,81.772,4.444Z" transform="translate(1.773 -4.444)" fill="#3e9a00"/>
  <path id="Path_39716" data-name="Path 39716" d="M81.775,49.943H8.669A10.38,10.38,0,0,1,.915,46.436V16h91.3V39.5A10.445,10.445,0,0,1,81.772,49.943Z" transform="translate(1.773 17.943)" fill="#4289de"/>
  <path id="Path_39717" data-name="Path 39717" d="M2.691,5.638A10.372,10.372,0,0,0,0,12.576v47A10.378,10.378,0,0,0,2.691,66.51l91.3-30.436L2.691,5.638Z" transform="translate(0 -2.131)" fill="#eb0438"/>
  <path id="Path_39718" data-name="Path 39718" d="M23.307,43.514c-1.193.491-5.222.814-6.2,0S19.065,40.9,19.065,40.9a18.59,18.59,0,0,1-6.447-1.06c-3.51-1.222-5.14-3.425-6.773-3.425,1.06-1.06,4.65.734,4.65.734s-6.447-3.02-6.773-7.425a9.057,9.057,0,0,0,4.324,3.51S2.9,29.565,4.62,24.178a11.388,11.388,0,0,0,1.469,2.855S4.129,21,6.335,17.569c.734.652.978,4.814.978,4.814a24.673,24.673,0,0,1,.247-6.2,4.748,4.748,0,0,1,2.282-3.02L9.108,17.24a10.011,10.011,0,0,0,2.038-2.121c.57-.978,3.263-4.57,5.222-4.814.247.573-1.551,2.285-1.551,2.285s4.814-2.45,7.017-1.386c-1.3,1.225-5.384,1.712-5.384,1.712s2.121.978,3.1.247c-.247.734-1.877,1.3-3.02,1.06a2.84,2.84,0,0,0-2.206.734s1.642.693,2.365,0c-.491,1.551-2.937,1.225-3.754,1.225s-3.754,1.959-3.754,3.346A5.159,5.159,0,0,0,11.47,17.49,2.669,2.669,0,0,1,10,20.914a3.309,3.309,0,0,0-2.2,3.1A2.35,2.35,0,0,0,9.27,22.383c1.386.652-.408,1.8-.814,2.45a13.73,13.73,0,0,0-.491,3.589s.734-2.529.9-2.855,1.389,2.282.9,3.425-.978,3.51-.247,4.814c.491-.326.164-2.855.164-2.855s1.712,1.551,1.8,3.1c.491.408.491-.978.491-.978a37.364,37.364,0,0,1,1.551,3.672c.408,1.307,2.773,2.45,3.915,2.365a5.36,5.36,0,0,1,2.529.734,36.647,36.647,0,0,1-.491-4.077,23.846,23.846,0,0,1,.162-2.529s-4.9,2.365-5.061-2.2a2.746,2.746,0,0,0,2.773.9s-3.02-.573-2.855-3.263a3.388,3.388,0,0,0,2.45,1.225,2.7,2.7,0,0,1-1.225-2.688c1.877.32,2.937,3.178,2.937,3.178s.162-2.356.082-3.178-.162-2.37-.162-2.37-3.02,1.3-3.51-2.691a1.446,1.446,0,0,0,1.712.652,3.45,3.45,0,0,1-.978-3.754,4.229,4.229,0,0,0,1.877,2.285,7.094,7.094,0,0,1-.573-2.038c1.143,0,2.365,1.143,2.121,3.672a4.156,4.156,0,0,0,.978-4.324c-1.386.491-2.611-1.3-2.611-1.3s1.712.652,2.038-.573A1.866,1.866,0,0,1,17.1,15.7s1.8-.652,2.691,0c.652-.491.247-1.551.247-1.551a1.832,1.832,0,0,1,.814,3.1,11.389,11.389,0,0,1,.326,2.691s.814-2.529,2.855-2.691a1.967,1.967,0,0,0-.734,2.2s1.472-.247,1.633-1.146c1.877,1.551-1.8,3.425-1.8,3.425A1.755,1.755,0,0,0,25.093,21c1.143,1.877-1.8,2.365-2.937,1.959s-1.8-.491-2.038.247a23.7,23.7,0,0,0-.491,3.836,14.935,14.935,0,0,1,1.3-3.346,6.606,6.606,0,0,0,.326,2.365s2.611.082,1.959-2.365c2.529-.162-.491,3.513-.491,3.513a2.361,2.361,0,0,0,2.738,0c.529,2.279-2,1.789-2.9,1.789s-3.1-.162-2.773,1.386,1.146,4.488,1.146,4.488a10.3,10.3,0,0,1,.978-3.1c.731-1.3,1.712-1.712,1.3.326,1.06-.162,1.877-1.959,1.877-1.959s1.225,2.2-1.386,3.754c.573.573,1.83-.978,1.83-.978s.294,2.285-1.665,2.937-2.691.247-2.855,1.469a8.315,8.315,0,0,0,0,2.2,4.027,4.027,0,0,0,2.529-.814c1.551-.978,2.773-.082,3.754-1.143s1.143-4,2.773-5.061a15.685,15.685,0,0,1,0,2.121A2.807,2.807,0,0,0,31.3,32.59a3.419,3.419,0,0,1,.652-2.365c.405-.488-.491-1.621-.573-3.014a2.533,2.533,0,0,1,.676-2.044s.464,3.1,1.527,4.162c.814-2.611-.652-3.836-.978-5.3s.573-1.551-.978-2.611-2.45-2.611-1.877-4.324c1.06,2.365,2.45,2.529,2.45,2.529S30.726,15.95,29.91,16.2s-2.855,1.225-4.324-.247c2.038.082,2.365-.326,2.365-.326a1.737,1.737,0,0,0-2.365-.978,5.248,5.248,0,0,1-4.976-1.469c1.386.408,1.8.162,1.8.162l-1.386-.9a4.735,4.735,0,0,0,1.959,0c.817-.247,1.06-.814,2.121.082a21.541,21.541,0,0,0,2.611,1.8s-2.691-1.8-2.529-4c3.346.978,4.241,4,5.061,4.488a6.511,6.511,0,0,1,2.523,3.1c.408-1.551-1.225-4.241-1.225-4.241s2.855.247,3.02,7.261c.734-.491,0-4,0-4s2.611,1.3,1.959,4.976a15.565,15.565,0,0,1-1.712,5.308,3.419,3.419,0,0,0,1.818-2.535c1.853,1.8.385,4.732-2.635,8.565,3.454-1.633,3.454-4.324,3.454-4.324a5.913,5.913,0,0,1-2.312,5.713,15.531,15.531,0,0,1-4.406,2.45,25.723,25.723,0,0,1,3.02.408c-.491,2.773-10.037,3.184-11.831,3.425,2.206,1.3,2.118,2.315,1.392,2.611Z" transform="translate(7.209 6.91)" fill="#ffc827"/>
</svg>
