<svg id="ESH" xmlns="http://www.w3.org/2000/svg" width="93.999" height="67.886" viewBox="0 0 93.999 67.886">
  <path id="Path_39709" data-name="Path 39709" d="M83.55,4.444H10.444A10.445,10.445,0,0,0,0,14.889V26.638H93.992V14.889A10.445,10.445,0,0,0,83.547,4.444Z" transform="translate(0.001 -4.444)" fill="#141414"/>
  <path id="Path_39710" data-name="Path 39710" d="M0,31.749A10.445,10.445,0,0,0,10.445,42.194H83.551A10.445,10.445,0,0,0,94,31.749V20H0V31.749Z" transform="translate(0.003 25.692)" fill="#007a3d"/>
  <path id="Path_39711" data-name="Path 39711" d="M0,12H93.993V35.5H0Z" transform="translate(0.003 10.194)" fill="#eee"/>
  <path id="Path_39712" data-name="Path 39712" d="M2.949,5.532A10.4,10.4,0,0,0,0,12.781v47a10.4,10.4,0,0,0,2.949,7.249L31.332,36.279,2.949,5.532Z" transform="translate(0.003 -2.336)" fill="#c4111b"/>
  <path id="Path_39713" data-name="Path 39713" d="M18.145,22A9.055,9.055,0,0,1,25.5,13.109a9.052,9.052,0,1,0-1.7,17.944,9.266,9.266,0,0,0,1.7-.162A9.05,9.05,0,0,1,18.145,22Z" transform="translate(28.578 12.029)" fill="#c4111b"/>
  <path id="Path_39714" data-name="Path 39714" d="M18.544,25.685l3.86-2.761,3.83,2.8L24.8,21.2l3.845-2.776L23.9,18.392l-1.451-4.518-1.5,4.5-4.744-.015,3.818,2.817-1.48,4.506Z" transform="translate(31.404 13.824)" fill="#c4111b"/>
</svg>
