<svg id="ESP" xmlns="http://www.w3.org/2000/svg" width="93.996" height="67.886" viewBox="0 0 93.996 67.886">
  <path id="Path_39667" data-name="Path 39667" d="M93.995,61.885A10.445,10.445,0,0,1,83.55,72.33H10.444A10.445,10.445,0,0,1,0,61.885v-47A10.445,10.445,0,0,1,10.444,4.444H83.55A10.445,10.445,0,0,1,93.995,14.889Z" transform="translate(0.001 -4.444)" fill="#c60a1d"/>
  <path id="Path_39668" data-name="Path 39668" d="M0,10.667H93.993V42H0Z" transform="translate(0.003 7.612)" fill="#ffc400"/>
  <path id="Path_39669" data-name="Path 39669" d="M8,15.111v7.834a7.834,7.834,0,0,0,15.667,0V15.111H8Z" transform="translate(15.501 16.221)" fill="#ea596e"/>
  <path id="Path_39670" data-name="Path 39670" d="M10.667,14.222H18.5v7.834H10.667Z" transform="translate(20.668 14.499)" fill="#f4a2b2"/>
  <path id="Path_39671" data-name="Path 39671" d="M8,14.222h7.834v7.834H8Z" transform="translate(15.501 14.499)" fill="#dd2e44"/>
  <path id="Path_39672" data-name="Path 39672" d="M23.666,15.471c0,2.162-3.507,3.915-7.834,3.915S8,17.633,8,15.471s3.507-3.915,7.834-3.915S23.666,13.31,23.666,15.471Z" transform="translate(15.499 9.334)" fill="#ea596e"/>
  <path id="Path_39673" data-name="Path 39673" d="M23.666,13.514c0,1.081-3.507,1.959-7.834,1.959S8,14.6,8,13.514s3.507-1.959,7.834-1.959S23.666,12.43,23.666,13.514Z" transform="translate(15.499 9.332)" fill="#ffac33"/>
  <path id="Path_39674" data-name="Path 39674" d="M6.222,14.222H8.833V32.5H6.222Zm23.5,0h2.611V32.5H29.72Z" transform="translate(12.057 14.499)" fill="#99aab5"/>
  <path id="Path_39675" data-name="Path 39675" d="M5.333,31.612h7.834v2.611H5.333Zm23.5,0h7.834v2.611H28.831ZM7.944,13.333h2.611v2.611H7.944Zm23.5,0h2.611v2.611H31.442Z" transform="translate(10.334 12.776)" fill="#66757f"/>
</svg>
