<svg id="ETH" xmlns="http://www.w3.org/2000/svg" width="93.999" height="67.886" viewBox="0 0 93.999 67.886">
  <path id="Path_39728" data-name="Path 39728" d="M0,11.556H93.993V37.665H0Z" transform="translate(0.003 9.334)" fill="#fcdd0a"/>
  <path id="Path_39729" data-name="Path 39729" d="M83.55,4.444H10.444A10.445,10.445,0,0,0,0,14.889V25.334H93.992V14.889A10.445,10.445,0,0,0,83.547,4.444Z" transform="translate(0.001 -4.444)" fill="#088930"/>
  <path id="Path_39730" data-name="Path 39730" d="M10.443,41.334H83.549A10.445,10.445,0,0,0,93.994,30.889V20.444H0V30.889A10.445,10.445,0,0,0,10.446,41.334Z" transform="translate(0.005 26.552)" fill="#da1219"/>
  <path id="Path_39731" data-name="Path 39731" d="M55,31.5A23.5,23.5,0,1,1,31.5,8,23.5,23.5,0,0,1,55,31.5Z" transform="translate(15.501 2.445)" fill="#0f47af"/>
  <path id="Path_39732" data-name="Path 39732" d="M13.522,34.691l4.488-14.44L10.878,15.07H13.9l9.863,7.555-1.551.937L19.8,21.394,15.968,32.9Z" transform="translate(21.077 16.141)" fill="#fcdd0a"/>
  <path id="Path_39733" data-name="Path 39733" d="M32.93,30.875,20.581,22.142l-7.108,5.143.931-2.873L24.755,17.04l.411,1.765L22.22,20.788l9.764,7.2Z" transform="translate(26.104 19.958)" fill="#fcdd0a"/>
  <path id="Path_39734" data-name="Path 39734" d="M32.729,13.958l-11.8,8.8,2.644,8.412-2.441-1.768-3.818-12.1,1.809.153,1.031,3.322,9.661-6.911Z" transform="translate(33.545 13.823)" fill="#fcdd0a"/>
  <path id="Path_39735" data-name="Path 39735" d="M29.092,8.951l4.855,14.325,8.73.129-2.435,1.774-11.878-.1.708-1.677,2.555-.156L28.161,11.838ZM9.069,23.253H24.49l2.776-8.495.934,2.867L24.237,29.659l-1.375-1.19L24.1,24.886l-12.489.076Zm19.65,17.662h1.09v9.523h-1.09Zm20.488-5.449L48.872,36.5l-9-3.017.335-1.034Z" transform="translate(17.572 4.287)" fill="#fcdd0a"/>
  <path id="Path_39736" data-name="Path 39736" d="M40.856,10.18l.881.64-5.684,7.887-.881-.637Zm-24.435.64.881-.64,5.675,7.887-.878.64Zm-6.885,23.3L9.2,33.085l9.017-3.017.338,1.037Z" transform="translate(17.822 6.668)" fill="#fcdd0a"/>
</svg>
