<svg id="Capa_1" data-name="Capa 1" xmlns="http://www.w3.org/2000/svg" viewBox="0 0 32 32"><defs><style>.cls-1{fill:#00a1c9;}.cls-2{fill:#fff;}</style></defs><circle class="cls-1" cx="16" cy="16" r="14.2"/><path class="cls-2" d="M12.62,19.34l-1.69,3.13a.59.59,0,0,0,.23.81.6.6,0,0,0,.82-.2l1.88-3Z"/><path class="cls-2" d="M17.41,17.8,19.34,13l.41.24a1.19,1.19,0,0,0,1.19-2.05L16.85,8.79a1.19,1.19,0,0,0-1.19,2.05l.41.24-3.24,4.06a1.38,1.38,0,0,0-1.81.53l-.5.86a.4.4,0,0,0,.15.54l6.14,3.57a.4.4,0,0,0,.54-.15l.49-.85A1.38,1.38,0,0,0,17.41,17.8Z"/></svg>