<svg id="FIN" xmlns="http://www.w3.org/2000/svg" width="93.993" height="67.886" viewBox="0 0 93.993 67.886">
  <path id="Path_39739" data-name="Path 39739" d="M52.551,4.444H16V30.553H63V14.889A10.445,10.445,0,0,0,52.551,4.444Z" transform="translate(30.996 -4.444)" fill="#edecec"/>
  <path id="Path_39740" data-name="Path 39740" d="M28.721,4.444H10.445A10.445,10.445,0,0,0,0,14.889V30.553H28.721V4.444Z" transform="translate(0 -4.444)" fill="#eee"/>
  <path id="Path_39741" data-name="Path 39741" d="M83.548,44.776H47V18.667h47V34.331A10.445,10.445,0,0,1,83.548,44.776Zm-54.827,0H10.445A10.445,10.445,0,0,1,0,34.331V18.667H28.721Z" transform="translate(0 23.11)" fill="#edecec"/>
  <path id="Path_39742" data-name="Path 39742" d="M47,4.444H28.721V30.553H0V46.218H28.721V72.327H47V46.218h47V30.553H47Z" transform="translate(0 -4.444)" fill="#003580"/>
</svg>
