<svg id="FJI" xmlns="http://www.w3.org/2000/svg" width="93.996" height="67.886" viewBox="0 0 93.996 67.886">
  <path id="Path_39743" data-name="Path 39743" d="M83.55,4.446H10.444a10.359,10.359,0,0,0-1.577.117L8.855,9.143,1.726,9.131A10.4,10.4,0,0,0,0,14.888v47A10.445,10.445,0,0,0,10.444,72.329H83.55A10.445,10.445,0,0,0,93.995,61.884v-47A10.445,10.445,0,0,0,83.55,4.443Z" transform="translate(0.001 -4.443)" fill="#68bfe5"/>
  <path id="Path_39744" data-name="Path 39744" d="M32.968,10.333H20.241V31.872c0,7.287,12.727,11.367,12.727,11.367S45.7,39.159,45.7,31.872V10.333Z" transform="translate(39.215 6.968)"/>
  <path id="Path_39745" data-name="Path 39745" d="M32.625,42.35c-1.448-.5-12.207-4.424-12.207-10.821V10.51H44.83V31.529c0,6.394-10.756,10.319-12.207,10.821Z" transform="translate(39.558 7.31)" fill="#fff"/>
  <path id="Path_39746" data-name="Path 39746" d="M44.831,18.53V10.511H20.419V18.53H30.885V27.4H20.419v3.425H30.885V41.678c.828.344,1.463.573,1.742.67.27-.094.881-.314,1.686-.646V30.822H44.831V27.4H34.312V18.53Z" transform="translate(39.56 7.312)" fill="#d21034"/>
  <path id="Path_39747" data-name="Path 39747" d="M23.465,13.029a1.506,1.506,0,0,1-2.984,0,1.506,1.506,0,0,1,2.984,0Z" transform="translate(39.68 9.67)" fill="#fff"/>
  <path id="Path_39748" data-name="Path 39748" d="M21.833,14.19c-.852.15-1.263-.367-1.1-.858a2.18,2.18,0,0,1,1.754-1.022c.775-.082,1.51.693,2.121.734a.948.948,0,0,0,1.06-.74c.123-.444.978-1.454.449-1.707.693,0,.693.734.693.734s.775-.775,1.348-.734a1.85,1.85,0,0,1,0,1.386,1.729,1.729,0,0,1,1.386.041c-1.1.162-1.263.814-1.263.814s.2.529-.082.814,2.244.814,3.63.408a24.865,24.865,0,0,1,5.751-1.348c1.712,0,2.08.652,2.488.082s-.491-1.184-1.959-1.06-3.959,1.821-4.938.687c-.247,0-.367.294-.367.294a8.992,8.992,0,0,1-1.225-.529c-.611-.326-.491.775-.162.937-1.022-.041-.987-.7-.987-.7s-1.257-.925-.441-1.618c.059,1.266,1.184.9,1.8.652a1.846,1.846,0,0,1,1.754.285,2.5,2.5,0,0,0,2.773-.162c1.348-.775,4.976-1.06,5.017.573s-1.8,1.754-1.8,1.754a1.073,1.073,0,0,0,1.348.775c1.146-.2,1.877-.529,2.2.367s1.06.937.817,1.674-1.06,1.075-2.162.884-1.225-.64-.326-.8,1.06-.858.734-1.022-.937.491-1.754.162a15.776,15.776,0,0,1-1.877-.978s.041.449-.693.693-.123.529.082.978-.734.814-1.712,1.019-1.712.737-2.652-.408.247-1.469.734-1.1.978,1.022,1.386.693-.285-.529-.367-1.143a5.311,5.311,0,0,1,.041-1.345A6.114,6.114,0,0,1,31.259,16.8C28.486,17.2,28,17.2,28,17.2l-.814-.573-.978.652-.041-.734a9.518,9.518,0,0,1-2.365,1.4c-.814.188-3.043-.341-3.093-.955s.2-.9.928-1.143.858.162,1.225.491.775.775,1.3.326a6.1,6.1,0,0,1,.814-.611l.162-.775-.775-.041.285-.9a1.212,1.212,0,0,1-.978-.247c-.408-.367-.449-.734-.814-.611s-.079.532-1.016.7Z" transform="translate(40.099 7.478)" fill="#ffd101"/>
  <path id="Path_39749" data-name="Path 39749" d="M22.624,18.241c-.693.285-1.754-2-1.143-2.652S23.317,17.957,22.624,18.241Zm1.345-.285c-.649.059-.408-3.1,0-3.1S24.868,17.874,23.969,17.957Zm1.143.5c-.811-.15.408-2.05.734-2.05S26.049,18.626,25.112,18.456ZM38,18.976c-1.589.044-.693-.279-.529-.711a28.192,28.192,0,0,0,.065-3.654h.914a12.957,12.957,0,0,0,0,3.348c.288.573,1.022.978-.449,1.019Zm3.14,5.631c.379-.423-.573-1.1-1.225-1.1s-1.392.367-1.939,1.915.614,1.1.911.247.54-1.348.99-1.386S40.492,25.341,41.144,24.607ZM34.9,30.032c-.837-.062-1.551,2.121-1.551,2.121S37.108,30.193,34.9,30.032Z" transform="translate(41.265 15.255)" fill="#964b36"/>
  <path id="Path_39750" data-name="Path 39750" d="M23.318,18.136c.2.652-1.868-.106-1.906,1.028-.858-.129.367-1.8,1.143-1.56-.162-.9-1.322-1.263-1.436.2-1.3-1.143.355-2.244,1.1-1.754-.4-1.386-1.157-1.363-1.251-.529-.981-.814.009-2.121.858-1.51a1.993,1.993,0,0,1,.913,1.263s.593-2.112,2.1-1.422c-1.83.773-2.188,2.156-1.524,4.28Z" transform="translate(39.828 13.525)" fill="#00a651"/>
  <path id="Path_39751" data-name="Path 39751" d="M23.875,17.544a5.45,5.45,0,0,1-.866-1.093s.576,1.551-.323,2.2c.038-1.428-.94-1.915-.411-2.488s1.428,0,1.428,0,.211-.332-.708-1.143-1.577-.775-1.618-1.469c.922.549,2.332.552,2.5,2.08.194-1.836,1.022-1.877,1.4-1.915s1.281.162,1.607-.162c0,.652-.734.449-1.225.652.652.449.693,1.9.693,1.9s-.937-1.654-1.348-1.53-.679,1.348-.679,1.348,1.492-.044.949,1.959c-.229-1.1-.476-1.225-.761-1.225s-.64.881-.64.881Z" transform="translate(41.412 13.209)" fill="#00a651"/>
  <path id="Path_39752" data-name="Path 39752" d="M22.7,19.169c.056-.764.423-2.068.831-2.171.135-.834.573-2.018,1.469-2.221s1.1.734.9,1.263c-.529-.775-1.263-.978-1.428.858.775-.2,1.225.408,1.022,1.225-.734-.858-1.263-.958-1.589-.338a1.009,1.009,0,0,1,.435,1.683c-.191-1.06-.758-.978-1.057,0s-.576-.3-.576-.3Zm12.413-1.383a2.536,2.536,0,0,0-2.238,2.459c-.978-1.469.22-3.1,1.475-3.675-2.212.041-3.025,1.022-3.31,1.836-.285-2.162,2.461-3.02,3.31-2.652-.538-.937-2.658-.858-3.722-.082,0-1.795,3.172-2.224,4.482-.6-.159-1.313.373-1.639.373-1.639v1.754s2.952-2.773,4.576.573c-2.62-1.348-3.892.041-3.892.041s2.714-.652,2.338,2.488a2.7,2.7,0,0,0-2.658-1.712,2.539,2.539,0,0,1,1.263,3.263c-.814-2.244-2-2.05-2-2.05Z" transform="translate(43.985 12.967)" fill="#00a651"/>
  <path id="Path_39753" data-name="Path 39753" d="M26.255,19.652c-.123-1.225,1.428-1.915,1.428-1.915s2.611,1.589,2.978,1.915-.223,1.692-1.357,2.05S26.255,19.652,26.255,19.652Z" transform="translate(50.852 21.311)" fill="#fff202"/>
  <path id="Path_39754" data-name="Path 39754" d="M26.411,23.044c-.614-.388-1-2.558,0-2.764a1.581,1.581,0,0,1,.717-2.038A3.819,3.819,0,0,1,29.266,19.4c.8.761,1.492.943,1.554,1.24s-.5,1.193-1.463,1.275c.3.9-1.994,1.736-2.949,1.134Z" transform="translate(49.976 22.272)" fill="#00a651"/>
  <path id="Path_39755" data-name="Path 39755" d="M21.375,19.109a3.451,3.451,0,0,0,.978-.614c.367-.367.858-.367,1.263.305a9.47,9.47,0,0,1,.708,1.53,1.96,1.96,0,0,1,1.128-1.877,11.456,11.456,0,0,0,1.457-.814l-.435,1.745s1.51-.928,1.754-1.46a3.824,3.824,0,0,1-2.2,3.968,2.085,2.085,0,0,1,.285,1.621l1.8,1.469-1.959.611-.872-1.877s-2.265.082-2.594-1.633.452-2.632,0-2.7-1.307-.27-1.307-.27Z" transform="translate(41.412 21.123)"/>
  <path id="Path_39756" data-name="Path 39756" d="M24.944,23.085l-.176.009c-.382,0-2.065-.073-2.323-1.422a4.522,4.522,0,0,1,.073-2c.073-.338.123-.558,0-.74l-.062-.094-.223-.079c-.164-.026-.388-.07-.6-.117a2.126,2.126,0,0,0,.414-.329.521.521,0,0,1,.335-.17c.17,0,.358.153.523.426a9.764,9.764,0,0,1,.687,1.48l.505-.115a1.69,1.69,0,0,1,.987-1.615c.411-.211.708-.373.928-.493l-.435,1.751.546-.338a10.469,10.469,0,0,0,1.4-1.022,3.68,3.68,0,0,1-2.083,3.067l-.279.115.156.264a1.829,1.829,0,0,1,.264,1.4l-.056.17,1.557,1.275-1.278.4-.852-1.824Z" transform="translate(41.908 21.485)" fill="#fff"/>
  <path id="Path_39757" data-name="Path 39757" d="M22.538,18.649c-.3-.7-.3-.7-.767-.9a6.906,6.906,0,0,0,0,.734s-.264-.858-.673-.734a.906.906,0,0,0,.632,1.187s-.388.126-.347.814c.693.282.611-.329.611-.329a1,1,0,0,0,.358.987,3.56,3.56,0,0,0,.188-1.754Z" transform="translate(40.793 21.301)" fill="#00a651"/>
  <path id="Path_39758" data-name="Path 39758" d="M49.61,38.387V4.444H10.447a11.38,11.38,0,0,0-1.577.117L8.858,9.141,1.729,9.129s-.109.153-.332.535A10.428,10.428,0,0,0,0,14.886v23.5H49.607Z" transform="translate(0.001 -4.441)" fill="#00247d"/>
  <path id="Path_39759" data-name="Path 39759" d="M49.6,4.446H43.518l-12.19,8.536V4.446H18.275v6.709L8.864,4.563A10.305,10.305,0,0,0,4.5,6.3l12.278,8.589H12.245L2.525,8.076a10.661,10.661,0,0,0-.8,1.054l8.227,5.757H0V27.941H10.144L0,35.164v3.222H8.7l9.576-6.706v6.706H31.331V29.85l12.187,8.536h6.089v-5.3l-7.349-5.146h7.349V14.888H42.261l7.346-5.146v-5.3Z" transform="translate(0.007 -4.443)" fill="#eee"/>
  <path id="Path_39760" data-name="Path 39760" d="M28.721,4.444H20.887V17.5H0v7.834H20.887V38.384h7.834V25.331H49.608V17.5H28.721Z" transform="translate(0.003 -4.441)" fill="#cf1b2b"/>
  <path id="Path_39761" data-name="Path 39761" d="M48.343,4.444H44.527L30.064,14.572v.317h4.1L48.34,4.961ZM3.235,6.3A10.536,10.536,0,0,0,1.258,8.077l9.719,6.812h4.529L3.232,6.3ZM15.542,27.942.653,38.387H5.162l11.852-8.3V27.942Zm32.8,9.928V34.686l-9.625-6.741h-4.55Z" transform="translate(1.268 -4.441)" fill="#cf1b2b"/>
</svg>
