<svg id="FLK" xmlns="http://www.w3.org/2000/svg" width="94" height="67.889" viewBox="0 0 94 67.889">
  <path id="Path_41237" data-name="Path 41237" d="M83.556,142.222H10.445a10.481,10.481,0,0,0-1.577.118l-.01,4.58-7.128-.01A10.4,10.4,0,0,0,0,152.666v47a10.445,10.445,0,0,0,10.444,10.444H83.556A10.445,10.445,0,0,0,94,199.666v-47a10.445,10.445,0,0,0-10.444-10.444Z" transform="translate(-0.001 -142.222)" fill="#00247d"/>
  <path id="Path_41238" data-name="Path 41238" d="M654.438,611.993c.721-1.347,1.222-2.692,1.807-3.1s3.875-.081,4.515.653.313,4.528-.951,6.65-3.622,2.938-4.5,2.773-1.454-1.755-1.616-2.326.376-.776,1.616-.407,3.076-2.773,3.034-3.917a1.5,1.5,0,0,0-2.4.775c-.41.943-1.5-1.1-1.5-1.1Z" transform="translate(-593.656 -565.891)" fill="#ba6747"/>
  <path id="Path_41239" data-name="Path 41239" d="M643.587,659.646a11.835,11.835,0,0,0,1.645,3.567c-.371-2.225,1.293-1.528,1.17-.629.572.162-.154-1.264-.3-2.081s-.026-2.407-1.371-2.326S643.464,659.1,643.587,659.646Z" transform="translate(-584.451 -610.81)" fill="#d7a896"/>
  <path id="Path_41240" data-name="Path 41240" d="M861.908,611.993c-.721-1.347-1.222-2.692-1.807-3.1s-3.875-.081-4.517.653-.313,4.528.951,6.65,3.622,2.938,4.5,2.773,1.434-1.755,1.6-2.326-.376-.776-1.616-.407-3.055-2.773-3.013-3.917a1.5,1.5,0,0,1,2.4.775c.413.943,1.5-1.1,1.5-1.1Z" transform="translate(-776.754 -565.891)" fill="#ba6747"/>
  <path id="Path_41241" data-name="Path 41241" d="M679.363,634.481c.191-.815-.776-2.081-1.386-3.3-2.491,4.679-9.061,5.287-11.575,5.3-2.514-.008-9.081-.616-11.575-5.3-.611,1.217-1.577,2.481-1.386,3.3s6.1,5.06,12.92,5.094v.005l.042,0,.042,0v-.005C673.261,639.541,679.172,635.3,679.363,634.481Z" transform="translate(-593.434 -586.298)" fill="#e9cfc6"/>
  <path id="Path_41242" data-name="Path 41242" d="M915.561,659.646a11.835,11.835,0,0,1-1.645,3.567c.371-2.225-1.292-1.528-1.17-.629-.572.162.154-1.264.3-2.081s.026-2.407,1.371-2.326S915.686,659.1,915.561,659.646Z" transform="translate(-828.763 -610.81)" fill="#d7a896"/>
  <path id="Path_41243" data-name="Path 41243" d="M674.143,302.82H661.9v16.972c0,14.9,12.241,18.168,12.241,18.168s12.241-3.264,12.241-18.168V302.82Z" transform="translate(-601.141 -288.078)" fill="#fff"/>
  <path id="Path_41244" data-name="Path 41244" d="M682.743,347.091c-1.35-.4-11.369-3.867-11.369-17.1V314.027h22.74v15.962C694.114,343.1,684,346.695,682.743,347.091Z" transform="translate(-609.744 -298.256)" fill="#0072c4"/>
  <path id="Path_41245" data-name="Path 41245" d="M687.19,337.131c.285-1.144.491-2.734-.2-2.979a3.832,3.832,0,0,1-2.329-2.285c-.4-1.306-.2-4.324-.569-4.528s-1.467.285-2.12-.53-.245-1.1.2-1.389,1.713-.937,1.632-1.183.081-.635.854-.9c1.431-.491,2.572.776,3.021,1.264a4.724,4.724,0,0,0,2.162,1.183c.53.042,6.935.123,7.671.2a2.541,2.541,0,0,1,2.449,2.815,16.6,16.6,0,0,1-.791,4.815,2.216,2.216,0,0,1-.514.53,17.836,17.836,0,0,1,.285,2.12c-.042.326-.611.449-.653-.123s-.245-1.917-.245-1.917l-1.1-.2a7.247,7.247,0,0,1-.326,2.53c-.368.572-1.306.2-1.06-.2a2.285,2.285,0,0,0,.368-1.264c0-.488-.123-1.225-.368-1.306s-1.467.407-2.366.407-2.9-.572-3.264-.245a9.86,9.86,0,0,0-1.1,2.937c-.245.937-.653.368-.611-.081s.2-1.958-.042-1.713-.162,1.387-.326,1.755-.653.285-.653.285Z" transform="translate(-619.056 -306.612)" fill="#fff"/>
  <path id="Path_41246" data-name="Path 41246" d="M710.656,452.437s.53,3.045,2.53,4.366,10.39.979,11.831-.042a12.368,12.368,0,0,0,2.773-3.509s-1.183,0-1.59-.449c-1.183.653-1.877.368-2.12-.042-.937.937-.856.368-.979.081a1.7,1.7,0,0,1-2.366.042,2.088,2.088,0,0,1-2.285-.123,2.188,2.188,0,0,1-2.611.245,1.28,1.28,0,0,1-2,.326c-.695.653-.979-.081-1.225-.53-.569.982-1.509.287-1.958-.366Z" transform="translate(-645.42 -423.96)" fill="#015121"/>
  <path id="Path_41247" data-name="Path 41247" d="M666.226,478.55a3.03,3.03,0,0,0,2.243-.734,2.646,2.646,0,0,1,3.875,0c1.225,1.347,2.611,1.305,3.671.2a2.69,2.69,0,0,1,4.162-.117,2.366,2.366,0,0,0,3.713,0,2.754,2.754,0,0,1,4,0c1.225,1.423,2.081.65,2.081.65l-.53,3.755s-.368.081-1.509-.9-2.734-1.347-3.875-.123a2.755,2.755,0,0,1-4.078.081,2.57,2.57,0,0,0-3.713-.123,3.16,3.16,0,0,1-4.366,0,2.252,2.252,0,0,0-3.468.042,4.527,4.527,0,0,1-1.729,1.021Zm1.256,6.7a2.726,2.726,0,0,0,.987-.58,2.646,2.646,0,0,1,3.875,0c1.225,1.347,2.611,1.306,3.671.2a2.69,2.69,0,0,1,4.162-.117,2.369,2.369,0,0,0,3.713,0,2.752,2.752,0,0,1,4,0,3.161,3.161,0,0,0,.687.611,3.7,3.7,0,0,1-1.094,2.556,2.537,2.537,0,0,0-3.426.211,2.755,2.755,0,0,1-4.079.081,2.57,2.57,0,0,0-3.713-.123,3.16,3.16,0,0,1-4.366,0,2.189,2.189,0,0,0-3.141-.248C668.639,487.942,666.808,485.48,667.482,485.247Zm3.188,5.35a2.434,2.434,0,0,1,1.676.843c1.224,1.347,2.611,1.306,3.671.2a2.691,2.691,0,0,1,4.162-.117,2.369,2.369,0,0,0,3.713,0,3.245,3.245,0,0,1,1.29-.742c-1.682,2.413-6.473,4.859-7.113,4.857s-5.846-2.282-7.4-5.045Z" transform="translate(-605.069 -446.237)" fill="#fff"/>
  <path id="Path_41248" data-name="Path 41248" d="M702.475,341.112c.2-.449.893-.326,1.1,0S702.272,341.561,702.475,341.112Z" transform="translate(-637.973 -322.589)"/>
  <path id="Path_41249" data-name="Path 41249" d="M678.157,560.429c-.248.3,3.136,1.781,3.136,1.781s.3,1.606.572,1.4,1.428.018,1.428.018a5.234,5.234,0,0,0,5.63,4.8c5.353,0,6.792-5.125,6.792-5.125a15.148,15.148,0,0,1,2.159.141c.227.117-.465-.635-.178-1.232s.979-1.29.572-1.454-4.731,1.021-4.731,1.021.081,3.875-4.611,3.875-4.079-2.53-4.079-2.53S678.539,559.962,678.157,560.429Z" transform="translate(-615.893 -521.996)" fill="#dd8b59"/>
  <path id="Path_41250" data-name="Path 41250" d="M748.88,495.254a.225.225,0,0,1-.449,0V484.927a.225.225,0,1,1,.449,0Zm3.877,1.261a.183.183,0,1,1-.365,0V484.194a.183.183,0,1,1,.365,0Zm4.039-.674a.2.2,0,1,1-.407,0V484.907a.2.2,0,1,1,.407,0Z" transform="translate(-679.727 -452.636)" fill="#dd8b59"/>
  <path id="Path_41251" data-name="Path 41251" d="M731.291,495.854s.368.734,1.59.407a1.553,1.553,0,0,0,1.264-1.347Zm6.731-1.632-2.773.695a1.1,1.1,0,0,0,1.326.7A2.226,2.226,0,0,0,738.022,494.222Zm1.225,1.306a1.55,1.55,0,0,0,1.551.491,3.072,3.072,0,0,0,1.467-1.347l-3.018.857Zm-4.692.817-3.5.961a2.189,2.189,0,0,0-.214,1.279,5.066,5.066,0,0,0,.449,1.264,1.712,1.712,0,0,1,1.144-.979,1.565,1.565,0,0,1,1.386.491,4.207,4.207,0,0,1,.734-3.016Zm.695,0a1.777,1.777,0,0,0-.695,1.632,3.236,3.236,0,0,0,.695,1.517,2.153,2.153,0,0,1,1.144-.906,2.06,2.06,0,0,1,1.632.449,4.614,4.614,0,0,1-.2-1.755,5.7,5.7,0,0,1,.653-1.666l-3.225.729Zm3.752.611a3.068,3.068,0,0,0-.245,1.144,6.334,6.334,0,0,0,.491,1.752,1.613,1.613,0,0,1,1.144-1.06,1.4,1.4,0,0,1,1.386.407,2.7,2.7,0,0,1-.17-1.486,3.192,3.192,0,0,1,1.029-1.632Zm-5.058,2.692-3.058.572a1.433,1.433,0,0,0,1.528.856C733.576,500.953,733.944,499.648,733.944,499.648Zm4.243-.154a14.667,14.667,0,0,0-2.937.36.983.983,0,0,0,1.264.776A3.011,3.011,0,0,0,738.187,499.494Zm3.794.154-2.9.648a1.31,1.31,0,0,0,1.449.535A2.131,2.131,0,0,0,741.981,499.648Z" transform="translate(-663.728 -461.91)" fill="#fecf3d"/>
  <path id="Path_41252" data-name="Path 41252" d="M727.04,487.1l-2.162.715,2.162.23Zm4.12-.7-2.162.715,2.162.23Zm4.081.473-2.162.715,2.162.232Z" transform="translate(-658.336 -454.806)" fill="#ff0100"/>
  <path id="Path_41253" data-name="Path 41253" d="M49.611,176.166V142.222H10.444a11.347,11.347,0,0,0-1.577.118l-.01,4.58-7.128-.01s-.11.154-.332.535A10.414,10.414,0,0,0,0,152.666v23.5Z" transform="translate(0 -142.222)" fill="#00247d"/>
  <path id="Path_41254" data-name="Path 41254" d="M49.609,142.221H43.523l-12.191,8.536v-8.536H18.276v6.708l-9.41-6.59A10.293,10.293,0,0,0,4.5,144.075l12.277,8.59H12.244l-9.721-6.812a10.824,10.824,0,0,0-.8,1.055l8.228,5.757H0v13.055H10.142L0,172.943v3.222H8.7l9.578-6.705v6.705H31.331V167.63l12.189,8.536h6.089v-5.3l-7.35-5.146h7.35V152.665H42.261l7.348-5.146v-5.3Z" transform="translate(0.002 -142.221)" fill="#eee"/>
  <path id="Path_41255" data-name="Path 41255" d="M28.722,142.222H20.889v13.055H0v7.833H20.889v13.055h7.833V163.111H49.611v-7.833H28.722Z" transform="translate(0 -142.222)" fill="#cf1b2b"/>
  <path id="Path_41256" data-name="Path 41256" d="M68.572,142.222H64.758L50.295,152.35v.316h4.1l14.176-9.927Zm-45.109,1.854a10.579,10.579,0,0,0-1.977,1.778l9.721,6.812h4.53l-12.275-8.59Zm12.306,21.646L20.878,176.166h4.509l11.852-8.3v-2.146Zm32.8,9.927v-3.186l-9.627-6.742H54.394Z" transform="translate(-18.961 -142.222)" fill="#cf1b2b"/>
</svg>
