<svg id="FRO" xmlns="http://www.w3.org/2000/svg" width="94" height="67.889" viewBox="0 0 94 67.889">
  <path id="Path_41232" data-name="Path 41232" d="M24.658,142.222H10.443A10.445,10.445,0,0,0,0,152.666v14.361H24.658V142.222ZM94,167.027V152.666a10.445,10.445,0,0,0-10.444-10.444H43.082v24.805H94Z" transform="translate(0.001 -142.222)" fill="#eee"/>
  <path id="Path_41233" data-name="Path 41233" d="M94,170.944v-3.917H43.083V142.222H39.167v28.722ZM28.722,142.222H24.659v24.805H0v3.917H28.722Z" transform="translate(0 -142.222)" fill="#0065bd"/>
  <path id="Path_41234" data-name="Path 41234" d="M0,611.556v14.361a10.445,10.445,0,0,0,10.444,10.444H24.659V611.556H0Zm43.083,0v24.805H83.555A10.445,10.445,0,0,0,94,625.917V611.556Z" transform="translate(0 -568.473)" fill="#eee"/>
  <path id="Path_41235" data-name="Path 41235" d="M39.167,170.944V142.222H28.722v28.722H0v10.444H28.722v28.722H39.167V181.389H94V170.944Z" transform="translate(0 -142.222)" fill="#ed2939"/>
  <path id="Path_41236" data-name="Path 41236" d="M39.167,568.889v28.722h3.917V572.806H94v-3.917Zm-10.444,0H0v3.917H24.659v24.805h4.063Z" transform="translate(0 -529.722)" fill="#0065bd"/>
</svg>
