<svg id="FSM" xmlns="http://www.w3.org/2000/svg" width="93.996" height="67.886" viewBox="0 0 93.996 67.886">
  <path id="Path_39782" data-name="Path 39782" d="M83.55,4.444H10.444A10.445,10.445,0,0,0,0,14.889v47A10.445,10.445,0,0,0,10.444,72.33H83.55A10.445,10.445,0,0,0,93.995,61.885v-47A10.445,10.445,0,0,0,83.55,4.444Z" transform="translate(0.001 -4.444)" fill="#75b2dd"/>
  <path id="Path_39783" data-name="Path 39783" d="M34.177,6.756l-1.524,4.691H27.721l3.989,2.9-1.521,4.688,3.989-2.9,3.989,2.9-1.521-4.688,3.989-2.9H35.7ZM56.639,32.384V27.452l-2.9,3.989-4.688-1.522,2.9,3.989-2.9,3.989,4.688-1.522,2.9,3.989V35.433l4.691-1.524ZM36.644,53.47l1.521-4.688-3.989,2.9-3.989-2.9L31.71,53.47l-3.989,2.9h4.932l1.524,4.691L35.7,56.369h4.932ZM14.612,31.441l-2.9-3.989v4.932L7.022,33.908l4.691,1.524v4.932l2.9-3.989L19.3,37.9l-2.9-3.989,2.9-3.989Z" transform="translate(13.607 0.035)" fill="#fff"/>
</svg>
