<svg id="GBR" xmlns="http://www.w3.org/2000/svg" width="93.993" height="67.889" viewBox="0 0 93.993 67.889">
  <path id="Path_39795" data-name="Path 39795" d="M0,15.042V25.331H14.7ZM12.178,72.33H33.943V57.092ZM60.05,57.092V72.33H81.812ZM0,51.44V61.73L14.7,51.44Zm81.818-47H60.05V19.683ZM93.993,61.733V51.44h-14.7Zm0-36.4V15.045l-14.7,10.289ZM33.943,4.444H12.178L33.943,19.683Z" transform="translate(0 -4.441)" fill="#00247d"/>
  <path id="Path_39796" data-name="Path 39796" d="M65.37,51.239,90.728,68.995a10.385,10.385,0,0,0,2.585-4.567L74.476,51.236H65.37Zm-31.7,0h-5.59L2.73,68.992a10.409,10.409,0,0,0,5.061,2.832L33.674,53.7V51.236ZM59.78,25.132h5.59L90.725,7.38a10.4,10.4,0,0,0-5.058-2.832L59.78,22.674v2.461Zm-31.7,0L2.727,7.38A10.436,10.436,0,0,0,.139,11.947L18.976,25.135h9.106Z" transform="translate(0.269 -4.24)" fill="#cf1b2b"/>
  <path id="Path_39797" data-name="Path 39797" d="M93.993,46.223H54.83V72.332h5.222V57.094L81.815,72.332h1.736A10.416,10.416,0,0,0,91,69.2L65.639,51.445h9.106L93.582,64.637a10.247,10.247,0,0,0,.411-2.746v-.153l-14.7-10.292h14.7ZM0,46.223v5.222H14.7L0,61.735v.153A10.4,10.4,0,0,0,3,69.2L28.351,51.445h5.59v2.461L8.057,72.03a10.3,10.3,0,0,0,2.385.3h1.733L33.94,57.094V72.332h5.222V46.223ZM93.993,14.891A10.4,10.4,0,0,0,91,7.58L65.642,25.333h-5.59V22.871L85.939,4.746a10.486,10.486,0,0,0-2.388-.3h-1.73L60.053,19.685V4.446H54.83V30.555H93.993V25.333h-14.7l14.7-10.289ZM33.943,4.446V19.685L12.178,4.446H10.445A10.4,10.4,0,0,0,3,7.58L28.354,25.333H19.248L.411,12.145A10.344,10.344,0,0,0,0,14.888v.153L14.7,25.33H0v5.222H39.163V4.443H33.94Z" transform="translate(0 -4.443)" fill="#eee"/>
  <path id="Path_39798" data-name="Path 39798" d="M54.828,30.553V4.444H39.164V30.553H0V46.218H39.164V72.327H54.828V46.218H93.991V30.553Z" transform="translate(0.002 -4.441)" fill="#cf1b2b"/>
</svg>
