<svg id="GEO" xmlns="http://www.w3.org/2000/svg" width="93.993" height="67.889" viewBox="0 0 93.993 67.889">
  <path id="Path_39806" data-name="Path 39806" d="M48.247,4.446H18.222V31.86h40.47V14.888A10.445,10.445,0,0,0,48.247,4.443Z" transform="translate(35.301 -4.443)" fill="#eee"/>
  <path id="Path_39807" data-name="Path 39807" d="M53.523,4.444H40.47V31.858H0V44.911H40.47V72.324H53.523V44.911h40.47V31.858H53.523Z" transform="translate(0 -4.441)" fill="#e8112d"/>
  <path id="Path_39808" data-name="Path 39808" d="M31.192,11.722a35.6,35.6,0,0,1,.576-4.855,18.707,18.707,0,0,1-4.62,0,35.2,35.2,0,0,1,.576,4.855,35.6,35.6,0,0,1-4.855-.576,18.706,18.706,0,0,1,0,4.62,35.2,35.2,0,0,1,4.855-.576,35.6,35.6,0,0,1-.576,4.855,18.707,18.707,0,0,1,4.62,0,35.2,35.2,0,0,1-.576-4.855,35.6,35.6,0,0,1,4.855.576,18.707,18.707,0,0,1,0-4.62A34.367,34.367,0,0,1,31.192,11.722Z" transform="translate(44.302 0.253)" fill="#e8112d"/>
  <path id="Path_39809" data-name="Path 39809" d="M40.47,4.444H10.445A10.445,10.445,0,0,0,0,14.889V31.861H40.47V4.447Z" transform="translate(0 -4.441)" fill="#eee"/>
  <path id="Path_39810" data-name="Path 39810" d="M12.97,11.722a35.6,35.6,0,0,1,.576-4.855,18.707,18.707,0,0,1-4.62,0A35.2,35.2,0,0,1,9.5,11.722a35.6,35.6,0,0,1-4.855-.576,18.707,18.707,0,0,1,0,4.62A35.2,35.2,0,0,1,9.5,15.191a35.6,35.6,0,0,1-.576,4.855,18.707,18.707,0,0,1,4.62,0,35.2,35.2,0,0,1-.576-4.855,35.6,35.6,0,0,1,4.855.576,18.707,18.707,0,0,1,0-4.62,34.367,34.367,0,0,1-4.855.576Z" transform="translate(9.001 0.253)" fill="#e8112d"/>
  <path id="Path_39811" data-name="Path 39811" d="M58.692,35.194V18.222H18.222V45.636H48.247A10.445,10.445,0,0,0,58.692,35.191Z" transform="translate(35.301 22.251)" fill="#eee"/>
  <path id="Path_39812" data-name="Path 39812" d="M31.192,28.97a35.6,35.6,0,0,0,.576,4.855,18.706,18.706,0,0,0-4.62,0,35.2,35.2,0,0,0,.576-4.855,35.6,35.6,0,0,0-4.855.576,18.706,18.706,0,0,0,0-4.62,35.2,35.2,0,0,0,4.855.576,35.6,35.6,0,0,0-.576-4.855,18.706,18.706,0,0,0,4.62,0,35.2,35.2,0,0,0-.576,4.855,35.6,35.6,0,0,0,4.855-.576,18.707,18.707,0,0,0,0,4.62A34.368,34.368,0,0,0,31.192,28.97Z" transform="translate(44.302 26.947)" fill="#e8112d"/>
  <path id="Path_39813" data-name="Path 39813" d="M40.47,18.222H0V35.194A10.445,10.445,0,0,0,10.445,45.639H40.47V18.225Z" transform="translate(0 22.251)" fill="#eee"/>
  <path id="Path_39814" data-name="Path 39814" d="M12.97,28.97a35.6,35.6,0,0,0,.576,4.855,18.706,18.706,0,0,0-4.62,0A35.2,35.2,0,0,0,9.5,28.97a35.6,35.6,0,0,0-4.855.576,18.707,18.707,0,0,0,0-4.62A35.2,35.2,0,0,0,9.5,25.5a35.6,35.6,0,0,0-.576-4.855,18.706,18.706,0,0,0,4.62,0A35.2,35.2,0,0,0,12.97,25.5a35.6,35.6,0,0,0,4.855-.576,18.707,18.707,0,0,0,0,4.62,34.368,34.368,0,0,0-4.855-.576Z" transform="translate(9.001 26.947)" fill="#e8112d"/>
</svg>
