<svg id="GHA" xmlns="http://www.w3.org/2000/svg" width="93.999" height="67.886" viewBox="0 0 93.999 67.886">
  <path id="Path_39821" data-name="Path 39821" d="M83.55,4.444H10.444A10.445,10.445,0,0,0,0,14.889V27.942H93.992V14.889A10.445,10.445,0,0,0,83.547,4.444Z" transform="translate(0.001 -4.444)" fill="#cc212d"/>
  <path id="Path_39822" data-name="Path 39822" d="M40.265,33.332H53.8l-6.767-4.92Zm9.367-12.9h8.395l-6.791,4.932,2.588,7.969h40.17V12.445H47.039Zm-6.794,4.932-6.791-4.932h8.395l2.6-7.986H0V33.332h40.25Z" transform="translate(0.005 11.056)" fill="#fbd116"/>
  <path id="Path_39823" data-name="Path 39823" d="M53.829,19.571l-.023-.015H40.264l-.023.015.009-.015H0V32.609A10.445,10.445,0,0,0,10.445,43.054H83.551A10.445,10.445,0,0,0,94,32.609V19.556l-40.164.015Z" transform="translate(0.003 24.832)" fill="#288541"/>
  <path id="Path_39824" data-name="Path 39824" d="M12.273,20.431l6.791,4.932-2.6,7.984.023-.015,6.77-4.92,6.791,4.935-.006-.015-2.588-7.969,6.791-4.932H25.855l-2.6-7.986-2.6,7.986Z" transform="translate(23.779 11.056)"/>
</svg>
