<svg id="GIB" xmlns="http://www.w3.org/2000/svg" width="94" height="67.889" viewBox="0 0 94 67.889">
  <path id="Path_41187" data-name="Path 41187" d="M94,638.834a10.445,10.445,0,0,1-10.444,10.444H10.444A10.445,10.445,0,0,1,0,638.834V625.778H94Z" transform="translate(0 -581.389)" fill="#da1c0b"/>
  <path id="Path_41188" data-name="Path 41188" d="M83.556,142.222H10.444A10.445,10.445,0,0,0,0,152.666v36.555H94V152.666A10.445,10.445,0,0,0,83.556,142.222Z" transform="translate(0 -142.222)" fill="#eee"/>
  <path id="Path_41189" data-name="Path 41189" d="M310.507,294.77V296.8h-2.031V294.77h-4.065V296.8h-2.034V294.77h-2.031v4.065h2.031V309h8.131V298.835h2.034V294.77Z" transform="translate(-272.774 -280.767)" fill="#da1c0b"/>
  <path id="Path_41190" data-name="Path 41190" d="M292.756,405.476v2.034h-2.034v-2.034H288.69v2.034h-4.065v-2.034h-2.034v2.034h-2.031v-2.034h-2.031v4.066h2.031v11.108l-2.031,1.086v2.034h16.259v-2.034l-2.031-1.086V409.542h2.031v-4.066Z" transform="translate(-252.96 -381.31)" fill="#da1c0b"/>
  <path id="Path_41191" data-name="Path 41191" d="M344.633,383.346H348.7v4.065h-4.065Z" transform="translate(-312.997 -361.212)"/>
  <path id="Path_41192" data-name="Path 41192" d="M348.724,363.247a2.031,2.031,0,1,1-2.031-2.031A2.03,2.03,0,0,1,348.724,363.247Zm0,12.8c0-1.621-.41-2.937-2.031-2.937s-2.031,1.316-2.031,2.938v3.46h4.065v-3.46Z" transform="translate(-313.022 -341.113)"/>
  <path id="Path_41193" data-name="Path 41193" d="M608.007,294.77V296.8h-2.031V294.77h-4.065V296.8h-2.031V294.77h-2.034v4.065h2.034V309h8.128V298.835h2.037V294.77Z" transform="translate(-542.965 -280.767)" fill="#da1c0b"/>
  <path id="Path_41194" data-name="Path 41194" d="M589.946,405.476v2.034h-2.037v-2.034h-2.031v2.034h-4.065v-2.034H579.78v2.034h-2.034v-2.034h-2.031v4.066h2.031v11.108l-2.031,1.086v2.034h16.259v-2.034l-2.029-1.086V409.542h2.029v-4.066Z" transform="translate(-522.866 -381.31)" fill="#da1c0b"/>
  <path id="Path_41195" data-name="Path 41195" d="M642.133,383.346H646.2v4.065h-4.065Z" transform="translate(-583.187 -361.212)"/>
  <path id="Path_41196" data-name="Path 41196" d="M646.224,363.247a2.031,2.031,0,1,1-2.031-2.031A2.032,2.032,0,0,1,646.224,363.247Zm0,12.8c0-1.621-.41-2.937-2.031-2.937s-2.031,1.316-2.031,2.938v3.46h4.066v-3.46Z" transform="translate(-583.213 -341.113)"/>
  <path id="Path_41197" data-name="Path 41197" d="M439.723,227.556v2.611h-2.611v-2.611H431.89v2.611h-2.611v-2.611h-2.611v5.222h2.611v13.056h10.444V232.778h2.611v-5.222Z" transform="translate(-387.501 -219.723)" fill="#da1c0b"/>
  <path id="Path_41198" data-name="Path 41198" d="M416.5,369.778v2.611h-2.611v-2.611H411.28v2.611h-5.222v-2.611h-2.611v2.611h-2.611v-2.611h-2.611v23.5h20.889v-23.5Z" transform="translate(-361.668 -348.889)" fill="#da1c0b"/>
  <path id="Path_41199" data-name="Path 41199" d="M483.556,341.333h5.222v5.222h-5.222Z" transform="translate(-439.167 -323.055)"/>
  <path id="Path_41200" data-name="Path 41200" d="M488.778,315.5a2.611,2.611,0,1,1-2.611-2.611A2.611,2.611,0,0,1,488.778,315.5Z" transform="translate(-439.167 -297.222)"/>
  <path id="Path_41201" data-name="Path 41201" d="M478.467,483.147a3.77,3.77,0,1,0-7.541,0v5.658h7.544v-5.658Z" transform="translate(-427.696 -448.425)"/>
  <path id="Path_41202" data-name="Path 41202" d="M476.85,664.149v.347l2.817,2.815-2.817,2.815v12.317h-.909v-1.376h-3.11V679.22h.909v.943h2.2v-2.739h-2.2v.927h-.909v-1.833h3.11v-6.4l-2.82-2.81,2.82-2.8v-.358Z" transform="translate(-429.427 -616.238)" fill="#fff100"/>
  <path id="Path_41203" data-name="Path 41203" d="M490.382,679.187l1.953-1.953,1.953,1.956-1.956,1.953Z" transform="translate(-445.366 -628.122)" fill="#da1c0b"/>
  <path id="Path_41204" data-name="Path 41204" d="M497.219,606.436h-.768c-.634,0-1.149.783-1.149,1.747v3.494c0,.963.514,1.747,1.149,1.747h.768c.634,0,1.149-.783,1.149-1.747v-3.494C498.368,607.219,497.853,606.436,497.219,606.436Zm.287,5.3c0,.546-.29.984-.645.984s-.648-.439-.648-.984v-3.522c0-.541.29-.979.648-.979s.645.439.645.979Z" transform="translate(-449.835 -563.823)" fill="#fff100"/>
  <path id="Path_41205" data-name="Path 41205" d="M478.426,575.293a.78.78,0,0,0-.83.008l-2.632,2.374-2.632-2.374a.785.785,0,0,0-.83-.008c-.282.154-.366.407-.188.569l3.217,2.893a.931.931,0,0,0,.867,0l3.217-2.893c.18-.162.1-.418-.188-.569Z" transform="translate(-427.963 -535.434)" fill="#fff100"/>
</svg>
