<svg id="GMB" xmlns="http://www.w3.org/2000/svg" width="93.999" height="67.886" viewBox="0 0 93.999 67.886">
  <path id="Path_39848" data-name="Path 39848" d="M83.55,4.444H10.444A10.445,10.445,0,0,0,0,14.889V25.334H93.992V14.889A10.445,10.445,0,0,0,83.547,4.444Z" transform="translate(0.001 -4.444)" fill="#cc162b"/>
  <path id="Path_39849" data-name="Path 39849" d="M0,30.889A10.445,10.445,0,0,0,10.445,41.334H83.551A10.445,10.445,0,0,0,94,30.889V20.444H0V30.889Z" transform="translate(0.003 26.552)" fill="#3c762c"/>
  <path id="Path_39850" data-name="Path 39850" d="M0,32.443H93.993v5.222H0ZM0,11.556H93.993v5.222H0Z" transform="translate(0.003 9.334)" fill="#eee"/>
  <path id="Path_39851" data-name="Path 39851" d="M0,13.333H93.993V29H0Z" transform="translate(0.003 12.776)" fill="#0d218a"/>
</svg>
