<svg id="GNB" xmlns="http://www.w3.org/2000/svg" width="93.996" height="67.886" viewBox="0 0 93.996 67.886">
  <path id="Path_39947" data-name="Path 39947" d="M57.718,4.444H13.333V38.387h54.83v-23.5A10.445,10.445,0,0,0,57.718,4.444Z" transform="translate(25.833 -4.444)" fill="#fcd116"/>
  <path id="Path_39948" data-name="Path 39948" d="M13.333,49.943H57.718A10.445,10.445,0,0,0,68.163,39.5V16H13.333Z" transform="translate(25.833 17.943)" fill="#009e49"/>
  <path id="Path_39949" data-name="Path 39949" d="M39.165,4.444H10.444A10.445,10.445,0,0,0,0,14.889v47A10.445,10.445,0,0,0,10.444,72.33H39.165V4.447ZM26.111,48.832,19.461,44l-6.65,4.832,2.541-7.816L8.7,36.184h8.219l2.541-7.816L22,36.184h8.219l-6.65,4.832Z" transform="translate(0.001 -4.444)" fill="#ce1126"/>
  <path id="Path_39950" data-name="Path 39950" d="M16.262,20.4l-2.541-7.816L11.181,20.4H2.962l6.65,4.832L7.071,33.052l6.65-4.832,6.65,4.832-2.541-7.816,6.65-4.832Z" transform="translate(5.741 11.333)"/>
</svg>
