<svg id="GNQ" xmlns="http://www.w3.org/2000/svg" width="93.996" height="67.886" viewBox="0 0 93.996 67.886">
  <path id="Path_39859" data-name="Path 39859" d="M93.995,61.885A10.445,10.445,0,0,1,83.55,72.33H10.444A10.445,10.445,0,0,1,0,61.885v-47A10.445,10.445,0,0,1,10.444,4.444H83.55A10.445,10.445,0,0,1,93.995,14.889Z" transform="translate(0.001 -4.444)" fill="#e32118"/>
  <path id="Path_39860" data-name="Path 39860" d="M0,11.556H93.993V37.665H0Z" transform="translate(0.003 9.334)" fill="#eee"/>
  <path id="Path_39861" data-name="Path 39861" d="M83.55,4.444H10.444A10.445,10.445,0,0,0,0,14.889V25.334H93.992V14.889A10.445,10.445,0,0,0,83.547,4.444Z" transform="translate(0.001 -4.444)" fill="#3e9a00"/>
  <path id="Path_39862" data-name="Path 39862" d="M19.145,24.292,4.988,4.982A10.408,10.408,0,0,0,0,13.85v47a10.408,10.408,0,0,0,4.988,8.868L28.721,37.348,19.145,24.295Z" transform="translate(0.003 -3.402)" fill="#0173ce"/>
  <path id="Path_39863" data-name="Path 39863" d="M20.52,13.333H14.264v12.4c0,2.529,1.428,2.937,2.162,2.937h2.409a1.563,1.563,0,0,1,1.686,1.251,1.563,1.563,0,0,1,1.686-1.251h2.409c.734,0,2.162-.408,2.162-2.937v-12.4Z" transform="translate(27.636 12.776)"/>
  <path id="Path_39864" data-name="Path 39864" d="M20.176,28.471A2.221,2.221,0,0,0,18.49,27.8H16.081c-.491,0-1.639-.235-1.639-2.414V13.511H25.909V25.389c0,2.179-1.146,2.414-1.639,2.414H21.864a2.212,2.212,0,0,0-1.689.667Z" transform="translate(27.981 13.121)" fill="#fff"/>
  <path id="Path_39865" data-name="Path 39865" d="M13.589,16.625a9.531,9.531,0,0,0,1.469,1.915c1.51,1.428-.919,2.57-.919,2.57a3.067,3.067,0,0,1-1-1.06c-.244-.57.614-2.282.452-3.425Z" transform="translate(25.374 19.154)"/>
  <path id="Path_39866" data-name="Path 39866" d="M13.839,19.507a2.009,2.009,0,0,1-.561-.646,4.541,4.541,0,0,1,.2-1.093c.056-.2.106-.417.156-.634a7.981,7.981,0,0,0,.72.8c.373.352.338.576.326.646-.053.341-.493.7-.843.922Z" transform="translate(25.714 20.14)" fill="#fff"/>
  <path id="Path_39867" data-name="Path 39867" d="M14.164,17.538a3.181,3.181,0,0,0,2,2.823,9.923,9.923,0,0,0,4.365.655c.2.079,0,2.08,0,2.08A9.752,9.752,0,0,1,15.4,22.4c-2.412-1.143-2.291-2.041-2.165-2.288a2.753,2.753,0,0,0,.405-1.057,8.622,8.622,0,0,1,.529-1.519Z" transform="translate(25.531 20.923)"/>
  <path id="Path_39868" data-name="Path 39868" d="M18.863,21.521a8.574,8.574,0,0,1-3.586-.728c-1.745-.825-1.959-1.463-1.918-1.586a3.158,3.158,0,0,0,.429-1.081,3.552,3.552,0,0,0,1.845,1.586,9.6,9.6,0,0,0,3.578.708c.214,0,.4-.006.552-.012,0,.273-.018.684-.05,1.087-.214.018-.5.032-.843.032Z" transform="translate(25.874 22.062)" fill="#fff"/>
  <path id="Path_39869" data-name="Path 39869" d="M20.819,16.625A9.531,9.531,0,0,1,19.35,18.54c-1.51,1.428.919,2.57.919,2.57a3.067,3.067,0,0,0,1-1.06c.241-.57-.617-2.282-.452-3.425Z" transform="translate(36.532 19.154)"/>
  <path id="Path_39870" data-name="Path 39870" d="M19.881,19.507a2.009,2.009,0,0,0,.561-.646,4.54,4.54,0,0,0-.2-1.093c-.056-.2-.106-.417-.156-.634a7.981,7.981,0,0,1-.72.8c-.373.352-.338.576-.326.646.053.341.493.7.843.922Z" transform="translate(36.879 20.14)" fill="#fff"/>
  <path id="Path_39871" data-name="Path 39871" d="M23.535,17.538a3.181,3.181,0,0,1-2,2.823,9.923,9.923,0,0,1-4.365.655c-.2.079,0,2.08,0,2.08A9.752,9.752,0,0,0,22.3,22.4c2.411-1.143,2.291-2.041,2.165-2.288a2.7,2.7,0,0,1-.405-1.057,8.622,8.622,0,0,0-.529-1.519Z" transform="translate(33.087 20.923)"/>
  <path id="Path_39872" data-name="Path 39872" d="M18.151,21.521a8.565,8.565,0,0,0,3.586-.728c1.745-.825,1.959-1.463,1.918-1.586a3.158,3.158,0,0,1-.429-1.081,3.552,3.552,0,0,1-1.845,1.586,9.6,9.6,0,0,1-3.578.708c-.214,0-.4-.006-.552-.012,0,.273.018.684.053,1.087.211.018.5.032.84.032Z" transform="translate(33.425 22.062)" fill="#fff"/>
  <path id="Path_39873" data-name="Path 39873" d="M21.938,18.981s-.032.881-3.319.881-3.319-.881-3.319-.881a10.033,10.033,0,0,0,0,1.971c.123.567.978.9,3.319.9s3.2-.332,3.319-.9A10.277,10.277,0,0,0,21.938,18.981Z" transform="translate(29.537 23.718)"/>
  <path id="Path_39874" data-name="Path 39874" d="M18.274,20.648c-2.629,0-2.8-.435-2.808-.482a4.394,4.394,0,0,1-.041-.834,8.255,8.255,0,0,0,2.852.379,8.183,8.183,0,0,0,2.852-.379,4.377,4.377,0,0,1-.041.834c-.009.047-.179.482-2.808.482Z" transform="translate(29.882 24.398)" fill="#fff"/>
  <path id="Path_39875" data-name="Path 39875" d="M20.942,11.979l.441.764h.884l-.444.764.444.767h-.884l-.441.764-.441-.764h-.884l.441-.767-.441-.764H20.5Zm-3.5.4.6.646.861-.2-.258.846.6.646-.861.2-.258.846-.6-.646-.861.2.256-.846-.6-.646.861-.2ZM14.16,13.509l.714.526.811-.361-.1.881.717.52-.808.358-.094.881-.717-.523-.808.358.091-.878-.717-.523.811-.358Zm10.084-1.53-.441.764h-.884l.444.764-.444.767H23.8l.441.764.444-.764h.884l-.441-.767.441-.764h-.884Zm3.5.4-.6.646-.864-.2.261.846-.6.646.861.2.256.846.605-.646.861.2-.258-.846.6-.646-.861-.2Zm3.287,1.128-.717.526-.808-.361.1.881-.717.52.811.358.094.881.717-.523.808.358-.091-.878.714-.523-.808-.358Z" transform="translate(25.676 10.153)" fill="#ffd701"/>
  <path id="Path_39876" data-name="Path 39876" d="M17.9,25.5c-1.566,0-1.809-.573-1.281-1.8a12.589,12.589,0,0,0,.814-4.891,3.516,3.516,0,0,0-1.539-3.231c-.825-.775.423-.491,1,0a3.174,3.174,0,0,1,.79.937V14.636l.646.2v1.428a4.337,4.337,0,0,1,1.571-.9c.629-.082,1,.408.179.652s-1.751.667-1.751,2.782a14.457,14.457,0,0,0,.731,5.093c.411.778.4,1.595-1.166,1.595Z" transform="translate(30.259 15.301)" fill="#a36629"/>
  <path id="Path_39877" data-name="Path 39877" d="M18,19.343c-.831.435-1.419-.529-1.419-.529a1.552,1.552,0,0,1-1.466.162c-.708-.367-.6-.693,0-1.022a4.056,4.056,0,0,1,1.319-.408,6.932,6.932,0,0,1,.505-1.51,2.041,2.041,0,0,1,.861-.858s.658-1.428,1.795-1.51,1.137,1.1,1.137,1.1.7,0,.84.408a1.633,1.633,0,0,1,1.974-.285c.247.288,0,.9,0,.9s.969-.285,1.178.041a.842.842,0,0,1,0,.746s.781.153.411,1.007-1.51.611-1.51.611a1.432,1.432,0,0,1-.966.449c-.5-.041-.667-.737-.667-.737a1.22,1.22,0,0,1-1.263-.491.926.926,0,0,1-1.51.041A2.062,2.062,0,0,1,18,19.337Z" transform="translate(28.343 13.417)" fill="#009a3b"/>
</svg>
