<svg id="GRC" xmlns="http://www.w3.org/2000/svg" width="93.993" height="67.884" viewBox="0 0 93.993 67.884">
  <path id="Path_39878" data-name="Path 39878" d="M6.888,28.416H79.994a10.409,10.409,0,0,0,5.052-1.3H1.836a10.377,10.377,0,0,0,5.052,1.3Z" transform="translate(3.557 39.467)" fill="#0d5eb0"/>
  <path id="Path_39879" data-name="Path 39879" d="M22.194,36.274H0V42.8H93.993V36.274h-71.8ZM0,55.857a10.022,10.022,0,0,0,.091,1.3H93.9a10.609,10.609,0,0,0,.088-1.3V50.634H0ZM36.552,21.913H93.993V28.44H36.552Zm0-14.357v6.527H93.993V8.86a10.024,10.024,0,0,0-.091-1.3H36.554Z" transform="translate(0 1.582)" fill="#eee"/>
  <path id="Path_39880" data-name="Path 39880" d="M36.552,20.109H93.993v7.834H36.552ZM0,48.83H93.993v7.834H0ZM5.393,71.021H88.6a10.444,10.444,0,0,0,5.3-7.834H.091a10.445,10.445,0,0,0,5.3,7.834ZM0,27.94H14.36V42.3H0Zm36.552,6.53V27.943H22.191V42.3h71.8V34.47ZM88.6,5.749a10.377,10.377,0,0,0-5.052-1.3H10.442A10.434,10.434,0,0,0,.088,13.583,10.607,10.607,0,0,0,0,14.887v5.222H14.36V5.749h7.834v14.36h14.36V13.583H93.9a10.445,10.445,0,0,0-5.3-7.834Z" transform="translate(0 -4.445)" fill="#0d5eb0"/>
  <path id="Path_39881" data-name="Path 39881" d="M22.194,20.109V4.445H14.36V20.109H0v7.834H14.36V42.3h7.834V27.943h14.36V20.109Z" transform="translate(0 -4.445)" fill="#eee"/>
</svg>
