<svg id="GRD" xmlns="http://www.w3.org/2000/svg" width="93.996" height="67.886" viewBox="0 0 93.996 67.886">
  <path id="Path_39799" data-name="Path 39799" d="M83.55,4.444H10.444A10.445,10.445,0,0,0,0,14.889v47A10.445,10.445,0,0,0,10.444,72.33H83.55A10.445,10.445,0,0,0,93.995,61.885v-47A10.445,10.445,0,0,0,83.55,4.444Z" transform="translate(0.001 -4.444)" fill="#ce1126"/>
  <path id="Path_39800" data-name="Path 39800" d="M3.111,7.556H78.828V57.164H3.111Z" transform="translate(6.03 1.585)" fill="#007a5e"/>
  <path id="Path_39801" data-name="Path 39801" d="M3.111,7.556H78.828L3.111,57.164H78.828L3.111,7.556Z" transform="translate(6.03 1.585)" fill="#fcd116"/>
  <path id="Path_39802" data-name="Path 39802" d="M31.165,22.027a9.138,9.138,0,1,1-9.138-9.138A9.138,9.138,0,0,1,31.165,22.027Z" transform="translate(24.973 11.916)" fill="#ce1126"/>
  <path id="Path_39803" data-name="Path 39803" d="M32.63,29.714l1.877,5.778h6.074L35.667,39.06l1.877,5.775L32.63,41.266l-4.914,3.569,1.877-5.775-4.914-3.569h6.074Zm0-25.108,1.007,3.1H36.9L34.26,9.623l1.007,3.1L32.627,10.81l-2.641,1.915,1.007-3.1L28.356,7.708h3.26Zm20.94,0,1.007,3.1h3.26L55.2,9.623l1.007,3.1L53.567,10.81l-2.638,1.915,1.007-3.1L49.3,7.708h3.26Zm-41.88,0,1.007,3.1h3.26L13.317,9.623l1.007,3.1L11.687,10.81,9.046,12.725l1.007-3.1L7.416,7.708h3.26ZM32.63,63.351l1.007,3.1H36.9L34.26,68.368l1.007,3.1-2.641-1.915L29.986,71.47l1.007-3.1-2.638-1.915h3.26Zm20.94,0,1.007,3.1h3.26L55.2,68.368l1.007,3.1-2.641-1.915L50.929,71.47l1.007-3.1L49.3,66.453h3.26Zm-41.88,0,1.007,3.1h3.26l-2.641,1.915,1.007,3.1-2.638-1.915L9.046,71.47l1.007-3.1L7.416,66.453h3.26Z" transform="translate(14.37 -4.13)" fill="#fcd116"/>
  <path id="Path_39804" data-name="Path 39804" d="M5.593,18.692A8.114,8.114,0,0,0,8.1,20.551a11.375,11.375,0,0,0-.429-3,7.306,7.306,0,0,0-2.268-1.507,7.338,7.338,0,0,0,.182,2.644Z" transform="translate(10.383 18.036)" fill="#ce1126"/>
  <path id="Path_39805" data-name="Path 39805" d="M11.775,23.708c2.1-7.613-5.378-7.149-7.32-9.581C5.792,16.914.987,23.57,9,25.13a7.8,7.8,0,0,1-1.2-2.714,7.343,7.343,0,0,1-.182-2.644,7.288,7.288,0,0,1,2.268,1.507,9.231,9.231,0,0,1,1.895,2.432Z" transform="translate(8.183 14.315)" fill="#fcd116"/>
</svg>
