<svg id="GRL" xmlns="http://www.w3.org/2000/svg" width="94" height="67.889" viewBox="0 0 94 67.889">
  <path id="Path_41206" data-name="Path 41206" d="M0,535.5a10.445,10.445,0,0,0,10.444,10.444H83.556A10.445,10.445,0,0,0,94,535.5V512H0Z" transform="translate(0 -478.056)" fill="#d00c33"/>
  <path id="Path_41207" data-name="Path 41207" d="M83.556,142.222H10.444A10.445,10.445,0,0,0,0,152.666v23.5H94v-23.5A10.445,10.445,0,0,0,83.556,142.222Z" transform="translate(0 -142.222)" fill="#eee"/>
  <path id="Path_41208" data-name="Path 41208" d="M198.222,305.333a20.889,20.889,0,1,1-20.889-20.889A20.889,20.889,0,0,1,198.222,305.333Z" transform="translate(-142.083 -271.388)" fill="#eee"/>
  <path id="Path_41209" data-name="Path 41209" d="M177.333,284.444a20.89,20.89,0,0,0-20.889,20.889h41.778a20.89,20.89,0,0,0-20.889-20.889Z" transform="translate(-142.083 -271.388)" fill="#d00c33"/>
</svg>
