<svg id="GTM" xmlns="http://www.w3.org/2000/svg" width="93.993" height="67.889" viewBox="0 0 93.993 67.889">
  <path id="Path_39913" data-name="Path 39913" d="M83.548,4.446H62.661V72.329H83.548A10.445,10.445,0,0,0,93.993,61.884v-47A10.445,10.445,0,0,0,83.548,4.443Zm-73.1,0A10.445,10.445,0,0,0,0,14.891v47A10.445,10.445,0,0,0,10.445,72.332H31.332V4.449H10.445Z" transform="translate(0 -4.443)" fill="#4997d0"/>
  <path id="Path_39914" data-name="Path 39914" d="M10.667,4.444H42V72.327H10.667Z" transform="translate(20.665 -4.441)" fill="#eee"/>
  <path id="Path_39915" data-name="Path 39915" d="M36.907,24.694c.294-.632.253-1.034-.088-.676a11.129,11.129,0,0,1-1.284.811l.044-.153c.479-.9,1.513-.467,2.124-1.909.106-.267.652-.552-.091-.505a2.338,2.338,0,0,0-1.689,1.025c.37-1.007,1.263-.493,1.63-2.923.065-.446.117-1.357-.176-.611a4.227,4.227,0,0,1-.711.952,2.6,2.6,0,0,0-.038-1.269,2.314,2.314,0,0,0,.405-.931c.082-.593-.059-1.116-.285-.493a1.349,1.349,0,0,1-.385.523c-.059-.209-.112-.282-.273,0a2.9,2.9,0,0,0-.314,1.081l-.006.026c-.038-.22-.091-.435-.141-.649.12-.814,1.375-.79.94-3.422-.1-.637-.15-.822-.373-.032-.209.734-.858.793-.887,2.262l-.056-.17c-.144-1.407.819-2.585.091-3.792-.388-.643-.593-.7-.552-.176.05.608-.317,1.254-.247,2.138l-.026-.059c-.153-1.09.238-1.419-.2-2.127-.229-.361-.573-.834-.482-.241.018.12.029.261.041.408a1.785,1.785,0,0,0-1.348-1.21c-.637-.206-.444.1-.209.341.335.358.247.8.664,1.336-.449-.217-.837-.238-1.1-.561-.508-.629-.247.176-.123.538a2.208,2.208,0,0,0,1.143,1.334c-.047.053-.026.235.109.617a3.774,3.774,0,0,0,.6,1.1,1.4,1.4,0,0,1-.432-.388c-.535-.79-.743-.881-.643.062a1.969,1.969,0,0,0,.858,1.539,1.213,1.213,0,0,0,.232.634,1.8,1.8,0,0,0,.9.72,5.409,5.409,0,0,1,.3.966c-.018-.012-.032-.035-.053-.05-.8-.567-.6-.241-.535.253.3,2.326,1.4,1.527,1.178,3.028-.032.138-.062.27-.1.405a2.3,2.3,0,0,0-.69-1.733c-.455-.526-.611-.373-.388.6.053.226.106.508.15.808l-.012-.032c-.455-.916-.587-.652-.546.044.053.67-.514.937-.15,2.224a2.127,2.127,0,0,1-.2,1.654l-.062.082c.8-1.486-.167-1.93-.079-2.379.106-.508-.026-.6-.311.032a2.4,2.4,0,0,0-.159,1.671c-.059.035-.106.053-.182.106a5.663,5.663,0,0,0-.643.505c.023-.141.062-.276.076-.417.065-.667-.117-.993-.4-.27-.358.884-1,.866-1.407,2.2-.32,1.072-.558,1.289-1.057,1.5l-.073.032a3.3,3.3,0,0,0,1.281-2.285c.117-1.013-.132-.866-.476-.256-.326.587-.949.5-1.342,1.783a1.888,1.888,0,0,1-1.175,1.281,3.079,3.079,0,0,0,1.363-2.67c-.056-.361-.223-.582-.388.012-.194.731-.728.552-1.163,1.939-.223.7-.414.849-1.339,1.266l.135-.026a10.622,10.622,0,0,0-1.4.679,9.418,9.418,0,0,0-1.351-.649l.076.012c-.913-.414-1.107-.555-1.328-1.254-.423-1.372-.958-1.193-1.148-1.915-.156-.593-.323-.373-.382-.018A3.044,3.044,0,0,0,21.874,31.6a1.887,1.887,0,0,1-1.151-1.26c-.388-1.266-1-1.181-1.325-1.759-.338-.605-.587-.749-.467.25a3.245,3.245,0,0,0,1.26,2.256l-.156-.065c-.432-.2-.655-.452-.958-1.445-.4-1.316-1.034-1.3-1.389-2.168-.288-.711-.461-.391-.394.267a3.951,3.951,0,0,0,.076.414,5.2,5.2,0,0,0-.634-.5c-.079-.053-.123-.07-.182-.106a2.389,2.389,0,0,0-.159-1.657c-.282-.617-.411-.529-.311-.032.091.452-.875.887-.062,2.37l-.059-.079a2.1,2.1,0,0,1-.217-1.657c.364-1.269-.194-1.533-.147-2.2.047-.693-.088-.952-.535-.044l-.012.035c.044-.3.1-.576.15-.8.223-.96.059-1.11-.382-.59a2.274,2.274,0,0,0-.684,1.715c-.035-.132-.068-.27-.1-.408-.22-1.477.866-.693,1.166-2.993.062-.488.264-.811-.532-.25a.425.425,0,0,0-.053.05,5.344,5.344,0,0,1,.3-.958,1.8,1.8,0,0,0,.89-.714,1.18,1.18,0,0,0,.226-.629,1.96,1.96,0,0,0,.843-1.524c.106-.928-.1-.84-.629-.059a1.358,1.358,0,0,1-.426.382,3.781,3.781,0,0,0,.587-1.087c.129-.376.153-.558.106-.611a2.183,2.183,0,0,0,1.131-1.322c.123-.361.382-1.151-.12-.532-.258.32-.64.341-1.084.555.411-.532.326-.969.655-1.325.229-.247.426-.543-.2-.341a1.78,1.78,0,0,0-1.336,1.2c.012-.144.023-.285.041-.4.088-.59-.253-.117-.473.235-.438.7-.059,1.025-.2,2.1l-.029.065c.068-.878-.294-1.516-.247-2.118.041-.514-.159-.458-.54.176-.717,1.187.226,2.35.094,3.736l-.053.164c-.038-1.439-.679-1.5-.881-2.221-.223-.784-.267-.6-.37.032-.429,2.6.814,2.576.928,3.384-.05.214-.1.429-.138.646l-.009-.035a3.527,3.527,0,0,0-.088-.385l-.012-.029a2.756,2.756,0,0,0-.211-.643c-.159-.279-.211-.206-.27,0a1.353,1.353,0,0,1-.379-.517c-.22-.62-.364-.1-.282.488a2.308,2.308,0,0,0,.4.922,2.561,2.561,0,0,0-.035,1.257,4.045,4.045,0,0,1-.7-.943c-.294-.737-.244.162-.176.605.361,2.409,1.245,1.892,1.61,2.893a2.308,2.308,0,0,0-1.671-1.022c-.737-.044-.2.241-.088.5.6,1.428,1.621,1,2.094,1.889l.044.153a10.749,10.749,0,0,1-1.266-.8c-.341-.352-.379.047-.085.67a2.378,2.378,0,0,1-.872-.009c-.267-.088-.267.311.473.623.338.141.869.361,1.381.611.379.285.758.479,1.084.775-1.016-.731-1.78-.379-2.35-.711-.708-.411-.323.232-.129.429,1.994,2,2.309.488,3.413,1.548A1.927,1.927,0,0,0,15,27.878c-.884-.1-1.2-.232-.74.326a3.9,3.9,0,0,0,1.4,1.169,3.592,3.592,0,0,0-.746.059c-.57.12-.373.223.012.341.47.141.767.47,1.289.684h-.006c-.858.267-1,.364-.352.687a3.877,3.877,0,0,0,2.5.47,2.688,2.688,0,0,0-.8.394c-.47.347-.341.479.059.411a8.837,8.837,0,0,1,1.859.106,3.808,3.808,0,0,1-1.272.764c-.385.115-.508.329.118.388,2.394.2,3-1.3,4.147-1.281a6.139,6.139,0,0,1,1.654.74,2.8,2.8,0,0,0-.414.355c.029.27.646.135.708.285.079-.082.162-.144.244-.217.082.073.162.132.244.217.059-.15.573-.1.6-.367a2.566,2.566,0,0,0-.317-.27,6.214,6.214,0,0,1,1.686-.761c1.157-.015,1.774,1.5,4.194,1.3.632-.059.508-.273.123-.391A3.88,3.88,0,0,1,29.9,32.51a9.5,9.5,0,0,1,1.883-.106c.408.062.535-.068.059-.42a2.715,2.715,0,0,0-.8-.4,3.916,3.916,0,0,0,2.532-.476c.658-.323.508-.426-.352-.693h-.006c.529-.217.828-.549,1.3-.693.391-.117.587-.223.012-.341a3.469,3.469,0,0,0-.755-.059,3.984,3.984,0,0,0,1.422-1.187c.458-.567.144-.432-.749-.329a1.831,1.831,0,0,0-.585.17c1.125-1.084,1.436.455,3.463-1.571.194-.191.582-.846-.132-.429-.576.338-1.357-.029-2.4.74.338-.317.734-.511,1.125-.811.514-.253,1.049-.473,1.392-.617.749-.317.749-.717.476-.626a2.088,2.088,0,0,1-.875.018ZM18.79,30.839l.273.173a8.53,8.53,0,0,0-1-.373,1.639,1.639,0,0,1,.758.229l-.026-.029Zm3.21.846-.138-.041.1.015ZM16.47,27.922c.023.035.029.059.056.1.223.35.261.711.479,1.137-.1-.091-.2-.182-.3-.279a1.035,1.035,0,0,1-.229-.955Zm-.429-11.731c-.294.388-.775.449-1.225.819a1.927,1.927,0,0,1,1.019-.981,4.653,4.653,0,0,0,.482-.164,4.007,4.007,0,0,0-.273.326Zm-.446,11.855.041.047-.032-.018-.012-.029ZM18.561,31.6a4.963,4.963,0,0,1,1.187-.188l.153.079a4.58,4.58,0,0,0-1.342.109Zm15.5-16.322Zm-.661.717a3.208,3.208,0,0,0-.282-.332,4.28,4.28,0,0,0,.485.167,1.946,1.946,0,0,1,1.028.993c-.452-.373-.937-.435-1.234-.828ZM31.367,30.6a8.694,8.694,0,0,0-1.013.373l.256-.162-.012.015A1.642,1.642,0,0,1,31.367,30.6Zm1.542-2.646.059-.1a1.044,1.044,0,0,1-.229.963c-.1.1-.206.2-.314.288.223-.432.258-.793.485-1.148Zm-5.5,3.68.109-.018-.159.05A.24.24,0,0,0,27.414,31.635Zm2.085-.173.162-.082a5.707,5.707,0,0,1,1.242.2,4.764,4.764,0,0,0-1.4-.12Zm4.306-3.431.038-.047-.009.026c-.012.006-.021.015-.032.021Z" transform="translate(22.25 11.173)" fill="#437e24"/>
  <path id="Path_39916" data-name="Path 39916" d="M16.549,16.375s-1.991,1.792-2.238,2.033a4.419,4.419,0,0,0-.488,1.3l.649.405,2.89-2.97-.814-.773Z" transform="translate(26.779 18.673)" fill="#b1b6ba"/>
  <path id="Path_39917" data-name="Path 39917" d="M15.9,19.379l.611.485a2.374,2.374,0,0,0-.611,1.057,13.9,13.9,0,0,1-1.792,2.561c-.285.411-.652.323-.814,0s-.526-.57-.567-.811.9-1.1,1.342-1.586.931-.693,1.178-.975.652-.734.652-.734Zm2.89-2.852L17.56,17.908l.329.329,1.187-1.345Z" transform="translate(24.661 18.967)" fill="#6c301e"/>
  <path id="Path_39918" data-name="Path 39918" d="M12.853,12.428,16.8,16.534l.975-.488-.305-.441-.67.156Z" transform="translate(24.9 11.026)" fill="#b1b6ba"/>
  <path id="Path_39919" data-name="Path 39919" d="M15.739,18.329l.488.817.444-.411s.361.652,0,.773a.89.89,0,0,1-.632,0L14.8,20.517a.873.873,0,0,0-.9,0s.082-.6.329-.6,1.134-1.181,1.134-1.181-.473-.132-.376-.411.746,0,.746,0Z" transform="translate(26.94 22.208)" fill="#fab81b"/>
  <path id="Path_39920" data-name="Path 39920" d="M14.53,23.284s7.24-7.2,10.254-7.472a43.459,43.459,0,0,0-3.7,2.526c-1.422,1.14-6.06,5.44-6.06,5.44l-.491-.491Z" transform="translate(28.149 17.582)" fill="#b1b6ba"/>
  <path id="Path_39921" data-name="Path 39921" d="M17.864,16.375s1.994,1.792,2.232,2.033a4.36,4.36,0,0,1,.491,1.3l-.646.405-2.89-2.97.814-.773Z" transform="translate(33.031 18.673)" fill="#b1b6ba"/>
  <path id="Path_39922" data-name="Path 39922" d="M20.358,19.379l-.611.485a2.374,2.374,0,0,1,.611,1.057,14.04,14.04,0,0,0,1.792,2.561c.285.411.652.323.814,0s.526-.57.567-.811-.9-1.1-1.342-1.586-.931-.693-1.178-.975-.652-.734-.652-.734Zm-2.89-2.852L18.7,17.908l-.326.329-1.187-1.345Z" transform="translate(33.3 18.967)" fill="#6c301e"/>
  <path id="Path_39923" data-name="Path 39923" d="M17,16.261l-.458,1.3,3.93-3.927-.6-.109Z" transform="translate(32.046 13.153)" fill="#b1b6ba"/>
  <path id="Path_39924" data-name="Path 39924" d="M22.47,12.428l-3.948,4.106-.975-.488.975-.285Z" transform="translate(33.993 11.026)" fill="#b1b6ba"/>
  <path id="Path_39925" data-name="Path 39925" d="M18.265,18.329l-.482.817-.444-.411s-.364.652,0,.773a.9.9,0,0,0,.632,0l1.234,1.01a.87.87,0,0,1,.893,0s-.082-.6-.326-.6-1.134-1.181-1.134-1.181.47-.132.373-.411-.746,0-.746,0Z" transform="translate(33.278 22.208)" fill="#fab81b"/>
  <path id="Path_39926" data-name="Path 39926" d="M24.309,23.284s-7.24-7.2-10.251-7.472a42.964,42.964,0,0,1,3.7,2.526c1.425,1.14,6.063,5.44,6.063,5.44l.485-.491Z" transform="translate(27.234 17.582)" fill="#b1b6ba"/>
  <path id="Path_39927" data-name="Path 39927" d="M15.079,13.494c1.184-.068,4.594.041,5.86,0s.975.611,1.054.978-.687.773-.687.773.811.488,1.868,3.337.811,4.147-.611,4.233-5.084.326-6.309.326-1.422-.446-1.422-1.1a1.362,1.362,0,0,1,1.953-1.072,8.4,8.4,0,0,0-.57-2.059c-.57-1.624-1.792-3.375-1.912-4.147s.162-1.231.773-1.266Z" transform="translate(27.653 13.047)" fill="#f9f0aa"/>
  <path id="Path_39928" data-name="Path 39928" d="M16.168,13.116c-.488-.449.191-.937.687-.9s.737.323.209.9a14.371,14.371,0,0,1,2.561,1.83c1.137,1.057,3.478,3.912,3.7,7,.285,3.986-1.912,6.06-2.729,7.484s-2.641,5.005-2.641,5.005-.041-1.83,2.362-5.167c0,0-1.868,3.337-4.758,3.948,0,0,3.616-2.55,4.632-4.585s2.5-5.087,2.259-7.2-.626-3.912-3.434-5.3a5.707,5.707,0,0,1-2.561-.731,1.6,1.6,0,0,1-.288-2.276Z" transform="translate(30.144 10.62)" fill="#437e24"/>
  <path id="Path_39929" data-name="Path 39929" d="M21.054,14.289c0,.123.529.784.458.784H15.3a1.281,1.281,0,0,1-.417-.552l-.476-.555a1.746,1.746,0,0,0,.89,0h6.215c.073,0-.452.2-.452.326Zm-4.515,7.2c0,.123-.261.526-.191.526h6.215c.065,0,.64-.432.64-.552l.25-.552a1.746,1.746,0,0,1-.89,0H16.348c-.068,0,.191.458.191.582Z" transform="translate(27.905 14.006)" fill="#e2cf81"/>
</svg>
