<svg id="GUM" xmlns="http://www.w3.org/2000/svg" width="94" height="67.889" viewBox="0 0 94 67.889">
  <path id="Path_41210" data-name="Path 41210" d="M94,199.666a10.445,10.445,0,0,1-10.444,10.444H10.444A10.445,10.445,0,0,1,0,199.666v-47a10.445,10.445,0,0,1,10.444-10.444H83.556A10.445,10.445,0,0,1,94,152.666Z" transform="translate(0 -142.222)" fill="#dd2e44"/>
  <path id="Path_41211" data-name="Path 41211" d="M117.224,225.5a7.833,7.833,0,0,1-7.833,7.833H36.279a7.833,7.833,0,0,1-7.833-7.833v-47a7.833,7.833,0,0,1,7.833-7.833H109.39a7.833,7.833,0,0,1,7.833,7.833Z" transform="translate(-25.835 -168.056)" fill="#00297b"/>
  <path id="Path_41212" data-name="Path 41212" d="M352.877,321.551c6.977-5.8,14.7-12.52,14.7-22.022s-7.721-16.228-14.7-22.025c-6.979,5.8-14.7,12.518-14.7,22.025S345.9,315.754,352.877,321.551Z" transform="translate(-307.133 -265.086)" fill="#dd2e44"/>
  <path id="Path_41213" data-name="Path 41213" d="M362.012,558.251c1.606,6.687,7.3,11.742,12.512,16.194,5.22-4.452,10.909-9.51,12.512-16.194Z" transform="translate(-328.78 -520.061)" fill="#017bdd"/>
  <path id="Path_41214" data-name="Path 41214" d="M382.643,323.865a15.835,15.835,0,0,0,.449-3.747c0-8.606-6.807-14.7-12.959-19.944-6.152,5.248-12.956,11.335-12.956,19.944a15.97,15.97,0,0,0,.444,3.747Z" transform="translate(-324.389 -285.674)" fill="#66afeb"/>
  <path id="Path_41215" data-name="Path 41215" d="M486.273,530.887a15.457,15.457,0,0,1-.4,2.512H470.841c.185-.5.444-1.274.668-1.856C475.739,532.125,482.4,531.968,486.273,530.887Z" transform="translate(-427.619 -495.209)" fill="#9c8431"/>
  <path id="Path_41216" data-name="Path 41216" d="M394.006,627.117a30.7,30.7,0,0,1-3.123-3.956c2.366.107,6.987.6,8.823,2.193.447.387.447.58-.11.5a13.231,13.231,0,0,0-5.59,1.261Z" transform="translate(-355.001 -579.012)" fill="#fff100"/>
  <path id="Path_41217" data-name="Path 41217" d="M470.485,598.179c-2.434,4.909-6.946,8.888-11.149,12.476-1.308-1.118-2.645-2.269-3.94-3.475,1.786-2.828,6.763-1.089,6.763-3.6,0-1.313-1.261-2.462-3.045-2.59-.556-.037-.692-.06-.261-.384,2.042-1.543,4.123.115,7.609-1.467C469,597.986,470.163,598.072,470.485,598.179Z" transform="translate(-413.591 -556.271)" fill="#fff100"/>
  <path id="Path_41218" data-name="Path 41218" d="M412.174,339.074a1.562,1.562,0,0,1-.12-.259,2.594,2.594,0,0,0,.77.251,3.308,3.308,0,0,1-.251-.279,1.99,1.99,0,0,0,.77.183,5.341,5.341,0,0,0-.465-.444,6.932,6.932,0,0,0,.778.329,2.441,2.441,0,0,0-.128-.407,3.175,3.175,0,0,0,.627.311,1.84,1.84,0,0,0-.107-.444,4.106,4.106,0,0,0,.663.426c-.052-.078-.036-.329-.128-.444a4.138,4.138,0,0,0,.689.465c-.1-.115-.112-.347-.188-.444.112.1.486.272.653.386-.042-.078-.112-.253-.188-.368.112.115.611.4.76.522a4.372,4.372,0,0,0-.162-.465c.219.078.8.426.984.5-.668-1.337-3.671-1.786-5.387-1.243.272-.133.418-.4.932-.525a1.651,1.651,0,0,1-.483-.261,4.6,4.6,0,0,0,.909-.1c-.112-.1-.316-.251-.407-.347a3.949,3.949,0,0,0,.984-.1c-.1-.039-.3-.115-.413-.172a3.05,3.05,0,0,0,.723.018,4.354,4.354,0,0,0-.444-.426,3.681,3.681,0,0,0,1.039.018c-.149-.1-.353-.193-.486-.269a5.818,5.818,0,0,0,.948-.193,1.6,1.6,0,0,0-.486-.211,1.882,1.882,0,0,0,.815-.386,5.477,5.477,0,0,0-4.682,2.512,9.943,9.943,0,0,0-.154-1.407l-.259.326a3.99,3.99,0,0,0,.034-1.188,3.682,3.682,0,0,1-.232.454,5.544,5.544,0,0,0-.128-1.24,4.451,4.451,0,0,1-.264.454,5.1,5.1,0,0,0-.258-1.462,2.27,2.27,0,0,1-.18.619,5.993,5.993,0,0,0-.347-1.41,3.162,3.162,0,0,1-.042.7,7.267,7.267,0,0,0-.447-.89,1.7,1.7,0,0,1,0,.431,4.785,4.785,0,0,0-.783-.8,8.269,8.269,0,0,1,.4.83,1.315,1.315,0,0,0-.24-.094,8.946,8.946,0,0,1,.525.836,1.531,1.531,0,0,0-.376-.047,5.634,5.634,0,0,1,.705.76.834.834,0,0,0-.41.01,3.142,3.142,0,0,1,.674.606.9.9,0,0,0-.4-.11c.2.206.48.567.608.708a1.588,1.588,0,0,0-.6-.157c.151.149.6.632.721.791a1.814,1.814,0,0,0-.475,0c.17.157.611.661.718.791a1.782,1.782,0,0,0-.5-.117,9.23,9.23,0,0,1,.6.841,1.846,1.846,0,0,1-.407-.073,5.651,5.651,0,0,0-3.932-2.679,4.8,4.8,0,0,1,.927.637c-.131,0-.316-.039-.428-.039a4.586,4.586,0,0,0,.8.5,1,1,0,0,0-.371.05c.167.167.611.29.9.5-.11,0-.3.018-.407.018a2.288,2.288,0,0,1,.836.629c-.073-.01-.279-.029-.381-.039a3.708,3.708,0,0,1,.723.533,1.81,1.81,0,0,0-.389-.029,4.921,4.921,0,0,1,.742.491c-.076-.008-.334-.029-.407-.029a8.458,8.458,0,0,1,.838.726,6.459,6.459,0,0,0-8.1,1.768c.225-.076,1-.54,1.261-.619-.112.136-.076.311-.149.444.222-.136.574-.426.836-.6-.055.1-.094.308-.185.483.185-.115.76-.5,1.039-.734a1.84,1.84,0,0,1-.167.444c.3-.175.854-.561,1.042-.7a3.386,3.386,0,0,1-.261.483c.261-.1.854-.483,1.206-.676a1.751,1.751,0,0,1-.185.444,2.206,2.206,0,0,1,1.024-.272,1.126,1.126,0,0,1-.261.347,2.511,2.511,0,0,1,1.123-.11c-1.914.632-3.828,2.695-3.776,4.052a4.582,4.582,0,0,1,.752-.927,1.535,1.535,0,0,0-.008.512,5.627,5.627,0,0,1,.462-.948,1.279,1.279,0,0,0,.065.512,7.253,7.253,0,0,1,.574-1.084,1.645,1.645,0,0,0,.047.637,5.182,5.182,0,0,1,.661-.995,1.844,1.844,0,0,0-.037.58,6.619,6.619,0,0,1,.742-.966,3.045,3.045,0,0,0-.076.658,6.8,6.8,0,0,1,.966-1.052,2.989,2.989,0,0,0-.138.608,3.645,3.645,0,0,1,1.068-.687,5.465,5.465,0,0,0-.984,1.246l.36-.068a3.551,3.551,0,0,0-.7.8,2.935,2.935,0,0,1,.42-.175,4.685,4.685,0,0,0-.614.937,3.378,3.378,0,0,1,.436-.154,4.649,4.649,0,0,0-.65,1.167,1.89,1.89,0,0,1,.475-.319,5.292,5.292,0,0,0-.556,1.188,2.92,2.92,0,0,1,.428-.465,6.512,6.512,0,0,0-.2.89,1.4,1.4,0,0,1,.24-.3,4.678,4.678,0,0,0,.084,1.034,6.73,6.73,0,0,1,.2-.82,1.182,1.182,0,0,0,.11.214c0-.214.086-.715.112-.9a1.578,1.578,0,0,0,.232.261,5.429,5.429,0,0,1-.055-.956.759.759,0,0,0,.287.24,3.14,3.14,0,0,1-.12-.83.845.845,0,0,0,.214.319c-.018-.261-.008-.684-.018-.859a1.456,1.456,0,0,0,.326.473c-.021-.193-.057-.8-.047-.984a2.052,2.052,0,0,0,.324.29c-.026-.212-.047-.83-.047-.984a1.649,1.649,0,0,0,.279.386,8.92,8.92,0,0,1,.065-.945,1.838,1.838,0,0,1,.24.3,2.418,2.418,0,0,1,.593-1.217,5.768,5.768,0,0,1,.679,1.188,2.157,2.157,0,0,1,.12-.311c.008.193.091.7.11.83a1.515,1.515,0,0,1,.185-.329,6.461,6.461,0,0,0,.055.794.817.817,0,0,1,.185-.29,3.781,3.781,0,0,0,0,.909,1.4,1.4,0,0,1,.222-.3,6.175,6.175,0,0,0,.149,1.063,1.847,1.847,0,0,1,.2-.347c0,.211.073.83.091,1.138a1.362,1.362,0,0,1,.235-.386,2.516,2.516,0,0,0,.193,1.052,1.389,1.389,0,0,1,.131-.444,3.378,3.378,0,0,1,.352.995,2.059,2.059,0,0,0-.036-1.206.84.84,0,0,0,.222.136,2.6,2.6,0,0,0-.363-.82,1.678,1.678,0,0,1,.287.164,4.46,4.46,0,0,0-.4-.977,1.689,1.689,0,0,1,.371.115,3.99,3.99,0,0,0-.614-.838c.094.029.329.1.41.136a3.8,3.8,0,0,0-.864-.773c.151-.018.407-.018.53-.018a3.27,3.27,0,0,0-.854-.658c.084.01.306.057.415.086a3.011,3.011,0,0,0-.676-.791,4.573,4.573,0,0,1,.872.533,1.23,1.23,0,0,0-.047-.59,2.866,2.866,0,0,1,.64.627,1.485,1.485,0,0,0,.029-.454,2.9,2.9,0,0,1,.809.851,2.358,2.358,0,0,0-.01-.619,2.952,2.952,0,0,1,.5.627,1.508,1.508,0,0,0-.01-.436,5.08,5.08,0,0,1,.379.723,1.632,1.632,0,0,0,.065-.54,5.232,5.232,0,0,1,.493.83,2.38,2.38,0,0,0,.091-.483,3.5,3.5,0,0,1,.332.917,1.8,1.8,0,0,0,.123-.619c.091.175.363.88.418,1.026a2.077,2.077,0,0,0,.081-.512,6.3,6.3,0,0,1,.381.995,1.632,1.632,0,0,0,.06-.5,2.887,2.887,0,0,0,.567.966c.264-2.5-2.4-4.084-4.533-4.408Z" transform="translate(-363.759 -314.399)" fill="#029270"/>
  <path id="Path_41219" data-name="Path 41219" d="M409.632,533.863c-1.034,0-1.5.191-2.611.269-.016-4.282.008-5.776-.118-5.776s-.1,1.5-.117,5.784c-.232.013-.436.029-.734.029-1.932,0-2.285-.308-3.585-.308-.042.462.491.922,1.966,1.112l-.06.379a2.253,2.253,0,0,1-.543-.081c-.084.436.948.54,2.219.54s2.3-.1,2.217-.54a2.139,2.139,0,0,1-.543.081l-.06-.376c1.478-.191,2.011-.653,1.969-1.112Zm-2.227,1.522a14.695,14.695,0,0,1-2.713,0l.05-.379c.384.037.8.063,1.306.063s.919-.026,1.3-.063l.055.379Z" transform="translate(-365.519 -492.91)" fill="#7b4800"/>
  <path id="Path_41220" data-name="Path 41220" d="M495.558,418.049c.164,4.765-1.875,16.252,5.342,19.816.689.311.178,1.611-.995,1.008-6.87-3.893-4.671-15.747-4.794-20.852l.447.029Z" transform="translate(-449.443 -392.703)" fill="#7b4800"/>
  <path id="Path_41221" data-name="Path 41221" d="M491.729,415.152a.517.517,0,1,1-.517-.517A.517.517,0,0,1,491.729,415.152Z" transform="translate(-445.651 -389.628)" fill="#7b4800"/>
  <path id="Path_41222" data-name="Path 41222" d="M498.357,413.161a.517.517,0,1,1-.517-.517A.517.517,0,0,1,498.357,413.161Z" transform="translate(-451.67 -387.82)" fill="#7b4800"/>
  <path id="Path_41223" data-name="Path 41223" d="M501.2,407.813a.517.517,0,1,1-.517-.517A.517.517,0,0,1,501.2,407.813Z" transform="translate(-454.253 -382.963)" fill="#7b4800"/>
  <path id="Path_41224" data-name="Path 41224" d="M491.359,406.021a.517.517,0,1,1-.517-.517A.517.517,0,0,1,491.359,406.021Z" transform="translate(-445.315 -381.336)" fill="#7b4800"/>
  <path id="Path_41225" data-name="Path 41225" d="M413.423,531.74a7.807,7.807,0,0,1-.836,5.254c1.708-.172,4.455-.347,5.384,0C417.154,534.832,415.279,532.184,413.423,531.74Z" transform="translate(-374.713 -495.983)" fill="#fff"/>
  <path id="Path_41226" data-name="Path 41226" d="M402.443,488.343a.732.732,0,0,0-.671-.569c-.47,0-.773.48-.773,1.2s.311,1.214.783,1.206a.7.7,0,0,0,.689-.752h-.608v-.561h1.128v1.825h-.36a1.57,1.57,0,0,0-.052-.4.951.951,0,0,1-.8.493c-.723.047-1.334-.752-1.334-1.815s.517-1.765,1.334-1.765a1.144,1.144,0,0,1,1.175,1.144h-.507Zm4.207,1.851c.431,0,.543-.324.543-.627V487.2h.6v2.358a1.149,1.149,0,1,1-2.293,0V487.2h.6v2.366C406.109,489.873,406.224,490.195,406.649,490.195Zm5.455-.739-.381,0,.394-1.457.392,1.457-.4,0v.6h.574l.193.728h.588l-.995-3.585h-.695l-.995,3.585h.588l.2-.728h.546v-.6Zm4.65,1.326-.556-2.731v2.731h-.58V487.2h.9l.535,2.75.535-2.75h.9v3.585h-.58v-2.731l-.556,2.731Z" transform="translate(-363.681 -455.529)" fill="#dd2e44"/>
</svg>
