<svg id="GUY" xmlns="http://www.w3.org/2000/svg" width="93.996" height="67.886" viewBox="0 0 93.996 67.886">
  <path id="Path_39951" data-name="Path 39951" d="M83.55,4.444H10.444A10.445,10.445,0,0,0,0,14.889v47A10.445,10.445,0,0,0,10.444,72.33H83.55A10.445,10.445,0,0,0,93.995,61.885v-47A10.445,10.445,0,0,0,83.55,4.444Z" transform="translate(0.001 -4.444)" fill="#009e49"/>
  <path id="Path_39952" data-name="Path 39952" d="M2.364,5.026A10.365,10.365,0,0,0,1.216,5.9V68.624a10.8,10.8,0,0,0,1.151.875l89.27-32.237L2.364,5.029s0,0,0,0Z" transform="translate(2.359 -3.317)" fill="#fff"/>
  <path id="Path_39953" data-name="Path 39953" d="M2.816,62.415,79.4,34.447,2.816,6.478Z" transform="translate(5.458 -0.504)" fill="#fcd116"/>
  <path id="Path_39954" data-name="Path 39954" d="M46,36.684,2.578,5.323A10.491,10.491,0,0,0,.513,7.781L.56,65.552a10.431,10.431,0,0,0,2.018,2.494L46,36.687Z" transform="translate(0.997 -2.741)" fill="#141414"/>
  <path id="Path_39955" data-name="Path 39955" d="M1.507,6.16l0,.006a10.386,10.386,0,0,0-1.5,5.4v47A10.338,10.338,0,0,0,1.551,63.93L41.774,35.063,1.507,6.16Z" transform="translate(0.003 -1.12)" fill="#ce1126"/>
</svg>
