<svg id="HKG" xmlns="http://www.w3.org/2000/svg" width="94" height="67.889" viewBox="0 0 94 67.889">
  <path id="Path_41227" data-name="Path 41227" d="M94,199.666a10.445,10.445,0,0,1-10.444,10.444H10.444A10.445,10.445,0,0,1,0,199.666v-47a10.445,10.445,0,0,1,10.444-10.444H83.556A10.445,10.445,0,0,1,94,152.666Z" transform="translate(0 -142.222)" fill="#de2910"/>
  <path id="Path_41228" data-name="Path 41228" d="M272.635,251.942a7.6,7.6,0,0,0-5.314-.809,9.046,9.046,0,0,0-6.037,5.849,13.428,13.428,0,0,0-.663,3.632c.013.757.01,2.021.1,3.269a17.3,17.3,0,0,0,1.2,4.483l.044-.016a19.166,19.166,0,0,0,2.9,4.9c1.426,1.872,2.541,2.716,2.765,2.713a1.472,1.472,0,0,1-.423-.358,9.988,9.988,0,0,1-1.8-4.144,13.471,13.471,0,0,1,.775-6.382c.17-.535.522-.689.755-.551.018.01.029.034.047.05.144.133.232.376.1.82-.326,1.144-1.125,4.021-.7,6.063a8.348,8.348,0,0,0,1.611,3.8,6.67,6.67,0,0,1-.582-2.6,3.2,3.2,0,0,1,.232-1.689,4.589,4.589,0,0,1,2.034-1.8c.572-.308,1.11-.728,1.6-1.044a6.862,6.862,0,0,0,2.938-5.405l-.055-.854a4.807,4.807,0,0,0-.467-2.021,9.6,9.6,0,0,0-1.076-1.757,5.839,5.839,0,0,1-.381-.708,3.652,3.652,0,0,1-.379-1.9,1.252,1.252,0,0,1,.238-.9,1.643,1.643,0,0,1,.7-.736,1.961,1.961,0,0,1,1.46.1c.36.18.428.165.614.266.167.091.6.321.577.23a7.623,7.623,0,0,0-2.825-2.512Zm-9.76,25.764a13.5,13.5,0,0,1-5.953-2.431c-.467-.3-.527-.681-.339-.87l.016-.008c.154-.136.433-.172.867.089,1.021.616,3.585,2.144,5.666,2.274a8.779,8.779,0,0,0,3.734-.42,6.9,6.9,0,0,1-2.324-.177,3.251,3.251,0,0,1-1.567-.679,4.609,4.609,0,0,1-1.185-2.444c-.144-.634-.4-1.264-.574-1.825a6.856,6.856,0,0,0-4.413-4.287l-.836-.175a4.88,4.88,0,0,0-2.073-.1,9.482,9.482,0,0,0-1.982.564,5.637,5.637,0,0,1-.783.178,3.649,3.649,0,0,1-1.93-.146,1.253,1.253,0,0,1-.8-.475,1.615,1.615,0,0,1-.522-.869,1.968,1.968,0,0,1,.488-1.379c.272-.292.274-.366.42-.52.133-.138.473-.493.376-.491a8.067,8.067,0,0,0-5.387,6.935,9.065,9.065,0,0,0,4.005,7.395,13.393,13.393,0,0,0,3.319,1.616c.734.191,1.948.535,3.175.786a17.4,17.4,0,0,0,4.64.052v-.05a19.23,19.23,0,0,0,5.5-1.462c2.4-.956,3.58-1.922,3.4-2.011l-.031.026a.2.2,0,0,1-.115.042,1.39,1.39,0,0,1-.326.225,9.967,9.967,0,0,1-4.465.635Zm6.57,3.058a9.028,9.028,0,0,0-.8-3.757,1.414,1.414,0,0,1,.057.178,9.934,9.934,0,0,1-.645,4.47,13.556,13.556,0,0,1-4.008,5.032.876.876,0,0,1-.752.258.319.319,0,0,1-.245-.245c-.039-.188.063-.46.392-.76.877-.807,3.068-2.833,3.778-4.8a9,9,0,0,0,.653-3.564,6.748,6.748,0,0,1-.9,2.277,3.2,3.2,0,0,1-1.12,1.285,4.552,4.552,0,0,1-2.687.386c-.645-.052-1.326.005-1.914-.005a6.853,6.853,0,0,0-5.421,2.909l-.42.744a4.808,4.808,0,0,0-.715,1.945,9.4,9.4,0,0,0-.065,2.06,6.135,6.135,0,0,1-.068.8,3.684,3.684,0,0,1-.726,1.8,1.265,1.265,0,0,1-.692.619,1.655,1.655,0,0,1-.99.235,1.964,1.964,0,0,1-1.165-.883c-.2-.347-.266-.371-.368-.559-.091-.167-.326-.6-.355-.507a8.056,8.056,0,0,0,4.982,7.233,9.05,9.05,0,0,0,8.256-1.582,13.462,13.462,0,0,0,2.548-2.674c.4-.64,1.1-1.692,1.71-2.786a17.485,17.485,0,0,0,1.452-4.408l-.044-.013a19.3,19.3,0,0,0,.266-5.687Z" transform="translate(-221.389 -240.973)" fill="#fff"/>
  <path id="Path_41229" data-name="Path 41229" d="M534.3,538.327a13.28,13.28,0,0,0-1.556-3.35c-.446-.611-1.172-1.642-1.969-2.614A17.429,17.429,0,0,0,527.2,529.4l-.023.037a19.374,19.374,0,0,0-5.2-2.332,10.184,10.184,0,0,0-3.794-.658,1.433,1.433,0,0,1,.569.055,9.971,9.971,0,0,1,3.846,2.371,13.56,13.56,0,0,1,3.016,5.682c.17.541-.037.872-.313.88-.008,0-.008.013-.016.013s-.016-.016-.023-.021c-.2-.018-.415-.167-.569-.616-.389-1.125-1.379-3.94-2.9-5.376a8.393,8.393,0,0,0-3.5-2.2.978.978,0,0,1-.381-.206c-.013.01-.026.008-.039.023l.373.222a6.659,6.659,0,0,1,1.974,1.783,3.271,3.271,0,0,1,.783,1.517,4.637,4.637,0,0,1-.619,2.645c-.287.582-.486,1.235-.708,1.778a6.848,6.848,0,0,0,.718,6.107l.538.666a4.821,4.821,0,0,0,1.548,1.379,9.66,9.66,0,0,0,1.9.82,5.74,5.74,0,0,1,.718.355,3.645,3.645,0,0,1,1.4,1.334,1.266,1.266,0,0,1,.324.872,1.649,1.649,0,0,1-.146,1,1.98,1.98,0,0,1-1.246.765c-.4.055-.444.11-.655.136-.188.023-.682.084-.6.146a7.523,7.523,0,0,0,3.744.423,7.605,7.605,0,0,0,4.81-2.4A9.1,9.1,0,0,0,534.3,538.327Z" transform="translate(-470.347 -491.15)" fill="#fff"/>
  <path id="Path_41230" data-name="Path 41230" d="M537.257,391.189a9.062,9.062,0,0,0-7.515-3.77,13.49,13.49,0,0,0-3.642.572c-.713.261-1.906.674-3.055,1.172a17.5,17.5,0,0,0-3.833,2.616l.029.034a19.156,19.156,0,0,0-3.676,4.353,9.8,9.8,0,0,0-1.658,3.428,1.5,1.5,0,0,1,.191-.494,9.928,9.928,0,0,1,3.327-3.058,13.576,13.576,0,0,1,6.282-1.363c.567-.016.828.269.765.535a.361.361,0,0,1-.065.12.849.849,0,0,1-.708.3c-1.185.068-4.165.259-5.956,1.329a8.408,8.408,0,0,0-3.063,2.77.96.96,0,0,1-.306.316c.005.013,0,.024.01.039l.319-.3a6.7,6.7,0,0,1,2.256-1.4,3.216,3.216,0,0,1,1.676-.339A4.571,4.571,0,0,1,521,399.372c.483.436,1.055.807,1.512,1.167a6.877,6.877,0,0,0,6.076.992l.789-.337a4.856,4.856,0,0,0,1.752-1.107,9.526,9.526,0,0,0,1.3-1.6,5.361,5.361,0,0,1,.543-.593,3.664,3.664,0,0,1,1.666-.984,1.259,1.259,0,0,1,.927-.068,1.622,1.622,0,0,1,.924.415,1.939,1.939,0,0,1,.386,1.41c-.055.4-.01.457-.047.666-.031.188-.1.676-.024.619a8.046,8.046,0,0,0,.447-8.768Z" transform="translate(-466.731 -364.897)" fill="#fff"/>
  <path id="Path_41231" data-name="Path 41231" d="M362.006,358.912l-.956,1.441-1.682-.394,1.073,1.355-.872,1.436-.023.042,1.621-.6L362.3,363.5l-.076-1.731,1.6-.671-1.668-.462Zm-11.956,10.6-.005-.047-.893,1.48-1.7-.326,1.131,1.311-.809,1.473-.023.042,1.6-.671,1.183,1.261-.146-1.723,1.567-.736-1.684-.394Zm27.02-.5-1.679-.426-.183-1.721-.922,1.462-1.692-.358,1.1,1.332-.843,1.457-.021.042,1.606-.642,1.125,1.251.034.034-.11-1.726,1.535-.684ZM356.6,383.592l-.005-.044-.888,1.483-1.65-.305-.047-.01,1.136,1.3-.8,1.48-.023.042,1.59-.681,1.191,1.256-.157-1.721,1.561-.749-1.687-.381Zm15.084-1.324,0-.047-.974,1.433-1.679-.418,1.057,1.368-.89,1.428-.023.039,1.627-.585,1.078,1.287.031.039-.047-1.729,1.556-.634.047-.016-1.661-.486Z" transform="translate(-315.554 -339.021)" fill="#de2910"/>
</svg>
