<svg id="HND" xmlns="http://www.w3.org/2000/svg" width="93.999" height="67.886" viewBox="0 0 93.999 67.886">
  <path id="Path_39967" data-name="Path 39967" d="M0,12.444H93.993V33.331H0Z" transform="translate(0.003 11.054)" fill="#eee"/>
  <path id="Path_39968" data-name="Path 39968" d="M83.55,4.444H10.444A10.445,10.445,0,0,0,0,14.889V27.942H93.992V14.889A10.445,10.445,0,0,0,83.547,4.444ZM0,61.885A10.445,10.445,0,0,0,10.447,72.33H83.553A10.445,10.445,0,0,0,94,61.885V48.832H0V61.885Z" transform="translate(0.001 -4.444)" fill="#0156a3"/>
  <path id="Path_39969" data-name="Path 39969" d="M28.935,20.551l-.649-2-.649,2h-2.1l1.7,1.234-.649,2,1.7-1.237L30,23.788l-.649-2,1.7-1.234Zm13.92,6.474-.649,2,1.7-1.234,1.7,1.234-.649-2,1.7-1.234h-2.1l-.649-2-.649,2h-2.1Zm1.7-11.7-.649-2-.649,2h-2.1l1.7,1.234-.649,2,1.7-1.237,1.7,1.237-.649-2,1.7-1.234Zm-33.177,11.7-.649,2,1.7-1.234,1.7,1.234-.649-2,1.7-1.234h-2.1l-.649-2-.649,2H9.69Zm1.7-11.7-.649-2-.649,2h-2.1l1.7,1.234-.649,2,1.7-1.237,1.7,1.237-.649-2,1.7-1.234Z" transform="translate(18.758 12.767)" fill="#2657a7"/>
</svg>
