<svg id="HRV" xmlns="http://www.w3.org/2000/svg" width="93.996" height="67.886" viewBox="0 0 93.996 67.886">
  <path id="Path_39970" data-name="Path 39970" d="M0,11.467H93.993V38.1H0Z" transform="translate(0.003 9.161)" fill="#eee"/>
  <path id="Path_39971" data-name="Path 39971" d="M93.995,30.889A10.445,10.445,0,0,1,83.55,41.334H10.444A10.445,10.445,0,0,1,0,30.889V20.444H93.992V30.889Z" transform="translate(0.001 26.552)" fill="#171796"/>
  <path id="Path_39972" data-name="Path 39972" d="M83.55,4.444H10.444A10.445,10.445,0,0,0,0,14.889V25.334H93.992V14.889A10.445,10.445,0,0,0,83.547,4.444Z" transform="translate(0.001 -4.444)" fill="#d52b1e"/>
  <path id="Path_39973" data-name="Path 39973" d="M10.141,6.61V36.723a17.21,17.21,0,0,0,34.419,0V6.61H10.144Z" transform="translate(19.649 -0.248)" fill="#d52b1e"/>
  <path id="Path_39974" data-name="Path 39974" d="M16.7,24.609h6.527v6.527H16.7Zm6.527,6.527h6.527v6.527H23.225Zm0-13.053h6.527v6.527H23.225Zm6.527,6.527h6.527v6.527H29.752Zm0-13.053h6.527v6.527H29.752Zm6.527,6.527h6.112v6.527H36.278ZM16.7,11.556h6.527v6.527H16.7Zm19.58,26.106h2.1a15.9,15.9,0,0,0,3.484-6.527H36.281v6.527Zm-6.527,0V42.7a15.848,15.848,0,0,0,6.527-3.058V37.66H29.752Zm-13.053,0V31.136H11.115A15.829,15.829,0,0,0,14.6,37.662h2.1Zm-6.112-19.58H16.7v6.527H10.586ZM16.7,37.662v1.986a15.848,15.848,0,0,0,6.527,3.058v-5.04H16.7Z" transform="translate(20.511 9.334)" fill="#fff"/>
  <path id="Path_39975" data-name="Path 39975" d="M47.2,9.288l-5.217,2.065L38.522,6.961,33.746,9.9,29.563,6.177,25.377,9.9,20.61,6.958l-3.475,4.4L11.927,9.285,9,14.716l3.475,7.472.458-.214a39.353,39.353,0,0,1,6.38-2.318l.106-.029a39.235,39.235,0,0,1,6.588-1.178l.167-.015a49.431,49.431,0,0,1,6.791,0l.153.012a39.977,39.977,0,0,1,6.621,1.184l.085.023a39.452,39.452,0,0,1,6.374,2.32l.458.214,3.475-7.469L47.21,9.288Z" transform="translate(17.437 -1.087)" fill="#171796"/>
  <path id="Path_39976" data-name="Path 39976" d="M25.262,9.8l.576,6.691c.861-.068,1.9-.132,2.978-.132s2.118.065,2.978.132L32.37,9.8,28.813,6.638,25.256,9.8ZM46,9.666l-4.432,1.756-1.745,6.5a40.851,40.851,0,0,1,5.6,2.033l2.834-6.1L46,9.663Zm-34.351,0L9.383,13.858l2.837,6.1a40.124,40.124,0,0,1,5.6-2.033l-1.751-6.5L11.642,9.666Z" transform="translate(18.18 -0.194)" fill="#0193dd"/>
</svg>
