<svg id="HTI" xmlns="http://www.w3.org/2000/svg" width="93.996" height="67.886" viewBox="0 0 93.996 67.886">
  <path id="Path_39977" data-name="Path 39977" d="M93.995,61.885A10.445,10.445,0,0,1,83.55,72.33H10.444A10.445,10.445,0,0,1,0,61.885v-47A10.445,10.445,0,0,1,10.444,4.444H83.55A10.445,10.445,0,0,1,93.995,14.889Z" transform="translate(0.001 -4.444)" fill="#d21c33"/>
  <path id="Path_39978" data-name="Path 39978" d="M83.55,4.444H10.444A10.445,10.445,0,0,0,0,14.889v23.5H93.992v-23.5A10.445,10.445,0,0,0,83.547,4.444Z" transform="translate(0.001 -4.444)" fill="#00209f"/>
  <path id="Path_39979" data-name="Path 39979" d="M10.667,11.592H41.752v26H10.667Z" transform="translate(20.668 9.404)" fill="#fff"/>
  <path id="Path_39980" data-name="Path 39980" d="M41.752,21.351A34.456,34.456,0,0,0,26.346,18.12a35.7,35.7,0,0,0-15.679,3.231v3.6H41.752v-3.6Z" transform="translate(20.668 22.05)" fill="#006a16"/>
  <path id="Path_39981" data-name="Path 39981" d="M16.561,14.862,19.6,18.284l-.382,2.147-.658-.373L17.97,22.3h-.153l-.279,1.184-5.167-.435.126-3.686,1.245.358.153-3.442,1.809,1.231.091-2.083Z" transform="translate(23.971 15.739)" fill="#00209f"/>
  <path id="Path_39982" data-name="Path 39982" d="M23.683,21.852V27.08l-3.915-1.151-1-1.463-.684-.5.373-1.322.59-2.288h.9l.223-1.93ZM12.424,19.485a.946.946,0,0,1,1.369,0c.029.185-.341.153-.684.467s-.247,1.275-.84,1.151S12.424,19.485,12.424,19.485Zm2.112-2.911a.945.945,0,0,1,1.316.382c-.023.188-.373.056-.787.258s-.593,1.157-1.128.872.6-1.513.6-1.513Zm2.491-1.78a.947.947,0,0,1,1.257.549c-.047.185-.505-.141-.94.009s-.611,1.216-1.1.864S17.027,14.794,17.027,14.794Z" transform="translate(23.328 15.439)" fill="#d21c33"/>
  <path id="Path_39983" data-name="Path 39983" d="M16.61,14.243l2.018,1.231-.223.59L23.854,22.1v.467l-5.663-6.347-.74-.123Zm-2.9,1.818a18.769,18.769,0,0,1,2.024.872,5.007,5.007,0,0,0,.37.717l7.373,5.974-.217.282-7.314-5.974-1.057-.467-1.181-1.4Zm-2.147,3.067a22.006,22.006,0,0,1,2.365.42c.032.094.188.623.188.623l8.553,4.664-.373.22-8.336-4.609L13,20.385Z" transform="translate(22.411 14.539)" fill="#f1b517"/>
  <path id="Path_39984" data-name="Path 39984" d="M12.38,17.419l8.791,1.072-.834,1-1.3.129.975,1.307-.47.529-1.307-1.43s-.405,2.083-2.177,2.083a2.458,2.458,0,0,1-2.338-2.365,2.16,2.16,0,0,1,.156-.9h-1.68l.188-1.43Z" transform="translate(23.622 20.68)" fill="#f1b517"/>
  <path id="Path_39985" data-name="Path 39985" d="M20.269,14.8l-3.178,3.769.129,2.174.817-.558.59,2.241h.156l.279,1.184,5.164-.435L24.1,19.486l-1.242.358L22.7,16.4,20.9,17.632l-.1-2.083Z" transform="translate(33.113 15.615)" fill="#00209f"/>
  <path id="Path_39986" data-name="Path 39986" d="M16,21.852V27.08l3.748-1.151.911-1.463.643-.5-.394-1.322L20.3,20.357l-.693.517-.241-2.132Zm10.924-2.367a.949.949,0,0,0-1.372,0c-.029.185.344.153.687.467s.25,1.275.84,1.151S26.928,19.485,26.928,19.485Zm-2.112-2.911a.946.946,0,0,0-1.316.382c.021.188.373.056.787.258s.59,1.157,1.128.872S24.816,16.574,24.816,16.574Zm-2.491-1.78a.947.947,0,0,0-1.257.549c.044.185.5-.141.937.009s.614,1.216,1.107.864-.787-1.422-.787-1.422Z" transform="translate(31.007 15.439)" fill="#d21c33"/>
  <path id="Path_39987" data-name="Path 39987" d="M23.162,14.243l-2.015,1.231.388.59L16.259,22.1v.467l5.49-6.347.655-.123Zm2.9,1.818a18.727,18.727,0,0,0-2.021.872,4.993,4.993,0,0,1-.373.717l-7.373,5.974.22.282,7.311-5.974,1.054-.467,1.184-1.4ZM28.2,19.128a21.828,21.828,0,0,0-2.362.42c-.035.094-.185.623-.185.623L17.1,24.835l.373.22,8.336-4.606.966-.062Z" transform="translate(31.501 14.539)" fill="#f1b517"/>
  <path id="Path_39988" data-name="Path 39988" d="M25.434,17.419l-8.788,1.072.834,1,1.3.129-.975,1.307.473.529,1.307-1.43s.405,2.083,2.177,2.083A2.452,2.452,0,0,0,24.1,19.748a2.23,2.23,0,0,0-.153-.9h1.68l-.188-1.433Z" transform="translate(32.251 20.68)" fill="#f1b517"/>
  <path id="Path_39989" data-name="Path 39989" d="M36.847,20.445a14.412,14.412,0,0,1-3.158-.294c-1.616-.352-1.895-.984-2.6-.843s-2.332.743-3.666.916-3.255.223-3.255.223-1.765-.056-3.1-.223a33.836,33.836,0,0,1-3.516-.916c-.7-.141-.984.493-2.6.843a14.235,14.235,0,0,1-3.163.294l.423.746-.423.364c3.657.068,5.346-1.113,5.346-1.113,1.827,1.21,7.038,1.245,7.038,1.245s5.369-.035,7.2-1.245a10,10,0,0,0,5.419,1.113l-.388-.364Z" transform="translate(22.842 24.313)" fill="#fff"/>
  <path id="Path_39990" data-name="Path 39990" d="M17.267,20.554c0,3.889-.341,7.047-.764,7.047s-.764-3.158-.764-7.047.341-7.047.764-7.047S17.267,16.662,17.267,20.554Z" transform="translate(30.496 13.114)" fill="#f1b517"/>
  <path id="Path_39991" data-name="Path 39991" d="M15.5,18.156h2.987v2.99H15.5Z" transform="translate(30.025 22.12)" fill="#d21c33"/>
  <path id="Path_39992" data-name="Path 39992" d="M18.692,18.5c0,.344-.717.623-1.6.623s-1.6-.279-1.6-.623.717-.623,1.6-.623S18.692,18.159,18.692,18.5Z" transform="translate(30.002 21.585)" fill="#fff"/>
  <path id="Path_39993" data-name="Path 39993" d="M18.692,19.52c0,.344-.717.623-1.6.623s-1.6-.276-1.6-.623.717-.623,1.6-.623S18.692,19.173,18.692,19.52Z" transform="translate(30.002 23.555)" fill="#d21c33"/>
  <path id="Path_39994" data-name="Path 39994" d="M27.1,14.4c-.6-.717-2.135-.684-3.181-.717s-1.569.341-1.1-.153,1.187-.37,1.947-.405.9-.123.429-.37a3.231,3.231,0,0,0-2.376-.276c-1.069.273-1.742.94-2.312,1.054-.57-.112-1.281-.781-2.35-1.054a3.271,3.271,0,0,0-2.4.276c-.464.25-.341.341.42.37s1.475-.094,1.942.405-.062.123-1.1.153-2.582,0-3.181.717.52.247,1.113.153,1.463-.123,1.463-.123a4.732,4.732,0,0,0-1.868,1c-.405.558.123,1.057.872.623a8.688,8.688,0,0,1,2.52-1.09A12.555,12.555,0,0,0,15.6,16.216c-.717.585.035.52.576.52a2.72,2.72,0,0,0,1.569-.561c.467-.341-.308.684-.435,1.339s.84.5,1.013,0a13.709,13.709,0,0,1,.728-1.492,14.885,14.885,0,0,0-.214,2.4c.032.966.35,1.025.6.59s1.11.258,1.11.258.784-.693,1.031-.258.485.373.517-.59a14.785,14.785,0,0,0-.217-2.4,13.842,13.842,0,0,1,.731,1.492c.17.5,1.137.652,1.01,0s-.9-1.68-.435-1.339a2.733,2.733,0,0,0,1.569.561c.546,0,1.292.062.579-.52a12.649,12.649,0,0,0-2.335-1.257,8.5,8.5,0,0,1,2.52,1.09c.746.438,1.275-.062.869-.623a4.732,4.732,0,0,0-1.868-1s.872.032,1.466.123,1.707.561,1.11-.153Z" transform="translate(26.468 10.909)" fill="#006a16"/>
</svg>
