<svg id="IMN" xmlns="http://www.w3.org/2000/svg" width="94" height="67.889" viewBox="0 0 94 67.889">
  <path id="Path_41257" data-name="Path 41257" d="M94,199.666a10.445,10.445,0,0,1-10.444,10.444H10.444A10.445,10.445,0,0,1,0,199.666v-47a10.445,10.445,0,0,1,10.444-10.444H83.556A10.445,10.445,0,0,1,94,152.666Z" transform="translate(0 -142.222)" fill="#cf1b2b"/>
  <path id="Path_41258" data-name="Path 41258" d="M469.5,435.739a3.611,3.611,0,1,1-3.611-3.611A3.611,3.611,0,0,1,469.5,435.739Z" transform="translate(-419.842 -405.516)" fill="#f8dc15"/>
  <path id="Path_41259" data-name="Path 41259" d="M469.5,456.816a3.611,3.611,0,1,1-3.611-3.611A3.611,3.611,0,0,1,469.5,456.816Z" transform="translate(-419.842 -424.658)" fill="#f8dc15"/>
  <path id="Path_41260" data-name="Path 41260" d="M275,332.243c1.063-.533,3.473,4.032,5.376,3.919s6.831-3.757,9.52-4.008c0,0,0-1.146,2.24-1.146s2.575,1.123,2.8,2.577a32.433,32.433,0,0,1,2.575,4.927,11.446,11.446,0,0,1,.786,3.585s-1.682,1.679-2.689,1.791a14.556,14.556,0,0,1-3.807-.9s-.559-4.246-.783-5.538l-.783-.846a5.777,5.777,0,0,1-3.136,1.569c-2.018.337-5.152.222-6.272.447s-1.008,1.682-2.016,1.569-.222-2.353-2.016-3.585-3.139-3.695-1.794-4.366Zm19.748,36.764c-.992-.658,1.755-5.029.708-6.619s-6.671-4.034-8.233-6.238c0,0-.99.572-2.11-1.371s-.316-2.789.83-3.713a32.094,32.094,0,0,1,2.982-4.692,11.446,11.446,0,0,1,2.71-2.473s2.3.616,2.9,1.431a14.581,14.581,0,0,1,1.128,3.75s-3.4,2.6-4.4,3.447l-.342,1.1a5.768,5.768,0,0,1,2.924,1.932c1.3,1.577,2.77,4.35,3.525,5.207s1.958.031,2.368.964-1.927,1.366-2.1,3.533S296,369.833,294.747,369.008Zm21.842-35.315c-.07,1.188-5.23.992-6.084,2.695s-.162,7.794-1.285,10.249c0,0,.99.569-.133,2.509s-2.259,1.669-3.629,1.138a32.166,32.166,0,0,1-5.556-.235,11.371,11.371,0,0,1-3.494-1.11s-.614-2.3-.211-3.225a14.656,14.656,0,0,1,2.682-2.851s3.958,1.64,5.188,2.091l1.128-.253a5.753,5.753,0,0,1,.209-3.5c.713-1.917,2.381-4.572,2.747-5.656s-.948-1.713-.35-2.533,2.146.984,4.107.047,4.773-.862,4.682.635Z" transform="translate(-249.259 -313.678)" fill="#fff"/>
  <path id="Path_41261" data-name="Path 41261" d="M318.921,349.788l.982.854,1.256-.324-.509,1.2.695,1.094-1.293-.115-.83,1-.29-1.266-1.206-.478,1.118-.666Zm19.108,21.865.248-1.282-.909-.927,1.29-.154.6-1.151.546,1.183,1.282.214-.95.888.185,1.279-1.131-.632Zm9.259-27.312-1.23.426-.347,1.251-.781-1.039-1.3.055.749-1.06-.454-1.219,1.24.379,1.018-.8.018,1.3Z" transform="translate(-288.559 -323.959)" fill="#f8dc15"/>
</svg>
