<svg id="IND" xmlns="http://www.w3.org/2000/svg" width="93.999" height="67.886" viewBox="0 0 93.999 67.886">
  <path id="Path_40034" data-name="Path 40034" d="M0,32.609A10.445,10.445,0,0,0,10.445,43.054H83.551A10.445,10.445,0,0,0,94,32.609h0V19.556H0V32.609Z" transform="translate(0.003 24.832)" fill="#138808"/>
  <path id="Path_40035" data-name="Path 40035" d="M93.995,27.942V14.889A10.445,10.445,0,0,0,83.55,4.444H10.444A10.445,10.445,0,0,0,0,14.889H0V27.942H93.992Z" transform="translate(0.001 -4.444)" fill="#f93"/>
  <path id="Path_40036" data-name="Path 40036" d="M0,12.148H93.993V34.777H0Z" transform="translate(0.003 10.481)" fill="#f7f7f7"/>
  <path id="Path_40037" data-name="Path 40037" d="M33.334,22.889A10.445,10.445,0,1,1,22.889,12.444,10.445,10.445,0,0,1,33.334,22.889Z" transform="translate(24.11 11.054)" fill="navy"/>
  <path id="Path_40038" data-name="Path 40038" d="M30.624,21.812A8.812,8.812,0,1,1,21.812,13,8.811,8.811,0,0,1,30.624,21.812Z" transform="translate(25.188 12.131)" fill="#f7f7f7"/>
  <path id="Path_40039" data-name="Path 40039" d="M21.771,18.246l-.261,1.7-.261-1.7.261-5.09Zm-2.423-4.808,1.066,4.985.693,1.571-.188-1.7Zm-2.015.837,2.318,4.538,1.075,1.339-.623-1.6ZM15.6,15.6l3.416,3.786L20.4,20.4l-1.016-1.386Zm-1.325,1.733,4.277,2.773,1.6.623-1.339-1.075Zm-.837,2.015,4.852,1.569,1.7.188-1.571-.693Zm-.282,2.162,5.09.261,1.7-.261-1.7-.261Zm.282,2.162,4.985-1.066,1.571-.693-1.7.188Zm.837,2.015,4.538-2.318,1.339-1.075-1.6.623ZM15.6,27.419,19.386,24,20.4,22.617l-1.386,1.016Zm1.733,1.325,2.773-4.277.623-1.6-1.075,1.339Zm2.015.837,1.569-4.852.188-1.7L20.411,24.6Zm2.162.282.261-5.09-.261-1.7-.261,1.7Zm2.162-.282L22.605,24.6l-.693-1.571.188,1.7Zm2.015-.837-2.318-4.538-1.075-1.339.623,1.6Zm1.733-1.325L24,23.633l-1.386-1.016L23.633,24Zm1.325-1.733-4.277-2.773-1.6-.623,1.339,1.075Zm.837-2.015L24.729,22.1l-1.7-.188,1.571.693Zm.282-2.162-5.09-.261-1.7.261,1.7.261Zm-.282-2.162L24.6,20.414l-1.571.693,1.7-.188Zm-.837-2.015L24.206,19.65l-1.339,1.075,1.6-.623ZM27.419,15.6l-3.786,3.416L22.617,20.4,24,19.386Zm-1.733-1.325-2.773,4.277-.623,1.6,1.075-1.339Zm-2.015-.837L22.1,18.29l-.188,1.7.693-1.571Z" transform="translate(25.49 12.434)" fill="#6666b3"/>
  <path id="Path_40040" data-name="Path 40040" d="M16.477,13.375a.523.523,0,1,1-.523-.523A.524.524,0,0,1,16.477,13.375Z" transform="translate(29.897 11.845)" fill="navy"/>
  <path id="Path_40041" data-name="Path 40041" d="M15.721,13.578a.523.523,0,1,1-.523-.523A.524.524,0,0,1,15.721,13.578Z" transform="translate(28.433 12.238)" fill="navy"/>
  <path id="Path_40042" data-name="Path 40042" d="M15.044,13.968a.523.523,0,1,1-.523-.523A.524.524,0,0,1,15.044,13.968Z" transform="translate(27.121 12.993)" fill="navy"/>
  <path id="Path_40043" data-name="Path 40043" d="M14.491,14.521A.523.523,0,1,1,13.968,14,.524.524,0,0,1,14.491,14.521Z" transform="translate(26.05 14.065)" fill="navy"/>
  <path id="Path_40044" data-name="Path 40044" d="M14.1,15.2a.523.523,0,1,1-.523-.523A.524.524,0,0,1,14.1,15.2Z" transform="translate(25.294 15.376)" fill="navy"/>
  <path id="Path_40045" data-name="Path 40045" d="M13.9,15.954a.523.523,0,1,1-.523-.523A.524.524,0,0,1,13.9,15.954Z" transform="translate(24.901 16.841)" fill="navy"/>
  <path id="Path_40046" data-name="Path 40046" d="M13.9,16.736a.523.523,0,1,1-.523-.523A.524.524,0,0,1,13.9,16.736Z" transform="translate(24.901 18.356)" fill="navy"/>
  <path id="Path_40047" data-name="Path 40047" d="M14.1,17.492a.523.523,0,1,1-.523-.523A.524.524,0,0,1,14.1,17.492Z" transform="translate(25.294 19.82)" fill="navy"/>
  <path id="Path_40048" data-name="Path 40048" d="M14.491,18.169a.523.523,0,1,1-.523-.523A.524.524,0,0,1,14.491,18.169Z" transform="translate(26.05 21.132)" fill="navy"/>
  <path id="Path_40049" data-name="Path 40049" d="M15.044,18.722a.523.523,0,1,1-.523-.523A.524.524,0,0,1,15.044,18.722Z" transform="translate(27.121 22.203)" fill="navy"/>
  <path id="Path_40050" data-name="Path 40050" d="M15.721,19.112a.523.523,0,1,1-.523-.523A.524.524,0,0,1,15.721,19.112Z" transform="translate(28.433 22.959)" fill="navy"/>
  <path id="Path_40051" data-name="Path 40051" d="M16.477,19.315a.523.523,0,1,1-.523-.523A.524.524,0,0,1,16.477,19.315Z" transform="translate(29.897 23.352)" fill="navy"/>
  <path id="Path_40052" data-name="Path 40052" d="M17.259,19.315a.523.523,0,1,1-.523-.523A.524.524,0,0,1,17.259,19.315Z" transform="translate(31.412 23.352)" fill="navy"/>
  <path id="Path_40053" data-name="Path 40053" d="M18.014,19.112a.523.523,0,1,1-.523-.523A.524.524,0,0,1,18.014,19.112Z" transform="translate(32.875 22.959)" fill="navy"/>
  <path id="Path_40054" data-name="Path 40054" d="M18.692,18.722a.523.523,0,1,1-.523-.523A.524.524,0,0,1,18.692,18.722Z" transform="translate(34.188 22.203)" fill="navy"/>
  <path id="Path_40055" data-name="Path 40055" d="M19.245,18.169a.523.523,0,1,1-.523-.523A.524.524,0,0,1,19.245,18.169Z" transform="translate(35.259 21.132)" fill="navy"/>
  <path id="Path_40056" data-name="Path 40056" d="M19.635,17.492a.523.523,0,1,1-.523-.523A.524.524,0,0,1,19.635,17.492Z" transform="translate(36.015 19.82)" fill="navy"/>
  <path id="Path_40057" data-name="Path 40057" d="M19.838,16.736a.523.523,0,1,1-.523-.523A.524.524,0,0,1,19.838,16.736Z" transform="translate(36.408 18.356)" fill="navy"/>
  <path id="Path_40058" data-name="Path 40058" d="M19.838,15.954a.523.523,0,1,1-.523-.523A.524.524,0,0,1,19.838,15.954Z" transform="translate(36.408 16.841)" fill="navy"/>
  <path id="Path_40059" data-name="Path 40059" d="M19.635,15.2a.523.523,0,1,1-.523-.523A.524.524,0,0,1,19.635,15.2Z" transform="translate(36.015 15.376)" fill="navy"/>
  <path id="Path_40060" data-name="Path 40060" d="M19.245,14.521A.523.523,0,1,1,18.722,14,.524.524,0,0,1,19.245,14.521Z" transform="translate(35.259 14.065)" fill="navy"/>
  <path id="Path_40061" data-name="Path 40061" d="M18.692,13.968a.523.523,0,1,1-.523-.523A.524.524,0,0,1,18.692,13.968Z" transform="translate(34.188 12.993)" fill="navy"/>
  <path id="Path_40062" data-name="Path 40062" d="M18.014,13.578a.523.523,0,1,1-.523-.523A.524.524,0,0,1,18.014,13.578Z" transform="translate(32.875 12.238)" fill="navy"/>
  <path id="Path_40063" data-name="Path 40063" d="M17.259,13.375a.523.523,0,1,1-.523-.523A.524.524,0,0,1,17.259,13.375Z" transform="translate(31.412 11.845)" fill="navy"/>
  <path id="Path_40064" data-name="Path 40064" d="M19.9,17.55a2.35,2.35,0,1,1-2.35-2.35,2.349,2.349,0,0,1,2.35,2.35Z" transform="translate(29.45 16.393)" fill="navy"/>
</svg>
