<svg id="IOT" xmlns="http://www.w3.org/2000/svg" width="93.999" height="67.889" viewBox="0 0 93.999 67.889">
  <path id="Path_39597" data-name="Path 39597" d="M93.995,61.885A10.445,10.445,0,0,1,83.55,72.33H10.444A10.445,10.445,0,0,1,0,61.885v-47A10.445,10.445,0,0,1,10.444,4.444H83.55A10.445,10.445,0,0,1,93.995,14.889Z" transform="translate(0.001 -4.441)" fill="#eee"/>
  <path id="Path_39598" data-name="Path 39598" d="M89.717,63.482c-4.744,0-4.744-2.773-9.493-2.773s-4.747,2.611-9.643,2.611c-4.6,0-4.6-2.611-9.42-2.611-4.67,0-4.67,2.611-9.417,2.611s-4.747-2.611-9.5-2.611S37.5,63.32,32.755,63.32s-4.747-2.611-9.493-2.611-4.747,2.611-9.493,2.611-4.747-2.611-9.5-2.611a8.119,8.119,0,0,0-4.153,1,10.3,10.3,0,0,0,1.6,4.553,8.981,8.981,0,0,1,2.555-.332c4.747,0,4.747,2.611,9.5,2.611s4.747-2.611,9.493-2.611,4.747,2.611,9.493,2.611,4.747-2.611,9.493-2.611S47,68.54,51.747,68.54s4.747-2.611,9.476-2.611c4.764,0,4.764,2.611,9.505,2.611,4.758,0,4.758-2.611,9.5-2.611s4.753,2.529,9.5,2.529c.229,0,.411-.026.617-.038a10.38,10.38,0,0,0,3.463-5.96,7.785,7.785,0,0,1-4.086,1.022Zm4.274-7.158V51.248a7.8,7.8,0,0,1-4.274,1.122c-4.744,0-4.744-2.773-9.493-2.773s-4.747,2.611-9.643,2.611c-4.6,0-4.6-2.611-9.42-2.611-4.67,0-4.67,2.611-9.417,2.611S47,49.6,42.248,49.6s-4.747,2.611-9.493,2.611S28.008,49.6,23.261,49.6s-4.747,2.611-9.493,2.611S9.021,49.6,4.272,49.6A8.193,8.193,0,0,0,0,50.652v5.222A8.2,8.2,0,0,1,4.272,54.82c4.747,0,4.747,2.611,9.5,2.611s4.747-2.611,9.493-2.611,4.747,2.611,9.493,2.611S37.5,54.82,42.248,54.82s4.747,2.611,9.5,2.611,4.747-2.611,9.476-2.611c4.764,0,4.764,2.611,9.505,2.611,4.758,0,4.758-2.611,9.5-2.611s4.753,2.529,9.5,2.529a8.462,8.462,0,0,0,4.268-1.025Zm0-11.115V40.134a7.8,7.8,0,0,1-4.274,1.122c-4.744,0-4.744-2.776-9.493-2.776s-4.747,2.611-9.643,2.611c-4.6,0-4.6-2.611-9.42-2.611-4.67,0-4.67,2.611-9.417,2.611S47,38.48,42.248,38.48s-4.747,2.611-9.493,2.611-4.747-2.611-9.493-2.611-4.747,2.611-9.493,2.611-4.747-2.611-9.5-2.611A8.221,8.221,0,0,0,0,39.534v5.222A8.2,8.2,0,0,1,4.272,43.7c4.747,0,4.747,2.611,9.5,2.611S18.515,43.7,23.261,43.7s4.747,2.611,9.493,2.611S37.5,43.7,42.248,43.7s4.747,2.611,9.5,2.611S56.491,43.7,61.22,43.7c4.764,0,4.764,2.611,9.505,2.611,4.758,0,4.758-2.611,9.5-2.611s4.753,2.529,9.5,2.529a8.4,8.4,0,0,0,4.268-1.022Zm0-11.115V29.019a7.8,7.8,0,0,1-4.274,1.122c-4.744,0-4.744-2.773-9.493-2.773s-4.747,2.611-9.643,2.611c-4.6,0-4.6-2.611-9.42-2.611-4.67,0-4.67,2.611-9.417,2.611s-4.747-2.611-9.5-2.611-4.747,2.611-9.493,2.611-4.747-2.611-9.493-2.611-4.747,2.611-9.493,2.611-4.747-2.611-9.5-2.611A8.193,8.193,0,0,0,0,28.423v5.222a8.2,8.2,0,0,1,4.271-1.054c4.747,0,4.747,2.611,9.5,2.611s4.747-2.611,9.493-2.611S28.008,35.2,32.755,35.2s4.747-2.611,9.493-2.611,4.747,2.611,9.5,2.611,4.747-2.611,9.476-2.611c4.764,0,4.764,2.611,9.505,2.611,4.758,0,4.758-2.611,9.5-2.611s4.753,2.529,9.5,2.529a8.462,8.462,0,0,0,4.268-1.025Zm0-11.118V17.9a7.829,7.829,0,0,1-4.274,1.122c-4.744,0-4.744-2.773-9.493-2.773s-4.747,2.611-9.643,2.611c-4.6,0-4.6-2.611-9.42-2.611-4.67,0-4.67,2.611-9.417,2.611s-4.747-2.611-9.5-2.611-4.747,2.611-9.493,2.611-4.747-2.611-9.493-2.611-4.747,2.611-9.493,2.611-4.747-2.611-9.5-2.611A8.193,8.193,0,0,0,0,17.305v5.222a8.2,8.2,0,0,1,4.271-1.054c4.747,0,4.747,2.611,9.5,2.611s4.747-2.611,9.493-2.611,4.747,2.611,9.493,2.611,4.747-2.611,9.493-2.611,4.747,2.611,9.5,2.611,4.747-2.611,9.476-2.611c4.764,0,4.764,2.611,9.505,2.611,4.758,0,4.758-2.611,9.5-2.611S84.979,24,89.726,24a8.432,8.432,0,0,0,4.268-1.025Zm-.162-11.038A10.32,10.32,0,0,0,92.117,7.6a8.658,8.658,0,0,1-2.4.311c-4.744,0-4.744-2.773-9.493-2.773s-4.747,2.611-9.643,2.611c-4.6,0-4.6-2.611-9.42-2.611-4.67,0-4.67,2.611-9.417,2.611S47,5.136,42.248,5.136,37.5,7.747,32.755,7.747s-4.747-2.611-9.493-2.611-4.747,2.611-9.493,2.611S9.016,5.151,4.3,5.139A10.385,10.385,0,0,0,.262,11.284a8.048,8.048,0,0,1,4.006-.928c4.747,0,4.747,2.611,9.5,2.611s4.747-2.611,9.493-2.611,4.747,2.611,9.493,2.611,4.747-2.611,9.493-2.611,4.747,2.611,9.5,2.611,4.747-2.611,9.476-2.611c4.764,0,4.764,2.611,9.505,2.611,4.758,0,4.758-2.611,9.5-2.611s4.753,2.529,9.5,2.529a8.327,8.327,0,0,0,4.109-.946Z" transform="translate(0.005 -3.1)" fill="#00247d"/>
  <path id="Path_39599" data-name="Path 39599" d="M25.332,53.363a.843.843,0,1,1-1.686,0V11.947a.843.843,0,1,1,1.686,0Z" transform="translate(45.812 8.461)" fill="#c1694f"/>
  <path id="Path_39600" data-name="Path 39600" d="M23.382,18.676a1.686,1.686,0,0,1,1.636-.872c1.281,0,1.586.667,2.353.972a9.673,9.673,0,0,0,1.739.461v6.389H22.26a22.237,22.237,0,0,0-.667-3.578c-.411-1.172-.767-2.761.1-3.275a1.88,1.88,0,0,1,1.686-.1Z" transform="translate(40.995 21.441)" fill="#dd2e44"/>
  <path id="Path_39601" data-name="Path 39601" d="M30.174,19.1v.919a7.565,7.565,0,0,1-3.3-1.228c-.934-.652-2.914-1.46-4.447-.153-1,.84-.922,2.993-.3,3.833s1.225,2.761-.082,1.46a4.97,4.97,0,0,1-1.3-4.6,3.191,3.191,0,0,1,3.219-2.605,7.686,7.686,0,0,1,4.218,1.61c.8.461,2.074.608,1.991.764Z" transform="translate(39.906 19.354)" fill="#ffcc4d"/>
  <path id="Path_39602" data-name="Path 39602" d="M21.3,19.886l1.069-.05-.305,1.633s1.072-.814,1.125-.614.2,1.686.2,1.686l-1.383-.305.817,1.178-1.069.505s-.411-1.378-.511-2.038a10.067,10.067,0,0,1,.056-2Zm2.244.872,1.022-.1s-.881-1.994.411-1.944c1.433.056.458,1.895.458,1.895h1.075l.153,1.48-1.022-.614v.872l1.122,1.072-2.967.3.764-1.278-.047-.916-.717.817-.258-1.586Z" transform="translate(41.09 23.195)" fill="#ffcc4d"/>
  <path id="Path_39603" data-name="Path 39603" d="M29.736,18.676A1.681,1.681,0,0,0,28.1,17.8c-1.275,0-1.583.667-2.35.972a9.4,9.4,0,0,1-1.739.461v6.389h6.853a21.779,21.779,0,0,1,.664-3.578c.411-1.172.764-2.761-.1-3.275a1.887,1.887,0,0,0-1.689-.1Z" transform="translate(46.519 21.441)" fill="#dd2e44"/>
  <path id="Path_39604" data-name="Path 39604" d="M24.019,19.1v.919a7.553,7.553,0,0,0,3.3-1.228c.934-.652,2.914-1.46,4.45-.153,1,.84.916,2.993.3,3.833s-1.222,2.761.079,1.46a4.98,4.98,0,0,0,1.3-4.6,3.188,3.188,0,0,0-3.219-2.605,7.686,7.686,0,0,0-4.218,1.61c-.8.461-2.071.608-1.994.764Z" transform="translate(46.534 19.354)" fill="#ffcc4d"/>
  <path id="Path_39605" data-name="Path 39605" d="M33.061,26.526l-1.072-.05.305,1.633s-1.072-.814-1.125-.614-.2,1.686-.2,1.686l1.375-.305-.817,1.178,1.072.505s.411-1.378.514-2.038a10.737,10.737,0,0,0-.05-2Zm-2.253.872-1.022-.1s.884-1.994-.411-1.944c-1.428.056-.458,1.895-.458,1.895H27.844l-.159,1.48,1.025-.614v.872l-1.125,1.072,2.97.3-.77-1.278.056-.916.717.817.253-1.586Zm-3.9-8.08a1.791,1.791,0,1,1-1.789-1.842A1.814,1.814,0,0,1,26.9,19.318Zm-3.4-4.036h3.216v1.281H23.509Z" transform="translate(45.188 16.555)" fill="#ffcc4d"/>
  <path id="Path_39606" data-name="Path 39606" d="M23.674,14.986H25.2V26.794h-1.53Z" transform="translate(45.866 15.982)" fill="#ffcc4d"/>
  <path id="Path_39607" data-name="Path 39607" d="M23.975,18.833h2.4l-.667,1.686,1.536-.817v2.244l-1.486-.508,1.281,1.942H23.716l1.022-1.942-1.48.355V19.8l1.381.664Z" transform="translate(45.06 23.434)" fill="#ffcc4d"/>
  <path id="Path_39608" data-name="Path 39608" d="M23.969,20.12a20.069,20.069,0,0,1,7.414,1.072,4.919,4.919,0,0,1-.153,2c-.3.667-7.311-.461-7.311-.461Z" transform="translate(46.341 25.928)" fill="#ffcc4d"/>
  <path id="Path_39609" data-name="Path 39609" d="M28.881,20.12a20.052,20.052,0,0,0-7.411,1.072,4.954,4.954,0,0,0,.15,2c.305.664,7.311-.461,7.311-.461Z" transform="translate(41.52 25.928)" fill="#ffcc4d"/>
  <path id="Path_39610" data-name="Path 39610" d="M37.594,22.826c0,1-3.686,1.809-8.23,1.809s-8.233-.808-8.233-1.809,3.689-1.818,8.233-1.818S37.594,21.819,37.594,22.826Z" transform="translate(40.94 27.648)" fill="#eee"/>
  <path id="Path_39611" data-name="Path 39611" d="M33.112,22.511c0,.552-2.476,1-5.528,1s-5.534-.449-5.534-1,2.479-1,5.534-1S33.112,21.961,33.112,22.511Z" transform="translate(42.72 28.624)" fill="#99aab5"/>
  <path id="Path_39612" data-name="Path 39612" d="M29.538,6.111l1.686,2.1s1.178-.717,1.231-.561a16.311,16.311,0,0,1-.1,1.739l.817.2-.667,2.1s1.025-.561.972-.358-.305,1.994-.305,1.994l.411.256-.053,1.994s.411.714.411.561.408-2.605.408-2.605l.564.458.2-1.278.461-2.2.511.817L37.154,7.7l.564,1.281L39,7.494l.869-.053,1.278-.358.258.764h1.175s-.611.511-.561.664,1.122.717.969.767-2.761-.206-2.761-.206l-1.477,1.483.919.308-1.383.817,1.178.358-1.072.817.922-.1-1.483,1.125,1.483.308-1.994,1.022.458.511L35.783,16.9l-.258.817,1.892-1.483s1.536-1.022,2.3-1.483,1.381-1.328,2.664-1.686a11.589,11.589,0,0,1,3.73.053l-2.3,1.228.461.717-1.48.458.2.866-2.456.361.053.919-2.1.361-.256.869-1.43.511.667.561s-1.231.411-1.072.458,1.789.2,1.789.2-.819.717-.67.717,2.2.1,2.2.1l-.869.614,2.05.1-.925.717s1.686.153,1.686.308-.714.919-.714.919l1.48.153s-.714.764-.564.819,2.1,1.378,2.1,1.378l-2.3-.305s-.561.764-.614.611-.608-1.072-.608-1.072l-.564.614-.611-1.228s-.717.408-.67.256-.817-1.125-.817-1.125l-.2.461-.561-1.381L36.5,24l-.975-1.331-.358.561L33.838,22.06a5.6,5.6,0,0,0,0,.922,6.457,6.457,0,0,0,.975.817s-.614.256-.614.408a8.224,8.224,0,0,0,1.231,1.125l-.564.411,1.328,1.125s-1.228.256-1.075.358a8.789,8.789,0,0,1,.767.919l-.508,1.228-1.022-1.586-.564.153-.106-1.328-.558-.053.3-1.48-.611.1-.053-1.228-.258-1.228L32,21.908s-.358.614-.308.764.464,1.125.464,1.125-.564.305-.464.458.667,1.278.667,1.278-1.228.256-1.072.256.564.717.564.717l-.667.256-.305.767s-.764-.869-.717-.717A9.733,9.733,0,0,1,29.7,28.4l-.764-.869L29.7,24.51l-.925-.256-.664,1.381s-.561-.664-.614-.511-.614,1.178-.614,1.178a11.23,11.23,0,0,0-.608-.972,11.935,11.935,0,0,1-.77,1.792s-.717-1.433-.717-1.228-.508,1.994-.508,1.994-.814-1.381-.767-1.125a5.409,5.409,0,0,1-.561,1.433L22.8,26.916l-1.122.664,1.278-1.842,2.15-1.994,1.636-1.225-1.081-.153s1.56-.54,1.736-.561c.464-.053-.711-.458-.711-.458l2.861-.869s-1.278-.667-1.43-.511a9.462,9.462,0,0,1-1.689.458l-.2-1.175-1.583.664s-.258-1.075-.308-.922a7.534,7.534,0,0,1-1.281.817l-.608-.664-.717,1.125-.819-.614-1.477.458.714-1.072-.817-.458,1.686-1.072.358-.717,2.3.153s-.617-.819-.511-.667a15.2,15.2,0,0,0,2.35.511l.67-.1,2.247.817-1.842-1.483L25,15.713l1.022-.817-2.406-.866.514-.817L20.958,12.4l1.947-.511-1.331-2.25,2.761,1.636,1.228-.411.617,1.586,1.125.667.2,1.175.564-.256.508,1.378.67-.206.355.975.975.05-.261-1.281.408-.614L29.6,13.413l.975-.458-1.436-1.178,1.228-.153L28.627,9.938l1.383.053L28.627,8.4l1.128-.256-.211-2.041Z" transform="translate(37.447 -1.217)" fill="#77b255"/>
  <path id="Path_39613" data-name="Path 39613" d="M49.61,38.387V4.444H10.447a11.38,11.38,0,0,0-1.577.117L8.858,9.141,1.729,9.129s-.109.153-.332.535A10.428,10.428,0,0,0,0,14.886v23.5H49.607Z" transform="translate(0.001 -4.441)" fill="#00247d"/>
  <path id="Path_39614" data-name="Path 39614" d="M49.6,4.446H43.518l-12.19,8.536V4.446H18.275v6.709L8.864,4.563A10.305,10.305,0,0,0,4.5,6.3l12.278,8.589H12.245L2.525,8.076a10.661,10.661,0,0,0-.8,1.054l8.227,5.757H0V27.941H10.144L0,35.164v3.222H8.7l9.576-6.706v6.706H31.331V29.85l12.187,8.536h6.089v-5.3l-7.349-5.146h7.349V14.888H42.261l7.346-5.146v-5.3Z" transform="translate(0.007 -4.443)" fill="#eee"/>
  <path id="Path_39615" data-name="Path 39615" d="M28.721,4.444H20.887V17.5H0v7.834H20.887V38.384h7.834V25.331H49.608V17.5H28.721Z" transform="translate(0.003 -4.441)" fill="#cf1b2b"/>
  <path id="Path_39616" data-name="Path 39616" d="M48.343,4.444H44.527L30.064,14.572v.317h4.1L48.34,4.961ZM3.235,6.3A10.536,10.536,0,0,0,1.258,8.077l9.719,6.812h4.529L3.232,6.3ZM15.542,27.942.653,38.387H5.162l11.852-8.3V27.942Zm32.8,9.928V34.686l-9.625-6.741h-4.55Z" transform="translate(1.268 -4.441)" fill="#cf1b2b"/>
</svg>
