<svg id="IRN" xmlns="http://www.w3.org/2000/svg" width="93.999" height="67.886" viewBox="0 0 93.999 67.886">
  <path id="Path_40090" data-name="Path 40090" d="M0,30.889A10.445,10.445,0,0,0,10.445,41.334H83.551A10.445,10.445,0,0,0,94,30.889V20.444H0V30.889Z" transform="translate(0.003 26.552)" fill="#da0001"/>
  <path id="Path_40091" data-name="Path 40091" d="M0,11.556H93.993V37.665H0Z" transform="translate(0.003 9.334)" fill="#eee"/>
  <path id="Path_40092" data-name="Path 40092" d="M93.995,25.334V14.889A10.445,10.445,0,0,0,83.55,4.444H10.444A10.445,10.445,0,0,0,0,14.889V25.334H93.992Z" transform="translate(0.001 -4.444)" fill="#239f40"/>
  <path id="Path_40093" data-name="Path 40093" d="M0,20.444H93.993v2.611H0Z" transform="translate(0.003 26.552)" fill="#e96667"/>
  <path id="Path_40094" data-name="Path 40094" d="M26.528,14.573c2.5,1.281,7.931,7.71,2.083,14.962C32.241,28.731,36.867,18.027,26.528,14.573Zm-7.666,0c-10.336,3.454-5.716,14.158-2.083,14.962C10.931,22.283,16.365,15.851,18.861,14.573Zm3.792-.373A1.515,1.515,0,0,0,25.2,12.7a1.687,1.687,0,0,1-2.526.54c-1.128.629-2.179.476-2.579-.593A1.526,1.526,0,0,0,22.656,14.2Z" transform="translate(24.296 11.457)" fill="#be1931"/>
  <path id="Path_40095" data-name="Path 40095" d="M27.013,21.02a9.446,9.446,0,0,0-3.469-7.308c1.122,1.375,4.573,8.97-2.05,13.97l.123-13.309-1.24-1.093-1.24,1.04.209,13.435-.047-.038c-6.691-5-3.219-12.63-2.094-14.008a9.427,9.427,0,0,0-3.469,7.308c-.035,2.8,1.245,5.857,4.788,8.368a16.734,16.734,0,0,1-4.382.526c1.21.661,3.5.5,5.24.341l0,.176,1.04,1.14,1.046-1.187v-.135c1.754.162,4.092.338,5.322-.335a16.507,16.507,0,0,1-4.523-.555c3.51-2.508,4.779-5.554,4.744-8.339Z" transform="translate(26.613 12.674)" fill="#be1931"/>
  <path id="Path_40096" data-name="Path 40096" d="M0,10.667H93.993v2.611H0Z" transform="translate(0.003 7.612)" fill="#7bc58c"/>
</svg>
