<svg id="IRQ" xmlns="http://www.w3.org/2000/svg" width="93.999" height="67.886" viewBox="0 0 93.999 67.886">
  <path id="Path_40085" data-name="Path 40085" d="M0,30.889A10.445,10.445,0,0,0,10.445,41.334H83.551A10.445,10.445,0,0,0,94,30.889V20.444H0V30.889Z" transform="translate(0.003 26.552)" fill="#141414"/>
  <path id="Path_40086" data-name="Path 40086" d="M0,11.556H93.993V37.665H0Z" transform="translate(0.003 9.334)" fill="#eee"/>
  <path id="Path_40087" data-name="Path 40087" d="M83.55,4.444H10.444A10.445,10.445,0,0,0,0,14.889V25.334H93.992V14.889A10.445,10.445,0,0,0,83.547,4.444Z" transform="translate(0.001 -4.444)" fill="#dd2e44"/>
  <path id="Path_40088" data-name="Path 40088" d="M15.654,21.658v3.208H30.408V22.941c0-.858-.963-.8-.963-.162v1.442H17.9V21.978l8.1-8.1,1.231,1.307-7.349,7.431h7.646s.347-2.244,2.432-2.244l2.382,1.657v6.042H10.846a3.222,3.222,0,0,1-3.795,2.456s2.244-1.5,2.244-3.26a4.98,4.98,0,0,0-1.442-3.155l2.033-1.281a6.286,6.286,0,0,0,.429,1.416,2.841,2.841,0,0,0,1.016.614h2.726l-.035-1.425-.394-.17L15.66,21.66Zm21.674,2.617-.435.593H35.622c.006-3,.015-8.923,0-8.985-.026-.082.561-.505.561-.505l-2.564-1.416V28.075h4.811l-1.1-3.8ZM51.58,16.206v8.659H50.3v-7.7l-1.607,1.607v6.1H47.412V19.737l-1.6,1.607v.015l-.35.332.35.135v1.193A2.2,2.2,0,0,0,42.6,24.871v3.207H53.187V14.608l-1.6,1.6Zm-6.694,8.662h-.094c-.643,0-.561-.858.32-.858a.616.616,0,0,1,.7.5v.358h-.925ZM48.317,13.88c0,.4-.132.723-.294.723s-.294-.323-.294-.723.132-.72.294-.72S48.317,13.48,48.317,13.88Zm-2.7,1.95a1.66,1.66,0,0,0,1.366.32,1.547,1.547,0,0,0,1.175-.934s.505.828,1.069.693S50.3,14.893,50.3,14.893s.026,1.416-.8,1.548a1.132,1.132,0,0,1-1.175-.455,1.707,1.707,0,0,1-1.231.693c-.8.059-1.469-.855-1.469-.855ZM58.527,24.2l-.693.67H56.712V15.754l.667-.294-2.591-1.5V28.078h4.835Z" transform="translate(13.663 12.441)" fill="#007a3c"/>
  <path id="Path_40089" data-name="Path 40089" d="M10.441,19.243a.695.695,0,1,1-.7-.7A.7.7,0,0,1,10.441,19.243Z" transform="translate(17.539 22.877)" fill="#007a3c"/>
</svg>
