<svg id="ISL" xmlns="http://www.w3.org/2000/svg" width="93.993" height="67.886" viewBox="0 0 93.993 67.886">
  <path id="Path_40097" data-name="Path 40097" d="M26.109,4.444H10.445A10.445,10.445,0,0,0,0,14.889V30.553H26.109V4.444Zm57.438,0H41.774V30.553H93.993V14.889A10.445,10.445,0,0,0,83.548,4.444ZM26.109,72.33H10.445A10.445,10.445,0,0,1,0,61.885V46.221H26.109Zm57.438,0H41.774V46.221H93.993V61.885A10.445,10.445,0,0,1,83.548,72.33Z" transform="translate(0 -4.444)" fill="#003897"/>
  <path id="Path_40098" data-name="Path 40098" d="M37.859,4.444H30.172l-.065,30.025H0V42.3H30.089l-.065,30.025h7.834V42.3H93.993V34.469H37.859Z" transform="translate(0 -4.444)" fill="#d72828"/>
  <path id="Path_40099" data-name="Path 40099" d="M37.859,72.33h3.915V46.221H93.993V42.305H37.859ZM41.774,4.444H37.859V34.469H93.993V30.553H41.774Zm-11.749,0H26.109V30.553H0v3.915H30.025ZM0,42.3v3.915H26.109V72.327h3.915V42.3Z" transform="translate(0 -4.444)" fill="#eee"/>
</svg>
