<svg id="ISR" xmlns="http://www.w3.org/2000/svg" width="93.993" height="67.88" viewBox="0 0 93.993 67.88">
  <path id="Path_40023" data-name="Path 40023" d="M23.765,16.889,22.546,19h2.438ZM16.8,23.724l1.219-2.112H15.585Z" transform="translate(30.193 19.662)" fill="#edecec"/>
  <path id="Path_40024" data-name="Path 40024" d="M0,56.661H93.993V20.109H0ZM.767,10.972h92.46a10.448,10.448,0,0,0-9.678-6.527H10.442A10.438,10.438,0,0,0,.767,10.972Z" transform="translate(0 -4.445)" fill="#eee"/>
  <path id="Path_40025" data-name="Path 40025" d="M29.576,17.507H27.138l1.219,2.112Zm-13.923,0H13.215l1.219,2.112Zm8.468,9.446L26.85,22.23l-2.729-4.723H18.67L15.941,22.23l2.729,4.723Zm-9.687-2.112-1.219,2.112h2.438ZM21.4,12.784,20.176,14.9h2.438Z" transform="translate(25.601 11.71)" fill="#edecec"/>
  <path id="Path_40026" data-name="Path 40026" d="M.767,6.667A10.392,10.392,0,0,0,0,10.582V15.8H93.993V10.582a10.392,10.392,0,0,0-.767-3.915H.77Z" transform="translate(0 -0.14)" fill="#0038b8"/>
  <path id="Path_40027" data-name="Path 40027" d="M.261,25.333h92.46a10.448,10.448,0,0,1-9.678,6.527H9.936A10.438,10.438,0,0,1,.261,25.333Z" transform="translate(0.506 36.021)" fill="#eee"/>
  <path id="Path_40028" data-name="Path 40028" d="M.767,53.088A10.392,10.392,0,0,1,0,49.173V43.95H93.993v5.222a10.392,10.392,0,0,1-.767,3.915H.77ZM42.761,33.009,47,40.343l4.236-7.334H59.7l-4.233-7.334L59.7,18.34H51.235L47,11.006,42.761,18.34H34.293l4.233,7.334L34.29,33.009h8.471ZM47,35.121l-1.219-2.112h2.438Zm8.18-14.169-1.219,2.112-1.219-2.109h2.438Zm-1.219,7.334,1.219,2.109H52.739l1.219-2.109ZM47,16.228l1.219,2.112H45.778Zm-2.726,4.723h5.455l2.726,4.723L49.725,30.4H44.271l-2.729-4.723,2.729-4.723Zm-3.017,0-1.219,2.112-1.219-2.109h2.438Zm-1.219,7.334,1.219,2.109H38.816Z" transform="translate(0 8.265)" fill="#0038b8"/>
</svg>
