<svg id="JAM" xmlns="http://www.w3.org/2000/svg" width="93.996" height="67.886" viewBox="0 0 93.996 67.886">
  <path id="Path_40117" data-name="Path 40117" d="M83.55,4.444H10.444A10.445,10.445,0,0,0,0,14.889v47A10.445,10.445,0,0,0,10.444,72.33H83.55A10.445,10.445,0,0,0,93.995,61.885v-47A10.445,10.445,0,0,0,83.55,4.444Z" transform="translate(0.001 -4.444)" fill="#009b3a"/>
  <path id="Path_40118" data-name="Path 40118" d="M93.37,60.895a10.405,10.405,0,0,0,.623-3.554v-47a10.441,10.441,0,0,0-.62-3.548l0-.006L55.914,33.842ZM38.079,33.842.623,6.793A10.4,10.4,0,0,0,0,10.344v47a10.4,10.4,0,0,0,.623,3.554L38.079,33.842Z" transform="translate(0.003 0.101)" fill="#141414"/>
  <path id="Path_40119" data-name="Path 40119" d="M84.537,4.478,46.588,31.889,8.635,4.478a10.457,10.457,0,0,0-8.424,6.8L37.67,38.33.217,65.388a10.461,10.461,0,0,0,8.415,6.788h.012L46.591,44.769,84.537,72.176a10.454,10.454,0,0,0,8.424-6.791l0-.009L55.508,38.327,92.964,11.275a10.459,10.459,0,0,0-8.424-6.8Z" transform="translate(0.412 -4.384)" fill="#ffd202"/>
</svg>
