<svg id="JOR" xmlns="http://www.w3.org/2000/svg" width="93.999" height="67.886" viewBox="0 0 93.999 67.886">
  <path id="Path_40120" data-name="Path 40120" d="M83.55,4.444H10.444A10.445,10.445,0,0,0,0,14.889V26.638H93.992V14.889A10.445,10.445,0,0,0,83.547,4.444Z" transform="translate(0.001 -4.444)" fill="#141414"/>
  <path id="Path_40121" data-name="Path 40121" d="M0,31.749A10.445,10.445,0,0,0,10.445,42.194H83.551A10.445,10.445,0,0,0,94,31.749V20H0V31.749Z" transform="translate(0.003 25.692)" fill="#007a3d"/>
  <path id="Path_40122" data-name="Path 40122" d="M0,12H93.993V35.5H0Z" transform="translate(0.003 10.194)" fill="#eee"/>
  <path id="Path_40123" data-name="Path 40123" d="M3.528,5.337h0A10.424,10.424,0,0,0,0,13.159v47A10.418,10.418,0,0,0,3.528,67.98L45.692,36.657,3.528,5.337Z" transform="translate(0.003 -2.714)" fill="#ce1126"/>
  <path id="Path_40124" data-name="Path 40124" d="M9.975,23.477l2.758,2.55-.273-3.748,3.713-.567-3.1-2.121,1.871-3.254-3.589,1.1L9.978,13.943,8.6,17.435l-3.589-1.1,1.868,3.254-3.1,2.121,3.71.567-.27,3.748Z" transform="translate(7.332 13.958)" fill="#fff"/>
</svg>
