<svg id="KAZ" xmlns="http://www.w3.org/2000/svg" width="93.996" height="67.886" viewBox="0 0 93.996 67.886">
  <path id="Path_40200" data-name="Path 40200" d="M93.995,61.885A10.445,10.445,0,0,1,83.55,72.33H10.444A10.445,10.445,0,0,1,0,61.885v-47A10.445,10.445,0,0,1,10.444,4.444H83.55A10.445,10.445,0,0,1,93.995,14.889Z" transform="translate(0.001 -4.444)" fill="#00afca"/>
  <path id="Path_40201" data-name="Path 40201" d="M29.335,19.612a7.481,7.481,0,1,1-7.481-7.481A7.48,7.48,0,0,1,29.335,19.612Z" transform="translate(27.847 10.448)" fill="#ffcc4d"/>
  <path id="Path_40202" data-name="Path 40202" d="M25.214,14.923a.558.558,0,0,0,.605-.617c0-.444-.605-3.907-.605-3.907s-.617,3.463-.617,3.907A.561.561,0,0,0,25.214,14.923Zm0,16.129a.56.56,0,0,0-.617.614c0,.446.617,3.863.617,3.863s.605-3.419.605-3.863A.553.553,0,0,0,25.214,31.052Zm-2.091-.314a.555.555,0,0,0-.743.438c-.115.429-.426,3.933-.426,3.933s1.492-3.187,1.607-3.616a.56.56,0,0,0-.435-.755ZM27.3,15.155a.561.561,0,0,0,.755-.435c.115-.432.4-3.889.4-3.889s-1.469,3.14-1.586,3.575a.554.554,0,0,0,.429.749ZM21.181,29.927a.557.557,0,0,0-.834.232c-.223.385-1.428,3.686-1.428,3.686s2.265-2.691,2.485-3.075a.56.56,0,0,0-.223-.843Zm8.066-13.97a.56.56,0,0,0,.84-.223c.223-.388,1.4-3.651,1.4-3.651s-2.235,2.655-2.459,3.04a.557.557,0,0,0,.223.834ZM19.515,28.649a.556.556,0,0,0-.864.006c-.314.317-2.335,3.193-2.335,3.193s2.884-2.015,3.2-2.326A.562.562,0,0,0,19.515,28.649ZM30.924,17.241a.558.558,0,0,0,.869,0c.317-.314,2.294-3.166,2.294-3.166s-2.843,1.989-3.158,2.306a.553.553,0,0,0-.009.861ZM18.24,26.981a.559.559,0,0,0-.837-.217c-.388.223-3.081,2.479-3.081,2.479s3.307-1.2,3.692-1.419A.559.559,0,0,0,18.24,26.981Zm13.97-8.063a.561.561,0,0,0,.84.226c.388-.223,3.037-2.464,3.037-2.464s-3.26,1.184-3.648,1.4A.556.556,0,0,0,32.21,18.918ZM17.442,25.042a.563.563,0,0,0-.755-.429c-.429.115-3.616,1.6-3.616,1.6s3.5-.3,3.933-.414A.563.563,0,0,0,17.442,25.042Zm15.576-4.177a.56.56,0,0,0,.755.435c.432-.115,3.572-1.592,3.572-1.592s-3.457.3-3.889.411a.552.552,0,0,0-.435.743ZM17.165,22.96a.558.558,0,0,0-.617-.605c-.444,0-3.907.605-3.907.605s3.463.617,3.907.617A.561.561,0,0,0,17.165,22.96Zm16.132,0a.56.56,0,0,0,.614.617c.446,0,3.863-.617,3.863-.617s-3.419-.605-3.863-.605A.552.552,0,0,0,33.3,22.96ZM17.442,20.88A.555.555,0,0,0,17,20.137c-.429-.115-3.933-.426-3.933-.426s3.187,1.492,3.616,1.607a.561.561,0,0,0,.755-.435Zm15.579,4.174a.561.561,0,0,0,.435.755c.432.115,3.889.4,3.889.4s-3.14-1.469-3.575-1.586A.555.555,0,0,0,33.021,25.054ZM18.243,18.942a.557.557,0,0,0-.232-.834c-.385-.223-3.686-1.428-3.686-1.428s2.691,2.265,3.075,2.485A.562.562,0,0,0,18.243,18.942ZM32.216,27a.56.56,0,0,0,.223.84c.385.223,3.651,1.4,3.651,1.4s-2.655-2.232-3.04-2.456a.554.554,0,0,0-.834.22ZM19.521,17.273a.556.556,0,0,0-.006-.864c-.317-.314-3.193-2.335-3.193-2.335s2.015,2.884,2.326,3.2A.561.561,0,0,0,19.521,17.273ZM30.93,28.682a.558.558,0,0,0,0,.869c.314.317,3.166,2.294,3.166,2.294S32.107,29,31.79,28.685a.551.551,0,0,0-.861-.006ZM21.192,16a.561.561,0,0,0,.217-.837c-.223-.385-2.479-3.081-2.479-3.081s1.2,3.307,1.419,3.692A.559.559,0,0,0,21.192,16Zm8.066,13.97a.558.558,0,0,0-.226.837c.223.388,2.464,3.037,2.464,3.037s-1.184-3.263-1.4-3.651A.554.554,0,0,0,29.258,29.968ZM23.128,15.2a.563.563,0,0,0,.429-.755c-.115-.429-1.6-3.616-1.6-3.616s.3,3.5.414,3.933A.562.562,0,0,0,23.128,15.2Zm4.18,15.579a.56.56,0,0,0-.435.755c.115.432,1.592,3.572,1.592,3.572s-.3-3.46-.411-3.889a.553.553,0,0,0-.743-.438Z" transform="translate(24.494 7.094)" fill="#ffcc4d"/>
  <path id="Path_40203" data-name="Path 40203" d="M27.027,32.26l-.1.041-.106.015-.082.015-.15-.032-.065-.026-.059-.029L26.4,32.2l-.117-.082-.106-.085-.059-.041-.076-.032-.053-.012h-.076l-.294.614-.059.085-.059.071-.059.044-.053.044-.076.029h-.07l-.065-.029-.091-.044-.026-.044-.032-.044-.032-.059-.032-.068-.041-.217-.085.07-.082.1-.162.247-.1.129-.1.1-.056.059-.07.044-.07.032-.085.026h-.041l-.076.015-.07-.015-.056-.026-.167-.2-.188-.2-.129.2-.15.17-.07.07-.065.07-.07.059-.132.073-.07.015h-.07l-.059-.015-.059-.032-.041-.044-.056-.068c-.035-.106-.076-.211-.117-.317l-.015-.073-.026-.056-.032-.029h-.032l-.388.632-.056.056-.1.044-.223.056h-.132l-.1-.029-.032-.015-.041-.044-.012-.026V33.35l.053-.632-.041.015-.112.056c-.1.106-.2.217-.3.329l-.129.159-.159.132-.15.112-.082.047-.173.026-.07-.015-.032-.012L20,33.535l-.015-.044v-.044L20,33.265l.044-.291-.029-.17-.059-.1-.085.129-.141.185c-.117.129-.238.253-.361.376-.068.044-.135.094-.2.144l-.156.056-.032-.015h-.044l-.032-.026-.012-.015-.032-.044-.012-.044v-.056l-.015-.073.015-.543c-.261.176-.526.35-.79.514l-.1.044-.112.059c-.106.026-.211.053-.317.082h-.106l-.1-.012-.088-.032.044-.115.085-.2.056-.082.062-.085.056-.085.147-.144.159-.112.182-.118.188-.085.217-.07.214-.056.488-.085.244-.032c.72-.041,1.445-.047,2.165-.041l.79-.044.247-.029.455-.085.22-.059.2-.082.188-.085c.1-.079.2-.156.305-.229l.138-.162-.15-.285.117-.015.112-.026.117-.059.1-.073.041-.026.047-.044.032-.059.032-.041.012-.059v-.1l-.032-.059.247-.044.261-.029.273-.015h.285c.4.015.8.038,1.193.07.6.073,1.2.129,1.806.188l.54.029v.2l-.012.088-.032.082-.026.085-.032.07-.041.059c-.05.059-.106.115-.159.17l-.129.082-.138.059-.138.032-.159.029-.305-.029-.159-.044-.138-.073-.15-.07-.112-.1-.112-.112v.247c-.021.159-.047.317-.07.476l-.056.15-.032.059-.041.041-.032.044-.035.026ZM15.492,30.909l.326.144c.065-.056.132-.106.2-.156l.129-.068.115-.073.432-.173.37-.173.188-.07.317-.17.129-.088c.323-.211.649-.42.975-.626l.285-.2.217-.173c.214-.194.423-.388.632-.587l.085-.059.1-.059c.12-.059.238-.118.361-.173l.244-.082a14.01,14.01,0,0,1,1.475-.317c.505-.059,1.013-.129,1.519-.185l.673-.115c.167-.047.335-.088.505-.129l.173-.217.276-.3.188-.185.209-.176.247-.185.285-.188.435-.256c.311-.156.62-.314.928-.476.549-.256,1.09-.529,1.627-.8l.256-.173.07-.217.1-.211.129-.217.332-.444c.153-.162.3-.323.444-.491.176-.173.361-.341.546-.5l.276-.226.138-.1.15-.1c.106-.059.209-.118.317-.173l.159-.073.153-.056.338-.088.167-.012.159-.015.167.015.159.026-.012.173-.041.17-.129.361-.106.185-.129.188-.156.2-.188.2.15-.015.129-.029.1-.032.1-.041.188-.059.27-.029.015.1V23l-.015.1-.026.085-.041.085-.059.085-.056.068-.07.073c-.2.191-.4.376-.6.558l.17.015c.126.038.25.079.379.112l.138.032-.167.129c-.132.088-.267.176-.4.258l-.458.258L31.95,25l-.229.159-.214.173.1.012.132.059.059.015.056.029.047.012.041-.012-.285.159c-.176.082-.355.17-.529.258L30.9,26l-.041.044-.026.044-.032.041.012.059.032.044.056.041.053.047-.021.056-.032.047-.056.041-.053.044-.138.068-.167.073-.326.115-.2.1.285.285-.1.1-.1.073-.085.044-.1.041-.2.029h-.282l.032.129.041.129.059.291c-.176.138-.361.27-.546.4l-.332.214-.367.214-.435.2c-.244.094-.485.179-.734.258l-.555.118-.305.044c.332.012.664.015,1,.012l.814-.085.358-.07.317-.085c.209-.07.411-.15.617-.229l.4-.182.391-.217.367-.232.391-.226L30.645,28l-.223-.07-.106-.05c-.082-.038-.162-.079-.247-.112l-.132-.073.112-.082.138-.059.15-.056c.173-.041.347-.082.52-.117.223-.024.449-.053.673-.082l.285-.029.22-.056.059-.032.041-.044-.012-.015-.032-.029-.041-.015-.056-.026-.159-.032-.2-.029-.2-.015-.2-.029-.176-.044-.106-.044,1.4-.314.247-.073c.106-.038.211-.082.317-.129l.138-.088.059-.056-.015-.012-.026-.032-.132-.029-.182-.015h-.22c-.15-.012-.294-.021-.444-.026l-.182-.032-.117-.029.2-.082c.3-.094.611-.179.919-.261.176-.059.352-.12.529-.173l.27-.115.129-.07.117-.07L34,25.208l.044-.059.041-.041.015-.044-.015-.044-.041-.032L34,24.976h-.4l-.188.012h-.256l-.076-.012-.05-.032-.062-.029c.523-.344,1.049-.687,1.58-1.022l.411-.288c.112-.091.22-.188.326-.285l.129-.144.117-.144.085-.156.07-.156.041-.176v-.185h-.1l-.1.015-.223.082c-.2.126-.4.247-.605.361l-.112.073-.132.056-.129.044-.118.029-.112.015h-.132l-.112-.044.347-.258c.279-.238.555-.479.831-.717.3-.291.6-.585.887-.89l.411-.458c.123-.162.247-.317.376-.476.1-.147.2-.294.3-.444l.032-.056.012-.044-.012-.059-.015-.041-.015-.047-.041-.029-.044-.044-.041-.015-.056-.026-.062-.015h-.112l-.056.015-.076.012-.041.047-.059.044c-.294.294-.582.59-.867.89l-.347.329c-.226.2-.458.394-.69.59-.109.073-.22.147-.332.214l-.317.159.1-.085c.106-.1.206-.2.305-.3.367-.423.72-.861,1.06-1.3L36,19.051l.176-.314.176-.288.144-.261.112-.247.07-.2.015-.07v-.115l-.015-.044-.053-.085L36.6,17.4l-.047-.012-.082-.047-.106-.029h-.2l-.056.015-.041.012-.059.032-.041.041-.117.1c-.129.153-.253.314-.373.476-.288.449-.59.887-.9,1.319l-.364.432-.182.188-.2.173.256-.479.4-.843.261-.617.112-.317.2-.646c.05-.209.094-.417.132-.629.018-.2.035-.391.047-.59l-.021-.144-.012-.129-.015-.132-.041-.167-.032-.047-.07-.07-.1-.041-.106-.032h-.1l-.091.015-.026.015-.041.012-.015.032c-.258.814-.455,1.645-.679,2.467-.082.229-.167.458-.256.69l-.214.414-.132.185.085-.411c.041-.241.079-.479.112-.717l.059-.59.015-.247c-.009-.126-.018-.247-.032-.373l-.026-.144-.041-.115-.059-.085-.032-.029-.085-.029-.041-.015H33.2l-.041.015-.117.029-.112.059c-.088.444-.2.884-.317,1.322a16.153,16.153,0,0,1-.6,1.618c-.153.323-.317.646-.491.96l-.317.546-.341.514c-.229.32-.467.637-.714.946-.241.27-.485.538-.734.8s-.523.505-.79.749-.555.452-.84.67c-.347.25-.7.491-1.066.717l-.632.37-1,.461-1.034.37-.858.261-.887.2-.444.073-.908.115-.458.029-.044.015-.044.012-.085.047-.1.068c-.112.1-.223.2-.332.3l-.229.232-.834.928-.317.317-.37.285-.147.1-.144.088-.314.144c-.485.2-.978.379-1.469.576l-.129.07-.115.059-.082.056-.159.159-.044.07-.032.07-.012.1v.073Z" transform="translate(30.015 16.422)" fill="#ffcc4d"/>
  <path id="Path_40204" data-name="Path 40204" d="M29.414,31.524l.241.032.117.044.026.012v.015h-.026l-.032.012-.229.044h-.182l-.6-.044-1.522-.029c-.4.006-.8.015-1.207.029-.355.026-.708.056-1.063.085l-.273.044-.244.056c-.059.021-.112.041-.17.059l-.073.032-.059.044.026-.147.062-.147-.2.059-.173.085-.068.044-.059.059-.044.068-.012.073-.041-.1-.032-.088a1.87,1.87,0,0,0-.032-.185c.015-.076.032-.153.041-.226l.047-.073.026-.059.059-.068.115-.115.156-.1.176-.1a1.336,1.336,0,0,0,.3.129.863.863,0,0,0,.305-.029c.159.141.573.112.629-.144a.634.634,0,0,0,0-.288l.173-.012.2-.032.444-.115.232-.044.214-.056.2-.029.17-.015-.07.059-.373.285-.141.1.182.047.159.029-.341.388-.088.115.112.044.115.032.129.029h.258l.256-.059.1-.059.117.059.115.044c.073.021.15.041.223.059.176.018.355.038.535.056H29.4Zm-1.307-4.362-.129.258-.147.332c-.076.135-.147.273-.211.411l-.073.073-.17-.144-.188-.129-.2-.1-.211-.082-.461-.117-.226-.041c-.247-.029-.5-.053-.746-.07-.332-.006-.661-.021-.99-.047l-.458-.056-.258-.044-.244-.056-.256-.088-.217-.112-.159-.106-.329-.244c-.482-.452-.955-.908-1.448-1.351l-.285-.2-.129-.059-.135-.041-.244-.056c-.141-.05-.285-.1-.429-.144-.132-.065-.27-.126-.405-.185-.238-.147-.464-.305-.687-.476l-.144-.132-.285-.285-.273-.3c-.452-.552-.878-1.119-1.319-1.68-.211-.223-.426-.444-.646-.661l-.185-.17L15.63,20.9l-.411-.3-.041.012-.047.044-.044.059c-.026.065-.047.132-.068.2L15,20.976l-.106-.047-.085-.044-.106-.044-.085-.029h-.185l-.1.029-.1.044c.079.1.153.2.226.3l.129.2.232.444.082.217.032.115.032.085.012.1v.082h-.773l.112.173c.085.117.176.232.27.344l.476.476.159.129.147.1c-.126.012-.247.023-.373.032l-.376.041.129.117c.112.079.223.159.332.244l.185.129.188.115.185.1.173.059.159.041.129.029.041.015.032.032.012.012v.056l-.041.117-.012.082-.018.059v.041l.018.073.012.059.032.026.041.032.056.029.073.015.147.059.07.026.059.044.012.015v.029l-.012.015-.115.082-.059.059-.059.07v.059l-.012.059.029.153.5.173.115.026.115.047.085.044.073.044-.476.373.129.115.159.085.2.1c.144.053.288.1.435.147l.214.041.188.044h.17l-.159.115-.2.129-.214.117-.159.115.144.1c.435.223.881.435,1.336.62.793.323,1.607.605,2.423.858.182.044.364.091.543.144l.229.044-.461-.044c-.288-.035-.573-.082-.858-.129l-.4-.085-.79-.226-.37-.129c-.993-.388-1.962-.831-2.955-1.207L16.5,27.5l.2-.073.129-.029c.176-.053.344-.109.517-.173-.341-.053-.681-.112-1.022-.182-.176-.059-.352-.109-.529-.159l-.1-.044-.085-.044-.07-.047-.047-.041V26.7l.015-.015.044-.015.041-.029.115-.044.5-.147.291-.1c-.414-.079-.834-.15-1.251-.214l-.2-.047-.159-.056L14.831,26l-.056-.044-.047-.026-.029-.047.044-.029.129-.029c.132-.021.27-.044.4-.07l.229-.029c.129-.035.258-.076.388-.117l.059-.041.059-.047-.226-.085-.147-.026-.144-.032-.658-.085-.173-.041-.159-.032-.317-.112-.147-.073-.117-.082-.115-.1-.085-.129.032-.015.056-.015h.073L14,24.7l.546.029.317.032h.4l.112-.015.088-.029.059-.032c-.27-.109-.538-.223-.8-.344-.176-.088-.352-.176-.532-.258l-.543-.285-.258-.159c-.159-.112-.317-.226-.473-.344l-.2-.173-.088-.1-.088-.085-.056-.085-.059-.1-.059-.082-.032-.1L12.3,22.38h.1l.115.012.115.047.115.041.226.144.258.144.115.073.129.068.129.059.115.044.129.032.115.012h.129l.112-.044-.341-.261c-.282-.232-.558-.473-.834-.714-.455-.435-.89-.881-1.307-1.351l-.182-.244-.188-.229c-.1-.147-.2-.294-.3-.446l-.026-.059v-.1l.012-.044.012-.041.044-.029.041-.044.047-.032.056-.015.059-.012H11.4l.07.012.062.015.056.044q.467.463.916.934c.332.317.676.626,1.034.919l.329.211.17.088.159.056-.112-.07-.3-.3c-.367-.423-.717-.861-1.063-1.3-.153-.209-.3-.417-.446-.632-.129-.209-.264-.411-.4-.617q-.163-.269-.317-.546c-.059-.15-.12-.3-.182-.444l-.018-.07v-.117l.018-.041.056-.085.032-.032.044-.026.185-.059h.2l.059.012.041.015.059.032.159.144.373.476c.294.449.6.887.919,1.319l.341.432.188.185.2.173c-.226-.435-.449-.872-.658-1.316-.088-.2-.176-.411-.258-.617l-.115-.317c-.059-.217-.129-.435-.2-.646l-.07-.317-.053-.32-.032-.3-.012-.285.012-.144.018-.129.012-.129.029-.129.029-.047.015-.041.041-.047.029-.026.1-.044.1-.026h.1l.085.015.041.012.032.015.015.032.015.041c.247.8.446,1.615.658,2.429.082.226.17.452.261.673l.1.214.115.2.129.2-.082-.417c-.035-.241-.07-.479-.115-.714-.029-.276-.053-.555-.07-.834l.029-.373.029-.147.044-.112.059-.085.029-.032.041-.029.041-.012h.129l.117.041.112.059.2.9c.073.273.153.549.244.817.147.411.305.817.476,1.219l.2.414.288.549.314.543.347.517.37.514.347.432c.241.27.482.54.731.8s.523.5.79.743l.414.347c.382.3.773.579,1.178.846q.476.282.96.546l.987.476q.753.3,1.519.543.753.2,1.522.344a17.715,17.715,0,0,0,2.1.2Z" transform="translate(21.348 16.453)" fill="#ffcc4d"/>
  <path id="Path_40205" data-name="Path 40205" d="M5.4,35.956s-.62.514-.828.256c-.338-.417,1.037-2.5,1.037-3.24,0-1.2-.808-1.539-1.8-1.707a7.059,7.059,0,0,0-1.751.05.741.741,0,0,0,.681.376A1.442,1.442,0,0,0,1.973,33c0,1.034.429,1.463.429,2.635a3.451,3.451,0,0,1-.532,1.475,1.262,1.262,0,0,0,1.143-1.663.458.458,0,0,1,.4.123.692.692,0,0,0-.185-.608c.117-.059.2-.023.388.012a.84.84,0,0,0-.429-.605,1.024,1.024,0,0,0,1.366-.987.748.748,0,0,0-.646-.8.665.665,0,0,0-.341.106.53.53,0,0,1,.032-.426c-.232.059-.382.2-.273.491a.57.57,0,0,0-.42.194.5.5,0,0,0,.42.188c-.129.27.015.426.226.546,0,0-.135-.546.211-.546.156,0,.3.056.3.282a.5.5,0,0,1-.576.458c-.4-.015-.731-.279-.731-.919,0-.6.479-.893,1.107-.911a.865.865,0,0,1,1,.878c0,.778-1.128,2.558-1.128,3.254a.857.857,0,0,0,.928.811,1.707,1.707,0,0,0,1.1-.59l-.344-.435Zm-.132-14.1A2.034,2.034,0,0,1,7.36,19.88a1.689,1.689,0,0,1,1.9,1.707A2.885,2.885,0,0,1,8.9,23.008L6.064,28.9a1.738,1.738,0,0,0-.132.784,1.038,1.038,0,0,0,2.074-.018c0-.649-.335-.937-.681-.937-.426,0-.6.173-.6.473,0,.211.1.3.247.3.364,0,.264-.491.264-.491a.342.342,0,0,1,.247.458.659.659,0,0,1,.352.206.646.646,0,0,1-.352.194.333.333,0,0,1-.273.482.507.507,0,0,0,.035-.3.744.744,0,0,1-.984-.737,1.058,1.058,0,0,1,1.331-1.093.6.6,0,0,1-.332-.526,1.139,1.139,0,0,0,.332.073,1.1,1.1,0,0,1-.238-.687c.162.076.311.209.517.123a1.26,1.26,0,0,1,1.087-1.718,2.1,2.1,0,0,0-.552,1.369c0,1.516.423,1.765.423,2.814A1.553,1.553,0,0,1,8.159,30.9v-.018a.911.911,0,0,1,.593.423,4.068,4.068,0,0,1-2.185-.018,1.622,1.622,0,0,1-1.157-.77,2.344,2.344,0,0,1,0-1.865c.4-.837,2.3-4.855,2.887-6.121a1.991,1.991,0,0,0,.2-.861,1.073,1.073,0,0,0-1.11-1.043.948.948,0,0,0-.975.825c0,.294.159.464.385.464.546,0,.511-.461.4-.755a.688.688,0,0,1,.482.711.868.868,0,0,1,.543.305.662.662,0,0,1-.543.3c.109.444-.188.632-.482.734.091-.323.153-.7-.4-.7a1.016,1.016,0,0,1-.908-.335c-.012.352-.047,1.736-.047,1.736-.021.523.7.505,1.154.352a1.084,1.084,0,0,1-1.351.843.643.643,0,0,1,.411.629A1.663,1.663,0,0,1,5.4,26.932l-.129-5.087Z" transform="translate(3.626 25.46)" fill="#ffcc4d"/>
  <path id="Path_40206" data-name="Path 40206" d="M5.745,36.907a2.034,2.034,0,0,0-2.088-1.971,1.689,1.689,0,0,0-1.9,1.707,2.885,2.885,0,0,0,.355,1.422l2.837,5.892a1.741,1.741,0,0,1,.129.784,1.062,1.062,0,0,1-1.049.975,1.06,1.06,0,0,1-1.022-.993c0-.649.335-.937.681-.937.426,0,.6.173.6.473,0,.211-.1.3-.247.3-.364,0-.264-.491-.264-.491a.34.34,0,0,0-.247.458.659.659,0,0,0-.352.206.646.646,0,0,0,.352.194.332.332,0,0,0,.276.479.507.507,0,0,1-.035-.3.744.744,0,0,0,.984-.737,1.057,1.057,0,0,0-1.328-1.093.6.6,0,0,0,.329-.526,1.129,1.129,0,0,1-.329.073,1.122,1.122,0,0,0,.235-.687c-.162.076-.308.209-.517.123a1.26,1.26,0,0,0-1.087-1.718,2.1,2.1,0,0,1,.552,1.369c0,1.516-.42,1.765-.42,2.814a1.553,1.553,0,0,0,.673,1.237V45.94a.9.9,0,0,0-.593.423,4.068,4.068,0,0,0,2.185-.018,1.622,1.622,0,0,0,1.157-.77,2.344,2.344,0,0,0,0-1.865c-.4-.837-2.3-4.855-2.887-6.121a1.991,1.991,0,0,1-.2-.861,1.073,1.073,0,0,1,1.11-1.043.948.948,0,0,1,.975.825c0,.294-.159.464-.385.464-.546,0-.511-.461-.405-.755a.688.688,0,0,0-.482.711.882.882,0,0,0-.543.305.662.662,0,0,0,.543.3c-.109.444.188.632.482.734-.091-.323-.153-.7.405-.7a1.016,1.016,0,0,0,.908-.335l.047,1.736c.021.523-.7.505-1.157.352a1.08,1.08,0,0,0,1.348.84.643.643,0,0,0-.411.629,1.653,1.653,0,0,0,.655,1.193L5.745,36.9Zm-.126,14.1s.62.514.828.256c.338-.417-1.037-2.5-1.037-3.24,0-1.2.808-1.539,1.8-1.707a7.087,7.087,0,0,1,1.754.05.744.744,0,0,1-.681.376,1.447,1.447,0,0,1,.773,1.307c0,1.034-.429,1.463-.429,2.635a3.451,3.451,0,0,0,.532,1.475A1.262,1.262,0,0,1,8.012,50.5a.463.463,0,0,0-.4.123.7.7,0,0,1,.185-.608c-.117-.059-.2-.023-.388.012a.832.832,0,0,1,.429-.605,1.024,1.024,0,0,1-1.366-.987.748.748,0,0,1,.646-.8.665.665,0,0,1,.341.106.519.519,0,0,0-.035-.426c.235.059.382.2.276.491a.575.575,0,0,1,.42.194.5.5,0,0,1-.42.188c.129.27-.015.426-.226.546,0,0,.135-.546-.211-.546-.156,0-.3.056-.3.282a.5.5,0,0,0,.576.458c.4-.015.728-.279.728-.919,0-.6-.479-.893-1.107-.911a.865.865,0,0,0-1,.878c0,.778,1.128,2.558,1.128,3.255a.857.857,0,0,1-.928.811,1.707,1.707,0,0,1-1.1-.59l.344-.435Zm-.132-36.93a2.035,2.035,0,0,1,2.088-1.974,1.689,1.689,0,0,1,1.9,1.709,2.893,2.893,0,0,1-.355,1.422l-2.837,5.9a1.724,1.724,0,0,0-.132.781A1.038,1.038,0,0,0,8.221,21.9c0-.646-.335-.937-.681-.937-.426,0-.6.176-.6.476,0,.206.1.3.247.3.364,0,.264-.491.264-.491A.339.339,0,0,1,7.7,21.7a.665.665,0,0,1,.352.209.67.67,0,0,1-.352.2.33.33,0,0,1-.273.479.505.505,0,0,0,.035-.3.744.744,0,0,1-.984-.737,1.058,1.058,0,0,1,1.331-1.09.612.612,0,0,1-.332-.526,1.135,1.135,0,0,0,.332.068,1.1,1.1,0,0,1-.238-.684c.162.073.311.209.517.123a1.258,1.258,0,0,1,1.087-1.718,2.11,2.11,0,0,0-.552,1.369c0,1.513.423,1.765.423,2.817a1.557,1.557,0,0,1-.673,1.237V23.12a.91.91,0,0,1,.587.42,4.039,4.039,0,0,1-2.185-.018,1.63,1.63,0,0,1-1.157-.77,2.329,2.329,0,0,1,0-1.859c.4-.84,2.3-4.858,2.887-6.124a2.044,2.044,0,0,0,.2-.861A1.073,1.073,0,0,0,7.6,12.863a.946.946,0,0,0-.975.822c0,.294.159.467.385.467.546,0,.511-.464.4-.755a.686.686,0,0,1,.482.711.846.846,0,0,1,.543.308.674.674,0,0,1-.543.3c.109.446-.188.634-.482.737.091-.323.153-.7-.4-.7A1.022,1.022,0,0,1,6.1,14.42c-.012.35-.047,1.736-.047,1.736-.021.52.7.505,1.154.35a1.074,1.074,0,0,1-1.345.84.645.645,0,0,1,.411.632,1.657,1.657,0,0,1-.655,1.19l-.129-5.087Z" transform="translate(3.411 10.403)" fill="#ffcc4d"/>
  <path id="Path_40207" data-name="Path 40207" d="M5.745,14.082a2.035,2.035,0,0,0-2.088-1.974,1.689,1.689,0,0,0-1.9,1.709,2.893,2.893,0,0,0,.355,1.422l2.837,5.9a1.728,1.728,0,0,1,.129.781,1.062,1.062,0,0,1-1.049.975A1.06,1.06,0,0,1,3.01,21.9c0-.646.335-.937.681-.937.426,0,.6.176.6.476,0,.206-.1.3-.247.3-.364,0-.264-.491-.264-.491a.337.337,0,0,0-.247.455.665.665,0,0,0-.352.209.67.67,0,0,0,.352.2.331.331,0,0,0,.273.479.505.505,0,0,1-.035-.3.744.744,0,0,0,.984-.737,1.057,1.057,0,0,0-1.328-1.09.609.609,0,0,0,.329-.526,1.124,1.124,0,0,1-.329.068,1.12,1.12,0,0,0,.235-.684c-.162.073-.308.209-.517.123a1.258,1.258,0,0,0-1.087-1.718,2.11,2.11,0,0,1,.552,1.369c0,1.513-.42,1.765-.42,2.817a1.557,1.557,0,0,0,.673,1.237V23.12a.888.888,0,0,0-.587.42,4.039,4.039,0,0,0,2.185-.018,1.63,1.63,0,0,0,1.157-.77,2.329,2.329,0,0,0,0-1.859c-.4-.84-2.3-4.858-2.887-6.124a2,2,0,0,1-.2-.858,1.073,1.073,0,0,1,1.11-1.046.946.946,0,0,1,.975.822c0,.294-.159.467-.385.467-.546,0-.511-.464-.405-.755a.686.686,0,0,0-.482.711.86.86,0,0,0-.543.308.674.674,0,0,0,.543.3c-.109.446.188.634.482.737-.091-.323-.153-.7.405-.7a1.022,1.022,0,0,0,.908-.332l.044,1.73c.021.52-.7.505-1.157.35a1.083,1.083,0,0,0,1.348.843.645.645,0,0,0-.411.632,1.647,1.647,0,0,0,.655,1.19l.129-5.087Z" transform="translate(3.411 10.403)" fill="#ffcc4d"/>
  <path id="Path_40208" data-name="Path 40208" d="M5.745,17.78a2.035,2.035,0,0,1-2.088,1.974,1.69,1.69,0,0,1-1.9-1.712,2.908,2.908,0,0,1,.355-1.422l2.837-5.9a1.728,1.728,0,0,0,.129-.781,1.062,1.062,0,0,0-1.049-.975,1.06,1.06,0,0,0-1.022.993c0,.649.335.937.681.937.426,0,.6-.176.6-.476,0-.209-.1-.3-.247-.3-.364,0-.264.491-.264.491a.339.339,0,0,1-.247-.458.627.627,0,0,1-.352-.206.686.686,0,0,1,.352-.194.333.333,0,0,1,.276-.479.505.505,0,0,0-.035.3.746.746,0,0,1,.984.737,1.055,1.055,0,0,1-1.328,1.09.609.609,0,0,1,.329.526,1.247,1.247,0,0,0-.329-.068,1.12,1.12,0,0,1,.235.684c-.162-.073-.308-.209-.517-.123A1.261,1.261,0,0,1,2.059,14.15a2.112,2.112,0,0,0,.552-1.372c0-1.51-.42-1.765-.42-2.814a1.557,1.557,0,0,1,.673-1.237v.018a.9.9,0,0,1-.59-.426,4.038,4.038,0,0,1,2.185.021,1.624,1.624,0,0,1,1.157.773,2.329,2.329,0,0,1,0,1.859c-.4.84-2.3,4.858-2.887,6.121a1.988,1.988,0,0,0-.2.858A1.071,1.071,0,0,0,3.639,19a.946.946,0,0,0,.975-.825c0-.291-.159-.467-.385-.467-.546,0-.511.461-.405.755a.686.686,0,0,1-.482-.711.874.874,0,0,1-.543-.308.674.674,0,0,1,.543-.3c-.109-.444.188-.634.482-.74-.091.326-.153.7.405.7a1.015,1.015,0,0,1,.908.332L5.184,15.7c.021-.52-.7-.505-1.157-.35a1.083,1.083,0,0,1,1.348-.843.645.645,0,0,1-.411-.632,1.647,1.647,0,0,1,.655-1.19l.129,5.09Zm0,22.828a2.032,2.032,0,0,1-2.088,1.971,1.689,1.689,0,0,1-1.9-1.707,2.885,2.885,0,0,1,.355-1.422l2.837-5.9a1.728,1.728,0,0,0,.129-.781A1.062,1.062,0,0,0,4.032,31.8a1.06,1.06,0,0,0-1.022.99c0,.646.335.937.681.937.426,0,.6-.176.6-.476,0-.206-.1-.294-.247-.294-.364,0-.264.491-.264.491a.34.34,0,0,1-.247-.458.63.63,0,0,1-.352-.209.665.665,0,0,1,.352-.194.333.333,0,0,1,.273-.482.505.505,0,0,0-.035.3.745.745,0,0,1,.984.737,1.058,1.058,0,0,1-1.328,1.09.613.613,0,0,1,.329.529,1.321,1.321,0,0,0-.329-.07,1.127,1.127,0,0,1,.235.684c-.162-.073-.308-.209-.517-.123a1.258,1.258,0,0,1-1.087,1.718A2.1,2.1,0,0,0,2.608,35.6c0-1.507-.42-1.765-.42-2.814a1.549,1.549,0,0,1,.673-1.237v.015a.87.87,0,0,1-.587-.42,4.038,4.038,0,0,1,2.185.021,1.63,1.63,0,0,1,1.157.77,2.328,2.328,0,0,1,0,1.859c-.4.84-2.3,4.858-2.887,6.124a1.978,1.978,0,0,0-.2.858,1.071,1.071,0,0,0,1.11,1.043A.946.946,0,0,0,4.614,41c0-.285-.159-.461-.385-.461-.546,0-.511.461-.405.752a.688.688,0,0,1-.482-.711.855.855,0,0,1-.543-.305.7.7,0,0,1,.543-.3c-.109-.444.188-.629.482-.734-.091.326-.153.7.405.7a1.009,1.009,0,0,1,.908.335l.047-1.739c.021-.517-.7-.505-1.157-.35a1.082,1.082,0,0,1,1.348-.84.645.645,0,0,1-.411-.632,1.653,1.653,0,0,1,.655-1.19l.129,5.084Z" transform="translate(3.411 2.793)" fill="#ffcc4d"/>
  <path id="Path_40209" data-name="Path 40209" d="M3.175,44.339A2.032,2.032,0,0,0,5.264,46.31a1.689,1.689,0,0,0,1.9-1.707,2.885,2.885,0,0,0-.355-1.422l-2.837-5.9a1.724,1.724,0,0,1-.132-.781,1.038,1.038,0,0,1,2.074.015c0,.646-.335.937-.681.937-.426,0-.6-.176-.6-.476,0-.206.1-.294.247-.294.364,0,.264.491.264.491a.342.342,0,0,0,.247-.458.629.629,0,0,0,.352-.209.665.665,0,0,0-.352-.194.332.332,0,0,0-.273-.482.505.505,0,0,1,.035.3.745.745,0,0,0-.984.737A1.059,1.059,0,0,0,5.5,37.965a.616.616,0,0,0-.332.529,1.332,1.332,0,0,1,.332-.07,1.108,1.108,0,0,0-.238.684c.162-.073.311-.209.517-.123A1.258,1.258,0,0,0,6.864,40.7a2.1,2.1,0,0,1-.552-1.369c0-1.507.423-1.765.423-2.814a1.549,1.549,0,0,0-.673-1.237V35.3a.9.9,0,0,0,.593-.423,4.037,4.037,0,0,0-2.185.021,1.63,1.63,0,0,0-1.157.77,2.328,2.328,0,0,0,0,1.859c.4.84,2.3,4.858,2.887,6.124a1.978,1.978,0,0,1,.2.858,1.071,1.071,0,0,1-1.11,1.043.946.946,0,0,1-.975-.825c0-.285.159-.461.385-.461.546,0,.511.461.4.752a.688.688,0,0,0,.482-.711A.841.841,0,0,0,6.127,44a.7.7,0,0,0-.543-.3c.109-.444-.188-.629-.482-.734.091.326.153.7-.4.7A1.009,1.009,0,0,0,3.792,44c-.012-.35-.047-1.739-.047-1.739-.021-.517.7-.505,1.154-.35a1.085,1.085,0,0,0-1.351-.84.645.645,0,0,0,.411-.632,1.663,1.663,0,0,0-.655-1.19l-.129,5.087ZM3.307,7.411s.62-.52.828-.261C4.474,7.57,3.1,9.655,3.1,10.393c0,1.207.808,1.533,1.8,1.7a6.991,6.991,0,0,0,1.754-.047.763.763,0,0,0-.684-.376,1.435,1.435,0,0,0,.773-1.3c0-1.04-.429-1.469-.429-2.638a3.47,3.47,0,0,1,.532-1.477A1.264,1.264,0,0,0,5.7,7.916a.446.446,0,0,1-.4-.123.706.706,0,0,0,.185.611c-.117.062-.2.024-.388-.015A.836.836,0,0,0,5.525,9a1.025,1.025,0,0,0-1.369.99.744.744,0,0,0,.646.8.638.638,0,0,0,.341-.106.525.525,0,0,1-.035.429c.235-.059.382-.2.276-.491a.61.61,0,0,0,.42-.194.508.508,0,0,0-.423-.191c.129-.27-.015-.423-.226-.543,0,0,.135.543-.211.543-.156,0-.3-.053-.3-.279A.5.5,0,0,1,5.223,9.5c.4.018.728.276.728.922,0,.593-.479.884-1.107.9a.867.867,0,0,1-1-.878c0-.781,1.128-2.555,1.128-3.254a.859.859,0,0,0-.928-.814,1.707,1.707,0,0,0-1.1.59l.347.438Z" transform="translate(5.722 -0.938)" fill="#ffcc4d"/>
  <path id="Path_40210" data-name="Path 40210" d="M5.405,7.411s-.62-.52-.828-.261c-.341.423,1.037,2.508,1.037,3.246,0,1.207-.808,1.533-1.8,1.7a7.059,7.059,0,0,1-1.751-.05.752.752,0,0,1,.681-.376,1.432,1.432,0,0,1-.775-1.3c0-1.04.429-1.469.429-2.638a3.47,3.47,0,0,0-.532-1.477A1.264,1.264,0,0,1,3.012,7.916a.458.458,0,0,0,.4-.123.7.7,0,0,1-.185.611c.115.062.2.023.388-.015A.845.845,0,0,1,3.188,9a1.023,1.023,0,0,1,1.366.99.744.744,0,0,1-.646.8.638.638,0,0,1-.341-.106.537.537,0,0,0,.035.429c-.232-.059-.379-.2-.273-.488a.6.6,0,0,1-.42-.194.5.5,0,0,1,.42-.194c-.129-.27.015-.423.226-.543,0,0-.135.543.211.543.156,0,.3-.053.3-.279A.5.5,0,0,0,3.487,9.5c-.4.018-.731.276-.731.919,0,.593.479.884,1.107.9a.867.867,0,0,0,1-.878c0-.781-1.128-2.555-1.128-3.254a.859.859,0,0,1,.928-.814,1.707,1.707,0,0,1,1.1.59l-.344.441Zm-.132,14.1a2.035,2.035,0,0,0,2.088,1.974,1.69,1.69,0,0,0,1.9-1.712A2.908,2.908,0,0,0,8.9,20.35l-2.837-5.9a1.739,1.739,0,0,1-.129-.778,1.038,1.038,0,0,1,2.074.018c0,.649-.335.937-.681.937-.426,0-.6-.176-.6-.476,0-.209.1-.3.247-.3.364,0,.264.491.264.491a.341.341,0,0,0,.247-.458.632.632,0,0,0,.35-.209.683.683,0,0,0-.355-.194.33.33,0,0,0-.273-.479.505.505,0,0,1,.035.3.745.745,0,0,0-.984.737,1.058,1.058,0,0,0,1.331,1.09.612.612,0,0,0-.332.526,1.258,1.258,0,0,1,.332-.068,1.1,1.1,0,0,0-.238.684c.162-.073.311-.209.517-.123A1.261,1.261,0,0,0,8.96,17.88a2.112,2.112,0,0,1-.552-1.372c0-1.51.423-1.765.423-2.814a1.557,1.557,0,0,0-.673-1.237v.018a.914.914,0,0,0,.593-.426,4.086,4.086,0,0,0-2.191.023,1.607,1.607,0,0,0-1.154.77,2.342,2.342,0,0,0,0,1.859c.4.84,2.3,4.858,2.887,6.121a2.041,2.041,0,0,1,.2.858,1.071,1.071,0,0,1-1.11,1.046.946.946,0,0,1-.975-.825c0-.291.159-.467.385-.467.546,0,.511.461.4.755a.686.686,0,0,0,.482-.711.859.859,0,0,0,.543-.308.674.674,0,0,0-.543-.3c.109-.444-.188-.634-.482-.74.091.326.153.7-.4.7a1.015,1.015,0,0,0-.908.332c-.012-.35-.047-1.739-.047-1.739-.021-.52.7-.505,1.154-.35a1.076,1.076,0,0,0-1.345-.837.645.645,0,0,0,.411-.632,1.657,1.657,0,0,0-.655-1.19Z" transform="translate(3.624 -0.938)" fill="#ffcc4d"/>
</svg>
