<svg id="KEN" xmlns="http://www.w3.org/2000/svg" width="93.996" height="67.886" viewBox="0 0 93.996 67.886">
  <path id="Path_40127" data-name="Path 40127" d="M93.995,61.885A10.445,10.445,0,0,1,83.55,72.33H10.444A10.445,10.445,0,0,1,0,61.885v-47A10.445,10.445,0,0,1,10.444,4.444H83.55A10.445,10.445,0,0,1,93.995,14.889Z" transform="translate(0.001 -4.444)" fill="#060"/>
  <path id="Path_40128" data-name="Path 40128" d="M0,11.556H93.993V37.665H0Z" transform="translate(0.003 9.334)" fill="#bb1600"/>
  <path id="Path_40129" data-name="Path 40129" d="M83.55,4.444H10.444A10.445,10.445,0,0,0,0,14.889V25.334H93.992V14.889A10.445,10.445,0,0,0,83.547,4.444Z" transform="translate(0.001 -4.444)" fill="#141414"/>
  <path id="Path_40130" data-name="Path 40130" d="M0,11.556H93.993v2.611H0Zm0,23.5H93.993v2.611H0Z" transform="translate(0.003 9.334)" fill="#eee"/>
  <path id="Path_40131" data-name="Path 40131" d="M37.09,8.37c-.173-.1-.485.232-2.074,1.994-.564.626-1.269,1.407-2.05,2.244-1.586,1.7-3.249,3.816-2.044,5.052L11.953,49.542a.208.208,0,0,0,.009.226,1.119,1.119,0,0,0,.767.461h.009a.221.221,0,0,0,.206-.1L31.918,18.233c1.633.388,2.673-2.047,3.407-4.218.364-1.09.717-2.08,1-2.873.787-2.235.928-2.682.767-2.779Z" transform="translate(23.103 3.129)" fill="#141414"/>
  <path id="Path_40132" data-name="Path 40132" d="M35.032,10.36c-.564.626-1.269,1.407-2.053,2.247-2.315,2.485-2.934,3.989-2.009,4.876l.047.041L11.983,49.514c-.012.021,0,.056.012.07a.988.988,0,0,0,.632.379h.006a.083.083,0,0,0,.073-.026L31.742,17.944l.059.015c1.2.341,2.209-.928,3.275-4.1.364-1.09.717-2.08,1-2.876a19.023,19.023,0,0,0,.819-2.57,20.379,20.379,0,0,0-1.859,1.947Z" transform="translate(23.209 3.239)" fill="#fff"/>
  <path id="Path_40133" data-name="Path 40133" d="M17.714,17.662c1.2-1.237-.455-3.348-2.044-5.052-.781-.84-1.486-1.618-2.05-2.244-1.586-1.759-1.9-2.1-2.074-1.994s-.021.543.764,2.776c.279.793.629,1.783,1,2.873.731,2.174,1.771,4.606,3.407,4.218L35.688,50.13a.221.221,0,0,0,.206.1H35.9a1.14,1.14,0,0,0,.767-.461.221.221,0,0,0,.009-.226L17.711,17.667Z" transform="translate(22.256 3.131)" fill="#141414"/>
  <path id="Path_40134" data-name="Path 40134" d="M17.465,17.48c.928-.887.308-2.391-2.009-4.876-.784-.84-1.486-1.621-2.053-2.247a19.23,19.23,0,0,0-1.865-1.944,19.3,19.3,0,0,0,.82,2.57c.279.8.632,1.786,1,2.876,1.069,3.178,2.08,4.444,3.275,4.1l.059-.015.032.053,19,31.943c.012.023.05.026.073.026H35.8a.976.976,0,0,0,.632-.379c.012-.018.023-.053.012-.07L17.413,17.53l.053-.044Z" transform="translate(22.355 3.245)" fill="#fff"/>
  <path id="Path_40135" data-name="Path 40135" d="M22.456,9.319l-.047-.035-.047.035c-6.506,4.882-9.67,11.309-9.67,19.642s3.161,14.76,9.67,19.644l.047.035.047-.035c6.506-4.882,9.67-11.309,9.67-19.644S28.962,14.2,22.456,9.319Z" transform="translate(24.591 4.932)" fill="#141414"/>
  <path id="Path_40136" data-name="Path 40136" d="M28.472,18.594A23.251,23.251,0,0,0,20.953,9.35a23.306,23.306,0,0,0-7.511,9.223,24.8,24.8,0,0,1,2.041,10.28A24.815,24.815,0,0,1,13.451,39.11a23.358,23.358,0,0,0,7.5,9.208,23.261,23.261,0,0,0,7.508-9.226,24.831,24.831,0,0,1-2.027-10.236A24.956,24.956,0,0,1,28.472,18.6Z" transform="translate(26.044 5.06)" fill="#bb1600"/>
  <path id="Path_40137" data-name="Path 40137" d="M17.682,30.844c.8,0,1.448-1.107,1.448-2.47S18.48,25.9,17.682,25.9s-1.445,1.107-1.445,2.473S16.883,30.844,17.682,30.844Zm-.6-6.521a12.827,12.827,0,0,1-1.947-7.367,12.837,12.837,0,0,1,1.947-7.37V24.323Zm1.2,0a12.848,12.848,0,0,0,1.942-7.367,12.858,12.858,0,0,0-1.942-7.37V24.323Zm-1.2,8.1a12.82,12.82,0,0,0-1.947,7.367,12.814,12.814,0,0,0,1.947,7.367Zm1.2,0a12.842,12.842,0,0,1,1.942,7.367,12.835,12.835,0,0,1-1.942,7.367Z" transform="translate(29.318 5.519)" fill="#fff"/>
</svg>
