<svg id="KGZ" xmlns="http://www.w3.org/2000/svg" width="93.996" height="67.886" viewBox="0 0 93.996 67.886">
  <path id="Path_40138" data-name="Path 40138" d="M93.995,61.885A10.445,10.445,0,0,1,83.55,72.33H10.444A10.445,10.445,0,0,1,0,61.885v-47A10.445,10.445,0,0,1,10.444,4.444H83.55A10.445,10.445,0,0,1,93.995,14.889Z" transform="translate(0.001 -4.444)" fill="#e8112d"/>
  <path id="Path_40139" data-name="Path 40139" d="M33.216,16.282c.035-2.729,2.456-4.606,2.555-8.239,1.73,2.177-1.131,6.259-.115,8.627.464-2.688,3.14-4.165,3.816-7.737,1.372,2.423-2.1,6-1.466,8.5.878-2.585,3.754-3.622,4.976-7.047.975,2.608-3.008,5.6-2.773,8.166,1.269-2.412,4.274-2.987,6.018-6.18.555,2.729-3.851,5.064-4.018,7.634,1.633-2.185,4.691-2.285,6.911-5.164.123,2.785-4.594,4.4-5.161,6.911,1.953-1.9,4.987-1.522,7.628-4.021-.311,2.767-5.222,3.628-6.18,6.021,2.229-1.574,5.17-.723,8.169-2.776-.74,2.685-5.725,2.764-7.041,4.979,2.444-1.207,5.211.094,8.5-1.466-1.151,2.532-6.095,1.833-7.743,3.816,2.605-.811,5.14.911,8.63-.115-1.539,2.323-6.3.858-8.239,2.555,2.7-.391,4.932,1.7,8.536,1.234-1.877,2.056-6.356-.138-8.536,1.234,2.729.035,4.606,2.456,8.236,2.552-2.177,1.739-6.256-1.134-8.624-.112,2.691.464,4.168,3.14,7.743,3.816-2.423,1.372-6.007-2.1-8.506-1.466,2.585.878,3.628,3.754,7.047,4.976-2.605.978-5.6-3.008-8.169-2.773,2.417,1.269,3,4.274,6.18,6.018-2.729.555-5.061-3.851-7.634-4.018,2.188,1.633,2.285,4.691,5.167,6.911-2.782.123-4.4-4.594-6.911-5.161,1.9,1.953,1.519,4.987,4.018,7.628-2.77-.311-3.628-5.222-6.018-6.18,1.571,2.229.717,5.17,2.773,8.169-2.688-.74-2.764-5.725-4.976-7.041,1.21,2.444-.1,5.211,1.466,8.5-2.535-1.151-1.836-6.095-3.816-7.743.808,2.605-.908,5.14.115,8.63-2.323-1.539-.858-6.3-2.555-8.239.391,2.7-1.7,4.932-1.234,8.536-2.056-1.877.138-6.356-1.234-8.536C30.717,50.413,28.3,52.29,28.2,55.92c-1.736-2.174,1.131-6.256.112-8.624-.461,2.691-3.14,4.168-3.813,7.743-1.372-2.423,2.1-6.007,1.463-8.5-.878,2.579-3.754,3.622-4.976,7.041-.975-2.605,3.011-5.6,2.776-8.169-1.272,2.417-4.277,3-6.018,6.18-.555-2.729,3.851-5.061,4.018-7.628-1.633,2.182-4.688,2.279-6.908,5.161-.126-2.782,4.594-4.4,5.161-6.911-1.953,1.9-4.99,1.519-7.631,4.018.314-2.77,5.228-3.628,6.18-6.018-2.226,1.571-5.167.717-8.166,2.773.74-2.688,5.728-2.764,7.044-4.976-2.447,1.21-5.214-.091-8.5,1.466,1.154-2.535,6.092-1.836,7.74-3.816-2.605.808-5.134-.908-8.627.112,1.536-2.318,6.3-.858,8.236-2.552-2.7.391-4.929-1.7-8.536-1.234,1.88-2.053,6.356.138,8.536-1.234-2.726-.035-4.6-2.456-8.236-2.555,2.177-1.736,6.259,1.131,8.627.112-2.691-.461-4.165-3.14-7.737-3.813,2.423-1.375,6,2.1,8.5,1.463-2.585-.878-3.622-3.754-7.047-4.976,2.608-.975,5.6,3.011,8.166,2.776-2.414-1.272-2.987-4.277-6.18-6.018,2.729-.555,5.064,3.851,7.634,4.018-2.185-1.633-2.285-4.688-5.164-6.908,2.782-.123,4.4,4.594,6.911,5.161-1.9-1.953-1.522-4.99-4.021-7.631,2.764.314,3.628,5.228,6.021,6.18-1.577-2.226-.723-5.164-2.776-8.166,2.685.74,2.764,5.728,4.979,7.044-1.207-2.447.094-5.214-1.466-8.5,2.532,1.151,1.833,6.089,3.816,7.737-.811-2.605.911-5.134-.115-8.627,2.323,1.536.858,6.3,2.555,8.236-.394-2.7,1.7-4.929,1.234-8.536,2.053,1.877-.141,6.356,1.234,8.536Z" transform="translate(15.017 1.959)" fill="#ffcc4d"/>
  <path id="Path_40140" data-name="Path 40140" d="M24.448,37.256A12.808,12.808,0,1,0,11.641,24.447,12.809,12.809,0,0,0,24.448,37.256Z" transform="translate(22.555 9.497)" fill="#e8112d"/>
  <path id="Path_40141" data-name="Path 40141" d="M23.366,11.956a11.134,11.134,0,0,1,8.251,3.636,23.735,23.735,0,0,0-8.251,2.232,23.737,23.737,0,0,0-8.248-2.232A11.132,11.132,0,0,1,23.366,11.956Zm-.843,6.324c-.258.144-.508.294-.758.446a18.736,18.736,0,0,0-7.537-2.03c.135-.191.276-.379.426-.558A21.049,21.049,0,0,1,22.523,18.28Zm1.695,0c.258.144.508.294.755.446a18.749,18.749,0,0,1,7.537-2.03c-.132-.191-.276-.379-.423-.558A21.034,21.034,0,0,0,24.217,18.28ZM13.855,17.272c-.117.191-.229.388-.338.587a14.892,14.892,0,0,1,6.97,1.751c.2-.153.4-.294.605-.435a16.633,16.633,0,0,0-7.24-1.9ZM13.514,28.39A9.741,9.741,0,0,1,12.2,23.126a11.11,11.11,0,0,1,1.013-4.664,13.462,13.462,0,0,1,6.723,1.577,21.6,21.6,0,0,0-6.421,8.354Zm5.3,4.929a14.945,14.945,0,0,1-1.513-1,16.777,16.777,0,0,1,4.964-10.551c.2.2.4.4.587.608a16.129,16.129,0,0,0-4.039,10.941Zm14.07-16.046c.117.191.229.388.338.587a14.874,14.874,0,0,0-6.97,1.751c-.2-.153-.4-.294-.608-.435a16.635,16.635,0,0,1,7.243-1.9Z" transform="translate(23.634 10.109)" fill="#ffcc4d"/>
  <path id="Path_40142" data-name="Path 40142" d="M31.561,24.1a9.777,9.777,0,0,0,1.316-5.267,11.111,11.111,0,0,0-1.016-4.664,13.462,13.462,0,0,0-6.723,1.577A21.515,21.515,0,0,1,31.561,24.1Zm-9.855-5.061c2,3.222,2.385,6.747,2.276,10.727A7.967,7.967,0,0,1,21.706,30a7.967,7.967,0,0,1-2.276-.235C19.321,25.991,19.7,22.384,21.706,19.041Zm4.541,9.987a13.687,13.687,0,0,0,1.524-.834A17.187,17.187,0,0,0,22.8,17.482c-.2.2-.4.4-.585.608A16.083,16.083,0,0,1,26.247,29.028ZM19.938,16.882c-.238-.2-.505-.4-.764-.579a19.669,19.669,0,0,0-6.118,9.388c.435.5.429.866.946,1.281.731-4.159,3.1-7.343,5.936-10.087Zm3.539,0c.238-.2.505-.4.764-.579a19.84,19.84,0,0,1,6.112,9.44,7.249,7.249,0,0,1-1.022,1.228C28.6,22.81,26.315,19.629,23.477,16.882Zm-1.771-2.42c.141.082.623.388.746.467-.191.117-.626.411-.746.493-.118-.082-.555-.379-.746-.493C21.084,14.847,21.565,14.541,21.706,14.462Zm-1.413.934c-.191.144-.482.364-.59.458.273.179.643.458.761.552.144-.123.426-.373.585-.488C20.854,15.775,20.443,15.478,20.293,15.4Zm2.826,0c.191.144.482.364.59.458-.273.179-.643.458-.761.552-.141-.123-.426-.373-.585-.488C22.561,15.775,22.972,15.478,23.119,15.4Zm-1.413,1.04c.123.106.485.426.582.523-.173.153-.438.405-.582.564-.141-.159-.408-.411-.579-.564C21.222,16.862,21.586,16.545,21.706,16.436Z" transform="translate(25.296 14.4)" fill="#ffcc4d"/>
</svg>
