<svg id="KHM" xmlns="http://www.w3.org/2000/svg" width="93.996" height="67.886" viewBox="0 0 93.996 67.886">
  <path id="Path_40143" data-name="Path 40143" d="M93.995,61.885A10.445,10.445,0,0,1,83.55,72.33H10.444A10.445,10.445,0,0,1,0,61.885v-47A10.445,10.445,0,0,1,10.444,4.444H83.55A10.445,10.445,0,0,1,93.995,14.889Z" transform="translate(0.001 -4.444)" fill="#032ea1"/>
  <path id="Path_40144" data-name="Path 40144" d="M0,9.4H93.993V48.181H0Z" transform="translate(0.003 5.151)" fill="#e01e24"/>
  <path id="Path_40145" data-name="Path 40145" d="M56.019,39.929V37.573H54.6V35.221h-1.3V33.69h-.59V32.513H51.575l-.623-.89V27.449l.708-.708V22.855l-.59.529V22.147H50.6v.59H49.66V20.849l-1.119,1,.355-1.266-.649-2.914h-.355s-.291-1.237-.881-1.237c0,0,.235-.764-.238-.764s-.355.587-.355.587a1.417,1.417,0,0,0-.822,1.234l-.47-.059-.708,3.413.5,1-1.148-1v2.594H37.529V21.084l-.355.352v.825h-.822v-.825l.59-.529V19.791l-.476.5-.708-.972v-.825l-.411.411-.12-.7.59-.94-.088-.764-.673.822v-.7l.294-.646L34,12.548l-.323-.946-.5-.059V11.07s-.355-.822-.825-.822-.822.822-.822.822v.473l-.5.059-.326.946-1.351,3.419.294.646v.7l-.676-.822-.091.764.59.94-.115.7-.411-.411v.825l-.7.972-.473-.5v1.116l.59.529v.825H27.53v-.825l-.355-.352v2.356H20.924V20.846l-1.148,1,.5-1-.708-3.413-.473.059a1.412,1.412,0,0,0-.822-1.234s.117-.587-.355-.587-.235.764-.235.764c-.59,0-.881,1.237-.881,1.237h-.352L15.8,20.584l.352,1.266-1.116-1v1.886H14.1v-.59h-.473v1.237l-.587-.529v3.886l.7.708V31.62l-.623.89h-.908v1.178h-.82v1.53H10.209v2.353H8.917v2.356h-1.3L7.5,42.514H57.2l.118-2.588h-1.3Z" transform="translate(14.534 6.8)" fill="#fff"/>
  <path id="Path_40146" data-name="Path 40146" d="M12.042,15.9v4.529H9.918l-.505.987h2.629v10.2h.893V15.9Zm35.849,5.516-.464-.987H45.506V15.9h-.881V31.619h.881v-10.2ZM26.423,15.9v4.529h-9.64V15.875h-.861V31.592h.861V21.418h9.64v10.2h.922V15.9Zm14.117,0v4.529h-9.4V15.9h-.911V31.619h.911v-10.2h9.4v10.2h1.116V15.9Z" transform="translate(18.239 17.701)" fill="#db7f86"/>
</svg>
