<svg id="KIR" xmlns="http://www.w3.org/2000/svg" width="93.999" height="67.886" viewBox="0 0 93.999 67.886">
  <path id="Path_40147" data-name="Path 40147" d="M93.995,61.885A10.445,10.445,0,0,1,83.55,72.33H10.444A10.445,10.445,0,0,1,0,61.885v-47A10.445,10.445,0,0,1,10.444,4.444H83.55A10.445,10.445,0,0,1,93.995,14.889Z" transform="translate(0.001 -4.444)" fill="#eee"/>
  <path id="Path_40148" data-name="Path 40148" d="M83.55,4.444H10.444A10.445,10.445,0,0,0,0,14.889v23.5H93.8l.194-23.5A10.445,10.445,0,0,0,83.547,4.444Z" transform="translate(0.001 -4.444)" fill="#ce1126"/>
  <path id="Path_40149" data-name="Path 40149" d="M31.476,24.7c.723-.984,1.73-.978,2.934-.352-.167-1.595-2.071-2.6-2.928-2.738A2.4,2.4,0,0,1,34.3,20.027c-.693-1.445-2.993-1.492-3.851-1.316a2.445,2.445,0,0,1,2.109-2.476c-1.134-1.116-3.307-.358-4.059.1a2.475,2.475,0,0,1,1.154-3.058c-1.442-.655-3.234.811-3.783,1.5a2.475,2.475,0,0,1,.056-3.272c-1.577-.117-2.764,1.892-3.046,2.732a2.467,2.467,0,0,1-1.06-3.087c-1.516.441-1.956,2.738-1.936,3.625a2.443,2.443,0,0,1-2.036-2.535c-1.275.943-.916,3.254-.6,4.077a2.406,2.406,0,0,1-2.767-1.674c-.881,1.328.235,3.375.811,4.039a2.387,2.387,0,0,1-3.163-.614c-.382,1.557,1.357,3.093,2.127,3.516-.723.984-1.16,1.707-2.362,1.09.164,1.595,1.5,1.868,2.362,2l17.224.026Z" transform="translate(23.037 8.553)" fill="#ffac33"/>
  <path id="Path_40150" data-name="Path 40150" d="M29.673,23.414l5.916-2.15-6.277.032,4.829-4.08-5.892,2.215,3.166-5.513-4.794,4.127,1.119-6.283L24.626,17.3l-1.063-6.289L22.5,17.3l-3.114-5.543,1.119,6.283-4.791-4.127,3.163,5.513-5.892-2.215,4.832,4.08-6.286-.032,5.922,2.15Z" transform="translate(22.344 8.288)" fill="#fff100"/>
  <path id="Path_40151" data-name="Path 40151" d="M19.657,25.539a6.207,6.207,0,1,0-6.107-6.206A6.157,6.157,0,0,0,19.657,25.539Z" transform="translate(26.253 12.375)" fill="#fff100"/>
  <path id="Path_40152" data-name="Path 40152" d="M19.709,25.669a6.285,6.285,0,1,1,6.186-6.286A6.242,6.242,0,0,1,19.709,25.669Zm0-12.413a6.128,6.128,0,1,0,6.027,6.127A6.087,6.087,0,0,0,19.709,13.256Z" transform="translate(26.201 12.325)" fill="#f15a29"/>
  <path id="Path_40153" data-name="Path 40153" d="M22.45,9.8A5.179,5.179,0,0,0,20.617,8.11a5.488,5.488,0,0,0-3.46-.164c-1.586.411-3.475,1.052-4.964.62-.285-.082-.488.209.082.538a6.87,6.87,0,0,0,3.457.226,7.8,7.8,0,0,1,2.89.123,5.384,5.384,0,0,1,2.259,1.962L22.45,9.8Zm3.216,3.6a4.862,4.862,0,0,1,1.848-.191,3.2,3.2,0,0,0,1.513-.285c.438-.2-.029-.529-1.73-.435-1.119.059-1.554.552-1.63.908Z" transform="translate(23.08 1.956)" fill="#ffac33"/>
  <path id="Path_40154" data-name="Path 40154" d="M29.822,7.564c-3.522-.164-4.418.558-6.124.7A4.475,4.475,0,0,0,20.361,9.8a12.888,12.888,0,0,1-1.812,1.842.962.962,0,0,0-.115.1,2.486,2.486,0,0,1-1.492-.6,1.237,1.237,0,0,0-1.83-.053.669.669,0,0,1-.561.27c-.579,0-1.5.012-1.516.981.305-.385.52-.446,1.507-.446a.564.564,0,0,1,.488.332,1.516,1.516,0,0,0,1.222.693c.5.012.708.347,1.037.7a4.89,4.89,0,0,0,5.087.952c1.031-.394,2-1.739,3.748-1.695,1.668.041,2.541-.5,1.1-.869A7.506,7.506,0,0,0,23.7,11.97a2.585,2.585,0,0,1-1.054-.068.349.349,0,0,0,.279-.253.6.6,0,0,0,.723-.332.6.6,0,0,0,.723-.288.638.638,0,0,0,.831-.27.48.48,0,0,0,.67-.32.405.405,0,0,0,.652-.206.365.365,0,0,0,.611-.291c.129.062.4,0,.426-.206.529.021,1.2,0,1.2-.391.449.021,1.078-.182,1.066-.67a.948.948,0,0,0,.808-.611c.088-.291-.238-.476-.808-.5Z" transform="translate(25.255 1.553)" fill="#fcd116"/>
  <path id="Path_40155" data-name="Path 40155" d="M13.333,16H26.386v5.222H13.333Z" transform="translate(25.833 17.943)" fill="#eee"/>
  <path id="Path_40156" data-name="Path 40156" d="M93.8,40.47a7.908,7.908,0,0,1-4.077.817c-4.744,0-4.744-2.57-9.493-2.57s-4.747,2.611-9.643,2.611c-4.6,0-4.6-2.611-9.42-2.611-4.67,0-4.67,2.611-9.417,2.611s-4.747-2.611-9.5-2.611-4.747,2.611-9.493,2.611-4.747-2.611-9.493-2.611-4.747,2.611-9.493,2.611-4.747-2.611-9.5-2.611a8.119,8.119,0,0,0-4.153,1A10.4,10.4,0,0,0,10.443,49H83.549A10.434,10.434,0,0,0,93.8,40.467Zm.194-6.136V29.258a7.92,7.92,0,0,1-4.274.975c-4.744,0-4.744-2.629-9.493-2.629s-4.747,2.611-9.643,2.611c-4.6,0-4.6-2.611-9.42-2.611-4.67,0-4.67,2.611-9.417,2.611S47,27.6,42.248,27.6s-4.747,2.611-9.493,2.611S28.008,27.6,23.261,27.6s-4.747,2.611-9.493,2.611S9.021,27.6,4.272,27.6A8.193,8.193,0,0,0,0,28.659v5.222a8.2,8.2,0,0,1,4.271-1.054c4.747,0,4.747,2.611,9.5,2.611s4.747-2.611,9.493-2.611,4.747,2.611,9.493,2.611,4.747-2.611,9.493-2.611,4.747,2.611,9.5,2.611,4.747-2.611,9.476-2.611c4.764,0,4.764,2.611,9.505,2.611,4.758,0,4.758-2.611,9.5-2.611,6.209,0,6.065,2.588,9.5,2.588a8.346,8.346,0,0,0,4.268-1.081Zm0-11.115V18.144a7.942,7.942,0,0,1-4.274.952c-4.744,0-4.744-2.608-9.493-2.608S75.477,19.1,70.581,19.1c-4.6,0-4.6-2.611-9.42-2.611-4.67,0-4.67,2.611-9.417,2.611s-4.747-2.611-9.5-2.611S37.5,19.1,32.755,19.1s-4.747-2.611-9.493-2.611S18.515,19.1,13.768,19.1s-4.747-2.611-9.5-2.611A8.221,8.221,0,0,0,0,17.541v5.222a8.2,8.2,0,0,1,4.271-1.054c4.747,0,4.747,2.611,9.5,2.611s4.747-2.611,9.493-2.611,4.747,2.611,9.493,2.611,4.747-2.611,9.493-2.611,4.747,2.611,9.5,2.611,4.747-2.611,9.476-2.611c4.764,0,4.764,2.611,9.505,2.611,4.758,0,4.758-2.611,9.5-2.611s4.753,2.529,9.5,2.529a8.375,8.375,0,0,0,4.268-1.022Z" transform="translate(0.005 18.887)" fill="#00247d"/>
  <path id="Path_40157" data-name="Path 40157" d="M93.991,21.5V16.332a7.8,7.8,0,0,1-4.274,1.122c-4.744,0-4.744-2.776-9.493-2.776s-4.747,2.611-9.643,2.611c-4.6,0-4.6-2.611-9.42-2.611-4.67,0-4.67,2.611-9.417,2.611s-4.747-2.611-9.5-2.611-4.747,2.611-9.493,2.611-4.747-2.611-9.493-2.611-4.747,2.611-9.493,2.611-4.747-2.611-9.5-2.611A8.193,8.193,0,0,0,0,15.732v5.222A8.229,8.229,0,0,1,4.272,19.9c4.747,0,4.747,2.611,9.5,2.611S18.515,19.9,23.261,19.9s4.747,2.611,9.493,2.611S37.5,19.9,42.248,19.9s4.747,2.611,9.5,2.611S56.491,19.9,61.22,19.9c4.764,0,4.764,2.611,9.505,2.611,4.758,0,4.758-2.611,9.5-2.611s4.753,2.576,9.5,2.576a8.453,8.453,0,0,0,4.268-.978Z" transform="translate(0.005 15.382)" fill="#eee"/>
</svg>
