<svg id="KNA" xmlns="http://www.w3.org/2000/svg" width="93.996" height="67.886" viewBox="0 0 93.996 67.886">
  <path id="Path_40165" data-name="Path 40165" d="M10.445,4.444A10.445,10.445,0,0,0,0,14.889V54.895L69.179,4.444H10.445Z" transform="translate(0 -4.444)" fill="#009e49"/>
  <path id="Path_40166" data-name="Path 40166" d="M68.451,61.677A10.445,10.445,0,0,0,78.9,51.232V9.943L7.793,61.674H68.454Z" transform="translate(15.097 6.209)" fill="#ce1126"/>
  <path id="Path_40167" data-name="Path 40167" d="M69.179,4.444,0,54.895v4.893L75.888,4.444ZM22.89,72.33,93.993,20.6V15.706L16.179,72.33Z" transform="translate(0 -4.444)" fill="#fcd116"/>
  <path id="Path_40168" data-name="Path 40168" d="M83.548,4.444h-7.66L0,59.788v2.1A10.445,10.445,0,0,0,10.445,72.33h5.737L94,15.706v-.814A10.445,10.445,0,0,0,83.551,4.447Z" transform="translate(0 -4.444)" fill="#141414"/>
  <path id="Path_40169" data-name="Path 40169" d="M57.538,8.648,52.121,12.6l-5.428-3.93,2.083,6.368-5.416,3.951,6.7-.012,2.08,6.371,2.059-6.38,6.7-.012-5.431-3.93ZM21.071,35.242l-5.416,3.951-5.428-3.93,2.083,6.368L6.893,45.581l6.7-.012,2.08,6.371,2.059-6.38,6.7-.012-5.431-3.93Z" transform="translate(13.354 3.7)" fill="#fff"/>
</svg>
