<svg id="KOR" xmlns="http://www.w3.org/2000/svg" width="93.996" height="67.886" viewBox="0 0 93.996 67.886">
  <path id="Path_40174" data-name="Path 40174" d="M93.995,61.885A10.445,10.445,0,0,1,83.55,72.33H10.444A10.445,10.445,0,0,1,0,61.885v-47A10.445,10.445,0,0,1,10.444,4.444H83.55A10.445,10.445,0,0,1,93.995,14.889Z" transform="translate(0.001 -4.444)" fill="#eee"/>
  <path id="Path_40175" data-name="Path 40175" d="M34.383,13.5a15.67,15.67,0,0,0-21.818,3.848A7.833,7.833,0,1,0,25.4,26.332,7.834,7.834,0,0,1,38.231,35.32,15.665,15.665,0,0,0,34.383,13.5Z" transform="translate(21.601 7.611)" fill="#c60c30"/>
  <path id="Path_40176" data-name="Path 40176" d="M37.243,20.007a7.836,7.836,0,0,0-10.909,1.921A7.834,7.834,0,1,1,13.5,12.94,15.665,15.665,0,1,0,39.164,30.91,7.827,7.827,0,0,0,37.243,20.007Z" transform="translate(20.666 12.015)" fill="#003478"/>
  <path id="Path_40177" data-name="Path 40177" d="M57.791,54.353l5.034-6,2,1.68-5.034,6Zm6.712-8,5.034-6,2,1.68-5.035,6ZM61.792,57.716l5.034-6,2,1.68-5.034,6Zm6.715-8.007,5.04-6,2,1.68-5.04,5.995ZM65.789,61.074l5.04-6,2,1.68-5.037,6Zm6.712-8,5.032-6,2,1.68-5.032,6ZM72.513,16.1l2-1.68,5.04,6-2,1.68ZM65.8,8.088l2-1.68,5.034,6-2,1.677Zm-4,3.363,2-1.68,11.749,14-2,1.68Zm-4,3.354,2-1.68,5.032,6-2,1.677Zm6.712,8,2-1.68,5.04,6-2,1.68ZM10.968,42.034l2-1.68,11.746,14-2,1.68ZM6.973,45.391l2-1.677,5.037,6L12,51.4Zm6.7,8,2-1.68,5.04,6-2,1.68ZM2.967,48.746l2-1.68,11.749,14-2,1.68Zm0-28.333,11.743-14,2,1.677-11.749,14Zm4,3.36,11.749-14,2,1.68-11.749,14Zm4,3.354,11.749-14,2,1.68-11.749,14Z" transform="translate(5.745 -0.639)" fill="#292f33"/>
</svg>
