<svg id="KWT" xmlns="http://www.w3.org/2000/svg" width="93.999" height="67.886" viewBox="0 0 93.999 67.886">
  <path id="Path_40178" data-name="Path 40178" d="M83.55,4.444H10.444A10.445,10.445,0,0,0,0,14.889V26.638H93.992V14.889A10.445,10.445,0,0,0,83.547,4.444Z" transform="translate(0.001 -4.444)" fill="#007a3d"/>
  <path id="Path_40179" data-name="Path 40179" d="M0,31.749A10.445,10.445,0,0,0,10.445,42.194H83.551A10.445,10.445,0,0,0,94,31.749V20H0V31.749Z" transform="translate(0.003 25.692)" fill="#ce1126"/>
  <path id="Path_40180" data-name="Path 40180" d="M0,12H93.993V35.5H0Z" transform="translate(0.003 10.194)" fill="#eee"/>
  <path id="Path_40181" data-name="Path 40181" d="M3.146,5.456A10.432,10.432,0,0,0,0,12.928v47A10.427,10.427,0,0,0,3.146,67.4L23.5,48.176v-23.5L3.146,5.456Z" transform="translate(0.003 -2.483)" fill="#141414"/>
</svg>
