<svg id="LAO" xmlns="http://www.w3.org/2000/svg" width="93.999" height="67.886" viewBox="0 0 93.999 67.886">
  <path id="Path_40211" data-name="Path 40211" d="M0,61.885A10.445,10.445,0,0,0,10.447,72.33H83.553A10.445,10.445,0,0,0,94,61.885V54.052H0v7.834ZM83.55,4.444H10.444A10.445,10.445,0,0,0,0,14.889v7.834H93.992V14.889A10.445,10.445,0,0,0,83.547,4.444Z" transform="translate(0.001 -4.444)" fill="#ce1126"/>
  <path id="Path_40212" data-name="Path 40212" d="M0,42H93.993V10.666H0ZM47,13.28A13.053,13.053,0,1,1,33.943,26.333,13.055,13.055,0,0,1,47,13.28Z" transform="translate(0.003 7.61)" fill="#002868"/>
  <path id="Path_40213" data-name="Path 40213" d="M37.663,24.609A13.053,13.053,0,1,1,24.609,11.556,13.053,13.053,0,0,1,37.663,24.609Z" transform="translate(22.39 9.334)" fill="#fff"/>
</svg>
