<svg id="LBN" xmlns="http://www.w3.org/2000/svg" width="93.996" height="67.886" viewBox="0 0 93.996 67.886">
  <path id="Path_40214" data-name="Path 40214" d="M93.995,61.885A10.445,10.445,0,0,1,83.55,72.33H10.444A10.445,10.445,0,0,1,0,61.885v-47A10.445,10.445,0,0,1,10.444,4.444H83.55A10.445,10.445,0,0,1,93.995,14.889Z" transform="translate(0.001 -4.444)" fill="#ed1c23"/>
  <path id="Path_40215" data-name="Path 40215" d="M0,11.556H93.993V37.665H0Z" transform="translate(0.003 9.334)" fill="#eee"/>
  <path id="Path_40216" data-name="Path 40216" d="M22.883,12.1c-.479.529-1.607,1.269-1.862,1.774a3.534,3.534,0,0,1-1.516,1.21c-.441.188-.056.491.426.191s.881-.288,1.163-.558.69-.012.294.173a1.906,1.906,0,0,0-.717.726.667.667,0,0,1-.658.347,1.153,1.153,0,0,0-1.034.511c-.282.405-.626.881-.775,1.1s-.035.4.338.126.787-.505.975-.2.176.452-.317.649c-1.057.423-1.363.673-1.554,1.1s-.079.558-.74.77a11.3,11.3,0,0,0-2.432,1.519c-.7.523-.3.552.235.529.82-.041,1.874-.6,2.412-.364a5.092,5.092,0,0,0,.6.987c-.864,1.216-1.007,1.686-1.895,1.707s-1.445.922-1.859,1.375a4.087,4.087,0,0,1-1.2,1.069c-.376.164-.458.3-.167.446s.552-.209.82-.082.446.082.861-.2a3.322,3.322,0,0,1,1.516-.723,2.69,2.69,0,0,0,.84.761,5.3,5.3,0,0,1-2.385,1.806c-.82.285-.943.6-1.527,1.342s-.555.99-1.154,1-.576.15-.258.385.558.123,1.025.223a1.562,1.562,0,0,0,1.68-.458c.608-.661,2.1-1.809,3.363-1.7.6.056,1.025.176.308.858a5.609,5.609,0,0,1-2.458,1.342c-1.372.276-1.962.822-2.362.808s-.773.261-.164.623a1.239,1.239,0,0,0,1.492.147,23.8,23.8,0,0,1,2.244-.934c.441-.123.77-.308,1.084-.223a1.042,1.042,0,0,0,.9-.244c.35-.229.861-.261,1.3-.67.505-.479,1.046-.068,1.381.211s1.007,1.4.405,2.171a21.457,21.457,0,0,0-1.492,1.986.827.827,0,0,1-.587.523,8.048,8.048,0,0,0-1.889,1.022c-.241.209-.15.27.185.329s.379-.009.681-.258a1.928,1.928,0,0,1,1.43-.611,1.454,1.454,0,0,0,1.075-.579,2.083,2.083,0,0,1,1.475-.611.685.685,0,0,0,.708-.173c.217-.159.394-.229.734.053a.746.746,0,0,0,.978.023c.352-.209.731-.129.825.094a1.126,1.126,0,0,0,.458.634c.317.214,1.442.881,1.8,1.072s.6-.17.323-.408-.411-.435-.367-.637.247-.282.858-.2A9.526,9.526,0,0,1,31.53,37.11a2.834,2.834,0,0,0,1.348.549c.4-.009.529-.1.17-.429s-.808-.291-.972-.623c-.279-.573-.764-.159-1.016-.734a.632.632,0,0,0-.74-.432,1.31,1.31,0,0,1-1.013-.69,4.727,4.727,0,0,1-.955-3.936c.332-1.034,1.3-1.339,1.868-.9a2.9,2.9,0,0,0,1.524.676,1.333,1.333,0,0,1,.911.179,2.074,2.074,0,0,0,1.824.026c.79-.329,1.069-.071,1.574-.056a2.156,2.156,0,0,1,1.281.37,3.284,3.284,0,0,0,1.633.587c.778.117,1.307-.1.679-.458a4.8,4.8,0,0,1-1.4-.9.97.97,0,0,0-.9-.382,2.094,2.094,0,0,1-1.325-.679,1.282,1.282,0,0,0-1.166-.488,1.087,1.087,0,0,1-1-.355,10.882,10.882,0,0,1,1.034-1.4,1.3,1.3,0,0,1,1,.311,1.265,1.265,0,0,0,.919.179,1.729,1.729,0,0,1,.872.27.989.989,0,0,0,.911,0c.326-.138.256-.317-.147-.552a2.042,2.042,0,0,1-.772-.608c-.132-.217-.25-.326-.74-.317s-.72-.226-1.1-.643c-.866-.934-1.442-.99-2-.913s-1.1.179-1.563-.476c.57-.279,1.034.364,1.774-.194a1.048,1.048,0,0,1,1.151-.2,1.725,1.725,0,0,0,1.219-.006,1.315,1.315,0,0,1,.6-.323c.238-.029.209-.35-.147-.308-.687.082-.808-.341-1.469-.211a1.405,1.405,0,0,1-1.336-.282,2.233,2.233,0,0,0-2.053-.355c.059-.4.023-.822.646-.949a2.181,2.181,0,0,0,1.289.217c.379-.006,1.668-.015,2.044.044s.464-.123-.1-.42a4.736,4.736,0,0,0-1.651-.432c-.291-.018-.432-.211-.617-.587a1.7,1.7,0,0,0-1.569-.676,2.239,2.239,0,0,1-1.5-.611,2.04,2.04,0,0,0-1.057-.6c-.4-.056-.764-.341-.593-.676a.983.983,0,0,1,1.307-.185c.47.3.764.317,1.046.153a.878.878,0,0,1,.89-.085c.423.147.849.135.191-.361-.949-.714-1.877-.426-2.2-.817a.556.556,0,0,0-.8-.138c-.223.094-.62-.126-.144-.376a1.139,1.139,0,0,1,1.022-.132,1.115,1.115,0,0,0,.928-.021c.247-.117.482-.341-.253-.482a5.958,5.958,0,0,1-2.291-.975A1.456,1.456,0,0,0,27.33,13.9a1.529,1.529,0,0,1-1.339-.282,6.5,6.5,0,0,1-2.1-1.642c-.585-.8-.64-.291-1.01.115Z" transform="translate(21.487 9.325)" fill="green"/>
  <path id="Path_40217" data-name="Path 40217" d="M17.149,13.613c-.432-.053-.781.15-.555.444s.338.109.617-.029.54-.347-.059-.414Zm1.19.94a1.519,1.519,0,0,0-.9.819c-.123.4-.109.758.264.661.564-.147.6-.811,1.013-.887-.135-.2-.176-.464-.379-.593Zm.69-.35a1.173,1.173,0,0,0,.226.561,11.1,11.1,0,0,1,1.636-.6.878.878,0,0,0-.112-.549A3.927,3.927,0,0,0,19.028,14.2Zm3.111,1.571a9.622,9.622,0,0,0,.159,1.11,4.772,4.772,0,0,0,.74.25,2.266,2.266,0,0,0,.179-.981c-.408-.258-.77-.538-1.078-.379Zm-.79.352c.026.2.035.488.059.667a4.479,4.479,0,0,0-1.04.267.326.326,0,0,1-.126-.64,3.689,3.689,0,0,1,1.1-.294Zm-7.111,2c.526-.279.8-.106,1.281-.25a5.431,5.431,0,0,1,.681.74c-.279.473-1.131.159-1.416.364a2.8,2.8,0,0,1-.549-.855Zm2.144-.538a3.29,3.29,0,0,0,.391.658c.4.035.552-.188.723-.458s.164-.6-.279-.573S16.529,17.344,16.382,17.587Zm-3.466,5.12c.117.285.452.388.546.611a.982.982,0,0,1,.864-.153,2.428,2.428,0,0,0,1.63-.726c.479-.5.167-.446-.388-.367a4.184,4.184,0,0,1-1.351.1,1.4,1.4,0,0,0-1.3.538Zm4.905-2.326c-.264.162-.394.273-.188.514s.314.129.555-.012.35-.341.211-.517-.317-.144-.579.015Zm1.3-.411c-.267.006-.247.173-.209.3s.07.214.288.211.247-.056.176-.27-.088-.247-.256-.244Zm.8.229c.009.3-.044.285.256.329s.4.026.411-.258.023-.385-.326-.394S19.924,19.981,19.924,20.2Zm1.24.241c-.085.241-.209.438.162.579s.385.041.493-.276.123-.47-.162-.549S21.273,20.134,21.164,20.44Zm1.319.088a3.752,3.752,0,0,1-.17.623,3.264,3.264,0,0,1,.505.238c.153.1.364-.176.291-.423s-.347-.643-.626-.435Zm1.563-3.983c-.047.167-.2.72-.264.872a3.507,3.507,0,0,0,1.069.144,5.784,5.784,0,0,1,1.016-.073c.232.044.361-.191-.029-.482a1.294,1.294,0,0,0-.875-.332c-.247.009-.673-.3-.919-.129Zm1.66,2.062c-.3-.047-.461.194-.256.355s.467.088.5-.059.044-.25-.241-.294Zm.67-.082c.018.15.059.414.059.532.223.211.452-.012.69.2s.411-.009.458-.226.076-.335-.123-.329c-.435.009-.726-.367-1.087-.176ZM21.646,13.4a2,2,0,0,1,.2.511c.2.129.673.267.8.032s.176-.338-.044-.449-.7-.517-.952-.094Zm1.792.411c-.144.162-.029.25.176.364a.217.217,0,0,0,.329-.223.292.292,0,0,0-.505-.138Zm-6.58,11.344a.608.608,0,0,1,.235.549c-.038.223.1.311.253.376s.567.446.646.029-.27-1.084-.514-1.122-.355-.038-.47-.17-.444.079-.15.341Zm13.694-1.762a3.466,3.466,0,0,1-.773,1.372c-.4-.191-1.14-.355-1.21-.576.147-.4.291-.74.4-.984a2.04,2.04,0,0,1,1.58.188Zm-2.5-.567a5.722,5.722,0,0,1-.261,1.163,15.165,15.165,0,0,0-1.956-.023,3.486,3.486,0,0,1,.091-.916C26.633,23.036,27.288,22.575,28.049,22.825Z" transform="translate(25.025 12.54)" fill="#eee"/>
</svg>
