<svg id="LBR" xmlns="http://www.w3.org/2000/svg" width="93.996" height="67.883" viewBox="0 0 93.996 67.883">
  <path id="Path_40234" data-name="Path 40234" d="M93.188,65.9H.8a10.447,10.447,0,0,0,9.64,6.427H83.551a10.447,10.447,0,0,0,9.64-6.427ZM0,53.556H93.993v6.685H0ZM30.025,16.529H93.993v6.685H30.025Zm63.163-5.657a10.447,10.447,0,0,0-9.64-6.427H30.025v6.427H93.188Zm-63.163,18H93.993v6.685H30.025ZM0,41.214H93.993V47.9H0Z" transform="translate(0 -4.442)" fill="#bf0a30"/>
  <path id="Path_40235" data-name="Path 40235" d="M30.025,18.975H93.993v5.657H30.025ZM0,31.318v5.654H93.993V31.318H0ZM30.025,6.633V12.29H93.993V10.648a10.444,10.444,0,0,0-.8-4.015ZM0,43.66H93.993v5.657H0ZM0,57.645A10.444,10.444,0,0,0,.8,61.66H93.188A10.392,10.392,0,0,0,94,57.645V56H0v1.642Z" transform="translate(0 -0.203)" fill="#eee"/>
  <path id="Path_40236" data-name="Path 40236" d="M10.445,4.444A10.445,10.445,0,0,0,0,14.889v20.67H31.332V4.444H10.445Z" transform="translate(0 -4.444)" fill="#002868"/>
  <path id="Path_40237" data-name="Path 40237" d="M13.2,13.315l-2.074-6.38L9.05,13.315H2.344l5.425,3.942L5.7,23.636l5.425-3.942,5.425,3.942-2.074-6.38L19.9,13.315Z" transform="translate(4.541 0.382)" fill="#fff"/>
</svg>
