<svg id="LBY" xmlns="http://www.w3.org/2000/svg" width="93.996" height="67.886" viewBox="0 0 93.996 67.886">
  <path id="Path_40251" data-name="Path 40251" d="M0,42H93.993V10.666H0ZM55.482,20.333l2.693,3.707,4.359-1.416L59.841,26.33l2.693,3.707-4.359-1.416-2.693,3.707V27.743l-4.359-1.416,4.359-1.419V20.327ZM47,17.848a8.469,8.469,0,0,1,6.024,2.508,7.373,7.373,0,1,0,0,11.949A8.486,8.486,0,1,1,47,17.842Z" transform="translate(0.003 7.61)" fill="#141414"/>
  <path id="Path_40252" data-name="Path 40252" d="M83.55,4.444H10.444A10.445,10.445,0,0,0,0,14.889v7.834H93.992V14.889A10.445,10.445,0,0,0,83.547,4.444Z" transform="translate(0.001 -4.444)" fill="#e70013"/>
  <path id="Path_40253" data-name="Path 40253" d="M83.55,39.612H10.444A10.445,10.445,0,0,1,0,29.167V21.333H93.992v7.834A10.445,10.445,0,0,1,83.547,39.612Z" transform="translate(0.001 28.275)" fill="#239e46"/>
  <path id="Path_40254" data-name="Path 40254" d="M21.6,30.079a8.469,8.469,0,0,0,6.024-2.508,7.373,7.373,0,1,1,0-11.949A8.486,8.486,0,1,0,21.6,30.085Z" transform="translate(25.403 12.35)" fill="#fff"/>
  <path id="Path_40255" data-name="Path 40255" d="M21.764,21.37v4.585l2.693-3.707,4.359,1.416-2.693-3.707,2.693-3.707-4.359,1.416-2.693-3.707v4.582L17.4,19.96Z" transform="translate(33.721 13.989)" fill="#fff"/>
</svg>
