<svg id="LCA" xmlns="http://www.w3.org/2000/svg" width="93.996" height="67.886" viewBox="0 0 93.996 67.886">
  <path id="Path_40218" data-name="Path 40218" d="M83.55,4.444H10.444A10.445,10.445,0,0,0,0,14.889v47A10.445,10.445,0,0,0,10.444,72.33H83.55A10.445,10.445,0,0,0,93.995,61.885v-47A10.445,10.445,0,0,0,83.55,4.444Z" transform="translate(0.001 -4.444)" fill="#6cf"/>
  <path id="Path_40219" data-name="Path 40219" d="M8.3,62.415l6.124-7.6,16.5-40.828,16.5,40.828,6.124,7.6L30.925,6.525Z" transform="translate(16.075 -0.413)" fill="#fff"/>
  <path id="Path_40220" data-name="Path 40220" d="M43.39,49.9,26.886,9.067,10.381,49.9l16.5-20.464Z" transform="translate(20.114 4.512)"/>
  <path id="Path_40221" data-name="Path 40221" d="M30.925,16,8.3,44.06H53.554l-6.124-7.6Z" transform="translate(16.075 17.943)" fill="#fcd116"/>
</svg>
