<svg id="LIE" xmlns="http://www.w3.org/2000/svg" width="93.996" height="67.886" viewBox="0 0 93.996 67.886">
  <path id="Path_40222" data-name="Path 40222" d="M93.995,61.885A10.445,10.445,0,0,1,83.55,72.33H10.444A10.445,10.445,0,0,1,0,61.885v-47A10.445,10.445,0,0,1,10.444,4.444H83.55A10.445,10.445,0,0,1,93.995,14.889Z" transform="translate(0.001 -4.444)" fill="#ce1b26"/>
  <path id="Path_40223" data-name="Path 40223" d="M83.55,4.444H10.444A10.445,10.445,0,0,0,0,14.889v23.5H93.992v-23.5A10.445,10.445,0,0,0,83.547,4.444Z" transform="translate(0.001 -4.444)" fill="#002b7f"/>
  <path id="Path_40224" data-name="Path 40224" d="M26.056,12.445a3.515,3.515,0,0,0-3.727-3.484,32.607,32.607,0,0,0-6.85,1.222H14a32.762,32.762,0,0,0-6.85-1.222,3.513,3.513,0,0,0-3.727,3.484c0,2.32.858,4.033,1.895,6.051H24.155c1.043-2.015,1.9-3.727,1.9-6.051Z" transform="translate(6.625 4.307)" fill="#b28914"/>
  <path id="Path_40225" data-name="Path 40225" d="M14.085,15.077l-.059.858c-1.633-.247-3.951-1.163-6.112-1.163-1.994,0-3.542.8-3.542,2.811A10.872,10.872,0,0,0,6.331,23.2l-1.163.552c-1.037-2.015-1.892-3.73-1.892-6.051a3.917,3.917,0,0,1,4.153-3.851,30.965,30.965,0,0,1,6.659,1.222Zm1.856,0,.059.858c1.633-.247,3.951-1.163,6.112-1.163,2,0,3.542.8,3.542,2.811A10.872,10.872,0,0,1,23.7,23.2l1.163.552c1.037-2.015,1.892-3.73,1.892-6.051A3.917,3.917,0,0,0,22.6,13.855a30.965,30.965,0,0,0-6.659,1.222Zm-.928-8.832-.684,1.284.684,1.281L15.7,7.529Zm0,3.243-.684,1.281.684,1.284.687-1.284ZM12.572,9.15l1.081.684,1.075-.684-1.075-.687Zm2.729,0,1.075.684,1.081-.684-1.081-.687Z" transform="translate(6.349 -0.955)" fill="#ffd83d"/>
  <path id="Path_40226" data-name="Path 40226" d="M16.216,7.062a.518.518,0,1,1-.52.517A.516.516,0,0,1,16.216,7.062Zm0,2.444A1.389,1.389,0,1,1,14.827,10.9,1.393,1.393,0,0,1,16.216,9.506Zm0,8.665a2.722,2.722,0,0,0-3.055,2.873c-.42-.74-2.2-3.064-3.854-2.752-.981.185-1.853,1.551-1.7,3.116a3,3,0,0,0-4.949-1.345c1.548,1.275,2.238,5.032,3.539,6.662H26.247c1.3-1.633,1.994-5.39,3.542-6.662a3,3,0,0,0-4.946,1.345c.144-1.566-.728-2.934-1.715-3.116C21.471,17.98,19.7,20.3,19.28,21.043a2.727,2.727,0,0,0-3.061-2.873Z" transform="translate(5.146 0.628)" fill="#ffd83d"/>
  <path id="Path_40227" data-name="Path 40227" d="M23.163,13.984a45.187,45.187,0,0,0-9.235-.646c-2.761,0-5.261.1-7.076.288a13.886,13.886,0,0,0-2.159.358c-.505.153-.834.291-.858.585.023.294.344.458.852.649a33.371,33.371,0,0,0,9.241,1.007,45.569,45.569,0,0,0,7.082-.5,13.027,13.027,0,0,0,2.159-.505c.508-.191.828-.358.852-.649-.021-.3-.347-.435-.855-.585Z" transform="translate(7.434 12.786)"/>
  <path id="Path_40228" data-name="Path 40228" d="M14.611,10.994a8.3,8.3,0,0,0,2.432,0s.352,3.125.658,4.285a8.425,8.425,0,0,0-1.833-.305,9.649,9.649,0,0,0-1.915.305s.217-1.407.382-2.344S14.611,11,14.611,11Zm-11.5,4.271c-.493-2.1-.517-4.241,2.132-6.068s7.07-.285,8.292.018,1.248,1.636-.25,1.263-5.7-1.542-7.725.267-1.633,3.143-1.325,4.215c.9,3.084-.74,1.942-1.125.305Zm25.428.12c.493-2.1.517-4.241-2.132-6.068s-7.07-.285-8.292.021-1.248,1.636.25,1.263,5.7-1.542,7.725.267S27.714,14,27.417,15.083C26.736,17.55,28.157,17.021,28.542,15.385Z" transform="translate(5.536 3.061)" fill="#ffd83d"/>
</svg>
