<svg id="LKA" xmlns="http://www.w3.org/2000/svg" width="93.996" height="67.886" viewBox="0 0 93.996 67.886">
  <path id="Path_40229" data-name="Path 40229" d="M93.995,61.885A10.445,10.445,0,0,1,83.55,72.33H10.444A10.445,10.445,0,0,1,0,61.885v-47A10.445,10.445,0,0,1,10.444,4.444H83.55A10.445,10.445,0,0,1,93.995,14.889Z" transform="translate(0.001 -4.444)" fill="#ffb700"/>
  <path id="Path_40230" data-name="Path 40230" d="M66.329,5.335H8.888V68H66.329a7.843,7.843,0,0,0,7.834-7.834v-47a7.843,7.843,0,0,0-7.834-7.834Z" transform="translate(17.221 -2.724)" fill="#8d2129"/>
  <path id="Path_40231" data-name="Path 40231" d="M8.723,5.333A7.843,7.843,0,0,0,.889,13.167v47A7.843,7.843,0,0,0,8.723,68h2.611V5.336H8.723Z" transform="translate(1.725 -2.722)" fill="#005641"/>
  <path id="Path_40232" data-name="Path 40232" d="M4.444,5.333H14.889V67.994H4.444Z" transform="translate(8.612 -2.722)" fill="#ff5b00"/>
  <path id="Path_40233" data-name="Path 40233" d="M15.388,13.878s-.176-2.5-.091-4.6c.056-1.389-.723-3.067-2.194-2.826A10.557,10.557,0,0,1,10,6.4a3.108,3.108,0,0,1,0,1.848,2.133,2.133,0,0,0,1.877,3.02,3.727,3.727,0,0,1,3.51,2.614Zm48.782,0s.176-2.5.091-4.6c-.056-1.389.723-3.067,2.194-2.826a10.557,10.557,0,0,0,3.1-.056,3.108,3.108,0,0,0,0,1.848,2.133,2.133,0,0,1-1.877,3.02,3.727,3.727,0,0,0-3.51,2.614ZM15.388,55.329s-.176,2.506-.091,4.6c.056,1.389-.723,3.067-2.194,2.823a10.444,10.444,0,0,0-3.1.056,3.116,3.116,0,0,0,0-1.85,2.132,2.132,0,0,1,1.877-3.02A3.729,3.729,0,0,0,15.388,55.329Zm48.782,0s.176,2.506.091,4.6c-.056,1.389.723,3.067,2.194,2.823a10.444,10.444,0,0,1,3.1.056,3.116,3.116,0,0,1,0-1.85,2.132,2.132,0,0,0-1.877-3.02A3.729,3.729,0,0,1,64.17,55.329Zm-35.186-32.8a17.491,17.491,0,0,0,3.1-.491,1.42,1.42,0,0,0,1.06-1.874s1.386-.734,2.2,0,1.8.652,1.3-.326a1.532,1.532,0,0,1,2.121.9,2.259,2.259,0,0,0,.9-1.09c1.3-.135,1.551,1.169,2.365,1a2.6,2.6,0,0,0,1.386-1.016s.162,2.32-1.225,2.893c1.143,1.469.814,4.324.814,5.061L42.2,27.1a16.593,16.593,0,0,0,.734,2.611c.247.326-.814,0-.814,0s.573,1.551.978,1.8,8.078-.491,10.28-.491,5.222-.326,5.222-2.285-2.529-1.8-5.384-1.386-4.732.326-5.875-.408S44.9,26.012,45,27.863c-1.742-.814-.491-2.555-.491-2.555s-1.986-2.174-.72-4.353,6.159-2.832,9.587-.925,4.785,3.481,6.2,3.754c-.056-1.034,1.686-1.795,1.9.109s-2.177,1.522-3.208.925A22.118,22.118,0,0,1,55.4,22.423a2.612,2.612,0,0,0,.652,1.8,2.669,2.669,0,0,1-2.391-1.686,1.827,1.827,0,0,1-1.906,1.63c1.3-1.522.869-2.773-.925-3.425a1.937,1.937,0,0,1-1.469,3.155c1.034-1.469.164-3.155-1.739-3.481a1.207,1.207,0,0,1-.652,1.522s-.435-1.09-1.3-.491a1.6,1.6,0,0,0,.05,2.72,1.618,1.618,0,0,1,2.611-.708,1.308,1.308,0,0,0-.869,2.229c.543-.925,1.09-1.2,1.633-.217s2.174.925,5.111.491,5.643-.115,6.092,2.5a3.314,3.314,0,0,1-1.848,3.319s2.881,2.174,1.034,6.908-1.087,6.688-.382,7.179,1.8.543.326,1.848-1.09,2.232-.491,2.993.435,1.521-1.3.543a1.161,1.161,0,0,1-1.959-.109,1.1,1.1,0,0,1-1.8.109c-.543.435-1.251.435-.869-.491s2.229-1.3,2.773-1.469.491-1.143.326-2.229-1.09-2.229-3.046-3.263c-.869.652-.764,1.413-.435,1.8s1.36.491,1.416.814-.543,1.034-1.2,1.524a1.466,1.466,0,0,0-.326,1.8c.217.438.488,1.507-.22,2.006s-1.413-.646-1.413-.646-.438,1.36-1.686.056c-.708.872-1.413.546-1.739.056-.708.708-1.8.652-1.251-.326a1.941,1.941,0,0,1,1.959-1.034c.764-.053,1.795-.214,1.686-1.739a5.82,5.82,0,0,0-1.469-4.027,3.8,3.8,0,0,1-1.36-3.208,8.082,8.082,0,0,0-4.841,1.2,7.29,7.29,0,0,1-3.754,1.469,5.875,5.875,0,0,0-1.3,2.121c-.106.817.382,1.09,1.034,1.3s1.143.162.162,1.034a2.685,2.685,0,0,1-1.8.814,7.632,7.632,0,0,0,.059,1.466c.109.543-.22,1.486-.764,1.586s-1.36-.605-1.36-.605-1.034,1.09-1.848-.056c-.925.869-1.742.546-2.068,0-.543.869-1.416.491-.869-.491s1.3-1.093,2.611-1.034a1.753,1.753,0,0,0,1.9-2.338c-.488-1.36-.925-3.208-.925-3.208a7.291,7.291,0,0,1-2.555-.978c-1.9,2.285-2.555,1.469-3.1,1.034s-1.848-1.633-1.848-1.633-.708-.056-.6.6c-.764-.056-.491-1.251-.491-1.848s-.217-1.3-.652-1.3a8.463,8.463,0,0,0-1.09.109s0,.214.652.435.6.655-.056.708-1.09.214-.6.6.543.6.162.978a1.281,1.281,0,0,0,.326,1.8c.435-1.034,1.251-.435,1.09.27s-1.36.6-1.36.6l.814.925-1.242.27s-.062.764-.552.925-.6-1.143-.6-1.143l-1.143-.056.764-.925s-1.09-.382-1.143-1.034.814-.326.978,0a.943.943,0,0,0,.27-1.577c-.329-.326-.109-.6.217-.978s.27-.6-.217-.491-1.3-.872-.491-.872.978-.056.869-.652c-.978-.106-.382-.869-.382-.869s-.764-.546-.217-.925c-.491-.435-.6-1.143-.056-1.251-.326-.27.109-.764.109-.764s-1.569-.267-1.569-1.463,1.36-.978,1.36-.978a89.366,89.366,0,0,1,.217-9.138c.379-5.331,2.611-7.179,3.971-7.722-1.416,2.993-1.251,8.048-1.251,11.15s-.056,5.549-.056,5.549,1.522.106,1.413,1.14a1.365,1.365,0,0,1-.814,1.251l3.536,3.536s-.162-3.628,1.034-5.076a24.115,24.115,0,0,1,3.589-3.246c.546-.438-.338-1.589-.761-.326-.617-.076-1.143-1.09-1.143-1.09a.717.717,0,0,1-.326.652c-.382.27-.27-.925-.491-.814a8.357,8.357,0,0,1-1.577.652,3.168,3.168,0,0,1,.382-.978s-.978.106-1.85.217c0-.764.488-2.012.925-2.121-1.09-.543-.814-1.577-.326-1.416a15.722,15.722,0,0,0,5.331,1.686,13.666,13.666,0,0,1-1.469-2.121l-.27.925-.978-.925-.109.925s-2.394-1.742-2.829-3.155.056-2.453.869-2.338a1.211,1.211,0,0,1,1.06,1.683Z" transform="translate(19.075 -0.661)" fill="#ffb700"/>
</svg>
