<svg id="LSO" xmlns="http://www.w3.org/2000/svg" width="94" height="67.89" viewBox="0 0 94 67.89">
  <path id="Path_41309" data-name="Path 41309" d="M94,199.666a10.445,10.445,0,0,1-10.444,10.444H10.444A10.445,10.445,0,0,1,0,199.666v-47a10.445,10.445,0,0,1,10.444-10.444H83.556A10.445,10.445,0,0,1,94,152.666Z" transform="translate(0 -142.222)" fill="#009543"/>
  <path id="Path_41310" data-name="Path 41310" d="M0,369.778H94v26.111H0Z" transform="translate(0 -348.889)" fill="#eee"/>
  <path id="Path_41311" data-name="Path 41311" d="M83.556,142.222H10.444A10.445,10.445,0,0,0,0,152.666v10.444H94V152.666A10.445,10.445,0,0,0,83.556,142.222Z" transform="translate(0 -142.222)" fill="#00209f"/>
  <path id="Path_41312" data-name="Path 41312" d="M422.265,406.133c-.039-.123-1.112.368-1.112.368l-4.82-6.167a10.325,10.325,0,0,0,1.279-4.971c0-3.24-1.718-4.092-2.812-4.319V390.9a.811.811,0,0,0-.812-.812h-.154a.811.811,0,0,0-.812.812v.146c-1.094.227-2.81,1.078-2.81,4.319a10.326,10.326,0,0,0,1.316,5.039l-4.593,6.1s-.937-.491-.979-.368S404,409.316,404,409.316a19.667,19.667,0,0,0,9.914,2.663,24.138,24.138,0,0,0,10.113-2.663s-1.718-3.06-1.76-3.183Zm-5.5-10.648a9.063,9.063,0,0,1-1.107,3.992l-.919-1.175c.01-.052.057-.086.057-.141v-1.9h1.274l-1.274-1.274v-2.927a3.432,3.432,0,0,1,1.969,3.426Zm-5.713,0a3.431,3.431,0,0,1,1.966-3.426v2.927l-1.274,1.274h1.274v1.9c0,.065.055.107.068.167l-.9,1.2a9.108,9.108,0,0,1-1.133-4.039Z" transform="translate(-366.912 -367.335)" fill="#292f33"/>
  <path id="Path_41313" data-name="Path 41313" d="M438.161,578.674a20.1,20.1,0,0,1-14.607,0l-.9,1.695a20.695,20.695,0,0,0,16.4,0Z" transform="translate(-383.858 -538.609)" fill="#53646d"/>
</svg>
