<svg id="MAC" xmlns="http://www.w3.org/2000/svg" width="93.996" height="67.886" viewBox="0 0 93.996 67.886">
  <path id="Path_40304" data-name="Path 40304" d="M93.995,61.885A10.445,10.445,0,0,1,83.55,72.33H10.444A10.445,10.445,0,0,1,0,61.885v-47A10.445,10.445,0,0,1,10.444,4.444H83.55A10.445,10.445,0,0,1,93.995,14.889Z" transform="translate(0.001 -4.444)" fill="#00785e"/>
  <path id="Path_40305" data-name="Path 40305" d="M29.6,7.615a27.56,27.56,0,0,1-1,3.067c-1.063.038-2.294-.085-3.255.059a22.475,22.475,0,0,1,2.629,1.939c-.27,1.049-.676,1.956-.94,3,.831-.423,1.718-1.328,2.691-1.815.6.441,1.363,1.016,1.939,1.442.2.144.449.382.626.311-.294-1.022-.693-1.933-.94-3,.861-.664,1.774-1.272,2.632-1.939H30.66A20.124,20.124,0,0,0,29.6,7.615ZM15.392,16.5c.05.179.517-.059.561.126h1.689a9.358,9.358,0,0,0,.69,2.127,10.987,10.987,0,0,1,.752-2.127,8.526,8.526,0,0,0,2.188,0,9.932,9.932,0,0,1-1.751-1.375c.153-.7.576-1.469.623-2.065a20.887,20.887,0,0,1-1.815,1.251,14.449,14.449,0,0,0-1.815-1.251c.3.62.417,1.422.69,2.065-.6.423-1.172.866-1.815,1.251Zm27.975.126c.047-.182.511.056.558-.126a11.644,11.644,0,0,1-1.815-1.316c.3-.617.417-1.422.69-2.062-.676.385-1.169.952-1.877,1.313-.6-.417-1.181-.861-1.815-1.251.223.717.517,1.363.69,2.127-.54.5-1.21.875-1.751,1.375a22.32,22.32,0,0,0,2.25-.062c.25.711.47,1.451.755,2.127.25-.69.42-1.457.69-2.127H43.37ZM12.079,20.442a14.267,14.267,0,0,1-.94,2,9.915,9.915,0,0,0-2.191-.188,8.548,8.548,0,0,1,1.627,1.563c-.364.593-.623,1.292-.937,1.939.7-.32,1.3-.743,2-1.063.256.2.52.54.811.811.267.247.632.605.814.564a15.233,15.233,0,0,1-.376-2.127c.684-.317,1.307-.693,1.939-1.063-.764-.07-1.466-.2-2.25-.25a12.233,12.233,0,0,0-.5-2.191Zm36.04,2a21.159,21.159,0,0,0-.937-2c-.223.676-.226,1.571-.5,2.191a14.107,14.107,0,0,0-2.191.311,14.3,14.3,0,0,1,1.939,1.066c-.059.775-.267,1.4-.376,2.127.535-.256,1.081-1.046,1.686-1.439a10.806,10.806,0,0,0,1.942,1c-.344-.617-.605-1.313-.943-1.939.5-.573,1.1-1.028,1.633-1.566-.793.038-1.5.17-2.253.25Z" transform="translate(17.338 1.699)" fill="#fbd116"/>
  <path id="Path_40306" data-name="Path 40306" d="M38.607,23.15h9.135a7.907,7.907,0,0,1,2.632.123c-.015-.012-.047.009-.065,0a11.684,11.684,0,0,1-.878,1.187c-3.589.247-7.939.126-11.7.065a14.4,14.4,0,0,1-8.072-3.193,14.413,14.413,0,0,1-8.072,3.193c-3.692.062-8.042.185-11.7-.065a8.857,8.857,0,0,1-.878-1.187c-.059,0-.047-.073-.059-.123H20.713A13.7,13.7,0,0,0,29.6,19.332a14.6,14.6,0,0,0,9.012,3.818Zm9.385,3c-.129.226-.367.338-.5.564H14.136a11.71,11.71,0,0,1-2.188,0c-.247-.07-.464-.382-.626-.564-.053-.012-.062-.059-.126-.059,12-.294,24.55-.044,36.792-.126.22-.059.109.2,0,.185Zm-2.25,2.191c-.379.288-.755.582-1.125.875-9.825.106-20.082.106-29.91,0-.37-.294-.743-.59-1.128-.875-.05-.012-.062-.062-.126-.062.044-.364.576-.179.752-.185,10.377-.276,21.3.2,31.723,0,.018.1-.056.109-.059.185-.053.015-.062.065-.126.062ZM42.866,30.4a19.863,19.863,0,0,1-2.318,1.254c-7.108.1-14.66.1-21.771,0A18.735,18.735,0,0,1,16.463,30.4c-.267-.206.908-.123,1.313-.123H39.55a18.1,18.1,0,0,1,3.319,0c.147.035.164,0,0,.123Zm-4.13,2.071A24.328,24.328,0,0,1,31.1,34.1c-.25.144-.77.021-1.125.062h-.626c-.355-.038-.875.082-1.125-.062a24.2,24.2,0,0,1-7.634-1.624h-.129c4.265-.229,9.106-.129,13.705-.129a34.87,34.87,0,0,1,4.57,0c.1.012.12.021.123.129h-.123Z" transform="translate(17.34 24.398)" fill="#fff"/>
  <path id="Path_40307" data-name="Path 40307" d="M24.455,21.521a.883.883,0,0,1,.009-.746V20.59c.038-.188-.082-.538.062-.626a13.957,13.957,0,0,1,1.251-4.755,10.559,10.559,0,0,1-1.313-2.253,13.9,13.9,0,0,0-1.754,5.883v1.939a14.23,14.23,0,0,0,2.253,6.82,1.168,1.168,0,0,1,.25.376c0,.173.173-.15.126.123a2.819,2.819,0,0,1-.811-.749A16.226,16.226,0,0,0,13.952,23.1H12.765c.288.379.784,1.1,1.187,1.563a16.368,16.368,0,0,1,11.329,4.565c.126.106.291.17.314.379a3.192,3.192,0,0,1-.438-.379,16.919,16.919,0,0,0-8.136-3.254,17.116,17.116,0,0,0-8.2,1.187,12.934,12.934,0,0,0,2.814,4.57,6.241,6.241,0,0,1,.814.811,13.526,13.526,0,0,0,8.636,3.692,7.02,7.02,0,0,1,1.5.059h-.126a2.451,2.451,0,0,1-1.125.129,2.833,2.833,0,0,1-1.313,0c-4.236-.147-6.814-1.947-9.261-3.88a6.1,6.1,0,0,1-1.5.314c-.182.032.1.1.062.188a7.269,7.269,0,0,1,.878.875,13.848,13.848,0,0,0,8.885,3.692H20.4a13.926,13.926,0,0,0,8.885-3.692c.153-.244.411-.379.561-.623a2.014,2.014,0,0,1,.69.623,13.9,13.9,0,0,0,8.882,3.692h1.316a13.942,13.942,0,0,0,8.824-3.63,7.842,7.842,0,0,1,.937-.937c.3-.329-1.175-.267-1.5-.5a14.305,14.305,0,0,1-9.2,3.88,2.846,2.846,0,0,1-1.316,0,2.417,2.417,0,0,1-1.125-.129c-.05-.012-.126,0-.126-.059h1.5a13.549,13.549,0,0,0,8.636-3.692,6.429,6.429,0,0,1,.814-.811,13,13,0,0,0,2.814-4.57,17.174,17.174,0,0,0-8.26-1.187,17.443,17.443,0,0,0-8.2,3.313,15.939,15.939,0,0,1,11.385-4.626c.2-.22.35-.6.564-.878.2-.264.62-.5.5-.69H45.853a16.566,16.566,0,0,0-10.7,4.315c-.129.226-.373.338-.5.564-.129.018.009-.179.062-.188a14.207,14.207,0,0,0,2.376-7.008V18.831a12.594,12.594,0,0,0-1.815-5.883,9.593,9.593,0,0,1-1.248,2.315,13.444,13.444,0,0,1,1.313,5.507.931.931,0,0,1,0,.752,13.1,13.1,0,0,1-2.5,7.572,14.187,14.187,0,0,0,1.939-8.383,14.469,14.469,0,0,0-4.817-9.388,13.609,13.609,0,0,0-4.946,9.446,15.185,15.185,0,0,0,1.627,7.884,13.2,13.2,0,0,1-2.191-7.132Zm2.188,7.132a.844.844,0,0,1,.314.5A.835.835,0,0,1,26.644,28.653Z" transform="translate(17.101 8.883)" fill="#fff"/>
</svg>
