<svg id="MAF" xmlns="http://www.w3.org/2000/svg" width="94" height="67.89" viewBox="0 0 94 67.89">
  <path id="Path_41339" data-name="Path 41339" d="M94,199.666a10.445,10.445,0,0,1-10.444,10.444H10.444A10.445,10.445,0,0,1,0,199.666v-47a10.445,10.445,0,0,1,10.444-10.444H83.556A10.445,10.445,0,0,1,94,152.666Z" transform="translate(0 -142.222)" fill="#032a87"/>
  <path id="Path_41340" data-name="Path 41340" d="M83.556,142.222H10.444A10.445,10.445,0,0,0,0,152.666v23.5H94v-23.5A10.445,10.445,0,0,0,83.556,142.222Z" transform="translate(0 -142.222)" fill="#dc181e"/>
  <path id="Path_41341" data-name="Path 41341" d="M3.429,234.249l41.041-31.023-41-31.393A10.378,10.378,0,0,0,0,179.559v47a10.379,10.379,0,0,0,3.428,7.69Z" transform="translate(-0.001 -169.115)" fill="#eee"/>
  <path id="Path_41342" data-name="Path 41342" d="M134.352,376.463c0,2.389-2.512,4.327-5.609,4.327s-5.609-1.937-5.609-4.327,2.512-4.324,5.609-4.324S134.352,374.076,134.352,376.463Z" transform="translate(-111.832 -351.033)" fill="#fada10"/>
  <path id="Path_41343" data-name="Path 41343" d="M109.625,383.221c1.2-1.2,5.533-1.144,6.846-.381-1.462-1.969.554-1.034,2.131-1.034s2.013.486.979.6-1.9-.052-1.632.274,1.851.05,3.264-.274a3.923,3.923,0,0,1,3.154,1.091c.11.219-2.5-.326-3.426,0s-2.394.272-2.285.6-1.538.543-2.183.381-3.313-.11-2.877-.381.979-.6,1.2-.708A35,35,0,0,0,109.625,383.221Z" transform="translate(-99.562 -359.611)" fill="#bd725f"/>
  <path id="Path_41344" data-name="Path 41344" d="M97.562,414.208a8.1,8.1,0,0,1-4.938.653c-2.734-.653-4.731-.363-4.731.368,0-.731-2-1.021-4.731-.368a8.109,8.109,0,0,1-4.938-.653s1.812,2.9.734,8.69c-1.1,5.917-.775,8.609,3.891,8.784,3.945.149,5.045,1.334,5.045,1.334s1.1-1.185,5.045-1.334c4.666-.175,4.992-2.87,3.891-8.784-1.078-5.791.734-8.69.734-8.69Z" transform="translate(-71.043 -389.241)" fill="#dc181e"/>
  <path id="Path_41345" data-name="Path 41345" d="M110.318,439.9a15,15,0,0,1,.081-8.69,8.9,8.9,0,0,1-4.569-.042c-2.407-.695-3.387.491-3.387.491s-.979-1.183-3.387-.491a8.9,8.9,0,0,1-4.569.042,15,15,0,0,1,.081,8.69c-1.387,4.773,2,5.468,4.285,5.426a5.186,5.186,0,0,1,3.59,1.264,5.186,5.186,0,0,1,3.59-1.264C108.318,445.363,111.7,444.669,110.318,439.9Z" transform="translate(-85.594 -404.442)" fill="#63b0e2"/>
  <path id="Path_41346" data-name="Path 41346" d="M128.466,451.553v-2.368H129v-.937h-.572v-2.53h.53l-4.366-2.9v-1.183h.653L123,440.13l-2.243,1.509h.653v1.183l-4.366,2.9h.53v2.53H117v.937h.53v2.368h-.653v1.183h12.241v-1.183Zm.428-9.854c0,.935-.191,1.285-.428,1.285s-.428-.35-.428-1.285a3.814,3.814,0,0,1,.428-1.692A3.814,3.814,0,0,1,128.894,441.7Z" transform="translate(-106.149 -412.671)" fill="#fff"/>
  <path id="Path_41347" data-name="Path 41347" d="M228.415,465.711h-3.306c0-.449.739-.815,1.653-.815s1.653.366,1.653.815Z" transform="translate(-204.445 -435.276)" fill="#fff"/>
  <path id="Path_41348" data-name="Path 41348" d="M108.845,442.6a8.158,8.158,0,0,0-.734,1.755c-.123.653-.491-.407-.491-.407a10.556,10.556,0,0,0-.815.9c-.162.245-.2-1.877,0-2.162s-.491-.2-.734-.326.53-.9.53-.9-1.06-.491-.695-.611a3.447,3.447,0,0,1,2.162.326c.449.368,1.509-.245,1.917-.326s0,.407-.326.695-.162,1.021-.162,1.386-.653-.329-.653-.329Z" transform="translate(-96.116 -413.384)" fill="#018830"/>
  <path id="Path_41349" data-name="Path 41349" d="M135.672,466.52h4.815v1.387h-4.815Zm-2.324-1.141h1.467V467.3h-1.467Zm0,3.222h1.467v1.917h-1.467Zm7.872-3.222h1.467V467.3h-1.467Zm0,3.222h1.467v1.917h-1.467ZM136.9,461.34h2.2v1.021h-2.2Z" transform="translate(-121.107 -432.046)" fill="#b6b6b6"/>
  <path id="Path_41350" data-name="Path 41350" d="M58.728,510.771l-.407-2.326-2.162.695.653,3.141.491.123a6.834,6.834,0,0,1-1.877,4.489c-1.919,1.958-5.3,1.958-5.3,1.958a8.893,8.893,0,0,1-9.139,0s-3.387,0-5.3-1.958A6.85,6.85,0,0,1,33.8,512.4l.491-.123.653-3.141-2.162-.695-.407,2.327-.776.081s.042,4.569,1.632,6.977,5.141,3.141,5.141,3.141a5.163,5.163,0,0,0,.123.572c2.327,1.347,7.058,1.428,7.058,1.428s4.731-.081,7.058-1.428a5.028,5.028,0,0,0,.123-.572s3.549-.734,5.141-3.141,1.632-6.977,1.632-6.977l-.781-.081Z" transform="translate(-28.7 -474.826)" fill="#fada10"/>
</svg>
