<svg id="MAR" xmlns="http://www.w3.org/2000/svg" width="93.996" height="67.886" viewBox="0 0 93.996 67.886">
  <path id="Path_40256" data-name="Path 40256" d="M83.55,4.444H10.444A10.445,10.445,0,0,0,0,14.889v47A10.445,10.445,0,0,0,10.444,72.33H83.55A10.445,10.445,0,0,0,93.995,61.885v-47A10.445,10.445,0,0,0,83.55,4.444Z" transform="translate(0.001 -4.444)" fill="#c1272d"/>
  <path id="Path_40257" data-name="Path 40257" d="M16.517,35.357,19.463,26.3l-7.71-5.6h9.529l2.949-9.073,2.949,9.07h9.529L29,26.293l2.946,9.061-7.71-5.6-7.71,5.6Zm9.355-6.8L28.263,30.3l-.913-2.811L25.872,28.56Zm-4.767-1.075L20.192,30.3l2.391-1.736-1.477-1.075Zm.629-1.933,2.494,1.812,2.494-1.812-.952-2.928H22.683ZM17.7,22.624l2.388,1.736.564-1.736Zm10.1,0,.564,1.736,2.388-1.736Zm-2.661-1.933-.913-2.814-.913,2.817h1.827Z" transform="translate(22.772 9.46)" fill="#006233"/>
</svg>
