<svg id="MDA" xmlns="http://www.w3.org/2000/svg" width="93.993" height="67.889" viewBox="0 0 93.993 67.889">
  <path id="Path_40260" data-name="Path 40260" d="M42.22,4.446H21.333V72.329H42.22A10.445,10.445,0,0,0,52.665,61.884v-47A10.445,10.445,0,0,0,42.22,4.443Z" transform="translate(41.328 -4.443)" fill="#dd2e44"/>
  <path id="Path_40261" data-name="Path 40261" d="M10.445,4.444A10.445,10.445,0,0,0,0,14.889v47A10.445,10.445,0,0,0,10.445,72.33H31.332V4.447H10.445Z" transform="translate(0 -4.441)" fill="#265fb5"/>
  <path id="Path_40262" data-name="Path 40262" d="M10.667,4.444H42V72.327H10.667Z" transform="translate(20.665 -4.441)" fill="#ffcc4d"/>
  <path id="Path_40263" data-name="Path 40263" d="M14.222,13.333H24.667v7.834H14.222Z" transform="translate(27.552 12.779)" fill="#dd2e44"/>
  <path id="Path_40264" data-name="Path 40264" d="M14.222,16v5.222l5.222,2.611,5.222-2.611V16Z" transform="translate(27.552 17.946)" fill="#269"/>
  <path id="Path_40265" data-name="Path 40265" d="M19.389,9.778v2.611H22v5.222h5.222V9.778Zm7.834,26.109-2.611,1.633L22,35.887l-2.611,7.834,5.222,2.611,5.222-2.611ZM16.777,15l-2.611-2.611L11.555,15V41.11l5.222-5.222V17.612h2.611Zm18.279-2.611-5.222,5.222h2.611V35.887l5.222,5.222V15Z" transform="translate(22.385 5.892)" fill="#a0724a"/>
  <path id="Path_40266" data-name="Path 40266" d="M14.43,15.639h1.386V16.7H14.43Zm7.834,0H23.65V16.7H22.264Z" transform="translate(27.955 17.247)" fill="#ffcc4d"/>
  <path id="Path_40267" data-name="Path 40267" d="M18.441,27.976c-.276.162-.687-.026-.913-.414L11.7,17.47a.732.732,0,0,1,.1-1l.355-.2c.276-.162.687.026.911.414l5.828,10.1a.733.733,0,0,1-.094,1l-.355.2Z" transform="translate(22.388 18.353)" fill="#77b255"/>
  <path id="Path_40268" data-name="Path 40268" d="M24.979,16.522a.714.714,0,0,1,.1.984L19.36,27.423a.723.723,0,0,1-.908.405l-.352-.2a.724.724,0,0,1-.1-.987l5.722-9.916c.223-.382.626-.567.9-.4l.352.2Z" transform="translate(34.595 18.449)" fill="#ffcc4d"/>
  <path id="Path_40269" data-name="Path 40269" d="M15.944,18.667l-2.611,2.611v2.611l2.611-2.611Zm10.445,0v2.611L29,23.889V21.278Z" transform="translate(25.83 23.113)" fill="#dd2e44"/>
  <path id="Path_40270" data-name="Path 40270" d="M17.722,16.833l-2.611-2.611v7.722l2.611,2.72,2.611-2.72V14.222Z" transform="translate(29.274 14.502)" fill="#ffcc4d"/>
</svg>
