<svg id="MDV" xmlns="http://www.w3.org/2000/svg" width="93.996" height="67.886" viewBox="0 0 93.996 67.886">
  <path id="Path_40392" data-name="Path 40392" d="M83.55,4.444H10.444A10.445,10.445,0,0,0,0,14.889v47A10.445,10.445,0,0,0,10.444,72.33H83.55A10.445,10.445,0,0,0,93.995,61.885v-47A10.445,10.445,0,0,0,83.55,4.444Z" transform="translate(0.001 -4.444)" fill="#d21034"/>
  <path id="Path_40393" data-name="Path 40393" d="M5.333,9.778H67.994V46.329H5.333Z" transform="translate(10.334 5.889)" fill="#007e3a"/>
  <path id="Path_40394" data-name="Path 40394" d="M24.938,34.817a11.5,11.5,0,0,0,2.127-.2,11.339,11.339,0,0,1,0-22.276,11.523,11.523,0,0,0-2.127-.2,11.339,11.339,0,1,0,0,22.679Z" transform="translate(26.344 10.467)" fill="#fff"/>
</svg>
