<svg id="MEX" xmlns="http://www.w3.org/2000/svg" width="93.993" height="67.889" viewBox="0 0 93.993 67.889">
  <path id="Path_40399" data-name="Path 40399" d="M10.445,4.444A10.445,10.445,0,0,0,0,14.889v47A10.445,10.445,0,0,0,10.445,72.33H28.721V4.447H10.445Z" transform="translate(0 -4.441)" fill="#006847"/>
  <path id="Path_40400" data-name="Path 40400" d="M40.5,4.446H22.222V72.329H40.5A10.445,10.445,0,0,0,50.943,61.884v-47A10.445,10.445,0,0,0,40.5,4.443Z" transform="translate(43.05 -4.443)" fill="#ce1126"/>
  <path id="Path_40401" data-name="Path 40401" d="M9.778,4.444H46.33V72.327H9.778Z" transform="translate(18.943 -4.441)" fill="#eee"/>
  <path id="Path_40402" data-name="Path 40402" d="M39.385,16a13.053,13.053,0,0,1-26.107,0H10.667A15.665,15.665,0,0,0,42,16Z" transform="translate(20.665 17.946)" fill="#a6d388"/>
  <path id="Path_40403" data-name="Path 40403" d="M14.7,23.06a1.307,1.307,0,0,0-2.329,1.187c.235.461.493.914.773,1.348v0l.012.015v0l.021.029v0l.012.021.012.012v0l.009.012V25.7l.009.012,0,.006.009.012,0,.006.009.012.012.015,0,.009.009.012,0,0,.006.009.012.021.009.012,0,.006.018.026v0l.012.018v0c.135.2.273.394.42.59a1.3,1.3,0,0,0,1.1.523,1.281,1.281,0,0,0,.72-.258,1.3,1.3,0,0,0,.27-1.824A15.627,15.627,0,0,1,14.71,23.06Zm-1.3-4.13c-.056-.408-.094-.822-.112-1.245-.012-.314-.012-.623-.009-.928a1.307,1.307,0,0,0-1.266-1.342l-.094,0a1.3,1.3,0,0,0-1.248,1.266c-.006.27-.009.54,0,.811v.235l0,.012v.073l0,.009,0,.006v.009l0,.006v.076l0,.009v.029l0,.05,0,.023v.029c.023.417.065.834.12,1.245a1.306,1.306,0,0,0,1.345,1.122c.041,0,.082-.006.123-.012a1.313,1.313,0,0,0,1.131-1.48ZM27.223,30.156l-.015,0-.323.021a12.978,12.978,0,0,1-1.853-.056.974.974,0,0,0-.185-.006,1.305,1.305,0,0,0-.076,2.6l.326.029.012,0,.006,0,.009,0h.006l.015,0h.015l.009,0h0l.015,0,.009,0H25.2l.015,0,.012,0h.035l.015,0h.035c.4.026.8.038,1.2.032h.1l.018,0,.015,0h.038l.012,0h.05l.015,0h0l.012,0,0,0,.015,0h0l.012,0h.021l.015,0h.015l0,0,.015,0H26.9l.012,0h.053l.012,0h.012l.012,0,.012,0h.012l.012,0h.012c.109,0,.223-.012.332-.018a1.307,1.307,0,0,0-.159-2.608Zm-6.368-1.169a13.5,13.5,0,0,1-1.892-1.072,1.308,1.308,0,0,0-1.815.341,1.3,1.3,0,0,0,.341,1.812l0,0,.015.009.015.015.015.012.015.012a15.37,15.37,0,0,0,2.2,1.242,1.275,1.275,0,0,0,.6.12,1.309,1.309,0,0,0,.505-2.491Zm13.133-1.04a1.313,1.313,0,0,0-.646.209,13.4,13.4,0,0,1-1.915,1.01,1.3,1.3,0,0,0-.7,1.709,1.315,1.315,0,0,0,1.254.8,1.378,1.378,0,0,0,.452-.1l.35-.156h.006l.015-.012.015-.009h.012l.012-.006.006-.006.015,0,.006-.006.009-.006.012-.006.009,0,.012-.006.006,0,.012-.006.006,0c.009-.006.009-.009.012-.009l.021-.012h.006l.035-.018.012-.009.021-.012,0,0,.018,0,.018-.012.006,0,.012-.009H33.1l.015-.012.021-.006.015-.012h0l.018-.012,0,0,.056-.023.035-.021.021-.009.015-.009h0l.035-.021v0l.015-.006h0l.059-.032.018-.006.056-.032h0a.025.025,0,0,1,.018-.006c.006-.009.012-.012.015-.012l.035-.018v0L33.6,31h0l.018-.012,0,0,.012-.009h0l.018-.012.015-.009h.006l.015-.012v0l.018-.009,0,0,.015-.009v0l.015-.006.006,0,.012-.009.009,0,.012-.009.006,0,.012-.009.006,0,.015-.006s0,0,0,0l.021-.012.012-.009.026-.012c0-.006.006-.006.012-.009l.009,0,.012-.006.009-.006.012-.006.015-.012.009-.009.012,0,.012,0,.006-.006.012-.006L34,30.752l.015-.009.012-.009.009-.006c.006,0,.009,0,.012,0l.006-.006.012-.006.015-.012L34.1,30.7l.012-.009.006,0c.006,0,.015,0,.021-.009s-.006,0,0,0l.012-.006.018-.012.006,0,.018-.009v0l.032-.015.021-.012a.225.225,0,0,1,.053-.029h0c.164-.1.335-.2.5-.305a1.3,1.3,0,0,0,.4-1.8A1.45,1.45,0,0,0,34,27.892ZM40.7,15.89l-.062,0a1.308,1.308,0,0,0-1.251,1.3,12.724,12.724,0,0,1-.188,2.165,1.305,1.305,0,0,0,1.066,1.507,1.476,1.476,0,0,0,.276.021,1.312,1.312,0,0,0,1.234-1.09v-.012l.006-.012,0-.006,0-.006v-.006l0-.006v-.009l0-.006v-.023a.012.012,0,0,0,.006-.012v-.015c.056-.338.1-.676.135-1.022l0,0,0-.009v0l0-.012v-.029l.006-.009v0l0-.009V18.58l0-.009V18.56l.006,0-.006-.009v-.012c.006,0,.006-.006.006-.009v-.05l.006-.009v0c.035-.426.056-.858.056-1.292a1.306,1.306,0,0,0-1.3-1.3Zm-1.157,7.038a1.3,1.3,0,0,0-.687-.162,1.313,1.313,0,0,0-1.09.673,12.585,12.585,0,0,1-1.21,1.806A1.306,1.306,0,0,0,38.6,26.869c.3-.382.593-.781.861-1.187a.239.239,0,0,1,.029-.053l0,0,.012-.015v0l.012-.018c.006-.006.012-.012.012-.015l0,0,.012-.015v0a.025.025,0,0,0,.009-.018l.006,0,.012-.015v0c.006,0,.006-.009.009-.012l0,0,.012-.015,0-.006.006-.012.009-.006.006-.012h.006l.006-.015,0-.006.012-.012,0-.006c0-.006,0-.012.009-.012l0-.009.012-.009s0-.006.006-.009v-.012l.009-.006.009-.012.012-.021.006-.006.006-.012.006-.009s0-.006.006-.009,0-.006.006-.009l.009-.012,0-.009.012-.015c.006,0,.006-.006.006-.009s.006-.006.006-.012l.006-.009.015-.021V25.2l.006-.009.009-.012.009-.009v-.009l.012-.012v-.009c.006,0,.009-.006.009-.012l.006-.006.006-.009.009-.012.006-.009v-.006l.012-.012s0-.006.006-.009l0-.009.009-.012.006-.012.006-.009s0-.009.006-.012,0-.006.006-.006l.006-.012.006-.006.006-.015.006,0,.006-.012.006-.006.006-.012.006-.006.006-.015c.006,0,0-.006,0-.006l.012-.012,0-.006.012-.012v0L40,24.866l.006-.006.006-.015v0l.012-.012.009-.015v0l.012-.018.006,0,.065-.123a1.3,1.3,0,0,0-.52-1.754Z" transform="translate(20.661 16.811)" fill="#5c913b"/>
  <path id="Path_40404" data-name="Path 40404" d="M29,20.389C29,21.831,25.493,23,21.167,23s-7.834-1.169-7.834-2.611,3.507-2.611,7.834-2.611S29,18.947,29,20.389Z" transform="translate(25.83 21.391)" fill="#55acee"/>
  <path id="Path_40405" data-name="Path 40405" d="M22.943,20.389c0,1.442-1.754,2.611-3.915,2.611s-3.915-1.169-3.915-2.611,1.754-2.611,3.915-2.611S22.943,18.947,22.943,20.389Z" transform="translate(29.276 21.391)" fill="#ffcc4d"/>
  <path id="Path_40406" data-name="Path 40406" d="M29.1,36.172a1.308,1.308,0,0,1-1.148-1.93,17.8,17.8,0,0,1,1.31-2.077c-.364.015-.74.023-1.122.023a1.372,1.372,0,0,1-1.378-1.307A1.243,1.243,0,0,1,28,29.578l.214,0c.773,0,1.566-.047,2.276-.112a1.278,1.278,0,0,1,1.069.408.99.99,0,0,1,.112-.082,6.149,6.149,0,0,1,.731-.42,1.282,1.282,0,0,1,.552-.247l.094-.018a3.27,3.27,0,0,1,.975-.179,1.3,1.3,0,0,1,1.049.529,1.317,1.317,0,0,1,.2,1.16c-.214.693-.693.852-1.53,1.019a3.122,3.122,0,0,0-.623.335,1.327,1.327,0,0,1-1.563-.088,1.3,1.3,0,0,1-.006,1.6,14.284,14.284,0,0,0-1.3,2.006,1.3,1.3,0,0,1-1.146.681ZM25.4,32.024a1.171,1.171,0,0,1-.173-.012,18.219,18.219,0,0,1-2.758-.576,1.3,1.3,0,0,1-.881-1.624l.015-.053-.032.059a1.3,1.3,0,0,1-1.777.5,10.787,10.787,0,0,1-2.367-1.777A1.3,1.3,0,1,1,19.268,26.7a8.1,8.1,0,0,0,1.8,1.345,1.308,1.308,0,0,1,.6,1.56,1.309,1.309,0,0,1,1.539-.67,15.421,15.421,0,0,0,2.35.491,1.3,1.3,0,0,1,1.125,1.466,1.291,1.291,0,0,1-1.284,1.137Zm-6.4-6.107a4.625,4.625,0,0,1-3.422-1.46,7.767,7.767,0,0,1-2-5.152c.032-.414-.373-.749-.77-.855a.643.643,0,0,0-.814.308A.652.652,0,0,1,10.8,18.21a1.916,1.916,0,0,1,2.329-1.022,2.212,2.212,0,0,1,1.742,2.221,6.517,6.517,0,0,0,1.7,4.2,3.292,3.292,0,0,0,2.285,1,1.481,1.481,0,0,0,.9-.153,13.469,13.469,0,0,0-2.9-1.8,1.654,1.654,0,0,1-.963-1.234c-.176-1.187,1.046-2.391,2.224-3.551a12.046,12.046,0,0,0,1.022-1.081.658.658,0,0,0,.156-.67,2.667,2.667,0,0,0-1.9-1.181,2.317,2.317,0,0,1-1.745-1.251c-.379-.837-.176-1.936.611-3.354a.652.652,0,1,1,1.14.634c-.743,1.336-.67,1.942-.561,2.185a1.087,1.087,0,0,0,.834.508,3.867,3.867,0,0,1,2.84,2,1.971,1.971,0,0,1-.335,1.906A12.26,12.26,0,0,1,19.027,18.8c-.673.664-1.93,1.9-1.848,2.432.015.109.159.206.279.267,1.962,1.028,3.263,1.774,3.531,2.685a1.189,1.189,0,0,1-.109.937,1.845,1.845,0,0,1-1.527.781,3.51,3.51,0,0,1-.358.015Z" transform="translate(20.809 6.322)" fill="#5c913b"/>
  <path id="Path_40407" data-name="Path 40407" d="M19.5,17.722c0,1.442-.585,2.611-1.3,2.611s-1.3-1.169-1.3-2.611.585-2.611,1.3-2.611S19.5,16.28,19.5,17.722Z" transform="translate(32.721 16.224)" fill="#ffcc4d"/>
  <path id="Path_40408" data-name="Path 40408" d="M19.87,23.678c0,.752-.9,1.36-2.012,1.36s-2.012-.608-2.012-1.36.9-1.36,2.012-1.36S19.87,22.926,19.87,23.678ZM16.771,11.6c.129.552-.593,1.2-1.616,1.445s-1.959-.012-2.091-.564.593-1.2,1.613-1.445,1.962.012,2.094.567Z" transform="translate(25.279 8.147)" fill="#ffcc4d"/>
  <path id="Path_40409" data-name="Path 40409" d="M32.4,27.846c.235.182.634-1.9.576-2.552a8.606,8.606,0,0,1,.217-2.411,9.087,9.087,0,0,0-.085-3.484c.22-.018.482-.088.514-.355-1.013.373-1.251-2.132-2.224-3.575a11.748,11.748,0,0,0-3.343-3.161,2.527,2.527,0,0,1,.423-.7c-1.5.752-3.842-1.971-7.3-1.768-.775.076-1.143.123-1.342.6-.646.053-1.3.2-1.3,1.046a.6.6,0,0,0,.6.576c.564.164,1.022.035,1.407.825l.1.814s-.505-.646-.781-.746l.17-.347a1.164,1.164,0,0,0-.723-.029,3.788,3.788,0,0,0-1.812-.344l-.156-.652c-.141.4-.458.382-.5.761-.088-.27-.206-.608-.291-.881-.285.388-.2.8-.3,1.207a.235.235,0,0,1-.391-.162,5.049,5.049,0,0,1-.068-.726,2.436,2.436,0,0,0-.529,1.146l-.217-.679c.009.8-.681,1.281-1.334,1.845-.185.341.029.341.044.517l.344.173.62-.044c.1.129.018.138.288.22.72.2,1.618-.664,2.323.7-.323.27-.649.9-.546,1.025.129,0-.261.182.267.015a4.568,4.568,0,0,0-.919,1.278c-.062.153.22-.021.162.253l.129-.015c-1.251,1.351-.041,2.808-.176,3.586.209.338.235-.009.5-.041a9.55,9.55,0,0,0,1.237,2.3l-.814.009a2.07,2.07,0,0,0,.6,1.019l-.546.173a2.973,2.973,0,0,0-.919.717c-.179.438.869.543,1.375.623l-.018.529a4.135,4.135,0,0,0,1.7-.2l.2-.153.446.247c.15,0,.382-.6.273-1.052.288.341.558.893.846,1.237l.27-.035c.247.388.582.775.828,1.163l.273.106a.458.458,0,0,0,.382-.388l.126.22.435-.3.3-.059.226.37c.132-.05.264-.341.27-.646.135.27.173.247.27.317l.2-.423L25.8,28.543l.819.047c.294.2,1.093.323,1.231,0,.658.282,1.433-.035,1.4-.35a2.757,2.757,0,0,0,1.539.038c.112-.012.4-.294.129-.505-2-1.4-4.97-3.7-6.118-4.259a5.97,5.97,0,0,0-.646-2.306l.27-.455a2.373,2.373,0,0,0,1.477.773c.444.352.6.887,1.043,1.375l.4.073A6.749,6.749,0,0,0,25.891,20.7,10.061,10.061,0,0,1,27.5,21.9a13.2,13.2,0,0,1,.693,1.6c.209.132.423.623.394.217a10.536,10.536,0,0,0-.585-2.05c.852.673.84,1.724,1.1,2.362.217.323.326.758.42.655l-.25-1.974-.147-.723c.629.364.855,1.748,1.148,3.407,0,.264.106.552.091.723.135.167.291.629.288.355a24.05,24.05,0,0,0-.185-3.319,3.059,3.059,0,0,1,.079-.869c.229,1.119.476,2.335.708,3.451v.822l.344.347c.065-.679.144-1.351.211-2.027l-.258-2.414v-.69c-.006-.244.223-.2.364.079.035.593.035,1.054.059,1.645a18.876,18.876,0,0,1,.223,2.027,9.638,9.638,0,0,0,.206,2.332Z" transform="translate(26.427 5.982)" fill="#c1694f"/>
</svg>
