<svg id="MHL" xmlns="http://www.w3.org/2000/svg" width="93.996" height="67.886" viewBox="0 0 93.996 67.886">
  <path id="Path_40285" data-name="Path 40285" d="M93.995,61.885A10.445,10.445,0,0,1,83.55,72.33H10.444A10.445,10.445,0,0,1,0,61.885v-47A10.445,10.445,0,0,1,10.444,4.444H83.55A10.445,10.445,0,0,1,93.995,14.889Z" transform="translate(0.001 -4.444)" fill="#003893"/>
  <path id="Path_40286" data-name="Path 40286" d="M88.881,5.313.742,66.52c.065.085.138.167.209.256l91.6-48.348V13.205a10.382,10.382,0,0,0-3.675-7.892Z" transform="translate(1.44 -2.761)" fill="#f4900c"/>
  <path id="Path_40287" data-name="Path 40287" d="M1.069,58.431,92.418,25.442V9.778L.813,58.126c.082.1.164.206.253.305Z" transform="translate(1.578 5.889)" fill="#eee"/>
  <path id="Path_40288" data-name="Path 40288" d="M20.2,6.148l.8,13.462,2.667-5.634L22.507,20.1l4.28-4.535L23.793,21.04l5.472-2.993-4.535,4.28,6.127-1.154-5.634,2.67,13.462.8-13.462.8L30.857,28.1,24.73,26.95l4.535,4.28-5.472-2.993,2.993,5.472-4.28-4.532L23.661,35.3l-2.667-5.634-.8,13.459-.8-13.459L16.729,35.3l1.154-6.124L13.6,33.708,16.6,28.236l-5.472,2.993,4.535-4.28L9.533,28.1l5.634-2.667-13.462-.8,13.462-.8-5.634-2.67,6.127,1.154-4.535-4.28L16.6,21.04,13.6,15.568l4.28,4.535-1.154-6.127L19.4,19.61Z" transform="translate(3.306 -1.143)" fill="#fff"/>
</svg>
