<svg id="MKD" xmlns="http://www.w3.org/2000/svg" width="93.993" height="67.88" viewBox="0 0 93.993 67.88">
  <path id="Path_40289" data-name="Path 40289" d="M90.382,7.05l-6.835.006L79.632,4.445H52.218L47,7.056,41.773,4.445H14.359L10.444,7.056,3.609,7.05A10.369,10.369,0,0,0,0,14.887V31.859l2.611,6.527L0,44.912V61.883A10.375,10.375,0,0,0,3.609,69.72l6.835-.006,3.915,2.611H41.773L47,69.714l5.222,2.611H79.632l3.915-2.611,6.835.006a10.369,10.369,0,0,0,3.607-7.837V44.912l-2.611-6.527,2.611-6.527V14.887A10.375,10.375,0,0,0,90.382,7.05Z" transform="translate(0.004 -4.445)" fill="#d20000"/>
  <path id="Path_40290" data-name="Path 40290" d="M93.993,44.912V31.859L58.273,36.82a11.374,11.374,0,0,0-2.033-5.111L90.418,7.024a10.394,10.394,0,0,0-6.87-2.579H79.633L54.4,29.747a11.337,11.337,0,0,0-6.245-2.679L52.219,4.445H41.774l4.059,22.623a11.328,11.328,0,0,0-6.245,2.679L14.36,4.445H10.445A10.422,10.422,0,0,0,3.572,7.024L37.753,31.709A11.328,11.328,0,0,0,35.72,36.82L0,31.859V44.912l35.72-4.961a11.374,11.374,0,0,0,2.033,5.111L3.575,69.749a10.4,10.4,0,0,0,6.87,2.576H14.36l25.228-25.3A11.337,11.337,0,0,0,45.833,49.7L41.774,72.325H52.219L48.16,49.7A11.328,11.328,0,0,0,54.4,47.024l25.228,25.3h3.915a10.416,10.416,0,0,0,6.873-2.579L56.24,45.062a11.327,11.327,0,0,0,2.033-5.111l35.72,4.961Z" transform="translate(0 -4.445)" fill="#ffe600"/>
  <path id="Path_40291" data-name="Path 40291" d="M23.542,12.107A11.435,11.435,0,1,0,34.977,23.542,11.448,11.448,0,0,0,23.542,12.107Zm0,20.2a8.765,8.765,0,1,1,8.765-8.765,8.776,8.776,0,0,1-8.765,8.765Z" transform="translate(23.455 10.398)" fill="#d20000"/>
</svg>
