<svg id="MLT" xmlns="http://www.w3.org/2000/svg" width="93.993" height="67.889" viewBox="0 0 93.993 67.889">
  <path id="Path_40371" data-name="Path 40371" d="M52.551,4.446H16V72.329H52.551A10.445,10.445,0,0,0,63,61.884v-47A10.445,10.445,0,0,0,52.551,4.443Z" transform="translate(30.996 -4.443)" fill="#cf142b"/>
  <path id="Path_40372" data-name="Path 40372" d="M10.445,4.444A10.445,10.445,0,0,0,0,14.889v47A10.445,10.445,0,0,0,10.445,72.33H47V4.447H10.445Z" transform="translate(0 -4.441)" fill="#eee"/>
  <path id="Path_40373" data-name="Path 40373" d="M1.47,8.583H24.16V15.6H1.47Z" transform="translate(2.848 3.577)" fill="#cf142b"/>
  <path id="Path_40374" data-name="Path 40374" d="M4.139,5.915h7.017v22.69H4.139Z" transform="translate(8.018 -1.591)" fill="#cf142b"/>
  <path id="Path_40375" data-name="Path 40375" d="M8.178,12.495a2.406,2.406,0,1,1-2.406-2.406A2.407,2.407,0,0,1,8.178,12.495Z" transform="translate(6.523 6.495)" fill="#cf142b"/>
  <path id="Path_40376" data-name="Path 40376" d="M10.529,12.495a2.406,2.406,0,1,1-2.406-2.406A2.407,2.407,0,0,1,10.529,12.495Z" transform="translate(11.077 6.495)" fill="#cf142b"/>
  <path id="Path_40377" data-name="Path 40377" d="M8.178,10.319A2.406,2.406,0,1,1,5.773,7.913,2.407,2.407,0,0,1,8.178,10.319Z" transform="translate(6.523 2.279)" fill="#cf142b"/>
  <path id="Path_40378" data-name="Path 40378" d="M10.529,10.319A2.406,2.406,0,1,1,8.124,7.913,2.407,2.407,0,0,1,10.529,10.319Z" transform="translate(11.077 2.279)" fill="#cf142b"/>
  <path id="Path_40379" data-name="Path 40379" d="M7.251,12.127A1.848,1.848,0,1,1,5.4,10.279,1.847,1.847,0,0,1,7.251,12.127Z" transform="translate(6.889 6.863)" fill="#99aab5"/>
  <path id="Path_40380" data-name="Path 40380" d="M9.6,12.127a1.848,1.848,0,1,1-1.848-1.848A1.847,1.847,0,0,1,9.6,12.127Z" transform="translate(11.447 6.863)" fill="#99aab5"/>
  <path id="Path_40381" data-name="Path 40381" d="M7.251,9.951A1.848,1.848,0,1,1,5.4,8.1,1.847,1.847,0,0,1,7.251,9.951Z" transform="translate(6.889 2.647)" fill="#99aab5"/>
  <path id="Path_40382" data-name="Path 40382" d="M9.6,9.951A1.848,1.848,0,1,1,7.757,8.1,1.847,1.847,0,0,1,9.6,9.951Z" transform="translate(11.447 2.647)" fill="#99aab5"/>
  <path id="Path_40383" data-name="Path 40383" d="M13.234,12.935A4.744,4.744,0,1,1,8.491,8.191,4.743,4.743,0,0,1,13.234,12.935Z" transform="translate(7.259 2.818)" fill="#ccd6dd"/>
  <path id="Path_40384" data-name="Path 40384" d="M4.444,6.222H9.666V27.109H4.444Z" transform="translate(8.609 -0.997)" fill="#ccd6dd"/>
  <path id="Path_40385" data-name="Path 40385" d="M1.778,8.889H22.665v5.222H1.778Z" transform="translate(3.444 4.17)" fill="#ccd6dd"/>
  <path id="Path_40386" data-name="Path 40386" d="M10.578,11.925A3.143,3.143,0,1,1,7.435,8.782,3.143,3.143,0,0,1,10.578,11.925Z" transform="translate(8.315 3.963)" fill="#b2c0c9"/>
  <path id="Path_40387" data-name="Path 40387" d="M8.86,11.754a1.675,1.675,0,0,1,.126-.123l.023-.018c.109.056.217.123.32.188.209.129.872-.173.573-.358a1.229,1.229,0,0,0-.834-.291,1.328,1.328,0,0,0-.623.317,4.559,4.559,0,0,0-.076-.482.194.194,0,0,0,.065-.179.937.937,0,0,1,.106-.458.111.111,0,0,0-.065-.144,1.085,1.085,0,0,0,.062-.1,2.848,2.848,0,0,0,.282.082.683.683,0,0,0,.508-.135c.12-.094.082-.191-.059-.217a3.778,3.778,0,0,1-.7-.273.65.65,0,0,0-.505.076c-.085.047-.22.173-.082.241-.015.015-.035.576-.041.593-.115.247-.308-1.4-.441,1.216H7.45a3.763,3.763,0,0,1-.35-1.081c.194-.038.068-.69.068-.822V9.713c0-.038.294-.065.273-.085.079-.05.305-.117.235-.176-.109-.091-.261-.029-.382.018-.035-.018-.035-.032-.073-.035a.2.2,0,0,0-.059,0c.141-.059.261-.153.223-.258a.209.209,0,0,1,0-.182c.176-.3-.549-.235-.67-.024a.457.457,0,0,0-.044.4c.032.1.159.132.294.12a.411.411,0,0,0-.176.17l-.009.024a.957.957,0,0,0-.311.065,10.159,10.159,0,0,0-1.257.546c-.065.038-.247.164-.082.217a.62.62,0,0,0,.341-.018.248.248,0,0,0,.015.05,1.183,1.183,0,0,0,.4.329.539.539,0,0,0,.511-.059c.094-.059.2-.211.079-.294a.7.7,0,0,1,.176-.159,2.294,2.294,0,0,0,.07.482.258.258,0,0,0,.059.1.723.723,0,0,0-.235.088c-.085.053-.188.17-.109.25a2.29,2.29,0,0,0-.535.162c-.065.029-.209.112-.223.2l-.25.032c-.132.021-.352.082-.4.235a.933.933,0,0,0-.188.029c-.153.021-.444.088-.458.223a1.2,1.2,0,0,0,.2.64.649.649,0,0,0-.194.344c-.062.311.67.2.723-.076.009-.041.012-.082.05-.109.091-.065.182-.194.1-.282.032-.026.053-.047.041-.065a1.394,1.394,0,0,1-.2-.549.441.441,0,0,0,.123.026,1.323,1.323,0,0,0,.446.679.3.3,0,0,0,.226.035.259.259,0,0,0-.088.109,2.645,2.645,0,0,0-.153.687.206.206,0,0,0,.156.214,2.02,2.02,0,0,1,.79.4c.253.194.884-.162.555-.414a2.651,2.651,0,0,0-.752-.414A1.609,1.609,0,0,1,6.507,13a.242.242,0,0,0,.018-.123A1.139,1.139,0,0,0,6.7,12.8a14.434,14.434,0,0,1,1.533-.57c-.021.073.023.144.129.167.214.05.6.047.673.294s-.012.546.147.764.843-.041.67-.285a.757.757,0,0,1-.056-.347,1.117,1.117,0,0,0-.088-.458c-.15-.282-.632-.3-.9-.367-.094-.021-.2-.144-.3-.112.009-.018-.009-.185-.056-.185H8.431s0,.126.006.123c.159-.012.314.059.414-.062Z" transform="translate(8.493 3.975)" fill="#99aab5"/>
</svg>
