<svg id="MMR" xmlns="http://www.w3.org/2000/svg" width="93.999" height="67.886" viewBox="0 0 93.999 67.886">
  <path id="Path_40295" data-name="Path 40295" d="M0,30.889A10.445,10.445,0,0,0,10.445,41.334H83.551A10.445,10.445,0,0,0,94,30.889V20.444H0V30.889Z" transform="translate(0.003 26.552)" fill="#ea2839"/>
  <path id="Path_40296" data-name="Path 40296" d="M0,11.556H93.993V37.665H0Z" transform="translate(0.003 9.334)" fill="#34b232"/>
  <path id="Path_40297" data-name="Path 40297" d="M83.55,4.444H10.444A10.445,10.445,0,0,0,0,14.889V25.334H93.992V14.889A10.445,10.445,0,0,0,83.547,4.444Z" transform="translate(0.001 -4.444)" fill="#fecb01"/>
  <path id="Path_40298" data-name="Path 40298" d="M33.16,7.787l6.145,18.9H59.182L43.1,38.006l6.142,18.716L33.16,44.946,17.079,56.587l6.145-18.555L7.142,26.694H27.019Z" transform="translate(13.839 2.032)" fill="#fff"/>
</svg>
