<svg id="MNE" xmlns="http://www.w3.org/2000/svg" width="93.996" height="67.886" viewBox="0 0 93.996 67.886">
  <path id="Path_40271" data-name="Path 40271" d="M93.995,61.885A10.445,10.445,0,0,1,83.55,72.33H10.444A10.445,10.445,0,0,1,0,61.885v-47A10.445,10.445,0,0,1,10.444,4.444H83.55A10.445,10.445,0,0,1,93.995,14.889Z" transform="translate(0.001 -4.444)" fill="#ffcc4d"/>
  <path id="Path_40272" data-name="Path 40272" d="M89.661,60.163A7.833,7.833,0,0,1,81.828,68H8.722A7.834,7.834,0,0,1,.888,60.163v-47A7.834,7.834,0,0,1,8.722,5.333H81.828a7.834,7.834,0,0,1,7.834,7.834Z" transform="translate(1.723 -2.722)" fill="#dd2e44"/>
  <path id="Path_40273" data-name="Path 40273" d="M37.612,23.289C39.189,17,34.075,11.431,34.075,11.431l-1.339,6.53-2.755,3.63,1.143,2.033-1.14.632L27.276,20.5l1-2.268,3.489-1.8L27.9,15.161l-2.338,2.723-.711,3.011-.893-3.011-2.526-2.723-3.625.825,3.037,2.027,1.213,2.494-2.488,3.871-1.36-.755,1.143-2.033L16.6,17.961l-1.339-6.53S10.154,17,11.729,23.289s8.357,7.173,8.357,7.173l-4.312,2.917-2.526.2-.432,2.773L15.1,37.417l2.009-2.2,5.008-1.836L19.266,37.54l5.587,2.981,5.4-2.978-2.79-3.936v-.162l4.805,1.777,1.986,2.2,2.276-1.063-.438-2.773-2.529-.2L29.252,30.47c0-.006,6.779-.887,8.357-7.179Z" transform="translate(22.141 9.092)" fill="#ffcc4d"/>
  <path id="Path_40274" data-name="Path 40274" d="M18.8,17.333V20.72a3.574,3.574,0,0,0-1.959-1.143,3.171,3.171,0,0,1-2.285-2.244H18.8Zm.006,0V20.72a3.574,3.574,0,0,1,1.959-1.143,3.171,3.171,0,0,0,2.285-2.244H18.808Z" transform="translate(28.2 20.526)" fill="#5c913b"/>
  <path id="Path_40275" data-name="Path 40275" d="M15.507,14.931a4.686,4.686,0,0,0,3.3.082v6.65H14.57a9.022,9.022,0,0,1,.408-3.3,2.587,2.587,0,0,0-.326-2.121l.858-1.3Zm6.615,0a4.686,4.686,0,0,1-3.3.082v6.65h4.241a9.022,9.022,0,0,0-.408-3.3,2.587,2.587,0,0,1,.326-2.121l-.858-1.3ZM32.07,26.354a2.08,2.08,0,1,1-2.08-2.08A2.078,2.078,0,0,1,32.07,26.354Z" transform="translate(28.188 15.872)" fill="#269"/>
  <path id="Path_40276" data-name="Path 40276" d="M20.279,13.151c0,.576-1.14,1.04-2.55,1.04s-2.55-.464-2.55-1.04,1.14-1.04,2.55-1.04S20.279,12.575,20.279,13.151Z" transform="translate(29.411 10.409)" fill="#ffcc4d"/>
  <path id="Path_40277" data-name="Path 40277" d="M18.665,10.889c-2.209,0-4,1.031-4,2.306s1.789,2.306,4,2.306,4-1.031,4-2.306S20.873,10.889,18.665,10.889Zm-2.817,3.272c-.491-.214-.491-.784-.408-1.193s.775-.814.775-.814-.473.99-.073,1.413.2.811-.294.6Zm1.689-.035c-.176-.056-.2-.25-.311-.582a1.662,1.662,0,0,1-.153-.984c.082-.408,1.1-.749,1.1-.749a3.407,3.407,0,0,0-.2,1.237,2.516,2.516,0,0,0,.408.84s-.661.294-.837.238Zm2.523-.582c-.112.332-.132.529-.311.582a2.537,2.537,0,0,1-.84-.232,2.55,2.55,0,0,0,.408-.84,3.407,3.407,0,0,0-.2-1.237s1.019.341,1.1.749A1.621,1.621,0,0,1,20.06,13.544Zm1.378.617c-.491.214-.693-.173-.294-.6s-.073-1.413-.073-1.413.693.408.775.814.082.981-.408,1.193Zm10.4,20.247a.533.533,0,0,1-.646.385L28.3,34.044a.537.537,0,0,1-.382-.646.531.531,0,0,1,.646-.382l2.881.749a.526.526,0,0,1,.382.646Z" transform="translate(28.417 8.042)" fill="#ffcc4d"/>
  <path id="Path_40278" data-name="Path 40278" d="M37.041,23.748a.469.469,0,1,1-.908-.238l.646-2.952a.469.469,0,1,1,.908.238Zm-20,7.164c-.156.059-.435-.267-.614-.726l-5.079-12.9c-.182-.461-.2-.887-.047-.952l.258-.1a1.064,1.064,0,0,1,1,.573l5.079,12.9a1.067,1.067,0,0,1-.341,1.1ZM23.174,16.22h4.259v2.943H23.174Z" transform="translate(21.696 18.369)" fill="#ffcc4d"/>
</svg>
