<svg id="MNG" xmlns="http://www.w3.org/2000/svg" width="93.996" height="67.886" viewBox="0 0 93.996 67.886">
  <path id="Path_40299" data-name="Path 40299" d="M93.995,61.885A10.445,10.445,0,0,1,83.55,72.33H10.444A10.445,10.445,0,0,1,0,61.885v-47A10.445,10.445,0,0,1,10.444,4.444H83.55A10.445,10.445,0,0,1,93.995,14.889Z" transform="translate(0.001 -4.444)" fill="#c4272f"/>
  <path id="Path_40300" data-name="Path 40300" d="M10.667,4.444H42V72.327H10.667Z" transform="translate(20.668 -4.444)" fill="#005197"/>
  <path id="Path_40301" data-name="Path 40301" d="M1.143,30.842h4.1V63.663h-4.1ZM7.4,37H19.51v2.053H7.4Zm14.26-6.154h4.1V63.663h-4.1ZM7.4,55.454H19.51v2.053H7.4Zm.226-24.611H19.278L13.45,34.916ZM7.4,60.077h12.11l-6.054,4.236ZM17.554,18.529a4.1,4.1,0,1,1-4.1-4.1A4.1,4.1,0,0,1,17.554,18.529Zm-2.05-7.69c0,1.983-.919,2.564-2.053,2.564S11.4,12.822,11.4,10.839s1.41-4.617,2.053-4.617S15.5,8.854,15.5,10.839Z" transform="translate(2.217 -1)" fill="#f9cf01"/>
  <path id="Path_40302" data-name="Path 40302" d="M10.643,15.348a9.921,9.921,0,0,1-8.051-3.857,8.187,8.187,0,0,0,16.1,0A9.927,9.927,0,0,1,10.643,15.348Zm6.709,21.695A6.68,6.68,0,0,0,13.046,30.8a3.117,3.117,0,0,1,1.516,2.773,3.571,3.571,0,0,1-3.915,3.907v.023a3.113,3.113,0,0,0,0,6.224v.021c.026,0,.047-.009.073-.009s.023.009.035.009c.038,0,.07-.021.109-.021a6.692,6.692,0,0,0,6.488-6.685ZM9.677,40.62A1.078,1.078,0,1,1,10.755,41.7,1.073,1.073,0,0,1,9.677,40.62Z" transform="translate(5.024 9.208)" fill="#f9cf01"/>
  <path id="Path_40303" data-name="Path 40303" d="M9.758,17.923v-.015l-.056.006-.026-.006c-.029,0-.053.015-.082.015a6.684,6.684,0,0,0-2.238,12.93A3,3,0,0,1,5.9,28.244c0-2.558,1.369-3.974,3.733-3.974l.006-.047c.012,0,.023.009.035.009a3.155,3.155,0,0,0,.079-6.309Zm-.079,4.23a1.091,1.091,0,1,1,1.09-1.09A1.091,1.091,0,0,1,9.678,22.152Z" transform="translate(5.91 21.639)" fill="#f9cf01"/>
</svg>
