<svg id="MNP" xmlns="http://www.w3.org/2000/svg" width="93.996" height="67.886" viewBox="0 0 93.996 67.886">
  <path id="Path_40308" data-name="Path 40308" d="M93.995,61.885A10.445,10.445,0,0,1,83.55,72.33H10.444A10.445,10.445,0,0,1,0,61.885v-47A10.445,10.445,0,0,1,10.444,4.444H83.55A10.445,10.445,0,0,1,93.995,14.889Z" transform="translate(0.001 -4.444)" fill="#265fb5"/>
  <path id="Path_40309" data-name="Path 40309" d="M50.515,30.294a2.964,2.964,0,0,0-.579-1.516,2.642,2.642,0,0,0,.758-1.874,2.911,2.911,0,0,0-1.116-1.915,2.1,2.1,0,0,0,.4-1.251,1.2,1.2,0,0,0-.67-1.16,1.258,1.258,0,0,0-.132-1.163,1.374,1.374,0,0,0-1.028-.4,1.207,1.207,0,0,0,.176-1.383,1.882,1.882,0,0,0-1.116-.981,2.063,2.063,0,0,0-.535-1.695,2.817,2.817,0,0,0-1.962-.626s.22-1.469-.4-2.1-2.009-.223-2.009-.223a1.926,1.926,0,0,0-.849-1.962,5.709,5.709,0,0,0-2.544-.27c.132-.491-.4-1.116-1.207-1.383a2.344,2.344,0,0,0-1.607.132s-.758-.893-1.428-.937a2.082,2.082,0,0,0-1.16.27,1.391,1.391,0,0,0-1.163-.8,6.863,6.863,0,0,0-2.409,1.072,8.71,8.71,0,0,0-2.72-.8,2.038,2.038,0,0,0-1.383.623A2.325,2.325,0,0,0,23.826,9.9c-1.069.491-1.16,1.2-1.16,1.2a2.727,2.727,0,0,0-1.742-.132,1.6,1.6,0,0,0-1.2,1.339,1.872,1.872,0,0,0-1.695.223c-.849.579-.623,1.16-.623,1.16a1.543,1.543,0,0,0-1.654.044,1.777,1.777,0,0,0-1.025,1.472s-.67-.176-1.472.893-.67,1.516-.67,1.516-.849.044-1.339,1.3a1.938,1.938,0,0,0,0,1.874A2.95,2.95,0,0,0,9.992,22.17a3.058,3.058,0,0,0-.176,2.144,1.738,1.738,0,0,0-.893,1.742,1.724,1.724,0,0,0,.937,1.607,1.818,1.818,0,0,0-.849,1.428,1.479,1.479,0,0,0,.582,1.428,1.623,1.623,0,0,0-.714,1.251c-.044.843,1.428,1.339,1.428,1.339a1.279,1.279,0,0,0-.535,1.116c0,.8,1.069,1.154,1.069,1.154s-.446.405-.176,1.433a1.3,1.3,0,0,0,1.2,1.022c-.267.761.626,1.028.626,1.028s-.4.267.311,1.119a1.264,1.264,0,0,0,1.428.529.957.957,0,0,0,.579,1.251c.091,1.654,1.918,1.251,1.918,1.251.314,1.516,1.472,1.16,1.472,1.16a1.138,1.138,0,0,0,.27,1.472,2.221,2.221,0,0,0,1.962.532c.67,1.072,2.141,1.469,3.795,1.207s3.437-.358,4.285-.579a61.246,61.246,0,0,1,6.474.044,5.987,5.987,0,0,0,3.3-.132c1.16-.626,1.069-1.207,1.069-1.207s.623.4,1.83-.176A1.752,1.752,0,0,0,42.17,43.5a2.961,2.961,0,0,0,1.742-.576c.623-.576.4-.937.4-.937a5.228,5.228,0,0,0,1.334-.934.758.758,0,0,0,.047-.9s.444.223,1.248-.491a2.464,2.464,0,0,0,.714-1.877s.582.088,1.072-.714a1.723,1.723,0,0,0,.176-1.516,3.671,3.671,0,0,0,1.072-1.516,3.466,3.466,0,0,0,.044-2.1,3.119,3.119,0,0,0,.488-1.648Zm-5.713,1.7c.044.132-.358.047-.89.808a2.167,2.167,0,0,0-.176,1.783,9.963,9.963,0,0,0-1.028.94,2.27,2.27,0,0,0-.4,1.292,2.663,2.663,0,0,0-1.3.667,2.474,2.474,0,0,0-.758,1.739s-.535-.132-1.339.54a2.2,2.2,0,0,0-.8,1.563s-.582-.449-1.789.132a10.845,10.845,0,0,0-2.273,1.563s-9.059-.088-9.728-1.072-2.456-.529-2.456-.529.176-.587-.714-1.163a2.2,2.2,0,0,0-1.742-.311s.491-.267.267-.717-.846-.4-.846-.4.355-.132.132-.937-1.516-.714-1.516-.714a.792.792,0,0,0,.176-1.116,1.345,1.345,0,0,0-1.339-.623,2.9,2.9,0,0,0,0-1.336,1.192,1.192,0,0,0-.89-.808s.579-.088.444-.9a1.86,1.86,0,0,0-1.025-1.2,4.889,4.889,0,0,0,.179-1.428,1.126,1.126,0,0,0-.538-1.116,1.439,1.439,0,0,0,.761-1.069,2.881,2.881,0,0,0-.4-1.563,2.132,2.132,0,0,0,.626-.937.962.962,0,0,0-.091-.893,2.138,2.138,0,0,0,.8-.984,3.1,3.1,0,0,0,.132-1.292,2.084,2.084,0,0,0,.937-.67,1,1,0,0,0,.223-1.025,2.236,2.236,0,0,0,1.516-.491,2.205,2.205,0,0,0,.538-1.207,2.15,2.15,0,0,0,1.428-.491c.8-.579.714-1.116.714-1.116a1.847,1.847,0,0,0,1.381-.176,2.836,2.836,0,0,0,.937-1.116s.223.314,1.16,0a4.181,4.181,0,0,0,1.3-.623,1.177,1.177,0,0,0,1.251.355,4.144,4.144,0,0,0,1.607-.758s.135.623,1.116.446a3.389,3.389,0,0,0,1.381-.493.78.78,0,0,0,.626.849,2.519,2.519,0,0,0,1.383-.091.74.74,0,0,0,.579.582,1.026,1.026,0,0,0,.846-.267,1.589,1.589,0,0,0,.852,1.116,3.766,3.766,0,0,0,2.006.176s-.044.358.491.623a4.206,4.206,0,0,0,1.069.358.876.876,0,0,0,.673,1.025,4.882,4.882,0,0,0,1.336.27,4.6,4.6,0,0,0,.4,1.251,2.156,2.156,0,0,0,1.116.893,1.561,1.561,0,0,0-.132,1.116c.132.717,1.157,1.025,1.157,1.025a1.709,1.709,0,0,0-.088,1.163,2.87,2.87,0,0,0,.67,1.16,4.3,4.3,0,0,0-.358,1.251,7.6,7.6,0,0,0,.67,2.141,1.382,1.382,0,0,0-.67,1.207,5.165,5.165,0,0,0,.4,1.595Z" transform="translate(17.201 4.483)" fill="#fff"/>
  <path id="Path_40310" data-name="Path 40310" d="M27.518,32.481A17.261,17.261,0,0,1,9.965,15.88c-.009.2-.012.408-.012.608a17.566,17.566,0,1,0,35.133,0c0-.2-.006-.408-.012-.608a17.263,17.263,0,0,1-17.556,16.6Z" transform="translate(19.285 17.711)" fill="#ffb636"/>
  <path id="Path_40311" data-name="Path 40311" d="M22.72,10.778A1.818,1.818,0,0,0,21,10.064a7.049,7.049,0,0,1-3.6-.922,1.676,1.676,0,0,0-2.347,1.4,1.62,1.62,0,0,0,1.812,1.727,7.064,7.064,0,0,0,3.539-1.16,3.842,3.842,0,0,1,2.318-.329Z" transform="translate(29.155 4.367)" fill="#b58fe5"/>
  <path id="Path_40312" data-name="Path 40312" d="M16.866,12.28a1.618,1.618,0,0,1-1.821-1.736,1.5,1.5,0,0,1,.775-1.287,1.658,1.658,0,0,1,1.586-.117,8.006,8.006,0,0,0,3.21.943A3.251,3.251,0,0,0,21,10.06a2.066,2.066,0,0,1,.264-.018,1.811,1.811,0,0,1,1.469.737l.015.021-.026,0a3.9,3.9,0,0,0-2.312.326,7.056,7.056,0,0,1-3.545,1.16Zm-.109-3.272a1.773,1.773,0,0,0-.928.267,1.484,1.484,0,0,0-.764,1.269,1.6,1.6,0,0,0,1.8,1.715A7.025,7.025,0,0,0,20.4,11.1a3.807,3.807,0,0,1,2.3-.332,1.809,1.809,0,0,0-1.7-.69,3.341,3.341,0,0,1-.385.024A8.045,8.045,0,0,1,17.4,9.152a1.428,1.428,0,0,0-.643-.147Z" transform="translate(29.149 4.362)" fill="#6b26b5"/>
  <path id="Path_40313" data-name="Path 40313" d="M22.665,12.1c1.577,0,1.6,1.4,1.636,1.962a5.011,5.011,0,0,0,.652,2.229,5.775,5.775,0,0,1,.9,2.08c.062.473,0,.952-.417.326a8.567,8.567,0,0,0-2.347-2.409c-.952-.535-2.112-1.31-2.112-2.5A1.657,1.657,0,0,1,22.665,12.1Z" transform="translate(40.634 10.39)" fill="#b58fe5"/>
  <path id="Path_40314" data-name="Path 40314" d="M25.751,19.022c-.079,0-.182-.1-.317-.3a8.658,8.658,0,0,0-2.344-2.409c-1.049-.587-2.121-1.348-2.121-2.508a1.677,1.677,0,0,1,1.7-1.7c1.539,0,1.61,1.345,1.645,1.915l0,.056a5,5,0,0,0,.649,2.224,5.725,5.725,0,0,1,.9,2.085c.018.135.059.579-.085.634l-.032.006Zm-3.078-6.9A1.658,1.658,0,0,0,20.987,13.8c0,1.151,1.066,1.906,2.109,2.491a8.612,8.612,0,0,1,2.35,2.411c.159.235.253.294.305.294l.024-.006c.085-.032.115-.267.07-.611a5.594,5.594,0,0,0-.893-2.077,4.994,4.994,0,0,1-.655-2.238l0-.056c-.032-.617-.106-1.9-1.621-1.9Z" transform="translate(40.626 10.386)" fill="#6b26b5"/>
  <path id="Path_40315" data-name="Path 40315" d="M23.636,15.525a1.542,1.542,0,0,1,1.548,1.754,10.926,10.926,0,0,1-.775,2.617c-.238.925-.15,2.232-.329,2.679a2.261,2.261,0,0,1-.414.687,2.326,2.326,0,0,1-.326-1.013,5.647,5.647,0,0,0-.444-2.385,5.947,5.947,0,0,1-1.072-2.644,2.016,2.016,0,0,1,1.815-1.695Z" transform="translate(42.282 17.023)" fill="#b58fe5"/>
  <path id="Path_40316" data-name="Path 40316" d="M23.67,23.286l-.006-.012a2.281,2.281,0,0,1-.329-1.019c-.012-.132-.021-.282-.029-.444a4.306,4.306,0,0,0-.414-1.936l-.115-.2a5.439,5.439,0,0,1-.958-2.456,2.047,2.047,0,0,1,1.824-1.7,1.563,1.563,0,0,1,1.56,1.765,4.317,4.317,0,0,1-.426,1.633,7.685,7.685,0,0,0-.35.987,8.674,8.674,0,0,0-.188,1.577,4.553,4.553,0,0,1-.141,1.1,2.234,2.234,0,0,1-.417.69l-.012.009Zm-.026-7.74a2.02,2.02,0,0,0-1.8,1.683,5.417,5.417,0,0,0,.955,2.444l.117.2a4.315,4.315,0,0,1,.414,1.942c.009.162.015.311.029.446a2.374,2.374,0,0,0,.317,1,2.27,2.27,0,0,0,.4-.673,4.439,4.439,0,0,0,.141-1.093,8.708,8.708,0,0,1,.188-1.583,8.39,8.39,0,0,1,.35-.99,4.275,4.275,0,0,0,.426-1.624,1.558,1.558,0,0,0-1.539-1.745Z" transform="translate(42.274 17.013)" fill="#6b26b5"/>
  <path id="Path_40317" data-name="Path 40317" d="M9.625,13.875a4.04,4.04,0,0,1,.684,1.043,8.142,8.142,0,0,0,.864,2.174A8.345,8.345,0,0,1,12.75,20.3a1.523,1.523,0,0,1-1.577,1.545,2.258,2.258,0,0,1-2.2-1.812c-.091-1.636.864-1.422.743-2.588a13.664,13.664,0,0,1-.059-1.428c-.041-.585-.035-2.144-.035-2.144Z" transform="translate(17.38 13.826)" fill="#b58fe5"/>
  <path id="Path_40318" data-name="Path 40318" d="M11.181,21.871A2.265,2.265,0,0,1,8.972,20.05,2.017,2.017,0,0,1,9.4,18.511a1.292,1.292,0,0,0,.317-1.046,7.269,7.269,0,0,1-.053-1.016c0-.129,0-.25-.009-.411-.038-.576-.032-2.127-.032-2.144v-.026l.018.018a4.053,4.053,0,0,1,.687,1.046,5.917,5.917,0,0,1,.214.664,4.265,4.265,0,0,0,.646,1.5,8.4,8.4,0,0,1,1.58,3.219,1.542,1.542,0,0,1-1.589,1.557ZM9.642,13.917c0,.211-.006,1.58.032,2.115a4.109,4.109,0,0,1,.009.414,7.232,7.232,0,0,0,.053,1.013,1.33,1.33,0,0,1-.317,1.063,2.007,2.007,0,0,0-.426,1.524,2.246,2.246,0,0,0,2.188,1.8,1.519,1.519,0,0,0,1.569-1.536A8.32,8.32,0,0,0,11.172,17.1a4.242,4.242,0,0,1-.652-1.513,5.664,5.664,0,0,0-.214-.661,3.971,3.971,0,0,0-.661-1.019Z" transform="translate(17.372 13.811)" fill="#6b26b5"/>
  <path id="Path_40319" data-name="Path 40319" d="M16.66,10.148a6.488,6.488,0,0,0-1.574,2.35c-.538,1.428-1.1,3.657-2.738,3.657a1.718,1.718,0,0,1-1.727-1.874c0-.714.925-1.489,1.845-1.786a3.868,3.868,0,0,0,1.962-1.31,3.62,3.62,0,0,1,2.112-1.069Z" transform="translate(20.579 6.544)" fill="#b58fe5"/>
  <path id="Path_40320" data-name="Path 40320" d="M12.356,16.173a1.758,1.758,0,0,1-1.739-1.886c0-.74.96-1.51,1.85-1.8a3.881,3.881,0,0,0,1.962-1.3,3.649,3.649,0,0,1,2.118-1.072l0,.021a3.653,3.653,0,0,0-2.1,1.066,3.911,3.911,0,0,1-1.968,1.313c-.884.285-1.839,1.046-1.839,1.774a1.739,1.739,0,0,0,1.718,1.865c1.428,0,2.038-1.721,2.526-3.1.068-.191.132-.376.2-.549a6.506,6.506,0,0,1,1.58-2.353l.012.015a6.488,6.488,0,0,0-1.571,2.344c-.065.173-.129.358-.2.549-.491,1.389-1.1,3.114-2.55,3.114Z" transform="translate(20.571 6.538)" fill="#6b26b5"/>
  <path id="Path_40321" data-name="Path 40321" d="M17.175,11.576c2.291,0,3.986.059,5.175.059s2.382.388,2.382,1.489a1.739,1.739,0,0,1-.593,1.489,2.8,2.8,0,0,1-.15,1.727A2.209,2.209,0,0,1,21.7,17.709c-1.219,0-3.39.029-3.986.029s-1.154-.144-1.545-1.489c-1.163-3.983-.211-4.667,1.01-4.667Zm.684,6.186H22.35c.505,0,.955,0,1.01,1.428s2.561,21.3,2.708,22.787a1.39,1.39,0,0,1-1.1,1.665s-.355.687-1.991,1.16a4.352,4.352,0,0,1-2.8.15,2.863,2.863,0,0,0-1.991,0,2.479,2.479,0,0,1-2.2-.118,1.28,1.28,0,0,1-.743-.9,3.136,3.136,0,0,1-.981-.532c-.535-.411-.505-1.428-.358-2.115s2.409-19.988,2.588-21.36.391-2.171,1.375-2.171Z" transform="translate(26.758 9.373)" fill="#8c8a8c"/>
  <path id="Path_40322" data-name="Path 40322" d="M23.589,11.825,26.265,20.2l8.882.021-7.226,5.164L30.73,33.81l-7.143-5.275L16.44,33.81l2.808-8.424-7.226-5.164L20.9,20.2Z" transform="translate(23.293 9.855)" fill="#fff"/>
  <path id="Path_40323" data-name="Path 40323" d="M13.251,26.334s-.529-1.689-1.727-1.457c-.925.176-.655.655-.358.922s.3.446.564.267a.76.76,0,0,1,.893.059,1.03,1.03,0,0,0,.626.209ZM9.5,21.6a3.008,3.008,0,0,1,.388.538,1.43,1.43,0,0,0,1.339.414c.326-.12.417.864.12,1.131s-.64.4-1.219-.12A2.313,2.313,0,0,1,9.5,21.6Zm2.8.153c.446-.153.861.238.8.834a7.207,7.207,0,0,1-.684,1.786,3.58,3.58,0,0,1-.209-.535c-.088-.3.326-.444.059-.925a1.508,1.508,0,0,1,.029-1.16Zm-1.278-4.285a4.151,4.151,0,0,0,.978.717c.358.117,1.072-.179,1.281.294s.27,1.489-.564,1.219a2.109,2.109,0,0,1-1.369-1.219A5.667,5.667,0,0,1,11.019,17.469Zm4.432-1.339c.358-.388,1.248-.417,1.307.326a6.089,6.089,0,0,1-.564,2.112,5.119,5.119,0,0,1-.209-.684c-.029-.209-.209-.864-.6-1.01s.059-.743.059-.743Zm1.607-1.848a.79.79,0,0,1,1.222.388,4.911,4.911,0,0,1-.446,2.438l-.176-.6c-.059-.209.029-1.01-.655-1.19s.059-1.04.059-1.04ZM19.881,9.7s-1.665,1.516-.684,2.679,1.131,0,1.01-.358-.029-.388-.238-.717a1,1,0,0,1-.088-.952,1.1,1.1,0,0,0,0-.655Z" transform="translate(18.369 5.738)" fill="#ffb636"/>
  <path id="Path_40324" data-name="Path 40324" d="M12.635,14.058a.8.8,0,0,0,.358.861c.27.206.117,1.04.117,1.04s.535-.117.652-1.1-.267-1.486-.535-1.486-.593.684-.593.684Zm2.259-1.428a1.094,1.094,0,0,0,.117,1.428c.444.329.267,1.339.267,1.339a1.676,1.676,0,0,0,.714-1.307,2.376,2.376,0,0,0-.505-1.577l-.59.117Zm2.115-3.243s-1.46,1.281-.717,2.35,1.46-.238,1.19-.505-.714-.505-.535-.981a1.439,1.439,0,0,0,.059-.864Z" transform="translate(24.456 5.134)" fill="#ffb636"/>
  <path id="Path_40325" data-name="Path 40325" d="M14.493,12.12c.476-.15.773.179.861.684A5.954,5.954,0,0,1,14.7,14.8a.728.728,0,0,1-.179-.743c.153-.444-.147-.743-.414-1.01s-.085-.773.388-.922Zm3.422-.922c-.555.129-.861.652-.388,1.043s.446.593.326.89a1.006,1.006,0,0,0,.029.655,1.8,1.8,0,0,0,.8-1.251C18.867,11.612,18.42,11.077,17.915,11.2Zm7.317-1.789a2.126,2.126,0,0,0,.088,1.962c.626.773,1.222.176,1.19-.27s-.446-.535-.714-.714-.414-.176-.358-.444a.674.674,0,0,0-.209-.538Zm.032,2.47c-.27.12-.388.981-.241,1.251s-.206.6-.3.925l-.088.326a2.577,2.577,0,0,0,1.222-.952c.479-.714.505-1.31.206-1.516a1.061,1.061,0,0,0-.8-.032ZM27.82,9.917s-1.31,1.1-1.19,2.144,1.1.8,1.281.3-.153-.922-.206-1.222a1.145,1.145,0,0,1,.147-.714.594.594,0,0,0-.029-.505Z" transform="translate(27.09 5.169)" fill="#ffb636"/>
  <path id="Path_40326" data-name="Path 40326" d="M18.926,11.238c-.27.326-.12.981-.12,1.369s-.444.773-.414,1.134a2.094,2.094,0,0,0,1.516-1.727c.176-1.4-.981-.775-.981-.775Zm1.965-.681a2.551,2.551,0,0,1,2.291-.117s-.211.476-.623.446-.211.834-1.251.981S20.444,10.915,20.891,10.556Zm.652,2.259c-.526.209-.8.925-.3,1.19s.444.417.414.8a1.045,1.045,0,0,0,.211.684,3.427,3.427,0,0,0,.473-1.46C22.436,13.141,22.139,12.577,21.543,12.815Zm1.73.684a1.541,1.541,0,0,1,1.516-1.1,2.461,2.461,0,0,1,1.163.267s-.032.27-.567.3-.567,1.069-1.46,1.134-.649-.6-.649-.6Zm5.319,10.263a1.378,1.378,0,0,1,.834-.355c.5-.032.978.476,1.281.861a3.194,3.194,0,0,1,.444.922s-.414,0-.567-.238-1.31-.059-1.874-.476a2.594,2.594,0,0,1-.532.446c-.3.176-.834.029-1.043.417a2.246,2.246,0,0,1-.564.652,2.758,2.758,0,0,1,.411-1.786c.538-.6.775-.655,1.134-.6a1.156,1.156,0,0,1,.476.15Z" transform="translate(35.629 6.762)" fill="#ffb636"/>
  <path id="Path_40327" data-name="Path 40327" d="M11.847,12.082s.535.358.267,1.457a8.642,8.642,0,0,0-.388,3.393,2.866,2.866,0,0,1-.655-1.786c.088-.893.743-1.516.535-2.2s.241-.861.241-.861Z" transform="translate(21.438 10.353)" fill="#207900"/>
  <path id="Path_40328" data-name="Path 40328" d="M11.84,17.136l-.117-.144a2.859,2.859,0,0,1-.667-1.818,3.509,3.509,0,0,1,.323-1.049,1.667,1.667,0,0,0,.217-1.137c-.217-.714.258-.913.264-.916l.021-.009.018.012c.023.015.558.388.288,1.5a8.751,8.751,0,0,0-.388,3.372l.038.182Zm.032-4.964c-.082.047-.358.244-.191.8a1.726,1.726,0,0,1-.217,1.2,3.552,3.552,0,0,0-.317,1.022,2.662,2.662,0,0,0,.532,1.6,9.708,9.708,0,0,1,.42-3.222c.223-.931-.141-1.316-.229-1.4Z" transform="translate(21.407 10.316)" fill="#103800"/>
  <path id="Path_40329" data-name="Path 40329" d="M11.23,12.8a11.861,11.861,0,0,1,.3,3,2.416,2.416,0,0,1-.834,1.336,4.337,4.337,0,0,0,.326-2.08,8.1,8.1,0,0,1,.209-2.262Z" transform="translate(20.716 11.746)" fill="#207900"/>
  <path id="Path_40330" data-name="Path 40330" d="M10.653,17.43l.082-.173a4.334,4.334,0,0,0,.323-2.056,8.064,8.064,0,0,1,.209-2.276l.047-.191.041.191a12.073,12.073,0,0,1,.3,3.02,2.4,2.4,0,0,1-.852,1.366l-.153.123Zm.655-4.283a7.41,7.41,0,0,0-.162,2.038,4.441,4.441,0,0,1-.258,1.924,2.171,2.171,0,0,0,.676-1.181,11.285,11.285,0,0,0-.256-2.785Z" transform="translate(20.635 11.614)" fill="#103800"/>
  <path id="Path_40331" data-name="Path 40331" d="M10.158,25.588A2.354,2.354,0,0,0,9.77,26.6a.727.727,0,0,0,.652.684c.981,0,.834-1.131.505-1.61a1.486,1.486,0,0,0,.444-.8,1.086,1.086,0,0,0-.355-.952.807.807,0,0,0,.743-.6,1.818,1.818,0,0,0-.12-1.19,1.09,1.09,0,0,0,.773-.717,1.37,1.37,0,0,0-.029-1.1,1.1,1.1,0,0,0,.8-.567,1.385,1.385,0,0,0,.176-1.04s.358.059.773-.479a1.316,1.316,0,0,0,.3-1.043,1.453,1.453,0,0,0,.8-.388,1.654,1.654,0,0,0,.417-1.01,1.248,1.248,0,0,0,.834-.358,1.017,1.017,0,0,0,.417-.773,1.252,1.252,0,0,0,1.01-.209,1.194,1.194,0,0,0,.535-.925s.358.209,1.01-.147.623-.834.623-.834a1,1,0,0,0,1.04-.088c.655-.358.684-.684.684-.684a.95.95,0,0,0,.893.029,1.41,1.41,0,0,0,.8-.684s.209.446.922.27a1.32,1.32,0,0,0,.925-.743,1.078,1.078,0,0,0,.864.505,1.812,1.812,0,0,0,1.043-.417.967.967,0,0,0,.8.358,1.656,1.656,0,0,0,.981-.358s.176.241.89.3a1.491,1.491,0,0,0,.984-.15,1.342,1.342,0,0,0,.714.564,1.98,1.98,0,0,0,1.01-.088,1.183,1.183,0,0,0,.687.655,1.624,1.624,0,0,0,1.069,0,.752.752,0,0,0,.6.714,1.535,1.535,0,0,0,1.069,0,1.494,1.494,0,0,0,.74.8,1.862,1.862,0,0,0,.984.209,1.124,1.124,0,0,0,.5.773,1.74,1.74,0,0,0,.984.3,1.234,1.234,0,0,0,.446.893,2.314,2.314,0,0,0,.925.446.927.927,0,0,0,.12.893,2.975,2.975,0,0,0,.949.652,1.446,1.446,0,0,0,.179.925,1.886,1.886,0,0,0,.8.623,4.123,4.123,0,0,0,.176.8c.153.446.864.714.864.714a1.409,1.409,0,0,0-.15.925,1.886,1.886,0,0,0,.714.831.957.957,0,0,0-.153.717,2.132,2.132,0,0,0,.567.981,3.145,3.145,0,0,0-.153.981,1.067,1.067,0,0,0,.417.981,1.508,1.508,0,0,0-.326.861.961.961,0,0,0,.893,1.01c.446-.032.652-.326.6-.861a2.433,2.433,0,0,0-.508-1.072A1.428,1.428,0,0,0,46,25.192a2.4,2.4,0,0,0-.687-1.131s.267-.15.238-.831a1.068,1.068,0,0,0-.623-.922s.206-.176.059-.893a1.158,1.158,0,0,0-.684-.89,1.437,1.437,0,0,0-.088-.984,1.336,1.336,0,0,0-.864-.743,3.117,3.117,0,0,0-.206-1.01.873.873,0,0,0-.834-.505,1.456,1.456,0,0,0-.358-1.131,1.74,1.74,0,0,0-.981-.446.953.953,0,0,0-.358-.981.965.965,0,0,0-1.013-.3,1.433,1.433,0,0,0-.6-1.1c-.593-.417-.952-.238-.952-.238a.981.981,0,0,0-.6-.714,1.828,1.828,0,0,0-1.069-.209.93.93,0,0,0-.655-.743,1.8,1.8,0,0,0-1.134-.059s0-.444-.684-.684a1.631,1.631,0,0,0-1.1-.059,1.379,1.379,0,0,0-.714-.535,1.6,1.6,0,0,0-1.16.12A1.779,1.779,0,0,0,29.923,9.7a1.349,1.349,0,0,0-.952.238s-.179-.3-.864-.358a1.113,1.113,0,0,0-.981.326s-.117-.209-.743-.267a1.51,1.51,0,0,0-1.128.6,1.647,1.647,0,0,0-1.1-.329,1.469,1.469,0,0,0-.893.564,1.2,1.2,0,0,0-.952-.088,1.456,1.456,0,0,0-.89.623s-.27-.15-.864.088a1.326,1.326,0,0,0-.743.864s-.388-.27-1.1.147-.684.773-.684.773-.3-.117-.893.209a1.041,1.041,0,0,0-.505,1.01,1.111,1.111,0,0,0-1.069.238.908.908,0,0,0-.417.981A1.267,1.267,0,0,0,14.1,15.8a1.84,1.84,0,0,0-.27,1.069,1.333,1.333,0,0,0-.922.535,1.387,1.387,0,0,0-.12,1.043,1.033,1.033,0,0,0-.861.564,1.431,1.431,0,0,0-.117,1.069,1.22,1.22,0,0,0-.775.773,1.359,1.359,0,0,0,.032,1.043,1.185,1.185,0,0,0-.8.773,1.676,1.676,0,0,0,.117,1.1,1.285,1.285,0,0,0-.505.834,1.169,1.169,0,0,0,.273.99Z" transform="translate(18.93 5.5)" fill="#de200f"/>
  <path id="Path_40332" data-name="Path 40332" d="M9.949,26.006a.544.544,0,0,0,.655,0s.238.849-.388.743c-.543-.094-.27-.743-.27-.743Zm.179-1.621a.586.586,0,0,0,.335.141.878.878,0,0,0,.37-.059,1.086,1.086,0,0,1-.073.435c-.088.209-.229.438-.5.35s-.247-.438-.217-.587a1.833,1.833,0,0,1,.082-.276Zm.47-1.927a.754.754,0,0,0,.35.164,1.643,1.643,0,0,0,.379-.032,1.423,1.423,0,0,1-.129.461.47.47,0,0,1-.511.305c-.214-.05-.217-.341-.209-.514a1.192,1.192,0,0,1,.12-.388Zm.679-1.806a.638.638,0,0,0,.273.2,2.087,2.087,0,0,0,.394.053,1.528,1.528,0,0,1-.156.426c-.1.141-.305.326-.505.238s-.223-.335-.176-.549a.841.841,0,0,1,.173-.367Zm.881-1.733a.56.56,0,0,0,.3.229,1.713,1.713,0,0,0,.388.05,2.106,2.106,0,0,1-.2.388.468.468,0,0,1-.558.185c-.179-.065-.194-.35-.132-.52a1.228,1.228,0,0,1,.209-.335Zm1.066-1.651a.748.748,0,0,0,.223.273.9.9,0,0,0,.388.132,3.766,3.766,0,0,1-.358.4c-.109.091-.438.247-.6-.029a.476.476,0,0,1,.082-.535,2.031,2.031,0,0,1,.27-.247ZM14.376,15.7a.585.585,0,0,0,.214.311,1.123,1.123,0,0,0,.382.132s-.244.6-.679.538-.326-.47-.238-.626A1.831,1.831,0,0,1,14.376,15.7Zm1.369-1.31a1.193,1.193,0,0,0,.2.305,1.456,1.456,0,0,0,.338.185,1.158,1.158,0,0,1-.576.426.382.382,0,0,1-.482-.388C15.242,14.621,15.744,14.389,15.744,14.389Zm1.507-1.237a.759.759,0,0,0,.173.326,2.2,2.2,0,0,0,.347.223s-.282.394-.617.394-.438-.141-.438-.326a.594.594,0,0,1,.223-.432C17.034,13.27,17.251,13.153,17.251,13.153ZM18.9,12.078a.926.926,0,0,0,.141.411,1.113,1.113,0,0,0,.32.214.941.941,0,0,1-.617.341c-.341,0-.446-.17-.446-.373a.566.566,0,0,1,.27-.435,1.361,1.361,0,0,1,.332-.153Zm1.736-.858a.88.88,0,0,0,.068.394,1.344,1.344,0,0,0,.305.273,1.4,1.4,0,0,1-.5.223c-.22.029-.414-.009-.482-.261a.449.449,0,0,1,.217-.491,2.043,2.043,0,0,1,.388-.141Zm1.754-.778a.97.97,0,0,0,.112.458,1.387,1.387,0,0,0,.223.276.824.824,0,0,1-.587.176.385.385,0,0,1-.37-.523c.088-.317.623-.391.623-.391Zm1.947-.479a.951.951,0,0,0-.009.482.831.831,0,0,0,.223.291,1.311,1.311,0,0,1-.567.15.411.411,0,0,1-.444-.505c.088-.429.8-.414.8-.414Zm1.895-.17a1.5,1.5,0,0,0-.053.341.625.625,0,0,0,.162.411.871.871,0,0,1-.564.059c-.305-.076-.411-.17-.4-.426s.261-.364.438-.4a1.215,1.215,0,0,1,.417.012Zm1.14.326c-.012-.156.229-.408.72-.4a1.074,1.074,0,0,0,.009.411C28.14,10.265,27.367,10.118,27.367,10.118Zm1.892-.044c.126-.273.693-.291.893-.176,0,0-.159.317-.082.491s-.811-.314-.811-.314Zm2.823.185a.642.642,0,0,0-.238.317A1.035,1.035,0,0,0,31.9,11a2.267,2.267,0,0,1-.514-.106.474.474,0,0,1-.3-.549c.044-.2.273-.27.485-.276a1.219,1.219,0,0,1,.511.188Zm1.809.632s-.12.044-.191.267a.825.825,0,0,0-.018.438,1.2,1.2,0,0,1-.582-.261.391.391,0,0,1-.109-.514c.091-.194.311-.185.505-.156a.981.981,0,0,1,.394.226Zm.855.587c.117-.209.6-.109.743,0a.522.522,0,0,1,.176.209.377.377,0,0,0-.241.209.821.821,0,0,0-.021.417,1.7,1.7,0,0,1-.417-.188c-.194-.126-.408-.347-.244-.646Zm1.695.931c.126-.267.47-.217.64-.106a1.109,1.109,0,0,1,.279.273.475.475,0,0,0-.258.209,1.211,1.211,0,0,0-.088.432,1.315,1.315,0,0,1-.438-.247.467.467,0,0,1-.132-.564Zm1.621.96a.377.377,0,0,1,.558-.015,1.157,1.157,0,0,1,.279.388.57.57,0,0,0-.27.162.679.679,0,0,0-.1.355.932.932,0,0,1-.4-.273A.5.5,0,0,1,38.062,13.37ZM39.486,14.6a.4.4,0,0,1,.576.021,1.958,1.958,0,0,1,.27.455A.6.6,0,0,0,40,15.2a1.169,1.169,0,0,0-.15.358,1.013,1.013,0,0,1-.3-.314.535.535,0,0,1-.062-.637Zm1.378,1.354c.2-.185.517-.009.6.106a.985.985,0,0,1,.162.4.789.789,0,0,0-.276.106,1.017,1.017,0,0,0-.206.32.756.756,0,0,1-.285-.291.541.541,0,0,1,0-.643Zm1.451,1.621c.411-.015.626.491.626.491a.625.625,0,0,0-.561.326c-.141.335-.176-.452-.176-.552a.751.751,0,0,1,.109-.267ZM43,19.112a.4.4,0,0,1,.6.106,2.464,2.464,0,0,1,.185.485,1.2,1.2,0,0,0-.408.109,1.019,1.019,0,0,0-.282.276,1.547,1.547,0,0,1-.223-.446A.433.433,0,0,1,43,19.112Zm.872,1.695c.244-.147.446.059.552.179a1.3,1.3,0,0,1,.173.438.987.987,0,0,0-.388.082,1.323,1.323,0,0,0-.27.311,2.489,2.489,0,0,1-.2-.446.5.5,0,0,1,.141-.564Zm.7,1.7c.261-.109.464.141.5.329s.05.461.05.461a.552.552,0,0,0-.35,0,.675.675,0,0,0-.326.17,1.388,1.388,0,0,1-.153-.438A.436.436,0,0,1,44.571,22.511Zm.417,1.912c.364-.091.482.2.491.444a2.914,2.914,0,0,1-.009.373.668.668,0,0,0-.352,0,.6.6,0,0,0-.294.209,2.316,2.316,0,0,1-.144-.47A.449.449,0,0,1,44.988,24.423Zm.132,1.85a.464.464,0,0,1,.529.4c.012.209.009.444.009.444a.754.754,0,0,0-.341-.035,1.122,1.122,0,0,0-.37.2,3.143,3.143,0,0,1-.1-.426C44.821,26.655,44.838,26.347,45.12,26.273Z" transform="translate(19.139 5.769)" fill="#ffe301"/>
  <path id="Path_40333" data-name="Path 40333" d="M20.67,12.083c.693-.2.714.535.864.861a2.406,2.406,0,0,1-.508,1.695s-.206-.117-.147-.476-.687-1.1-.717-1.428a.706.706,0,0,1,.505-.652Z" transform="translate(39.059 10.29)" fill="#ffb636"/>
  <path id="Path_40334" data-name="Path 40334" d="M18.284,13.154s.834-.235.834-1.545-1.874-2.141-2.855-1.636l.326.717s-.032-.059.535-.059a1.422,1.422,0,0,1,1.342,1.043,2.351,2.351,0,0,1-.179,1.486Z" transform="translate(31.509 5.977)" fill="#207900"/>
  <path id="Path_40335" data-name="Path 40335" d="M18.236,13.255l.053-.094a2.33,2.33,0,0,0,.176-1.457,1.369,1.369,0,0,0-1.3-1,1.458,1.458,0,0,0-.5.038.041.041,0,0,0,.009-.044l-.082.038-.012-.024-.338-.728.038-.018a2.146,2.146,0,0,1,1.989.223A1.747,1.747,0,0,1,19.2,11.64c0,1.328-.858,1.586-.866,1.589l-.1.026Zm-1.072-2.644a1.461,1.461,0,0,1,1.383,1.078,2.4,2.4,0,0,1-.135,1.41,1.477,1.477,0,0,0,.7-1.463,1.655,1.655,0,0,0-.887-1.375,2.142,2.142,0,0,0-1.865-.241l.288.629a1.981,1.981,0,0,1,.517-.038Z" transform="translate(31.468 5.946)" fill="#103800"/>
  <path id="Path_40336" data-name="Path 40336" d="M15.665,10.357a2.455,2.455,0,0,1,1.46-.6,1.591,1.591,0,0,1,1.369,1.548c0,.623-.209,2.024-1.577,2.024a2,2,0,0,0,.773-1.577c0-1.043-.626-1.516-1.013-1.516a7.091,7.091,0,0,0-1.01.117Z" transform="translate(30.35 5.856)" fill="#207900"/>
  <path id="Path_40337" data-name="Path 40337" d="M17.013,13.4h-.144l.117-.082a1.967,1.967,0,0,0,.755-1.539c0-1.04-.629-1.469-.969-1.469a6.708,6.708,0,0,0-1,.117l-.156.032.115-.106a2.5,2.5,0,0,1,1.489-.605,1.627,1.627,0,0,1,1.416,1.592c0,.341-.076,2.062-1.618,2.062Zm-.238-3.184c.444,0,1.057.543,1.057,1.563a2.053,2.053,0,0,1-.69,1.527c1.331-.094,1.4-1.654,1.4-1.974a1.553,1.553,0,0,0-1.325-1.5,2.294,2.294,0,0,0-1.292.479,5.945,5.945,0,0,1,.846-.088Z" transform="translate(30.254 5.835)" fill="#103800"/>
  <path id="Path_40338" data-name="Path 40338" d="M21.447,12.206a3.44,3.44,0,0,0,.088,1.9c.358.834,1.037,3.122-.329,3.983a12.208,12.208,0,0,0,.153-1.933c-.032-.861-.567-1.786-.6-2.558a2.065,2.065,0,0,1,.687-1.4Z" transform="translate(40.218 10.587)" fill="#207900"/>
  <path id="Path_40339" data-name="Path 40339" d="M21.173,18.269l.018-.1a12.416,12.416,0,0,0,.153-1.924,5.1,5.1,0,0,0-.311-1.342,4.691,4.691,0,0,1-.285-1.219,2.05,2.05,0,0,1,.7-1.43l.109-.094-.035.138a3.4,3.4,0,0,0,.085,1.874c.482,1.116.946,3.228-.347,4.042l-.085.056Zm.226-5.842a1.893,1.893,0,0,0-.57,1.257,4.719,4.719,0,0,0,.285,1.193,5.214,5.214,0,0,1,.311,1.366,11.367,11.367,0,0,1-.135,1.842c1.428-1.028.279-3.754.229-3.871a3.3,3.3,0,0,1-.12-1.786Z" transform="translate(40.193 10.502)" fill="#103800"/>
  <path id="Path_40340" data-name="Path 40340" d="M21.712,13.185a16.067,16.067,0,0,0-.032,1.636c.062,1.131,1.874,2.62,1.31,4.285a10.458,10.458,0,0,0-.623-1.665A7.7,7.7,0,0,1,21.3,14.7a4.727,4.727,0,0,1,.414-1.519Z" transform="translate(41.261 12.49)" fill="#207900"/>
  <path id="Path_40341" data-name="Path 40341" d="M23.016,19.414l-.038-.141a10.064,10.064,0,0,0-.623-1.657l-.085-.164a6.976,6.976,0,0,1-.987-2.6,4.676,4.676,0,0,1,.417-1.536l.1-.214-.018.235c0,.009-.065.919-.032,1.633a3.693,3.693,0,0,0,.605,1.428,3.539,3.539,0,0,1,.7,2.873l-.047.141Zm-1.334-5.822a4.266,4.266,0,0,0-.311,1.266,7.094,7.094,0,0,0,.978,2.55l.085.164a10.227,10.227,0,0,1,.587,1.527,3.609,3.609,0,0,0-.74-2.655,3.73,3.73,0,0,1-.614-1.469,11.743,11.743,0,0,1,.012-1.386Z" transform="translate(41.231 12.335)" fill="#103800"/>
  <path id="Path_40342" data-name="Path 40342" d="M22.025,16.031a4.49,4.49,0,0,1,.952,2.323c-.059,1.013-.714,2.135-.417,3a2.856,2.856,0,0,1-.414-2.2,9.9,9.9,0,0,0-.12-3.122Z" transform="translate(42.672 18.003)" fill="#207900"/>
  <path id="Path_40343" data-name="Path 40343" d="M22.739,21.7l-.159-.191a2.862,2.862,0,0,1-.423-2.238,10,10,0,0,0-.12-3.108L22,15.969l.12.153a4.487,4.487,0,0,1,.96,2.353,6.27,6.27,0,0,1-.25,1.231,3.114,3.114,0,0,0-.167,1.756l.082.232Zm-.579-5.358a9.67,9.67,0,0,1,.082,2.943,3.01,3.01,0,0,0,.27,1.944,4.082,4.082,0,0,1,.229-1.548,5.953,5.953,0,0,0,.25-1.21,4.12,4.12,0,0,0-.834-2.13Z" transform="translate(42.615 17.883)" fill="#103800"/>
  <path id="Path_40344" data-name="Path 40344" d="M22.645,15.981a5.189,5.189,0,0,1,.684,1.994,12.367,12.367,0,0,1-1.069,3.478,13.416,13.416,0,0,0-.385,2.32,5.392,5.392,0,0,1-.238-1.727c.059-.8.834-2.526.981-3.836a10.43,10.43,0,0,0,.026-2.229Z" transform="translate(41.905 17.906)" fill="#207900"/>
  <path id="Path_40345" data-name="Path 40345" d="M21.931,24.146l-.07-.214a5.49,5.49,0,0,1-.238-1.745,8.156,8.156,0,0,1,.405-1.574,12.947,12.947,0,0,0,.576-2.265,10.568,10.568,0,0,0,.029-2.221l-.029-.22.109.191a5.068,5.068,0,0,1,.69,2.018,7.678,7.678,0,0,1-.749,2.667c-.129.3-.247.59-.32.822a13.239,13.239,0,0,0-.385,2.312l-.018.226Zm.8-7.807a11.045,11.045,0,0,1-.05,2.021,12.966,12.966,0,0,1-.576,2.279,8.363,8.363,0,0,0-.405,1.554,4.947,4.947,0,0,0,.17,1.48,11.992,11.992,0,0,1,.364-2.088c.079-.241.2-.529.326-.831a7.694,7.694,0,0,0,.74-2.635,4.447,4.447,0,0,0-.573-1.78Z" transform="translate(41.876 17.763)" fill="#103800"/>
  <path id="Path_40346" data-name="Path 40346" d="M10,16.112s0,1.457.059,2.056S11.4,20.729,11.572,21.7A3.146,3.146,0,0,1,11,23.731,10.554,10.554,0,0,0,11,22c-.088-.6-1.457-2.673-1.428-3.748a7.862,7.862,0,0,1,.417-2.144Z" transform="translate(18.556 18.16)" fill="#207900"/>
  <path id="Path_40347" data-name="Path 40347" d="M10.978,24.057l.012-.162a10.466,10.466,0,0,0,0-1.715,5.767,5.767,0,0,0-.5-1.163,7.071,7.071,0,0,1-.928-2.6,8.034,8.034,0,0,1,.417-2.156l.085-.241v.256c0,.012,0,1.463.059,2.05a6.524,6.524,0,0,0,.637,1.469,9.51,9.51,0,0,1,.878,2.065,3.161,3.161,0,0,1-.573,2.059l-.091.132Zm-1-7.493a7.525,7.525,0,0,0-.326,1.865,7.1,7.1,0,0,0,.919,2.55,6.022,6.022,0,0,1,.508,1.187,9.015,9.015,0,0,1,.012,1.563,2.935,2.935,0,0,0,.467-1.848,9.5,9.5,0,0,0-.869-2.038,6.312,6.312,0,0,1-.646-1.5c-.047-.435-.059-1.325-.062-1.777Z" transform="translate(18.527 17.99)" fill="#103800"/>
  <path id="Path_40348" data-name="Path 40348" d="M10.5,22.837a1.343,1.343,0,0,0,.417-1.007,9.021,9.021,0,0,0-.655-2.323,4.823,4.823,0,0,1-.27-2.382c.153-.417.326-1.013.326-1.013a3.833,3.833,0,0,0-.89,1.727,5.76,5.76,0,0,0,.564,2.973,3.823,3.823,0,0,1,.505,2.024Z" transform="translate(18.228 18.158)" fill="#207900"/>
  <path id="Path_40349" data-name="Path 40349" d="M10.474,23.057l.012-.112a3.845,3.845,0,0,0-.5-2,5.9,5.9,0,0,1-.57-3,3.812,3.812,0,0,1,.9-1.751l.132-.15-.056.191c0,.006-.179.6-.329,1.016a4.725,4.725,0,0,0,.27,2.35,8.979,8.979,0,0,1,.658,2.338,1.335,1.335,0,0,1-.435,1.043l-.085.073Zm-.232-6.626a3.485,3.485,0,0,0-.74,1.53,5.769,5.769,0,0,0,.558,2.949,4.091,4.091,0,0,1,.517,1.927,1.281,1.281,0,0,0,.323-.89,9.06,9.06,0,0,0-.652-2.312,4.846,4.846,0,0,1-.27-2.409c.094-.256.2-.582.261-.793Z" transform="translate(18.202 18.044)" fill="#103800"/>
</svg>
