<svg id="MOZ" xmlns="http://www.w3.org/2000/svg" width="93.996" height="67.886" viewBox="0 0 93.996 67.886">
  <path id="Path_40415" data-name="Path 40415" d="M93.995,61.885A10.445,10.445,0,0,1,83.55,72.33H10.444A10.445,10.445,0,0,1,0,61.885v-47A10.445,10.445,0,0,1,10.444,4.444H83.55A10.445,10.445,0,0,1,93.995,14.889Z" transform="translate(0.001 -4.444)" fill="#fce100"/>
  <path id="Path_40416" data-name="Path 40416" d="M0,11.556H93.993V37.665H0Z" transform="translate(0.003 9.334)" fill="#141414"/>
  <path id="Path_40417" data-name="Path 40417" d="M83.55,4.444H10.444A10.445,10.445,0,0,0,0,14.889V25.334H93.992V14.889A10.445,10.445,0,0,0,83.547,4.444Z" transform="translate(0.001 -4.444)" fill="#007168"/>
  <path id="Path_40418" data-name="Path 40418" d="M0,11.556H93.993v2.611H0Zm0,23.5H93.993v2.611H0Z" transform="translate(0.003 9.334)" fill="#eee"/>
  <path id="Path_40419" data-name="Path 40419" d="M3.428,67.781l41.04-31.021L3.472,5.37A10.376,10.376,0,0,0,0,13.1v47a10.38,10.38,0,0,0,3.428,7.69Z" transform="translate(0.003 -2.65)" fill="#dd2e44"/>
  <path id="Path_40420" data-name="Path 40420" d="M23.164,37.823,14.622,31.57l-8.53,6.253L9.4,27.769.817,21.592,11.4,21.63l3.222-10.072,3.234,10.078,10.574-.047-8.586,6.192,3.313,10.045Z" transform="translate(1.586 9.338)" fill="#fce100"/>
  <path id="Path_40421" data-name="Path 40421" d="M3,23.673H9.15a1.964,1.964,0,0,0,2.652-.006c1.927-1.054,5.657.006,5.657.006l.734-.781L16.4,17.017l-.643-.69a6.828,6.828,0,0,0-3.995-.552,8.5,8.5,0,0,1-3.536-.094,15.49,15.49,0,0,0-2.937.6c-.07.059-.737.734-.737.734l-1.56,6.659Z" transform="translate(5.801 17.325)" fill="#141414"/>
  <path id="Path_40422" data-name="Path 40422" d="M3,23.383H9.15a1.964,1.964,0,0,0,2.652-.006c1.927-1.054,5.657.006,5.657.006l.734-.781L16.4,16.727l-.643-.69a6.828,6.828,0,0,0-3.995-.552,8.572,8.572,0,0,1-3.536-.094,15.49,15.49,0,0,0-2.937.6c-.07.059-.737.734-.737.734l-1.56,6.659Z" transform="translate(5.801 16.763)" fill="#fff"/>
  <path id="Path_40423" data-name="Path 40423" d="M2.544,19.541l3.3-4.832,2.018.323,1.163-1.2,4.024,4.929,3.228-2.291,1.977-1.651,1.187.728,4.194-2.705L19.839,16.4l-3.146,2.235-2.5,1.128,8.465,9.978-1.107.787-8.072-9.79-2.617,2.1,3.44,1.1-.109,1.648L9.362,24.255l.217,3.419-1.116.482-.987-1.971L3.208,31.19,1.669,28.552,6.5,24.487,6.61,23.06l2.638-2.414.767-.109,2.2-.881-3.3-3.513-4.4,6.142L2.624,20.014Z" transform="translate(3.236 11.823)" fill="#141414"/>
</svg>
