<svg id="MRT" xmlns="http://www.w3.org/2000/svg" width="93.996" height="67.886" viewBox="0 0 93.996 67.886">
  <path id="Path_40354" data-name="Path 40354" d="M83.55,4.444H10.444A10.445,10.445,0,0,0,0,14.889v47A10.445,10.445,0,0,0,10.444,72.33H83.55A10.445,10.445,0,0,0,93.995,61.885v-47A10.445,10.445,0,0,0,83.55,4.444Z" transform="translate(0.001 -4.444)" fill="#ce2540"/>
  <path id="Path_40355" data-name="Path 40355" d="M0,8V55H93.993V8Z" transform="translate(0.003 2.445)" fill="#0f6433"/>
  <path id="Path_40356" data-name="Path 40356" d="M13.276,15.093l4.946,3.589-1.886,5.8-.006.012.018-.012L21.274,20.9l4.943,3.592,0-.012-1.886-5.8,4.946-3.589H23.163L21.274,9.277l-1.889,5.816Z" transform="translate(25.722 4.919)" fill="#ffc514"/>
  <path id="Path_40357" data-name="Path 40357" d="M51.6,12.125a21.149,21.149,0,0,1-42.3,0,21.921,21.921,0,1,0,42.3,0Z" transform="translate(16.545 10.436)" fill="#ffc514"/>
</svg>
