<svg id="MSR" xmlns="http://www.w3.org/2000/svg" width="93.996" height="67.886" viewBox="0 0 93.996 67.886">
  <path id="Path_40358" data-name="Path 40358" d="M83.55,4.446H10.444a10.359,10.359,0,0,0-1.577.117L8.855,9.143,1.726,9.131A10.4,10.4,0,0,0,0,14.888v47A10.445,10.445,0,0,0,10.444,72.329H83.55A10.445,10.445,0,0,0,93.995,61.884v-47A10.445,10.445,0,0,0,83.55,4.443Z" transform="translate(0.001 -4.443)" fill="#00247d"/>
  <path id="Path_40359" data-name="Path 40359" d="M46.41,11.109H20.468V30.742l12.971,5.222L46.41,30.742Z" transform="translate(39.655 8.471)" fill="#55acee"/>
  <path id="Path_40360" data-name="Path 40360" d="M20.468,17.794c.015.214.012.444.035.652a11.289,11.289,0,0,0,3.857,7.49c3.736,3.337,9.082,4.071,9.082,4.864,0-.8,5.346-1.527,9.079-4.864a11.283,11.283,0,0,0,3.857-7.49c.023-.209.021-.438.035-.652H20.474Z" transform="translate(39.655 21.422)" fill="#9f1d22"/>
  <path id="Path_40361" data-name="Path 40361" d="M29.653,15.646H34.6V14.007H29.653v-2.2h-1.73v2.2H22.891v1.639h5.032V36.413h1.73Z" transform="translate(44.349 9.823)"/>
  <path id="Path_40362" data-name="Path 40362" d="M25.828,14.3c.3-.258.458-.411.637-.388a1.511,1.511,0,0,0,.617-.041,3.85,3.85,0,0,1,1.472-.044,1.087,1.087,0,0,1,.555.305,1.607,1.607,0,0,1,.517,1.662c-.129,1.06-.085,1.516-.141,2.106-.1,1.046-.335,1.912-.749,1.842.567.987.62,1.839.987,2.517a6.988,6.988,0,0,1,.455,3.563c-.144,1.5-.538,4.864.649,7.129-.2.141-.679,0-1.1-.455s-.608-.435-.96-.17c-1.069.814-2.08,1.809-3.563.814-.341-.223-.444-.493-.2-1.187a14.938,14.938,0,0,0,.825-5.2V14.29Z" transform="translate(48.174 13.617)" fill="#77b253"/>
  <path id="Path_40363" data-name="Path 40363" d="M24.419,22.014c.9.931,3.733,3.924,4.1,4.265s.54.314.684-.026c1.022-2.461.764-5.6-1.771-8.686a3.833,3.833,0,0,1-3.122,2.855c-.843.179-.99.723-.834.931a.529.529,0,0,1,.978.044.735.735,0,0,1-.485.993,1.123,1.123,0,0,1-1.3-.329,1.32,1.32,0,0,1,.708-1.962c1.175-.511,2.435-1.034,2.67-2.083s.567-1.554,1.275-1.624C31.233,20,31.73,24.032,30.1,27.636c-.394.875-1.019,1.1-1.445.57s-3.387-4.045-4.914-5.769a.778.778,0,0,0,.676-.42Z" transform="translate(43.526 18.705)" fill="#faaa34"/>
  <path id="Path_40364" data-name="Path 40364" d="M28.587,15.374a1.152,1.152,0,0,1-.009.834,1.117,1.117,0,0,0,.059,1.034c.341-.482.819-.385,1.1-.667s.341-.552.555-.608a.92.92,0,0,1-.47-.919c.07-.538.819-.975.141-1.8a1,1,0,0,0-1.351-.176,1.006,1.006,0,0,0-.285.326c-.038.091.012.3-.091.426a1.239,1.239,0,0,1-.253.241c-.062.044-.106.112-.035.191.026.032.076.038.129.059a.843.843,0,0,1-.1.176c-.035.041-.021.082.024.117-.056.17.05.191-.024.317-.059.109-.144.241.082.367a1.3,1.3,0,0,0,.526.082Zm-2.749,2.817c-.391.1-1.025-.07-1.516-.012-.209.023-.379-.085-.352-.294a3.119,3.119,0,0,0,.015-.837,3.875,3.875,0,0,1,.467-1.809,4.064,4.064,0,0,0,.47-1.433.652.652,0,0,1,.217-.6.651.651,0,0,0,.229-.261c.117-.176.232-.22.244-.115a.291.291,0,0,1-.065.209c.129-.106.341-.229.394-.267s.294-.211.308-.044c.1-.05.173-.047.191.006s.012.082-.035.126c.068-.015.153.109.012.22.07-.026.147.1.015.211s-.294.2-.344.294a1.854,1.854,0,0,1-.517.405c-.132.059-.138.132-.138.332a9.6,9.6,0,0,1-.264,2.526c0,.141-.029.27.112.223a2.072,2.072,0,0,1,.558-.106V18.2Zm.088,4.694a8.225,8.225,0,0,1,1.751-.54,7.156,7.156,0,0,0,1.287-.552c.294-.159.535-.364.7-.423a.777.777,0,0,0,.467-.385,6.154,6.154,0,0,0,.849-2.685c0-.5-.129-1.046-.608-.652A3.681,3.681,0,0,0,29.3,19.26a5.256,5.256,0,0,1-.411,1.119c-.041.153-.2.153-.4.2a3.324,3.324,0,0,0-1.654.778,16.56,16.56,0,0,1-1.756,1.131c-.452.253-.532.282-.634.488a2.18,2.18,0,0,1-.273.455.347.347,0,0,0-.091.311c.015.091-.026.514-.035.658s.029.176.085.182.132-.021.162-.191c-.032.173.206.112.22-.012-.009.182.241.076.256-.094,0,.117.185.035.2-.021a3.557,3.557,0,0,1,.135-.411,1.316,1.316,0,0,1,.335-.5c.182-.132.1-.282.482-.473ZM30.505,34.47c.047.153.12.332.153.435s-.023.141-.053.2a3.821,3.821,0,0,0-.329,1.069,1.066,1.066,0,0,1-.173.394c-.056.1-.035.182.091.279.059.044.256-.015.273-.112a.167.167,0,0,0,.256-.068c.062.068.17.021.241-.082.065.044.159-.038.194-.1.1.053.2-.012.206-.2a.35.35,0,0,1,.056-.15.57.57,0,0,0,.035-.217.813.813,0,0,1,.115-.344.648.648,0,0,0,.129-.485c-.041-.173-.12-.159-.179-.405-.156-.164-.367-.388-.587-.4a.609.609,0,0,0-.426.185Zm-4.021,1.213a.689.689,0,0,0,.955-.129,2.531,2.531,0,0,1-.479-.256,1.546,1.546,0,0,1-.479.385Z" transform="translate(46.434 11.475)" fill="#f6ddcd"/>
  <path id="Path_40365" data-name="Path 40365" d="M25.505,13.166a.476.476,0,0,1,.658-.438,1.253,1.253,0,0,0,.529-.015c.417-.112.737.035.7.438a.556.556,0,0,1,.209.452c-.021.17.015.241.167.264s.491.211.27.482a.577.577,0,0,1,.264.67.363.363,0,0,1-.593.056.522.522,0,0,1-.57-.079c-.106.126-.379.112-.429,0a.359.359,0,0,0-.229-.206c-.112-.035-.123-.347.05-.382a.285.285,0,0,1,.029-.247c.038-.053.009-.144-.094-.22a.519.519,0,0,1-.085-.538.794.794,0,0,1-.623-.22c-.07-.109-.176-.117-.25-.018Z" transform="translate(49.413 11.51)" fill="#955c0f"/>
  <path id="Path_40366" data-name="Path 40366" d="M28.176,15.239a.332.332,0,0,1-.27-.126.534.534,0,0,1-.561-.073.329.329,0,0,1-.229.082l-.053,0a.194.194,0,0,1-.164-.1.314.314,0,0,0-.217-.194c-.07-.024-.1-.126-.1-.209a.215.215,0,0,1,.129-.206.292.292,0,0,1,.035-.247c.029-.035.009-.117-.091-.191a.564.564,0,0,1-.109-.526l-.047,0a.87.87,0,0,1-.555-.238.149.149,0,0,0-.115-.082h0a.131.131,0,0,0-.1.059l-.035-.012a.591.591,0,0,1,.214-.405.573.573,0,0,1,.47-.053,1.3,1.3,0,0,0,.517-.015.669.669,0,0,1,.593.068.417.417,0,0,1,.129.382.572.572,0,0,1,.209.461c-.021.167.015.223.153.241a.468.468,0,0,1,.344.241.244.244,0,0,1-.05.253.589.589,0,0,1,.253.687.393.393,0,0,1-.317.2l-.032,0Zm-.258-.176.009.012a.306.306,0,0,0,.273.12.336.336,0,0,0,.282-.173.562.562,0,0,0-.256-.646l-.021-.012.015-.018a.234.234,0,0,0,.056-.232.443.443,0,0,0-.314-.217c-.176-.023-.2-.123-.185-.285a.53.53,0,0,0-.2-.435l-.009-.006V13.16a.394.394,0,0,0-.115-.358.625.625,0,0,0-.555-.059,1.247,1.247,0,0,1-.538.015.52.52,0,0,0-.435.044.486.486,0,0,0-.185.317.156.156,0,0,1,.082-.029h.006a.18.18,0,0,1,.147.1.863.863,0,0,0,.526.223.2.2,0,0,0,.076-.012l.05-.015-.026.047a.494.494,0,0,0,.082.511.309.309,0,0,1,.106.129.11.11,0,0,1-.009.117.276.276,0,0,0-.026.229l.009.021-.021,0c-.082.015-.115.1-.117.176s.023.156.065.17a.356.356,0,0,1,.244.217.168.168,0,0,0,.135.073A.3.3,0,0,0,27.33,15l.015-.015.012.015a.505.505,0,0,0,.549.073l.018-.012Zm-2.1.314-.006-.038a.772.772,0,0,0,.3-.109.487.487,0,0,1,.253-.082h.023v.038a.439.439,0,0,0-.256.079.816.816,0,0,1-.317.115Zm-.388,5.269-.026-.029c.446-.411.282-1.292.162-1.939l-.009-.038a1.788,1.788,0,0,1,.291-1.428l.032.023a1.742,1.742,0,0,0-.279,1.4l.006.038c.123.655.291,1.551-.176,1.974Zm.7,1.5a.977.977,0,0,1-.438-.1l.015-.035a1,1,0,0,0,.946-.056,1.463,1.463,0,0,1,1.06-.112l-.012.038a1.492,1.492,0,0,0-1.031.106.935.935,0,0,1-.54.153Z" transform="translate(49.21 11.493)"/>
  <path id="Path_40367" data-name="Path 40367" d="M49.61,38.387V4.444H10.447a11.38,11.38,0,0,0-1.577.117L8.858,9.141,1.729,9.129s-.109.153-.332.535A10.428,10.428,0,0,0,0,14.886v23.5H49.607Z" transform="translate(0.001 -4.441)" fill="#00247d"/>
  <path id="Path_40368" data-name="Path 40368" d="M49.6,4.446H43.518l-12.19,8.536V4.446H18.275v6.709L8.864,4.563A10.305,10.305,0,0,0,4.5,6.3l12.278,8.589H12.245L2.525,8.076a10.661,10.661,0,0,0-.8,1.054l8.227,5.757H0V27.941H10.144L0,35.164v3.222H8.7l9.576-6.706v6.706H31.331V29.85l12.187,8.536h6.089v-5.3l-7.349-5.146h7.349V14.888H42.261l7.346-5.146v-5.3Z" transform="translate(0.007 -4.443)" fill="#eee"/>
  <path id="Path_40369" data-name="Path 40369" d="M28.721,4.444H20.887V17.5H0v7.834H20.887V38.384h7.834V25.331H49.608V17.5H28.721Z" transform="translate(0.003 -4.441)" fill="#cf1b2b"/>
  <path id="Path_40370" data-name="Path 40370" d="M48.343,4.444H44.527L30.064,14.572v.317h4.1L48.34,4.961ZM3.235,6.3A10.536,10.536,0,0,0,1.258,8.077l9.719,6.812h4.529L3.232,6.3ZM15.542,27.942.653,38.387H5.162l11.852-8.3V27.942Zm32.8,9.928V34.686l-9.625-6.741h-4.55Z" transform="translate(1.268 -4.441)" fill="#cf1b2b"/>
</svg>
