<svg id="MTQ" xmlns="http://www.w3.org/2000/svg" width="93.996" height="67.886" viewBox="0 0 93.996 67.886">
  <path id="Path_40350" data-name="Path 40350" d="M93.995,61.885A10.445,10.445,0,0,1,83.55,72.33H10.444A10.445,10.445,0,0,1,0,61.885v-47A10.445,10.445,0,0,1,10.444,4.444H83.55A10.445,10.445,0,0,1,93.995,14.889Z" transform="translate(0.001 -4.444)" fill="#21428e"/>
  <path id="Path_40351" data-name="Path 40351" d="M14.222,4.444H24.667V72.327H14.222Z" transform="translate(27.555 -4.444)" fill="#eee"/>
  <path id="Path_40352" data-name="Path 40352" d="M0,14.222H93.993V24.667H0Z" transform="translate(0.003 14.499)" fill="#eee"/>
  <path id="Path_40353" data-name="Path 40353" d="M24.518,23.446C23.54,21.7,14.89,21,11.735,22.576c2.832-2.45,11.314-.652,11.588-4.679.214-3.208-5.822-2.937-8.163-3.536s-.27-1.251,1.524-2.012S20.438,10.88,20,8.289,15.16,5.878,13.148,5.766s-4.57.652-3.971,1.9a5.873,5.873,0,0,1-4.515,0c-.012.435.679.6.679.6l-1.166.273a7.952,7.952,0,0,0,5.384-.27c.217.27.978.435,3.915.27s3.263-.708,3.971-.056c1.187,1.093-1.3,1.522-4.459,2.667s-1.8,3.915-.109,4.785,3.372.793,6.2,1.254.814,1.031-.814,1.14c-.6.041-5.387.217-7.942,1.577C7.335,21.5,7.929,23.5,7.655,23.824s-2.881.217-4.9-.382c.708,1.959,4.08,1.959,5.275,2.012s2.285,2.881,9.52,2.773,7.939-3.043,6.964-4.785Zm-12.2-16.4c-.326.326-.614.2-.288-.2S12.646,6.721,12.32,7.047Zm-.288,17.371c.7-.811,10.445-1.184,9.916.153C21.267,26.283,11.177,25.4,12.032,24.418Zm66.879-.972c-.978-1.742-9.628-2.45-12.783-.869,2.832-2.45,11.314-.652,11.588-4.679.217-3.208-5.819-2.937-8.16-3.536s-.273-1.251,1.522-2.012S74.831,10.88,74.4,8.289s-4.841-2.411-6.853-2.52-4.57.652-3.971,1.9a5.873,5.873,0,0,1-4.515,0c-.012.435.681.6.681.6l-1.169.27a7.952,7.952,0,0,0,5.384-.27c.22.27.978.435,3.915.27s3.263-.708,3.971-.056c1.187,1.093-1.3,1.522-4.462,2.667s-1.8,3.915-.106,4.785,3.372.793,6.2,1.254.814,1.031-.814,1.14c-.6.041-5.384.217-7.942,1.577-2.984,1.586-2.394,3.589-2.667,3.915s-2.881.217-4.9-.382c.708,1.959,4.077,1.959,5.275,2.012s2.285,2.881,9.52,2.773,7.942-3.043,6.964-4.785Zm-12.2-16.4c-.326.326-.611.2-.285-.2S67.038,6.721,66.712,7.047Zm-.288,17.371c.7-.811,10.445-1.184,9.916.153C75.659,26.283,65.57,25.4,66.425,24.418ZM24.518,61.413c-.978-1.742-9.628-2.45-12.783-.869,2.832-2.45,11.314-.652,11.588-4.679.217-3.2-5.819-2.937-8.16-3.536s-.27-1.251,1.522-2.012S20.438,48.847,20,46.253s-4.841-2.411-6.853-2.52-4.57.652-3.971,1.9a5.859,5.859,0,0,1-4.515,0c-.012.435.679.6.679.6l-1.169.27a7.952,7.952,0,0,0,5.384-.27c.217.27.978.435,3.915.27s3.263-.708,3.971-.056c1.187,1.1-1.3,1.524-4.459,2.667s-1.8,3.915-.109,4.785,3.372.793,6.2,1.251.814,1.034-.814,1.143c-.6.044-5.387.22-7.942,1.58-2.987,1.589-2.394,3.589-2.667,3.915s-2.881.22-4.9-.382c.708,1.959,4.077,1.959,5.275,2.012s2.285,2.881,9.52,2.773,7.939-3.043,6.964-4.785Zm-12.2-16.4c-.326.326-.611.2-.285-.2S12.646,44.688,12.32,45.014Zm-.288,17.371c.7-.811,10.445-1.184,9.916.153C21.267,64.25,11.177,63.369,12.032,62.385Zm66.879-.972c-.978-1.742-9.628-2.45-12.783-.869,2.832-2.45,11.314-.652,11.588-4.679.217-3.2-5.819-2.937-8.16-3.536s-.27-1.251,1.522-2.012,3.754-1.469,3.319-4.062-4.841-2.411-6.853-2.52-4.57.652-3.971,1.9a5.859,5.859,0,0,1-4.515,0c-.012.435.681.6.681.6l-1.169.27a7.952,7.952,0,0,0,5.384-.27c.22.27.978.435,3.915.27s3.263-.708,3.971-.056c1.187,1.1-1.3,1.524-4.462,2.667s-1.8,3.915-.106,4.785,3.372.793,6.2,1.251.814,1.034-.814,1.143c-.6.041-5.384.217-7.942,1.577-2.984,1.589-2.394,3.589-2.667,3.915s-2.881.22-4.9-.382c.708,1.959,4.077,1.959,5.275,2.012s2.285,2.881,9.52,2.773,7.939-3.043,6.961-4.782Zm-12.2-16.4c-.326.326-.611.2-.285-.2S67.038,44.688,66.712,45.014Zm-.288,17.371c.7-.811,10.445-1.184,9.916.153C75.659,64.25,65.57,63.369,66.425,62.385Z" transform="translate(5.348 -1.904)" fill="#fff"/>
</svg>
