<svg id="MUS" xmlns="http://www.w3.org/2000/svg" width="93.999" height="67.886" viewBox="0 0 93.999 67.886">
  <path id="Path_40388" data-name="Path 40388" d="M83.55,4.444H10.444A10.445,10.445,0,0,0,0,14.889v6.527H93.992V14.889A10.445,10.445,0,0,0,83.547,4.444Z" transform="translate(0.001 -4.444)" fill="#ea2839"/>
  <path id="Path_40389" data-name="Path 40389" d="M0,10.222H93.993V27.194H0Z" transform="translate(0.003 6.75)" fill="#1a206d"/>
  <path id="Path_40390" data-name="Path 40390" d="M0,16H93.993V32.972H0Z" transform="translate(0.003 17.943)" fill="#ffd500"/>
  <path id="Path_40391" data-name="Path 40391" d="M0,21.778V28.3A10.445,10.445,0,0,0,10.445,38.75H83.551A10.445,10.445,0,0,0,94,28.3V21.778H0Z" transform="translate(0.003 29.137)" fill="#00a551"/>
</svg>
