<svg id="MWI" xmlns="http://www.w3.org/2000/svg" width="93.996" height="67.886" viewBox="0 0 93.996 67.886">
  <path id="Path_40395" data-name="Path 40395" d="M93.995,61.885A10.445,10.445,0,0,1,83.55,72.33H10.444A10.445,10.445,0,0,1,0,61.885v-47A10.445,10.445,0,0,1,10.444,4.444H83.55A10.445,10.445,0,0,1,93.995,14.889Z" transform="translate(0.001 -4.444)" fill="#77b255"/>
  <path id="Path_40396" data-name="Path 40396" d="M0,11.556H93.993V37.665H0Z" transform="translate(0.003 9.334)" fill="#dd2e44"/>
  <path id="Path_40397" data-name="Path 40397" d="M83.55,4.444H10.444A10.445,10.445,0,0,0,0,14.889V25.334H93.992V14.889A10.445,10.445,0,0,0,83.547,4.444Z" transform="translate(0.001 -4.444)" fill="#141414"/>
  <path id="Path_40398" data-name="Path 40398" d="M44.117,21a15.64,15.64,0,0,0-27.105,0H44.117ZM29.777,5.333h1.574l-.787,5.648Zm-3.954.47,1.551-.267.176,5.7ZM22,6.934l1.486-.526,1.137,5.587ZM18.431,8.69l1.375-.764,2.062,5.316Zm-3.222,2.338,1.228-.987,2.928,4.891Zm-2.787,2.846,1.046-1.181,3.71,4.33ZM10.159,17.15l.828-1.339,4.388,3.636ZM12.021,21,9.072,19.3l-.59,1.46L9.434,21Zm40.091,0,.57-.141-.576-1.454L49.3,21ZM50.2,15.9l.814,1.336-5.225,2.276Zm-2.461-3.125,1.028,1.178L44,17.085Zm-2.955-2.673L46,11.1l-4.168,3.883Zm-3.363-2.13,1.36.773-3.454,4.529ZM37.746,6.44l1.472.532-2.641,5.049Zm-3.88-.89,1.539.276-1.751,5.422Z" transform="translate(16.435 -2.722)" fill="#dd2e44"/>
</svg>
