<svg id="MYS" xmlns="http://www.w3.org/2000/svg" width="93.996" height="67.886" viewBox="0 0 93.996 67.886">
  <path id="Path_40410" data-name="Path 40410" d="M93.995,61.885A10.445,10.445,0,0,1,83.55,72.33H10.444A10.445,10.445,0,0,1,0,61.885v-47A10.445,10.445,0,0,1,10.444,4.444H83.55A10.445,10.445,0,0,1,93.995,14.889Z" transform="translate(0.001 -4.444)" fill="#dd2e44"/>
  <path id="Path_40411" data-name="Path 40411" d="M1.45,63.663h91.1a10.351,10.351,0,0,0,1.445-5.222H0a10.361,10.361,0,0,0,1.448,5.222ZM0,48H93.995v5.222H0ZM0,37.554H93.995v5.222H0ZM0,27.109H93.995v5.222H0ZM0,16.667H93.995v5.222H0ZM1.45,6.222A10.315,10.315,0,0,0,0,11.444H93.995a10.353,10.353,0,0,0-1.448-5.222H1.453Z" transform="translate(0.001 -1)" fill="#eee"/>
  <path id="Path_40412" data-name="Path 40412" d="M47,4.444H10.445A10.445,10.445,0,0,0,0,14.889V41H47V4.447Z" transform="translate(0.003 -4.444)" fill="#010066"/>
  <path id="Path_40413" data-name="Path 40413" d="M21.445,34.664A13.664,13.664,0,1,1,26.715,8.393a15.657,15.657,0,1,0-9.27,28.268,15.54,15.54,0,0,0,9.27-3.061,13.605,13.605,0,0,1-5.267,1.057Z" transform="translate(3.451 -2.724)" fill="#ffcc4d"/>
  <path id="Path_40414" data-name="Path 40414" d="M16.662,7.848l.872,4.23,2.62-3.434-1.049,4.189,3.851-1.956L20.193,14.2l4.318-.091L20.581,15.9l3.93,1.792L20.193,17.6l2.764,3.319L19.106,18.96l1.049,4.191-2.62-3.437-.872,4.233-.872-4.233-2.62,3.437,1.049-4.191-3.851,1.956L13.129,17.6l-4.315.091,3.93-1.792L8.814,14.1l4.315.091-2.761-3.319,3.851,1.956L13.17,8.644l2.62,3.434Z" transform="translate(17.078 2.15)" fill="#ffcc4d"/>
</svg>
