<svg id="MYT" xmlns="http://www.w3.org/2000/svg" width="93.996" height="67.886" viewBox="0 0 93.996 67.886">
  <path id="Path_41072" data-name="Path 41072" d="M93.995,61.885A10.445,10.445,0,0,1,83.55,72.33H10.444A10.445,10.445,0,0,1,0,61.885v-47A10.445,10.445,0,0,1,10.444,4.444H83.55A10.445,10.445,0,0,1,93.995,14.889Z" transform="translate(0.001 -4.444)" fill="#eee"/>
  <path id="Path_41073" data-name="Path 41073" d="M7.8,7.364H9.254L11.407,13.7l2.138-6.333H14.99v7.49h-.969V10.433c0-.153,0-.408.012-.761s.012-.734.012-1.14L11.9,14.851h-1L8.74,8.533v.229c0,.182.006.461.015.837s.015.652.015.828v4.424H7.8V7.361Zm11.955,0H20.9l2.72,7.49H22.5l-.781-2.244h-2.94l-.811,2.244h-1.04l2.82-7.49Zm1.686,4.418-1.154-3.31-1.2,3.31Zm1.745-4.418h1.184l2.153,3.6,2.153-3.6h1.193l-2.834,4.473v3.02H26.017v-3.02L23.185,7.364ZM36.9,8.433a4.157,4.157,0,0,1,.743,2.547,4.449,4.449,0,0,1-.852,2.787,3.383,3.383,0,0,1-2.852,1.3,3.407,3.407,0,0,1-2.717-1.143,4.317,4.317,0,0,1-.881-2.785,4.407,4.407,0,0,1,.755-2.6,3.268,3.268,0,0,1,2.867-1.386A3.427,3.427,0,0,1,36.9,8.433Zm-.9,4.776a4.124,4.124,0,0,0,.6-2.212,3.151,3.151,0,0,0-.693-2.127,2.364,2.364,0,0,0-1.892-.808,2.464,2.464,0,0,0-1.9.8,3.36,3.36,0,0,0-.734,2.356,3.458,3.458,0,0,0,.629,2.1,2.363,2.363,0,0,0,2.041.858A2.123,2.123,0,0,0,36,13.212ZM44.3,7.364v.893H41.776v6.6H40.75v-6.6H38.224V7.364H44.3Zm6.794,0v.893H48.569v6.6H47.544v-6.6H45.018V7.364h6.074Zm1.657,0h5.437v.919H53.742v2.273h4.109v.866H53.742v2.541h4.523v.89h-5.51V7.364Z" transform="translate(15.114 0.814)" fill="#d42e11"/>
  <path id="Path_41074" data-name="Path 41074" d="M24.348,42.288a.327.327,0,0,1-.326-.323v0a2.227,2.227,0,0,0-2.285-2.285H16.514c-2.884,0-4.823-2.229-4.823-5.549V12.069a.327.327,0,0,1,.326-.326h24.6a.327.327,0,0,1,.326.326V34.128c0,3.319-1.915,5.549-4.767,5.549H26.956a2.229,2.229,0,0,0-2.285,2.285v0a.327.327,0,0,1-.326.323Z" transform="translate(22.652 9.696)" fill="#231f20"/>
  <path id="Path_41075" data-name="Path 41075" d="M11.914,11.965V33.7c0,2.438,1.289,4.9,4.171,4.9h5.222a2.7,2.7,0,0,1,2.611,1.542,2.693,2.693,0,0,1,2.611-1.542h5.222c2.5,0,4.115-1.921,4.115-4.9V11.965H11.917Z" transform="translate(23.084 10.126)" fill="#eee"/>
  <path id="Path_41076" data-name="Path 41076" d="M21.668,16.369a2.614,2.614,0,1,1-2.611-2.547A2.581,2.581,0,0,1,21.668,16.369Z" transform="translate(31.858 13.724)" fill="#269"/>
  <path id="Path_41077" data-name="Path 41077" d="M21.668,17.7a2.614,2.614,0,1,1-2.611-2.547A2.581,2.581,0,0,1,21.668,17.7Z" transform="translate(31.858 16.306)" fill="#269"/>
  <path id="Path_41078" data-name="Path 41078" d="M20.335,16.369a2.614,2.614,0,1,1-2.611-2.547A2.581,2.581,0,0,1,20.335,16.369Z" transform="translate(29.275 13.724)" fill="#269"/>
  <path id="Path_41079" data-name="Path 41079" d="M20.335,17.7a2.614,2.614,0,1,1-2.611-2.547A2.581,2.581,0,0,1,20.335,17.7Z" transform="translate(29.275 16.306)" fill="#269"/>
  <path id="Path_41080" data-name="Path 41080" d="M19,16.369a2.614,2.614,0,1,1-2.611-2.547A2.581,2.581,0,0,1,19,16.369Z" transform="translate(26.693 13.724)" fill="#269"/>
  <path id="Path_41081" data-name="Path 41081" d="M19,17.7a2.614,2.614,0,1,1-2.611-2.547A2.581,2.581,0,0,1,19,17.7Z" transform="translate(26.693 16.306)" fill="#269"/>
  <path id="Path_41082" data-name="Path 41082" d="M33.334,19.038a2.482,2.482,0,0,0-1.007-1.959,2.474,2.474,0,0,0,1.007-1.959,2.606,2.606,0,0,0-4.529-1.7,2.536,2.536,0,0,0-3.959-.053,2.526,2.526,0,0,0-3.912.006,2.527,2.527,0,0,0-3.918,0,2.574,2.574,0,0,0-1.959-.931,2.586,2.586,0,0,0-1.683,4.57,2.532,2.532,0,0,0,0,3.918,2.581,2.581,0,0,0-.928,1.959c0,1.442,1.166,3.263,2.611,3.263H30.72a2.874,2.874,0,0,0,2.611-2.873,2.8,2.8,0,0,0-1.007-2.121,2.807,2.807,0,0,0,1.007-2.124Z" transform="translate(24.11 11.054)" fill="#171796"/>
  <path id="Path_41083" data-name="Path 41083" d="M33.334,17.816a2.484,2.484,0,0,0-.417-1.372H12.861a2.477,2.477,0,0,0-.417,1.372,2.511,2.511,0,0,0,.963,1.959,2.474,2.474,0,0,0,0,3.918,2.5,2.5,0,0,0-.963,1.959A2.582,2.582,0,0,0,15.058,28.2a2.626,2.626,0,0,0,1.959-.878,2.624,2.624,0,0,0,3.918,0,2.624,2.624,0,0,0,3.918,0,2.624,2.624,0,0,0,3.918,0,2.627,2.627,0,0,0,1.959.878,2.579,2.579,0,0,0,2.611-2.547,2.511,2.511,0,0,0-.963-1.959,2.474,2.474,0,0,0,0-3.918,2.5,2.5,0,0,0,.963-1.959Z" transform="translate(24.11 18.803)" fill="#d42e11"/>
  <path id="Path_41084" data-name="Path 41084" d="M19.444,17.693a5.217,5.217,0,0,1-5.04-3.915,5.313,5.313,0,0,0-.182,1.3,5.222,5.222,0,0,0,10.445,0,5.159,5.159,0,0,0-.185-1.3A5.208,5.208,0,0,1,19.444,17.693Z" transform="translate(27.555 13.639)" fill="#eee"/>
  <path id="Path_41085" data-name="Path 41085" d="M17.872,20.621a3.843,3.843,0,0,0-.746-.332,3.922,3.922,0,0,0,.746-.332c.749-.432,1.24-.984,1.1-1.234s-.869-.1-1.618.332a3.818,3.818,0,0,0-.658.482,3.925,3.925,0,0,0,.085-.811c0-.866-.232-1.569-.523-1.569s-.523.7-.523,1.569a3.925,3.925,0,0,0,.085.811,4.01,4.01,0,0,0-.661-.482c-.749-.435-1.472-.582-1.618-.332s.344.8,1.1,1.234a3.9,3.9,0,0,0,.743.332,3.823,3.823,0,0,0-.743.332c-.752.435-1.242.987-1.1,1.234s.869.1,1.618-.332a3.847,3.847,0,0,0,.661-.482,3.925,3.925,0,0,0-.085.811c0,.866.232,1.569.523,1.569s.523-.7.523-1.569a3.925,3.925,0,0,0-.085-.811,3.847,3.847,0,0,0,.661.482c.749.432,1.472.579,1.618.329s-.35-.8-1.1-1.234Zm9.138,0a3.9,3.9,0,0,0-.743-.332,3.823,3.823,0,0,0,.743-.332c.749-.432,1.24-.984,1.1-1.234s-.869-.1-1.618.332a4.1,4.1,0,0,0-.658.479,3.925,3.925,0,0,0,.085-.811c0-.866-.235-1.569-.523-1.569s-.523.7-.523,1.569a3.925,3.925,0,0,0,.085.811,3.848,3.848,0,0,0-.661-.482c-.749-.435-1.472-.582-1.618-.332s.347.8,1.1,1.234a3.922,3.922,0,0,0,.746.332,3.922,3.922,0,0,0-.746.332c-.749.435-1.24.987-1.1,1.234s.869.1,1.618-.332a3.848,3.848,0,0,0,.661-.482,3.925,3.925,0,0,0-.085.811c0,.866.235,1.569.523,1.569s.523-.7.523-1.569a3.947,3.947,0,0,0-.085-.811,3.977,3.977,0,0,0,.658.482c.749.432,1.475.579,1.618.329s-.347-.8-1.1-1.234Z" transform="translate(26.176 20.181)" fill="#ffac33"/>
  <path id="Path_41086" data-name="Path 41086" d="M8.161,28.2s6.259-3.39,8.268-3.845,4.309-.517,3.393.858.17,3.043-1.263,2.873-4.711,1.322-5.916,1.842-2.99,1.436-2.99,1.436L8.161,28.207Z" transform="translate(15.813 33.567)" fill="#ccd6dd"/>
  <path id="Path_41087" data-name="Path 41087" d="M14.433,25.886c-.344-.861-.8-1.721-.8-1.721a1.973,1.973,0,0,1-1.01.881c-.684.311-1.36.861-1.178,1.245.253.532,2.987-.405,2.987-.405Z" transform="translate(22.118 33.761)" fill="#66757f"/>
  <path id="Path_41088" data-name="Path 41088" d="M31.967,28.2s-6.262-3.39-8.274-3.845-4.306-.517-3.39.858-.17,3.043,1.266,2.873,4.708,1.322,5.916,1.842,2.99,1.436,2.99,1.436l1.492-3.161Z" transform="translate(38.933 33.567)" fill="#ccd6dd"/>
  <path id="Path_41089" data-name="Path 41089" d="M19.854,25.886c.344-.861.8-1.721.8-1.721a1.972,1.972,0,0,0,1.013.881c.684.311,1.36.861,1.175,1.245-.25.532-2.987-.405-2.987-.405Z" transform="translate(38.466 33.761)" fill="#66757f"/>
  <path id="Path_41090" data-name="Path 41090" d="M35.205,24.834a35.289,35.289,0,0,0-7.182-.808H22.569a35.056,35.056,0,0,0-7.179.808c-1.551.52-2.893,1.754-3.962,1.724.079.326.17.743.576,2.009s1.492,1.207,2.758.576a11.447,11.447,0,0,1,4.829-1.034H31.02a11.447,11.447,0,0,1,4.829,1.034c1.26.629,2.356.69,2.761-.576s.491-1.683.573-2.009c-1.078.032-2.417-1.207-3.965-1.724Z" transform="translate(22.142 33.492)" fill="#ccd6dd"/>
  <path id="Path_41091" data-name="Path 41091" d="M13.853,24.444h4.518v2.138H13.853Zm6.77,0h7.7v2.138h-7.7Z" transform="translate(26.84 34.301)" fill="#99aab5"/>
  <path id="Path_41092" data-name="Path 41092" d="M9.026,12.5l2.585.652,2.174-1.742s2.611-.978,4.027-.217.217.652-1.09.978a1.592,1.592,0,0,0-1.251,2.121c.491.734,1.983.793,1.8-.326-.082-.491,2.068.6,1.848,1.8l-.217,1.2s-.109,2.72,1.633,3.263,1.551,2.174-.082,2.068-4.379-2.174-4.379-2.174-1.416.978-1.742.326c0,0-3.372-.764-2.937-3.807,0,0-1.06,3.372,1.06,4.515,3.055,1.645,3.437.511,6.01,2.555,3.046,2.42,5.44,6.908,4.679,13.109s-2.5,10.363-9.464,10.363a5.994,5.994,0,0,1-6.283-6.036,4.888,4.888,0,0,1,4.4-4.817,2.306,2.306,0,0,1,2.45,2.45c-.82,1.639-1.607.505-.978-.247.408-.491-.411-1.263-1.386-1.225-1.959.082-3.02,1.986-3.02,3.836s2.094,4.65,4.706,4.65a5.918,5.918,0,0,0,5.549-6.092,9.852,9.852,0,0,0-4.027-8.16l-1.251,2.42s-4.785-.681-7.508-3.51-2.456-6.43-1.959-6.036c1.143.9,3.863,1.034,3.863,1.034s-1.087-2.285-1.848-2.72A4.634,4.634,0,0,1,5.27,17.229c1.2-2.717,2.967-3.536,3.4-2.667a.694.694,0,1,0,1.251-.6,4.781,4.781,0,0,0-.9-1.469Z" transform="translate(7.854 8.064)" fill="#ccd6dd"/>
  <path id="Path_41093" data-name="Path 41093" d="M5.43,16.663c1.551,2.121,3.346,4.9,5.957,6.283s5.628,4.976,5.628,8.565-2.42,6.609-5.654,6.609S6.576,35.1,6.576,33.144a3.834,3.834,0,0,1,1.712-3.02A3.286,3.286,0,0,0,6,32.98a5.383,5.383,0,0,0,5.14,5.713c5.058,0,6.935-3.425,6.935-7.179s-3.263-7.834-5.466-10.037S7.39,16.746,6,15.277s-.573,1.386-.573,1.386Z" transform="translate(10.064 15.729)" fill="#99aab5"/>
  <path id="Path_41094" data-name="Path 41094" d="M35.606,12.5l-2.582.652-2.177-1.742s-2.611-.978-4.024-.217-.22.652,1.087.978a1.59,1.59,0,0,1,1.251,2.121c-.491.734-1.983.793-1.8-.326.082-.491-2.068.6-1.848,1.8l.217,1.2s.109,2.72-1.633,3.263-1.551,2.174.082,2.068,4.379-2.174,4.379-2.174,1.416.978,1.742.326c0,0,3.372-.764,2.937-3.807,0,0,1.06,3.372-1.06,4.515-3.058,1.645-3.434.511-6.01,2.555-3.046,2.42-5.44,6.908-4.679,13.109S24,47.175,30.957,47.175a5.994,5.994,0,0,0,6.283-6.036,4.892,4.892,0,0,0-4.406-4.814,2.306,2.306,0,0,0-2.45,2.45c.817,1.639,1.607.505.978-.247-.408-.491.411-1.263,1.386-1.225,1.959.082,3.02,1.986,3.02,3.836s-2.094,4.65-4.706,4.65A5.918,5.918,0,0,1,25.514,39.7a9.857,9.857,0,0,1,4.024-8.16l1.251,2.42s4.785-.681,7.508-3.51,2.456-6.43,1.959-6.036c-1.143.9-3.863,1.034-3.863,1.034s1.087-2.285,1.85-2.72a4.643,4.643,0,0,0,1.116-5.493c-1.2-2.717-2.967-3.536-3.4-2.667a.694.694,0,1,1-1.251-.6,4.77,4.77,0,0,1,.9-1.472Z" transform="translate(41.365 8.064)" fill="#ccd6dd"/>
  <path id="Path_41095" data-name="Path 41095" d="M35.016,16.663c-1.551,2.121-3.346,4.9-5.957,6.283s-5.628,4.976-5.628,8.565,2.42,6.609,5.657,6.609,4.785-3.02,4.785-4.976a3.834,3.834,0,0,0-1.712-3.02,3.286,3.286,0,0,1,2.285,2.855,5.383,5.383,0,0,1-5.14,5.713c-5.061,0-6.935-3.425-6.935-7.179s3.263-7.834,5.466-10.037,5.222-4.732,6.609-6.2S35.016,16.663,35.016,16.663Z" transform="translate(43.342 15.729)" fill="#99aab5"/>
</svg>
