<svg id="NAM" xmlns="http://www.w3.org/2000/svg" width="93.993" height="67.887" viewBox="0 0 93.993 67.887">
  <path id="Path_40424" data-name="Path 40424" d="M.948,66.6a10.371,10.371,0,0,0,7.657,3.393H81.711A10.445,10.445,0,0,0,92.156,59.547v-47a10.353,10.353,0,0,0-2.661-6.9L.948,66.6Z" transform="translate(1.837 -2.106)" fill="#009543"/>
  <path id="Path_40425" data-name="Path 40425" d="M91.208,7.837a10.371,10.371,0,0,0-7.657-3.393H10.445A10.445,10.445,0,0,0,0,14.889v47a10.353,10.353,0,0,0,2.661,6.9L91.208,7.837Z" transform="translate(0 -4.444)" fill="#003580"/>
  <path id="Path_40426" data-name="Path 40426" d="M93.993,14.889A10.445,10.445,0,0,0,83.548,4.444H81.815L0,61.733v.153A10.445,10.445,0,0,0,10.445,72.33h1.733L93.993,15.045v-.153Z" transform="translate(0 -4.444)" fill="#eee"/>
  <path id="Path_40427" data-name="Path 40427" d="M85.818,4.565.155,64.544a10.412,10.412,0,0,0,7.6,7.249L93.278,11.908a10.405,10.405,0,0,0-7.464-7.343Z" transform="translate(0.3 -4.21)" fill="#d20f34"/>
  <path id="Path_40428" data-name="Path 40428" d="M15.72,7.111l2.112,5.173,4.415-3.422L21.489,14.4l5.534-.758L23.6,18.052l5.173,2.112L23.6,22.276l3.422,4.415-5.534-.758.758,5.534-4.415-3.422L15.72,33.217l-2.112-5.173L9.194,31.467l.758-5.534-5.534.758L7.84,22.276,2.667,20.164,7.84,18.052,4.418,13.638l5.534.758L9.194,8.862l4.415,3.422Z" transform="translate(5.167 0.723)" fill="#ffce00"/>
  <path id="Path_40429" data-name="Path 40429" d="M20.867,17.023a8.289,8.289,0,1,1-8.289-8.289A8.289,8.289,0,0,1,20.867,17.023Z" transform="translate(8.309 3.867)" fill="#003580"/>
  <path id="Path_40430" data-name="Path 40430" d="M17.8,15.8a6.441,6.441,0,1,1-6.441-6.441A6.442,6.442,0,0,1,17.8,15.8Z" transform="translate(9.528 5.085)" fill="#ffce00"/>
</svg>
