<svg id="NCL" xmlns="http://www.w3.org/2000/svg" width="94" height="67.89" viewBox="0 0 94 67.89">
  <path id="Path_41314" data-name="Path 41314" d="M94,199.666a10.445,10.445,0,0,1-10.444,10.444H10.444A10.445,10.445,0,0,1,0,199.666v-47a10.445,10.445,0,0,1,10.444-10.444H83.556A10.445,10.445,0,0,1,94,152.666Z" transform="translate(0 -142.222)" fill="#009543"/>
  <path id="Path_41315" data-name="Path 41315" d="M0,369.778H94v26.111H0Z" transform="translate(0 -348.889)" fill="#ed4135"/>
  <path id="Path_41316" data-name="Path 41316" d="M83.556,142.222H10.444A10.445,10.445,0,0,0,0,152.666v10.444H94V152.666A10.445,10.445,0,0,0,83.556,142.222Z" transform="translate(0 -142.222)" fill="#0035ad"/>
  <path id="Path_41317" data-name="Path 41317" d="M132.475,245.217a24.55,24.55,0,1,1-29.534,18.251A24.55,24.55,0,0,1,132.475,245.217Z" transform="translate(-92.889 -235.161)" fill="#141414"/>
  <path id="Path_41318" data-name="Path 41318" d="M160.778,279.5a23.5,23.5,0,1,1-23.5-23.5A23.5,23.5,0,0,1,160.778,279.5Z" transform="translate(-103.334 -245.556)" fill="#fae600"/>
  <path id="Path_41319" data-name="Path 41319" d="M366.08,256.228h.841v46.958h-.841Z" transform="translate(-332.475 -245.763)" fill="#141414"/>
  <path id="Path_41320" data-name="Path 41320" d="M319.36,296.766a3.183,3.183,0,1,1-3.183-3.183A3.184,3.184,0,0,1,319.36,296.766Zm-.572,19.706c0,2.052-1.17,3.713-2.611,3.713s-2.611-1.661-2.611-3.713,1.17-3.713,2.611-3.713S318.788,314.417,318.788,316.472Zm.572-10.405c0,1.06-1.426,1.917-3.183,1.917s-3.183-.856-3.183-1.917,1.426-1.917,3.183-1.917S319.36,305.007,319.36,306.067Zm-6.69-13.789s-.326-2.285.326-3.264a6.91,6.91,0,0,1,3.755-2.2c1.384-.326,3.261-2.366,3.261-2.366a7.77,7.77,0,0,1-2.53,4.9,21.916,21.916,0,0,1-4.812,2.937Zm-2,4.637a4.1,4.1,0,0,1,1.59,2.039c.326,1.225,1.225,2.53,3.836,2.53v1.467a9.935,9.935,0,0,1-3.426-.326c-1.225-.491-1.551-2.773-1.551-3.59a8.575,8.575,0,0,0-.449-2.12Zm10.933,0a4.1,4.1,0,0,0-1.59,2.039c-.326,1.225-1.225,2.53-3.836,2.53v1.467a9.935,9.935,0,0,0,3.426-.326c1.225-.491,1.551-2.773,1.551-3.59a8.575,8.575,0,0,1,.449-2.12Z" transform="translate(-282.152 -271.388)" fill="#141414"/>
  <path id="Path_41321" data-name="Path 41321" d="M281.606,560.443c0-.815-.368-3.1-1.59-3.59a15.7,15.7,0,0,0-3.47-.679,15.427,15.427,0,0,0-3.426.679c-1.225.491-1.551,2.773-1.551,3.59s-.449,4.731-.449,4.731a26.386,26.386,0,0,0,2.039-4.089,3.519,3.519,0,0,1,6.854-.057,28.023,28.023,0,0,0,2.021,4.146s-.428-3.917-.428-4.731Zm-5.06,7.342v7.833a16.933,16.933,0,0,1-5.549-.611,25.033,25.033,0,0,1-3.875-1.183s3.321-3.324,4.773-4.569A8.246,8.246,0,0,1,276.546,567.786Zm0,0v7.833a16.933,16.933,0,0,0,5.549-.611,25.035,25.035,0,0,0,3.875-1.183s-3.324-3.324-4.773-4.569A8.245,8.245,0,0,0,276.546,567.786Z" transform="translate(-242.601 -518.175)" fill="#141414"/>
</svg>
