<svg id="NER" xmlns="http://www.w3.org/2000/svg" width="93.996" height="67.886" viewBox="0 0 93.996 67.886">
  <path id="Path_40439" data-name="Path 40439" d="M0,11.556H93.993V37.665H0Z" transform="translate(0.003 9.334)" fill="#eee"/>
  <path id="Path_40440" data-name="Path 40440" d="M83.55,4.444H10.444A10.445,10.445,0,0,0,0,14.889V25.334H93.992V14.889A10.445,10.445,0,0,0,83.547,4.444Z" transform="translate(0.001 -4.444)" fill="#e05206"/>
  <path id="Path_40441" data-name="Path 40441" d="M33.334,22.889A10.445,10.445,0,1,1,22.889,12.444,10.445,10.445,0,0,1,33.334,22.889Z" transform="translate(24.11 11.054)" fill="#e05206"/>
  <path id="Path_40442" data-name="Path 40442" d="M83.55,41.334H10.444A10.445,10.445,0,0,1,0,30.889V20.444H93.992V30.889A10.445,10.445,0,0,1,83.547,41.334Z" transform="translate(0.001 26.552)" fill="#0db02b"/>
</svg>
