<svg id="NFK" xmlns="http://www.w3.org/2000/svg" width="93.993" height="67.889" viewBox="0 0 93.993 67.889">
  <path id="Path_40443" data-name="Path 40443" d="M10.445,4.446A10.445,10.445,0,0,0,0,14.891v47A10.445,10.445,0,0,0,10.445,72.332H31.332V4.449H10.445Zm73.1,0H62.661V72.329H83.548A10.445,10.445,0,0,0,93.993,61.884v-47A10.445,10.445,0,0,0,83.548,4.443Z" transform="translate(0 -4.443)" fill="#007934"/>
  <path id="Path_40444" data-name="Path 40444" d="M10.667,4.444H42V72.327H10.667Z" transform="translate(20.665 -4.441)" fill="#eee"/>
  <path id="Path_40445" data-name="Path 40445" d="M28.868,38.03c1.372-.106,3.51.482,5.081.341s1.322-.253.8-.661a.863.863,0,0,0-1.231.156c-.27.27-.731.25-.52-.018s.018-.388-.5-.358a5.814,5.814,0,0,0-1.231.305c-.338.088-.714-.147-.449-.267s.232-.232.018-.25-.229-.159.358-.253a2.529,2.529,0,0,1,1.339.2,1.107,1.107,0,0,0,.984-.156c.247-.176.391-.376.693-.358s.485-.144.091-.411a1.428,1.428,0,0,0-1.3-.12c-.344.162-.5.053-.626-.109s-.605-.147-1.084.07-.811.491-1.09.106c-.144-.2-1.125.035-1.727.214s-.717,0-.22-.232c.664-.305,1.069-.091,2.053-.464.664-.25,1.6.159,3.161-.731.373-.214.731-.429-.3-.464-.52-.018-.767.035-.946.27s-.391.176-.376,0-.467-.3-.875-.035a4.858,4.858,0,0,1-.911.552c-.2.053-.241.009-.2-.144s-.1-.132-.273-.018a1.357,1.357,0,0,1-.679.253c-.2-.018-.411-.179.144-.467a3.277,3.277,0,0,1,1.915-.573c1.107.091,1.351-.367,1.892-.35s.817-.388.1-.4a1.525,1.525,0,0,0-1.1.27c-.159.112-.485.2-.432-.047s-.07-.244-.326-.126a2.356,2.356,0,0,1-1.2.106c-.3-.085-.59-.247.135-.282s1.225-.382,1.839-.223c.552.144.843-.141,1.046-.115s.458-.153.091-.446a2.716,2.716,0,0,0-1.607-.261c-.317.056-.485,0-.426-.123s-.029-.176-.305-.167a5.583,5.583,0,0,0-1.372.329c-.429.185-.749-.1-.4-.329a2.285,2.285,0,0,1,1.184-.294c.341.047.491.082.391-.153-.044-.106-.059-.241.305-.153a2.5,2.5,0,0,0,1.516-.126c.411-.232.109-.5-.552-.482a6.777,6.777,0,0,0-2.658.587c-.573.376-.652-.026-.417-.153s.267-.214.141-.294-.117-.153.226-.276a18.733,18.733,0,0,0,2.174-.543c.614-.279,1.251-.608,1.445-1.087s-.106-.32-.467-.176-.57.247-.57.5-.3.25-.282-.056-.162-.444-.646-.247a7.216,7.216,0,0,1-2.121.59c-.429-.053-.605-.323-.162-.341a5.669,5.669,0,0,0,1.41-.32c.358-.123.573-.32.3-.464s-.068-.32.235-.32.658-.27,1.049-.214.834-.076.32-.376c-.211-.123-.408-.285-.144-.429s.109-.535-.3-.587a2.349,2.349,0,0,0-1,.106c-.211.07-.391.053-.444-.126s-.749-.162-1.037-.088-.834.035-.426-.162a5.163,5.163,0,0,1,1.709-.32,3.359,3.359,0,0,0,1.107-.2c.229-.091.288-.552-.229-.552s-1.193.035-1.072-.159-.32-.32-.817-.214-1.181.214-.784-.056a3.5,3.5,0,0,1,1.569-.538c.376.015.64-.053.391-.355s-.088-.411.162-.446.3-.341-.056-.411a3.142,3.142,0,0,0-1.709-.035c-.608.338-1.069.32-.875.123s.059-.191-.256-.106a15.184,15.184,0,0,1-2.67.608c-.217-.018-.464.026-.458-.235,0-.238.173-.256.8-.355a21.654,21.654,0,0,1,3.21-.517c.59.07.84-.015.679-.267s-.626-.056-.426-.376-.159-.288-.432-.3a1.221,1.221,0,0,1-.7-.267c-.217-.209-.952-.088-1.328.056a5.39,5.39,0,0,1-1.522.314c-.391-.026-.414-.026-.435-.314-.009-.147.041-.206.22-.276a8.535,8.535,0,0,1,2.588-.126c1.016.2,1.057-.179.843-.364-.273-.241-1.157-.132-1.712-.035s-1.14.206-1.292.07.018-.256.4-.329c.464-.088,1.554-.029,1.724-.106s.341-.332-.038-.432a3.926,3.926,0,0,0-1.665.144c-.408.144-.866.1-.966-.044s-.059-.5.626-.444a16.783,16.783,0,0,0,2.168,0c.226-.035.253-.2.135-.347s-.258-.314-.129-.429.082-.214.012-.311,0-.176.07-.244.164-.214-.091-.167c-.435.082-1.116-.144-1.46-.009a4.32,4.32,0,0,1-1.4.188.14.14,0,0,1,.035-.276A6.039,6.039,0,0,0,25.7,17.8a1.868,1.868,0,0,1,.911-.241c.344.009.573-.123.232-.285a1.641,1.641,0,0,0-1.216.035,2.962,2.962,0,0,1-1.21.4c-.311-.044-.341-.226-.223-.617.062-.206.473-.223.761-.17s1.125-.159,1.445-.088.608-.056.253-.32a.961.961,0,0,0-1.037-.035c-.355.144-1.14.341-1.351.144s-.267-.7.132-.517c.435.2,1.524-.159,1.818-.009s.446-.132.159-.267a3.384,3.384,0,0,0-1.4.056c-.482.109-.679.144-.679-.132,0-.188.552-.159.7-.117.394.106.975-.382,1.328-.294s.294-.109.109-.25a1.539,1.539,0,0,0-1.143.088,1.845,1.845,0,0,1-.837.25c-.159-.012-.229-.056-.229-.341s.153-.367.364-.473c.347-.17.405-.429.141-.364-.411.1-.552.232-.552-.32,0-.25.035-.476.364-.543s.394-.294.288-.347-.244.079-.405.144-.27.126-.285-.32a.292.292,0,0,1,.294-.347.553.553,0,0,0,.376-.214c.07-.1,0-.232-.229-.132s-.452.126-.455-.132c-.009-.579-.082-1.909-.1-2.221s-.241-.391-.241-.035-.021,1.642-.07,2.247c-.018.214-.144.232-.323.126s-.693-.035-.338.126.587.214.605.5-.141.32-.446.176-.693-.088-.141.25.587.358.57.714-.2.323-.552.162c-.432-.2-.784-.035-.285.2s.837.535.819.858-.267.476-.64.012a1.711,1.711,0,0,0-1.425-.643c-.446.053-.214.267.3.464a6.113,6.113,0,0,1,1.554.8c.2.217.088.391-.376.2a4.315,4.315,0,0,0-1.839-.464c-.341.126-.482.32.091.341a8.147,8.147,0,0,1,1.98.341c.52.2.59.605.088.461a4.634,4.634,0,0,0-2.3-.176c-.408.253-.535.5.162.391a4.6,4.6,0,0,1,1.962.056c.214.088.391.106.376.411s-.25.3-.676.126-1.715-.517-2.106-.2-.3.376.25.285a6.266,6.266,0,0,1,1.8.07c.831.162.767.305.232.305a13.991,13.991,0,0,1-2.5-.073,2.108,2.108,0,0,0-1.143-.141c-.214.091-.035.176.141.176s.323.144.2.267-.2.355.305.267a3.584,3.584,0,0,1,1.586.056,6.2,6.2,0,0,0,1.407.355c.5.056.517.07.5.446-.012.276-.587.106-1.14-.25a2.344,2.344,0,0,0-2.124-.214c-.5.341-.214.411.25.32a6.919,6.919,0,0,1,2.229.3c.482.162.775.056.749.5-.018.267-.288.129-.7-.035a7.88,7.88,0,0,0-3.246-.482c-.35.044-.4.079-.288.176.085.07.021.206-.188.258a1.89,1.89,0,0,0-.623.25c-.135.106-.126.214.258.176s.767.029.543.176-.505.355-.059.394A10.726,10.726,0,0,1,22.6,21.99c.573.323.723.347.714.643s-.317.247-.652.07c-1.043-.552-2.08-.426-2.614-.8s-1.319-.787-1.818-.464-.411.517.035.464.928.018.749.25-.3.382.429.482A17.022,17.022,0,0,1,22.67,23.65c.555.232.767.391.3.464s-.482-.258-1.213-.285a2.781,2.781,0,0,1-1.375-.517,1.244,1.244,0,0,0-1.069-.32,5.679,5.679,0,0,0-1.586.305c-.282.162-.394.391.07.411s.679.3.323.429a2.722,2.722,0,0,0-.858.341c-.126.144.053.27.535.27a4.719,4.719,0,0,1,1.892.482,18.067,18.067,0,0,0,3.087,1.319c.52.035.573.106.552.376s-.2.214-.623.088a7.7,7.7,0,0,1-2.033-.837,2.294,2.294,0,0,0-1.148-.676c-.358-.018-.258.1-.135.232s.115.461-.123.241c-.385-.358-.661-.74-1.166-.749a2.905,2.905,0,0,0-1.248.144c-.261.144-.226.35.258.417a4.7,4.7,0,0,1,1.472.429c.285.17.159.341-.106.32s-.206.132.088.311.473.417.247.476c-.32.079-.881-.564-1.14-.529-.176.026-.035.153.115.25s.156.426-.088.241a1.393,1.393,0,0,0-1.31-.411c-.517.188-.764.411-.329.6s.752.361.543.623c-.1.126-.194.314.426.358a1.621,1.621,0,0,1,1,.385c.188.209-.056.288-.285.188a1.069,1.069,0,0,0-1,.082c-.25.235,0,.391.508.452,1.425.17,2.943.634,3.78.708a6.987,6.987,0,0,1,1.892.411c.473.185.223.714-.123.535a4.981,4.981,0,0,0-1.019-.438c-.188-.035-.188.035-.153.206s-.176.256-.382.059a3.128,3.128,0,0,0-1.213-.632c-.382-.062-.329.009-.267.129s.035.341-.214.091a2.6,2.6,0,0,0-1.5-.579c-.3.018-.238.115-.176.241s-.1.391-.285.135a.8.8,0,0,0-1.06-.341,2.061,2.061,0,0,1-.679.332c-.288.056-.223.217.167.3,1.025.223,1.425-.062,2.106.206a4.329,4.329,0,0,0,1.166.285c.194.018.341.135.117.2s-.206.241.035.458.05.546-.162.294c-.385-.464-.946-.3-1.148-.526s-.294-.2-.294-.018-.1.223-.294.07a1.74,1.74,0,0,0-1.909-.176c-.367.253-.285.335.376.438a27.446,27.446,0,0,1,6.18,1.522c1.084.455,1.019.552.966.69s-.264.164-.7-.126c-.491-.332-1.8-.529-2.382-.884s-.749-.167-.59.059.1.455-.229.159a2.918,2.918,0,0,0-1.407-.679c-.391-.009-.1.159.1.294s.241.543-.1.329a3.255,3.255,0,0,0-2.132-.579c-.781.2-.67.314-.267.573a2.451,2.451,0,0,0,1.633.42,4.031,4.031,0,0,1,2.059.385c.382.25.026.311-.232.159a2.779,2.779,0,0,0-1.24-.229c-.285.035-.153.167-.035.3s-.018.552-.25.294a3.017,3.017,0,0,0-1.248-.649c-.837-.2-1.21.191-.846.32.223.079.338.2.2.376s-.206.382.247.311a11.215,11.215,0,0,1,4.095.214c.928.294.723.491.482.476s-.5-.147-.376.085.115.441-.2.223a3.714,3.714,0,0,0-1.944-.6c-.223.009-.123.129-.026.253s-.044.341-.285.153a2.2,2.2,0,0,0-.978-.464c-.291-.009-.285.088-.153.223s.106.367-.17.17a2.79,2.79,0,0,0-1.533-.573c-.473.032-.261.267.17.446a8.264,8.264,0,0,0,2.273.608c.605.053,1.14.223,1.392.238s.355.156.015.2c-.461.056-1.21-.279-1.586-.106-.2.088.05.22.082.282.062.129.035.455-.2.258-.731-.6-1.187-.514-1.445-.7s-.526-.079-.358.132-.188.153-.461-.015a1.512,1.512,0,0,0-1.034-.2c-.294.091-.429.2.176.517a5.884,5.884,0,0,0,1.715.679c.614.115.693.479.355.435s-.4.153-.167.32a.56.56,0,0,1,.159.438c-.018.135-.223.106-.491-.188a3.072,3.072,0,0,0-2.764-.561c-.7.206-.411.543.1,1.022a2.374,2.374,0,0,0,2.3.828c1.319-.162,3.654-.658,4.729-.373s.952.77.623.822c-.587.085-.573-.485-1.175-.52a1.066,1.066,0,0,0-1,.482c-.194.211-.341.4-.963.106-.787-.376-1.392.159-1.73.088.32.176.858.59.717.749s-.376-.162-.858-.341a2.113,2.113,0,0,0-1.73.106c-.535.32.018.643.605.787a6.973,6.973,0,0,0,2.926-.144,15.9,15.9,0,0,1,2.834-.5c.358-.012.52.185.276.411a1.372,1.372,0,0,0,1.025-.144c.59-.376.508,0,.382.232.388.026,1.054-.455,1.322-.276.079,1.613-.029,4.876-.029,6,0,.2.144.162,1.125.162,1.187,0,1.251.088,1.21-.485a48.37,48.37,0,0,1-.267-5.1c.109-1.213.446-1.125.875-1.034a10.885,10.885,0,0,0,1.947.391c-.32-.341-.358-.573-.056-.5a1.167,1.167,0,0,0,.96-.285c-.229-.018-.388-.32.023-.391s.549.144,1.26.376,3.4.764,4.926-.214c.446-.285.088-.411-.464-.411a2.613,2.613,0,0,0-1.107.232c-.27.106-.508.185-.455-.026s-.426-.294-.858-.1-.793.285-.687.056-.062-.285-.634-.25c-.5.032-1.98-.132-1.915-.37.035-.147.317-.214.811-.106a25.357,25.357,0,0,0,4.562.27c1.281-.088.9-.485.417-.623a1.373,1.373,0,0,0-1.166.115c-.129.153-.552.25-.449.009.144-.341-.564-.417-1.187-.079-.426.232-.508.115-.358-.07s-.1-.317-.579-.273a7.343,7.343,0,0,1-2.417-.135c-.546-.238-.417-.311.493-.385Zm-4.25-18.578c-.159.044-.329.115-.329-.07s.2-.115.329-.1.317.082,0,.17Zm-.009-.837a1.368,1.368,0,0,0,.617.035c.188-.047.411.1.115.176-.529.144-1.069.258-1.078-.07-.006-.2.214-.188.347-.144Zm-1.524-.159c-.291-.123-.2-.258-.056-.311s.444-.035.429.276C23.449,18.606,23.211,18.506,23.084,18.456ZM18.241,38.533c-.153-.223.047-.082.358.009.185.053.367.176.358.329-.018.258-.564-.115-.717-.338Zm3.6-3.6c.3.2,1.248.176,1.248.573,0,.176-.2.07-.432.07A2.06,2.06,0,0,1,21.6,35.09C21.284,34.8,21.53,34.732,21.836,34.929Zm1.193,3.851c-.041.361-.64.106-1.09-.141s.035-.358.232-.305a1.175,1.175,0,0,0,.623,0c.232-.05.288,0,.232.446Zm-.282-1.031a6.189,6.189,0,0,1-1.624-.52c-.605-.247-.056-.391.3-.247a4.223,4.223,0,0,0,1.339.176A.3.3,0,1,1,22.747,37.748Zm-.517-8.207c-.517-.07-.981-.461-2.391-.784-.587-.132-.446-.214-.035-.214s1.607.538,2.873.734c.282.044.623.106.605.5s-.546-.164-1.049-.235Zm.523-1.463a6.912,6.912,0,0,0-1.8-.661c-.4-.082-.623-.214-.241-.27a2.478,2.478,0,0,1,1.381.305,3.084,3.084,0,0,0,.893.329c.185,0,.329-.026.329.364,0,.42-.238.17-.561-.07Zm-1.842-7.851c.517.2,1.56.117,2.229.535.288.176-.106.214-.517.053s-.893-.07-1.73-.358C20.206,20.228,20.5,20.072,20.911,20.228Zm1.354,3.017c-.614-.223-.864-.411-.82-.505s.62.047,1.016.176c.708.232.852.25.831.561-.018.25-.411-.009-1.025-.232Zm-1.463.74a5.085,5.085,0,0,1,1.915.608c.364.173.573.241.561.473-.009.2-.229.106-.411-.018s-1.436-.5-2.041-.749-.649-.314-.026-.314ZM23.355,26c-.018.159-.162.053-.3.053a15.444,15.444,0,0,0-1.786-.632,13.086,13.086,0,0,1-1.419-.59c-.473-.153-.106-.364.153-.217a2.774,2.774,0,0,0,.864.241,7.382,7.382,0,0,1,1.83.7c.153.106.7.076.658.449Zm.079-4.274c-.018.285-.153.314-.332.153a3.139,3.139,0,0,0-1.019-.4c-.426-.126-.258-.391.073-.232a2.165,2.165,0,0,0,1.16.188C23.513,21.405,23.443,21.567,23.434,21.729Zm.793.916c.015-.411.056-.426.311-.373a8.508,8.508,0,0,0,1.545-.009c.358-.035.649.1.044.214a7.8,7.8,0,0,0-1.322.35C24.547,22.933,24.206,23.053,24.227,22.645Zm3.534,8.377a22.04,22.04,0,0,1-2.373.875c-.661.3-.787.214-.787-.2,0-.449.461-.176.7-.341s1.639-.305,2.071-.535.64-.073.391.2ZM26.671,33.2a9.707,9.707,0,0,0-1.5.514c-.676.235-.576-.132-.3-.3a5.658,5.658,0,0,1,1.73-.432C27.114,32.946,27.1,33.143,26.671,33.2Zm-.27-2.732a2.494,2.494,0,0,1-1.034.408c-.52.123-.767.109-.767-.2s.162-.214.535-.176a3.944,3.944,0,0,0,1.266-.035ZM25.17,28.872c-.2.126-.623.188-.614,0s0-.17.106-.176a11.458,11.458,0,0,0,1.257-.364c.426-.035.667-.07.417.115s-.975.3-1.169.429Zm-.364-4.059a4.284,4.284,0,0,0,1.066-.211c.273-.106.294-.029.12.082a6.944,6.944,0,0,1-.978.376c-.364.115-.543.159-.552-.073-.012-.206.035-.179.347-.173Zm.047,1.615a3.524,3.524,0,0,0,1.354-.144,1.207,1.207,0,0,1,.7-.117c.135.015.082.106-.153.25s-1.04.153-1.307.32a1.888,1.888,0,0,1-.831.214c-.17.009-.2,0-.2-.2,0-.3.053-.347.435-.329Zm-.414,1.345c.009-.206.029-.258.217-.258.5,0,1.336-.391,1.668-.4s.5.176.1.232a6.438,6.438,0,0,0-1.439.382c-.179.117-.555.25-.546.044Zm.681,1.715c.5.07.552.247-.106.358-.32.053-.435.07-.461-.217-.021-.176.068-.214.57-.141Zm-.235,3.14a4.433,4.433,0,0,0,.975-.153c.335-.1.3.035.085.153a2.307,2.307,0,0,1-1.151.294c-.4-.041-.27-.311.088-.294Zm.822,6.242a1.084,1.084,0,0,0-.626-.035c-.229.053-.391-.147-.391-.391.232.176.8-.109,1.319.176.217.123-.07.32-.3.25Zm.232-1.407c-.264,0-.661.285-1.016.211s-.32-.408.035-.317c.285.068.5-.056.893-.147s.352.253.085.253Zm-1.054-1.342a1.776,1.776,0,0,0,.573-.068c.214-.068.2.068.035.159s-.391.25-.623.176-.179-.27.015-.27Zm.144-1.533c-.7.305-.479-.153-.144-.3.2-.088,1.14-.411,1.695-.623a5.1,5.1,0,0,1,1.375-.267c.408-.056.408.018.12.358s-.605.232-1.066.214a5.976,5.976,0,0,0-1.983.623Zm2.461.555c-.444.018-.449-.138-.2-.214a.958.958,0,0,1,.626-.018c.123.088.018.214-.432.232Z" transform="translate(23.392 5.465)" fill="#007934"/>
  <path id="Path_40446" data-name="Path 40446" d="M20.367,14.714a.793.793,0,0,1-.793.793H17.923a.793.793,0,0,1,0-1.586h1.651A.793.793,0,0,1,20.367,14.714Zm4.006,11.094a1.151,1.151,0,0,1-1.148,1.151h-.109a1.15,1.15,0,1,1,0-2.3h.109A1.148,1.148,0,0,1,24.374,25.808Zm-1.586,4.673a.42.42,0,0,1-.84,0V28.842a.42.42,0,0,1,.84,0Zm-2.679-.449a.775.775,0,0,1-.775.778h-.355a.777.777,0,0,1,0-1.554h.355A.777.777,0,0,1,20.109,30.032ZM20.4,18.714c0,.626-.355,1.14-.793,1.14s-.793-.508-.793-1.14V17.466c0-.626.355-1.14.793-1.14s.793.508.793,1.14Zm1.874-3.842a.476.476,0,0,1-.952,0v-.726a.476.476,0,0,1,.952,0Zm6.759,16.052a.823.823,0,0,1-.755.875H26.706a.883.883,0,0,1,0-1.748h1.569A.82.82,0,0,1,29.029,30.925ZM16.936,32.308a.753.753,0,0,1-.752.752h-1.85a.752.752,0,1,1,0-1.5h1.85A.75.75,0,0,1,16.936,32.308Z" transform="translate(26.312 13.434)" fill="#eee"/>
</svg>
