<svg id="NIC" xmlns="http://www.w3.org/2000/svg" width="93.996" height="67.886" viewBox="0 0 93.996 67.886">
  <path id="Path_40450" data-name="Path 40450" d="M93.995,61.885A10.445,10.445,0,0,1,83.55,72.33H10.444A10.445,10.445,0,0,1,0,61.885v-47A10.445,10.445,0,0,1,10.444,4.444H83.55A10.445,10.445,0,0,1,93.995,14.889Z" transform="translate(0.001 -4.444)" fill="#265fb5"/>
  <path id="Path_40451" data-name="Path 40451" d="M0,11.556H93.993V37.665H0Z" transform="translate(0.003 9.334)" fill="#eee"/>
  <path id="Path_40452" data-name="Path 40452" d="M35.747,23.848a11.9,11.9,0,1,1-11.9-11.9A11.9,11.9,0,0,1,35.747,23.848Z" transform="translate(23.151 10.095)" fill="#a9bf4c"/>
  <path id="Path_40453" data-name="Path 40453" d="M33.334,22.889A10.445,10.445,0,1,1,22.889,12.444,10.445,10.445,0,0,1,33.334,22.889Z" transform="translate(24.11 11.054)" fill="#eee"/>
  <path id="Path_40454" data-name="Path 40454" d="M13.118,27.544l8.427-14.6,8.427,14.6Z" transform="translate(25.416 12.027)" fill="#265fb5"/>
  <path id="Path_40455" data-name="Path 40455" d="M13.436,26.28l7.493-12.974,7.49,12.974Z" transform="translate(26.032 12.724)" fill="#55acee"/>
  <path id="Path_40456" data-name="Path 40456" d="M13.436,19.881l1.809-3.131,11.285-.141,1.892,3.272Z" transform="translate(26.032 19.123)" fill="#bbddf5"/>
  <path id="Path_40457" data-name="Path 40457" d="M14.115,18.535l2.814-2.285,1.225,1.386,1.06-1.143.9.9.858-.937,1.022.937.937-.978.858.978.814-.9,1.348,1.674.247.491a13.442,13.442,0,0,1-3.387.123,17.862,17.862,0,0,0-4.65.491,21.148,21.148,0,0,1-4.324-.2l.285-.532Z" transform="translate(26.807 18.427)" fill="#5c913b"/>
  <path id="Path_40458" data-name="Path 40458" d="M14.954,16.417l1.877,2.038-.937.082-1.06-1.548Zm2.244.162,1.51,1.348-.693.123-.734-1.022Zm1.918-.082,1.3,1.225-.326.2-1.06-1.143Zm1.712,0-.529.491.247.285Zm1.63.044-.611.773.2.367.449-.858Z" transform="translate(28.741 18.751)" fill="#e2f09f"/>
  <path id="Path_40459" data-name="Path 40459" d="M18.087,14.6l.176,2.426,1.386-1.991-1.043,2.168,2.168-1.043-1.991,1.389,2.429.173-2.429.173,1.991,1.389-2.168-1.043,1.043,2.168-1.386-1.991-.176,2.426-.173-2.426-1.386,1.991,1.04-2.168L15.4,19.289,17.394,17.9l-2.429-.173,2.429-.173L15.4,16.164l2.168,1.043-1.04-2.168,1.386,1.991Z" transform="translate(28.994 15.239)" fill="#bbddf5"/>
  <path id="Path_40460" data-name="Path 40460" d="M16.324,15.292l-.491.491a4.654,4.654,0,0,1,.082.858c-.038.123.411.734.411.734l.611-.734-.162-.978-.449-.367Z" transform="translate(30.676 16.572)" fill="#dd2e44"/>
  <path id="Path_40461" data-name="Path 40461" d="M18.587,15.808a5.073,5.073,0,0,1,3.14.978l-.734-1.3a4.809,4.809,0,0,0-2.57-.9,6.2,6.2,0,0,0-2.937,1.1l-.693,1.386A7.525,7.525,0,0,1,18.587,15.808Z" transform="translate(28.659 15.198)" fill="#269"/>
  <path id="Path_40462" data-name="Path 40462" d="M18.587,15.539a5.073,5.073,0,0,1,3.14.978L21.2,15.58a6.416,6.416,0,0,0-2.814-.858,7.2,7.2,0,0,0-3.1,1.1l-.491.978a7.51,7.51,0,0,1,3.795-1.266Z" transform="translate(28.659 15.467)" fill="#ffcc4d"/>
  <path id="Path_40463" data-name="Path 40463" d="M18.587,15.219a5.073,5.073,0,0,1,3.14.978l-.367-.611a5.092,5.092,0,0,0-2.978-.693,9.022,9.022,0,0,0-3.3,1.022l-.285.573a7.51,7.51,0,0,1,3.795-1.266Z" transform="translate(28.659 15.787)" fill="#dd2e44"/>
  <path id="Path_40464" data-name="Path 40464" d="M22.968,33.729h2.6v2.494h-2.6Zm-.414-19.336H20.685l-.934-2.285,1.868-.209Zm4.259,1.04-1.245-.414L26.19,12l2.388.209ZM15.589,28.218l-3.636.831-.106-2.494,3.636-.52Zm.937,2.6L13.51,32.066l-.728-1.974,2.808-.937Zm20.059-2.285L33.26,27.6V25.83L37,25.308Zm-1.662,3.428-3.116-1.454,1.037-1.871,3.434,1.04Z" transform="translate(22.954 9.998)" fill="#eee"/>
</svg>
