<svg id="NIU" xmlns="http://www.w3.org/2000/svg" width="93.996" height="67.886" viewBox="0 0 93.996 67.886">
  <path id="Path_40477" data-name="Path 40477" d="M83.55,4.446H10.444a10.359,10.359,0,0,0-1.577.117L8.855,9.143,1.726,9.131A10.4,10.4,0,0,0,0,14.888v47A10.445,10.445,0,0,0,10.444,72.329H83.55A10.445,10.445,0,0,0,93.995,61.884v-47A10.445,10.445,0,0,0,83.55,4.443Z" transform="translate(0.001 -4.443)" fill="#ffe150"/>
  <path id="Path_40478" data-name="Path 40478" d="M49.61,38.387V4.444H10.447a11.38,11.38,0,0,0-1.577.117L8.858,9.141,1.729,9.129s-.109.153-.332.535A10.428,10.428,0,0,0,0,14.886v23.5H49.607Z" transform="translate(0.001 -4.441)" fill="#00247d"/>
  <path id="Path_40479" data-name="Path 40479" d="M49.6,4.446H43.518l-12.19,8.536V4.446H18.275v6.709L8.864,4.563A10.305,10.305,0,0,0,4.5,6.3l12.278,8.589H12.245L2.525,8.076a10.661,10.661,0,0,0-.8,1.054l8.227,5.757H0V27.941H10.144L0,35.164v3.222H8.7l9.576-6.706v6.706H31.331V29.85l12.187,8.536h6.089v-5.3l-7.349-5.146h7.349V14.888H42.261l7.346-5.146v-5.3Z" transform="translate(0.007 -4.443)" fill="#eee"/>
  <path id="Path_40480" data-name="Path 40480" d="M28.721,4.444H20.887V17.5H0v7.834H20.887V38.384h7.834V25.331H49.608V17.5H28.721Z" transform="translate(0.003 -4.441)" fill="#cf1b2b"/>
  <path id="Path_40481" data-name="Path 40481" d="M48.343,4.444H44.527L30.064,14.572v.317h4.1L48.34,4.961ZM3.235,6.3A10.536,10.536,0,0,0,1.258,8.077l9.719,6.812h4.529L3.232,6.3ZM15.542,27.942.653,38.387H5.162l11.852-8.3V27.942Zm32.8,9.928V34.686l-9.625-6.741h-4.55Z" transform="translate(1.268 -4.441)" fill="#cf1b2b"/>
  <path id="Path_40482" data-name="Path 40482" d="M19.276,14.527A6.527,6.527,0,1,1,12.75,8,6.527,6.527,0,0,1,19.276,14.527Z" transform="translate(12.059 2.448)" fill="#004a77"/>
  <path id="Path_40483" data-name="Path 40483" d="M19.93,13.387l1.563,4.177,4.761.1-3.795,3.2,1.381,4.559L19.927,22.7l-3.912,2.72L17.4,20.862l-3.795-3.2,4.761-.1ZM5.112,17.352,5.755,19.2l1.953.041L6.151,20.418l.564,1.868-1.6-1.116-1.6,1.116.567-1.868-1.56-1.181L4.471,19.2Zm29.64,0,.643,1.845,1.953.041-1.557,1.181.564,1.868-1.6-1.116-1.6,1.116.564-1.868-1.557-1.181,1.953-.041ZM19.93,5.174l.643,1.845,1.953.041L20.97,8.241l.564,1.868-1.6-1.116-1.6,1.116.567-1.868L17.334,7.06l1.953-.041Zm0,24.717.643,1.845,1.953.038L20.97,32.955l.564,1.871-1.6-1.116-1.6,1.116.567-1.871-1.56-1.181,1.953-.038Z" transform="translate(4.875 -3.027)" fill="#ffe150"/>
</svg>
