<svg id="NPL" xmlns="http://www.w3.org/2000/svg" width="51.684" height="67.883" viewBox="0 0 51.684 67.883">
  <path id="Path_40471" data-name="Path 40471" d="M58.8,41,7.112,4.445V72.328H58.8L27.785,41Z" transform="translate(-7.112 -4.445)" fill="#22408b"/>
  <path id="Path_40472" data-name="Path 40472" d="M49.774,34.606,8,6.4V65.935H49.774L19.943,34.6Z" transform="translate(-5.392 -0.665)" fill="#dd2f45"/>
  <path id="Path_40473" data-name="Path 40473" d="M20.117,39.334l1.53-2.13-2.611.256.261-2.611-2.132,1.53-1.081-2.391L15,36.379l-2.132-1.53.258,2.611L10.518,37.2l1.53,2.13L9.657,40.415,12.048,41.5l-1.53,2.13,2.611-.256-.258,2.611L15,44.451l1.081,2.391,1.081-2.391,2.132,1.53-.261-2.611,2.611.256-1.53-2.13,2.391-1.081Zm-4.036-18.66,0,.006,0-.006.047.006a7.308,7.308,0,0,0,7.27-6.7,8.357,8.357,0,0,1-4.165,3.766l-.458-.637,1.595-.72-1.595-.72L19.8,14.244l-1.745.173.176-1.745L16.81,13.695l-.72-1.6-.72,1.6-1.425-1.022.176,1.745-1.745-.173L13.4,15.666l-1.595.72,1.595.72-.435.608a8.353,8.353,0,0,1-4.089-3.736,7.3,7.3,0,0,0,7.214,6.7Z" transform="translate(-3.695 10.379)" fill="#fff"/>
</svg>
