<svg id="NRU" xmlns="http://www.w3.org/2000/svg" width="93.996" height="67.886" viewBox="0 0 93.996 67.886">
  <path id="Path_40474" data-name="Path 40474" d="M93.995,61.885A10.445,10.445,0,0,1,83.55,72.33H10.444A10.445,10.445,0,0,1,0,61.885v-47A10.445,10.445,0,0,1,10.444,4.444H83.55A10.445,10.445,0,0,1,93.995,14.889Z" transform="translate(0.001 -4.444)" fill="#002b7f"/>
  <path id="Path_40475" data-name="Path 40475" d="M0,15.111H93.993v5.222H0Z" transform="translate(0.003 16.221)" fill="#ffc61e"/>
  <path id="Path_40476" data-name="Path 40476" d="M15.42,17.315,16.7,22.446l3.677-3.8L18.93,23.733l5.087-1.454-3.8,3.677,5.134,1.284-5.134,1.284,3.8,3.68L18.93,30.75l1.451,5.087-3.677-3.8L15.42,37.168l-1.284-5.134-3.677,3.8L11.91,30.75,6.823,32.2l3.8-3.68L5.489,27.24l5.134-1.284-3.8-3.677,5.087,1.454-1.451-5.087,3.677,3.8Z" transform="translate(10.637 20.491)" fill="#fff"/>
</svg>
