<svg id="NZL" xmlns="http://www.w3.org/2000/svg" width="93.996" height="67.886" viewBox="0 0 93.996 67.886">
  <path id="Path_40484" data-name="Path 40484" d="M83.55,4.446H10.444a10.359,10.359,0,0,0-1.577.117L8.855,9.143,1.726,9.131A10.4,10.4,0,0,0,0,14.888v47A10.445,10.445,0,0,0,10.444,72.329H83.55A10.445,10.445,0,0,0,93.995,61.884v-47A10.445,10.445,0,0,0,83.55,4.443Z" transform="translate(0.001 -4.443)" fill="#00247d"/>
  <path id="Path_40485" data-name="Path 40485" d="M31.785,10.66h-3.3l-.505-1.516L27.362,7.3l-.62,1.845-.505,1.516h-3.3l2.629,2.174-.52,1.533-.7,2.041,1.712-1.316,1.3-1,1.3,1,1.712,1.316-.7-2.041-.52-1.533,1.234-1.019Z" transform="translate(44.44 1.092)" fill="#eeeded"/>
  <path id="Path_40486" data-name="Path 40486" d="M26.166,8l-.655,1.959H23.555l1.58,1.307-.667,1.956,1.7-1.3,1.7,1.3L27.2,11.266l1.58-1.307H26.821Z" transform="translate(45.636 2.448)" fill="#cf1b2b"/>
  <path id="Path_40487" data-name="Path 40487" d="M31.785,25.105h-3.3l-.505-1.516-.62-1.845-.62,1.845-.505,1.516h-3.3l2.629,2.174-.52,1.533-.7,2.041,1.712-1.316,1.3-1,1.3,1,1.712,1.316-.7-2.041-.52-1.533L30.39,26.26Z" transform="translate(44.44 29.076)" fill="#eeeded"/>
  <path id="Path_40488" data-name="Path 40488" d="M26.166,22.444,25.511,24.4H23.555l1.58,1.307-.667,1.956,1.7-1.3,1.7,1.3L27.2,25.71l1.58-1.307H26.821Z" transform="translate(45.636 30.43)" fill="#cf1b2b"/>
  <path id="Path_40489" data-name="Path 40489" d="M35.341,14.216h-3.3L31.537,12.7l-.62-1.845L30.3,12.7l-.505,1.516h-3.3l2.629,2.174-.52,1.533-.7,2.041,1.712-1.316,1.3-1,1.3,1,1.712,1.316-.7-2.041-.52-1.533,1.234-1.019Z" transform="translate(51.329 7.981)" fill="#eeeded"/>
  <path id="Path_40490" data-name="Path 40490" d="M29.722,11.556l-.655,1.959H27.111l1.58,1.307-.667,1.956,1.7-1.3,1.7,1.3-.667-1.956,1.58-1.307H30.377Z" transform="translate(52.525 9.337)" fill="#cf1b2b"/>
  <path id="Path_40491" data-name="Path 40491" d="M28.23,15.994h-3.3l-.505-1.516-.62-1.845-.62,1.845-.505,1.516h-3.3l2.629,2.174-.52,1.533-.7,2.041,1.712-1.316,1.3-1,1.3,1,1.712,1.316-.7-2.041-.52-1.533,1.234-1.019Z" transform="translate(37.553 11.425)" fill="#eeeded"/>
  <path id="Path_40492" data-name="Path 40492" d="M22.611,13.333l-.655,1.959H20L21.58,16.6l-.667,1.956,1.7-1.3,1.7,1.3L23.642,16.6l1.58-1.307H23.266Z" transform="translate(38.749 12.779)" fill="#cf1b2b"/>
  <path id="Path_40493" data-name="Path 40493" d="M49.61,38.387V4.444H10.447a11.38,11.38,0,0,0-1.577.117L8.858,9.141,1.729,9.129s-.109.153-.332.535A10.428,10.428,0,0,0,0,14.886v23.5H49.607Z" transform="translate(0.001 -4.441)" fill="#00247d"/>
  <path id="Path_40494" data-name="Path 40494" d="M49.6,4.446H43.518l-12.19,8.536V4.446H18.275v6.709L8.864,4.563A10.305,10.305,0,0,0,4.5,6.3l12.278,8.589H12.245L2.525,8.076a10.661,10.661,0,0,0-.8,1.054l8.227,5.757H0V27.941H10.144L0,35.164v3.222H8.7l9.576-6.706v6.706H31.331V29.85l12.187,8.536h6.089v-5.3l-7.349-5.146h7.349V14.888H42.261l7.346-5.146v-5.3Z" transform="translate(0.007 -4.443)" fill="#eee"/>
  <path id="Path_40495" data-name="Path 40495" d="M28.721,4.444H20.887V17.5H0v7.834H20.887V38.384h7.834V25.331H49.608V17.5H28.721Z" transform="translate(0.003 -4.441)" fill="#cf1b2b"/>
  <path id="Path_40496" data-name="Path 40496" d="M48.343,4.444H44.527L30.064,14.572v.317h4.1L48.34,4.961ZM3.235,6.3A10.536,10.536,0,0,0,1.258,8.077l9.719,6.812h4.529L3.232,6.3ZM15.542,27.942.653,38.387H5.162l11.852-8.3V27.942Zm32.8,9.928V34.686l-9.625-6.741h-4.55Z" transform="translate(1.268 -4.441)" fill="#cf1b2b"/>
</svg>
