<svg id="OMN" xmlns="http://www.w3.org/2000/svg" width="93.993" height="67.892" viewBox="0 0 93.993 67.892">
  <path id="Path_40497" data-name="Path 40497" d="M7.111,41.334H69.772A10.445,10.445,0,0,0,80.217,30.889V20.444H7.111V41.331Z" transform="translate(13.776 26.555)" fill="green"/>
  <path id="Path_40498" data-name="Path 40498" d="M69.772,4.446H7.111V25.333H80.217V14.888A10.445,10.445,0,0,0,69.772,4.443Z" transform="translate(13.776 -4.443)" fill="#eee"/>
  <path id="Path_40499" data-name="Path 40499" d="M93.993,25.332H23.5V4.445H10.445A10.445,10.445,0,0,0,0,14.89v47A10.445,10.445,0,0,0,10.445,72.331H23.5V51.444H93.993V25.335Z" transform="translate(0 -4.439)" fill="#db161b"/>
  <path id="Path_40500" data-name="Path 40500" d="M4.814,9.91c.817,1.48.817,2.059.579,2.191s-.623-.235-1.436-1.715S2.2,6.873,2.437,6.744,4,8.433,4.814,9.91ZM9.751,9c-.817,1.48-1.287,2.785-1.049,2.917s1.09-.963,1.906-2.441S11.9,6.691,11.657,6.559,10.565,7.522,9.751,9ZM8.282,11.379,7.507,7.666l-.073-.015a.715.715,0,0,0,.482-.62.812.812,0,0,0-.858-.755.814.814,0,0,0-.858.758.734.734,0,0,0,.458.634l-.74,3.748,2.365-.038Z" transform="translate(4.65 -0.89)" fill="#eee"/>
  <path id="Path_40501" data-name="Path 40501" d="M14.095,15.06c-.708-.59-3.522-3.025-4.858-4.479A3.956,3.956,0,0,0,9.4,9.232h.044v.021h2.326V9.7h2.855V8.316H11.769v.449H9.445v.021H9.363v-.7H7.239v.7H6.382v.041H4.707V8.251H2.017v1.51H4.707v-.57H6.382v.041H7.1l-.094.975s-2.714.12-3.442.238c-1.8.285-1.225.814.247,1.3A7.51,7.51,0,0,0,5.8,12.1a25.493,25.493,0,0,1-3.66,3.04c-.573.326-.573.734.529.491,1.069-.238,3.536-2.417,4.4-3.519l.743-.032a1.341,1.341,0,0,0,.963-.585A25.229,25.229,0,0,0,12.946,15.3a2.312,2.312,0,0,0,1.707.505c.332-.053.167-.135-.567-.746Z" transform="translate(3.405 2.611)" fill="#eee"/>
</svg>
