<svg id="PAK" xmlns="http://www.w3.org/2000/svg" width="93.993" height="67.889" viewBox="0 0 93.993 67.889">
  <path id="Path_40525" data-name="Path 40525" d="M68.05,4.446H8V72.329H68.05A10.445,10.445,0,0,0,78.495,61.884v-47A10.445,10.445,0,0,0,68.05,4.443ZM43.247,57.9a19.572,19.572,0,0,1-3.231-38.878A16.963,16.963,0,1,0,62.542,41.547,19.569,19.569,0,0,1,43.247,57.9ZM56.588,30.682,53.422,35.96l-.543-6.133-6-1.378,5.666-2.412L52,19.9l4.042,4.644,5.666-2.412-3.163,5.281,4.042,4.644-6-1.381Z" transform="translate(15.498 -4.443)" fill="#004600"/>
  <path id="Path_40526" data-name="Path 40526" d="M10.445,4.444A10.445,10.445,0,0,0,0,14.889v47A10.445,10.445,0,0,0,10.445,72.33H23.5V4.447H10.445Z" transform="translate(0 -4.441)" fill="#eee"/>
  <path id="Path_40527" data-name="Path 40527" d="M36.069,11.939,30.4,14.351,26.362,9.707l.54,6.133-5.666,2.412,6,1.378.543,6.133,3.166-5.278,6,1.381-4.042-4.644Z" transform="translate(41.14 5.755)" fill="#fff"/>
  <path id="Path_40528" data-name="Path 40528" d="M36.831,41.757A16.963,16.963,0,0,1,29.685,9.406,19.572,19.572,0,1,0,52.211,31.932,16.959,16.959,0,0,1,36.831,41.757Z" transform="translate(25.83 5.172)" fill="#fff"/>
</svg>
