<svg id="PAN" xmlns="http://www.w3.org/2000/svg" width="93.993" height="67.887" viewBox="0 0 93.993 67.887">
  <path id="Path_40502" data-name="Path 40502" d="M47,38.387V4.444H10.445A10.445,10.445,0,0,0,0,14.889v23.5Zm0,0V72.33H83.548A10.445,10.445,0,0,0,93.993,61.885v-23.5Z" transform="translate(0 -4.444)" fill="#eee"/>
  <path id="Path_40503" data-name="Path 40503" d="M47,16V49.943H10.445A10.445,10.445,0,0,1,0,39.5V16Z" transform="translate(0 17.943)" fill="#005293"/>
  <path id="Path_40504" data-name="Path 40504" d="M16,38.387V4.444H52.551A10.445,10.445,0,0,1,63,14.889v23.5Z" transform="translate(30.996 -4.444)" fill="#d21034"/>
  <path id="Path_40505" data-name="Path 40505" d="M14.672,12.968,12.913,7.555l-1.759,5.413H5.464l4.6,3.346L8.31,21.727l4.6-3.346,4.6,3.346-1.756-5.413,4.6-3.346Z" transform="translate(10.585 1.583)" fill="#005293"/>
  <path id="Path_40506" data-name="Path 40506" d="M26.067,27.869,24.31,33.282l4.6-3.346,4.6,3.346-1.756-5.413,4.6-3.346h-5.69L28.913,19.11l-1.759,5.413h-5.69Z" transform="translate(41.582 23.968)" fill="#d21034"/>
</svg>
