<svg id="PCN" xmlns="http://www.w3.org/2000/svg" width="94" height="67.889" viewBox="0 0 94 67.889">
  <path id="Path_41262" data-name="Path 41262" d="M83.556,142.222H10.445a10.481,10.481,0,0,0-1.577.118l-.01,4.58-7.128-.01A10.4,10.4,0,0,0,0,152.666v47a10.445,10.445,0,0,0,10.444,10.444H83.556A10.445,10.445,0,0,0,94,199.666v-47a10.445,10.445,0,0,0-10.444-10.444Z" transform="translate(-0.001 -142.222)" fill="#00247d"/>
  <path id="Path_41263" data-name="Path 41263" d="M801.82,550.275c0,1.279-1.465,2.319-3.272,2.319s-3.269-1.037-3.269-2.319,1.465-2.321,3.269-2.321S801.82,548.993,801.82,550.275Z" transform="translate(-722.275 -510.709)" fill="#dd2e44"/>
  <path id="Path_41264" data-name="Path 41264" d="M689.555,513.862c0,1.1,3.308,2.392,5.969-.851s1.888,1.17.8,1.854-2.259,2.334-4.614,2.081-2.953-1.185-3.5-2.543,1.345-.541,1.345-.541Z" transform="translate(-624.945 -477.905)" fill="#009a67"/>
  <path id="Path_41265" data-name="Path 41265" d="M660.2,450.534a1.306,1.306,0,0,1-.715,1.7l-2.418.987a1.3,1.3,0,1,1-.987-2.415l2.418-.99a1.305,1.305,0,0,1,1.7.715Zm20.816,7.353a1.19,1.19,0,0,1-1.567.541l-3.42-2.219a1.346,1.346,0,0,1,1.423-2.191l3.421,2.219a1.19,1.19,0,0,1,.144,1.65Z" transform="translate(-595.119 -421.493)" fill="#fff100"/>
  <path id="Path_41266" data-name="Path 41266" d="M901.374,470.7a1.305,1.305,0,0,1-2.515.7l-1.4-5.032a1.305,1.305,0,1,1,2.515-.7l1.4,5.031Z" transform="translate(-815.029 -435.109)" fill="#fff100"/>
  <path id="Path_41267" data-name="Path 41267" d="M926.459,523.319a1.306,1.306,0,1,1-1.306-1.306A1.3,1.3,0,0,1,926.459,523.319Z" transform="translate(-839.042 -487.149)" fill="#fff100"/>
  <path id="Path_41268" data-name="Path 41268" d="M685.278,461.965c0,.541-.585.979-1.306.979s-1.306-.436-1.306-.979V456.09c0-.543.585-.979,1.306-.979s1.306.436,1.306.979Z" transform="translate(-620 -426.389)" fill="#009a67"/>
  <path id="Path_41269" data-name="Path 41269" d="M682.37,494.148a1.172,1.172,0,0,1,.008,1.624l-3.094,2.321A1.365,1.365,0,0,1,677.717,496l3.094-2.321A1.178,1.178,0,0,1,682.37,494.148Z" transform="translate(-615.214 -461.282)" fill="#009a67"/>
  <path id="Path_41270" data-name="Path 41270" d="M670.216,459.967a1.4,1.4,0,1,1-1.4-1.287A1.345,1.345,0,0,1,670.216,459.967Zm24.312-4.214c-.285.674-1.715.708-3.2.076s-2.447-1.687-2.157-2.36,1.716-.708,3.2-.076S694.816,455.079,694.529,455.753Z" transform="translate(-606.153 -424.417)" fill="#009a67"/>
  <path id="Path_41271" data-name="Path 41271" d="M755.842,433.24a36.221,36.221,0,0,0-3.543,2.81l1.13.144a6.838,6.838,0,0,1,1.622,2.817c.24,1.368-.308.441-.423,1.5a2.531,2.531,0,0,0,.48,1.776,11.148,11.148,0,0,0,2.716-1.379c1.076-.825,1.8-2.063,2.41-1.428s.541.927.541.927h.8s-1.321-1.29-1.3-2.029a32.933,32.933,0,0,0-1.157-4.41l-3.274-.728Zm-1.778-3.293s1.24-.943,1.11-.825a2.817,2.817,0,0,0,2.334.272c.929-.381,2.747-2.217,3.193-1.945s-2.253,1.851-1.125,2.1,1.483-.7,2.18-1.044,1.789-.386.734.311-2.5,3.713-2.5,3.713l-4.256-.334-1.115-.817Z" transform="translate(-683.24 -401.241)" fill="#d4d5d6"/>
  <path id="Path_41272" data-name="Path 41272" d="M684.369,478.558c0,.6-1.572,1.089-3.509,1.089s-3.507-.488-3.507-1.089,1.569-1.089,3.507-1.089S684.369,477.955,684.369,478.558Zm-11.591,12.907c-.18.574-1.488.666-2.924.212s-2.449-1.282-2.269-1.854,1.491-.668,2.927-.214S672.959,490.9,672.779,491.464Zm19.857,4.238c-.078.444-1.373.587-2.893.319s-2.689-.841-2.611-1.282,1.371-.585,2.891-.316,2.692.841,2.614,1.279Z" transform="translate(-606.284 -446.694)" fill="#009a67"/>
  <path id="Path_41273" data-name="Path 41273" d="M724.659,504.314c-.41,1.977-1.1,3.5-1.546,3.407s-.467-1.765-.055-3.739,1.1-3.5,1.543-3.408S725.069,502.342,724.659,504.314ZM718.1,487.305c.715,1.867,2.739,5.559,4.669,5.585s2.186-.809,2.186-.809a1.756,1.756,0,0,1-1.684,1.739,5.512,5.512,0,0,1-2.431-.3,5.641,5.641,0,0,0,2.666,1.4c1.635.428,4.428.932,4.345,2.5s-1.175,2.17-1.065,1.48-1.12-1.943-3.28-2.428a7.092,7.092,0,0,1-5.671-5.162c-1.068-3.5-.2-.321-.2-.321s-2.115.645-2.1-.41,1.64-.5,1.305-1.843-1.128-2.259-.339-1.974S718.1,487.305,718.1,487.305Zm-5.321,4.778c-1.06,1.629-4.139,3.922-5.131,5a9.676,9.676,0,0,0-1.922,4.46c-.211,1.35.193,3.428.945,1.094s2.084-3.24,3.428-4.747a17.957,17.957,0,0,0,2.755-3.509,3.112,3.112,0,0,0-.076-2.3Z" transform="translate(-640.889 -455.092)" fill="#009a67"/>
  <path id="Path_41274" data-name="Path 41274" d="M713.331,539.5c.332,1.094.3,2.071-.076,2.183s-.943-.681-1.272-1.776-.3-2.073.078-2.185.94.684,1.269,1.778Zm-9.241-.016c0,.332-.8.6-1.8.6s-1.8-.269-1.8-.6.8-.6,1.8-.6S704.09,539.155,704.09,539.486Zm-2.875,10.823c.389,2.016.332,3.721-.125,3.807s-1.139-1.473-1.522-3.491-.332-3.723.125-3.81,1.138,1.475,1.522,3.494Z" transform="translate(-635.115 -501.408)" fill="#fff100"/>
  <path id="Path_41275" data-name="Path 41275" d="M677.975,548.6c0,.407-1.154.734-2.574.734s-2.577-.326-2.577-.734,1.154-.734,2.577-.734S677.975,548.2,677.975,548.6Zm.588,5.726c.491,1,.627,1.943.29,2.107s-1-.512-1.5-1.509-.624-1.945-.29-2.107S678.067,553.331,678.563,554.329Zm14.181.637c-.723,1.034-1.7,1.6-2.178,1.269s-.282-1.449.441-2.483,1.7-1.606,2.18-1.269.279,1.447-.444,2.483Zm5.951-12.006c.324.53-.661,1.723-2.2,2.666s-3.052,1.274-3.376.744.658-1.726,2.2-2.669,3.055-1.274,3.381-.742Zm-26.406-.548c.734-1.729,3.011-2.653,4.517-3.05a6.8,6.8,0,0,0,3.058-1.807c1.217-.958.924-1.606,1.517-1.172s1.089.635.517,1.444a11.7,11.7,0,0,1-3.862,3.021,21.8,21.8,0,0,0-4,1.859c-.164.29-1.995.282-1.75-.3Z" transform="translate(-610.554 -500.075)" fill="#fff100"/>
  <path id="Path_41276" data-name="Path 41276" d="M736.117,574.35h12.468v9.484c0,4.039-6.235,8.235-6.235,8.235s-6.235-4.118-6.235-8.431Z" transform="translate(-668.541 -534.682)" fill="#4d8fcc"/>
  <path id="Path_41277" data-name="Path 41277" d="M752.914,600.586l-5.376-10.648-5.791,10c1.457,3.436,5.716,6.287,5.716,6.287S751.258,603.646,752.914,600.586Z" transform="translate(-673.656 -548.839)" fill="#009a67"/>
  <path id="Path_41278" data-name="Path 41278" d="M723.521,585.108l.41,1.008,5.4-9.768,5.235,9.687.426-1.076L729.44,574.35Zm11.672-9.755c.87,1.434,2.46,1.008,3.144,3.426s.321,5.042-.394,2.969-.924-3.238-2.953-3.773S735.192,575.353,735.192,575.353ZM722.2,587.878l-.507,3.024,2.726-1.387Zm14.452.48-2.569,1.193,2.817,1.692Z" transform="translate(-655.444 -534.682)" fill="#fff100"/>
  <path id="Path_41279" data-name="Path 41279" d="M784.779,672.543a.489.489,0,0,1-.486.488h-3.8a.487.487,0,1,1,0-.974h3.8A.488.488,0,0,1,784.779,672.543Z" transform="translate(-708.401 -623.42)" fill="#fff100"/>
  <path id="Path_41280" data-name="Path 41280" d="M800.3,661.346c0,.376-.1.684-.219.684h-.4c-.12,0-.219-.305-.219-.684v-6.468c0-.376.1-.684.219-.684h.4c.12,0,.219.305.219.684Z" transform="translate(-726.073 -607.197)" fill="#fff100"/>
  <path id="Path_41281" data-name="Path 41281" d="M769.394,706.276l1.525,1.593-.266.326,1.721,1.136,2.353-1.133-.5-.316,1.705-1.285-.245,2.172-.624-.18-2.462,2.078-2.588-2.2-.493.052Z" transform="translate(-698.766 -654.498)" fill="#fff100"/>
  <path id="Path_41282" data-name="Path 41282" d="M49.611,176.166V142.222H10.444a11.347,11.347,0,0,0-1.577.118l-.01,4.58-7.128-.01s-.11.154-.332.535A10.414,10.414,0,0,0,0,152.666v23.5Z" transform="translate(0 -142.222)" fill="#00247d"/>
  <path id="Path_41283" data-name="Path 41283" d="M49.609,142.221H43.523l-12.191,8.536v-8.536H18.276v6.708l-9.41-6.59A10.293,10.293,0,0,0,4.5,144.075l12.277,8.59H12.244l-9.721-6.812a10.824,10.824,0,0,0-.8,1.055l8.228,5.757H0v13.055H10.142L0,172.943v3.222H8.7l9.578-6.705v6.705H31.331V167.63l12.189,8.536h6.089v-5.3l-7.35-5.146h7.35V152.665H42.261l7.348-5.146v-5.3Z" transform="translate(0.002 -142.221)" fill="#eee"/>
  <path id="Path_41284" data-name="Path 41284" d="M28.722,142.222H20.889v13.055H0v7.833H20.889v13.055h7.833V163.111H49.611v-7.833H28.722Z" transform="translate(0 -142.222)" fill="#cf1b2b"/>
  <path id="Path_41285" data-name="Path 41285" d="M68.572,142.222H64.758L50.295,152.35v.316h4.1l14.176-9.927Zm-45.109,1.854a10.579,10.579,0,0,0-1.977,1.778l9.721,6.812h4.53l-12.275-8.59Zm12.306,21.646L20.878,176.166h4.509l11.852-8.3v-2.146Zm32.8,9.927v-3.186l-9.627-6.742H54.394Z" transform="translate(-18.961 -142.222)" fill="#cf1b2b"/>
</svg>
