<svg id="PHL" xmlns="http://www.w3.org/2000/svg" width="93.996" height="67.886" viewBox="0 0 93.996 67.886">
  <path id="Path_40520" data-name="Path 40520" d="M93.995,61.885A10.445,10.445,0,0,1,83.55,72.33H10.444A10.445,10.445,0,0,1,0,61.885v-47A10.445,10.445,0,0,1,10.444,4.444H83.55A10.445,10.445,0,0,1,93.995,14.889Z" transform="translate(0.001 -4.444)" fill="#ce1126"/>
  <path id="Path_40521" data-name="Path 40521" d="M83.55,4.444H10.444A10.445,10.445,0,0,0,0,14.889v23.5H93.992v-23.5A10.445,10.445,0,0,0,83.547,4.444Z" transform="translate(0.001 -4.444)" fill="#0038a8"/>
  <path id="Path_40522" data-name="Path 40522" d="M3.428,67.781,49.687,36.761,3.472,5.37A10.376,10.376,0,0,0,0,13.1v47a10.38,10.38,0,0,0,3.428,7.69Z" transform="translate(0.003 -2.65)" fill="#eee"/>
  <path id="Path_40523" data-name="Path 40523" d="M40.571,29.386l.112,3.011,2.911.767L40.765,34.2l.17,3.008-1.859-2.37-2.808,1.09,1.68-2.5-1.906-2.332,2.9.825ZM2.8,7.1,5.062,9.086,7.621,7.5l-1.2,2.764,2.3,1.944-3-.282-1.14,2.785-.655-2.937-3-.223,2.594-1.53ZM3.925,52.038l1.5,2.611,2.934-.67L6.337,56.209l1.551,2.582L5.141,57.557,3.165,59.831l.32-3L.715,55.66l2.946-.623Zm20.8-18.787a7.834,7.834,0,1,1-7.834-7.834A7.834,7.834,0,0,1,24.724,33.251Z" transform="translate(1.388 0.692)" fill="#fcd116"/>
  <path id="Path_40524" data-name="Path 40524" d="M18.187,12.305l-.411,6.914-.637-.094.223-8.025-.728-.476L15.9,11.1l.223,8.025-.637.094-.411-6.914-.922.57.858,7.041h3.231l.858-7.041ZM15.079,40.521l.411-6.914.637.094L15.9,41.725l.731.476.728-.476L17.141,33.7l.637-.094.411,6.914.922-.57-.858-7.044H15.023l-.858,7.044Zm-9.52-5.234,5.181-4.594.382.511L5.292,36.72l.176.855.855.179,5.516-5.836.514.385-4.6,5.181,1.054.247,4.374-5.584L10.9,29.858,5.313,34.232Zm22.15-17.75-5.181,4.6-.382-.514,5.83-5.516-.176-.855-.855-.179L21.43,20.9l-.514-.382,4.6-5.181-1.054-.247-4.374,5.584,2.288,2.288,5.584-4.374ZM2.528,24.859l6.917.411-.1.637-8.025-.223-.476.731.476.728,8.025-.223.1.637-6.917.411.57.922,7.041-.858V24.8L3.1,23.943Zm28.213,3.108-6.917-.411.1-.637,8.025.223.476-.728-.476-.731L23.92,25.9l-.1-.637,6.917-.411-.57-.922-7.044.858v3.234l7.044.858ZM7.756,15.336l4.6,5.181-.514.382L6.323,15.066l-.855.179-.176.855,5.83,5.516-.382.514-5.181-4.6-.247,1.054L10.9,22.962l2.288-2.288L8.811,15.09ZM25.509,37.489l-4.6-5.181.514-.385,5.516,5.836.855-.179.176-.855-5.83-5.516.382-.511,5.181,4.594.247-1.052-5.584-4.374-2.288,2.288,4.374,5.584Z" transform="translate(1.646 7.53)" fill="#fcd116"/>
</svg>
