<svg id="PNG" xmlns="http://www.w3.org/2000/svg" width="93.996" height="67.886" viewBox="0 0 93.996 67.886">
  <path id="Path_40516" data-name="Path 40516" d="M93.995,61.885A10.445,10.445,0,0,1,83.55,72.33H10.444A10.445,10.445,0,0,1,0,61.885v-47A10.445,10.445,0,0,1,10.444,4.444H83.55A10.445,10.445,0,0,1,93.995,14.889Z" transform="translate(0.001 -4.444)" fill="#141414"/>
  <path id="Path_40517" data-name="Path 40517" d="M88.007,69.722a10.374,10.374,0,0,0,3.607-7.837v-47A10.445,10.445,0,0,0,81.169,4.444H8.063A10.351,10.351,0,0,0,1.228,7.049L88,69.722Z" transform="translate(2.382 -4.444)" fill="#ce1126"/>
  <path id="Path_40518" data-name="Path 40518" d="M16.718,12.032l1,3.437h3.457l-2.729,2.1,1,3.34-2.729-2.1-2.729,2.006,1-3.243-2.729-2.1h3.366Zm-10.48,13.4,1,3.431h3.457l-2.729,2.1,1,3.34-2.729-2.1-2.729,2,1-3.246-2.729-2.1H5.142Zm10.48,18.1,1,3.434h3.457l-2.729,2.1,1,3.34-2.729-2.1-2.729,2,1-3.243-2.729-2.1h3.366ZM21.4,36.241l.5,1.715h1.727l-1.366,1.052.5,1.668L21.4,39.625l-1.363,1,.5-1.618-1.363-1.052h1.68ZM27.148,24.48l1,3.434H31.6l-2.729,2.1,1,3.34-2.729-2.1-2.729,2,1-3.243-2.729-2.1h3.366Z" transform="translate(3.444 10.256)" fill="#fff"/>
  <path id="Path_40519" data-name="Path 40519" d="M28.331,21.193c-.808,1.043-2.714-1.046-5-1.093s-3.907,2.188-4.57,2.949A24.119,24.119,0,0,0,16,28.24c.053.429,1.336-1.193,1.809-1.477.044.573-.526,1.24-.382,1.428S19.1,27.047,19.622,27c.144.382-.285.761-.144,1.331.188.194,1.046-.952,1.616-1.187.1.429-.526,1.237-.188,1.759.235.05,1.668-1.616,2.141-1.806s-.241,1.571,0,1.715c.429-.285,1.759-1.809,2.188-2s-.047,1.95.144,1.95a14.151,14.151,0,0,0,2-2.473c.144-.285-.144,2.761,1.336,4.379a21.343,21.343,0,0,0,3.954,3.475c.285-.523-.1-1.618.144-1.571A8.1,8.1,0,0,0,35,34.338c.285,0-.188-1.143.194-1.143A16.017,16.017,0,0,0,42.43,38c-.285-.811-.908-1.524-.952-1.9a14.064,14.064,0,0,0,1.472.479c.194-.05-2.091-2.858-1.953-3.237.526-.05.764.285.952.047-.235-.382-2.238-2.62-2.238-3.14s.623.094.811,0-.761-2.094-.573-2.335S42.233,29.2,42.756,29.2s.144-1.856.385-1.95,2,1,2.376,1,.338-.811.482-.717,4.285,4.238,2.855,9.091c-1.428,3.475-4.285,5.331-8.474,3.81A5.322,5.322,0,0,0,45.285,42c2.426-.664,5.381-2.57,5.049-7.331s-1.906-5.428-2.141-6.142.379.191.9.379-.091-1-.235-1.522,1.571,1.093,2,1.237-1-3.9-1.428-4.189.429.1.714.191-2.62-4.429-3.237-4.429.526-.238.858-.238-3.328-2.949-3.954-2.949,1.336-.764,1.524-.811a8.7,8.7,0,0,0-8.33.05c-.235-.191,1.927-1.692,2-2.335.026-.164-.714-.523-.761-.714s1.143-.764,1.187-1.19c-.285-.382-.808-.238-1.093-.332-.07-.358,1-1.24.9-1.621-.07-.214-.858-.285-1.046-.144s.5-1,.379-1.331c-.091-.144-.476-.047-.858.047-.235-.047,1.24-2.094.952-2.382S34.385,8.34,32.913,11s-.338,4.808-.526,5.713-.429,1.809-1.046,1.809A5.855,5.855,0,0,1,28.816,17.1c-.482-.479-.573-.811-1.24-1s-2.194.382-2.764.429-2.805-.429-2.949-.285,2.188,1,2.714,1.287.573.664.949.9,3.948,1.281,2.8,2.758Zm13.952,6.712c1.143,1.143,8.853,6.286,8.853,12.569s-5.619,6.095-7.237,5.9c1.809,1.524,8.662,1.24,8.662-5.9,0-6.286-8.853-12.569-10-13.141s-1.43-.573-.285.573Z" transform="translate(30.999 -1)" fill="#fcd116"/>
</svg>
