<svg id="PRI" xmlns="http://www.w3.org/2000/svg" width="93.996" height="67.889" viewBox="0 0 93.996 67.889">
  <path id="Path_40571" data-name="Path 40571" d="M81.188,4.446H8.082A10.383,10.383,0,0,0,1.218,7.031L15.713,17.5H91.63V14.888A10.445,10.445,0,0,0,81.185,4.443Z" transform="translate(2.36 -4.443)" fill="#ea0b19"/>
  <path id="Path_40572" data-name="Path 40572" d="M24.23,21.942H82.071V8.889H6.154Z" transform="translate(11.922 4.17)" fill="#eee"/>
  <path id="Path_40573" data-name="Path 40573" d="M23.152,21.165,12.308,29H70.149V13.334H12.308Z" transform="translate(23.844 12.781)" fill="#ea0b19"/>
  <path id="Path_40574" data-name="Path 40574" d="M6.154,31.72H82.071V18.667H24.23Z" transform="translate(11.922 23.113)" fill="#eee"/>
  <path id="Path_40575" data-name="Path 40575" d="M1.219,33.582a10.383,10.383,0,0,0,6.864,2.585H81.189A10.445,10.445,0,0,0,91.634,25.722V23.111H15.717L1.222,33.579Z" transform="translate(2.362 31.722)" fill="#ea0b19"/>
  <path id="Path_40576" data-name="Path 40576" d="M36.152,44.516,47,36.682,3.581,5.324A10.411,10.411,0,0,0,0,13.184v47a10.415,10.415,0,0,0,3.581,7.86Z" transform="translate(0 -2.736)" fill="#0f55ec"/>
  <path id="Path_40577" data-name="Path 40577" d="M16.208,24.324l6.039-4.374H14.783l-2.318-7.117L10.142,19.95H2.667l6.045,4.379L6.389,31.438l6.071-4.4,6.071,4.4Z" transform="translate(5.167 11.811)" fill="#fff"/>
</svg>
