<svg id="PRK" xmlns="http://www.w3.org/2000/svg" width="93.996" height="67.886" viewBox="0 0 93.996 67.886">
  <path id="Path_40170" data-name="Path 40170" d="M83.55,4.444H10.444A10.445,10.445,0,0,0,0,14.889v47A10.445,10.445,0,0,0,10.444,72.33H83.55A10.445,10.445,0,0,0,93.995,61.885v-47A10.445,10.445,0,0,0,83.55,4.444Z" transform="translate(0.001 -4.444)" fill="#024fa2"/>
  <path id="Path_40171" data-name="Path 40171" d="M0,8H93.993v2.611H0ZM0,52.385H93.993V55H0Z" transform="translate(0.003 2.445)" fill="#eee"/>
  <path id="Path_40172" data-name="Path 40172" d="M0,8.889H93.993V50.663H0Z" transform="translate(0.003 4.167)" fill="#ed1c27"/>
  <path id="Path_40173" data-name="Path 40173" d="M21.753,41.036A15.086,15.086,0,1,0,6.667,25.95,15.088,15.088,0,0,0,21.753,41.036Zm-3.284-19.6,3.281-10.1,3.281,10.1H35.649l-8.589,6.239,3.281,10.1-8.589-6.239-8.589,6.239,3.281-10.1L7.857,21.432Z" transform="translate(12.919 7.993)" fill="#fff"/>
</svg>
