<svg id="PRT" xmlns="http://www.w3.org/2000/svg" width="93.996" height="67.889" viewBox="0 0 93.996 67.889">
  <path id="Path_40582" data-name="Path 40582" d="M93.995,61.885A10.445,10.445,0,0,1,83.55,72.33H10.444A10.445,10.445,0,0,1,0,61.885v-47A10.445,10.445,0,0,1,10.444,4.444H83.55A10.445,10.445,0,0,1,93.995,14.889Z" transform="translate(0.001 -4.441)" fill="#060"/>
  <path id="Path_40583" data-name="Path 40583" d="M57.718,4.446H13.333V72.329H57.718A10.445,10.445,0,0,0,68.163,61.884v-47A10.445,10.445,0,0,0,57.718,4.443Z" transform="translate(25.833 -4.443)" fill="#d52b1e"/>
  <path id="Path_40584" data-name="Path 40584" d="M27.109,8.889A20.887,20.887,0,1,0,48,29.776,20.884,20.884,0,0,0,27.109,8.889ZM11.151,20.882l4.183,4.183L8.91,28.275A18.119,18.119,0,0,1,11.151,20.882ZM8.91,31.271,20.4,37.034l-7.064,4.711.035.056A18.181,18.181,0,0,1,8.91,31.274ZM24.5,47.843a18.124,18.124,0,0,1-6.767-2.4H24.5Zm0-5.014H16.406L24.5,37.436Zm0-8.53-1.586,1.057L11.75,29.776l5.525-2.761,7.223,7.22Zm0-3.76L15.248,21.29,24.5,22.829Zm0-10.421L12.925,18.256A18.226,18.226,0,0,1,24.5,11.709Zm18.572.764a18.163,18.163,0,0,1,2.241,7.4l-6.424-3.21,4.183-4.186ZM29.72,11.709a18.252,18.252,0,0,1,11.573,6.547L29.72,20.118Zm0,11.123L38.97,21.29,29.72,30.543Zm0,11.4,7.22-7.22,5.528,2.761L31.309,35.354,29.723,34.3v-.065Zm0,13.611v-2.4h6.767A18.124,18.124,0,0,1,29.72,47.843Zm0-5.014V37.436l8.092,5.393ZM40.853,41.8l.035-.056-7.064-4.711,11.488-5.763A18.219,18.219,0,0,1,40.853,41.8Z" transform="translate(12.057 4.17)" fill="#ffcc4d"/>
  <path id="Path_40585" data-name="Path 40585" d="M9.778,11.556V29.832a10.445,10.445,0,0,0,20.89,0V11.556H9.781Z" transform="translate(18.946 9.337)" fill="#d52b1e"/>
  <path id="Path_40586" data-name="Path 40586" d="M10.667,12.444V28.108a7.834,7.834,0,0,0,15.667,0V12.444H10.67Z" transform="translate(20.668 11.057)" fill="#fff"/>
  <path id="Path_40587" data-name="Path 40587" d="M11.556,15.111H22v5.222H11.556Z" transform="translate(22.39 16.224)" fill="#829acd"/>
  <path id="Path_40588" data-name="Path 40588" d="M12.444,14.222h5.222V24.667H12.444Z" transform="translate(24.11 14.502)" fill="#829acd"/>
  <path id="Path_40589" data-name="Path 40589" d="M10.667,20.278h2.611V25.5H10.667Zm5.22,0h5.222V25.5H15.887Zm7.834,0h2.611V25.5H23.72Zm-7.834,7.834h5.222v5.222H15.887Zm0-15.667h5.222v5.222H15.887Z" transform="translate(20.668 11.057)" fill="#039"/>
</svg>
