<svg id="PRY" xmlns="http://www.w3.org/2000/svg" width="93.999" height="67.886" viewBox="0 0 93.999 67.886">
  <path id="Path_40592" data-name="Path 40592" d="M0,30.889A10.445,10.445,0,0,0,10.445,41.334H83.551A10.445,10.445,0,0,0,94,30.889V20.444H0V30.889Z" transform="translate(0.003 26.552)" fill="#0038a8"/>
  <path id="Path_40593" data-name="Path 40593" d="M0,11.556H93.993V37.665H0Z" transform="translate(0.003 9.334)" fill="#eee"/>
  <path id="Path_40594" data-name="Path 40594" d="M83.55,4.444H10.444A10.445,10.445,0,0,0,0,14.889V25.334H93.992V14.889A10.445,10.445,0,0,0,83.547,4.444Z" transform="translate(0.001 -4.444)" fill="#d52b1e"/>
  <path id="Path_40595" data-name="Path 40595" d="M33.334,22.889A10.445,10.445,0,1,1,22.889,12.444,10.445,10.445,0,0,1,33.334,22.889Z" transform="translate(24.11 11.054)"/>
  <path id="Path_40596" data-name="Path 40596" d="M32.247,22.457a9.79,9.79,0,1,1-9.79-9.79A9.791,9.791,0,0,1,32.247,22.457Z" transform="translate(24.542 11.486)" fill="#eee"/>
  <path id="Path_40597" data-name="Path 40597" d="M30.083,21.6A8.486,8.486,0,1,1,21.6,13.111,8.484,8.484,0,0,1,30.083,21.6Z" transform="translate(25.403 12.346)"/>
  <path id="Path_40598" data-name="Path 40598" d="M29.543,21.38a8.16,8.16,0,1,1-8.163-8.157A8.164,8.164,0,0,1,29.543,21.38Z" transform="translate(25.62 12.563)" fill="#eee"/>
  <path id="Path_40599" data-name="Path 40599" d="M29.571,21.375a8.177,8.177,0,1,0-15.25,4.106L21.4,21.59l7.067,3.892A8.182,8.182,0,0,0,29.571,21.375Z" transform="translate(25.606 12.515)" fill="#99aab5"/>
  <path id="Path_40600" data-name="Path 40600" d="M26.831,20.3A6.527,6.527,0,1,1,20.3,13.778,6.525,6.525,0,0,1,26.831,20.3Z" transform="translate(26.695 13.639)"/>
  <path id="Path_40601" data-name="Path 40601" d="M26.4,20.132a6.265,6.265,0,1,1-6.265-6.265A6.265,6.265,0,0,1,26.4,20.132Z" transform="translate(26.867 13.811)" fill="#eee"/>
  <path id="Path_40602" data-name="Path 40602" d="M17.341,15.273l.482,1.475h1.551l-1.257.913.479,1.475-1.254-.911-1.254.911.479-1.475-1.257-.913h1.551Z" transform="translate(29.659 16.535)" fill="#ffac33"/>
  <path id="Path_40603" data-name="Path 40603" d="M17.382,14.834s.784-.182,1.242-.229.872,1.013,1.422,1.2.552.737.784,1.381.091.781.091,1.516.411,1.1.32,1.657-.552.69-.825,1.057-.047.828-.323,1.1-1.2.229-1.516.505-.919.69-1.334.458a4.474,4.474,0,0,0-1.287-.32,1.84,1.84,0,0,1,.875-1.1,10.99,10.99,0,0,1,1.516-.411c.6-.182.552-.461.966-.828s.458-.875.69-1.242a1.39,1.39,0,0,0,.185-1.151,8.662,8.662,0,0,0-.461-1.519,5.519,5.519,0,0,0-.875-1.334,5.335,5.335,0,0,0-1.469-.734Z" transform="translate(30.916 15.238)" fill="#007127"/>
  <path id="Path_40604" data-name="Path 40604" d="M17.97,15.487s.458-1,0-1.057c-1.842-.229-2.209,1.425-2.761,1.61s-.646,1.1-.872,1.748a3.355,3.355,0,0,0-.138,1.519A6.3,6.3,0,0,0,14.3,20.73a2.934,2.934,0,0,0,.491,1.334,6.332,6.332,0,0,0,.658.825c.276.273.814.552,1.137.828a2.027,2.027,0,0,0,1.715.138,3.927,3.927,0,0,1,1.137-.32,2.144,2.144,0,0,0-.952-.828c-.646-.273-.69-.505-1.287-.69s-.552-.461-.966-.828-.458-.875-.69-1.242-.106-.458-.012-.966a6.773,6.773,0,0,1,.458-1.378,6.121,6.121,0,0,1,.919-1.378,4.941,4.941,0,0,1,1.054-.737Z" transform="translate(27.476 14.858)" fill="#007127"/>
  <path id="Path_40605" data-name="Path 40605" d="M15.518,17.749l.6.411.781-.552.737.505.966-.367-.966.693-.69-.552-.737.505-.737-.414Z" transform="translate(29.975 21.058)" fill="#007127"/>
</svg>
