<svg id="PYF" xmlns="http://www.w3.org/2000/svg" width="94" height="67.89" viewBox="0 0 94 67.89">
  <path id="Path_41322" data-name="Path 41322" d="M94,199.666a10.445,10.445,0,0,1-10.444,10.444H10.444A10.445,10.445,0,0,1,0,199.666v-47a10.445,10.445,0,0,1,10.444-10.444H83.556A10.445,10.445,0,0,1,94,152.666Z" transform="translate(0 -142.222)" fill="#ce1126"/>
  <path id="Path_41323" data-name="Path 41323" d="M0,341.333H94v31.333H0Z" transform="translate(0 -323.055)" fill="#eee"/>
  <path id="Path_41324" data-name="Path 41324" d="M380.17,544.021a8.272,8.272,0,0,1-.433-1.713s-.2-.285-.83,0a9.925,9.925,0,0,1-2.23,1.021,1.255,1.255,0,0,1-1.1-.384c.1.373.264.718.4,1.078h4.191Zm9.324,0a1.389,1.389,0,0,0-1.392-.937,1.494,1.494,0,0,0-1.4.937Zm10.732,0a12.012,12.012,0,0,0,.436-1.2,1.857,1.857,0,0,1-2.6.021,2.4,2.4,0,0,0-1.467-.658,17.168,17.168,0,0,1-.392,1.8.282.282,0,0,1-.018.042h4.045Zm-.93,1.958c.206-.352.42-.7.6-1.073a2.141,2.141,0,0,0-.935-.253c-.9-.021-.984.621-2.243.632a1.359,1.359,0,0,1-1.086-.34,5.531,5.531,0,0,1-1.159,1.034Zm-14.032,0h5.4a2.994,2.994,0,0,1-.308-.35l.008.031a3.968,3.968,0,0,0-2.261-1.068,3.746,3.746,0,0,0-2.481,1.068l.034-.063a3.853,3.853,0,0,1-.389.381Zm-3.757,0a4.029,4.029,0,0,1-.909-1.07,2.075,2.075,0,0,1-1.266.46c-1.1-.081-1.8-1.253-2.449-.937-.222.11-.431.217-.632.311a13.43,13.43,0,0,0,.663,1.24l4.593,0Zm-2.857,2.324h18.91c.311-.337.608-.684.885-1.05a3,3,0,0,0-1.857-.825c-1.264,0-1.8,1.144-2.922,1.144s-1.24-1.021-2.627-1.021-2,1.183-3.081,1.183-1.857-1.183-2.875-1.183-1.8,1.183-2.9,1.183-1.713-1.306-2.692-1.306a3.923,3.923,0,0,0-1.825.692,13.7,13.7,0,0,0,.979,1.183Zm16.6,1.919c.3-.2.616-.384.9-.611a7.011,7.011,0,0,0-2.481-.776c-1.118,0-1.4.611-2.627.611s-1.765-.694-2.984-.694-1.632.9-2.791.9-1.65-.979-3.078-.979a6.967,6.967,0,0,0-2.5.64,13.074,13.074,0,0,0,1.251.911h14.309Zm-4.165.692c-1.386,0-2.039,1.183-2.979,1.183s-1.76-1.225-2.838-1.225a4.454,4.454,0,0,0-1.932.653,12.458,12.458,0,0,0,9.551-.023A3.542,3.542,0,0,0,391.082,550.914Z" transform="translate(-341.103 -505.465)" fill="#083e9d"/>
  <path id="Path_41325" data-name="Path 41325" d="M374.418,382.66l-3.653-1.5a12.842,12.842,0,0,0-.783,2.94l4.436.319v-1.76Zm2.663,1.094v.856l2.478.178v-.018Zm13.847.658,4.755-.342a13,13,0,0,0-.838-3.073l-3.917,1.608v1.807Zm-2.53-.768-2.227.914.008.193,2.219-.159v-.948Zm4.079-6.264-1.548,1.353v2.206l2.992-1.567a12.5,12.5,0,0,0-1.444-1.992ZM388.4,380.94l-2.285,1.992.018.52,2.266-1.188ZM379.52,383.3l-2.439-2.128v1.488l2.457,1.3Zm-5.1-4.449L373,377.613a12.984,12.984,0,0,0-1.465,2.115l2.883,1.522v-2.4Zm13.98-.034c0-.4.538-.627,1.115-.681l1.8-1.867a13.78,13.78,0,0,0-2.063-1.454l-3.209,5.554c.008.449.023.89.037,1.332l2.321-2.407,0-.475Zm-11.317-.491v1.2l2.4,2.616-.037-1.3L376.071,375a14.209,14.209,0,0,0-1.88,1.381l1.4,1.525c.713-.091,1.488.021,1.488.418Zm8.94-.381,1.8-3.833a12.549,12.549,0,0,0-2.146-.718l-.723,2.932s1.522.055,1.2.11a4.124,4.124,0,0,0-.131,1.509Zm-6.773-4.321a13.141,13.141,0,0,0-1.58.621l1.7,3.818Zm-4.831,12.2-4.6-.123a3.648,3.648,0,0,0-.042.418,11.025,11.025,0,0,0,.151,1.509h4.488Zm16.51,1.8h4.81a11.018,11.018,0,0,0,.151-1.509,3.638,3.638,0,0,0-.042-.418l-4.919.18v1.747Z" transform="translate(-335.834 -352.17)" fill="#ff9d11"/>
  <path id="Path_41326" data-name="Path 41326" d="M428,372.211v9.343c0,1.264.695,4.285,2.692,4.285,2.734,0,3.619-3.387,3.619-3.387s-1.971,1.734-3.371,1.183-1.5-1.387-1.5-3.222v-7.969c0-.723-1.444-.885-1.444-.232Zm15.288,0v9.343c0,1.264-.695,4.285-2.692,4.285-2.734,0-3.619-3.387-3.619-3.387s1.971,1.734,3.368,1.183,1.5-1.387,1.5-3.222v-7.969C441.847,371.721,443.291,371.559,443.291,372.211Zm-5.457,5.214-4.692-1.439V368.5c0-2.2,1.687-3.29,4.692-2.243-2.611.245-3.441,2.444,0,4.079v7.092Z" transform="translate(-388.714 -345.325)" fill="#ce1126"/>
  <path id="Path_41327" data-name="Path 41327" d="M462.327,503.652a.349.349,0,0,1-.347.347H451.9a.347.347,0,1,1,0-.695H461.98A.349.349,0,0,1,462.327,503.652Zm-7.792,1.833H452.2l1-1.324h2.332Zm4.838,0h2.332l-1-1.324h-2.334Zm-5.773-2.914-.582-.634.58-.632a.209.209,0,0,0-.089-.342.417.417,0,0,0-.467.07l-.264.285v-.389a.164.164,0,0,0-.329,0v.389l-.261-.285a.417.417,0,0,0-.467-.07.209.209,0,0,0-.089.342l.58.632-.582.634a.212.212,0,0,0,.089.345.423.423,0,0,0,.467-.073l.428-.467.428.467a.423.423,0,0,0,.467.073.213.213,0,0,0,.091-.345Zm2.162,0-.582-.634.58-.632a.209.209,0,0,0-.089-.342.417.417,0,0,0-.467.07l-.264.285v-.389a.164.164,0,1,0-.329,0v.389l-.261-.285a.417.417,0,0,0-.467-.07.209.209,0,0,0-.089.342l.58.632-.582.634a.212.212,0,0,0,.089.345.423.423,0,0,0,.467-.073l.428-.467.428.467a.423.423,0,0,0,.467.073.212.212,0,0,0,.091-.345Zm2.165,0-.582-.634.58-.632a.209.209,0,0,0-.089-.342.417.417,0,0,0-.467.07l-.264.287v-.389a.164.164,0,1,0-.329,0v.389l-.261-.285a.417.417,0,0,0-.467-.07.209.209,0,0,0-.089.342l.58.632-.582.635a.212.212,0,0,0,.089.345.423.423,0,0,0,.467-.073l.428-.467.428.467a.423.423,0,0,0,.467.073.215.215,0,0,0,.091-.347Zm2.17,0-.582-.634.58-.632a.209.209,0,0,0-.089-.342.417.417,0,0,0-.467.07l-.264.285v-.389a.165.165,0,0,0-.329,0v.389l-.261-.285a.417.417,0,0,0-.467-.07.209.209,0,0,0-.089.342l.58.632-.582.634a.212.212,0,0,0,.089.345.423.423,0,0,0,.467-.073l.428-.467.428.467a.423.423,0,0,0,.467.073.212.212,0,0,0,.091-.345Zm2.162,0-.582-.634.58-.632a.209.209,0,0,0-.089-.342.417.417,0,0,0-.467.07l-.264.285v-.389a.165.165,0,0,0-.329,0v.389l-.261-.285a.417.417,0,0,0-.467-.07.209.209,0,0,0-.089.342l.58.632-.582.634a.212.212,0,0,0,.089.345.423.423,0,0,0,.467-.073l.428-.467.428.467a.423.423,0,0,0,.467.073.212.212,0,0,0,.091-.345Z" transform="translate(-410.105 -467.851)" fill="#630810"/>
</svg>
