<svg id="QAT" xmlns="http://www.w3.org/2000/svg" width="93.993" height="67.889" viewBox="0 0 93.993 67.889">
  <path id="Path_40606" data-name="Path 40606" d="M64.607,4.446H9.777V72.329h54.83A10.445,10.445,0,0,0,75.052,61.884v-47A10.445,10.445,0,0,0,64.607,4.443Z" transform="translate(18.941 -4.443)" fill="#8d1b3d"/>
  <path id="Path_40607" data-name="Path 40607" d="M28.721,64.787l13.826-3.771L28.721,57.244l13.826-3.771L28.721,49.7,42.546,45.93,28.721,42.159l13.826-3.771L28.721,34.616l13.826-3.771L28.721,27.073,42.546,23.3,28.721,19.53l13.826-3.771L28.721,11.987,42.546,8.215,28.721,4.444H10.445A10.445,10.445,0,0,0,0,14.889v47A10.445,10.445,0,0,0,10.445,72.33H28.721l13.826-3.771L28.721,64.787Z" transform="translate(0 -4.441)" fill="#eee"/>
</svg>
