<svg id="RWA" xmlns="http://www.w3.org/2000/svg" width="93.996" height="67.886" viewBox="0 0 93.996 67.886">
  <path id="Path_40631" data-name="Path 40631" d="M93.995,61.885A10.445,10.445,0,0,1,83.55,72.33H10.444A10.445,10.445,0,0,1,0,61.885v-47A10.445,10.445,0,0,1,10.444,4.444H83.55A10.445,10.445,0,0,1,93.995,14.889Z" transform="translate(0.001 -4.444)" fill="#20603d"/>
  <path id="Path_40632" data-name="Path 40632" d="M0,16.889H93.993V35.165H0Z" transform="translate(0.003 19.665)" fill="#fad201"/>
  <path id="Path_40633" data-name="Path 40633" d="M83.55,4.444H10.444A10.445,10.445,0,0,0,0,14.889V46.221H93.992V14.889A10.445,10.445,0,0,0,83.547,4.444Z" transform="translate(0.001 -4.444)" fill="#00a1de"/>
  <path id="Path_40634" data-name="Path 40634" d="M36.889,4.444l1.363,10.533,4.042-9.822L40.887,15.682l6.447-8.439-4.086,9.8,8.409-6.485-6.483,8.412,9.808-4.086-8.445,6.447,10.53-1.41-9.822,4.042,10.533,1.366L47.246,26.7l9.822,4.039-10.53-1.407,8.445,6.447-9.808-4.086,6.483,8.412L43.248,33.62l4.086,9.808-6.447-8.445,1.407,10.53-4.042-9.822L36.889,46.224,35.526,35.691l-4.045,9.822,1.41-10.53-6.447,8.445L30.53,33.62,22.12,40.105l6.48-8.412-9.8,4.086,8.442-6.447L16.71,30.738,26.529,26.7,16,25.334l10.53-1.366L16.71,19.926l10.527,1.41L18.8,14.889l9.8,4.086-6.48-8.412,8.409,6.486-4.086-9.8,6.447,8.439L31.481,5.155l4.045,9.822Z" transform="translate(30.997 -4.444)" fill="#fad201"/>
  <path id="Path_40635" data-name="Path 40635" d="M40.445,18.445A10.445,10.445,0,1,1,30,8,10.445,10.445,0,0,1,40.445,18.445Z" transform="translate(37.886 2.445)" fill="#00a1de"/>
  <path id="Path_40636" data-name="Path 40636" d="M36.111,16.723a7.834,7.834,0,1,1-7.834-7.834A7.834,7.834,0,0,1,36.111,16.723Z" transform="translate(39.609 4.167)" fill="#fad201"/>
</svg>
