<svg id="SAU" xmlns="http://www.w3.org/2000/svg" width="93.996" height="67.886" viewBox="0 0 93.996 67.886">
  <path id="Path_40637" data-name="Path 40637" d="M83.55,4.444H10.444A10.445,10.445,0,0,0,0,14.889v47A10.445,10.445,0,0,0,10.444,72.33H83.55A10.445,10.445,0,0,0,93.995,61.885v-47A10.445,10.445,0,0,0,83.55,4.444Z" transform="translate(0.001 -4.444)" fill="#006c35"/>
  <path id="Path_40638" data-name="Path 40638" d="M8.7,17.253c1.651.156.74-2.79,1.336-3.325.112-.264.32-.267.338.068v2.5a1.2,1.2,0,0,0,.934,1.222c.435-.035.72-.018.89.4l.2,4.33s1,.288,1.049-2.435c.05-1.6-.317-2.934-.1-3.246.009-.305.4-.323.67-.176.432.3.623.679,1.292.529,1.022-.279,1.633-.775,1.648-1.56a6.816,6.816,0,0,0-.464-2.232c.044-.135-.2-.485-.153-.623.182.288.461.264.526,0a2.215,2.215,0,0,0-.881-1.357c-.361-.317-.887-.253-1.081.411a3.615,3.615,0,0,0,.831,2.409,2.37,2.37,0,0,1,.211,1.2.643.643,0,0,1-.837-.162s-.811-.608-.811-.743a2.878,2.878,0,0,0-.07-1.915,2.585,2.585,0,0,0-.538-1.057c-.2-.214-.479-.214-.608,0a3.612,3.612,0,0,0,.068,2.555c.185.549.473.9.338.9-.112.311-.341.238-.508-.12a8.84,8.84,0,0,1-.288-2.344c-.073-.617-.153-1.936-.555-2.268-.247-.338-.617-.176-.743.135a10.957,10.957,0,0,0,.038,1.792,20.277,20.277,0,0,1,.5,2.879c.035,1.36-.787.59-.749-.082a6.082,6.082,0,0,0-.029-2.6c-.132-.347-.294-.435-.617-.379-.256-.021-.919.7-1.107,1.906A10.94,10.94,0,0,0,9.2,15.035c-.091.623-.5,1.06-.787-.085-.247-.834-.4-2.887-.814-2.409-.12,1.607-.264,4.429,1.1,4.717Z" transform="translate(14.591 6.378)" fill="#fff"/>
  <path id="Path_40639" data-name="Path 40639" d="M11.014,12.888c-1.357.026-3.346,1.783-3.4,2.758,1.43-.69,2.837-1.351,4.294-2.062-.235-.352-.012-.67-.9-.693Z" transform="translate(14.757 11.914)" fill="#fff"/>
  <path id="Path_40640" data-name="Path 40640" d="M17.126,23.688c.629-2.1-.1-3.642.241-3.633.723.781,1.736.106,1.959-.167a.327.327,0,0,1,.5-.047,1.179,1.179,0,0,0,1.771-.5,15.669,15.669,0,0,0,.241-2.174c-.461.144-.808.241-.837.432l-.1.623c-.038.2-.438.209-.455-.047-.176-.8-.9-.9-1.339.335-.294.241-.828.288-.884-.07.07-.828-.264-.94-.931-.552-.214-1.642-.432-3.21-.646-4.852.279-.009.535.2.787-.12-.279-.869-.869-2.644-1.2-2.773-.159-.194-.294-.073-.5-.023a.82.82,0,0,0-.576,1c.414,2.52.687,4.438,1.1,6.958.062.294-.182.684-.5.646-.54-.364-.676-1.107-1.6-1.075a1.8,1.8,0,0,0-1.53,1.436,3.482,3.482,0,0,0,0,1.651,1.35,1.35,0,0,0,1.53.382c.405-.167.74-.576.881-.479.1.117.024,1.457-1.912,2.485-1.172.526-2.1.646-2.605-.311-.311-.6.024-2.87-.74-2.341-2.265,5.836,5.3,6.644,6.145.241.082-.264.4-.529.455-.1-.176,5.8-5.851,6.2-6.814,4.377a5.574,5.574,0,0,1-.335-1.962c-.144-1.14-.74-.7-.834.429a6.972,6.972,0,0,0-.07,1.41c.3,4.582,7.61,2.614,8.8-1.172Zm-2.82-3.962c-.047.088-.253.053-.405.053a.386.386,0,0,1-.358-.176c-.047-.156.1-.305.164-.423a.392.392,0,0,1,.67.106.435.435,0,0,1-.073.441Z" transform="translate(16.132 6.381)" fill="#fff"/>
  <path id="Path_40641" data-name="Path 40641" d="M21.125,14.87a22.133,22.133,0,0,0,2.608-2.629c-.112-.1-.211-.167-.323-.264a.185.185,0,0,1,0-.311.853.853,0,0,0,.082-1.3,1.293,1.293,0,0,0-1.16.012.978.978,0,0,0-.167,1.292c.288.135.576.426.385.585-.881.94-3.293,2.561-3.014,2.62a5.416,5.416,0,0,0,1.586,0ZM22.72,11c.138-.035.317.088.4.27s.038.358-.1.391h-.006c-.135.035-.314-.088-.4-.27S22.585,11.034,22.72,11ZM8.747,25.961c-.355.723-.505.226-.535-.176a9.1,9.1,0,0,1,.1-2.033c.088-.576,0-.4-.182-.167-.808,1.284-.878,3.208-.432,3.777a.928.928,0,0,0,.913.3,1.682,1.682,0,0,0,.608-1.621C9.05,25.779,8.917,25.738,8.747,25.961Zm26.582-13.6c.928,1.248,1.812,2.52,2.676,3.816.17,1.122.294,2.221.364,3.307a52.74,52.74,0,0,1,.056,6.582c.391.015,1.025-.637,1.245-1.589a39.968,39.968,0,0,0-.065-4.444c-.012-.414-.038-.925-.07-1.463,1.028,1.68,2.033,3.442,3.011,5.4.358-.167.279-2.168.07-2.45-.784-1.68-1.862-3.34-2.206-3.977-.129-.235-.564-.9-1.084-1.668-.082-.878-.162-1.586-.22-1.821-.162-1.116.461.123.376-.529a7.18,7.18,0,0,0-1.548-2.9c-.235-.332-.226-.4-.59.082a2.025,2.025,0,0,0-.173.916c-.094-.138-.2-.282-.364-.482-.629-.54-.667-.573-1.187-1.013-.264-.188-.9-.529-1.022.035a3.207,3.207,0,0,0,.059,1.187,4.3,4.3,0,0,0,.67,1.01Zm1.933-.062c.05.217.1.435.135.655l.038.211c-.153-.209-.282-.382-.341-.449-.429-.505-.073-.4.167-.417Z" transform="translate(14.393 6.043)" fill="#fff"/>
  <path id="Path_40642" data-name="Path 40642" d="M21.905,24.237a10.8,10.8,0,0,1-3.645,2.655c-.153.173.382.911,1.069.911,1.157-.135,2.174-.787,3.116-2.5a4.405,4.405,0,0,0,.708-1.915,41.994,41.994,0,0,0-.775-9.7,1.573,1.573,0,0,1,.032-.676c.073-.088.329,0,.464-.22.2-.2-.526-1.874-.937-2.517-.147-.288-.2-.482-.438.035a3.607,3.607,0,0,0-.405,1.824c.552,3.818.72,7.164,1.081,10.985a1.507,1.507,0,0,1-.27,1.116ZM37.126,14.55a5.073,5.073,0,0,1-.112-.984c.073-.194.452.021.587-.2.2-.2-.975-1.709-1.386-2.353-.15-.288-.2-.482-.441.035a2.993,2.993,0,0,0-.244,1.824,86.379,86.379,0,0,1,1.163,10.944,3.9,3.9,0,0,1-.229.975,8,8,0,0,1-1.14,1.328c-.376.282-1.178.549-1.442.755-.828.482-.831,1.034-.156,1.052,1.154-.135,2.523-.229,3.466-1.657a5.5,5.5,0,0,0,.567-2.138,41.615,41.615,0,0,0-.632-9.581Zm-8.75,3.231c.012-.532.059-1.237.088-1.68.012-.164.053-.35.209-.391s.441.162.444-.012a2.338,2.338,0,0,0-.291-1.075.605.605,0,0,0-1.075.314c0,.223.106.344.085.549-.032.115-.153.194-.435.059.047-.041-.185-.364-.185-.364-.223-.135-.52.009-.711.129a1.086,1.086,0,0,0-.062.861c.314.593,1.407,1.6,1.933,1.61Z" transform="translate(35.327 6.293)" fill="#fff"/>
  <path id="Path_40643" data-name="Path 40643" d="M37.988,13.627c.764.937,1.545,1.889,2.332,2.855.17,2.156.214,3.921.382,6.077-.023.913-.305,1.709-.576,1.824,0,0-.405.235-.676-.023a8.174,8.174,0,0,1-.99-1.319.6.6,0,0,0-.958,0c-.793.764-1.151,2.2-1.689,3.187-.141.223-.532.411-.969-.015a4.469,4.469,0,0,1-.593-3.108,3.436,3.436,0,0,0-.329,3.343,2.625,2.625,0,0,0,1.219,1.386.856.856,0,0,0,1.269-.138c.579-.6.587-2.13.858-2.438a.511.511,0,0,1,.9-.214,2.306,2.306,0,0,0,.822.714,1.382,1.382,0,0,0,1.821.129,2.11,2.11,0,0,0,.972-1.184c.282-.752.129-4.209.07-6.283.405.523.8,1.069,1.2,1.613a38.986,38.986,0,0,1,.217,5.214c-.041.352,1.228-1.046,1.216-1.707-.006-.535,0-1.022,0-1.477.611.919,1.207,1.868,1.765,2.87.35-.182.235-2.153.012-2.426-.646-1.081-1.5-2.206-2.1-3.011-.038-.1-.059-.217-.106-.314a6.562,6.562,0,0,1-.2-1.58c-.112-.585-.082-1.466-.25-2.162a7.692,7.692,0,0,1-.147-1.225c.068-.2.329.006.458-.22.191-.209-.661-2.414-1.093-3.046-.156-.282-.438-.185-.787.273-.32.3-.2.993-.079,1.648.305,1.586.561,3.111.781,4.617-.42-.561-.928-1.225-1.422-1.862l-.021-.115c0-.029-.071-1.369-.132-1.686-.012-.129-.041-.167.094-.153a.822.822,0,0,0,.253.17c.147.026.273-.223.188-.449l-1.351-2.485c-.106-.106-.247-.223-.417.029a.977.977,0,0,0-.335.74c.041.587.144,1.187.182,1.777l.059.317c-.059-.07-.132-.159-.164-.191-1.146-1.207.529-.2-.22-1.128a8.787,8.787,0,0,0-1.357-1.328c-.27-.176-.435-.508-.526.059a11.461,11.461,0,0,0-.038,1.5,2.026,2.026,0,0,0,.455.94Zm-23.24,2.817c.658.27,1.078-.981,1.351-2.356.182-.388.323-.429.417-.229-.024,1.827.129,2.232.6,2.787a1.521,1.521,0,0,0,1.986.035l.814-.814a.492.492,0,0,1,.679-.035c.25.223.217.617.749.887a1.661,1.661,0,0,0,1.633-.344c.3-.511.373-.69.508-.881.214-.285.579-.156.579-.068-.035.159-.247.317-.1.6.256.191.314.068.464.026.532-.256.928-1.41.928-1.41.023-.432-.217-.394-.373-.305-.2.123-.217.164-.42.291-.261.038-.764.211-1.013-.176a15.015,15.015,0,0,1-.455-1.58c0-.035-.341-.74-.023-.784.159.029.5.117.552-.164.164-.276-.358-1.066-.714-1.466a.776.776,0,0,0-1.157-.035c-.294.27-.25.567-.308.852a1.327,1.327,0,0,0,.273,1.157,3.532,3.532,0,0,1,.646,2.344.951.951,0,0,1-.849.429c-.223-.05-.59-.147-.784-1.583-.147-1.09.035-2.611-.426-3.325-.167-.432-.288-.846-.693-.109a1.711,1.711,0,0,0-.238,1.633,4.869,4.869,0,0,1,.267,2.544,5.146,5.146,0,0,1-.488.69.8.8,0,0,1-1.034.141,1.107,1.107,0,0,1-.617-.872,11.813,11.813,0,0,0-.1-2.808.511.511,0,0,0-.852-.17,6.417,6.417,0,0,0-1.539,3.161c-.238.767-.491.549-.67.238-.435-.408-.461-3.583-.987-3.061-.843,2.385.476,5.008,1.389,4.753Z" transform="translate(25.349 5.905)" fill="#fff"/>
  <path id="Path_40644" data-name="Path 40644" d="M34.125,21.2l-.25-.144-4.911-.023c-.253-.1-.176-.179,0-.247,1.172-.159,3.257-.5,3.4-2.5a1.644,1.644,0,1,0-3.228.07c-.044.27.088.8-.185.858-1.8.164-3.771,1.292-3.836,2.1-.109.076-.355-.144-.323-.488a9.676,9.676,0,0,0-1.24-4.194c-.57-.57-.391-.382-.773-.112-.247.282-.291.476-.276,1.037,0,.021.458,1.3.849,2.2a6.841,6.841,0,0,1,.326,2.97,7.308,7.308,0,0,1-3,3.137,1.5,1.5,0,0,1-1.254-.012.74.74,0,0,1-.326-.72,7.091,7.091,0,0,0,3.011-3.111,3.2,3.2,0,0,0,.082-2.241,2.148,2.148,0,0,0-.514-1.04c.159-.106.617.244.687.035a3.261,3.261,0,0,0-.864-1.592.727.727,0,0,0-1.06-.062c-.364.2-.444.928-.27,1.566.194.482.717.561,1.093,1.524,0,.021.135.72-.059,1a11.772,11.772,0,0,1-2.262,2.121c-.056.068-.032-.035-.038-.294-.012-.317.129-1.069.088-1.075-.649.42-.866,1.707-.984,2.088-1.645,1.137-3.507,1.983-4.582,3.137-.561.875,3.86-1,4.374-1.234.115.082.1.479.411.831a2.329,2.329,0,0,0,2.385.767,7.583,7.583,0,0,0,3.448-2.867c.132-.2.341-.344.535-.2.643,1.439,2.5,2.456,4.894,2.564.555-.676.288-1,.062-1.143,0-.021-1.184-.47-1.363-.919-.109-.408.156-.764.69-1.037a24.033,24.033,0,0,0,4.515-.861,3.91,3.91,0,0,1,.5-1.545c.188-.323.291-.226.261-.344Zm-4.042-3.061c.073-.123.317-.117.543.015s.355.341.279.461-.317.117-.546-.015-.35-.338-.276-.461ZM28.109,23.1c-.529.179-1.034.32-1.034,1.084.2,1.06-.27.7-.543.552a2.781,2.781,0,0,1-1.366-2.006.513.513,0,0,1,.57-.532,15.216,15.216,0,0,0,2.053.232c.573.035.858.485.32.67ZM9.919,11.336c.564.27,1.63.156,1.583-.758,0-.082-.021-.352-.029-.426-.115-.27-.429-.2-.5.076-.023.091.038.238-.041.285-.047.047-.226.018-.22-.232a.421.421,0,0,0-.094-.217.182.182,0,0,0-.123-.032c-.079,0-.079.023-.12.091a.773.773,0,0,0-.044.209c-.012.088-.044.12-.109.135s-.059.009-.115-.032c-.035-.038-.082-.056-.082-.12a.741.741,0,0,0-.035-.223.265.265,0,0,0-.138-.076c-.308,0-.329.352-.311.488-.029.023-.038.655.382.831Z" transform="translate(18.455 6.282)" fill="#fff"/>
  <path id="Path_40645" data-name="Path 40645" d="M30.4,17.681a.432.432,0,0,0-.094-.217.182.182,0,0,0-.123-.032c-.079,0-.076.023-.12.091a.8.8,0,0,0-.044.209c-.009.091-.044.123-.109.135s-.059.009-.117-.029c-.035-.038-.082-.056-.082-.12a.726.726,0,0,0-.035-.223.243.243,0,0,0-.138-.073c-.308,0-.329.352-.314.485-.023.026-.035.655.385.834.567.27,1.912.112,1.583-.758,0-.082-.021-.352-.029-.429-.115-.27-.432-.2-.5.076-.021.091.041.238-.041.285-.041.047-.223.018-.217-.235Zm8.871-1.845c.564.27,1.627.156,1.58-.755,0-.082-.021-.352-.029-.429-.115-.27-.429-.2-.5.076-.023.091.038.238-.044.285-.047.047-.226.021-.22-.232a.421.421,0,0,0-.094-.217.186.186,0,0,0-.126-.032c-.079.006-.076.024-.12.091a.8.8,0,0,0-.044.209c-.012.091-.044.123-.109.135s-.059.009-.117-.029c-.035-.038-.079-.056-.079-.12a.761.761,0,0,0-.035-.226.252.252,0,0,0-.141-.073c-.308,0-.329.352-.311.485-.018.026-.032.655.388.831Zm.382-3.531c.2.564-.153,1.1.059,1.181.191.088.461-.582.561-1.2a1.866,1.866,0,0,0-.746-1.739c-.308-.073-.746.109-.605.523-.07.2.623.872.734,1.237Zm5.208,13.224c.394,0,.849-.9,1.043-1.8a15.25,15.25,0,0,0-.106-2.708c-.032-.726-.817-6.245-.978-6.794-.191-1.037.764-.138.661-.74-.332-.761-1.154-1.865-1.416-2.526-.156-.282-.088-.532-.438-.073a5.7,5.7,0,0,0-.311,2.576C44.149,17.8,45,21.4,44.862,25.527ZM54.67,14.2c.091.282-.138,1.193.053,1.278s.42-.629.511-1.3c.05-.367-.22-1.654-.681-1.883a.438.438,0,0,0-.552.567c-.065.217.567.943.67,1.339ZM20.415,23.744c.17.07.4-.461.491-.955.05-.27-.211-1.213-.652-1.383-.27-.059-.643.015-.529.417-.012.217.6.479.637.981C20.451,23.012,20.233,23.685,20.415,23.744ZM8.519,11.692c.085.217-.085.908.094.975s.4-.482.482-.99c.05-.282.012-1.237-.643-1.433-.27-.059-.643.088-.52.432-.062.162.488.717.585,1.019Zm12.8,3.064a1.165,1.165,0,0,0-.382,1.542.75.75,0,0,0,.811.261c.491.059.781-.919.781-.919s.015-.273-.567.247c-.247.047-.276-.044-.338-.185a1.192,1.192,0,0,1,.076-.764c.082-.244-.106-.35-.385-.182Zm3.766-3.011a.673.673,0,0,0,.308-.455c.076-.382-.405.179-.464-.247-.106-.394.2-.555.493-.937.012-.264.006-.449-.352-.235a1.827,1.827,0,0,0-.767,1.281c-.015.338-.079.335.144.549.159.232.317.209.64.041Zm3.39.2a4.62,4.62,0,0,0,.347-1.621c-.1-.567-.482-.549-.737.082a7.962,7.962,0,0,0-.217,1.489c-.085.373.388.532.605.053Zm21.331,6.224s-2.62,1.862-2.682,1.927c-.261.229-.129,1.046,0,.952a10.374,10.374,0,0,0,2.767-1.924c.123.006.182-1.046-.085-.952Zm-.32,5.049c.176.094.637-.479.62-1.19.053-.367-.132-1.718-.593-1.947a.451.451,0,0,0-.529.608c-.065.214.323.963.426,1.36C49.5,22.337,49.295,23.139,49.486,23.221Zm-14.83,3.907a.378.378,0,0,0,.482.062A9.257,9.257,0,0,1,36.8,26.6c.2,0,.188-.543-.129-.561a1.876,1.876,0,0,0-1.216.37c-.256.059-.3-.1-.355-.238-.062-.347.144-.587.1-.846a.489.489,0,0,0-.5-.085,3.48,3.48,0,0,0-.758.646c-.112.085-.1.159-.065.3.085.2.241.138.411.044.229-.032.341.12.32.394a.5.5,0,0,0,.044.493Zm17.1.432c-.085.15-.144.373.123.444.491.138,1.621-.6,1.621-.611a.352.352,0,0,0,.106-.4c-.106-.123-.347-.053-.508-.07-.076,0-.332-.038-.209-.264a1.509,1.509,0,0,0,.2-.394c.076-.17.012-.282-.267-.373a2.084,2.084,0,0,0-.7,0c-.167.035-.223.109-.256.314.012.308.2.294.391.414a.333.333,0,0,1-.009.505c-.182.17-.311.264-.5.432Zm-.5,13.55H47.344V39.8a1.3,1.3,0,0,0-2.608,0v1.3H13.4s0,2.611,7.834,2.611h23.5v1.3a1.3,1.3,0,0,0,2.608,0v-1.3h2.611v1.3a1.3,1.3,0,0,0,2.608,0V42.413A1.3,1.3,0,0,0,51.26,41.109Z" transform="translate(15.322 5.888)" fill="#fff"/>
</svg>
