<svg id="SDN" xmlns="http://www.w3.org/2000/svg" width="93.999" height="67.886" viewBox="0 0 93.999 67.886">
  <path id="Path_40660" data-name="Path 40660" d="M83.55,4.444H10.444A10.445,10.445,0,0,0,0,14.889V26.638H93.992V14.889A10.445,10.445,0,0,0,83.547,4.444Z" transform="translate(0.001 -4.444)" fill="#d21034"/>
  <path id="Path_40661" data-name="Path 40661" d="M0,31.749A10.445,10.445,0,0,0,10.445,42.194H83.551A10.445,10.445,0,0,0,94,31.749V20H0V31.749Z" transform="translate(0.003 25.692)" fill="#141414"/>
  <path id="Path_40662" data-name="Path 40662" d="M0,12H93.993V35.5H0Z" transform="translate(0.003 10.194)" fill="#eee"/>
  <path id="Path_40663" data-name="Path 40663" d="M3.528,5.337h0A10.424,10.424,0,0,0,0,13.159v47A10.418,10.418,0,0,0,3.528,67.98L45.692,36.657,3.528,5.337Z" transform="translate(0.003 -2.714)" fill="#007229"/>
</svg>
