<svg id="SEN" xmlns="http://www.w3.org/2000/svg" width="93.993" height="67.889" viewBox="0 0 93.993 67.889">
  <path id="Path_40721" data-name="Path 40721" d="M10.445,4.444A10.445,10.445,0,0,0,0,14.889v47A10.445,10.445,0,0,0,10.445,72.33H31.332V4.447H10.445Z" transform="translate(0 -4.441)" fill="#00853f"/>
  <path id="Path_40722" data-name="Path 40722" d="M10.667,4.444H42V72.327H10.667Z" transform="translate(20.665 -4.441)" fill="#fdef42"/>
  <path id="Path_40723" data-name="Path 40723" d="M42.22,4.446H21.333V72.329H42.22A10.445,10.445,0,0,0,52.665,61.884v-47A10.445,10.445,0,0,0,42.22,4.443Z" transform="translate(41.328 -4.443)" fill="#e31b23"/>
  <path id="Path_40724" data-name="Path 40724" d="M24.6,19.426l-2.268-6.982-2.268,6.982h-7.34l5.936,4.312L16.4,30.72l5.936-4.312L28.27,30.72,26,23.738l5.936-4.312Z" transform="translate(24.66 11.057)" fill="#00853f"/>
</svg>
