<svg id="SGP" xmlns="http://www.w3.org/2000/svg" width="93.996" height="67.886" viewBox="0 0 93.996 67.886">
  <path id="Path_40666" data-name="Path 40666" d="M93.995,61.885A10.445,10.445,0,0,1,83.55,72.33H10.444A10.445,10.445,0,0,1,0,61.885v-47A10.445,10.445,0,0,1,10.444,4.444H83.55A10.445,10.445,0,0,1,93.995,14.889Z" transform="translate(0.001 -4.444)" fill="#eee"/>
  <path id="Path_40667" data-name="Path 40667" d="M93.995,38.387v-23.5A10.445,10.445,0,0,0,83.55,4.444H10.444A10.445,10.445,0,0,0,0,14.889v23.5H93.992Z" transform="translate(0.001 -4.444)" fill="#ed2939"/>
  <path id="Path_40668" data-name="Path 40668" d="M10.5,19.693c0-6.75,4.241-12.4,9.949-13.931a14.353,14.353,0,1,0-3.419,28.292,14.122,14.122,0,0,0,3.419-.429C14.739,32.089,10.5,26.443,10.5,19.693Z" transform="translate(5.17 -2.722)" fill="#fff"/>
  <path id="Path_40669" data-name="Path 40669" d="M17.475,6.222l.587,1.8h1.895L18.42,9.142l.587,1.8L17.472,9.829l-1.536,1.116.587-1.8L14.987,8.025h1.895ZM12.252,24.5l.587,1.8h1.895L13.2,27.417l.587,1.8L12.249,28.1l-1.536,1.116.587-1.8L9.764,26.3h1.895Zm10.442,0,.587,1.8h1.895L23.64,27.417l.587,1.8L22.691,28.1l-1.536,1.116.587-1.8L20.206,26.3H22.1ZM9.641,14.056l.587,1.8h1.895l-1.536,1.116.587,1.8L9.638,17.663,8.1,18.779l.587-1.8L7.153,15.859H9.048Zm15.665,0,.587,1.8h1.895l-1.536,1.116.587,1.8L25.3,17.663l-1.536,1.116.587-1.8-1.536-1.116h1.895Z" transform="translate(13.86 -1)" fill="#eee"/>
</svg>
