<svg id="SHN" xmlns="http://www.w3.org/2000/svg" width="94" height="67.889" viewBox="0 0 94 67.889">
  <path id="Path_41367" data-name="Path 41367" d="M83.556,142.222H10.445a10.481,10.481,0,0,0-1.577.118l-.01,4.58-7.128-.01A10.4,10.4,0,0,0,0,152.666v47a10.445,10.445,0,0,0,10.444,10.444H83.556A10.445,10.445,0,0,0,94,199.666v-47a10.445,10.445,0,0,0-10.444-10.444Z" transform="translate(-0.001 -142.222)" fill="#00247d"/>
  <path id="Path_41368" data-name="Path 41368" d="M669.983,370.568c-12.014-4.692-11.557-15.591-11.068-27.127l.029-.653.538-.368c.99-.679,5.76-2,10.977-2s9.987,1.319,10.977,2l.538.371.029.65c.488,11.536.948,22.435-11.068,27.127l-.475.185Z" transform="translate(-598.256 -322.229)" fill="#eee"/>
  <path id="Path_41369" data-name="Path 41369" d="M693.7,356.442c-.715-.491-5.175-1.768-10.238-1.768s-9.523,1.277-10.238,1.768c-.493,11.7-.729,21.57,10.238,25.852C694.433,378.009,694.2,368.137,693.7,356.442Z" transform="translate(-611.261 -335.172)" fill="#ff0"/>
  <path id="Path_41370" data-name="Path 41370" d="M673.223,455.111c.123,8.332,1.862,15.066,10.4,18.4,8.541-3.334,10.282-10.066,10.4-18.4Z" transform="translate(-611.423 -426.389)" fill="#8fc5ff"/>
  <path id="Path_41371" data-name="Path 41371" d="M701.6,577.9a14.467,14.467,0,0,0,8.583-7.849H693.02A14.482,14.482,0,0,0,701.6,577.9Z" transform="translate(-629.403 -530.781)" fill="#366cc9"/>
  <path id="Path_41372" data-name="Path 41372" d="M765.289,591.445a.462.462,0,0,0,0,.924h6.977c.227-.3.444-.608.642-.922h-7.619Zm-.841,2.366a.461.461,0,0,0,.462.462h5.6c.334-.3.645-.606.938-.922h-6.536a.46.46,0,0,0-.46.46Zm-1.2,1.906a.461.461,0,0,0,.462.462H767.8a16.169,16.169,0,0,0,1.467-.924h-5.556a.461.461,0,0,0-.462.462Z" transform="translate(-693.186 -550.208)" fill="#00d860"/>
  <path id="Path_41373" data-name="Path 41373" d="M695.359,480.234c.439-1.172,1.413-2.831,1.8-2.883s4.559,8.128,4.233,8.512-4.992.627-5.919.465-.11-6.094-.11-6.094Z" transform="translate(-631.225 -446.587)" fill="#5d3100"/>
  <path id="Path_41374" data-name="Path 41374" d="M681.7,479.372c-.326-1.034-5.494-10.664-5.82-10.664-.23,0-.833.888-1.287,1.682.292,3.966,1.149,7.478,3.217,10.309C679.546,480.552,681.925,480.105,681.7,479.372Z" transform="translate(-612.663 -438.738)" fill="#cf6200"/>
  <path id="Path_41375" data-name="Path 41375" d="M770.816,460.107h.342v9.9h-.342Zm3.481-.274h.342v10.175H774.3Zm3.209.274h.342v9.9h-.342Z" transform="translate(-700.057 -430.677)" fill="#ff0"/>
  <path id="Path_41376" data-name="Path 41376" d="M718.235,543.053c.517.144,2.713,1.36,4.071,1.768a18.052,18.052,0,0,0,4.69.426c.653,0,1.9-1.9,2.447-1.9h3.266c.491,0,.324,3.264-.924,3.264h-8.812c-.817,0-3.59-2.556-4.133-2.828s-1.063-.854-.6-.726Z" transform="translate(-652.142 -506.242)"/>
  <path id="Path_41377" data-name="Path 41377" d="M758.41,464.138a.518.518,0,0,1-.517.517h-1.807a.517.517,0,1,1,0-1.034h1.807A.517.517,0,0,1,758.41,464.138Zm3.46-.517a.518.518,0,0,1-.517.517h-1.807a.517.517,0,1,1,0-1.034h1.807A.515.515,0,0,1,761.87,463.621Zm3.554,1.034a.518.518,0,0,1-.517.517H763.1a.517.517,0,1,1,0-1.034h1.807A.518.518,0,0,1,765.423,464.655Zm0,2.857a.518.518,0,0,1-.517.517H763.1a.517.517,0,1,1,0-1.034h1.807A.516.516,0,0,1,765.423,467.511Zm0,1.893a.518.518,0,0,1-.517.517H763.1a.517.517,0,1,1,0-1.034h1.807A.518.518,0,0,1,765.423,469.4Zm-3.554-3.88a.518.518,0,0,1-.517.517h-1.807a.517.517,0,1,1,0-1.034h1.807A.518.518,0,0,1,761.87,465.524Zm0,1.987a.518.518,0,0,1-.517.517h-1.807a.517.517,0,1,1,0-1.034h1.807A.516.516,0,0,1,761.87,467.511Zm0,1.893a.518.518,0,0,1-.517.517h-1.807a.517.517,0,1,1,0-1.034h1.807A.518.518,0,0,1,761.87,469.4Zm-3.46-3.363a.518.518,0,0,1-.517.517h-1.807a.517.517,0,1,1,0-1.034h1.807A.518.518,0,0,1,758.41,466.041Zm0,1.987a.518.518,0,0,1-.517.517h-1.807a.517.517,0,1,1,0-1.034h1.807A.518.518,0,0,1,758.41,468.028Zm0,1.9a.518.518,0,0,1-.517.517h-1.807a.517.517,0,1,1,0-1.034h1.807A.515.515,0,0,1,758.41,469.924Z" transform="translate(-686.21 -433.648)" fill="#eee"/>
  <path id="Path_41378" data-name="Path 41378" d="M735.766,365.119c.06-.431,1.165-.083,1.6-.465s1.611-1.3,2.569-.11c.535.666.4,1.123,1,1.669s3.776,1.922,4.81,1.6c-.055.653-.979.979-.979.979a2.678,2.678,0,0,1,.984,1.413c.11.762-1.311-1.183-3.324-.65-.8.214-1.7,1.052-3.332.65s-1.676-2.854-1.718-3.883c-.013-.373-1.645-.911-1.606-1.2Z" transform="translate(-668.225 -343.601)" fill="#ac5f1a"/>
  <path id="Path_41379" data-name="Path 41379" d="M744.66,366.873c.078-.35.951.01,1.332-.272s1.4-.948,2.1.086c.386.577.248.94.7,1.426s2.94,1.82,3.8,1.627c-.086.525-.864.729-.864.729a2.2,2.2,0,0,1,.7,1.219c.039.624-.984-1.055-2.658-.757-.668.12-1.457.742-2.755.3s-1.172-2.436-1.138-3.277c.008-.3-1.282-.854-1.227-1.081Z" transform="translate(-676.301 -345.577)" fill="#eee"/>
  <path id="Path_41380" data-name="Path 41380" d="M768.669,379.952a.193.193,0,0,1-.193.193.2.2,0,0,1-.2-.193v-1.227a.2.2,0,0,1,.2-.193.193.193,0,0,1,.193.193Zm1.447,0a.193.193,0,0,1-.193.193.2.2,0,0,1-.2-.193v-1.227a.2.2,0,0,1,.2-.193.193.193,0,0,1,.193.193Zm-1.721-6.251a.368.368,0,1,1-.368-.368A.368.368,0,0,1,768.394,373.7Z" transform="translate(-697.19 -352.118)"/>
  <path id="Path_41381" data-name="Path 41381" d="M49.611,176.166V142.222H10.444a11.347,11.347,0,0,0-1.577.118l-.01,4.58-7.128-.01s-.11.154-.332.535A10.414,10.414,0,0,0,0,152.666v23.5Z" transform="translate(0 -142.222)" fill="#00247d"/>
  <path id="Path_41382" data-name="Path 41382" d="M49.609,142.221H43.523l-12.191,8.536v-8.536H18.276v6.708l-9.41-6.59A10.293,10.293,0,0,0,4.5,144.075l12.277,8.59H12.244l-9.721-6.812a10.824,10.824,0,0,0-.8,1.055l8.228,5.757H0v13.055H10.142L0,172.943v3.222H8.7l9.578-6.705v6.705H31.331V167.63l12.189,8.536h6.089v-5.3l-7.35-5.146h7.35V152.665H42.261l7.348-5.146v-5.3Z" transform="translate(0.002 -142.221)" fill="#eee"/>
  <path id="Path_41383" data-name="Path 41383" d="M28.722,142.222H20.889v13.055H0v7.833H20.889v13.055h7.833V163.111H49.611v-7.833H28.722Z" transform="translate(0 -142.222)" fill="#cf1b2b"/>
  <path id="Path_41384" data-name="Path 41384" d="M68.572,142.222H64.758L50.295,152.35v.316h4.1l14.176-9.927Zm-45.109,1.854a10.579,10.579,0,0,0-1.977,1.778l9.721,6.812h4.53l-12.275-8.59Zm12.306,21.646L20.878,176.166h4.509l11.852-8.3v-2.146Zm32.8,9.927v-3.186l-9.627-6.742H54.394Z" transform="translate(-18.961 -142.222)" fill="#cf1b2b"/>
</svg>
