<svg id="SLB" xmlns="http://www.w3.org/2000/svg" width="93.996" height="67.883" viewBox="0 0 93.996 67.883">
  <path id="Path_40646" data-name="Path 40646" d="M87.6,5.259a10.4,10.4,0,0,0-4.053-.814H10.444A10.445,10.445,0,0,0,0,14.89v47a10.381,10.381,0,0,0,1.695,5.7L87.6,5.259Z" transform="translate(0.001 -4.445)" fill="#0051ba"/>
  <path id="Path_40647" data-name="Path 40647" d="M2.176,68.382l.015.009a10.378,10.378,0,0,0,4.036.811H79.332A10.445,10.445,0,0,0,89.777,58.757v-47a10.381,10.381,0,0,0-1.695-5.7L2.176,68.385Z" transform="translate(4.218 -1.318)" fill="#215b33"/>
  <path id="Path_40648" data-name="Path 40648" d="M.579,67.061A10.491,10.491,0,0,0,5.27,70.973l85.9-62.332A10.477,10.477,0,0,0,86.48,4.723L.579,67.061Z" transform="translate(1.125 -3.906)" fill="#fcd116"/>
  <path id="Path_40649" data-name="Path 40649" d="M8.436,14.957l.026.018L7.2,18.863l3.372-2.453,3.375,2.453-1.263-3.889.023-.018-.023-.076,3.284-2.388H11.876l-1.3-4.012-1.3,4.012H5.173L8.46,14.88Z" transform="translate(10.024 3.372)" fill="#fff"/>
  <path id="Path_40650" data-name="Path 40650" d="M20.27,21.441l3.393-2.464h-.129L20.25,21.364Zm-4.271,0,.026-.076-3.287-2.388H12.61Zm-1.24,3.91-.041.126,3.416-2.482,3.416,2.482-.038-.126L18.138,22.9ZM4.529,11.61l.026.018L3.29,15.519l3.375-2.453,3.375,2.453L8.774,11.627,8.8,11.61l-.026-.076,3.287-2.385H7.969l-1.3-4.015-1.3,4.015H1.269l3.287,2.385Z" transform="translate(2.461 -3.112)" fill="#fff"/>
  <path id="Path_40651" data-name="Path 40651" d="M3.372,12.871l-.038.123L6.75,10.515l3.416,2.479-.038-.123L6.753,10.418Zm1.242-3.91.026-.076L1.354,6.5H1.225Zm4.271,0L12.278,6.5h-.129L8.862,8.885ZM27.555,28.624l.023.018-1.263,3.892,3.375-2.456,3.372,2.456L31.8,28.641l.026-.018-.026-.076,3.284-2.385H30.991l-1.3-4.015-1.3,4.015H24.291l3.284,2.385Z" transform="translate(2.376 -0.464)" fill="#fff"/>
  <path id="Path_40652" data-name="Path 40652" d="M31.743,18.3l3.39-2.461H35L31.72,18.227Zm-4.274,0,.023-.076-3.284-2.385H24.08Zm-1.24,3.912-.038.123,3.416-2.479,3.416,2.479-.041-.123-3.372-2.456ZM4.529,18.3l.026.018L3.29,22.213l3.375-2.456,3.375,2.456L8.774,18.321,8.8,18.3l-.026-.076,3.287-2.385H7.969l-1.3-4.015-1.3,4.015H1.269l3.287,2.385Z" transform="translate(2.461 9.856)" fill="#fff"/>
  <path id="Path_40653" data-name="Path 40653" d="M8.885,31.272l3.393-2.461h-.129L8.862,31.2ZM3.372,35.184l-.038.123L6.75,32.829l3.416,2.479-.038-.123L6.753,32.729Zm1.242-3.912.026-.076L1.354,28.81H1.225ZM27.555,11.61l.023.018-1.263,3.892,3.375-2.453,3.372,2.453L31.8,11.627l.026-.018-.026-.076,3.284-2.385H30.991l-1.3-4.015-1.3,4.015H24.291l3.284,2.385Z" transform="translate(2.376 -3.112)" fill="#fff"/>
  <path id="Path_40654" data-name="Path 40654" d="M12.425,8.961l.024-.076L9.164,6.5H9.035Zm4.274,0L20.088,6.5h-.129L16.675,8.885Zm-5.513,3.91-.038.123,3.416-2.479,3.416,2.479-.041-.123-3.372-2.453Z" transform="translate(17.506 -0.464)" fill="#fff"/>
</svg>
