<svg id="SLV" xmlns="http://www.w3.org/2000/svg" xmlns:xlink="http://www.w3.org/1999/xlink" width="93.99" height="68.573" viewBox="0 0 93.99 68.573">
  <defs>
    <clipPath id="clip-path">
      <rect id="Rectangle_3429" data-name="Rectangle 3429" width="93.99" height="68.573" fill="none"/>
    </clipPath>
  </defs>
  <g id="Group_8193" data-name="Group 8193" clip-path="url(#clip-path)">
    <path id="Path_41122" data-name="Path 41122" d="M0,140.163V114.1a1.441,1.441,0,0,1,1.02-.336c.336-.014.673-.01,1.009-.01q44.966,0,89.932.007c.686,0,1.42-.171,2.029.34v26.067a1.441,1.441,0,0,1-1.02.336c-.336.014-.673.01-1.009.01Q47,140.51,2.029,140.5c-.687,0-1.42.171-2.029-.34" transform="translate(0 -92.845)" fill="#ededed"/>
    <path id="Path_41123" data-name="Path 41123" d="M93.99,21.251c-.244-.005-.489-.015-.733-.015H.733c-.244,0-.489.009-.733.015V8.952A9.359,9.359,0,0,1,2.931,3.1,10.868,10.868,0,0,1,10.1.01C10.346,0,10.591,0,10.836,0Q46.995,0,83.154,0A10.9,10.9,0,0,1,91.38,3.428a8.976,8.976,0,0,1,2.61,5.891Z" transform="translate(0 0)" fill="#0f47ae"/>
    <path id="Path_41124" data-name="Path 41124" d="M0,257.678c.4,0,.794.013,1.192.013H92.8c.4,0,.795-.008,1.192-.013v12.116c-1.111,5.86-5.091,9.133-11.114,9.133q-36.019,0-72.038-.015a10.638,10.638,0,0,1-10.245-6.46A19.425,19.425,0,0,1,0,269.977v-12.3" transform="translate(0 -210.359)" fill="#0f47ae"/>
    <path id="Path_41125" data-name="Path 41125" d="M222.529,152.3l2.27-3.775,3.2,5.382c.388.157.522.53.723.846.207.448.492.852.74,1.276.325.522.6,1.073.918,1.6.274.421.466.887.743,1.307a.873.873,0,0,1,.137.387.439.439,0,0,1-.189.377,1.321,1.321,0,0,1-.747.146c-.424-.01-.847,0-1.271,0-.718-.038-1.433.113-2.152.026a5.156,5.156,0,0,1-1.669-.24l-.457,0a3.9,3.9,0,0,1-1.676.238c-.665.071-1.329-.058-1.993-.019-.479,0-.958-.01-1.437.005a2.049,2.049,0,0,1-.618-.014c-.833-.3-.847-.34-.366-1.11a8.385,8.385,0,0,1,.7-1.441c.4-.641.8-1.289,1.133-1.968.269-.367.474-.774.717-1.157.277-.4.46-.86.718-1.274.158-.227.223-.547.575-.584" transform="translate(-178.268 -121.253)" fill="#fbcb05"/>
    <path id="Path_41126" data-name="Path 41126" d="M193.766,196.414c.363-.07.477.113.537.441a10.185,10.185,0,0,0,5.2,7.363c.576.326.146.679.034,1.007-.158.464-.451.259-.719.1a11.542,11.542,0,0,1-5.808-8.248c-.132-.7.334-.643.751-.669" transform="translate(-157.552 -160.333)" fill="#fecb02"/>
    <path id="Path_41127" data-name="Path 41127" d="M214.854,126.9c.282.056.762-.194.781.427.017.546-.1.867-.8.907a9.84,9.84,0,0,0-7.062,3.419c-.5.569-.774.16-1.124-.074-.506-.34-.056-.581.131-.787a11.541,11.541,0,0,1,8.071-3.891" transform="translate(-168.513 -103.597)" fill="#fecb02"/>
    <path id="Path_41128" data-name="Path 41128" d="M286.134,207.606c-.058.169-.1.315-.157.457a11.55,11.55,0,0,1-5.234,6.022c-.316.178-.629.434-.855-.144-.162-.414-.362-.708.216-1.017a10,10,0,0,0,4.691-5.412c.1-.25.154-.574.555-.38.278.135.689.065.785.474" transform="translate(-228.352 -169.047)" fill="#fecb03"/>
    <path id="Path_41129" data-name="Path 41129" d="M303.884,161.433a9.423,9.423,0,0,0-1.419-5.028c-.305-.5-.181-.7.252-1,.526-.369.678-.039.884.317a11.066,11.066,0,0,1,1.571,6.464c-.024.338.137.848-.582.741-.554-.083-.845-.244-.713-.855a3.061,3.061,0,0,0,.007-.638" transform="translate(-246.784 -126.734)" fill="#fecc03"/>
    <path id="Path_41130" data-name="Path 41130" d="M234.586,223.325a2.163,2.163,0,0,1-2.822.888c-.3-.143-.582-.281-.129-.592.07-.048.166-.16.151-.216-.273-1.04.816-1.353,1.1-2.088.145-.382.35-.23.565-.143a1.7,1.7,0,0,1,1.18,1.755c.117.146.125.28-.041.4" transform="translate(-188.905 -180.474)" fill="#21611c"/>
    <path id="Path_41131" data-name="Path 41131" d="M263.34,222.768c.061.231.047.542.2.68.749.7.013.73-.379.843a1.868,1.868,0,0,1-2.422-1.04,1.658,1.658,0,0,1,1.023-2.078c.139-.059.288-.091.433-.136.094.786,1.209.86,1.15,1.732" transform="translate(-212.785 -180.446)" fill="#21611c"/>
    <path id="Path_41132" data-name="Path 41132" d="M272.169,131.207a.882.882,0,0,1-1.219.528,9.782,9.782,0,0,0-3.416-1.67c-.54-.136-.475-.412-.377-.8.091-.364.182-.629.656-.494a12.06,12.06,0,0,1,4.122,2.079c.119.093.244.183.234.361" transform="translate(-218.043 -105.092)" fill="#fecc04"/>
    <path id="Path_41133" data-name="Path 41133" d="M274.3,161.951a3.9,3.9,0,0,1-.726-1.253c-.008-.437-.214-.91.225-1.267a2.669,2.669,0,0,0,.119-1.437c-.176-1.03.349-1.648,1.215-2.285a15.372,15.372,0,0,1-.1,4.581c-.254.55-.157,1.255-.734,1.662" transform="translate(-223.293 -127.115)" fill="#0a239f"/>
    <path id="Path_41134" data-name="Path 41134" d="M217.175,213.644c.371.481.82.937.64,1.63a1.477,1.477,0,0,1-1.206,1.233,2.152,2.152,0,0,1-1.96-.78c-.19-.2-.072-.3.128-.389a.983.983,0,0,0,.609-1.112,2.014,2.014,0,0,1,1.789-.581" transform="translate(-175.154 -174.367)" fill="#22611d"/>
    <path id="Path_41135" data-name="Path 41135" d="M279.6,214.657a.589.589,0,0,0,.315.612c.793.351.329.632-.036.9a1.734,1.734,0,0,1-2.321,0c-.7-.726-.634-1.409.232-2.473a1.686,1.686,0,0,1,1.81.961" transform="translate(-226.197 -174.443)" fill="#21611c"/>
    <path id="Path_41136" data-name="Path 41136" d="M227.7,160.276a4.213,4.213,0,0,1-.7,1.195,1.771,1.771,0,0,1-.668-1.08,13.71,13.71,0,0,1-.036-4.539,3.819,3.819,0,0,1,1.264,1.443,4.4,4.4,0,0,1,.143,2.981" transform="translate(-184.601 -127.232)" fill="#0b25a0"/>
    <path id="Path_41137" data-name="Path 41137" d="M283.675,180.548l-.721-1.244a1.613,1.613,0,0,1,.351-1.491,1.815,1.815,0,0,0,.146-1.072,1.558,1.558,0,0,1,.976-1.876c.271-.022.3.193.367.373a2.967,2.967,0,0,1,.038.731q0,.367,0,.735a11.4,11.4,0,0,1-.009,1.194,1.287,1.287,0,0,1-.413.948l-.239.907c-.16.269.046.767-.5.8" transform="translate(-230.965 -142.752)" fill="#09229f"/>
    <path id="Path_41138" data-name="Path 41138" d="M192.681,166a13.062,13.062,0,0,1,.954-3.445c.181-.421.436-.347.722-.173.254.155.726.162.49.681a9.862,9.862,0,0,0-.843,2.983c-.066.581-.482.427-.826.433-.489.008-.544-.29-.5-.478" transform="translate(-157.287 -132.452)" fill="#fecc06"/>
    <path id="Path_41139" data-name="Path 41139" d="M217.127,178.818a4.034,4.034,0,0,1-.835,1.38l.018-.012-.475-1.177c-.36-.279-.3-.718-.421-1.091a6.132,6.132,0,0,1-.064-1.041,4.868,4.868,0,0,1,.009-.872c.01-.237,0-.474.03-.711.087-.224.054-.618.493-.356a1.23,1.23,0,0,1,.907,1.524,2.912,2.912,0,0,0,.1.8c.463.459.309,1.013.242,1.555" transform="translate(-175.792 -142.744)" fill="#0a239e"/>
    <path id="Path_41140" data-name="Path 41140" d="M287.326,204.853l.03-.313a.557.557,0,0,1,.355-.606c.276.1.528.357.845.216.766-.34,1,.705,1.66.618a2.96,2.96,0,0,1-.273.654,1.476,1.476,0,0,1-1.606.746,4.043,4.043,0,0,1-.426-.151c-.636-.166-.857-.541-.586-1.164" transform="translate(-234.47 -166.485)" fill="#23631e"/>
    <path id="Path_41141" data-name="Path 41141" d="M208.7,203.9l-.018.012c.091.311-.789.842.215.945.432.782-.085,1.022-.691,1.212a1.349,1.349,0,0,1-1.651-.38c-.26-.331-1.111-.646.059-1.242.728-.37,1.482-.1,2.086-.547" transform="translate(-168.182 -166.454)" fill="#25641f"/>
    <path id="Path_41142" data-name="Path 41142" d="M291.048,189.856l.173-.966c.344-.221.783-.25,1.094-.537a.268.268,0,0,1,.224.086.54.54,0,0,0,.632.514c.805-.127.58.323.446.723a1.334,1.334,0,0,1-2.57.181" transform="translate(-237.602 -153.764)" fill="#256321"/>
    <path id="Path_41143" data-name="Path 41143" d="M206.1,188.927a2.246,2.246,0,0,1,.183,1.1,1.285,1.285,0,0,1-2.37-.121c-.163-.385-.721-1.081.432-.964a.566.566,0,0,0,.568-.5.265.265,0,0,1,.223-.095,9.262,9.262,0,0,1,.964.584" transform="translate(-166.243 -153.756)" fill="#246320"/>
    <path id="Path_41144" data-name="Path 41144" d="M248.762,228.89q.02-.2.041-.4a3.1,3.1,0,0,1,.4-.372.974.974,0,0,1,1.5.273.942.942,0,0,1-.322,1.417.964.964,0,0,1-1.462-.405,2.091,2.091,0,0,1-.149-.516" transform="translate(-203.081 -186.039)" fill="#0f28a1"/>
    <path id="Path_41145" data-name="Path 41145" d="M279.107,181.718a2.916,2.916,0,0,1-.352,1.491,8.153,8.153,0,0,1-.979-1.715c.34-.512-.16-1.395.734-1.662.279-.126.618-.448.581.244-.029.546.008,1.095.016,1.642" transform="translate(-226.767 -146.658)" fill="#fafafb"/>
    <path id="Path_41146" data-name="Path 41146" d="M205.688,180.081l-.245.029a1,1,0,0,1-1.027-.837c-.141-.479-.383-1.116.6-.874.085.021.2-.1.306-.148.18-.177.371-.106.562-.025.171.1.361.15.536.239a.537.537,0,0,1,.15.176l.011.855c-.169.392-.359.751-.893.585" transform="translate(-166.769 -145.429)" fill="#22611d"/>
    <path id="Path_41147" data-name="Path 41147" d="M293.605,180.279l-.247-.017c-.693.278-.851-.2-.988-.7a.793.793,0,0,1,.447-.929c.232-.131.438-.343.745-.254.075.05.178.082.221.152.218.358.938-.512.91.359-.023.7-.228,1.317-1.088,1.39" transform="translate(-238.667 -145.605)" fill="#22621d"/>
    <path id="Path_41148" data-name="Path 41148" d="M223.985,182.784a3.662,3.662,0,0,1-.242-1.555,8.868,8.868,0,0,0,.026-1.063c-.061-.687.3-.43.613-.3.616.117.524.672.668,1.08a8.451,8.451,0,0,1-1.065,1.836" transform="translate(-182.65 -146.709)" fill="#f5f6f7"/>
    <path id="Path_41149" data-name="Path 41149" d="M210.652,169.287c-.274-.051-.235.174-.285.322-.387.443-.743.4-1.072-.068a3.822,3.822,0,0,1-.3-.649c-.207-.8.082-1.133.836-.881.544.182,1.141.472.823,1.276" transform="translate(-170.562 -137.092)" fill="#2e6a2a"/>
    <path id="Path_41150" data-name="Path 41150" d="M291.022,168.873l-.2-.33c-.293-.758.4-.928.8-1.18a1.317,1.317,0,0,1,.742-.241,1.632,1.632,0,0,1-.132,1.727c-.395.481-.8.552-1.212.023" transform="translate(-237.362 -136.431)" fill="#286624"/>
    <path id="Path_41151" data-name="Path 41151" d="M270.914,166.474a2.525,2.525,0,0,1-.225,1.267,2.313,2.313,0,0,1-.549-.927,2.745,2.745,0,0,0-.048-.817,1.254,1.254,0,0,1,.685-1.663,12.635,12.635,0,0,1,.137,2.139" transform="translate(-220.406 -134.157)" fill="#f2f3f7"/>
    <path id="Path_41152" data-name="Path 41152" d="M233.685,166.691a7.212,7.212,0,0,1-.143-2.981,2.953,2.953,0,0,1,.95.97.873.873,0,0,1,.009.624l-.816,1.387" transform="translate(-190.581 -133.647)" fill="#fafaf9"/>
    <path id="Path_41153" data-name="Path 41153" d="M279.809,208.938a1.651,1.651,0,0,0,.586,1.164q-.021.341-.042.681c-.053-.107-.111-.31-.159-.308-.655.033-1.079-.5-1.652-.653-.122-.2-.326-.18-.519-.185-.113-.466.306-.4.53-.533.21-.017.393-.147.607-.149l.649-.018" transform="translate(-226.953 -170.57)" fill="#e4e6e3"/>
    <path id="Path_41154" data-name="Path 41154" d="M288.274,159.109c-.035.414-.035.856-.526.846-.449-.009-.878-.322-.806-.779.062-.4.154-1,.814-.963.638.039.36.617.518.9" transform="translate(-234.243 -129.159)" fill="#276623"/>
    <path id="Path_41155" data-name="Path 41155" d="M215.289,159.041c.145-.3-.027-.854.479-.9.646-.057.82.558.881,1.006.053.392-.345.72-.757.747-.558.037-.541-.443-.6-.855" transform="translate(-175.755 -129.099)" fill="#266421"/>
    <path id="Path_41156" data-name="Path 41156" d="M217.956,210.278a1.588,1.588,0,0,0,.691-1.212l.567-.009c.171.023.325.108.495.134.23.109.525.165.441.534l-.2.219c-.625.1-1.078.74-1.789.581l-.208-.247" transform="translate(-177.932 -170.667)" fill="#e2e4e2"/>
    <path id="Path_41157" data-name="Path 41157" d="M227.491,209.693l-.542-.388c.22-.542.677-.129,1-.249.674.243,1.444.125,2.073.543a.174.174,0,0,1,.025.253,5.7,5.7,0,0,1-2.558-.159" transform="translate(-185.273 -170.635)" fill="#132ba4"/>
    <path id="Path_41158" data-name="Path 41158" d="M267.243,209.358l-.693.4a5.682,5.682,0,0,1-2.593.153c-.035-.177.076-.261.209-.332.744-.135,1.468-.364,2.219-.471.277.116.693-.249.859.249" transform="translate(-215.48 -170.692)" fill="#162ea4"/>
    <path id="Path_41159" data-name="Path 41159" d="M292.174,176.562a1.2,1.2,0,0,0,1.212-.023l.023.355-.586.434c-.227.071-.454.153-.658-.054q0-.356.009-.712" transform="translate(-238.513 -144.12)" fill="#ced5d5"/>
    <path id="Path_41160" data-name="Path 41160" d="M244.354,208.685a5.515,5.515,0,0,1,1.638,0l-.23.3c-.152.144-.363.1-.539.172-.367-.02-.8.084-.868-.48" transform="translate(-199.482 -170.315)" fill="#4a4f75"/>
    <path id="Path_41161" data-name="Path 41161" d="M244.688,210.643l.625-.014a1.846,1.846,0,0,1-1.5.539.226.226,0,0,1,.014-.14c.033-.7.639-.117.865-.384" transform="translate(-199.033 -171.95)" fill="#6b7ac3"/>
    <path id="Path_41162" data-name="Path 41162" d="M259.053,210.385l-.193.185c-.521.146-.843-.163-1.153-.5a.445.445,0,0,1,.387-.175c.339.126.826-.036.96.492" transform="translate(-210.383 -171.349)" fill="#596abd"/>
    <path id="Path_41163" data-name="Path 41163" d="M210.125,176.707a1.187,1.187,0,0,0,1.071.068q0,.347,0,.695a.281.281,0,0,1-.151-.036.576.576,0,0,0-.561-.152.544.544,0,0,0-.536-.2l.181-.374" transform="translate(-171.391 -144.258)" fill="#dfe2e4"/>
    <path id="Path_41164" data-name="Path 41164" d="M255.766,208.677a5.077,5.077,0,0,1,1.659,0c-.041.385-.316.37-.595.349-.284-.158-.617-.084-.912-.192l-.153-.153" transform="translate(-208.799 -170.299)" fill="#555b80"/>
    <path id="Path_41165" data-name="Path 41165" d="M287.567,201.934l-.355.606-.176-.259.5-.8.034.45" transform="translate(-234.326 -164.485)" fill="#bbc4d0"/>
    <path id="Path_41166" data-name="Path 41166" d="M239.125,169.617q0-.312-.009-.625l.351.017-.342.608" transform="translate(-195.206 -137.959)" fill="#a4a5b0"/>
    <path id="Path_41167" data-name="Path 41167" d="M256.6,209.685a1.987,1.987,0,0,1,1,.068c-.055.269-.219.162-.367.106l-.428.014-.2-.188" transform="translate(-209.477 -171.154)" fill="#243cae"/>
    <path id="Path_41168" data-name="Path 41168" d="M232.191,160.62l3.892-6.774,3.892,6.788a.683.683,0,0,1-.631.179,12.258,12.258,0,0,1-4.094-.6,2.489,2.489,0,0,0-2.564.571.5.5,0,0,1-.494-.161" transform="translate(-189.553 -125.595)" fill="#fefefd"/>
    <path id="Path_41169" data-name="Path 41169" d="M233.8,196.594c.337.5,1,1.134.785,1.541-.237.457-1.107.158-1.7.163-2.691.022-5.383.013-8.074.005a1.553,1.553,0,0,1-.941-.122,4.19,4.19,0,0,1,.719-1.229c2.272-.168,4.548-.021,6.821-.075a6.361,6.361,0,0,0,1.809-.106c.185-.081.343-.258.578-.177" transform="translate(-182.759 -160.476)" fill="#017e92"/>
    <path id="Path_41170" data-name="Path 41170" d="M236.807,195.38a50.705,50.705,0,0,1-8.937,0,.3.3,0,0,1-.083-.035l.391-.727c.183-.053.288.066.4.175.356.33.8.243,1.22.246,1.831.012,3.662,0,5.493.007a3.217,3.217,0,0,1,1.266.133,1.385,1.385,0,0,1,.251.2" transform="translate(-185.957 -158.867)" fill="#057f92"/>
    <path id="Path_41171" data-name="Path 41171" d="M260.041,209.3l.367-.106.507-.226,2.142.015.169.035-.163.058a3.645,3.645,0,0,1-2.105.554c-.261-.235-.692,0-.918-.331" transform="translate(-212.288 -170.592)" fill="#e4e4e5"/>
    <path id="Path_41172" data-name="Path 41172" d="M235.6,209.272c-.181.37-.668.052-.865.384a4.844,4.844,0,0,1-2.064-.56l.013-.127,2.133-.02.783.323" transform="translate(-189.944 -170.579)" fill="#e8e7e6"/>
    <path id="Path_41173" data-name="Path 41173" d="M271.9,192.281l-.2-.034c-.366-.416-1.052-.618-.91-1.371l.679-.069a3.227,3.227,0,0,1,.616,1.08c-.154.088-.166.243-.187.394" transform="translate(-221.052 -155.769)" fill="#278c8d"/>
    <path id="Path_41174" data-name="Path 41174" d="M230.1,191.627l-.185-.169a1.47,1.47,0,0,1,.418-.724l.422.084c.029.47-.138.781-.655.809" transform="translate(-187.695 -155.709)" fill="#449888"/>
    <path id="Path_41175" data-name="Path 41175" d="M226.264,209.056a.36.36,0,0,1-.013.127c-.352.038-.734-.127-1.051.154l-.393-.281h1.456" transform="translate(-183.525 -170.666)" fill="#1e339c"/>
    <path id="Path_41176" data-name="Path 41176" d="M276.475,209.13a.922.922,0,0,0-.006-.093l1.438,0c-.134.115-.211.32-.443.28-.291-.263-.661-.109-.988-.185" transform="translate(-225.7 -170.649)" fill="#1f359f"/>
    <path id="Path_41177" data-name="Path 41177" d="M292.143,184.47c.215.355.412.732.917.714-.133.669-.6.582-1.072.469q.012-.594.023-1.187c.048-.11.091-.1.131,0" transform="translate(-238.37 -150.526)" fill="#d2d9d8"/>
    <path id="Path_41178" data-name="Path 41178" d="M292.247,181.333l-.066.008-.065-.012.009-.786.658.054c-.319.144-.62.3-.536.735" transform="translate(-238.473 -147.389)" fill="#5b798d"/>
    <path id="Path_41179" data-name="Path 41179" d="M211.937,186.105a1.866,1.866,0,0,0,.893-.585q.024.551.048,1.1c-.434.046-.882.117-.941-.519" transform="translate(-173.018 -151.453)" fill="#d7ded8"/>
    <path id="Path_41180" data-name="Path 41180" d="M212.864,178.974c.283-.3.469-.251.561.151-.216.057-.43.107-.561-.151" transform="translate(-173.775 -145.949)" fill="#ededed"/>
    <path id="Path_41181" data-name="Path 41181" d="M230.2,186.765l.655-.809c.279-.277.553-.559.837-.831a.83.83,0,0,1,1.341-.009c.484.538,1.153-.233,1.647.249.046.045.285-.1.323-.054.618.694,1.365.333,2.073.272.278-.024.278.286.461.372.167.547.84.759.91,1.371q-3.915-.008-7.83-.015c-.381,0-.828.058-.418-.545" transform="translate(-187.791 -150.847)" fill="#fccb03"/>
    <path id="Path_41182" data-name="Path 41182" d="M252.637,173.747a.48.48,0,0,1-.529.474.444.444,0,0,1-.433-.477.426.426,0,0,1,.426-.477.472.472,0,0,1,.536.48" transform="translate(-205.458 -141.448)" fill="#e81a1a"/>
  </g>
</svg>
