<svg id="SMR" xmlns="http://www.w3.org/2000/svg" width="93.999" height="67.778" viewBox="0 0 93.999 67.778">
  <path id="Path_40708" data-name="Path 40708" d="M0,16V39.5A10.445,10.445,0,0,0,10.445,49.943H83.551A10.445,10.445,0,0,0,94,39.5V16H0Z" transform="translate(0.003 17.834)" fill="#5eb6e4"/>
  <path id="Path_40709" data-name="Path 40709" d="M83.55,4.481H10.444A10.445,10.445,0,0,0,0,14.926V38.318H93.992V14.926A10.445,10.445,0,0,0,83.547,4.481Z" transform="translate(0.001 -4.481)" fill="#eee"/>
  <path id="Path_40710" data-name="Path 40710" d="M19.288,14.371c-6.353,0-6.935-2.57,0-2.57S25.642,14.371,19.288,14.371Z" transform="translate(27.711 9.7)" fill="#f4900c"/>
  <path id="Path_40711" data-name="Path 40711" d="M27.652,22.062c-1.589,0-2.855.978-4,1.589a1.284,1.284,0,0,0-1.8,0c-1.143-.611-2.409-1.589-4-1.589s-5.346,1.551-5.346,9.423c0,10.363,10.239,13.664,10.239,13.664s10.239-3.3,10.239-13.664c0-7.875-3.754-9.423-5.346-9.423ZM15.412,18.59a4.154,4.154,0,0,1,2.362,2.917c.943-1.04,4.982-1.122,4.982-1.122s4.039.082,4.982,1.122A4.167,4.167,0,0,1,30.1,18.59c-.2-.408-.775-.285-.775-.285s1.263-2.162.775-3.184-2.409-.978-3.959-1.143-1.836-.858-1.836-.858l.408-.491s-.775-.162-.611-.693-.491-.491-.491-.491.491-.491.285-.937a1.1,1.1,0,0,0-.652-.573s-.285-.652,0-.858.937.573.937-.2-.734-.123-.937-.408.37-1.016-.485-1.016-.285.734-.491,1.022-.937-.367-.937.408.652,0,.937.2,0,.858,0,.858a1.1,1.1,0,0,0-.652.573c-.2.449.285.937.285.937s-.652-.041-.491.491-.611.693-.611.693l.408.491s-.285.693-1.836.858-3.466.123-3.959,1.143.775,3.184.775,3.184-.567-.129-.77.279ZM26.18,14.88c1.386.247,3.63.734.978,2.488a1.958,1.958,0,0,0-.285-1.1,2.371,2.371,0,0,0-1.184.573,1.859,1.859,0,0,0-.611-1.06,1.774,1.774,0,0,0-1.022.855,2.4,2.4,0,0,0-.376-.67,3.149,3.149,0,0,0,.376-1.542,3.63,3.63,0,0,0-.044-.364,6.628,6.628,0,0,0,2.165.825Zm-6.85,0a6.612,6.612,0,0,0,2.15-.814,3.4,3.4,0,0,0-.041.352,3.136,3.136,0,0,0,.382,1.557,2.443,2.443,0,0,0-.364.661,1.784,1.784,0,0,0-1.022-.858,1.855,1.855,0,0,0-.611,1.06,2.36,2.36,0,0,0-1.184-.573,1.958,1.958,0,0,0-.285,1.1c-2.655-1.754-.411-2.244.975-2.488Z" transform="translate(24.244 1.275)" fill="#ffac33"/>
  <path id="Path_40712" data-name="Path 40712" d="M28.57,21.2c0-6.077-1.754-6.773-1.754-6.773a1.977,1.977,0,0,1-2.056.611,13.2,13.2,0,0,1-2.923-1.754,1.106,1.106,0,0,1-1.707,0,13.108,13.108,0,0,1-2.92,1.754,1.986,1.986,0,0,1-2.056-.611S13.4,15.122,13.4,21.2c0,5.748,6.809,11.165,7.549,11.734v.056l.035-.029.035.029v-.056c.737-.57,7.546-5.983,7.546-11.734Z" transform="translate(25.966 12.577)" fill="#a0cfeb"/>
  <path id="Path_40713" data-name="Path 40713" d="M18.1,25.675a8.735,8.735,0,0,0,.652-2.652V20.044s-.652-.326-.652-.693v-1.1L18.756,18v.734l.652-.247v-.652H19.9v.693l.573.123v-.611l.734.2v1.022s-.573.611-.573.775v2.978c0,.285.858,2.652.858,2.652Zm1.695-8.4a4.784,4.784,0,0,0-.632-1.428c-.449-.652-.3-1.874.69-1.877,1.842,0,.617,1.654.617,1.654s-.408-.834-.573-.593.429,1.184.162,1.712S19.8,17.271,19.8,17.271Zm-4.118.734a4.784,4.784,0,0,0-.632-1.428c-.449-.652-.3-1.874.69-1.877,1.842,0,.617,1.654.617,1.654s-.408-.834-.573-.59.429,1.184.162,1.712Zm8.174,0a4.784,4.784,0,0,0-.632-1.428c-.449-.652-.3-1.874.69-1.877,1.842,0,.617,1.654.617,1.654s-.408-.834-.573-.59.429,1.184.162,1.712Zm-9.561,7.481a5.846,5.846,0,0,0,.344-1.727V20.781s-.652-.326-.652-.693v-1.1l.652-.247v.734l.652-.247v-.652h.491v.693l.573.123v-.611l.734.2v1.022s-.573.611-.573.775V23.76c0,.288.858,2.652.858,2.652s-3.166-.646-3.078-.925Zm7.866.925a8.735,8.735,0,0,0,.652-2.652V20.781s-.652-.326-.652-.693v-1.1l.652-.247v.734l.652-.247v-.652h.491v.693l.573.123v-.611l.734.2v1.022s-.573.611-.573.775V23.76a15.635,15.635,0,0,0,.6,1.915c.144.417-3.125.74-3.125.74Z" transform="translate(27.098 13.896)" fill="#ccd6dd"/>
  <path id="Path_40714" data-name="Path 40714" d="M15.679,16.025h-.388v.652l-.652.247V16.19l-.652.247v1.1c0,.367.652.693.652.693v2.978a5.924,5.924,0,0,1-.344,1.727c-.041.132.646.347,1.386.535V16.022Zm4.092-.737h-.388v.652l-.652.247v-.734l-.652.247v1.1c0,.367.652.693.652.693v2.978a5.924,5.924,0,0,1-.344,1.727c-.041.132.649.347,1.386.535V15.285Zm4.183.858-.511-.123v.652l-.652.247v-.734l-.652.247v1.1c0,.367.652.693.652.693v2.978a5.941,5.941,0,0,1-.347,1.727c-.041.132.646.347,1.513.658V16.143Z" transform="translate(27.1 16.449)" fill="#99aab5"/>
  <path id="Path_40715" data-name="Path 40715" d="M22.34,18.533a3.354,3.354,0,0,0-2.57-1.1,2.935,2.935,0,0,0-2.45,1.143,4.372,4.372,0,0,0-3.266.244A26.674,26.674,0,0,0,19.685,24.9v.056l.035-.029.035.029V24.9a26.58,26.58,0,0,0,5.651-6.121,4.041,4.041,0,0,0-3.072-.247Z" transform="translate(27.229 20.609)" fill="#8bb273"/>
  <path id="Path_40716" data-name="Path 40716" d="M29.992,40c-1.154-1.889-2.191-4.039-5.005-5.346s-3.263-1.674-4.077-3.02A7.512,7.512,0,0,0,18.5,29.394a4.21,4.21,0,0,0-.491-2.08,3.545,3.545,0,0,1-.491-1.836s-.652.347-.491-.928a2.779,2.779,0,0,0-.652-2.13,3.024,3.024,0,0,0,.162-3.081,5.463,5.463,0,0,0,.529-3.61,3.816,3.816,0,0,0,0-3.3c-2.735,1.143-2.9,4.773-2.9,4.773l-1.551-2.244a2.431,2.431,0,0,0-.978,2.45,6.423,6.423,0,0,1,.247,1.939L10.421,18.1a2.564,2.564,0,0,0,.408,3.14,12.1,12.1,0,0,1,1.712,1.8s-.734-.408-.734.247a2.041,2.041,0,0,0,.162.937l-1.921-1.589s-.567,2.162.778,3.387a13.16,13.16,0,0,0,2.162,1.674,13.23,13.23,0,0,0-2.529-.552A4.158,4.158,0,0,0,12.3,29.405a12.27,12.27,0,0,0,2.285,1.022l-2.652.482s.652,1.889,2.2,1.889a10.839,10.839,0,0,0,3.02-.491A6.541,6.541,0,0,0,15.723,33.9a1.656,1.656,0,0,1-1.263.775,2.764,2.764,0,0,0,2.45.611c1.589-.285,1.8-2.45,3.754-1.754s5.466,1.959,6.609,3.713a24.984,24.984,0,0,1,1.8,2.773c.247.605,1.266.546.928-.006Z" transform="translate(19.239 10.909)" fill="#658d5c"/>
  <path id="Path_40717" data-name="Path 40717" d="M15.185,40c1.151-1.889,2.191-4.039,5.005-5.346s3.263-1.674,4.077-3.02a7.512,7.512,0,0,1,2.409-2.244,4.21,4.21,0,0,1,.491-2.08,3.517,3.517,0,0,0,.491-1.836s.652.347.491-.928a2.779,2.779,0,0,1,.652-2.13,3.024,3.024,0,0,1-.162-3.081,5.463,5.463,0,0,1-.529-3.61,3.816,3.816,0,0,1,0-3.3c2.735,1.143,2.9,4.773,2.9,4.773l1.551-2.244a2.431,2.431,0,0,1,.978,2.45,6.423,6.423,0,0,0-.247,1.939L34.756,18.1a2.564,2.564,0,0,1-.408,3.14,12.1,12.1,0,0,0-1.712,1.8s.734-.408.734.247a2.041,2.041,0,0,1-.162.937l1.918-1.589s.57,2.162-.778,3.387a13.16,13.16,0,0,1-2.162,1.674,13.23,13.23,0,0,1,2.529-.552,4.158,4.158,0,0,1-1.836,2.265,12.27,12.27,0,0,1-2.285,1.022l2.652.482s-.652,1.889-2.2,1.889a10.839,10.839,0,0,1-3.02-.491A6.541,6.541,0,0,1,29.451,33.9a1.656,1.656,0,0,0,1.263.775,2.764,2.764,0,0,1-2.45.611c-1.592-.288-1.8-2.45-3.754-1.754s-5.466,1.959-6.609,3.713a24.984,24.984,0,0,0-1.8,2.773c-.247.605-1.263.546-.928-.006Z" transform="translate(29.274 10.909)" fill="#658d5c"/>
  <path id="Path_40718" data-name="Path 40718" d="M18.112,20.631c-1.915.223-2.409,1.486-5.1.3-.123.611.858,1.551.858,1.551a8.33,8.33,0,0,1-2.162-.2c.367,1.51,2.08,2.08,3.51,1.959s2.326-1.184,3.98-.814,2.84.875,2.511-2.08c-1.107-1.187-3.6-.714-3.6-.714Zm12.4,0c1.915.223,2.409,1.486,5.1.3.123.611-.858,1.551-.858,1.551a8.33,8.33,0,0,0,2.162-.2c-.367,1.51-2.08,2.08-3.51,1.959s-2.326-1.184-3.98-.814-2.84.875-2.511-2.08c1.107-1.187,3.6-.714,3.6-.714Z" transform="translate(22.687 26.632)" fill="#e1e8ed"/>
  <path id="Path_40719" data-name="Path 40719" d="M27.079,20c-1.1-.488-3.51.734-6.324.734S15.532,19.511,14.431,20s-.9.652-.814,1.06.2,1.51.285,2.121.734,1.022,1.51.491a3.411,3.411,0,0,1,3.1-.367,7.5,7.5,0,0,0,2.177.382A8.047,8.047,0,0,0,23,23.306a3.411,3.411,0,0,1,3.1.367c.775.529,1.428.123,1.51-.491s.2-1.712.285-2.121.285-.57-.817-1.06Z" transform="translate(26.244 25.362)" fill="#f5f8fa"/>
  <path id="Path_40720" data-name="Path 40720" d="M24.254,20.318c0,.25-.5,1.254-5.1,1.254s-4.94-1-4.94-1.254.752.552,5.346.552,4.688-.8,4.688-.552Z" transform="translate(27.545 26.106)" fill="#99aab5"/>
</svg>
