<svg id="SPM" xmlns="http://www.w3.org/2000/svg" width="94" height="67.889" viewBox="0 0 94 67.889">
  <path id="Path_41351" data-name="Path 41351" d="M335.43,142.222h-58.1v67.889h58.1a10.445,10.445,0,0,0,10.444-10.444v-47A10.445,10.445,0,0,0,335.43,142.222Z" transform="translate(-251.875 -142.222)" fill="#0092c8"/>
  <path id="Path_41352" data-name="Path 41352" d="M377.514,234.783a27.542,27.542,0,0,0-6.609-1.225l-2.285,4.488s6.773.144,6.773.561a39.572,39.572,0,0,1-2.5,4.41,6.156,6.156,0,0,0-1.82-.238c-2.937,0-4.079.653-5.3,2.449s0,2.53,0,2.53-1.514,3.361-7.186,5.227l1.862-6.431a6.451,6.451,0,0,1,3.938.715s-1.387-4.079.326-10.2,8.074-10.7,8.074-10.7l-7.118,2.1,1.812-6.264s.9-1.958,0-2.53c-.585-.371-.888.423-1.034,1.031a4.189,4.189,0,0,0-2.883.193c-1.8.815-5.956-.363-5.956-.363a8.5,8.5,0,0,0,2.857,2.157,9.125,9.125,0,0,1-3.836.407s3.1,1.8,5.18,1.144a12.208,12.208,0,0,1,3.789-.447l-1.522,5.144-6.47,1.914s-2.938,2.366-3.917,9.3a18.512,18.512,0,0,0,2.53,12.076,5.416,5.416,0,0,1,2.439-5.008l-1.843,6.241a24.862,24.862,0,0,1-2.517.462c-.021-.05-3.381-7.59-2.812-13.935.572-6.366,6.12-12.868,6.12-12.868l-7.261,2.64,2.554-8.867s1.606-1.06.219-1.713S352,220.634,352,220.634a4.134,4.134,0,0,0-2.528.277c-1.8.815-5.956-.363-5.956-.363a8.5,8.5,0,0,0,2.857,2.157,9.125,9.125,0,0,1-3.836.407s3.1,1.8,5.18,1.144a10.637,10.637,0,0,1,3.24-.475l-2.167,6.559-6.606,2.4a57.95,57.95,0,0,0-3.509,6.366c-2.366,4.731.979,11.5.979,11.5a5.079,5.079,0,0,1,3.076-1.927l-1.266,3.838c-5.241-2.407-6.376-6.559-6.376-6.559a1.129,1.129,0,0,0,.9-1.141c0-.943-.4-1.426-3.12-1.462l.658-2.35a8.631,8.631,0,0,1,2.055,1.773A12.322,12.322,0,0,1,336.8,234.3c2.366-4.243,7.914-7.914,8.16-7.914.131,0-4.055,1.191-7.977,2.3l1.637-5.838s1.2-1.763-.107-2.17-1.094,1.843-1.094,1.843a4.078,4.078,0,0,0-2.227.324c-1.8.815-5.956-.363-5.956-.363a8.5,8.5,0,0,0,2.857,2.157,9.125,9.125,0,0,1-3.836.407s3.1,1.8,5.18,1.144a10.776,10.776,0,0,1,3.058-.47l-.977,3.376-5.167,1.454a24.83,24.83,0,0,0-2.285,5.549,8.9,8.9,0,0,0,.9,7.1s.653-2.773,2.692-2.773a3.012,3.012,0,0,1,.572.076l-.836,2.9c-1.953.141-2.264.676-2.264,1.509,0,.979,1.06,1.06,1.06,1.06a9.688,9.688,0,0,0,.407,3.836c.653,2.12-.815,1.713-3.264.491a4.737,4.737,0,0,0-.48-.18l.016-.016-6.144-2.747s-1.306-1.877-1.958-.572,1.467,1.606,1.467,1.606l3.52,1.776c-.687.358-1.029.932-.663,1.514.815,1.306,2.611,0,6.282,3.59a45.494,45.494,0,0,0,7.9,6.63c.708.452,34.66-1.031,34.42-1.642-.593-1.5-1.877-4.206-3.64-4.9a12.126,12.126,0,0,0,4.162-7.588s1.06,0,1.958-1.8a1.913,1.913,0,0,0-.115-2.266c1.248-2.423,4.316-8.369,5.092-9.726.982-1.715,0-2.53-1.629.815ZM350.1,254.2a22.517,22.517,0,0,1-6.538-.89l1.337-4.632a7.4,7.4,0,0,1,.8.138c4.149,1.138,8.577,5.1,8.6,5.123A32.487,32.487,0,0,1,350.1,254.2Z" transform="translate(-289.389 -212.017)" fill="#ffcc4d"/>
  <path id="Path_41353" data-name="Path 41353" d="M348.908,643.056c-2.039-1.467-3.917-.979-4.324.444s-2.285.781-4.324-.689-3.426-1.225-3.836.407-2.692,1.467-4.815-.081a3.536,3.536,0,0,0-5.06.757c-.815,1.165-1.467,1.282-4.089-.35s-4.478-.653-5.212.734-1.8,1.06-4-.444a4.212,4.212,0,0,0-5.3,0c-1.06.943-2.53,1.259-4.488,0s-3.509-1.188-4.488-.177-2.12,2.5-5.222.094-4.731-.371-6.282.692-3.021-1.629-3.021-1.629v1.713s1.467,2.692,3.018,1.632,3.183-3.1,6.282-.692,4.243.917,5.222-.094,2.53-1.081,4.488.178,3.426.943,4.488,0a4.212,4.212,0,0,1,5.3,0c2.2,1.5,3.264,1.83,4,.444s2.59-2.366,5.212-.734,3.274,1.514,4.089.35a3.535,3.535,0,0,1,5.06-.757c2.12,1.551,4.408,1.713,4.815.081s1.8-1.877,3.836-.407,3.917,2.112,4.324.689,2.285-1.911,4.324-.444,3.428.815,3.428.815v-1.713s-1.387.653-3.426-.817Z" transform="translate(-258.334 -595.975)"/>
  <path id="Path_41354" data-name="Path 41354" d="M348.908,661.744c-2.039-1.467-3.917-.979-4.324.444s-2.285.781-4.324-.689-3.426-1.225-3.836.407-2.692,1.467-4.815-.081a3.536,3.536,0,0,0-5.06.757c-.815,1.164-1.467,1.282-4.089-.35s-4.478-.653-5.212.734-1.8,1.06-4-.444a4.212,4.212,0,0,0-5.3,0c-1.06.943-2.53,1.259-4.488,0s-3.509-1.188-4.488-.177-2.12,2.5-5.222.094-4.731-.371-6.282.692-3.021-1.632-3.021-1.632v1.632s1.467,2.692,3.018,1.632,3.183-3.1,6.282-.692,4.243.917,5.222-.094,2.53-1.081,4.488.177,3.426.943,4.488,0a4.212,4.212,0,0,1,5.3,0c2.2,1.5,3.264,1.83,4,.444s2.59-2.366,5.212-.734,3.274,1.514,4.089.35a3.535,3.535,0,0,1,5.06-.757c2.12,1.551,4.408,1.713,4.815.081s1.8-1.877,3.836-.407,3.917,2.112,4.324.689,2.285-1.911,4.324-.444,3.428.815,3.428.815v-1.632s-1.387.653-3.426-.815ZM290.075,667.7c1.384-1.569,3.509-1.387,5.141,0s2.366.337,3.917-.567,3.752-.958,4.243.334-2.039-.467-3.59.9a4.246,4.246,0,0,1-5.875,0c-1.812-1.776-5.06.715-3.836-.671Zm18.2.313a6.129,6.129,0,0,0,5.3-.478c1.794-1.144,3.1-.608,5.06.961s3.426,1.042,5.222,0,3.264-2.347,5.794-1.206,3.755,1.258,4.731.875,0,1.329-2.449.919-4.162-1.958-6.366-.491-5.06,2.841-7.342.89-3.509-1.682-4.9-.836a4.263,4.263,0,0,1-3.755.517c-.815-.4-2.5-1.559-1.3-1.152Zm31.414,0a2.468,2.468,0,0,0,2.938,0c.979-.721,1.958-.136,3.183.551s1.467,1.457,0,.99-2.039-1.507-3.183-.864-2.366.825-2.937,0S338.978,667.585,339.686,668.013Zm-42.023,3.849c1.342-.71,3.509-1.713,5.058,0s2.285.815,3.509,0,2.285-1.8,4.162-.572,2.773.888,3.509.483,1.386-.157,0,.658a3.3,3.3,0,0,1-3.836-.081c-1.06-.815-1.958-1.225-3.345.162s-3.183,1.8-4.488.494-1.713-1.415-3.018-.749-2.893.316-1.551-.394Zm24.97.394c1.642-.867,3.836-2.353,5.63-.64s2.857.909,4.324-.076,2.857-2.407,4.977-.715,3.509,1.528,4.569,1.037.572.449-.734.755a4.976,4.976,0,0,1-4.324-.755c-1.225-1.06-2.366-1.005-3.671.394s-4.569,1.791-5.794.535-2.773-.522-3.917-.034-2.7.366-1.06-.5Zm-34.271,1.3c.974-.9,2.285-.548,3.917,1.084s2.366,1.306,3.836.491,3.426-.979,4.243-.081.491,1.183-.491.755a2.631,2.631,0,0,0-3.246.47c-1.324,1.144-3.692,1.387-4.833,0s-1.8-2.2-2.692-1.877-2.039.36-.734-.841Zm22.6,1.59a3.1,3.1,0,0,1,4.731,0c1.877,1.859,2.2,1.614,3.671.634s3.183-2.1,4.977-.439,2.53,1.337,4.079.439,2.937-1.692,4.65-.439,3.018,1.58,4.488.684,1.791-.5.407.653a3.526,3.526,0,0,1-4.65-.081c-1.8-1.736-2.937-1.225-4.408-.162s-3.755,1.306-5.06-.081-2.2-.979-3.426,0-3.329,1.979-4.815-.081a2.4,2.4,0,0,0-3.671-.734c-.729.4-2.36,1.094-.974-.394Z" transform="translate(-258.334 -612.948)" fill="#bbddf5"/>
  <path id="Path_41355" data-name="Path 41355" d="M0,625.778v13.055a10.445,10.445,0,0,0,10.444,10.444H26.111v-23.5H0Z" transform="translate(0 -581.389)" fill="#ca0000"/>
  <path id="Path_41356" data-name="Path 41356" d="M49.106,654.289c-1.06.407-2.039.285-3.345-1.206a2.776,2.776,0,0,0-.851-.65,16.041,16.041,0,0,0,2.115.509,4.63,4.63,0,0,0,2.692-.857,6.7,6.7,0,0,0-2.243-.937c-1.334-.368-3.572-.094-4.35.961-.632.036-1.238.164-1.729.224a4.479,4.479,0,0,1-1.836-.285,2.268,2.268,0,0,0-2.449-2,1.9,1.9,0,0,0-2.039,1.836s-1.021.491-1.021-.948-1.144-1.358-2.141-1.358-1.245-.06-1.245,1.245.734,1.06,1.183,1.468a2.634,2.634,0,0,0,3.141,1.958,2.762,2.762,0,0,1,.162.776,2.8,2.8,0,0,1-1.264-.042c-1.157-.264-2-.407-2,1.183s1.674,1.144,4.039,1.144,2.488-1.467,2.488-1.467a7.755,7.755,0,0,1,2.407-.245c-.326.285-.141.977.162,1.306.634.684,1.8.407,2.692.407s1.306-.695,1.1-1.632c.856.611,3.222-.53,2.937,0s.407,1.836,2.2,1.1.248-2.9-.812-2.491Z" transform="translate(-27.849 -603.004)" fill="#ffcc4d"/>
  <path id="Path_41357" data-name="Path 41357" d="M89.062,682.105a.755.755,0,1,1-.755-.775A.765.765,0,0,1,89.062,682.105Z" transform="translate(-79.516 -631.842)"/>
  <path id="Path_41358" data-name="Path 41358" d="M84.251,670.555c0,.191-.261.347-.582.347s-.582-.154-.582-.347.261-.347.582-.347S84.251,670.365,84.251,670.555Z" transform="translate(-75.459 -621.741)"/>
  <path id="Path_41359" data-name="Path 41359" d="M98.815,670.555c0,.192-.261.347-.582.347s-.582-.156-.582-.347.261-.347.582-.347S98.815,670.364,98.815,670.555Z" transform="translate(-88.686 -621.741)"/>
  <path id="Path_41360" data-name="Path 41360" d="M49.106,754.271c-1.06.407-2.039.285-3.345-1.206a2.775,2.775,0,0,0-.851-.65,15.627,15.627,0,0,0,2.115.509,4.631,4.631,0,0,0,2.692-.856,6.7,6.7,0,0,0-2.243-.937c-1.334-.368-3.569-.091-4.35.961-.632.037-1.238.165-1.729.224a4.48,4.48,0,0,1-1.836-.284,2.268,2.268,0,0,0-2.449-2,1.9,1.9,0,0,0-2.039,1.836s-1.021.491-1.021-.948-1.144-1.358-2.141-1.358-1.245-.06-1.245,1.246.734,1.06,1.183,1.467a2.634,2.634,0,0,0,3.141,1.958,2.762,2.762,0,0,1,.162.775,2.8,2.8,0,0,1-1.264-.042c-1.157-.264-2-.407-2,1.183s1.674,1.144,4.039,1.144,2.488-1.468,2.488-1.468a7.754,7.754,0,0,1,2.407-.245c-.326.285-.141.977.162,1.305.634.684,1.8.407,2.692.407s1.306-.695,1.1-1.632c.856.611,3.222-.53,2.937,0s.407,1.836,2.2,1.1.248-2.9-.812-2.491Z" transform="translate(-27.849 -693.808)" fill="#ffcc4d"/>
  <path id="Path_41361" data-name="Path 41361" d="M85.005,772.015a.755.755,0,1,1-.755-.776A.765.765,0,0,1,85.005,772.015Zm-.755-1.449c0,.191-.261.347-.582.347s-.582-.157-.582-.347.261-.347.582-.347S84.251,770.376,84.251,770.566Zm1.337,0c0,.191-.261.347-.582.347s-.582-.157-.582-.347.261-.347.582-.347S85.587,770.376,85.587,770.566Z" transform="translate(-75.459 -712.571)"/>
  <path id="Path_41362" data-name="Path 41362" d="M0,398.222H26.111v20.889H0Z" transform="translate(0 -374.722)" fill="#eee"/>
  <path id="Path_41363" data-name="Path 41363" d="M5.428,406.888l-.726-1.1c-.029-.906-.165-1.611-.337-1.611s-.308.7-.337,1.611l-.726,1.1c-.162.248-.029.452.3.452h.5c.063.4.154.671.258.671s.2-.269.259-.671h.5C5.457,407.343,5.59,407.139,5.428,406.888Zm-.715-3.836c0,.619-.157.559-.347.559s-.347.06-.347-.559.157-1.118.347-1.118S4.713,402.436,4.713,403.053Zm.507,1.253c-.619,0-.559-.157-.559-.347s-.06-.347.559-.347,1.118.154,1.118.347-.5.347-1.118.347Zm-1.705,0c.619,0,.559-.157.559-.347s.06-.347-.559-.347-1.118.154-1.118.347.5.347,1.118.347Zm10.123,2.582-.726-1.1c-.029-.906-.165-1.611-.337-1.611s-.308.7-.337,1.611l-.723,1.1c-.162.248-.029.452.3.452h.5c.063.4.154.671.258.671s.2-.269.259-.671h.5c.334,0,.467-.2.305-.452Zm-.715-3.836c0,.619-.157.559-.347.559s-.347.06-.347-.559.157-1.118.347-1.118S12.922,402.436,12.922,403.053Zm.507,1.253c-.619,0-.559-.157-.559-.347s-.06-.347.559-.347,1.118.154,1.118.347S14.045,404.306,13.429,404.306Zm-1.705,0c.619,0,.559-.157.559-.347s.06-.347-.559-.347-1.118.154-1.118.347S11.108,404.306,11.724,404.306Zm10.316,2.582-.726-1.1c-.029-.906-.165-1.611-.337-1.611s-.308.7-.337,1.611l-.726,1.1c-.162.248-.029.452.3.452h.5c.063.4.154.671.258.671s.2-.269.259-.671h.5c.339,0,.473-.2.308-.452Zm-.713-3.836c0,.619-.157.559-.347.559s-.347.06-.347-.559.157-1.118.347-1.118S21.328,402.436,21.328,403.053Zm.5,1.253c-.619,0-.559-.157-.559-.347s-.06-.347.559-.347,1.118.154,1.118.347S22.45,404.306,21.831,404.306Zm-1.7,0c.619,0,.559-.157.559-.347s.06-.347-.559-.347-1.118.154-1.118.347S19.513,404.306,20.129,404.306Zm-4.5-4.261c-.162.248-.029.452.3.452h.5c.063.4.154.671.259.671s.2-.269.258-.671h.5c.332,0,.465-.2.3-.452l-.723-1.1c-.008-.266-.029-.5-.055-.723h-.564c-.026.219-.044.457-.052.723l-.726,1.1Zm-8.2,0c-.162.248-.029.452.3.452h.5c.063.4.154.671.258.671s.2-.269.259-.671h.5c.332,0,.465-.2.3-.452l-.726-1.1c-.005-.266-.026-.5-.05-.723H8.2c-.026.219-.044.457-.052.723l-.726,1.1ZM.919,409.784c0,.619-.157.559-.347.559s-.347.06-.347-.559.157-1.118.347-1.118S.919,409.168.919,409.784Zm.5,1.253c-.619,0-.559-.157-.559-.347s-.06-.347.559-.347,1.118.154,1.118.347-.5.347-1.118.347ZM.572,401.17c.1,0,.2-.269.258-.671h.5c.332,0,.465-.2.3-.452l-.726-1.1c-.008-.269-.029-.507-.055-.726H.29c-.026.219-.044.457-.052.723l-.238.36V400.5H.313c.065.4.154.671.258.671Zm0,13.575c.1,0,.2-.269.258-.674h.5c.332,0,.465-.2.3-.452l-.726-1.1c-.026-.909-.164-1.611-.337-1.611s-.308.7-.337,1.611l-.235.36v1.191H.313C.376,414.476.467,414.745.572,414.745ZM.279,410.69c0-.154.023-.279-.279-.324v.65C.3,410.969.279,410.844.279,410.69Zm9.309,2.932-.726-1.1c-.026-.909-.164-1.611-.337-1.611s-.308.7-.337,1.611l-.721,1.1c-.162.248-.029.452.3.452h.5c.063.4.154.674.259.674s.2-.269.259-.674h.5c.334,0,.467-.206.3-.452Zm-.713-3.838c0,.619-.157.559-.347.559s-.347.06-.347-.559.157-1.118.347-1.118S8.875,409.168,8.875,409.784Zm.5,1.253c-.619,0-.559-.157-.559-.347s-.06-.347.559-.347,1.118.154,1.118.347S10,411.037,9.379,411.037Zm-1.7,0c.619,0,.559-.157.559-.347s.06-.347-.559-.347-1.118.154-1.118.347S7.06,411.037,7.677,411.037Zm10.155,2.585-.726-1.1c-.026-.909-.164-1.611-.337-1.611s-.308.7-.337,1.611l-.726,1.1c-.162.248-.029.452.3.452h.5c.063.4.154.674.258.674s.2-.269.258-.674h.5c.337,0,.47-.206.308-.452Zm-.715-3.838c0,.619-.157.559-.347.559s-.347.06-.347-.559.157-1.118.347-1.118S17.116,409.168,17.116,409.784Zm.507,1.253c-.619,0-.559-.157-.559-.347s-.06-.347.559-.347,1.118.154,1.118.347S18.239,411.037,17.622,411.037Zm-1.705,0c.619,0,.559-.157.559-.347s.06-.347-.559-.347-1.118.154-1.118.347S15.3,411.037,15.917,411.037Zm9.658-1.253c0,.619-.157.559-.347.559s-.345.063-.345-.559.154-1.118.347-1.118S25.576,409.168,25.576,409.784Zm-1.543-9.739c-.162.248-.029.452.3.452h.5c.063.4.154.671.259.671s.2-.269.258-.671h.5a.388.388,0,0,0,.261-.1v-.413l-.684-1.037c-.008-.266-.026-.5-.052-.723h-.564c-.026.219-.044.457-.052.723l-.726,1.1Zm1.2,10.865c-.172,0-.308.7-.337,1.611l-.726,1.1c-.162.248-.029.452.3.452h.5c.063.4.154.674.259.674s.2-.269.258-.674h.5c.06,0,.076-.037.123-.047v-.676l-.546-.825c-.024-.909-.162-1.614-.332-1.614Zm.292-.219c0,.191-.06.347.559.347l.029,0v-.689l-.029,0c-.621,0-.559.157-.559.347Zm-1.146.347c.619,0,.559-.157.559-.347s.06-.347-.559-.347-1.118.154-1.118.347S23.761,411.037,24.377,411.037Zm-3.661,8.074h.621c-.05-.708-.167-1.225-.311-1.225s-.261.517-.311,1.225Zm.658-2.35c0,.621-.157.561-.347.561s-.347.06-.347-.561.157-1.118.347-1.118S21.375,416.142,21.375,416.761Zm.5,1.253c-.619,0-.559-.157-.559-.347s-.06-.347.559-.347,1.118.154,1.118.347S22.5,418.014,21.878,418.014Zm-1.7,0c.619,0,.559-.157.559-.347s.06-.347-.559-.347-1.118.154-1.118.347S19.56,418.014,20.176,418.014Zm-7.165-1.253c0,.621-.157.561-.347.561s-.347.06-.347-.561.157-1.118.347-1.118S13.011,416.142,13.011,416.761Zm.5,1.253c-.619,0-.559-.157-.559-.347s-.06-.347.559-.347,1.118.154,1.118.347S14.134,418.014,13.515,418.014Zm-1.7,0c.619,0,.559-.157.559-.347s.06-.347-.559-.347-1.118.154-1.118.347S11.2,418.014,11.813,418.014Zm.54,1.1h.621c-.05-.708-.167-1.225-.311-1.225s-.261.517-.311,1.225Zm-8.395,0H4.58c-.05-.708-.167-1.225-.311-1.225s-.261.517-.311,1.225Zm.658-2.35c0,.621-.157.561-.347.561s-.347.06-.347-.561.157-1.118.347-1.118S4.616,416.142,4.616,416.761Zm.5,1.253c-.619,0-.559-.157-.559-.347s-.06-.347.559-.347,1.118.154,1.118.347-.5.347-1.118.347Zm-1.7,0c.619,0,.559-.157.559-.347s.06-.347-.559-.347-1.118.154-1.118.347S2.8,418.014,3.418,418.014Z" transform="translate(0 -374.722)" fill="#292f33"/>
  <path id="Path_41364" data-name="Path 41364" d="M0,165.722V152.666a10.445,10.445,0,0,1,10.444-10.444l2.611,2.611,2.611-2.611H26.111v23.5H15.667l-2.611-2.611-2.611,2.611Z" transform="translate(0 -142.222)" fill="#dc241f"/>
  <path id="Path_41365" data-name="Path 41365" d="M26.112,146.113v-3.891h-1.48l-8.964,8.068-2.611,2.324-2.611-2.324-6.473-5.82a10.515,10.515,0,0,0-2.546,2.924l.008.008,5.789,5.212,3.212,2.637-3.212,2.637L0,164.39v1.332H4.322l6.123-5.509,2.611-2.324,2.611,2.324,6.123,5.509h4.321V164.39l-7.222-6.5-3.23-2.637,3.23-2.637,7.222-6.5Z" transform="translate(-0.001 -142.222)" fill="#009543"/>
  <path id="Path_41366" data-name="Path 41366" d="M15.668,152.613v-10.39H10.445v10.39H0l0,.055v5.222H10.445v7.833h5.222V157.89H26.112v-5.277H15.668Z" transform="translate(-0.001 -142.223)" fill="#eee"/>
</svg>
