<svg id="SRB" xmlns="http://www.w3.org/2000/svg" width="93.999" height="67.886" viewBox="0 0 93.999 67.886">
  <path id="Path_40614" data-name="Path 40614" d="M0,11.556H93.993V37.665H0Z" transform="translate(0.003 9.334)" fill="#0c4076"/>
  <path id="Path_40615" data-name="Path 40615" d="M0,30.889A10.445,10.445,0,0,0,10.445,41.334H83.551A10.445,10.445,0,0,0,94,30.889V20.444H0V30.889Z" transform="translate(0.003 26.552)" fill="#eee"/>
  <path id="Path_40616" data-name="Path 40616" d="M93.995,14.889A10.445,10.445,0,0,0,83.55,4.444H10.444A10.445,10.445,0,0,0,0,14.889V25.334H93.992V14.889ZM18.278,25.334v24.8a14.36,14.36,0,0,0,28.721,0v-24.8Z" transform="translate(0.001 -4.444)" fill="#c6363c"/>
  <path id="Path_40617" data-name="Path 40617" d="M19.539,6.277c-10.28,0-13.5,4.365-12.648,6s3.425,5.833,3.425,5.833-.814.326,0,1.959,4,.529,9.22.529,8.4,1.1,9.22-.529,0-1.959,0-1.959,2.57-4.2,3.428-5.833-2.362-6-12.645-6Zm-8.976,7.751c-.74.229,0,2.488-.261,1.513-.214-.808-1.046-1.143-1.046-.693s-.326,0-.247-.814a2.644,2.644,0,0,0-.652-2c-.491-.7-.488-1.3.126-1.715a8.156,8.156,0,0,1,1.959-.734,22.28,22.28,0,0,0,.814,2.855,2.794,2.794,0,0,0,.814.878s-.247.388,0,.59a3.226,3.226,0,0,1,.529.693s-.9-.734-1.057-.573.2.367.162.652-.491-.858-1.143-.652Zm8.324.044c-.2.2-.367-.164-.775-.449s-.652-.12-.573.206-.491.285-.491.775-.529.285-.529.285.652-1.712-.449-1.674c-.623.023-.408,1.3,0,1.754-.179-.273-.693-.285-1.122-.611s.059-.858-.267-.737-.529.652-.858.775-.162-.37,0-.775a.485.485,0,0,0-.188-.611.662.662,0,0,1,.27-.449c.247-.162.326-.449,0-.775S12.4,9.623,12.766,9.009s1.589-1.3,5.017-1.225c.611,2.814-.326,4.2-.326,4.2a6.108,6.108,0,0,1,.9.693c-.491.206-.123.411.2.693s.529.491.326.693Zm6.365-.449c.162.408.326.9,0,.775s-.529-.652-.858-.775.162.411-.267.737-.94.338-1.122.611c.408-.449.623-1.73,0-1.754-1.1-.041-.449,1.674-.449,1.674s-.529.2-.529-.285-.573-.449-.491-.775-.162-.491-.573-.206-.573.652-.775.449,0-.408.326-.693.7-.488.206-.693a5.759,5.759,0,0,1,.9-.693s-.937-1.386-.326-4.2c3.425-.082,4.65.611,5.017,1.225s-.814,2.45-1.143,2.773-.247.611,0,.775a.644.644,0,0,1,.27.449.482.482,0,0,0-.188.611Zm5.463-1.592a2.64,2.64,0,0,0-.652,2c.082.817-.247,1.263-.247.814s-.831-.109-1.046.693c-.261.975.479-1.281-.261-1.513-.652-.2-1.51,1.754-1.3,1.551s.491-1.386.326-1.551-1.06.573-1.06.573A3.335,3.335,0,0,1,27,13.905c.247-.2,0-.59,0-.59a2.755,2.755,0,0,0,.814-.878,22.28,22.28,0,0,0,.814-2.855,8.156,8.156,0,0,1,1.959.734c.611.408.617,1.022.126,1.715Z" transform="translate(13.1 -0.893)" fill="#edb92e"/>
  <path id="Path_40618" data-name="Path 40618" d="M11.828,9.465a.47.47,0,0,1-.94,0V5.344a.47.47,0,1,1,.94,0Z" transform="translate(21.096 -3.611)" fill="#ffac33"/>
  <path id="Path_40619" data-name="Path 40619" d="M13.438,5.693a.427.427,0,0,1-.429.429H10.971a.429.429,0,1,1,0-.858h2.038A.427.427,0,0,1,13.438,5.693Z" transform="translate(20.426 -2.855)" fill="#edb92e"/>
  <path id="Path_40620" data-name="Path 40620" d="M18.748,7.313a1.571,1.571,0,1,1-1.571-1.571A1.571,1.571,0,0,1,18.748,7.313ZM9.839,20.928c0,.385-.441.693-.987.693s-.987-.311-.987-.693.441-.693.987-.693S9.839,20.543,9.839,20.928Z" transform="translate(15.24 -1.929)" fill="#0c4076"/>
  <path id="Path_40621" data-name="Path 40621" d="M11.191,11.288c0,.385-.441.693-.987.693s-.987-.311-.987-.693.441-.693.987-.693S11.191,10.906,11.191,11.288Zm8.812,0c0,.385-.441.693-.987.693s-.987-.311-.987-.693.441-.693.987-.693S20,10.906,20,11.288Z" transform="translate(17.859 7.472)" fill="#c6363c"/>
  <path id="Path_40622" data-name="Path 40622" d="M21.181,11.559c0,.385-.441.693-.987.693s-.987-.311-.987-.693.441-.693.987-.693S21.181,11.174,21.181,11.559Zm-8.495-.288c0,.385-.441.693-.987.693s-.987-.311-.987-.693.441-.693.987-.693S12.687,10.886,12.687,11.271Z" transform="translate(20.757 7.439)" fill="#0c4076"/>
  <path id="Path_40623" data-name="Path 40623" d="M11.683,20.059c-.893,2.027-.987,3.022-2.044,2.952s-1.806-.25-1.806.176,1.683.247,1.683.247-1.589.679-1.278,1.46,1.683-1,1.683-1,.279.07.811-.358a20.682,20.682,0,0,0,1.933-2.488l-.981-1Zm11.52,0c.893,2.027.987,3.022,2.044,2.952s1.806-.25,1.806.176-1.68.247-1.68.247,1.589.679,1.278,1.46-1.683-1-1.683-1-.279.07-.811-.358a20.682,20.682,0,0,1-1.933-2.488l.978-1Z" transform="translate(15.176 25.795)" fill="#edb92e"/>
  <path id="Path_40624" data-name="Path 40624" d="M31.375,18.044c-.458-3.155-3.428-2.174-4.688,0S24.337,21.525,23.171,20s-1.939-3.155-.25-5.222l1.686-2.068c-.241-1.251-1.251-.978-2.7-.382s-2.362.326-2.218.978a.84.84,0,0,0,.673.708s-.911.887-1.151,3.951c-.241-3.064-1.151-3.951-1.151-3.951a.837.837,0,0,0,.673-.708c.144-.652-.77-.382-2.218-.978s-2.456-.869-2.7.382l1.686,2.068c1.686,2.068.916,3.7-.25,5.222s-2.256.382-3.516-1.8-4.233-3.155-4.688,0a47.955,47.955,0,0,0,.073,8.647A20.328,20.328,0,0,0,7.418,32.4c.576,2.555.916,4.841,0,6.8,1.01-.27,1.636-1.577,1.636-1.577s-.338,1.577.291,1.416.77-1.36,1.251-1.8a4.706,4.706,0,0,0,.869-1.413s1.013-.382,0,1.3a1.839,1.839,0,0,0,1.351-.491l.288,1.524.482-.814.241,1.469.866-1.416.57.652s.106-2.773.878-2.229.817,2.338.291,3.425,0,1.524,0,1.524-.77,1.143-1.163,1.8a1.381,1.381,0,0,0,.2,1.413s-1.492,2.229-1.078,3.1c.4.834,2.89,1.369,4.711,1.407l.015.009.1,0,.1,0,.015-.009c1.821-.038,4.309-.573,4.711-1.407.417-.869-1.078-3.1-1.078-3.1a1.381,1.381,0,0,0,.2-1.413c-.394-.652-1.166-1.8-1.166-1.8s.529-.438,0-1.524-.482-2.881.291-3.425.875,2.229.875,2.229l.57-.652.866,1.416.241-1.469.482.814.288-1.524a1.845,1.845,0,0,0,1.351.491c-1.013-1.686,0-1.3,0-1.3a4.74,4.74,0,0,0,.866,1.416c.479.438.626,1.633,1.254,1.8s.291-1.416.291-1.416A3.212,3.212,0,0,0,31.022,39.2c-.913-1.959-.576-4.244,0-6.8a20.6,20.6,0,0,0,.291-5.549,49.478,49.478,0,0,0,.079-8.812Z" transform="translate(13.31 9.863)" fill="#fff"/>
  <path id="Path_40625" data-name="Path 40625" d="M15.237,14.269c-1.148-1.1-4.015-2.529-4.967-2.326s-1.712.858-1,1.88,1,.978,1,.978,1.131-1.022,1.621-.449.082.775-.814.858a3.266,3.266,0,0,1-1.809-.529,1.75,1.75,0,0,0,1.539,1.184c.837.814,1.895.2,2.429.2s3.02-.814,2-1.8Zm2.952,0c1.148-1.1,4.015-2.529,4.967-2.326s1.712.858,1,1.877-1,.978-1,.978-1.131-1.022-1.621-.449-.082.775.814.858a3.266,3.266,0,0,0,1.809-.529,1.75,1.75,0,0,1-1.539,1.184c-.837.817-1.895.206-2.429.206s-3.02-.814-2-1.8ZM10.217,42.693c.358-.825.106-.943-.179-1.231a2.223,2.223,0,0,1-.435-.684,2.1,2.1,0,0,1-.435.684c-.291.285-.54.4-.182,1.231-.869-.514-1.013.429-.614,1,.112-.514.8-.4.8.229s-.567.341-.5.6.587.8.928.8.861-.54.928-.8-.5.029-.5-.6.681-.743.8-.229c.4-.573.258-1.516-.614-1Zm14.2,0c.358-.825.106-.943-.182-1.231a2.16,2.16,0,0,1-.435-.684,2.1,2.1,0,0,1-.435.684c-.291.285-.54.4-.182,1.231-.869-.514-1.013.429-.614,1,.112-.514.8-.4.8.229s-.567.341-.5.6.587.8.928.8.861-.54.928-.8-.5.029-.5-.6.681-.743.8-.229c.4-.573.258-1.516-.614-1Z" transform="translate(15.813 10.046)" fill="#edb92e"/>
  <path id="Path_40626" data-name="Path 40626" d="M9.106,15V25.075a5.833,5.833,0,0,0,11.667,0V15Z" transform="translate(17.644 16.006)" fill="#c6363c"/>
  <path id="Path_40627" data-name="Path 40627" d="M20.768,21H16.195V15H13.683v6H9.107v2.514h4.576v7.255a5.562,5.562,0,0,0,2.514,0V23.512h4.576V21Z" transform="translate(17.646 16.006)" fill="#eee"/>
</svg>
