<svg id="SSD" xmlns="http://www.w3.org/2000/svg" width="93.999" height="67.886" viewBox="0 0 93.999 67.886">
  <path id="Path_40733" data-name="Path 40733" d="M83.55,4.444H10.444A10.445,10.445,0,0,0,0,14.889v7.834H93.992V14.889A10.445,10.445,0,0,0,83.547,4.444Z" transform="translate(0.001 -4.444)" fill="#141414"/>
  <path id="Path_40734" data-name="Path 40734" d="M0,29.167A10.445,10.445,0,0,0,10.445,39.612H83.551A10.445,10.445,0,0,0,94,29.167V21.333H0v7.834Z" transform="translate(0.003 28.275)" fill="#078930"/>
  <path id="Path_40735" data-name="Path 40735" d="M0,10.667H93.993V42H0Z" transform="translate(0.003 7.612)" fill="#da121a"/>
  <path id="Path_40736" data-name="Path 40736" d="M0,10.667H93.993v5.222H0ZM0,36.776H93.993V42H0Z" transform="translate(0.003 7.612)" fill="#eee"/>
  <path id="Path_40737" data-name="Path 40737" d="M3.528,5.337h0A10.868,10.868,0,0,0,0,13.855v47a10.123,10.123,0,0,0,3.528,7.126l42.165-31.32L3.528,5.337Z" transform="translate(0.003 -2.714)" fill="#0f47af"/>
  <path id="Path_40738" data-name="Path 40738" d="M17.233,22.739l4.641-6.386-7.508,2.438L9.729,12.409V20.3L2.221,22.739l7.508,2.438v7.89l4.638-6.383,7.508,2.438Z" transform="translate(4.306 10.986)" fill="#fcdd09"/>
</svg>
