<svg id="STP" xmlns="http://www.w3.org/2000/svg" width="93.996" height="67.886" viewBox="0 0 93.996 67.886">
  <path id="Path_40739" data-name="Path 40739" d="M83.55,4.444H10.444A10.445,10.445,0,0,0,0,14.889v47A10.445,10.445,0,0,0,10.444,72.33H83.55A10.445,10.445,0,0,0,93.995,61.885v-47A10.445,10.445,0,0,0,83.55,4.444Z" transform="translate(0.001 -4.444)" fill="#12ad2b"/>
  <path id="Path_40740" data-name="Path 40740" d="M7.265,12H79.919V35.5H7.265Z" transform="translate(14.077 10.194)" fill="#ffce00"/>
  <path id="Path_40741" data-name="Path 40741" d="M3,5.507A10.4,10.4,0,0,0,0,12.83v47a10.4,10.4,0,0,0,3,7.323l29.64-30.821L3,5.507Z" transform="translate(0.003 -2.385)" fill="#d21034"/>
  <path id="Path_40742" data-name="Path 40742" d="M17.732,26.709l4.241-3.084,4.241,3.084L24.6,21.722l4.241-3.084H23.595l-1.618-4.985-1.621,4.985H15.112l4.241,3.084Zm24.8,0,4.241-3.084,4.241,3.084L49.4,21.722l4.241-3.084H48.4l-1.618-4.985-1.621,4.985H39.914l4.241,3.084Z" transform="translate(29.279 13.396)"/>
</svg>
