<svg id="SUR" xmlns="http://www.w3.org/2000/svg" width="93.999" height="67.886" viewBox="0 0 93.999 67.886">
  <path id="Path_40727" data-name="Path 40727" d="M0,25.722A10.445,10.445,0,0,0,10.445,36.167H83.551A10.445,10.445,0,0,0,94,25.722V23.111H0v2.611Z" transform="translate(0.003 31.719)" fill="#377e3f"/>
  <path id="Path_40728" data-name="Path 40728" d="M0,20.444H93.993v7.834H0Z" transform="translate(0.003 26.552)" fill="#eee"/>
  <path id="Path_40729" data-name="Path 40729" d="M83.55,4.444H10.444A10.445,10.445,0,0,0,0,14.889V17.5H93.992V14.889A10.445,10.445,0,0,0,83.547,4.444Z" transform="translate(0.001 -4.444)" fill="#377e3f"/>
  <path id="Path_40730" data-name="Path 40730" d="M0,8.889H93.993v7.834H0Z" transform="translate(0.003 4.167)" fill="#eee"/>
  <path id="Path_40731" data-name="Path 40731" d="M0,37.664H93.993V11.555H0ZM43.951,21.712,47,12.33l3.046,9.382h9.863l-7.981,5.8,3.046,9.382-7.978-5.8-7.978,5.8,3.046-9.382-7.981-5.8h9.866Z" transform="translate(0.003 9.332)" fill="#b40a2d"/>
  <path id="Path_40732" data-name="Path 40732" d="M16.537,36.378l7.978-5.8,7.978,5.8L29.446,27l7.978-5.8H27.56l-3.046-9.382L21.468,21.2H11.6L19.583,27Z" transform="translate(22.485 9.843)" fill="#ecc81d"/>
</svg>
