<svg id="SVK" xmlns="http://www.w3.org/2000/svg" width="93.996" height="67.886" viewBox="0 0 93.996 67.886">
  <path id="Path_40698" data-name="Path 40698" d="M93.993,30.889V20.444H0V30.889A10.445,10.445,0,0,0,10.445,41.334H83.551A10.445,10.445,0,0,0,94,30.889Z" transform="translate(0 26.552)" fill="#ee2024"/>
  <path id="Path_40699" data-name="Path 40699" d="M93.993,51.44H0V14.889A10.445,10.445,0,0,1,10.445,4.444H83.551A10.445,10.445,0,0,1,94,14.889V51.44Z" transform="translate(0 -4.444)" fill="#eee"/>
  <path id="Path_40700" data-name="Path 40700" d="M0,11.556H93.993V37.665H0Z" transform="translate(0 9.334)" fill="#0a4ea2"/>
  <path id="Path_40701" data-name="Path 40701" d="M19.542,47.353c-2.949-1.686-9.5-5.948-11.893-11.717C5.235,29.82,5.772,21.478,6.392,11.815l.156-2.444H37.783l.159,2.444c.623,9.661,1.16,18-1.257,23.818-2.4,5.772-8.944,10.037-11.9,11.72l-2.62,1.492-2.629-1.492Z" transform="translate(11.364 5.101)" fill="#fff"/>
  <path id="Path_40702" data-name="Path 40702" d="M33.617,10.26H7.279c-.623,9.678-1.1,17.442,1.063,22.652,2.667,6.424,11.79,11.018,12.09,11.165v.015l.012-.009.012.009v-.015c.3-.15,9.426-4.741,12.093-11.165,2.168-5.211,1.689-12.977,1.066-22.652Z" transform="translate(13.083 6.823)" fill="#ee2024"/>
  <path id="Path_40703" data-name="Path 40703" d="M25.761,21.34s-3.657.347-6.873.432c-.023-.7-.035-1.322-.035-1.777,0-.491.018-1.028.044-1.58a22.9,22.9,0,0,1,4.294.643,1.165,1.165,0,0,0,1.166-1.166V16.308a1.165,1.165,0,0,0-1.166-1.166s-1.93.329-4.095.467c.185-2.041.408-3.748.408-3.748a1.165,1.165,0,0,0-1.166-1.166h-1.58a1.165,1.165,0,0,0-1.166,1.166s.241,1.739.444,3.769a35.149,35.149,0,0,1-4.133-.488,1.165,1.165,0,0,0-1.166,1.166v1.583A1.165,1.165,0,0,0,11.9,19.057a18.482,18.482,0,0,1,4.359-.667c.035.6.062,1.184.062,1.686,0,.42-.015,1.013-.041,1.695-3.243-.085-7.032-.429-7.032-.429a1.165,1.165,0,0,0-1.166,1.166v1.583A1.165,1.165,0,0,0,9.25,25.258s3.442-.282,6.879-.335c-.217,4-.54,8.674-.54,8.674a1.165,1.165,0,0,0,1.166,1.166h1.58A1.165,1.165,0,0,0,19.5,33.6s-.291-4.629-.482-8.659c3.322.079,6.738.32,6.738.32a1.165,1.165,0,0,0,1.166-1.166V22.509a1.168,1.168,0,0,0-1.166-1.169Z" transform="translate(15.661 7.666)" fill="#fff"/>
  <path id="Path_40704" data-name="Path 40704" d="M29.8,21.5c-1.328-2.834-4.973-3.636-6.706-.173C21.949,17.16,18.7,17.16,18.7,17.16s-3.249,0-4.388,4.162c-1.718-3.437-5.325-2.673-6.679.106,3.431,5.416,10.818,9.15,11.088,9.282v.012l.012-.009.012.009v-.015c.27-.132,7.6-3.836,11.047-9.214Z" transform="translate(14.793 20.19)" fill="#0a4ea2"/>
</svg>
