<svg id="SVN" xmlns="http://www.w3.org/2000/svg" width="93.996" height="67.886" viewBox="0 0 93.996 67.886">
  <path id="Path_40688" data-name="Path 40688" d="M93.993,30.889V20.444H0V30.889A10.445,10.445,0,0,0,10.445,41.334H83.551A10.445,10.445,0,0,0,94,30.889Z" transform="translate(0 26.552)" fill="#ed1c23"/>
  <path id="Path_40689" data-name="Path 40689" d="M93.993,51.44H0V14.889A10.445,10.445,0,0,1,10.445,4.444H83.551A10.445,10.445,0,0,1,94,14.889V51.44Z" transform="translate(0 -4.444)" fill="#eee"/>
  <path id="Path_40690" data-name="Path 40690" d="M0,11.556H93.993V37.665H0Z" transform="translate(0 9.334)" fill="#005da4"/>
  <path id="Path_40691" data-name="Path 40691" d="M16.489,7.037A23.413,23.413,0,0,0,6.482,9.211s.382,5.222.869,13.271,9.138,10.88,9.138,10.88,8.647-2.829,9.138-10.88S26.5,9.211,26.5,9.211A23.413,23.413,0,0,0,16.489,7.037Z" transform="translate(12.557 0.579)" fill="#ed1c23"/>
  <path id="Path_40692" data-name="Path 40692" d="M24.912,8.787a24.282,24.282,0,0,0-18.105,0c.029.549.358,6.535.781,13.482.444,7.287,8.268,9.846,8.268,9.846s7.828-2.558,8.268-9.846c.429-6.944.758-12.936.787-13.482Z" transform="translate(13.187 0.577)" fill="#004a77"/>
  <path id="Path_40693" data-name="Path 40693" d="M17.4,22.336c-.925,0-1.36.552-2.72.552s-1.577-.552-2.5-.552a5.249,5.249,0,0,0-1.668.467,15.289,15.289,0,0,0,4.335,2.244A8.5,8.5,0,0,0,19.261,22.8a8.353,8.353,0,0,0-1.865-.47Zm-5.111-3.61c.869,0,1.633.679,2.555.679s1.577-.679,2.555-.679c.837,0,1.939,1.093,3.551.467A14.088,14.088,0,0,0,22.019,17l-3.263-4.679L17.123,14.3,14.838,9.926,12.664,14.3l-1.577-2.085s-1.416,1.68-3.754,4.832a9.517,9.517,0,0,0,1.063,2C10.247,19.96,11.5,18.726,12.285,18.726ZM20.007,20.7c-1.2,0-1.686-.679-2.611-.679s-1.36.679-2.72.679-1.577-.679-2.5-.679-1.383.679-2.229.679a2.782,2.782,0,0,1-.975-.223,13.85,13.85,0,0,0,1.019,1.263c1.007-.091,1.756-.714,2.294-.714.869,0,1.633.726,2.555.726s1.577-.726,2.555-.726c.6,0,1.348.614,2.315.708.285-.37.535-.74.764-1.1a2.827,2.827,0,0,1-.47.068Z" transform="translate(14.206 6.176)" fill="#fff"/>
  <path id="Path_40694" data-name="Path 40694" d="M10.187,8.628l.567.608-.808-.188L9.7,9.841l-.241-.793-.811.188.57-.608-.57-.608.811.188L9.7,7.415l.247.793.808-.188Zm5.466,0,.567.608-.811-.188-.244.793-.244-.793-.811.188.567-.608-.567-.608.811.188.244-.793.244.793.811-.188Zm-2.832,3.645.564.608-.808-.188-.244.79-.244-.79-.811.188.567-.608-.567-.608.811.188.244-.793.244.793.808-.188Z" transform="translate(16.754 1.312)" fill="#fd0"/>
</svg>
