<svg id="SWE" xmlns="http://www.w3.org/2000/svg" width="93.999" height="67.889" viewBox="0 0 93.999 67.889">
  <path id="Path_40664" data-name="Path 40664" d="M40.472,72.332H83.553C89.322,72.332,94,67.656,94,60.583V44.919H40.475V72.332ZM83.55,4.446H40.469V31.86H93.992V14.888A10.445,10.445,0,0,0,83.547,4.443Zm-56.134,0H10.444A10.445,10.445,0,0,0,0,14.882V31.86H27.413V4.446ZM0,44.916V60.592c.006,7.067,4.679,11.737,10.445,11.737H27.419V44.916H0Z" transform="translate(0.001 -4.443)" fill="#006aa7"/>
  <path id="Path_40665" data-name="Path 40665" d="M40.468,4.444H27.415V31.858H0V44.911H27.415V72.324H40.468V44.911H93.991V31.858H40.468Z" transform="translate(0.005 -4.441)" fill="#fecc00"/>
</svg>
