<svg id="SWZ" xmlns="http://www.w3.org/2000/svg" width="93.996" height="67.886" viewBox="0 0 93.996 67.886">
  <path id="Path_40777" data-name="Path 40777" d="M93.995,61.885A10.445,10.445,0,0,1,83.55,72.33H10.444A10.445,10.445,0,0,1,0,61.885v-47A10.445,10.445,0,0,1,10.444,4.444H83.55A10.445,10.445,0,0,1,93.995,14.889Z" transform="translate(0.001 -4.444)" fill="#3e5eb9"/>
  <path id="Path_40778" data-name="Path 40778" d="M0,8.889H93.993V50.663H0Z" transform="translate(0.003 4.167)" fill="#ffd900"/>
  <path id="Path_40779" data-name="Path 40779" d="M0,9.778H93.993V46.329H0Z" transform="translate(0.003 5.889)" fill="#b10d0d"/>
  <path id="Path_40780" data-name="Path 40780" d="M24.456,15.775l4.077,1.551,4-1.551-4-1.3Z" transform="translate(47.381 14.981)" fill="#fff"/>
  <path id="Path_40781" data-name="Path 40781" d="M65.021,15.417a.735.735,0,0,1-.734.734H5.623a.734.734,0,1,1,0-1.469H64.287A.735.735,0,0,1,65.021,15.417Z" transform="translate(9.474 15.392)" fill="#ffd900"/>
  <path id="Path_40782" data-name="Path 40782" d="M25.345,14.886l4.077,1.551,4-1.551-4-1.3Z" transform="translate(49.103 13.259)" fill="#fff"/>
  <path id="Path_40783" data-name="Path 40783" d="M72.408,14.528a.735.735,0,0,1-.734.734H13.01a.734.734,0,1,1,0-1.469H71.673A.733.733,0,0,1,72.408,14.528Zm10.956,5.725a1.1,1.1,0,0,1-1.1,1.1H3.525a1.1,1.1,0,1,1,0-2.2H82.259A1.1,1.1,0,0,1,83.364,20.253Z" transform="translate(4.699 13.669)" fill="#ffd900"/>
  <path id="Path_40784" data-name="Path 40784" d="M55.416,25.482S44.821,39.816,31.756,39.816,8.093,25.482,8.093,25.482,18.688,11.148,31.756,11.148,55.416,25.482,55.416,25.482Z" transform="translate(15.681 8.543)" fill="#fff"/>
  <path id="Path_40785" data-name="Path 40785" d="M33.866,36.763c-1.143-.543-3.1-1.2-3.046-1.686s1.522-.652,2.881-.814,1.3-.814.925-1.143-1.959-.764-2.881-1.3-.056-1.034.775-1.686a2.213,2.213,0,0,0,.858-1.959,3.733,3.733,0,0,1,1.742-2.394c1.09-.708.056-.814-.814-1.251s-.817-1.9-.652-2.993.109-1.686-.27-1.742-.6-.382-.814-.681,0-.843-.814-.952-.764-.382-.978-.869a17.182,17.182,0,0,1-1.251-2.174c-.273-.778.388-2.253,2.162-3.965C18.654,11.2,8.1,25.478,8.1,25.478S18.692,39.812,31.76,39.812a19.359,19.359,0,0,0,4.876-.649c-.373-1.533-1.842-1.959-2.761-2.4Z" transform="translate(15.689 8.547)"/>
  <path id="Path_40786" data-name="Path 40786" d="M11.092,14.26h1.143v3.863H11.092Zm0,6.415h1.143v3.863H11.092Zm2.232-6.415h1.143v3.863H13.324Zm0,6.415h1.143v3.863H13.324Zm2.232-6.415H16.7v3.863H15.557Zm0,6.415H16.7v3.863H15.557Zm2.229-6.415h1.143v3.863H17.786Zm0,6.415h1.143v3.863H17.786Zm2.229-6.415h1.143v3.863H20.015Zm0,6.415h1.143v3.863H20.015Zm2.229-6.415h1.143v3.863H22.245Zm0,6.415h1.143v3.863H22.245Z" transform="translate(21.491 14.572)" fill="#fff"/>
  <path id="Path_40787" data-name="Path 40787" d="M17.092,14.26h1.143v3.863H17.092Zm0,6.415h1.143v3.863H17.092Zm2.232-6.415h1.143v3.863H19.324Zm0,6.415h1.143v3.863H19.324Zm2.232-6.415H22.7v3.863H21.557Zm0,6.415H22.7v3.863H21.557Zm2.226-6.415h1.143v3.863H23.783Zm0,6.415h1.143v3.863H23.783Zm2.232-6.415h1.143v3.863H26.015Zm0,6.415h1.143v3.863H26.015Zm2.229-6.415h1.143v3.863H28.245Zm0,6.415h1.143v3.863H28.245Z" transform="translate(33.115 14.572)"/>
  <path id="Path_40788" data-name="Path 40788" d="M34.192,12.084c-1.046.693-3.184,2.814-3.3,4.365a2.091,2.091,0,0,1,.978-.491,3.22,3.22,0,0,0-.529,1.915,2.464,2.464,0,0,1,.734-.573,5.54,5.54,0,0,0,1.022,2,1.261,1.261,0,0,0,.529-.652,3.233,3.233,0,0,0,1.1,1.51.471.471,0,0,0,.314-.449s.505,1.06,2.585,1.51c-.367-.693.814-1.657.367-2.746a3.14,3.14,0,0,1,.734.746s.364-.529-.367-1.51a4.919,4.919,0,0,1,.693.764,3.651,3.651,0,0,0-.693-2.761c.614.247,1.143.529,1.143.529a3.994,3.994,0,0,0-1.633-2.978c-1.962-1.178-3.675-.32-3.675-1.178ZM5.471,23.34s.937.858-.367.978S2.739,25.992,2.778,27.54l.693-.326a3.441,3.441,0,0,0,.123,1.754c.285-.693.693-.652.693-.652a17.056,17.056,0,0,0,.247,1.8,1.3,1.3,0,0,0,.285-.858,1.333,1.333,0,0,1,.734.858c.244.7.367,1.225.937,1.551a.914.914,0,0,0,.367-.449,5.5,5.5,0,0,0,1.263.734c-.162-1.1.9-.978,1.348-1.754a1.439,1.439,0,0,1,.2.611A3.011,3.011,0,0,0,10,29.581a2.035,2.035,0,0,1,.367-1.1,3.462,3.462,0,0,1,0,.734c.367-.2.449-2.529.285-3.263a2.191,2.191,0,0,1,.449.652,4.085,4.085,0,0,0,0-1.939,1.623,1.623,0,0,0-2.121-1c-1.022.367-2.529-.611-2.529-.611s.247.611-.082.814-.041-.323-.9-.529Zm71.517-.405a6.741,6.741,0,0,0-3.833,4.814,5.3,5.3,0,0,1,1.022-.693c-.693,1.589.652,2.326.449,3.589.529-.082,1.022-1.022,1.022-1.022a9.546,9.546,0,0,0,2.365,2.735,4.633,4.633,0,0,1,1.263-1.712l.2.529.573-1.428.408.693a2.275,2.275,0,0,0,0-1.686c.056.159.611.585.611.585V27.378a2.952,2.952,0,0,0,.573.775c0-.858-.491-1.469-.285-1.836l.285.505A2.609,2.609,0,0,0,80.46,24.4a3.636,3.636,0,0,0-3.052-.834c-.291.144-.417-.632-.417-.632Z" transform="translate(5.382 10.357)" fill="#3d5da7"/>
  <path id="Path_40789" data-name="Path 40789" d="M32.364,13.508c.758-.229.491,2.2-.408,3.184C32.446,15.018,31.427,13.8,32.364,13.508Zm1.774-.693c.179-.626,1.486,1.022,3.161,1.1C35.833,14.164,33.915,13.591,34.138,12.815Zm-.508,2.529c.444-.206.573,2.244,0,2.937C33.712,17.06,33.016,15.632,33.63,15.344Zm1.633-.611c-.567.153,1.1,1.51,2.038,1.428C36.42,15.993,36.159,14.487,35.263,14.733Zm-.326,2.6c-.59,0,0,1.563,1.06,1.93C35.63,18.69,35.889,17.333,34.937,17.333Zm-30.313,6.7c.538,0-.162,1.836-1.3,2.57C3.934,25.707,3.852,24.033,4.624,24.033Zm1.754-.285c-.435.335.775,1.824,2.162,1.933C7.644,25.055,6.906,23.342,6.378,23.748ZM5.071,26.115c.323-.056.388,1.7-.529,2.162C5.032,27.137,4.583,26.2,5.071,26.115Zm1.551,0c.54-.332.811,1.049,1.589,1.5C6.906,27.3,6.09,26.441,6.622,26.115Zm-.67,1.3c.54-.238.834,1.721,0,2.285C6.254,28.442,5.482,27.625,5.952,27.419Zm68.961-1.739c.564-.015-.449,1.657-1.3,2.106.817-1.225.693-2.091,1.3-2.106Zm2.041-.872c-.42.291.775,1.1,1.348,1.1C77.595,25.689,77.486,24.441,76.955,24.808Zm-1.469,2.8c.432-.329.611.746,0,1.522C75.859,28.345,74.913,28.045,75.486,27.61ZM77.24,26.5c-.446.179.408,1.448,1.06,1.53C77.586,27.6,77.892,26.236,77.24,26.5Zm-.614,1.287c.37-.279,1.128,1.551.238,2.488C77.287,28.917,75.927,28.318,76.626,27.79Z" transform="translate(6.435 11.499)" fill="#a70000"/>
</svg>
