<svg id="SYC" xmlns="http://www.w3.org/2000/svg" width="93.996" height="67.886" viewBox="0 0 93.996 67.886">
  <path id="Path_40655" data-name="Path 40655" d="M81.6,4.444H61.151L1,69.158a10.174,10.174,0,0,0,1.287,1.125l0,0L92.045,27.073V14.889A10.445,10.445,0,0,0,81.6,4.444Z" transform="translate(1.945 -4.444)" fill="#d62828"/>
  <path id="Path_40656" data-name="Path 40656" d="M.679,68.019a10.767,10.767,0,0,0,.958,1.137L61.784,4.445H30.017L.679,68.019h0Z" transform="translate(1.312 -4.442)" fill="#fcd856"/>
  <path id="Path_40657" data-name="Path 40657" d="M31.332,4.444H10.445A10.445,10.445,0,0,0,0,14.889v47a10.423,10.423,0,0,0,1.989,6.133L31.329,4.444Z" transform="translate(0 -4.444)" fill="#003f87"/>
  <path id="Path_40658" data-name="Path 40658" d="M2.588,56.1l.012.006,88.6-21.33V12.148L1.445,55.364a10.887,10.887,0,0,0,1.146.74Z" transform="translate(2.799 10.481)" fill="#eee"/>
  <path id="Path_40659" data-name="Path 40659" d="M6.884,42.481H79.99A10.445,10.445,0,0,0,90.435,32.036V19.852L1.838,41.18a10.384,10.384,0,0,0,5.046,1.3Z" transform="translate(3.561 25.406)" fill="#007a3d"/>
</svg>
