<svg id="SYR" xmlns="http://www.w3.org/2000/svg" width="93.996" height="67.886" viewBox="0 0 93.996 67.886">
  <path id="Path_40773" data-name="Path 40773" d="M0,11.556H93.993V37.665H0Z" transform="translate(0.003 9.334)" fill="#eee"/>
  <path id="Path_40774" data-name="Path 40774" d="M83.55,4.444H10.444A10.445,10.445,0,0,0,0,14.889V25.334H93.992V14.889A10.445,10.445,0,0,0,83.547,4.444Z" transform="translate(0.001 -4.444)" fill="#ce1126"/>
  <path id="Path_40775" data-name="Path 40775" d="M83.55,41.334H10.444A10.445,10.445,0,0,1,0,30.889V20.444H93.992V30.889A10.445,10.445,0,0,1,83.547,41.334Z" transform="translate(0.001 26.552)" fill="#141414"/>
  <path id="Path_40776" data-name="Path 40776" d="M11.013,21.717,9.359,26.8l4.324-3.14,4.324,3.14-1.654-5.084,4.324-3.137H15.33L13.68,13.5,12.029,18.58H6.683Zm40.731,0L50.09,26.8l4.324-3.14,4.324,3.14-1.654-5.084,4.324-3.137H56.062L54.411,13.5,52.76,18.58H47.414Z" transform="translate(12.95 13.092)" fill="#007a3d"/>
</svg>
