<svg id="TCA" xmlns="http://www.w3.org/2000/svg" width="94" height="67.889" viewBox="0 0 94 67.889">
  <path id="Path_41286" data-name="Path 41286" d="M83.556,142.222H10.445a10.481,10.481,0,0,0-1.577.118l-.01,4.58-7.128-.01A10.4,10.4,0,0,0,0,152.666v47a10.445,10.445,0,0,0,10.444,10.444H83.556A10.445,10.445,0,0,0,94,199.666v-47a10.445,10.445,0,0,0-10.444-10.444Z" transform="translate(-0.001 -142.222)" fill="#00247d"/>
  <path id="Path_41287" data-name="Path 41287" d="M654.222,341.333v9.729c0,13.525,7.538,18.466,13.463,21.685,5.927-3.219,12.539-8.16,12.539-21.685v-9.729Z" transform="translate(-594.166 -323.055)" fill="#fff"/>
  <path id="Path_41288" data-name="Path 41288" d="M678.458,388.408c-5.75-3.214-12.374-7.854-12.374-20.116v-7.987H690.1v7.987C690.1,380.554,684.208,385.194,678.458,388.408Z" transform="translate(-604.94 -340.286)" fill="#fec400"/>
  <path id="Path_41289" data-name="Path 41289" d="M758.739,518.211c-.162-1.428-1.347-5.917-2.734-7.261s-1.958-.306-1.958-.306-.572-1.039-1.958.306-2.569,5.833-2.734,7.261.162,1.755.9,1.755c.326.695,1.59.815,1.59.815s1.428.937,2.2,0c.776.937,2.2,0,2.2,0s1.264-.123,1.59-.815c.736,0,1.063-.326.9-1.755Z" transform="translate(-680.529 -476.476)" fill="#00a728"/>
  <path id="Path_41290" data-name="Path 41290" d="M783.047,477.672c0,1.243.329,2.248-2.039,2.248s-2.039-1.008-2.039-2.248a2.049,2.049,0,1,1,4.079,0Z" transform="translate(-707.447 -444.834)" fill="#f0082d"/>
  <path id="Path_41291" data-name="Path 41291" d="M698.181,386.125c-.653,1.1-1.674.326-2.12-.979s-2.243-1.674-2.9-2.039-.815-.979,0-1.428.326-1.021.9-1.183c-.734-.162-1.392.245-1.452,0s.512-.924,1.452-1.034c-.776-.966-.326-3.005,0-3.047s.995.572,1.334,1.183,1.319.491,1.238,1.347c.2.2.9.081,1.551,1.144S698.181,386.125,698.181,386.125Z" transform="translate(-629.029 -354.914)" fill="#ff9f3e"/>
  <path id="Path_41292" data-name="Path 41292" d="M729.819,391.279c-.924.07-1.269-.734-1.433-1.917s-1.836-.742-1.06-2.512,1.065-.7,1.144-2.071.527-2.514.935-2.514.937,1.264,1.144,1.8.99.407,1.332,2.243-.065,3.183-.514,3.59-.653.467-.734.927-.206.41-.812.457Z" transform="translate(-660.374 -360.23)" fill="#ff927f"/>
  <path id="Path_41293" data-name="Path 41293" d="M749.5,395.548c.279.2.29.491,0,.979s.188.979.214,1.8-.4,1.1-.308,1.509.741,1.183.661,2.12-.274,1.225-.567,1.387-.167-.491-.107-1.1a5.273,5.273,0,0,0-.551-1.917c-.2-.611.274-1.06.4-1.674s-.2-1.17-.24-1.809a2.222,2.222,0,0,1,.5-1.29Z" transform="translate(-680.059 -372.293)" fill="#fe9de0"/>
  <path id="Path_41294" data-name="Path 41294" d="M852.205,376.5a5.928,5.928,0,0,0-.2-2.773c-.285-.491-.734-.776-.449-.856s1.632,1.347.9,4.243S852.205,376.5,852.205,376.5Z" transform="translate(-773.3 -351.698)" fill="#ba5b1f"/>
  <path id="Path_41295" data-name="Path 41295" d="M819.2,382.924c-.551-.321-1.264-1.138-1.193-1.585s.6-1.264.684-1.1-.245.668,0,1.334a3.19,3.19,0,0,0,.7,1.146c.329.447-.188.206-.188.206Zm-.3.619c-.329-.4-3.961-2.734-3.6-2.9s3.494,1.8,3.99,2.9S818.9,383.542,818.9,383.542Z" transform="translate(-740.438 -358.369)" fill="#ba5b1f"/>
  <path id="Path_41296" data-name="Path 41296" d="M808.4,406.123c-1.329-1.319-4.611-1.551-4.447-1.755s4.371.183,4.958,1.4S808.4,406.123,808.4,406.123Z" transform="translate(-730.146 -380.257)" fill="#ba5b1f"/>
  <path id="Path_41297" data-name="Path 41297" d="M808.17,420.4a11.5,11.5,0,0,0-4.36-.9,6.325,6.325,0,0,1,4.509.447c1.982,1.227-.149.454-.149.454Zm.091,1.1a6.773,6.773,0,0,0-4.243-.245,4.191,4.191,0,0,1,2.285-.809,7.578,7.578,0,0,1,2.47.556C809.076,421.21,808.8,421.738,808.261,421.5Z" transform="translate(-730.009 -393.835)" fill="#ba5b1f"/>
  <path id="Path_41298" data-name="Path 41298" d="M833.354,392.263c-.188-1-.191-1.849-1.535-1.747s-1.588,2.616-1.251,6.126-.073,4.658-.136,4.859.749-.7.692-2.248-.4-4.958-.29-6.212.718-2.193,1.528-1.948.627.877.6,1.642.389-.473.389-.473Z" transform="translate(-754.199 -367.716)" fill="#ba5b1f"/>
  <path id="Path_41299" data-name="Path 41299" d="M847.461,411.839s.407-.23.938-3-.611-3.958-1.632-3.958-2.162,1.183-1.632,3.958.937,3,.937,3-1.251,1.188-1.073,1.765,1.768.59,1.768.59,1.59-.013,1.768-.59S847.461,411.839,847.461,411.839Z" transform="translate(-767.415 -380.767)" fill="#ba5b1f"/>
  <path id="Path_41300" data-name="Path 41300" d="M864.9,376.5a5.928,5.928,0,0,1,.2-2.773c.285-.488.734-.776.449-.856s-1.632,1.347-.9,4.243S864.9,376.5,864.9,376.5Z" transform="translate(-785.081 -351.698)" fill="#ba5b1f"/>
  <path id="Path_41301" data-name="Path 41301" d="M868.082,382.924c.551-.321,1.264-1.138,1.193-1.585s-.6-1.264-.684-1.1.245.668,0,1.334a3.191,3.191,0,0,1-.7,1.146c-.329.447.188.206.188.206Zm.3.619c.329-.4,3.964-2.734,3.6-2.9s-3.494,1.8-3.99,2.9S868.383,383.543,868.383,383.543Z" transform="translate(-788.125 -358.369)" fill="#ba5b1f"/>
  <path id="Path_41302" data-name="Path 41302" d="M869.8,406.123c1.329-1.319,4.611-1.551,4.447-1.755s-4.371.183-4.958,1.4S869.8,406.123,869.8,406.123Z" transform="translate(-789.333 -380.257)" fill="#ba5b1f"/>
  <path id="Path_41303" data-name="Path 41303" d="M867.755,420.4a11.5,11.5,0,0,1,4.361-.9,6.332,6.332,0,0,0-4.512.447C865.622,421.171,867.755,420.4,867.755,420.4Zm-.094,1.1a6.773,6.773,0,0,1,4.243-.245,4.191,4.191,0,0,0-2.285-.809,7.577,7.577,0,0,0-2.47.556C866.847,421.21,867.121,421.738,867.661,421.5Z" transform="translate(-787.195 -393.835)" fill="#ba5b1f"/>
  <path id="Path_41304" data-name="Path 41304" d="M866.758,392.263c.188-1,.191-1.849,1.535-1.747s1.585,2.616,1.251,6.126.073,4.658.136,4.859-.749-.7-.692-2.248.4-4.958.29-6.212-.718-2.193-1.527-1.948-.627.877-.6,1.642-.389-.473-.389-.473Z" transform="translate(-787.192 -367.716)" fill="#ba5b1f"/>
  <path id="Path_41305" data-name="Path 41305" d="M49.611,176.166V142.222H10.444a11.347,11.347,0,0,0-1.577.118l-.01,4.58-7.128-.01s-.11.154-.332.535A10.414,10.414,0,0,0,0,152.666v23.5Z" transform="translate(0 -142.222)" fill="#00247d"/>
  <path id="Path_41306" data-name="Path 41306" d="M49.609,142.221H43.523l-12.191,8.536v-8.536H18.276v6.708l-9.41-6.59A10.293,10.293,0,0,0,4.5,144.075l12.277,8.59H12.244l-9.721-6.812a10.824,10.824,0,0,0-.8,1.055l8.228,5.757H0v13.055H10.142L0,172.943v3.222H8.7l9.578-6.705v6.705H31.331V167.63l12.189,8.536h6.089v-5.3l-7.35-5.146h7.35V152.665H42.261l7.348-5.146v-5.3Z" transform="translate(0.002 -142.221)" fill="#eee"/>
  <path id="Path_41307" data-name="Path 41307" d="M28.722,142.222H20.889v13.055H0v7.833H20.889v13.055h7.833V163.111H49.611v-7.833H28.722Z" transform="translate(0 -142.222)" fill="#cf1b2b"/>
  <path id="Path_41308" data-name="Path 41308" d="M68.572,142.222H64.758L50.295,152.35v.316h4.1l14.176-9.927Zm-45.109,1.854a10.579,10.579,0,0,0-1.977,1.778l9.721,6.812h4.53l-12.275-8.59Zm12.306,21.646L20.878,176.166h4.509l11.852-8.3v-2.146Zm32.8,9.927v-3.186l-9.627-6.742H54.394Z" transform="translate(-18.961 -142.222)" fill="#cf1b2b"/>
</svg>
