<svg id="TGO" xmlns="http://www.w3.org/2000/svg" width="93.996" height="67.889" viewBox="0 0 93.996 67.889">
  <path id="Path_40853" data-name="Path 40853" d="M0,61.887A10.445,10.445,0,0,0,10.445,72.332H83.551A10.445,10.445,0,0,0,94,61.887V58.753H0v3.134ZM40.537,44.916H40.47l53.523.261V31.6H40.537ZM83.548,4.446H40.534V18.022H93.99V14.888A10.445,10.445,0,0,0,83.545,4.443Z" transform="translate(0 -4.443)" fill="#006a4e"/>
  <path id="Path_40854" data-name="Path 40854" d="M40.537,22.467v.176H93.993V9.067H40.537ZM.068,35.958,0,49.8H93.993V36.219L40.47,35.958Z" transform="translate(0 4.515)" fill="#ffce00"/>
  <path id="Path_40855" data-name="Path 40855" d="M10.4,4.444A10.413,10.413,0,0,0,.024,14.216v30.7h40.47V4.444H10.4Z" transform="translate(0.046 -4.441)" fill="#d21034"/>
  <path id="Path_40856" data-name="Path 40856" d="M26.916,16.023H17.9L15,7.111l-.059.176L12.106,16.02H2.736l7.578,5.51-2.9,8.915L15,24.934l7.578,5.51-2.9-8.915,7.581-5.51Z" transform="translate(5.3 0.726)" fill="#fff"/>
</svg>
