<svg id="THA" xmlns="http://www.w3.org/2000/svg" width="93.996" height="67.886" viewBox="0 0 93.996 67.886">
  <path id="Path_40857" data-name="Path 40857" d="M0,23.572v1.257A10.445,10.445,0,0,0,10.445,35.274H83.551A10.445,10.445,0,0,0,94,24.829V23.572H0Z" transform="translate(0 32.612)" fill="#a7122d"/>
  <path id="Path_40858" data-name="Path 40858" d="M0,19.716H93.993V31.427H0Z" transform="translate(0 25.142)" fill="#eee"/>
  <path id="Path_40859" data-name="Path 40859" d="M0,12.012H93.993V35.043H0Z" transform="translate(0 10.217)" fill="#292648"/>
  <path id="Path_40860" data-name="Path 40860" d="M0,8.161H93.993V19.872H0Z" transform="translate(0 2.757)" fill="#eee"/>
  <path id="Path_40861" data-name="Path 40861" d="M0,15.758v-.869A10.445,10.445,0,0,1,10.445,4.444H83.551A10.445,10.445,0,0,1,94,14.889v.869H0Z" transform="translate(0 -4.444)" fill="#a7122d"/>
</svg>
