<svg id="TJK" xmlns="http://www.w3.org/2000/svg" width="93.999" height="67.886" viewBox="0 0 93.999 67.886">
  <path id="Path_40862" data-name="Path 40862" d="M83.55,4.444H10.444A10.445,10.445,0,0,0,0,14.889V26.638H93.992V14.889A10.445,10.445,0,0,0,83.547,4.444Z" transform="translate(0.001 -4.444)" fill="#c00"/>
  <path id="Path_40863" data-name="Path 40863" d="M0,31.749A10.445,10.445,0,0,0,10.445,42.194H83.551A10.445,10.445,0,0,0,94,31.749V20H0V31.749Z" transform="translate(0.003 25.692)" fill="#060"/>
  <path id="Path_40864" data-name="Path 40864" d="M0,12H93.993V35.5H0Z" transform="translate(0.003 10.194)" fill="#eee"/>
  <path id="Path_40865" data-name="Path 40865" d="M17.175,20.973a1.572,1.572,0,0,1-1.686-.711l.843-.379.408-1.3.843,1.213h.952a1.846,1.846,0,0,1-1.357,1.181ZM30.61,22.116a35.576,35.576,0,0,0-8.324-1.143,35.646,35.646,0,0,0-8.324,1.143c-1.636.491-1.251,2.065,0,1.574a27.357,27.357,0,0,1,8.324-.978,27.454,27.454,0,0,1,8.324.978C31.861,24.178,32.243,22.607,30.61,22.116Zm-7.669-2.937-.652-1.09-.652,1.09-1.143.491a2.813,2.813,0,0,0,1.8.922,2.813,2.813,0,0,0,1.8-.922l-1.143-.491ZM27.4,20.973a1.572,1.572,0,0,0,1.686-.711l-.843-.379-.408-1.3L27,19.793h-.952A1.839,1.839,0,0,0,27.4,20.973Z" transform="translate(24.943 21.99)" fill="#ffac33"/>
  <path id="Path_40866" data-name="Path 40866" d="M37.067,29.549c-.27-.7-.946,1.169-2.773.881a3.174,3.174,0,0,1-2.5-2.394s-1.633,1.633-3.319.872a3.086,3.086,0,0,1-2.121-3.046,13.642,13.642,0,0,1,0-2.555,1.176,1.176,0,0,1,2.068-.435c.764-1.087-.543-3.372-2.72-3.372s-3.481,2.285-2.72,3.372a1.178,1.178,0,0,1,2.068.435,13.647,13.647,0,0,1,0,2.555,3.083,3.083,0,0,1-2.121,3.046c-1.686.761-3.319-.872-3.319-.872a3.174,3.174,0,0,1-2.5,2.394c-1.827.288-2.5-1.58-2.773-.881s1.2,2.785,3.263,2.109a3.3,3.3,0,0,0,2.338-2.423,2.916,2.916,0,0,0,3.536,1.2A3.321,3.321,0,0,0,25.7,28.092a3.324,3.324,0,0,0,2.229,2.338,2.914,2.914,0,0,0,3.536-1.2A3.3,3.3,0,0,0,33.8,31.658c2.062.676,3.534-1.416,3.257-2.109ZM23.9,21.454a1.781,1.781,0,0,1,1.8-.978,1.783,1.783,0,0,1,1.8.978,4.1,4.1,0,0,0-1.8.814A4.137,4.137,0,0,0,23.9,21.454ZM13.3,24.05l.514,1.592h1.674l-1.351.984.517,1.586L13.3,27.228l-1.351.984.514-1.586-1.351-.984h1.674Zm1.63-5.822.514,1.592h1.674l-1.351.984.517,1.586-1.351-.984-1.351.984.514-1.586-1.351-.984h1.674Zm4.377-4.679.517,1.592H21.5l-1.351.984.514,1.586-1.351-.984-1.351.984.517-1.586-1.351-.984H18.8ZM25.7,11.972l.514,1.589h1.674l-1.351.984.517,1.586L25.7,15.147l-1.351.984.514-1.586-1.351-.984h1.674ZM37.637,24.05l-.514,1.592H35.448l1.351.984-.517,1.586,1.351-.984,1.351.984-.517-1.586,1.354-.984H38.148Zm-1.63-5.822-.514,1.592H33.818l1.351.984-.517,1.586L36,21.407l1.351.984L36.838,20.8l1.354-.984H36.518ZM31.63,13.549l-.517,1.592H29.439l1.354.984-.517,1.586,1.351-.984,1.351.984-.517-1.586,1.351-.984H32.138Z" transform="translate(21.532 10.14)" fill="#ffac33"/>
</svg>
