<svg id="TKL" xmlns="http://www.w3.org/2000/svg" width="93.996" height="67.886" viewBox="0 0 93.996 67.886">
  <path id="Path_40867" data-name="Path 40867" d="M93.995,61.885A10.445,10.445,0,0,1,83.55,72.33H10.444A10.445,10.445,0,0,1,0,61.885v-47A10.445,10.445,0,0,1,10.444,4.444H83.55A10.445,10.445,0,0,1,93.995,14.889Z" transform="translate(0.001 -4.444)" fill="#00247d"/>
  <path id="Path_40868" data-name="Path 40868" d="M5.565,17.876l.893,2.879,3.014-.021L7.01,22.47l.952,2.858-2.412-1.8L3.127,25.313,4.1,22.461,1.647,20.71l3.011.038Zm12.4,17.894,1.148,3.7,3.871-.026-3.163,2.238,1.225,3.675-3.1-2.315-3.119,2.294,1.245-3.666-3.152-2.256,3.874.05Zm.485-29.975.893,2.876,3.011-.021L19.89,10.389l.952,2.858-2.412-1.8-2.423,1.786.966-2.855-2.45-1.751,3.014.038ZM30.917,17.286l.632,2.036,2.13-.015-1.742,1.231.673,2.024L30.9,21.286l-1.718,1.263.687-2.018-1.733-1.24,2.13.026Z" transform="translate(3.194 -1.827)" fill="#fff"/>
  <path id="Path_40869" data-name="Path 40869" d="M75.4,61.941H4.9a1.573,1.573,0,0,1,0-2.608H75.4l3.874,1.3ZM4.9,56.719S17.954,51.5,33.622,35.832,59.731,9.722,64.954,7.111c-4.576,4.576-9.846,36.551,3.208,47,0,0,7.235,1.36,7.235,2.611H4.9Z" transform="translate(8.155 0.723)" fill="#fed100"/>
</svg>
