<svg id="TKM" xmlns="http://www.w3.org/2000/svg" width="93.996" height="67.886" viewBox="0 0 93.996 67.886">
  <path id="Path_40874" data-name="Path 40874" d="M93.995,61.885A10.445,10.445,0,0,1,83.55,72.33H10.444A10.445,10.445,0,0,1,0,61.885v-47A10.445,10.445,0,0,1,10.444,4.444H83.55A10.445,10.445,0,0,1,93.995,14.889Z" transform="translate(0.001 -4.444)" fill="#29ae66"/>
  <path id="Path_40875" data-name="Path 40875" d="M3.556,4.444H21.832V72.327H3.556Z" transform="translate(6.892 -4.444)" fill="#ca3745"/>
  <path id="Path_40876" data-name="Path 40876" d="M3.56,13.089l2.1,2.1-.573.573.834.834.552-.552L8.21,17.78,6.5,19.5l-.714-.717-.758.755.634.632-2.1,1.856v-.978l1.151-1.093-.623-.5,1.586-1.586.916.793.858-.858-.916-.916-.643.643L4.212,15.853l.626-.626L3.554,14.065Zm0,12.078,2.1,2.1-.573.573.834.834.552-.552L8.21,29.855,6.5,31.571l-.714-.717-.758.755.634.632L3.557,34.1v-.978l1.151-1.093-.623-.5,1.586-1.586.916.793.858-.858-.916-.916-.643.643L4.212,27.929l.626-.626L3.554,26.14Zm0,12.319,2.1,2.1-.573.573L5.924,41l.552-.552L8.21,42.177,6.5,43.89l-.714-.714-.758.755.634.632-2.1,1.856v-.978l1.151-1.093-.623-.5,1.586-1.586.916.8.858-.858-.916-.919-.643.643L4.212,40.253l.626-.626L3.554,38.465Zm0,12.157,2.1,2.1-.573.573.834.834.552-.552L8.21,54.335,6.5,56.05l-.714-.717-.758.755.634.632-2.1,1.856V57.6l1.151-1.093-.623-.5L5.672,54.42l.916.793.858-.858-.916-.916-.643.643L4.212,52.408l.626-.626L3.554,50.619ZM21.836,13.089l-2.1,2.1.573.573-.834.834-.552-.552L17.186,17.78,18.9,19.5l.714-.717.758.755-.634.632,2.1,1.856v-.978l-1.151-1.093.623-.5-1.586-1.586-.916.793L17.95,17.8l.916-.916.643.643,1.674-1.674-.626-.626,1.284-1.163ZM5.026,6.24l.758-.758L6.5,6.2,8.21,4.486l-.038-.041H7.384l.065.065-.858.858-.916-.8L4.089,6.157l.623.5L3.56,7.752V8.73l2.1-1.856ZM21.3,6.157,19.718,4.571l-.916.8-.858-.858.065-.065h-.787l-.038.041L18.9,6.2l.714-.717.758.758-.634.632,2.1,1.856V7.749L20.684,6.657Zm.532,19.01-2.1,2.1.573.573-.834.834-.552-.552-1.733,1.733L18.9,31.571l.714-.717.758.755-.634.632,2.1,1.856v-.978l-1.151-1.093.623-.5-1.586-1.586-.916.793-.858-.858.916-.916.643.643,1.674-1.674-.626-.626,1.284-1.163Zm0,12.319-2.1,2.1.573.573L19.471,41l-.552-.552-1.733,1.733L18.9,43.89l.714-.714.758.755-.634.632,2.1,1.856v-.978l-1.151-1.093.623-.5-1.586-1.586-.916.8L17.95,42.2l.916-.919.643.643,1.674-1.671-.626-.626,1.284-1.163Zm0,12.157-2.1,2.1.573.573-.834.834-.552-.552-1.733,1.733L18.9,56.05l.714-.717.758.755-.634.632,2.1,1.856V57.6l-1.151-1.093.623-.5L19.724,54.42l-.916.793-.858-.858.916-.916.643.643,1.674-1.674-.626-.626,1.284-1.163Z" transform="translate(6.888 -4.442)" fill="#faae29"/>
  <path id="Path_40877" data-name="Path 40877" d="M18.519,8.093V7.059L17,6.133H15.855l-1.848-.96H9.871l-1.848.96H6.881L5.36,7.059V8.093l-1.413.869v2.394l1.413.869v1.034l1.522.925H8.024l1.848.96h4.136l1.848-.96H17l1.522-.925V12.225l1.413-.869V8.962Z" transform="translate(7.649 -3.032)" fill="#29ae66"/>
  <path id="Path_40878" data-name="Path 40878" d="M4.38,9.674V8.652l1.207-.743V7.028l1.3-.79h.975l1.577-.817h1.765V9.674Z" transform="translate(8.488 -2.551)" fill="#faae29"/>
  <path id="Path_40879" data-name="Path 40879" d="M4.344,9.671v1.022l1.207.74v.881l1.3.787h.975l1.58.817H11.17V9.665Zm13.644,0V8.649l-1.207-.74V7.028l-1.3-.787H14.5l-1.58-.817H11.161v4.25Z" transform="translate(8.418 -2.545)" fill="#fff"/>
  <path id="Path_40880" data-name="Path 40880" d="M17.918,6.874V7.9l-1.207.74v.881l-1.3.787h-.975l-1.58.817H11.092V6.868ZM4.38,16.881H6.145v1.9H4.38Zm1.765-.27H7.911v1.9H6.145Zm1.768-.679H9.679v1.9H7.914Zm8.186.949h1.765v1.9H16.1Zm-1.768-.27H16.1v1.9H14.332Zm-1.768-.679h1.765v1.9H12.563Z" transform="translate(8.488 0.252)" fill="#faae29"/>
  <path id="Path_40881" data-name="Path 40881" d="M9.682,9.629h2.884v2.353H9.682Zm-5.3,4.312H6.145v1.9H4.38Zm1.765.27H7.911v1.9H6.145Zm1.768.681H9.679v1.9H7.914Zm8.186-.952h1.765v1.9H16.1Zm-1.768.27H16.1v1.9H14.332Zm-1.768.681h1.765v1.9H12.563Z" transform="translate(8.488 5.601)" fill="#faae29"/>
  <path id="Path_40882" data-name="Path 40882" d="M6.185,11.593H9.069v2.353H6.185Z" transform="translate(11.985 9.406)" fill="#faae29"/>
  <path id="Path_40883" data-name="Path 40883" d="M13.649,21.874H8.277l-3.8,2.432v3.437l3.8,2.432h5.372l3.8-2.432V24.306Z" transform="translate(8.674 29.323)" fill="#fff"/>
  <path id="Path_40884" data-name="Path 40884" d="M13.638,13.908H9.132L5.945,16.152V19.33l3.187,2.244h4.509l3.187-2.244V16.152Zm1.921,5.052-2.447,1.724H9.655L7.208,18.96V16.522L9.655,14.8h3.457l2.447,1.724ZM14.184,37.133H8.58L4.62,39.668v3.581L8.58,45.78h5.6l3.959-2.532V39.668l-3.959-2.535Zm2.767,5.8-3.263,2.085H9.079L5.816,42.931V39.982L9.079,37.9h4.612l3.263,2.085v2.949Zm.264-13.9V27.872H16.061V26.585H6.679v1.287H5.39v1.157H4.259v1.686H5.39v1.251H6.679v1.36h9.385v-1.36h1.151V30.715h1.351V29.029Zm-1.768,3.586H7.3v-5.44h8.142Z" transform="translate(8.254 13.89)" fill="#29ae66"/>
  <path id="Path_40885" data-name="Path 40885" d="M9.931,18,4.982,20.937v1.9l4.949,3.21,5-3.1V20.937Z" transform="translate(9.654 21.818)" fill="#29ae66"/>
  <path id="Path_40886" data-name="Path 40886" d="M5.912,23.748,8.13,22.467l2.215,1.281V26.3L8.13,27.581,5.912,26.3Z" transform="translate(11.456 30.471)" fill="#ca3745"/>
  <path id="Path_40887" data-name="Path 40887" d="M13.919,31.646l-.637.435a2.472,2.472,0,0,0-2.012-1.143c-1.469-.109-2.285.491-3.536.573s-5.1-2.834-3.1-7.3c1.8,1.292.864,2.87,1.683,3.63S8,29.12,8.33,30.016s1.895.153,2.937.326a5.211,5.211,0,0,1,2.649,1.3Z" transform="translate(7.878 33.846)" fill="#faae29"/>
  <path id="Path_40888" data-name="Path 40888" d="M5.912,31.646l.637.435a2.472,2.472,0,0,1,2.012-1.143c1.469-.109,2.288.491,3.536.573s5.1-2.834,3.1-7.3c-1.795,1.292-.864,2.87-1.683,3.63S11.831,29.12,11.5,30.016s-1.895.153-2.937.326A5.211,5.211,0,0,0,5.912,31.646Z" transform="translate(11.456 33.846)" fill="#faae29"/>
  <path id="Path_40889" data-name="Path 40889" d="M22.361,8.337a8,8,0,0,1-9.4,12.9,8.141,8.141,0,1,0,9.4-12.895Zm-6.095-1.1L15.623,8.5l1,1-1.4-.223-.646,1.26-.22-1.4-1.4-.223,1.26-.643L14,6.868l1,1Z" transform="translate(25.108 0.252)" fill="#fff"/>
  <path id="Path_40890" data-name="Path 40890" d="M23.007,8.058l-.643,1.26,1,1-1.4-.223-.646,1.26-.22-1.4-1.4-.223,1.26-.643-.22-1.4,1,1Zm-4,1.736-.643,1.26,1,1-1.4-.223-.646,1.26-.22-1.4-1.4-.223,1.26-.643-.223-1.4,1,1Zm-4.162,2.112-.643,1.26,1,1-1.4-.223-.646,1.263-.22-1.4-1.4-.223,1.26-.643-.22-1.4,1,1Zm4.162,2.356-.643,1.26,1,1-1.4-.223-.646,1.26-.22-1.4-1.4-.223,1.26-.643-.223-1.4,1,1Z" transform="translate(22.365 1.852)" fill="#fff"/>
  <path id="Path_40891" data-name="Path 40891" d="M6.277,18.463H8.665V20.07H6.277Zm0,3.657H8.665v1.607H6.277Z" transform="translate(12.163 22.715)" fill="#ca3745"/>
  <path id="Path_40892" data-name="Path 40892" d="M4.981,19.1H8.253V20.7H4.981Zm6.747,0h3.208V20.7H11.728Z" transform="translate(9.653 23.943)" fill="#faae29"/>
</svg>
