<svg id="TLS" xmlns="http://www.w3.org/2000/svg" width="93.996" height="67.886" viewBox="0 0 93.996 67.886">
  <path id="Path_40870" data-name="Path 40870" d="M83.55,4.444H10.444A10.445,10.445,0,0,0,0,14.889v47A10.445,10.445,0,0,0,10.444,72.33H83.55A10.445,10.445,0,0,0,93.995,61.885v-47A10.445,10.445,0,0,0,83.55,4.444Z" transform="translate(0.001 -4.444)" fill="#dc241f"/>
  <path id="Path_40871" data-name="Path 40871" d="M39.542,36.93,1.152,68.124c.206.188.417.367.637.54L59.56,36.93,1.789,5.2c-.22.173-.435.352-.637.54L39.542,36.93Z" transform="translate(2.235 -2.987)" fill="#ffc726"/>
  <path id="Path_40872" data-name="Path 40872" d="M3.384,5.38l-.006,0A10.416,10.416,0,0,0,0,13.076v47a10.421,10.421,0,0,0,3.384,7.7l38.39-31.194L3.384,5.38Z" transform="translate(0.003 -2.631)" fill="#141414"/>
  <path id="Path_40873" data-name="Path 40873" d="M9.844,26l1.284,8.536,3.977-7.66,8.518,1.416-6.057-6.148,3.977-7.66-7.719,3.86L7.768,12.2l1.287,8.536-7.719,3.86Z" transform="translate(2.589 10.578)" fill="#fff"/>
</svg>
