<svg id="TON" xmlns="http://www.w3.org/2000/svg" width="93.999" height="67.886" viewBox="0 0 93.999 67.886">
  <path id="Path_40897" data-name="Path 40897" d="M83.548,4.444H39.163V38.387H0v23.5A10.445,10.445,0,0,0,10.445,72.33H83.551A10.445,10.445,0,0,0,94,61.885v-47A10.445,10.445,0,0,0,83.551,4.444Z" transform="translate(0.003 -4.444)" fill="#c10000"/>
  <path id="Path_40898" data-name="Path 40898" d="M39.165,4.444H10.444A10.445,10.445,0,0,0,0,14.889v23.5H39.162V4.444Zm-7.831,20.89H23.5v7.834H15.666V25.334H7.833V17.5h7.834V9.666H23.5V17.5h7.834Z" transform="translate(0.001 -4.444)" fill="#eeeded"/>
  <path id="Path_40899" data-name="Path 40899" d="M18.333,6.222H10.5v7.834H2.666v7.834H10.5v7.834h7.834V21.889h7.834V14.056H18.333Z" transform="translate(5.168 -1)" fill="#c10000"/>
</svg>
