<svg id="TTO" xmlns="http://www.w3.org/2000/svg" width="93.99" height="67.886" viewBox="0 0 93.99 67.886">
  <path id="Path_40902" data-name="Path 40902" d="M3,7.569a10.411,10.411,0,0,0-3,7.32v47A10.445,10.445,0,0,0,10.445,72.33h54.8L3,7.569ZM83.548,4.444h-54.8L90.991,69.208a10.4,10.4,0,0,0,3-7.323v-47A10.445,10.445,0,0,0,83.545,4.444Z" transform="translate(0 -4.444)" fill="#ce1126"/>
  <path id="Path_40903" data-name="Path 40903" d="M3.844,5.522A10.427,10.427,0,0,0,1.021,7.566L63.268,72.33h4.791L3.844,5.522ZM26.769,4.444H21.978L86.19,71.252a10.487,10.487,0,0,0,2.826-2.044L26.769,4.444Z" transform="translate(1.978 -4.444)" fill="#eee"/>
  <path id="Path_40904" data-name="Path 40904" d="M6.6,4.444A10.4,10.4,0,0,0,1.984,5.519L66.2,72.327H79.707a10.444,10.444,0,0,0,4.617-1.072l.006,0L20.116,4.444H6.6Z" transform="translate(3.844 -4.444)" fill="#141414"/>
</svg>
