<svg id="TUN" xmlns="http://www.w3.org/2000/svg" width="93.996" height="67.886" viewBox="0 0 93.996 67.886">
  <path id="Path_40893" data-name="Path 40893" d="M83.55,4.444H10.444A10.445,10.445,0,0,0,0,14.889v47A10.445,10.445,0,0,0,10.444,72.33H83.55A10.445,10.445,0,0,0,93.995,61.885v-47A10.445,10.445,0,0,0,83.55,4.444Z" transform="translate(0.001 -4.444)" fill="#e70013"/>
  <path id="Path_40894" data-name="Path 40894" d="M44.165,27.194A16.972,16.972,0,1,1,27.194,10.222,16.972,16.972,0,0,1,44.165,27.194Z" transform="translate(19.806 6.75)" fill="#fff"/>
  <path id="Path_40895" data-name="Path 40895" d="M17.6,24.4A10.184,10.184,0,0,1,34.685,16.9a12.727,12.727,0,1,0,0,14.98A10.184,10.184,0,0,1,17.6,24.39Z" transform="translate(22.607 9.547)" fill="#e70013"/>
  <path id="Path_40896" data-name="Path 40896" d="M23.092,18.015l-3.26-4.488v5.549l-5.275,1.715,5.275,1.715v5.549l3.26-4.488,5.275,1.712-3.26-4.488,3.26-4.488Z" transform="translate(28.202 13.152)" fill="#e70013"/>
</svg>
