<svg id="TUR" xmlns="http://www.w3.org/2000/svg" width="93.996" height="67.886" viewBox="0 0 93.996 67.886">
  <path id="Path_40900" data-name="Path 40900" d="M93.995,61.885A10.445,10.445,0,0,1,83.55,72.33H10.444A10.445,10.445,0,0,1,0,61.885v-47A10.445,10.445,0,0,1,10.444,4.444H83.55A10.445,10.445,0,0,1,93.995,14.889Z" transform="translate(0.001 -4.444)" fill="#e30917"/>
  <path id="Path_40901" data-name="Path 40901" d="M30.329,44.325a15.664,15.664,0,1,1,9.156-28.356,19.2,19.2,0,1,0,0,25.39,15.56,15.56,0,0,1-9.156,2.973ZM40.544,29.259l6.371,1.469.576,6.509,3.363-5.6L57.225,33.1,52.934,28.17l3.36-5.6-6.013,2.558L45.99,20.192l.576,6.512Z" transform="translate(11.448 5.283)" fill="#eee"/>
</svg>
