<svg id="TUV" xmlns="http://www.w3.org/2000/svg" width="93.996" height="67.886" viewBox="0 0 93.996 67.886">
  <path id="Path_40905" data-name="Path 40905" d="M83.55,4.446H10.444a10.359,10.359,0,0,0-1.577.117L8.855,9.143,1.726,9.131A10.4,10.4,0,0,0,0,14.888v47A10.445,10.445,0,0,0,10.444,72.329H83.55A10.445,10.445,0,0,0,93.995,61.884v-47A10.445,10.445,0,0,0,83.55,4.443Z" transform="translate(0.001 -4.443)" fill="#5b97b1"/>
  <path id="Path_40906" data-name="Path 40906" d="M16.481,61.107l-1.272-3.912-1.272,3.912H9.819l3.331,2.42-1.272,3.915,3.328-2.42,3.331,2.42-1.272-3.915,3.328-2.42Zm16.933-3.043,1.272-3.912-3.331,2.417-3.328-2.417L29.3,58.064l-3.331,2.42h4.118L31.358,64.4l1.272-3.915h4.118Zm1.269-17.715-3.331,2.417-3.328-2.417L29.3,44.261l-3.331,2.42h4.118L31.355,50.6l1.272-3.915h4.118l-3.328-2.42ZM46.362,54.574l1.272-3.912L44.3,53.079l-3.328-2.417,1.272,3.912-3.331,2.42h4.118l1.272,3.912,1.275-3.912H49.7ZM43.031,26.967,44.3,30.879l1.275-3.912h4.115l-3.328-2.42,1.272-3.915-3.331,2.42-3.328-2.42,1.272,3.915-3.331,2.42ZM54.9,44.029l-1.272-3.912-1.275,3.912H48.239l3.328,2.42-1.272,3.915,3.331-2.42,3.328,2.42L55.682,46.45l3.331-2.42Zm.112-21.16,1.272,3.915,1.275-3.915h4.115l-3.328-2.417,1.272-3.915-3.331,2.42-3.328-2.42,1.272,3.915L50.9,22.869ZM66.937,36.281l-1.272-3.912-1.272,3.912H60.276l3.331,2.42-1.275,3.915,3.331-2.42,3.331,2.42L67.719,38.7l3.331-2.42ZM63.609,12.219l-1.275,3.915,3.331-2.42L69,16.134l-1.275-3.915L71.052,9.8H66.934L65.663,5.886,64.391,9.8H60.273Z" transform="translate(19.025 -1.648)" fill="#ffce00"/>
  <path id="Path_40907" data-name="Path 40907" d="M28.721,14.807V4.444H20.887V17.5H0v7.834H20.887V38.384h7.834V25.331H49.608V17.5H28.721Z" transform="translate(0.003 -4.441)" fill="#cf1b2b"/>
  <path id="Path_40908" data-name="Path 40908" d="M49.61,38.387V4.444H10.447a11.38,11.38,0,0,0-1.577.117L8.858,9.141,1.729,9.129s-.109.153-.332.535A10.428,10.428,0,0,0,0,14.886v23.5H49.607Z" transform="translate(0.001 -4.441)" fill="#00247d"/>
  <path id="Path_40909" data-name="Path 40909" d="M49.6,4.446H43.518l-12.19,8.536V4.446H18.275v6.709L8.864,4.563A10.305,10.305,0,0,0,4.5,6.3l12.278,8.589H12.245L2.525,8.076a10.661,10.661,0,0,0-.8,1.054l8.227,5.757H0V27.941H10.144L0,35.164v3.222H8.7l9.576-6.706v6.706H31.331V29.85l12.187,8.536h6.089v-5.3l-7.349-5.146h7.349V14.888H42.261l7.346-5.146v-5.3Z" transform="translate(0.007 -4.443)" fill="#eee"/>
  <path id="Path_40910" data-name="Path 40910" d="M28.721,4.444H20.887V17.5H0v7.834H20.887V38.384h7.834V25.331H49.608V17.5H28.721Z" transform="translate(0.003 -4.441)" fill="#cf1b2b"/>
  <path id="Path_40911" data-name="Path 40911" d="M48.343,4.444H44.527L30.064,14.572v.317h4.1L48.34,4.961ZM3.235,6.3A10.536,10.536,0,0,0,1.258,8.077l9.719,6.812h4.529L3.232,6.3ZM15.542,27.942.653,38.387H5.162l11.852-8.3V27.942Zm32.8,9.928V34.686l-9.625-6.741h-4.55Z" transform="translate(1.268 -4.441)" fill="#cf1b2b"/>
</svg>
