<svg id="TWN" xmlns="http://www.w3.org/2000/svg" width="93.999" height="67.886" viewBox="0 0 93.999 67.886">
  <path id="Path_40912" data-name="Path 40912" d="M83.548,4.444H44.385V38.387H0v23.5A10.445,10.445,0,0,0,10.445,72.33H83.551A10.445,10.445,0,0,0,94,61.885v-47A10.445,10.445,0,0,0,83.551,4.444Z" transform="translate(0.003 -4.444)" fill="#fe0000"/>
  <path id="Path_40913" data-name="Path 40913" d="M44.387,4.444H10.444A10.445,10.445,0,0,0,0,14.889v23.5H44.384V4.444ZM28.558,16.481l5.314-1.43L29.98,18.934a7.56,7.56,0,0,0-1.422-2.453Zm.655,4.935a6.365,6.365,0,1,1-6.365-6.365A6.366,6.366,0,0,1,29.213,21.416Zm0-11.024-1.43,5.314a7.5,7.5,0,0,0-2.453-1.422Zm-6.365-1.7L24.264,14a7.485,7.485,0,0,0-2.832,0Zm-2.485,5.6a7.56,7.56,0,0,0-2.453,1.422l-1.43-5.314Zm-3.225,2.194a7.5,7.5,0,0,0-1.422,2.453L11.824,15.05l5.314,1.43ZM15.429,20a7.485,7.485,0,0,0,0,2.832l-5.311-1.416Zm.288,3.9a7.582,7.582,0,0,0,1.422,2.453l-5.314,1.43L15.716,23.9Zm.767,8.542,1.43-5.314a7.552,7.552,0,0,0,2.453,1.422Zm6.365,1.707-1.416-5.311a7.485,7.485,0,0,0,2.832,0Zm2.482-5.6a7.582,7.582,0,0,0,2.453-1.422l1.43,5.314L25.33,28.547Zm3.228-2.2A7.5,7.5,0,0,0,29.98,23.9l3.892,3.883Zm1.707-3.519a7.485,7.485,0,0,0,0-2.832l5.311,1.416Z" transform="translate(0.001 -4.444)" fill="#000095"/>
  <path id="Path_40914" data-name="Path 40914" d="M17.59,11.2,16.174,5.889,14.758,11.2a7.485,7.485,0,0,1,2.832,0Zm-8.97,7.417A7.512,7.512,0,0,1,8.755,17.2L3.444,18.616l5.311,1.416A7.738,7.738,0,0,1,8.619,18.616Zm6.139,7.42,1.416,5.311,1.416-5.311a7.488,7.488,0,0,1-1.416.135A7.738,7.738,0,0,1,14.758,26.036Zm8.968-7.42a7.512,7.512,0,0,1-.135,1.416L28.9,18.616,23.591,17.2A7.738,7.738,0,0,1,23.726,18.616ZM22.539,7.593l-3.883,3.892a7.582,7.582,0,0,1,2.453,1.422Zm-.655,15.958,5.314,1.43L23.306,21.1A7.56,7.56,0,0,1,21.884,23.551ZM9.809,29.64l3.883-3.892a7.582,7.582,0,0,1-2.453-1.422Zm.655-15.958-5.314-1.43,3.892,3.883a7.56,7.56,0,0,1,1.422-2.453Zm8.192,12.066,3.883,3.892-1.43-5.314A7.53,7.53,0,0,1,18.656,25.748ZM9.042,21.1,5.151,24.981l5.314-1.43A7.469,7.469,0,0,1,9.042,21.1Zm4.647-9.611L9.806,7.6l1.43,5.314A7.53,7.53,0,0,1,13.689,11.487Zm13.509.764-5.314,1.43a7.5,7.5,0,0,1,1.422,2.453Z" transform="translate(6.675 -1.645)" fill="#fff"/>
  <path id="Path_40915" data-name="Path 40915" d="M18.341,14.42a6.365,6.365,0,1,1-6.365-6.365A6.364,6.364,0,0,1,18.341,14.42Z" transform="translate(10.873 2.551)" fill="#fff"/>
</svg>
