<svg id="TZA" xmlns="http://www.w3.org/2000/svg" width="93.996" height="67.889" viewBox="0 0 93.996 67.889">
  <path id="Path_40916" data-name="Path 40916" d="M10.445,4.444A10.445,10.445,0,0,0,0,14.889v40.8L69.073,4.447H10.442Z" transform="translate(0.003 -4.444)" fill="#1eb53a"/>
  <path id="Path_40917" data-name="Path 40917" d="M67.224,61.429A10.445,10.445,0,0,0,77.669,50.984V10.071L8.426,61.426h58.8Z" transform="translate(16.326 6.457)" fill="#00a3dd"/>
  <path id="Path_40918" data-name="Path 40918" d="M83.55,4.444H76.938L0,60.94v.946A10.445,10.445,0,0,0,10.444,72.33h6.441L93.995,15.72v-.831A10.445,10.445,0,0,0,83.55,4.444Z" transform="translate(0.001 -4.444)" fill="#141414"/>
  <path id="Path_40919" data-name="Path 40919" d="M69.073,4.444,0,55.688V60.94l76.939-56.5ZM24.75,72.33,93.993,20.975V15.723L16.883,72.333Z" transform="translate(0.003 -4.444)" fill="#fbd035"/>
</svg>
