<svg id="UGA" xmlns="http://www.w3.org/2000/svg" width="93.999" height="67.886" viewBox="0 0 93.999 67.886">
  <path id="Path_40922" data-name="Path 40922" d="M93.993,25.722V23.111H0v2.611A10.445,10.445,0,0,0,10.445,36.167H83.551A10.445,10.445,0,0,0,94,25.722Z" transform="translate(0.003 31.719)" fill="#d90001"/>
  <path id="Path_40923" data-name="Path 40923" d="M0,19.556H93.993V30H0Z" transform="translate(0.003 24.832)" fill="#fcdc02"/>
  <path id="Path_40924" data-name="Path 40924" d="M0,16H93.993V26.445H0Z" transform="translate(0.003 17.943)" fill="#141414"/>
  <path id="Path_40925" data-name="Path 40925" d="M0,12.444H93.993V22.889H0Z" transform="translate(0.003 11.054)" fill="#d90001"/>
  <path id="Path_40926" data-name="Path 40926" d="M0,8.889H93.993V19.334H0Z" transform="translate(0.003 4.167)" fill="#fcdc02"/>
  <path id="Path_40927" data-name="Path 40927" d="M0,14.889V17.5H93.995V14.889A10.445,10.445,0,0,0,83.55,4.444H10.444A10.445,10.445,0,0,0,0,14.889Z" transform="translate(0.001 -4.444)" fill="#141414"/>
  <path id="Path_40928" data-name="Path 40928" d="M33.334,22.889A10.445,10.445,0,1,1,22.889,12.444,10.445,10.445,0,0,1,33.334,22.889Z" transform="translate(24.11 11.054)" fill="#fff"/>
  <path id="Path_40929" data-name="Path 40929" d="M15.876,14.727l-.7-1.836a4.969,4.969,0,0,1,2.981,0,2.217,2.217,0,0,1,1.225,1.836l-1.751.529-1.756-.529Z" transform="translate(29.411 11.465)" fill="#d90000"/>
  <path id="Path_40930" data-name="Path 40930" d="M15.639,14.475V12.689a2.57,2.57,0,0,1,1.1,0,1.739,1.739,0,0,1,1.184.684l-1.143,1.389-1.143-.288Z" transform="translate(30.3 11.432)" fill="#fcdc02"/>
  <path id="Path_40931" data-name="Path 40931" d="M18.285,18.766c-.217-.382,0-2.611.623-2.773s1.821-2.121,0-2.773a1.6,1.6,0,0,0-2.2,1.251s-1.8.529-1.577.978,1.742-.162,2.068.217-.162.925-1.469,2.45a3.227,3.227,0,0,0,.162,4.124c.6.535,1.3.937,1.848,1.425a5,5,0,0,0,1.169.764v1.577a18.394,18.394,0,0,1-2.691.056,1.565,1.565,0,0,0-1.686,1.2c-.217.7.326,1.09.326.546s.217-.22.267.217.438.27.438-.27.217-.326.27-.056.435-.109.491-.435.543-.491.978-.6a6.062,6.062,0,0,1,1.6.106v2.881s-2.42.162-2.638.491,1.469.27,1.469.27-.491.925-.27.978,1.742-.925,2.338-1.034,1.522.27,1.633,0-1.469-.652-1.633-.925a22.982,22.982,0,0,1-.491-2.773,12.025,12.025,0,0,1,1.58,0c.869.056.652-.708.109-1.469s-.056-.978.869-.814,1.633,0,1.633-1.469-5-3.754-5.22-4.136Zm1.9,7.07h-.6l.217-1.09s.764,1.09.382,1.09Z" transform="translate(28.048 12.295)" fill="#141414"/>
  <path id="Path_40932" data-name="Path 40932" d="M16.215,14.364c.076-.649-.978-.6-1.034,0S16.11,15.292,16.215,14.364Z" transform="translate(29.409 13.866)" fill="#d90000"/>
  <path id="Path_40933" data-name="Path 40933" d="M16.126,15.156a31.516,31.516,0,0,1,4.57,1.836c.9.408.79,1.959.64,2.9a1.653,1.653,0,0,1-.681,1.225,4.39,4.39,0,0,0-2.45-2.244C15.706,17.891,14.983,15.565,16.126,15.156Z" transform="translate(30.221 16.299)" fill="#9ca69c"/>
  <path id="Path_40934" data-name="Path 40934" d="M17.956,15.764c1.1.288,3.425.814,3.63,3.184S19.369,22.7,19.369,22.7l.405-.734-.717.247.314-.532-1.131.247s1.892-1.51,1.234-2.855a1.377,1.377,0,0,1-.7,1.428s.646-1.557-2.162-3.263l.734-.188-.731-.587,1.551.587-.737-.913,1.469.573-.937-.94Z" transform="translate(32.183 17.486)" fill="#d90000"/>
  <path id="Path_40935" data-name="Path 40935" d="M15.992,13.808a.267.267,0,1,1-.267-.267A.266.266,0,0,1,15.992,13.808Z" transform="translate(29.947 13.179)" fill="#9ca69c"/>
</svg>
