<svg id="URY" xmlns="http://www.w3.org/2000/svg" width="93.999" height="67.886" viewBox="0 0 93.999 67.886">
  <path id="Path_40954" data-name="Path 40954" d="M0,37.776A10.445,10.445,0,0,0,10.445,48.221H83.551A10.445,10.445,0,0,0,94,37.776V35.165H0v2.611ZM0,16.889H93.993V27.334H0Z" transform="translate(0.003 19.665)" fill="#0038a8"/>
  <path id="Path_40955" data-name="Path 40955" d="M0,20.444H93.993v7.834H0Z" transform="translate(0.003 26.552)" fill="#eee"/>
  <path id="Path_40956" data-name="Path 40956" d="M66.441,14.889A10.445,10.445,0,0,0,56,4.444H14.222V14.889ZM14.222,22.723H66.441V33.168H14.222Z" transform="translate(27.555 -4.444)" fill="#0038a8"/>
  <path id="Path_40957" data-name="Path 40957" d="M41.776,14.889V4.444H10.444A10.445,10.445,0,0,0,0,14.889V41H93.992V33.165H41.773V22.72H93.992V14.886H41.773Z" transform="translate(0.001 -4.444)" fill="#eee"/>
  <path id="Path_40958" data-name="Path 40958" d="M28.775,19.276A13.053,13.053,0,1,0,15.721,32.329,13.051,13.051,0,0,0,28.775,19.276Z" transform="translate(5.172 -0.998)" fill="#ffd983"/>
  <path id="Path_40959" data-name="Path 40959" d="M24.445,17.556A10.445,10.445,0,1,0,14,28,10.443,10.443,0,0,0,24.445,17.556Z" transform="translate(6.89 0.723)" fill="#ffcc4d"/>
  <path id="Path_40960" data-name="Path 40960" d="M18.14,4.975l1.654,10.551L26.5,7.216l-3.845,9.963,9.963-3.845-8.31,6.709L34.862,21.7,24.311,23.351l8.31,6.709-9.963-3.845L26.5,36.178l-6.709-8.31L18.14,38.419,16.486,27.868l-6.709,8.31,3.845-9.963L3.659,30.059l8.31-6.709L1.418,21.7l10.551-1.654-8.31-6.709,9.963,3.845L9.777,7.216l6.709,8.31Z" transform="translate(2.75 -3.415)" fill="#ffac33"/>
  <path id="Path_40961" data-name="Path 40961" d="M20.111,15.834a7.834,7.834,0,1,0-7.834,7.834A7.834,7.834,0,0,0,20.111,15.834Z" transform="translate(8.612 2.445)" fill="#c1694f"/>
  <path id="Path_40962" data-name="Path 40962" d="M5.186,14.38A5.622,5.622,0,1,1,10.808,20,5.623,5.623,0,0,1,5.186,14.38Z" transform="translate(10.05 3.908)" fill="#ffac33"/>
</svg>
