<svg id="USA" xmlns="http://www.w3.org/2000/svg" width="93.996" height="67.886" viewBox="0 0 93.996 67.886">
  <path id="Path_40936" data-name="Path 40936" d="M92.545,9.666a10.393,10.393,0,0,0-8.994-5.222H47V9.666H92.548ZM0,56.663H93.993v5.222H0ZM47,35.776h47V41H47Zm0-10.442h47v5.222H47ZM0,46.221H93.993v5.222H0ZM10.445,72.33H83.551a10.393,10.393,0,0,0,8.994-5.222H1.451a10.393,10.393,0,0,0,8.994,5.222ZM47,14.889h47v5.222H47Z" transform="translate(0.003 -4.444)" fill="#b22334"/>
  <path id="Path_40937" data-name="Path 40937" d="M.178,60.215c.044.244.094.485.153.723.068.264.153.517.241.773a10.85,10.85,0,0,0,.869,1.939l.009.012,91.1-.012a10.924,10.924,0,0,0,.867-1.936c.088-.258.176-.517.244-.787.059-.235.109-.476.153-.717a9.766,9.766,0,0,0,.179-1.774H0a10.09,10.09,0,0,0,.176,1.774ZM0,48H93.995v5.222H0ZM0,37.554v5.222H93.995V37.554H0ZM47,27.109h47v5.222H47Zm0-10.442h47v5.222H47ZM0,11.444A10.713,10.713,0,0,1,.178,9.67,9.766,9.766,0,0,0,0,11.444ZM1.45,6.222ZM.337,8.948c.065-.267.156-.52.241-.775C.49,8.428.4,8.683.337,8.948ZM47,11.444h47a9.792,9.792,0,0,0-.179-1.774c-.044-.241-.091-.482-.153-.717-.071-.27-.153-.529-.247-.787a10.992,10.992,0,0,0-.867-1.933s0-.009,0-.012H47v5.222Z" transform="translate(0.001 -1)" fill="#eee"/>
  <path id="Path_40938" data-name="Path 40938" d="M47,4.444H10.445A10.445,10.445,0,0,0,0,14.889V41H47V4.447Z" transform="translate(0.003 -4.444)" fill="#3c3b6e"/>
  <path id="Path_40939" data-name="Path 40939" d="M1.779,8.118,3.392,9.29l-.617,1.892,1.61-1.169L6,11.181,5.38,9.29,6.993,8.118H5L4.381,6.223,3.768,8.118ZM7,13.337l1.613,1.172L7.994,16.4,9.6,15.232,11.216,16.4,10.6,14.509l1.613-1.172H10.218L9.6,11.443l-.614,1.895Zm10.445,0,1.613,1.172L18.439,16.4l1.61-1.169L21.661,16.4l-.617-1.892,1.613-1.172H20.663l-.617-1.895-.614,1.895Zm10.445,0L29.5,14.509,28.884,16.4l1.61-1.169L32.106,16.4l-.617-1.892L33.1,13.337H31.108l-.617-1.895-.614,1.895ZM7,23.782l1.613,1.172-.617,1.892L9.6,25.677l1.613,1.169L10.6,24.954l1.613-1.172H10.218L9.6,21.887l-.614,1.895Zm10.445,0,1.613,1.172-.617,1.892,1.61-1.169,1.613,1.169-.617-1.892,1.613-1.172H20.663l-.617-1.895-.614,1.895Zm10.445,0L29.5,24.954l-.617,1.892,1.61-1.169,1.613,1.169-.617-1.892L33.1,23.782H31.108l-.617-1.895-.614,1.895ZM12.221,8.118,13.834,9.29l-.617,1.892,1.61-1.169,1.613,1.169L15.822,9.29l1.613-1.172H15.44l-.617-1.895L14.21,8.118Zm10.445,0L24.279,9.29l-.617,1.892,1.61-1.169,1.613,1.169L26.267,9.29,27.88,8.118H25.885l-.617-1.895-.614,1.895Zm10.442,0L34.721,9.29,34.1,11.181l1.61-1.169,1.613,1.169L36.709,9.29l1.613-1.172H36.327L35.71,6.223,35.1,8.118ZM1.779,18.56l1.613,1.172-.617,1.892,1.61-1.169L6,21.623,5.38,19.732,6.993,18.56H5l-.617-1.895L3.768,18.56ZM13.22,21.626l1.61-1.169,1.613,1.169-.617-1.892,1.613-1.172H15.443l-.617-1.895-.614,1.895H12.218l1.613,1.172Zm9.446-3.067,1.613,1.172-.617,1.892,1.61-1.169,1.613,1.169-.617-1.892L27.88,18.56H25.885l-.617-1.895-.614,1.895Zm10.442,0,1.613,1.172L34.1,21.623l1.61-1.169,1.613,1.169-.617-1.892,1.613-1.172H36.327l-.617-1.895L35.1,18.56ZM1.779,29l1.613,1.172-.617,1.892L4.384,30.9,6,32.068,5.38,30.176,6.993,29H5L4.381,27.11,3.768,29ZM13.22,32.068l1.61-1.169,1.613,1.169-.617-1.892L17.438,29H15.443l-.617-1.895L14.213,29H12.218l1.613,1.172ZM22.666,29l1.613,1.172-.617,1.892,1.61-1.169,1.613,1.169-.617-1.892L27.88,29H25.885l-.617-1.895L24.655,29Zm10.442,0,1.613,1.172L34.1,32.068l1.61-1.169,1.613,1.169-.617-1.892L38.322,29H36.327L35.71,27.11,35.1,29Z" transform="translate(3.449 -0.998)" fill="#fff"/>
</svg>
