<svg id="UZB" xmlns="http://www.w3.org/2000/svg" width="93.999" height="67.886" viewBox="0 0 93.999 67.886">
  <path id="Path_40963" data-name="Path 40963" d="M0,14.889V25.334H93.995V14.889A10.445,10.445,0,0,0,83.55,4.444H10.444A10.445,10.445,0,0,0,0,14.889Z" transform="translate(0.001 -4.444)" fill="#0099b5"/>
  <path id="Path_40964" data-name="Path 40964" d="M93.993,30.889V20.444H0V30.889A10.445,10.445,0,0,0,10.445,41.334H83.551A10.445,10.445,0,0,0,94,30.889Z" transform="translate(0.003 26.552)" fill="#1eb53a"/>
  <path id="Path_40965" data-name="Path 40965" d="M0,11.556H93.993v3.915H0ZM0,33.747H93.993v3.915H0Z" transform="translate(0.003 9.334)" fill="#ce1126"/>
  <path id="Path_40966" data-name="Path 40966" d="M0,22.027v9.138H93.993V12.889H0Z" transform="translate(0.003 11.916)" fill="#eee"/>
  <path id="Path_40967" data-name="Path 40967" d="M5.523,13.514a8.147,8.147,0,0,1,6.788-8.031,8.267,8.267,0,0,0-1.357-.115,8.145,8.145,0,1,0,0,16.29,8.267,8.267,0,0,0,1.357-.115A8.147,8.147,0,0,1,5.523,13.514Zm12.228,6.013L17.387,18.4l-.364,1.125H15.836l.958.7-.364,1.125.958-.7.955.7-.364-1.125.958-.7Zm7.055,0L24.442,18.4l-.364,1.125H22.894l.958.7-.364,1.125.955-.7.958.7-.364-1.125.958-.7Zm-.367-7.64-.364,1.125H22.891l.958.7-.364,1.125.955-.7.958.7-.364-1.125.958-.7H24.8Zm7.423,7.64L31.5,18.4l-.364,1.125H29.949l.955.7-.364,1.125.958-.7.958.7-.364-1.125.955-.7Zm-.364-7.64-.364,1.125H29.949l.955.7-.364,1.125.958-.7.958.7-.364-1.125.955-.7H31.862Zm0-6.518-.364,1.125H29.949l.955.7L30.54,8.315l.958-.7.958.7L32.091,7.19l.955-.7H31.862ZM38.92,19.527,38.556,18.4l-.364,1.125H37l.958.7L37.6,21.348l.958-.7.955.7-.364-1.125.958-.7Zm-.364-7.64-.364,1.125H37l.958.7L37.6,14.833l.958-.7.955.7-.364-1.125.958-.7H38.92Zm0-6.518-.364,1.125H37l.958.7L37.6,8.315l.958-.7.955.7L39.146,7.19l.958-.7H38.92Zm7.42,14.158L45.611,18.4l-.364,1.125H44.063l.958.7-.364,1.125.955-.7.958.7L46.2,20.223l.958-.7Zm-.367-7.64-.364,1.125H44.06l.958.7-.364,1.125.955-.7.958.7L46.2,13.708l.958-.7H45.972Zm0-6.518-.364,1.125H44.06l.958.7-.364,1.125.955-.7.958.7L46.2,7.19l.958-.7H45.972Z" transform="translate(5.445 -2.652)" fill="#fff"/>
</svg>
