<svg id="VAT" xmlns="http://www.w3.org/2000/svg" width="67.886" height="67.886" viewBox="0 0 67.886 67.886">
  <path id="Path_40970" data-name="Path 40970" d="M41,72.33H14.889A10.445,10.445,0,0,1,4.444,61.885v-47A10.445,10.445,0,0,1,14.889,4.444H41V72.327Z" transform="translate(-4.444 -4.444)" fill="#fddf00"/>
  <path id="Path_40971" data-name="Path 40971" d="M49.943,61.883A10.445,10.445,0,0,1,39.5,72.328H16V4.445H39.5A10.445,10.445,0,0,1,49.943,14.89v47Z" transform="translate(17.943 -4.442)" fill="#eee"/>
  <path id="Path_40972" data-name="Path 40972" d="M26.2,13.7l.858-1.589-1.754.8Z" transform="translate(35.977 10.409)" fill="#a1a1a1"/>
  <path id="Path_40973" data-name="Path 40973" d="M26.735,12.588a.646.646,0,1,0,.646-.646A.644.644,0,0,0,26.735,12.588Zm-1.5.379c-.3.3-.15.946.341,1.433s1.134.646,1.433.341.153-.943-.341-1.433S25.534,12.662,25.231,12.967Z" transform="translate(35.526 10.082)" fill="#a1a1a1"/>
  <path id="Path_40974" data-name="Path 40974" d="M20.356,26.782c.99.937,1.83-.273,3.41-1.674,1.445-1.281,10.935-10.1,11.952-11s.073-2.256-1.11-1.154S22.071,23.557,21.222,24.333s-1.962,1.41-.866,2.45Z" transform="translate(25.495 11.238)" fill="#cb9c2b"/>
  <path id="Path_40975" data-name="Path 40975" d="M40.158,12.94l1.14,1.275-.573.491.573.488.573-.488.814.9v.9l-1.589,1.351-.937-.614V16.5h-.775v.7l.408.038.367.408.038.94-1.41,1.14-2.893-2.743ZM17.476,28.875a3.889,3.889,0,1,0,3.889-3.889A3.89,3.89,0,0,0,17.476,28.875Zm2.491,0a1.272,1.272,0,1,1,1.292-1.269l0,.018c.035,0,.068-.023.106-.023a1.275,1.275,0,1,1,1.292,1.275,1.273,1.273,0,1,1-1.292,1.275c-.038,0-.07-.021-.109-.023l.006.021a1.275,1.275,0,1,1-1.292-1.272Z" transform="translate(20.803 12.015)" fill="#cb9c2b"/>
  <path id="Path_40976" data-name="Path 40976" d="M23.9,17.224c-.3.3-.15.946.341,1.433s1.134.646,1.433.341.153-.943-.341-1.433S24.2,16.919,23.9,17.224Zm-6.251.493a.668.668,0,1,0,.67-.67A.667.667,0,0,0,17.652,17.718Zm5.8,6.424a.668.668,0,1,0,.67-.67A.667.667,0,0,0,23.456,24.142Zm-5.98-.217a.668.668,0,1,0,.67-.67A.667.667,0,0,0,17.476,23.924Z" transform="translate(20.803 19.973)" fill="#a1a1a1"/>
  <path id="Path_40977" data-name="Path 40977" d="M24.752,21.173a2.243,2.243,0,0,0,.825-.966c.781-1.7-.188-4.441-.781-5.5a2.087,2.087,0,0,1,.068-2.55,1,1,0,0,0-.341-.065,1.115,1.115,0,0,0-.814.411c-.764.811-.4,1.895.661,4.359.8,1.845,1.11,3.178.385,4.309Z" transform="translate(32.09 10.376)" fill="#b4b4b5"/>
  <path id="Path_40978" data-name="Path 40978" d="M23.3,13.924a1.93,1.93,0,0,1,1.654-.846,2.778,2.778,0,0,1,1.657.59l.731-1.1a3.346,3.346,0,0,0-1.986-.828,2,2,0,0,0-.673.115A2.187,2.187,0,0,0,23.3,13.924Z" transform="translate(32.083 9.688)" fill="#b4b4b5"/>
  <path id="Path_40979" data-name="Path 40979" d="M18.507,13.7l-.858-1.589,1.754.8Z" transform="translate(21.138 10.409)" fill="#cb9c2b"/>
  <path id="Path_40980" data-name="Path 40980" d="M18.767,12.588a.646.646,0,1,1-.646-.646A.644.644,0,0,1,18.767,12.588Zm1.5.379c.3.3.15.946-.341,1.433s-1.134.646-1.433.341-.153-.943.341-1.433S19.969,12.662,20.268,12.967Z" transform="translate(20.801 10.082)" fill="#cb9c2b"/>
  <path id="Path_40981" data-name="Path 40981" d="M33.918,26.782c-.99.937-1.83-.273-3.41-1.674-1.445-1.281-10.935-10.1-11.952-11s-.073-2.256,1.11-1.154S32.2,23.557,33.051,24.333s1.962,1.41.866,2.45Z" transform="translate(22.058 11.238)" fill="#a1a1a1"/>
  <path id="Path_40982" data-name="Path 40982" d="M20.023,12.94l-1.14,1.275.573.491-.573.488-.573-.488-.814.9v.9l1.589,1.351.937-.614V16.5H20.8v.7l-.408.038-.367.408-.038.94,1.41,1.14,2.893-2.743Zm18.8,12.049a3.889,3.889,0,1,0,3.889,3.889A3.89,3.89,0,0,0,38.819,24.989Zm2.655,5.161a1.275,1.275,0,0,1-2.55,0l.006-.021c-.038,0-.071.023-.109.023a1.275,1.275,0,1,1-1.292-1.275A1.272,1.272,0,1,1,38.822,27.6c.038,0,.07.021.106.023l0-.018a1.275,1.275,0,1,1,1.292,1.269,1.277,1.277,0,0,1,1.257,1.272Z" transform="translate(20.843 12.015)" fill="#a1a1a1"/>
  <path id="Path_40983" data-name="Path 40983" d="M25.165,17.224c.3.3.15.946-.341,1.433s-1.134.646-1.433.341-.153-.943.341-1.433S24.865,16.919,25.165,17.224Zm6.251.493a.668.668,0,1,1-.67-.67A.667.667,0,0,1,31.416,17.718Zm-5.8,6.424a.668.668,0,1,1-.67-.67A.667.667,0,0,1,25.612,24.142Zm5.98-.217a.668.668,0,1,1-.67-.67A.667.667,0,0,1,31.592,23.924Z" transform="translate(31.959 19.973)" fill="#cb9c2b"/>
  <path id="Path_40984" data-name="Path 40984" d="M27.953,17.451c0,3.83-1.668,3.724-3.727,3.724s-3.724.106-3.724-3.724,1.668-7.969,3.724-7.969,3.727,4.139,3.727,7.969Z" transform="translate(26.663 5.316)"/>
  <path id="Path_40985" data-name="Path 40985" d="M23.889,20.741A3.957,3.957,0,0,1,21.48,20.3c-.605-.473-.89-1.43-.89-3.02,0-3.889,1.715-7.707,3.466-7.707s3.466,3.818,3.466,7.707c0,3.466-1.392,3.466-3.155,3.466h-.479Z" transform="translate(26.835 5.488)" fill="#fff"/>
  <path id="Path_40986" data-name="Path 40986" d="M26.285,13.559c-1.3-.382-1.093-1.633-1.947-1.633s-.643,1.251-1.947,1.633a2.033,2.033,0,0,1-1.947-.217l.608,2.5a5.3,5.3,0,0,1,3.287-.925,5.3,5.3,0,0,1,3.287.925l.608-2.5A2.055,2.055,0,0,1,26.285,13.559Z" transform="translate(26.551 10.051)" fill="#cb9c2b"/>
  <path id="Path_40987" data-name="Path 40987" d="M26.781,12.488c-1.448-.4-1.213-1.718-2.162-1.718s-.717,1.319-2.162,1.718a2.362,2.362,0,0,1-2.159-.226l.673,2.632a6.1,6.1,0,0,1,3.648-.975,6.1,6.1,0,0,1,3.648.975l.673-2.632A2.341,2.341,0,0,1,26.781,12.488Z" transform="translate(26.27 7.811)" fill="#cb9c2b"/>
  <path id="Path_40988" data-name="Path 40988" d="M25.989,12.265c-1.219-.338-1.022-1.445-1.821-1.445s-.6,1.11-1.821,1.445a1.984,1.984,0,0,1-1.818-.191l.57,2.218a6.348,6.348,0,0,1,3.069-.617,6.348,6.348,0,0,1,3.069.617l.57-2.218a2,2,0,0,1-1.821.191ZM23.707,9.8c0,.388.209.7.464.7s.464-.314.464-.7-.209-.7-.464-.7S23.707,9.407,23.707,9.8Z" transform="translate(26.717 4.562)" fill="#cb9c2b"/>
  <path id="Path_40989" data-name="Path 40989" d="M21.37,9.392c0,.267.526.482,1.172.482s1.172-.217,1.172-.482-.526-.485-1.172-.485S21.37,9.127,21.37,9.392Z" transform="translate(28.346 4.202)" fill="#cb9c2b"/>
  <path id="Path_40990" data-name="Path 40990" d="M21.611,9.149a.464.464,0,1,0,.464-.482A.474.474,0,0,0,21.611,9.149Z" transform="translate(28.813 3.737)" fill="#cb9c2b"/>
  <path id="Path_40991" data-name="Path 40991" d="M20.48,21.173a2.243,2.243,0,0,1-.825-.966c-.781-1.7.188-4.441.781-5.5a2.087,2.087,0,0,0-.068-2.55,1,1,0,0,1,.341-.065,1.115,1.115,0,0,1,.814.411c.764.811.4,1.895-.661,4.359-.8,1.845-1.11,3.178-.385,4.309Z" transform="translate(24.458 10.376)" fill="#b4b4b5"/>
  <path id="Path_40992" data-name="Path 40992" d="M22.906,13.924a1.933,1.933,0,0,0-1.654-.846,2.778,2.778,0,0,0-1.657.59l-.731-1.1a3.346,3.346,0,0,1,1.986-.828,2,2,0,0,1,.673.115A2.191,2.191,0,0,1,22.9,13.924Z" transform="translate(23.492 9.688)" fill="#b4b4b5"/>
  <path id="Path_40993" data-name="Path 40993" d="M22.089,15.146c.523.4.643,1.959.643,3.795V33.261s.8.2.555,2.326c-.07.605-1.263.491-1.469,0s-.106-2.065.27-2.285V19.065a9.6,9.6,0,0,0-.464-3.346c-.109-.4.211-.767.461-.573Z" transform="translate(28.799 16.186)" fill="#ec1c24"/>
  <path id="Path_40994" data-name="Path 40994" d="M28.323,23.739a10.268,10.268,0,0,1-1.845-2.121c-.814-1.143-1.022-1.921-1.83-2.9s-2.928-3.008-3.431-2.937c-.2.029-.408.491-.217.652a22.348,22.348,0,0,0,2.132,1.836c1.348,1.022,1.551,2.162,2.673,3.795,1.037,1.507,1.933,2.535,2.738,2.673a4.014,4.014,0,0,1-.223-1Z" transform="translate(27.485 17.512)" fill="#ec1c24"/>
  <path id="Path_40995" data-name="Path 40995" d="M27.43,15.671c-.479.458-1.956,1.9-2.761,2.843s-1.821,3.184-2.72,4.2a11.128,11.128,0,0,1-1.677,1.557,3.905,3.905,0,0,1-.253,1.016A5.891,5.891,0,0,0,22.751,22.8c1.6-2.326,2.379-4.039,3.155-4.691a18.21,18.21,0,0,0,1.522-1.3c.438-.458.482-1.6,0-1.14Z" transform="translate(25.729 17.1)" fill="#ec1c24"/>
  <path id="Path_40996" data-name="Path 40996" d="M21.852,16.351V31.446a2.211,2.211,0,0,0-.458,2.412c.162.567,1.574.564,1.795.282a3.1,3.1,0,0,0-.529-2.855V17.291c0-.367-.811-1.5-.811-.94Z" transform="translate(28.082 18.326)" fill="#ec1c24"/>
  <path id="Path_40997" data-name="Path 40997" d="M20.168,18.682c-.775.54-1.442,1.472.294,2.168a17.75,17.75,0,0,0,5.96,1.633,16.93,16.93,0,0,0,6.389-1.9c.846-.59,1.21-1.292-.135-1.689-.708-.209-.814.326-.446.449s.8.505-.132.843a15.387,15.387,0,0,1-5.822,1.334,16.422,16.422,0,0,1-5.813-1.334c-.429-.153-.546-.64-.244-.843s.3-.9-.05-.658Z" transform="translate(24.467 23.048)" fill="#ec1c24"/>
  <path id="Path_40998" data-name="Path 40998" d="M22.822,21.483a.552.552,0,1,1-.552-.552A.552.552,0,0,1,22.822,21.483Z" transform="translate(29.021 27.496)" fill="#cb9c2b"/>
  <path id="Path_40999" data-name="Path 40999" d="M22.506,21.608a.552.552,0,1,1-.552-.552A.552.552,0,0,1,22.506,21.608Z" transform="translate(28.408 27.738)" fill="#cb9c2b"/>
</svg>
