<svg id="VCT" xmlns="http://www.w3.org/2000/svg" width="93.993" height="67.889" viewBox="0 0 93.993 67.889">
  <path id="Path_41000" data-name="Path 41000" d="M37.053,4.446H24V72.329H37.053A10.445,10.445,0,0,0,47.5,61.884v-47A10.445,10.445,0,0,0,37.053,4.443Z" transform="translate(46.495 -4.443)" fill="#009e60"/>
  <path id="Path_41001" data-name="Path 41001" d="M10.445,4.444A10.445,10.445,0,0,0,0,14.889v47A10.445,10.445,0,0,0,10.445,72.33H23.5V4.447H10.445Z" transform="translate(0 -4.441)" fill="#0072c6"/>
  <path id="Path_41002" data-name="Path 41002" d="M8,4.444H55V72.327H8Z" transform="translate(15.498 -4.441)" fill="#fcd116"/>
  <path id="Path_41003" data-name="Path 41003" d="M18.737,37.7l5.657,11.314L30.051,37.7,24.394,26.388Zm-7.07-14.143,5.657,11.314,5.657-11.314L17.324,12.245Zm14.143,0,5.657,11.314,5.657-11.314L31.467,12.245Z" transform="translate(22.602 10.672)" fill="#009e60"/>
</svg>
