<svg id="VEN" xmlns="http://www.w3.org/2000/svg" width="93.999" height="67.886" viewBox="0 0 93.999 67.886">
  <path id="Path_41004" data-name="Path 41004" d="M0,30.889A10.445,10.445,0,0,0,10.445,41.334H83.551A10.445,10.445,0,0,0,94,30.889V20.444H0V30.889Z" transform="translate(0.003 26.552)" fill="#cf142b"/>
  <path id="Path_41005" data-name="Path 41005" d="M0,37.664H93.993V11.555H0ZM66.1,28.4l.7,1.933,2.056-.07-1.618,1.266.7,1.933-1.7-1.148-1.618,1.266.567-1.977-1.7-1.148,2.056-.07L66.1,28.4ZM62.922,24.05l1.906-.77-1.09,1.742L65.061,26.6l-1.994-.5-1.09,1.742-.144-2.05-1.994-.5,1.906-.77-.144-2.05,1.322,1.574Zm-7.572-5.6,1.78,1.028L58.657,18.1l-.429,2.009,1.78,1.028-2.044.214-.429,2.009L56.7,21.486l-2.044.214,1.527-1.375-.834-1.877Zm-5.225-1.287.966-1.815.288,2.033,2.024.358-1.845.9.288,2.033-1.428-1.477-1.85.9.966-1.815L48.107,16.8l2.024.358Zm-7.508.22L42.9,15.35l.966,1.815,2.024-.358-1.428,1.477.966,1.815-1.845-.9-1.428,1.477.288-2.033-1.845-.9,2.018-.358Zm-7.282.72,1.527,1.375,1.777-1.028-.834,1.877L39.333,21.7l-2.044-.214-.834,1.877-.429-2.009-2.044-.214,1.78-1.028L35.335,18.1Zm-6.171,5.178,1.906.77,1.322-1.574-.144,2.05,1.906.77-1.994.5-.144,2.05L30.927,26.1l-1.994.5,1.322-1.574-1.09-1.742ZM27.19,30.327l.7-1.933.567,1.977,2.056.07-1.7,1.148.567,1.977L27.76,32.3l-1.7,1.148.7-1.933L25.14,30.251l2.056.076Z" transform="translate(0.003 9.332)" fill="#00247d"/>
  <path id="Path_41006" data-name="Path 41006" d="M83.55,4.444H10.444A10.445,10.445,0,0,0,0,14.889V25.334H93.992V14.889A10.445,10.445,0,0,0,83.547,4.444Z" transform="translate(0.001 -4.444)" fill="#fc0"/>
  <path id="Path_41007" data-name="Path 41007" d="M31.983,17.6l1.845-.9,1.428,1.477-.288-2.033,1.848-.9-2.024-.358L34.5,12.846l-.963,1.815L31.513,14.3,32.94,15.78Zm8.142,1.389.834,1.877.426-2.009,2.044-.217L41.652,17.61l.426-2.009-1.527,1.375-1.777-1.025.834,1.877L38.081,19.2Zm3.134,3.81,1.994.5.144,2.05,1.09-1.742,1.991.5-1.322-1.574,1.093-1.742-1.906.77-1.322-1.574.144,2.05Zm5.343,6.3-.567,1.974L49.656,29.8l1.7,1.148-.7-1.933,1.618-1.263-2.053.071-.7-1.93-.567,1.974-2.053.073ZM25.577,18.174,27,16.7l1.845.9-.963-1.815,1.428-1.477-2.027.358-.963-1.815-.288,2.033-2.024.358,1.848.9Zm-6.127.681.426,2.009.834-1.877,2.044.217-1.527-1.375.834-1.877-1.777,1.025L18.756,15.6l.426,2.009-1.777,1.025Zm-5.1,4.744,1.09,1.742.144-2.05,1.994-.5-1.906-.77.144-2.05-1.322,1.574-1.906-.77,1.093,1.742L12.356,24.1ZM9.474,30.951l1.7-1.148L12.8,31.066l-.567-1.974,1.7-1.148-2.053-.073L11.316,25.9l-.7,1.93-2.053-.07,1.618,1.263Z" transform="translate(16.582 11.833)" fill="#fff"/>
</svg>
