<svg id="VGB" xmlns="http://www.w3.org/2000/svg" width="93.996" height="67.886" viewBox="0 0 93.996 67.886">
  <path id="Path_41008" data-name="Path 41008" d="M83.55,4.446H10.444a10.359,10.359,0,0,0-1.577.117L8.855,9.143,1.726,9.131A10.4,10.4,0,0,0,0,14.888v47A10.445,10.445,0,0,0,10.444,72.329H83.55A10.445,10.445,0,0,0,93.995,61.884v-47A10.445,10.445,0,0,0,83.55,4.443Z" transform="translate(0.001 -4.443)" fill="#00247d"/>
  <path id="Path_41009" data-name="Path 41009" d="M52.965,39.067a10.2,10.2,0,0,1-2-1.809,2.53,2.53,0,0,0-2.159-1.477,2.261,2.261,0,0,0-.232.021,2.729,2.729,0,0,0,.458-1.351v-24.1H22.7v24.1A2.719,2.719,0,0,0,23.16,35.8a1.7,1.7,0,0,0-.232-.021,2.536,2.536,0,0,0-2.159,1.477,9.944,9.944,0,0,1-2,1.809,2.189,2.189,0,0,0-1,1.754A3.975,3.975,0,0,0,19.3,43.9a2.139,2.139,0,0,0,1.392.514,2.734,2.734,0,0,0,1.715-.684c4.335,3.583,8.753,5.325,13.462,5.325s9.126-1.745,13.462-5.325a2.741,2.741,0,0,0,1.715.684,2.155,2.155,0,0,0,1.392-.514,3.971,3.971,0,0,0,1.53-3.075,2.167,2.167,0,0,0-1-1.754Z" transform="translate(34.416 7.004)" fill="#fff"/>
  <path id="Path_41010" data-name="Path 41010" d="M31.747,41.843c-5.822-2.6-11.858-6.45-11.858-8.257V10.8H43.608v22.79c0,1.809-6.036,5.66-11.858,8.257Z" transform="translate(38.534 7.864)" fill="#006129"/>
  <path id="Path_41011" data-name="Path 41011" d="M22.6,24.962c-.532.206-.693-1.225,0-2.244s2.735-3.1,3.184-5.017,1.24-1.633,1.618-2.162.435-1.143,0-1.263-1.046-.285-.64-1.877,2.162-1.428,2.162-.326-.408,2.08,0,2.937,1.348.652,1.915,2.285.775,3.222.408,3.915-.573,3.346-1.06,4.039-1.143.408-1.022-.858a24.244,24.244,0,0,1,1.184-3.874c.247-.9-.367-2.735-1.263-2.937s-2.529,1.877-3.263,2.735-2.326,1.51-2.409,2.2-.285,2.238-.814,2.444Z" transform="translate(42.885 8.699)" fill="#ffc6b5"/>
  <path id="Path_41012" data-name="Path 41012" d="M30.722,32.9c-.937.2-3.02.978-4.162.693s-3.184.449-3.466.062.285-2.508.367-3.489.2-1.959.041-1.959-.852,0-.488-1.754.975-4.976.975-4.976-.611-.247-.247-1.225a12.6,12.6,0,0,0,.693-3.836c-.12-.532-1.022-.367-.693-1.184s.573-.978.814-1.589.746-1.093,1.1-.937.755.611,1.151.367.438-.611.969-.573,1.665,1.107,1.428,1.348a3.81,3.81,0,0,0-.74,2.106,39.142,39.142,0,0,1-.928,4.382c-.2.819.693,2.773,1.184,4.612s2,7.948,2,7.948Z" transform="translate(44.387 11.162)" fill="#fff"/>
  <path id="Path_41013" data-name="Path 41013" d="M23.763,11.729a1.551,1.551,0,0,1,2.382-.376,2.291,2.291,0,0,1,.693,3.061c-.693.858-1.1.652-1.363,0s.018-1.237-.35-1.433-.041-.767-.367-.89S23.422,12.64,23.763,11.729Z" transform="translate(45.904 8.191)" fill="#9c5100"/>
  <path id="Path_41014" data-name="Path 41014" d="M20.846,11.115c-.164-.182-.582.576-.417,1.1s.12,1.031.441.952.244-.543.455-.913c.162-.288-.491-.2-.285-.529l-.194-.611Z" transform="translate(39.506 8.429)" fill="red"/>
  <path id="Path_41015" data-name="Path 41015" d="M20.319,12.411h2.162s.285-.978.734-1.022.573.978.573.978a2.531,2.531,0,0,0,1.469-.041c.446-.288,1.551.041.693.529s-.367-.529-.858,0-.937.734-.858.937-.256.364-.943.364-1.137-.159-1.054-.485-.449-.449-1.06-.573a1.263,1.263,0,0,1-.858-.693Z" transform="translate(39.367 9.011)" fill="#f8c600"/>
  <path id="Path_41016" data-name="Path 41016" d="M20.846,12.526c-.164-.182-.582.576-.417,1.1s.12,1.034.441.952.244-.546.455-.913c.162-.288-.491-.2-.285-.529Z" transform="translate(39.506 11.163)" fill="red"/>
  <path id="Path_41017" data-name="Path 41017" d="M20.319,13.823h2.162s.285-.978.734-1.022.573.978.573.978a2.531,2.531,0,0,0,1.469-.041c.449-.285,1.551.041.693.529s-.367-.529-.858,0-.937.734-.858.937-.256.364-.943.364-1.137-.159-1.054-.485-.449-.449-1.06-.573a1.263,1.263,0,0,1-.858-.693Z" transform="translate(39.367 11.746)" fill="#f8c600"/>
  <path id="Path_41018" data-name="Path 41018" d="M20.846,14.1c-.164-.182-.582.576-.417,1.1s.12,1.031.441.952.244-.543.455-.913c.162-.288-.491-.2-.285-.529l-.194-.611Z" transform="translate(39.506 14.204)" fill="red"/>
  <path id="Path_41019" data-name="Path 41019" d="M20.319,15.392h2.162s.285-.978.734-1.022.573.978.573.978a2.531,2.531,0,0,0,1.469-.041c.446-.288,1.551.041.693.529s-.367-.529-.858,0-.937.734-.858.937-.256.364-.943.364-1.137-.162-1.054-.488-.449-.449-1.06-.573a1.262,1.262,0,0,1-.858-.69Z" transform="translate(39.367 14.786)" fill="#f8c600"/>
  <path id="Path_41020" data-name="Path 41020" d="M21.735,15.624c-.164-.182-.582.576-.417,1.1s.12,1.031.441.952.244-.543.455-.913c.162-.288-.491-.2-.285-.529l-.194-.611Z" transform="translate(41.229 17.165)" fill="red"/>
  <path id="Path_41021" data-name="Path 41021" d="M21.208,16.919H23.37s.285-.978.734-1.022.573.978.573.978a2.531,2.531,0,0,0,1.469-.041c.449-.285,1.551.041.693.529s-.367-.529-.858,0-.937.734-.858.937-.256.364-.943.364-1.137-.162-1.054-.488-.449-.449-1.06-.573a1.279,1.279,0,0,1-.858-.69Z" transform="translate(41.089 17.744)" fill="#f8c600"/>
  <path id="Path_41022" data-name="Path 41022" d="M20.794,16.869c-.164-.182-.582.576-.417,1.107s.12,1.031.441.949.244-.543.455-.913c.162-.285-.491-.2-.285-.529l-.194-.611Z" transform="translate(39.406 19.576)" fill="red"/>
  <path id="Path_41023" data-name="Path 41023" d="M20.268,18.165H22.43s.285-.978.734-1.022.573.978.573.978a2.531,2.531,0,0,0,1.469-.041c.449-.285,1.551.041.693.529s-.367-.529-.858,0-.937.734-.858.937-.256.364-.943.364-1.14-.162-1.054-.488-.449-.449-1.06-.573a1.279,1.279,0,0,1-.858-.69Z" transform="translate(39.268 20.158)" fill="#f8c600"/>
  <path id="Path_41024" data-name="Path 41024" d="M20.794,18.355c-.164-.182-.582.576-.417,1.107s.12,1.031.441.949.244-.543.455-.913c.162-.285-.491-.2-.285-.529l-.194-.611Z" transform="translate(39.406 22.455)" fill="red"/>
  <path id="Path_41025" data-name="Path 41025" d="M20.268,19.651H22.43s.285-.978.734-1.022.573.978.573.978a2.531,2.531,0,0,0,1.469-.041c.446-.288,1.551.041.693.529s-.367-.529-.858,0-.937.734-.858.937-.256.364-.943.364-1.14-.162-1.054-.488-.449-.449-1.06-.573a1.279,1.279,0,0,1-.858-.69Z" transform="translate(39.268 23.036)" fill="#f8c600"/>
  <path id="Path_41026" data-name="Path 41026" d="M26.1,18.355c-.164-.182-.582.576-.417,1.107s.12,1.031.441.949.244-.543.455-.913c.162-.285-.491-.2-.285-.529l-.194-.611Z" transform="translate(49.677 22.455)" fill="red"/>
  <path id="Path_41027" data-name="Path 41027" d="M25.57,19.651h2.162s.285-.978.734-1.022.573.978.573.978a2.531,2.531,0,0,0,1.469-.041c.449-.285,1.551.041.693.529s-.367-.529-.858,0-.937.734-.858.937-.256.364-.943.364-1.14-.162-1.054-.488-.449-.449-1.06-.573a1.254,1.254,0,0,1-.858-.69Z" transform="translate(49.539 23.036)" fill="#f8c600"/>
  <path id="Path_41028" data-name="Path 41028" d="M26.1,16.959c-.164-.182-.582.576-.417,1.107s.12,1.031.441.949.244-.543.455-.913c.162-.285-.491-.2-.285-.529l-.194-.611Z" transform="translate(49.677 19.751)" fill="red"/>
  <path id="Path_41029" data-name="Path 41029" d="M25.57,18.255h2.162s.285-.978.734-1.022.573.978.573.978a2.531,2.531,0,0,0,1.469-.041c.449-.285,1.551.041.693.529s-.367-.529-.858,0-.937.734-.858.937S29.23,20,28.543,20s-1.14-.162-1.054-.488-.449-.449-1.06-.573a1.246,1.246,0,0,1-.858-.69Z" transform="translate(49.539 20.332)" fill="#f8c600"/>
  <path id="Path_41030" data-name="Path 41030" d="M26.1,15.531c-.164-.182-.582.576-.417,1.107s.12,1.031.441.949.244-.543.455-.913c.162-.285-.491-.2-.285-.529l-.194-.611Z" transform="translate(49.677 16.984)" fill="red"/>
  <path id="Path_41031" data-name="Path 41031" d="M25.57,16.826h2.162s.285-.978.734-1.022.573.978.573.978a2.531,2.531,0,0,0,1.469-.041c.449-.285,1.551.041.693.529s-.367-.529-.858,0-.937.734-.858.937-.256.364-.943.364-1.14-.159-1.054-.485-.449-.449-1.06-.573a1.254,1.254,0,0,1-.858-.693Z" transform="translate(49.539 17.564)" fill="#f8c600"/>
  <path id="Path_41032" data-name="Path 41032" d="M26.1,14.1c-.164-.182-.582.576-.417,1.107s.12,1.031.441.949.244-.543.455-.913c.162-.285-.491-.2-.285-.529L26.1,14.1Z" transform="translate(49.677 14.204)" fill="red"/>
  <path id="Path_41033" data-name="Path 41033" d="M25.57,15.392h2.162s.285-.978.734-1.022.573.978.573.978a2.531,2.531,0,0,0,1.469-.041c.449-.285,1.551.041.693.529s-.367-.529-.858,0-.937.734-.858.937-.256.364-.943.364-1.14-.162-1.054-.488-.449-.449-1.06-.573a1.254,1.254,0,0,1-.858-.69Z" transform="translate(49.539 14.785)" fill="#f8c600"/>
  <path id="Path_41034" data-name="Path 41034" d="M26.1,12.617c-.164-.182-.582.576-.417,1.107s.12,1.028.441.949.244-.543.455-.913c.162-.285-.491-.2-.285-.529L26.1,12.62Z" transform="translate(49.677 11.339)" fill="red"/>
  <path id="Path_41035" data-name="Path 41035" d="M25.57,13.913h2.162s.285-.978.734-1.022.573.978.573.978a2.531,2.531,0,0,0,1.469-.041c.449-.285,1.551.041.693.529s-.367-.529-.858,0-.937.734-.858.937-.256.364-.943.364-1.14-.162-1.054-.488-.449-.449-1.06-.573a1.254,1.254,0,0,1-.858-.69Z" transform="translate(49.539 11.92)" fill="#f8c600"/>
  <path id="Path_41036" data-name="Path 41036" d="M26.1,11.115c-.164-.182-.582.576-.417,1.107s.12,1.028.441.949.244-.543.455-.913c.162-.285-.491-.2-.285-.529l-.194-.611Z" transform="translate(49.677 8.429)" fill="red"/>
  <path id="Path_41037" data-name="Path 41037" d="M39.84,12.411H42s.285-.978.734-1.022.573.978.573.978a2.531,2.531,0,0,0,1.469-.041c.449-.285,1.551.041.693.529s-.367-.529-.858,0-.937.734-.858.937-.256.364-.943.364-1.14-.159-1.054-.485-.449-.449-1.06-.573a1.254,1.254,0,0,1-.858-.693ZM51.4,38.153a10.559,10.559,0,0,1-2.409-2.229c-.329-.543-.978-1.3-1.674-.493S41.1,41.622,35.008,41.622,23.394,36.238,22.7,35.43s-1.348-.05-1.674.493a10.376,10.376,0,0,1-2.409,2.229c-.819.529-.326,1.915.652,2.735s2.162-.978,2.162-.978c3.387,3.02,7.79,5.833,13.57,5.833s10.186-2.814,13.57-5.833c0,0,1.184,1.8,2.162.978s1.475-2.2.658-2.735Z" transform="translate(35.27 9.01)" fill="#f8c600"/>
  <path id="Path_41038" data-name="Path 41038" d="M49.61,38.387V4.444H10.447a11.38,11.38,0,0,0-1.577.117L8.858,9.141,1.729,9.129s-.109.153-.332.535A10.428,10.428,0,0,0,0,14.886v23.5H49.607Z" transform="translate(0.001 -4.441)" fill="#00247d"/>
  <path id="Path_41039" data-name="Path 41039" d="M49.6,4.446H43.518l-12.19,8.536V4.446H18.275v6.709L8.864,4.563A10.305,10.305,0,0,0,4.5,6.3l12.278,8.589H12.245L2.525,8.076a10.661,10.661,0,0,0-.8,1.054l8.227,5.757H0V27.941H10.144L0,35.164v3.222H8.7l9.576-6.706v6.706H31.331V29.85l12.187,8.536h6.089v-5.3l-7.349-5.146h7.349V14.888H42.261l7.346-5.146v-5.3Z" transform="translate(0.007 -4.443)" fill="#eee"/>
  <path id="Path_41040" data-name="Path 41040" d="M28.721,4.444H20.887V17.5H0v7.834H20.887V38.384h7.834V25.331H49.608V17.5H28.721Z" transform="translate(0.003 -4.441)" fill="#cf1b2b"/>
  <path id="Path_41041" data-name="Path 41041" d="M48.343,4.444H44.527L30.064,14.572v.317h4.1L48.34,4.961ZM3.235,6.3A10.536,10.536,0,0,0,1.258,8.077l9.719,6.812h4.529L3.232,6.3ZM15.542,27.942.653,38.387H5.162l11.852-8.3V27.942Zm32.8,9.928V34.686l-9.625-6.741h-4.55Z" transform="translate(1.268 -4.441)" fill="#cf1b2b"/>
</svg>
