<svg id="VIR" xmlns="http://www.w3.org/2000/svg" width="93.996" height="67.886" viewBox="0 0 93.996 67.886">
  <path id="Path_41042" data-name="Path 41042" d="M93.995,61.885A10.445,10.445,0,0,1,83.55,72.33H10.444A10.445,10.445,0,0,1,0,61.885v-47A10.445,10.445,0,0,1,10.444,4.444H83.55A10.445,10.445,0,0,1,93.995,14.889Z" transform="translate(0.001 -4.444)" fill="#eee"/>
  <path id="Path_41043" data-name="Path 41043" d="M22.1,39.2a1.442,1.442,0,0,1-.978.22,3.684,3.684,0,0,0-1.2.023l-4.212-7.249s-2.262,2.115-4.33.267c1.09.326,2.391-1.85,3.971-.925-1.469-1.363-4.3,1.031-5.713-2.288,1.959,1.2,3.1-.708,4.9.491-1.742-1.959-4.3.179-5.331-2.464,1.577.564,2.881-1.16,4.3,0-1.2-2.432-4.841.943-5.549-3.137,1.577.814,3.319-.217,4.3.6-1.848-3.536-3.536.54-5.111-4.623,1.09,1.522,2.611.056,4.189,2.45-1.143-4.353-4.241-.708-5.222-5.819,1.959-.652,2.773,2.229,4.353,2.829-.978-3.375-3.046-2.4-1.8-6.368,2.829,1.416,1.577,3.807,2.5,6.582.708-.978-.217-2.229.273-3.1s.764-1.3.6-1.742c2.555,2.937-.546,5.44-.27,6.474a2.987,2.987,0,0,0,.708,1.416,4.509,4.509,0,0,1,.27-2.5c.54-.925,1.416-1.251,1.36-2.068a2.836,2.836,0,0,1-.326,3.155,3.955,3.955,0,0,0-.382,3.536c-.167-2.206,1.8-2.068,1.469-4.3,1.09.217,1.472,2.72.27,3.645s-.27,3.481-.27,3.481a4.77,4.77,0,0,1,.708-2.391,2.839,2.839,0,0,0,.869-2.338c.869.708.978,2.72.382,3.7s-1.522,1.522-.6,3.1c-.109-2.881,1.848-2.338,1.8-4.189,1.143.872.491,2.723-.162,3.319a2.816,2.816,0,0,0-.543,1.959,7.426,7.426,0,0,1,1.251-1.36,3.647,3.647,0,0,0,.919-1.472s.673,3.393-1.469,3.536c-.056,1.58,2.99,6.256,4.077,7.561Z" transform="translate(11.844 12.528)" fill="#379543"/>
  <path id="Path_41044" data-name="Path 41044" d="M68.431,24.009l1.122.549L63.4,31.846l5.734-10.891.846,1.19,1.613-7.223-4.708,5.363,1.222.27-4.291,8.063,1.36-5.707,1.09.978v-7.4l-3.428,6.256h1.254l-2.414,9.893L60.406,35.03l-1.463.564-.593,1.04-.414.056-4.788,5.1,2.412.015.482,2.37,2.041-2.435-.737,2.382,2.177-1.043L60.99,45l1.686-6.747-.77-1.457-.021-.068.429-1.8,8.148-9.743.546,1.351,3.243-6.65ZM6.542,13.388H1.537a2.357,2.357,0,0,1,1.577,1.36C3.6,15.891,6.668,24.884,6.921,25.965c.382,1.618-.814,1.944-.814,1.944h4.949s-1.416-.247-.978-1.944S13.4,15.838,13.724,14.8a2.4,2.4,0,0,1,1.251-1.416H10.026s1.686.376,1.2,1.739-2.667,8.65-2.667,8.65-2.45-7.293-2.881-8.65a1.316,1.316,0,0,1,.872-1.739Zm78.845,0h-4.57a2.28,2.28,0,0,1,.887,1.8c0,1.2-.032,10.269-.032,11.138a1.8,1.8,0,0,1-1.046,1.589h4.946s-1.328-.693-1.328-1.674V14.918a1.881,1.881,0,0,1,1.14-1.53Z" transform="translate(2.981 12.883)" fill="#0081c7"/>
  <path id="Path_41045" data-name="Path 41045" d="M81.536,7.545c-1.281.162-5.41,2.394-12.974,3.863-.435-.326-1.251-.162-2.555.435s-7.561,2.338-9.3,2.993-2.658,2-2.45,3.155c.382,2.068,1.9,2.394,1.36,2.993s-2.174-.814-3.263-.162c-.561.338-3.7-.423-3.771-.764a5.028,5.028,0,0,0-1.469-2.229s.925-.162,1.143-.543a7.874,7.874,0,0,1-2.5-2.555s.978.435,1.3,0c-1.251-1.143-1.143-3.754-1.742-4.9a3.125,3.125,0,0,0-2.761-2.068c-1.457-.056-2.024.056-2.9,1.2-.652-.056-.784.708-.784.708s-.576.056-1.5.217a1.74,1.74,0,0,0-1.143,2.338c.217-.6,1.416-.708,2.394-.814s1.686,1.09,1.3,1.469a3.475,3.475,0,0,0-.708,1.8C39,15.6,37.4,16.037,37.4,16.037a1.549,1.549,0,0,0,1.169.435,4.106,4.106,0,0,1-2.338,1.522,1.457,1.457,0,0,0,1.251.491,5.272,5.272,0,0,1-1.251,1.9s-3.025.773-3.589.435c-1.09-.652-2.72.764-3.263.162s.978-.925,1.36-2.993c.211-1.154-.708-2.5-2.45-3.155s-8-2.394-9.3-2.993-2.127-.764-2.561-.438C8.87,9.936,4.734,7.706,3.457,7.542S1.8,9.5,3.7,10.371a1.552,1.552,0,0,0,1.416,2.338c-.652.708.162,2.174,3.1,2.829-.382.764.435,2.555,3.971,3.155-.382,1.09.814,2.229,3.481,2.555-.491.764.435,1.959,2.993,2.229-.814,1.251,1.36,2.121,4.133,2.068-.925.543-.543,2.068.764,2.338-.435.869.764,2.338,2.174,2.121a1.235,1.235,0,0,0,2.012.6c0,.925,2.012,1.959,2.611.764a1.993,1.993,0,0,0,2.649-.147c.038.217.091.429.147.64a6.857,6.857,0,0,1-2.417,3.208,5.036,5.036,0,0,0-2.012,3.807,2.109,2.109,0,0,1-1.034,2.174l.6.22s-.978,1.3-1.522,1.413-3.155-.217-3.645.27-1.469,2.447-.814,2.829.925,1.034,1.3,1.416,2.447-.22,2.881-.6.382-2.285.764-2.5,3.971-1.848,3.971-1.848l.056.814a4.194,4.194,0,0,1,1.09-.925c.491-.217.6-1.251.869-1.742a8.083,8.083,0,0,1,4.432-2.547c.3.176-.191.532-.191.532-.955-.211-1.36,1.034-1.3,1.522-1.034.109-3.428,3.425-3.807,4.57s-.056,1.633.435,1.577c-.056.814.6,1.5,1.3,1.263.056.858.543,1.4,1.143,1.348.109.925.652,1.469,1.3,1.3A1.269,1.269,0,0,0,38.3,51.1c.056,1.251.978,2.447,2.285,1.087.217,2.5,3.319,3.325,3.645.164,1.14,1.034,2.611.491,2.611-1.251.652.491,1.577-.162,1.633-1.143.652.27,1.2-.382,1.2-1.469.708.382,1.2-.405,1.143-1.237a1.1,1.1,0,0,0,1.3-1.375c.708.27,1.193-.846.326-2.229A15.8,15.8,0,0,0,48.964,39.9s.329-1.3-1.413-1.545c-.235-.035-.493-.352-.235-.505a8.084,8.084,0,0,1,4.4,2.538c.27.491.382,1.524.869,1.742a4.249,4.249,0,0,1,1.09.925l.056-.814s3.589,1.633,3.971,1.848.326,2.121.761,2.5,2.5.978,2.881.6.652-1.034,1.3-1.416-.326-2.338-.814-2.829-3.1-.162-3.645-.27-1.524-1.413-1.524-1.413l.6-.22a2.107,2.107,0,0,1-1.034-2.174,5.045,5.045,0,0,0-2.012-3.807,6.89,6.89,0,0,1-2.388-3.14c.059-.235.123-.464.167-.7a2,2,0,0,0,2.649.144c.6,1.2,2.611.162,2.611-.764a1.234,1.234,0,0,0,2.012-.6c1.413.217,2.611-1.251,2.174-2.121,1.3-.27,1.686-1.8.764-2.338,2.773.056,4.949-.814,4.133-2.068C68.9,23.2,69.822,22,69.334,21.241c2.667-.326,3.865-1.469,3.484-2.555,3.536-.6,4.35-2.394,3.971-3.155,2.937-.652,3.754-2.121,3.1-2.829a1.552,1.552,0,0,0,1.416-2.338c1.892-.864,1.51-2.984.235-2.823Z" transform="translate(4.624 1.54)" fill="#f4c63d"/>
  <path id="Path_41046" data-name="Path 41046" d="M12.273,13.781a16.474,16.474,0,0,0,1.571,6.908,18.354,18.354,0,0,0,1.9,3.161l1.58,1.871a23.41,23.41,0,0,0,1.751,1.657l1.58,1.257c.673.5,1.319.934,1.9,1.3.279.176.546.341.79.485.247-.147.511-.311.79-.485.535-.341,1.128-.737,1.751-1.19l1.583-1.237a24.472,24.472,0,0,0,1.906-1.8l1.58-1.871a18.067,18.067,0,0,0,1.892-3.152,16.385,16.385,0,0,0,1.571-6.908H12.27Z" transform="translate(23.773 13.639)" fill="#fff"/>
  <path id="Path_41047" data-name="Path 41047" d="M12.806,13.781v6.908a18.354,18.354,0,0,0,1.9,3.161V13.781h1.58v11.94a23.409,23.409,0,0,0,1.751,1.657v-13.6h1.58V28.635c.673.5,1.319.934,1.9,1.3V13.778h1.58V29.933c.535-.341,1.128-.737,1.751-1.19V13.778h1.583V27.507a24.47,24.47,0,0,0,1.906-1.8V13.778h1.58v10.06A18.067,18.067,0,0,0,31.8,20.686V13.778h-19Z" transform="translate(24.812 13.639)" fill="#a70033"/>
  <path id="Path_41048" data-name="Path 41048" d="M23.35,11.13a13.97,13.97,0,0,1-5.7,1.422,12.11,12.11,0,0,1-5.384-1.366v7.561c0,.261.026.505.035.761H34.392c.012-.253.038-.5.038-.761V11.186a12.126,12.126,0,0,1-5.384,1.366,13.97,13.97,0,0,1-5.7-1.422Z" transform="translate(23.769 8.509)" fill="#172668"/>
</svg>
