<svg id="VUT" xmlns="http://www.w3.org/2000/svg" width="93.999" height="67.887" viewBox="0 0 93.999 67.887">
  <path id="Path_41051" data-name="Path 41051" d="M83.55,4.444H10.444A10.445,10.445,0,0,0,0,14.889v23.5H93.992v-23.5A10.445,10.445,0,0,0,83.547,4.444Z" transform="translate(0.001 -4.444)" fill="#d21034"/>
  <path id="Path_41052" data-name="Path 41052" d="M10.443,49.943H83.549A10.445,10.445,0,0,0,93.994,39.5V16H0V39.5A10.445,10.445,0,0,0,10.446,49.943Z" transform="translate(0.005 17.943)" fill="#009543"/>
  <path id="Path_41053" data-name="Path 41053" d="M44.387,29.339,4.522,5.071A10.528,10.528,0,0,0,1.468,8.334l-.006.006A10.413,10.413,0,0,0,0,13.674v47a10.374,10.374,0,0,0,1.469,5.34l0,.009a10.47,10.47,0,0,0,3.119,3.3h0L44.387,45.006H93.995V29.342H44.387Z" transform="translate(0.001 -3.229)" fill="#141414"/>
  <path id="Path_41054" data-name="Path 41054" d="M1.469,6.182l-.006.006A10.413,10.413,0,0,0,0,11.522l39.163,23.5L0,58.518a10.374,10.374,0,0,0,1.469,5.34l42.92-26.227H94V32.409H44.388L1.469,6.182Z" transform="translate(0.003 -1.077)" fill="#fdce12"/>
  <path id="Path_41055" data-name="Path 41055" d="M8.265,30.867s8.486-1.3,8.486-9.687a8.048,8.048,0,0,0-7.942-8A7.089,7.089,0,0,0,1.63,20.364c0,4.567,4.241,5.983,6.309,5.983a4.689,4.689,0,0,0,4.785-5.222c-1.21,4.993-6.3,4.852-8.268,1.848-2.174-3.319,1.2-8.051,5.551-6.747,4.124,1.237,4.335,5.434,2.937,8.051a5.261,5.261,0,0,1-4.623,3.1l-.056,3.484Z" transform="translate(3.161 12.49)" fill="#fdce12"/>
  <path id="Path_41056" data-name="Path 41056" d="M8.155,18.4a10.722,10.722,0,0,0-1.66-1.7C7.779,15.377,8.874,15,8.533,14.81c-.232-.132-1.433.408-2.717,1.348-1.284-.94-2.485-1.48-2.717-1.348-.341.2.755.57,2.038,1.886a10.474,10.474,0,0,0-1.66,1.7,3.189,3.189,0,0,0-.435,1.848,4.5,4.5,0,0,0,1.3-.869,20.03,20.03,0,0,0,1.469-1.889,20.42,20.42,0,0,0,1.469,1.889,4.5,4.5,0,0,0,1.3.869A3.211,3.211,0,0,0,8.155,18.4Z" transform="translate(5.886 15.6)" fill="#fdce12"/>
</svg>
