<svg id="WLF" xmlns="http://www.w3.org/2000/svg" width="93.996" height="67.886" viewBox="0 0 93.996 67.886">
  <path id="Path_41057" data-name="Path 41057" d="M83.548,4.444H47V35.776H0V61.885A10.445,10.445,0,0,0,10.445,72.33H83.551A10.445,10.445,0,0,0,94,61.885v-47A10.445,10.445,0,0,0,83.551,4.444Z" transform="translate(0 -4.444)" fill="#ed2939"/>
  <path id="Path_41058" data-name="Path 41058" d="M0,14.222H49.608v5.222H0Z" transform="translate(0 14.499)" fill="#eee"/>
  <path id="Path_41059" data-name="Path 41059" d="M15.665,35.776H0V14.889A10.445,10.445,0,0,1,10.445,4.444h5.222V35.776Z" transform="translate(0 -4.444)" fill="#002395"/>
  <path id="Path_41060" data-name="Path 41060" d="M5.333,4.444H21V35.776H5.333Zm28.721,0h5.222V38.387H34.054Z" transform="translate(10.332 -4.444)" fill="#eee"/>
  <path id="Path_41061" data-name="Path 41061" d="M10.667,4.444H26.332V35.776H10.667Z" transform="translate(20.665 -4.444)" fill="#ed2939"/>
  <path id="Path_41062" data-name="Path 41062" d="M23.461,34.168H39.754l-8.145-8.145ZM39.754,12.444H23.461l8.145,8.145Zm2.714,19.01V15.161l-8.145,8.145ZM20.747,15.161V31.454l8.145-8.145Z" transform="translate(40.193 11.054)" fill="#fff"/>
</svg>
