<svg id="WSM" xmlns="http://www.w3.org/2000/svg" width="93.996" height="67.886" viewBox="0 0 93.996 67.886">
  <path id="Path_41063" data-name="Path 41063" d="M83.55,4.444H49.607V38.387H0v23.5A10.445,10.445,0,0,0,10.444,72.33H83.55A10.445,10.445,0,0,0,93.995,61.885v-47A10.445,10.445,0,0,0,83.55,4.444Z" transform="translate(0.001 -4.444)" fill="#ce1126"/>
  <path id="Path_41064" data-name="Path 41064" d="M49.608,4.444H10.445A10.445,10.445,0,0,0,0,14.889v23.5H49.608V4.444ZM23.7,8.6l.89-2.738.89,2.738h2.879L26.024,10.3l.89,2.738-2.329-1.692-2.332,1.692.89-2.738L20.811,8.6h2.881ZM16.546,21.518l-2.332-1.695-2.332,1.695.89-2.738-2.329-1.695h2.879l.89-2.738.89,2.738h2.879L15.65,18.781l.89,2.738ZM27.5,36.971l-2.914-2.118-2.914,2.118,1.113-3.425-2.914-2.118h3.6L24.588,28,25.7,31.429h3.6l-2.914,2.118L27.5,36.971Zm3.727-10.839-1.457-1.06L28.315,26.13l.555-1.712L27.414,23.36h1.8l.555-1.712.555,1.712h1.8l-1.457,1.057.555,1.715Zm6.148-6.477L35.192,18.07l-2.185,1.586.834-2.57L31.655,15.5h2.7l.834-2.57.834,2.57h2.7l-2.185,1.586.834,2.57Z" transform="translate(0.003 -4.444)" fill="#002b7f"/>
  <path id="Path_41065" data-name="Path 41065" d="M15.367,12.1,17.7,10.405,20.028,12.1l-.89-2.738L21.47,7.665H18.592L17.7,4.927l-.89,2.738H13.93l2.332,1.695ZM8.215,16.15l-.89-2.738-.89,2.738H3.556l2.332,1.695L5,20.583l2.329-1.692L9.66,20.583l-.89-2.738L11.1,16.15ZM29.14,14.564l-.834-2.57-.834,2.57h-2.7l2.185,1.586-.834,2.57,2.185-1.586,2.185,1.586-.834-2.57,2.185-1.586Zm-5.7,7.86-.555-1.712-.555,1.712h-1.8l1.457,1.06L21.429,25.2l1.457-1.06,1.457,1.06-.555-1.712,1.457-1.06ZM18.809,30.5,17.7,27.071,16.58,30.5h-3.6l2.914,2.115-1.113,3.425,2.914-2.115,2.914,2.115-1.116-3.425L22.4,30.5Z" transform="translate(6.892 -3.508)" fill="#fff"/>
</svg>
