<svg id="XXK" xmlns="http://www.w3.org/2000/svg" width="93.996" height="67.886" viewBox="0 0 93.996 67.886">
  <path id="Path_41066" data-name="Path 41066" d="M93.995,61.885A10.445,10.445,0,0,1,83.55,72.33H10.444A10.445,10.445,0,0,1,0,61.885v-47A10.445,10.445,0,0,1,10.444,4.444H83.55A10.445,10.445,0,0,1,93.995,14.889Z" transform="translate(0.001 -4.444)" fill="#244aa5"/>
  <path id="Path_41067" data-name="Path 41067" d="M24.906,12.19l.546-.012c.32.335.652.661.981.987a.469.469,0,0,0,.355.511,5,5,0,0,1-.693.106,1.044,1.044,0,0,1-.355.305c.038.373.382.585.614.837a1.063,1.063,0,0,1,.7.206l.538.012,0,.7c.223-.024.5.018.567-.261.391,0,.784-.006,1.178,0,.1.217.344.229.538.32l.094.485c.2-.256.388-.582.749-.593.112.156.229.311.347.464.2.015.417.035.508.258l.364.012a9.7,9.7,0,0,0,.026,1.307l.214.129c.006.35.006.7,0,1.046.22.185.587.355.781.032h.311a1.707,1.707,0,0,0,.493.491c.006.341,0,.684.006,1.022.455.164.162.784.25,1.151a1.415,1.415,0,0,1,.52.623c.059-.117.132-.232.2-.347l.787.015c.117.138.235.273.364.411l.214.232a1.225,1.225,0,0,1,.508.226l.464.029c.123.279.438.241.69.294l-.341.256c-.012.573.041,1.146-.026,1.715l-.209.117a1.26,1.26,0,0,1-.25.811l.482-.006.021.267h.223c.006-.065.015-.2.026-.267h.417l.015.256c.25.047.611-.091.749.2.643.012,1.284.009,1.933,0l.026.341c.1.115.2.229.294.347.214,0,.435,0,.652.006l-.021.382a1.069,1.069,0,0,0,.7.338l.006-.479.423.006.032-.264c.305.018.7-.076.775.332l.25-.373a1.8,1.8,0,0,1,.54.32l.006.347c.352.073.214.455.247.708l-.444.35c0,.361,0,.72-.006,1.084l-.435.012v1.237c-.25.2-.476.426-.7.643v.758c-.17.141-.326.279-.491.417v.317a1.163,1.163,0,0,1-.617.314c-.112.132-.223.27-.332.405-.076.023-.229.062-.305.082l.379.223c-.006.5-.012,1-.006,1.492a1.538,1.538,0,0,1-1.06.235l-.388.47a.862.862,0,0,0-.637.37c.006.238.012.476.021.711.417.223.582.834,1.116.811.006.394.076.849-.3,1.107-.167-.006-.341-.006-.505-.006-.261.376-.831.12-1.219.185V39.33l-.364-.012c-.123.144-.247.282-.373.42a1.15,1.15,0,0,0-.555.264c-.261.018-.52.012-.775.012l-.021.27-.582-.012a.942.942,0,0,0-.311.593l-.4.344c.012.279.015.582-.279.711.059.317-.173.869.276.955l-.015.347c-.605.021-1.213.012-1.821.012l-.012-.614c-.438-.126-.167-.69-.247-1.016l-.261-.015.006-.408c-.2-.021-.429.012-.508-.214H32.2l-.032-.493-1.107,0c-.012.085-.021.258-.026.341-.106.115-.209.229-.311.347l-.561,0c-.1.144-.2.282-.294.429-.27.006-.549.009-.822.018a2.721,2.721,0,0,1-.317.32l-.012.344c-.211.021-.441.023-.5.27h-.543c-.115.147-.226.294-.338.441l-1,0c-.156.388-.629.2-.949.256a1.8,1.8,0,0,1-.5.482q-.009.317-.009.643l-.264.015L24.615,45c-.153.115-.3.235-.446.355.015.555.012,1.11,0,1.668l.446.358v1.469c-.106.1-.206.2-.305.305l-.379.009-.012.388-.294.291c-.408,0-.814,0-1.219.006-.185.238-.382.467-.576.7l-.814-.006a1.21,1.21,0,0,0-.223-.587c-.021-.543-.012-1.084-.012-1.627.223-.22.446-.444.681-.658v-.708l-.223-.129c-.05-.734,0-1.475-.015-2.218h-.405c-.035-.226.009-.526-.3-.552,0-.555,0-1.11.009-1.665l-.408-.35c-.035-.214-.035-.458-.282-.54l-.012-.479a.358.358,0,0,1,.068-.664c-.258-.226-.5-.473-.746-.7l-.006-.3c-.288-.059-.543-.2-.822-.27-.079-.2-.273-.217-.461-.223l-.179-.2a.714.714,0,0,1-.444-.214l-.32-.009a3.683,3.683,0,0,1-.247-1.3,4.081,4.081,0,0,1-.317-.32c-.564-.023-1.125.009-1.686-.012a.447.447,0,0,1-.364-.147c-.126-.129-.256-.25-.388-.367-.009-.376.012-.752-.015-1.125a3.716,3.716,0,0,0-.414-.711l-.012-.341-.25-.035,0-.352c-.27-.162-.162-.505-.2-.764l-.673-.015V32.6l-.338-.317-.364-.023-.009-.355a.6.6,0,0,1-.256-.576l.458-.018c0-.411.006-.828-.015-1.242a2.574,2.574,0,0,0-.467-.737l-.217-.267-.32-.026-.3-.3,0-.508c-.344-.07-.217-.449-.261-.7-.414-.27-.05-.775.068-1.116a3.715,3.715,0,0,1,.25-.276,4.021,4.021,0,0,0,.42-.5h.6l.355.455.4-.026v.464c.749,0,1.5-.006,2.247.006.021-.22-.018-.488.261-.535.006-.429.006-.858.018-1.284.261-.021.561.032.758-.2l.355-.021v-.693c.361,0,.726.018,1.087-.018l.123-.258a.418.418,0,0,1,.455.341c.132-.162.27-.317.408-.473a1.042,1.042,0,0,0,.593-.335,5.013,5.013,0,0,1,.808-.446l-.264-.261a.917.917,0,0,0-.479-.714c-.006-.317-.006-.632,0-.949.191-.173.379-.352.555-.538h.488A5.425,5.425,0,0,1,20.8,19.127v-.361c.094.006.282.006.376.009.035.232.232.253.423.258a2.051,2.051,0,0,1,.314-.344l.023-.288c.355-.238.112-.764.191-1.125.176-.173.423-.308.5-.555-.07-.247-.32-.376-.488-.552.126-.576-.411-.834-.708-1.225l-.4-.044c-.044-.194-.026-.432-.22-.552-.009-.27-.009-.546-.006-.82.582-.012,1.166.038,1.748-.026l.115-.2a5.437,5.437,0,0,0,.74-.455c.244-.009.485-.012.728-.012.115-.153.235-.294.352-.444l.4.012c.012-.05.026-.173.035-.238Z" transform="translate(19.518 10.516)" fill="#d0a650"/>
  <path id="Path_41068" data-name="Path 41068" d="M62.191,10.954l-1,3.084L57.994,14l2.62,1.909-1.022,3.025,2.62-1.9,2.564,1.9-1-3.084L66.38,14H63.137l-.952-3.049ZM51.728,8.135l-1,3.084-3.2-.035,2.626,1.9-1.022,3.028,2.62-1.9,2.567,1.9-1-3.084,2.605-1.848H52.68ZM41.26,6.76l-1,3.081-3.2-.032,2.623,1.9L38.66,14.741l2.62-1.906,2.567,1.906-1-3.087,2.605-1.848H42.212ZM9.86,10.954l1,3.084,3.2-.035L11.435,15.91l1.019,3.025-2.62-1.9-2.564,1.9,1-3.084L5.663,14H8.9Zm10.466-2.82,1,3.084,3.2-.035-2.62,1.9,1.019,3.028-2.62-1.9-2.567,1.9,1-3.084-2.605-1.848h3.24l.955-3.049ZM30.794,6.76l1,3.081,3.2-.032-2.623,1.9,1.022,3.028-2.62-1.906L28.2,14.741l1-3.087L26.6,9.806l3.24,0Z" transform="translate(10.974 0.043)" fill="#ededed"/>
</svg>
