<svg id="ZAF" xmlns="http://www.w3.org/2000/svg" width="93.996" height="67.889" viewBox="0 0 93.996 67.889">
  <path id="Path_41096" data-name="Path 41096" d="M72.356,4.444H5.777L38.413,26.638H82.8V14.889A10.445,10.445,0,0,0,72.353,4.444Z" transform="translate(11.192 -4.441)" fill="#de3830"/>
  <path id="Path_41097" data-name="Path 41097" d="M5.778,42.194H72.357A10.445,10.445,0,0,0,82.8,31.749V20H38.417L5.781,42.194Z" transform="translate(11.194 25.695)" fill="#002395"/>
  <path id="Path_41098" data-name="Path 41098" d="M0,9.778V46.329L27.414,28.054Z" transform="translate(0 5.892)" fill="#141414"/>
  <path id="Path_41099" data-name="Path 41099" d="M0,8v5.222L27.414,31.5,0,49.774V55L35.247,31.5Z" transform="translate(0 2.448)" fill="#ffb611"/>
  <path id="Path_41100" data-name="Path 41100" d="M9.247,4.469A10.446,10.446,0,0,0,0,14.841l35.247,23.5L0,61.837A10.446,10.446,0,0,0,9.247,72.208L48.3,44.868H94V31.815H48.3L9.247,4.475Z" transform="translate(0 -4.393)" fill="#007a4d"/>
  <path id="Path_41101" data-name="Path 41101" d="M10.875,4.446H4.348a10.716,10.716,0,0,0-1.2.073L42.207,31.86H87.9V26.637H43.514L10.878,4.443ZM3.15,72.259a10.716,10.716,0,0,0,1.2.073h6.527L43.511,50.138H87.9V44.916H42.2L3.147,72.256Z" transform="translate(6.097 -4.443)" fill="#eee"/>
</svg>
