<svg id="ZMB" xmlns="http://www.w3.org/2000/svg" width="93.999" height="67.886" viewBox="0 0 93.999 67.886">
  <path id="Path_41102" data-name="Path 41102" d="M83.55,4.444H10.444A10.445,10.445,0,0,0,0,14.889v47A10.445,10.445,0,0,0,10.444,72.33H83.55A10.445,10.445,0,0,0,93.995,61.885v-47A10.445,10.445,0,0,0,83.55,4.444Z" transform="translate(0.001 -4.444)" fill="#1a8a00"/>
  <path id="Path_41103" data-name="Path 41103" d="M27.556,55.11h2.611A10.445,10.445,0,0,0,40.612,44.665V13.333H27.559V55.107Z" transform="translate(53.387 12.776)" fill="#ef7d00"/>
  <path id="Path_41104" data-name="Path 41104" d="M23.111,13.333H36.164V55.107H23.111Z" transform="translate(44.775 12.776)" fill="#141414"/>
  <path id="Path_41105" data-name="Path 41105" d="M18.667,13.333H31.72V55.107H18.667Z" transform="translate(36.166 12.776)" fill="#de200f"/>
  <path id="Path_41106" data-name="Path 41106" d="M53.374,8.3a8.29,8.29,0,0,0-1.868.849s1.472-1.7,1.134-1.7a15.507,15.507,0,0,0-2.262.9s1.187-1.469.79-1.3-2.55,1.131-4.189,1.818c.229-.388.17-.972,0-.972a17.048,17.048,0,0,1-2.6.963c-1.472.341-3.677,1.586-4.641,1.416a15.293,15.293,0,0,0-2.884,0s-.564-.849-.112-1.075.793.341.793.341.793-.341.793-.819-1.36-.538-1.36-.538A2.032,2.032,0,0,0,35.5,7.456c-2.376,0-2.55,2.547-2.55,2.547s-.963-.341-1.868-.567-2.491-.112-4.074-1.075-2.6-1.3-.681.737c-2.832-.963-4.3-2.884-4.7-2.053S22.7,8.869,22.7,8.869a4.021,4.021,0,0,1-1.469-.849C20.556,7.4,19.593,7,20.5,8.361c-1.187-.341-.341.9-.341.9s-.963.282,0,.96a8.007,8.007,0,0,0,2.714.963s-.793.564-.285.79a2.826,2.826,0,0,0,1.36.059s-.679.564,0,.79a3.109,3.109,0,0,0,1.527,0,.577.577,0,0,0,.394.819,2.744,2.744,0,0,0,1.756-.311s-.508.341,0,.623,1.3-.311,1.3-.311-.452.764,0,.878,1.187-.452,1.187-.452-.452.734,0,.79a3.845,3.845,0,0,0,1.469-.508s-.623.79,0,.79a3.512,3.512,0,0,0,1.36-.394s-.17.623.341.849,1.242-.4,1.242-.4a7.974,7.974,0,0,1,.059,1.868c-.112.679.734.17.734.17s-.115,1.019-.793.963-1.36.849-1.131,1.075,1.131-.17,1.131-.17-.056,1.245.282,1.14.9-.8.9-.8.341.9.57.793.341-.623.341-.9.62-.4.62-.4.17,1.131.4.911.282-.969.623-1.193.226,1.3.567,1.187.17-1.134.059-1.472.681.282.623,0-.681-.849-.681-.849.79.285.567,0-.341-1.019,0-.858.623-.5.623-.5.9.679,1.469.452-.734-1.019-.734-1.019a9.781,9.781,0,0,0,2.417.567c.438-.115-.667-.849-.667-.849s1.245.282,1.472,0-.811-.508-.811-.508,1.372.226,1.542,0-.394-.508-.394-.508,2.262-.056,2.714-.849a7.8,7.8,0,0,0,4.979-2.15c.226-.4-.394-.4-.394-.4s1.36-1.075,1.187-1.245-.9.223-.9.223S53.647,8.358,53.365,8.3Zm-16.8,9.731c-.731,0-.229-.394-.344-.79s.4-.056.341-.4,0-1.98,0-1.98a2.489,2.489,0,0,1,.793,1.868c-.056.564.282.623.394.9s-.449.394-1.184.394Z" transform="translate(38.228 0.201)" fill="#ef7d00"/>
</svg>
