<svg xmlns="http://www.w3.org/2000/svg" width="94" height="67.889" viewBox="0 0 94 67.889">
  <g id="ZWE" transform="translate(0 -5)">
    <path id="Path_41107" data-name="Path 41107" d="M26.513,22.251,4.786,5.637a10.761,10.761,0,0,0-1.306.995v0A10.423,10.423,0,0,0,0,14.418v47A10.423,10.423,0,0,0,3.481,69.2a10.609,10.609,0,0,0,1.308,1L47,37.918,26.513,22.251Z" transform="translate(0 1.026)" fill="#eee"/>
    <path id="Path_41108" data-name="Path 41108" d="M15.981,11.6l4.656,9.434,10.416,1.514L23.514,29.89,25.3,40.262l-9.314-4.9-9.314,4.9L8.446,29.89.91,22.545l10.413-1.514Z" transform="translate(1.466 10.628)" fill="#de200f"/>
    <path id="Path_41109" data-name="Path 41109" d="M14.951,20.4a21.466,21.466,0,0,1-5.113-6.092c-1.739-2.718-4.026-2.394-5.005,0a2.846,2.846,0,0,0-1.958,1.958c2.5-.762,4.133.869,4.353,4.353s-.653,4.46-2.175,7.507.217,3.807.217,3.807l1,5.29H21.829l2.154-9.316h1.306S17.346,22.359,14.951,20.4Z" transform="translate(4.632 11.906)" fill="#ffd200"/>
    <path id="Path_41110" data-name="Path 41110" d="M7.02,16.531l-.9.616s1.632,3.575,4,4.089S20.139,22.6,20.139,22.6l.316-1.366s-7.914-.953-9.9-1.279S7.02,16.531,7.02,16.531ZM5.062,25.346a28.9,28.9,0,0,1,5.06,0c1.6.259,8.337.632,9.228.681l.3-1.279c-.911-.146-8.029-1.282-10.014-1.4-2.12-.125-4.24.9-4.569,2Zm1.715,2.528.407,2.679H18.3l.475-2.05a54.338,54.338,0,0,0-12-.629Z" transform="translate(8.155 18.578)" fill="#ffac33"/>
    <path id="Path_41111" data-name="Path 41111" d="M22.045,37.437H6.277l-.021-.1-.99-5.23a1.669,1.669,0,0,1-.726-.9,3.987,3.987,0,0,1,.507-3.052c.23-.46.446-.872.645-1.256a9.664,9.664,0,0,0,1.52-6.186c-.123-1.948-.689-3.324-1.637-3.982a2.84,2.84,0,0,0-2.546-.253L2.8,16.54l.06-.227a2.959,2.959,0,0,1,1.99-2.037,2.829,2.829,0,0,1,2.212-1.93c1.063-.091,2.125.6,3,1.971a21.467,21.467,0,0,0,5.086,6.063c2.363,1.932,10.249,7.447,10.33,7.5l.339.238H24.2l-2.157,9.316ZM6.494,37.179H21.836l2.154-9.316h1c-1.543-1.084-7.917-5.567-10.006-7.277a21.673,21.673,0,0,1-5.139-6.123c-.817-1.282-1.812-1.943-2.755-1.851a2.608,2.608,0,0,0-2.021,1.83l-.026.063-.068.013A2.615,2.615,0,0,0,3.2,16.154a2.989,2.989,0,0,1,2.528.358c1.018.7,1.624,2.152,1.749,4.18.188,2.995-.428,4.178-1.546,6.324-.2.381-.413.794-.642,1.251a3.811,3.811,0,0,0-.5,2.838,1.376,1.376,0,0,0,.653.791l.063.029.013.065.979,5.188Z" transform="translate(4.518 11.824)" fill="#f15a29"/>
    <path id="Path_41112" data-name="Path 41112" d="M90.715,12.833A10.446,10.446,0,0,0,80.6,5H7.491A10.412,10.412,0,0,0,1.836,6.661l0,0L9.9,12.833Zm0,52.222A10.448,10.448,0,0,1,80.6,72.889H7.491a10.412,10.412,0,0,1-5.656-1.661l0,0L9.9,65.056Z" transform="translate(2.953)" fill="#319209"/>
    <path id="Path_41113" data-name="Path 41113" d="M4.923,8,39.069,34.113,4.923,60.224H85.737a10.371,10.371,0,0,0,.332-2.611v-47A10.631,10.631,0,0,0,85.737,8C85.737,8,4.923,8,4.923,8Z" transform="translate(7.931 4.832)" fill="#ffd200"/>
    <path id="Path_41114" data-name="Path 41114" d="M10.154,12,23.813,22.444H77.641V12Zm0,31.333H77.641V32.889H23.813Z" transform="translate(16.359 11.278)" fill="#de200f"/>
    <path id="Path_41115" data-name="Path 41115" d="M38.024,32.7,2.639,5.637a10.761,10.761,0,0,0-1.306.995v0L42.241,37.918,1.333,69.2a10.61,10.61,0,0,0,1.308,1L38.024,43.14H91.852V32.7Z" transform="translate(2.148 1.026)" fill="#141414"/>
  </g>
</svg>
