<!-- Generated by IcoMoon.io -->
<svg version="1.1" xmlns="http://www.w3.org/2000/svg" width="32" height="32" viewBox="0 0 32 32">
<title>afternoon</title>
<path fill="#00a1c9" d="M3.487 20.304c-0.581 0.252-0.979 0.82-0.979 1.481 0 0.162 0.024 0.317 0.068 0.465l-0.003-0.011c0.026 0.096 0.041 0.206 0.041 0.32 0 0.579-0.392 1.066-0.925 1.21l-0.009 0.002c-0.096 0.026-0.207 0.041-0.321 0.041h-0c-0.578-0-1.065-0.393-1.209-0.925l-0.002-0.009c-0.094-0.327-0.147-0.704-0.147-1.092 0-1.688 1.016-3.14 2.47-3.775l0.026-0.010c-0.098-0.429-0.154-0.921-0.154-1.426 0-0.58 0.074-1.144 0.214-1.68l-0.010 0.046c0.759-3.070 3.49-5.311 6.744-5.311 1.010 0 1.969 0.216 2.834 0.604l-0.044-0.018c0.425 0.207 0.713 0.635 0.713 1.131 0 0.692-0.561 1.254-1.254 1.254-0.167 0-0.325-0.032-0.471-0.091l0.008 0.003c-0.52-0.23-1.127-0.364-1.765-0.364-2.465 0-4.464 1.999-4.464 4.464 0 0.329 0.036 0.649 0.103 0.958l-0.005-0.030c0.032 0.148 0.050 0.319 0.050 0.494 0 1.016-0.615 1.888-1.493 2.264l-0.016 0.006zM24.922 26.446c-0.516 2.149-2.178 3.808-4.289 4.311l-0.039 0.008c-0.37 0.088-0.797 0.144-1.236 0.154l-0.007 0c-1.731 0.034-9.778 0.045-11.578 0-0.352-0.011-0.688-0.062-1.009-0.149l0.030 0.007c-1.76-0.494-3.028-2.085-3.028-3.971 0-1.689 1.016-3.14 2.47-3.775l0.027-0.010c-0.098-0.429-0.154-0.921-0.154-1.426 0-0.58 0.074-1.144 0.214-1.68l-0.010 0.046c0.766-3.072 3.5-5.311 6.758-5.311 2.889 0 5.367 1.762 6.418 4.27l0.017 0.046c0.098 0.234 0.51 0.33 0.924 0.405 0.135 0.025 0.251 0.047 0.336 0.070v0c2.505 0.701 4.311 2.964 4.311 5.648 0 0.48-0.058 0.946-0.167 1.393l0.008-0.040zM20.116 21.862c-1.27-0.117-2.344-0.861-2.919-1.915l-0.010-0.019c-0.685-1.635-2.272-2.762-4.122-2.762-2.462 0-4.457 1.996-4.457 4.457 0 0.331 0.036 0.653 0.104 0.963l-0.005-0.030c0.031 0.146 0.049 0.315 0.049 0.487 0 1.016-0.615 1.888-1.493 2.264l-0.016 0.006c-0.581 0.252-0.979 0.82-0.979 1.481 0 0.162 0.024 0.317 0.068 0.465l-0.003-0.011c0.152 0.531 0.562 0.942 1.082 1.092l0.011 0.003c0.122 0.033 0.263 0.055 0.408 0.060l0.003 0c1.521 0.041 9.616 0.035 11.463 0 0.263-0.006 0.514-0.039 0.757-0.096l-0.025 0.005c1.209-0.296 2.143-1.228 2.439-2.413l0.005-0.023c0.059-0.235 0.092-0.505 0.092-0.782 0-1.533-1.027-2.826-2.431-3.229l-0.024-0.006z"></path>
<path fill="#ffc107" d="M30.746 12.139h-3.235c-0.017-0.135-0.035-0.265-0.060-0.389-0.105-0.523-0.245-0.98-0.425-1.417l0.019 0.051 2.789-1.646c0.38-0.22 0.632-0.625 0.632-1.088 0-0.692-0.561-1.254-1.254-1.254-0.241 0-0.467 0.068-0.658 0.186l0.005-0.003-2.808 1.657c-0.358-0.421-0.745-0.797-1.166-1.133l-0.017-0.013 1.63-2.835c0.108-0.182 0.172-0.4 0.172-0.634 0-0.692-0.561-1.254-1.254-1.254-0.465 0-0.87 0.253-1.087 0.628l-0.003 0.006-1.63 2.831c-0.48-0.195-1.045-0.356-1.63-0.457l-0.050-0.007v-3.257c0-0.692-0.561-1.254-1.254-1.254s-1.254 0.561-1.254 1.254v0 3.213l-0.060 0.009c-0.589 0.084-1.12 0.232-1.62 0.44l0.044-0.016-1.771-2.758c-0.23-0.316-0.599-0.519-1.016-0.519-0.692 0-1.254 0.561-1.254 1.254 0 0.226 0.060 0.438 0.165 0.621l-0.003-0.006 1.914 2.981c0.395 0.614 1.076 1.015 1.85 1.015 0.334 0 0.651-0.075 0.934-0.208l-0.013 0.006c0.33-0.155 0.712-0.27 1.114-0.325l0.021-0.002c0.26-0.041 0.559-0.065 0.864-0.065 2.729 0 5.015 1.898 5.609 4.446l0.008 0.039c0.029 0.255 0.046 0.55 0.046 0.85 0 0.899-0.151 1.762-0.43 2.566l0.017-0.055c-0.081 0.229-0.128 0.494-0.128 0.77 0 0.87 0.468 1.63 1.165 2.044l0.011 0.006 2.956 1.706c0.188 0.118 0.416 0.188 0.66 0.188 0.693 0 1.254-0.562 1.254-1.254 0-0.475-0.265-0.889-0.654-1.102l-0.007-0.003-2.851-1.645c0.155-0.463 0.29-1.022 0.381-1.595l0.008-0.062h3.325c0.692 0 1.254-0.561 1.254-1.254s-0.561-1.254-1.254-1.254v0z"></path>
</svg>
