<svg xmlns="http://www.w3.org/2000/svg" width="149.58" height="50" viewBox="0 0 149.58 50">
  <g id="app_store" data-name="app store" transform="translate(0 0)">
    <g id="Group_7988" data-name="Group 7988" transform="translate(0 0)">
      <g id="Group_7986" data-name="Group 7986">
        <path id="Path_39121" data-name="Path 39121" d="M137.668,0H11.918c-.458,0-.911,0-1.368,0-.383,0-.762.01-1.149.016A16.518,16.518,0,0,0,6.9.239a8.331,8.331,0,0,0-2.376.784A8.047,8.047,0,0,0,2.5,2.5,7.823,7.823,0,0,0,1.024,4.523,8.251,8.251,0,0,0,.243,6.9,16.241,16.241,0,0,0,.019,9.4c-.012.383-.013.768-.019,1.151V39.448c.006.388.007.764.019,1.152a16.24,16.24,0,0,0,.224,2.5,8.234,8.234,0,0,0,.781,2.38A7.76,7.76,0,0,0,2.5,47.5,7.843,7.843,0,0,0,4.52,48.974a8.376,8.376,0,0,0,2.376.789,16.818,16.818,0,0,0,2.5.221c.386.008.766.013,1.149.013.457,0,.91,0,1.368,0h125.75c.449,0,.906,0,1.355,0,.381,0,.771,0,1.152-.013a16.6,16.6,0,0,0,2.5-.221,8.505,8.505,0,0,0,2.385-.788,7.847,7.847,0,0,0,2.021-1.473,7.994,7.994,0,0,0,1.477-2.018,8.255,8.255,0,0,0,.774-2.38,16.882,16.882,0,0,0,.232-2.5c0-.388,0-.764,0-1.152.01-.454.01-.906.01-1.367V11.92c0-.458,0-.912-.01-1.365,0-.383,0-.768,0-1.151a16.879,16.879,0,0,0-.232-2.5,8.272,8.272,0,0,0-.774-2.379,8.083,8.083,0,0,0-3.5-3.5,8.46,8.46,0,0,0-2.385-.784,16.305,16.305,0,0,0-2.5-.221C139.795.012,139.4,0,139.023,0c-.449,0-.906,0-1.355,0Z" transform="translate(0 0)" fill="#a6a6a6"/>
        <path id="Path_39122" data-name="Path 39122" d="M10.752,49.1c-.381,0-.752,0-1.13-.013a15.86,15.86,0,0,1-2.336-.2A7.355,7.355,0,0,1,5.215,48.2,6.757,6.757,0,0,1,3.468,46.93a6.651,6.651,0,0,1-1.276-1.746,7.152,7.152,0,0,1-.679-2.071,15.517,15.517,0,0,1-.208-2.344c-.008-.264-.018-1.141-.018-1.141V10.752s.011-.864.018-1.118a15.463,15.463,0,0,1,.207-2.34,7.194,7.194,0,0,1,.679-2.078A6.717,6.717,0,0,1,3.461,3.469,6.957,6.957,0,0,1,5.214,2.191a7.279,7.279,0,0,1,2.067-.68,15.732,15.732,0,0,1,2.344-.205l1.128-.015h128.46l1.141.016a15.481,15.481,0,0,1,2.323.2,7.423,7.423,0,0,1,2.089.685,6.992,6.992,0,0,1,3.019,3.025,7.2,7.2,0,0,1,.669,2.061,16.243,16.243,0,0,1,.217,2.359c0,.354,0,.734,0,1.113.01.469.01.915.01,1.365V38.278c0,.454,0,.9-.01,1.344,0,.406,0,.779,0,1.162a15.916,15.916,0,0,1-.214,2.317,7.174,7.174,0,0,1-.675,2.087,6.851,6.851,0,0,1-1.27,1.732,6.766,6.766,0,0,1-1.749,1.278,7.327,7.327,0,0,1-2.085.687,15.677,15.677,0,0,1-2.337.2c-.366.008-.75.013-1.122.013l-1.355,0Z" transform="translate(-0.196 -0.197)"/>
      </g>
      <g id="_Group_" data-name="&lt;Group&gt;" transform="translate(12.464 10.9)">
        <g id="_Group_2" data-name="&lt;Group&gt;">
          <g id="_Group_3" data-name="&lt;Group&gt;">
            <path id="_Path_" data-name="&lt;Path&gt;" d="M33.2,28.52a6.186,6.186,0,0,1,2.946-5.19,6.332,6.332,0,0,0-4.989-2.7c-2.1-.22-4.134,1.256-5.2,1.256-1.09,0-2.737-1.234-4.511-1.2a6.644,6.644,0,0,0-5.591,3.41c-2.417,4.186-.614,10.337,1.7,13.72,1.159,1.657,2.513,3.507,4.285,3.442,1.734-.072,2.381-1.106,4.474-1.106,2.073,0,2.681,1.106,4.489,1.064,1.86-.03,3.033-1.664,4.151-3.336a13.7,13.7,0,0,0,1.9-3.866,5.978,5.978,0,0,1-3.649-5.5Z" transform="translate(-14.708 -14.044)" fill="#fff"/>
            <path id="_Path_2" data-name="&lt;Path&gt;" d="M31.774,17.226a6.091,6.091,0,0,0,1.393-4.363,6.2,6.2,0,0,0-4.009,2.075,5.8,5.8,0,0,0-1.43,4.2A5.124,5.124,0,0,0,31.774,17.226Z" transform="translate(-16.692 -12.862)" fill="#fff"/>
          </g>
        </g>
        <g id="Group_7987" data-name="Group 7987" transform="translate(30.57 11.438)">
          <path id="Path_39123" data-name="Path 39123" d="M60.624,37.992H54.707l-1.421,4.2H50.78l5.6-15.522h2.6l5.6,15.522H62.043Zm-5.3-1.936h4.69L57.7,29.247h-.065Z" transform="translate(-50.78 -26.406)" fill="#fff"/>
          <path id="Path_39124" data-name="Path 39124" d="M79.441,37.265c0,3.517-1.882,5.776-4.723,5.776a3.837,3.837,0,0,1-3.561-1.98H71.1v5.605H68.781V31.606H71.03v1.882h.043a4.015,4.015,0,0,1,3.6-2C77.548,31.487,79.441,33.758,79.441,37.265Zm-2.388,0c0-2.291-1.184-3.8-2.991-3.8-1.775,0-2.969,1.538-2.969,3.8,0,2.28,1.194,3.807,2.969,3.807,1.807,0,2.991-1.5,2.991-3.807Z" transform="translate(-53.526 -27.142)" fill="#fff"/>
          <path id="Path_39125" data-name="Path 39125" d="M94.139,37.265c0,3.517-1.882,5.776-4.723,5.776a3.837,3.837,0,0,1-3.561-1.98H85.8v5.605H83.479V31.606h2.249v1.882h.043a4.014,4.014,0,0,1,3.6-2C92.246,31.487,94.139,33.758,94.139,37.265Zm-2.388,0c0-2.291-1.184-3.8-2.991-3.8-1.775,0-2.969,1.538-2.969,3.8,0,2.28,1.194,3.807,2.969,3.807,1.807,0,2.991-1.5,2.991-3.807Z" transform="translate(-55.768 -27.142)" fill="#fff"/>
          <path id="Path_39126" data-name="Path 39126" d="M105.345,37.816c.172,1.539,1.667,2.55,3.711,2.55,1.958,0,3.367-1.011,3.367-2.4,0-1.2-.85-1.926-2.861-2.421l-2.012-.485c-2.85-.688-4.174-2.021-4.174-4.185,0-2.678,2.334-4.518,5.648-4.518,3.28,0,5.529,1.84,5.6,4.518h-2.345c-.14-1.549-1.421-2.484-3.292-2.484s-3.152.946-3.152,2.323c0,1.1.818,1.743,2.819,2.237l1.71.42c3.185.753,4.508,2.032,4.508,4.3,0,2.9-2.313,4.723-5.992,4.723-3.442,0-5.767-1.776-5.917-4.584Z" transform="translate(-58.741 -26.36)" fill="#fff"/>
          <path id="Path_39127" data-name="Path 39127" d="M122.219,28.467v2.678h2.152v1.84h-2.152v6.239c0,.969.431,1.421,1.377,1.421a7.258,7.258,0,0,0,.764-.054V42.42a6.379,6.379,0,0,1-1.29.107c-2.291,0-3.185-.861-3.185-3.055V32.985h-1.646v-1.84h1.645V28.467Z" transform="translate(-61.071 -26.681)" fill="#fff"/>
          <path id="Path_39128" data-name="Path 39128" d="M126.945,37.261c0-3.561,2.1-5.8,5.367-5.8s5.369,2.237,5.369,5.8-2.076,5.8-5.369,5.8S126.945,40.832,126.945,37.261Zm8.369,0c0-2.443-1.119-3.884-3-3.884s-3,1.453-3,3.884c0,2.452,1.118,3.883,3,3.883s3-1.431,3-3.883Z" transform="translate(-62.399 -27.138)" fill="#fff"/>
          <path id="Path_39129" data-name="Path 39129" d="M141.874,31.606h2.216v1.926h.054a2.7,2.7,0,0,1,2.722-2.045,3.583,3.583,0,0,1,.8.087v2.173a3.247,3.247,0,0,0-1.044-.14,2.341,2.341,0,0,0-2.421,2.6v6.713h-2.323Z" transform="translate(-64.676 -27.142)" fill="#fff"/>
          <path id="Path_39130" data-name="Path 39130" d="M159.5,39.6c-.312,2.054-2.313,3.464-4.873,3.464-3.292,0-5.336-2.206-5.336-5.745s2.054-5.852,5.238-5.852c3.131,0,5.1,2.151,5.1,5.582v.8H151.64v.14a2.947,2.947,0,0,0,3.044,3.206A2.56,2.56,0,0,0,157.3,39.6Zm-7.853-3.378h5.658a2.722,2.722,0,0,0-2.776-2.872,2.865,2.865,0,0,0-2.882,2.872Z" transform="translate(-65.808 -27.138)" fill="#fff"/>
        </g>
      </g>
    </g>
    <g id="_Group_4" data-name="&lt;Group&gt;" transform="translate(44.588 10.024)">
      <g id="Group_7989" data-name="Group 7989">
        <path id="Path_39131" data-name="Path 39131" d="M55.309,12.877a3.3,3.3,0,0,1,3.51,3.706c0,2.383-1.288,3.752-3.51,3.752H52.614V12.877Zm-1.536,6.4h1.406a2.345,2.345,0,0,0,2.46-2.682,2.351,2.351,0,0,0-2.46-2.667H53.773Z" transform="translate(-52.614 -11.987)" fill="#fff"/>
        <path id="Path_39132" data-name="Path 39132" d="M66.513,19.127a2.285,2.285,0,0,1-2.439,1.628,2.557,2.557,0,0,1-2.6-2.905,2.6,2.6,0,0,1,2.6-2.941c1.566,0,2.511,1.07,2.511,2.837v.388H62.606V18.2a1.488,1.488,0,0,0,1.5,1.612,1.349,1.349,0,0,0,1.339-.682Zm-3.907-1.814h2.843a1.358,1.358,0,0,0-1.385-1.458,1.44,1.44,0,0,0-1.457,1.458Z" transform="translate(-53.962 -12.299)" fill="#fff"/>
        <path id="Path_39133" data-name="Path 39133" d="M71.272,14.909c1.266,0,2.093.589,2.2,1.581H72.408c-.1-.413-.507-.677-1.136-.677s-1.091.294-1.091.734c0,.336.284.548.895.688l.935.217c1.071.248,1.572.709,1.572,1.536,0,1.06-.988,1.768-2.332,1.768s-2.212-.6-2.311-1.6h1.112a1.142,1.142,0,0,0,1.224.7c.692,0,1.184-.31,1.184-.76,0-.336-.264-.553-.828-.687l-.981-.228c-1.071-.253-1.566-.734-1.566-1.571C69.085,15.612,70,14.909,71.272,14.909Z" transform="translate(-55.105 -12.299)" fill="#fff"/>
        <path id="Path_39134" data-name="Path 39134" d="M79.815,16.856a1.257,1.257,0,0,0-1.329-.956c-.93,0-1.5.713-1.5,1.912,0,1.22.574,1.949,1.5,1.949a1.223,1.223,0,0,0,1.329-.925H80.9a2.2,2.2,0,0,1-2.4,1.918,2.585,2.585,0,0,1-2.642-2.941,2.566,2.566,0,0,1,2.635-2.9,2.222,2.222,0,0,1,2.41,1.948Z" transform="translate(-56.155 -12.297)" fill="#fff"/>
        <path id="Path_39135" data-name="Path 39135" d="M83.108,18.585c0-1.013.754-1.6,2.093-1.68l1.525-.088v-.486c0-.594-.393-.93-1.152-.93-.62,0-1.05.228-1.173.626H83.325c.114-.967,1.023-1.587,2.3-1.587,1.411,0,2.207.7,2.207,1.891v3.846H86.763v-.791h-.088a1.894,1.894,0,0,1-1.691.884,1.7,1.7,0,0,1-1.876-1.685Zm3.618-.481v-.471l-1.375.088c-.775.052-1.127.316-1.127.812s.439.8,1.044.8a1.327,1.327,0,0,0,1.458-1.23Zm-1.768-4.5,1.3-1.778h1.3l-1.453,1.778Z" transform="translate(-57.266 -11.829)" fill="#fff"/>
        <path id="Path_39136" data-name="Path 39136" d="M90.735,15.02H91.8v.863h.083a1.526,1.526,0,0,1,1.52-.956,2.335,2.335,0,0,1,.5.046v1.1a3.043,3.043,0,0,0-.62-.067,1.319,1.319,0,0,0-1.437,1.323v3.323H90.735Z" transform="translate(-58.429 -12.301)" fill="#fff"/>
        <path id="Path_39137" data-name="Path 39137" d="M95.637,21.212h1.137c.094.408.564.672,1.313.672.925,0,1.473-.439,1.473-1.183v-1.08h-.083a1.893,1.893,0,0,1-1.737.945c-1.437,0-2.326-1.111-2.326-2.8,0-1.716.9-2.843,2.337-2.843a1.951,1.951,0,0,1,1.768.992h.088v-.9h1.064V20.7c0,1.287-1.008,2.1-2.6,2.1C96.666,22.8,95.756,22.169,95.637,21.212Zm3.945-3.448c0-1.121-.58-1.84-1.526-1.84s-1.493.718-1.493,1.84.537,1.84,1.493,1.84,1.526-.713,1.526-1.84Z" transform="translate(-59.143 -12.301)" fill="#fff"/>
        <path id="Path_39138" data-name="Path 39138" d="M103.328,19.055c0-1.013.754-1.6,2.093-1.68l1.525-.088V16.8c0-.594-.393-.93-1.152-.93-.62,0-1.05.228-1.173.626h-1.075c.114-.967,1.023-1.587,2.3-1.587,1.411,0,2.207.7,2.207,1.891v3.846h-1.069v-.791H106.9a1.894,1.894,0,0,1-1.691.884,1.7,1.7,0,0,1-1.876-1.685Zm3.618-.481V18.1l-1.375.088c-.775.052-1.127.316-1.127.812s.439.8,1.044.8a1.327,1.327,0,0,0,1.458-1.23Z" transform="translate(-60.35 -12.299)" fill="#fff"/>
        <path id="Path_39139" data-name="Path 39139" d="M111.016,12.445h1.111V20.27h-1.111Z" transform="translate(-61.523 -11.923)" fill="#fff"/>
        <path id="Path_39140" data-name="Path 39140" d="M114.146,17.83a2.667,2.667,0,1,1,5.309,0,2.667,2.667,0,1,1-5.309,0Zm4.166,0c0-1.22-.548-1.934-1.51-1.934s-1.509.713-1.509,1.934.543,1.938,1.509,1.938S118.313,19.055,118.313,17.83Z" transform="translate(-61.999 -12.299)" fill="#fff"/>
        <path id="Path_39141" data-name="Path 39141" d="M130.481,19.127a2.285,2.285,0,0,1-2.439,1.628,2.557,2.557,0,0,1-2.6-2.905,2.6,2.6,0,0,1,2.6-2.941c1.566,0,2.511,1.07,2.511,2.837v.388h-3.975V18.2a1.488,1.488,0,0,0,1.5,1.612,1.349,1.349,0,0,0,1.339-.682Zm-3.907-1.814h2.843a1.358,1.358,0,0,0-1.385-1.458,1.44,1.44,0,0,0-1.458,1.458Z" transform="translate(-63.72 -12.299)" fill="#fff"/>
        <path id="Path_39142" data-name="Path 39142" d="M133.231,15.017H134.3v.894h.083a1.685,1.685,0,0,1,1.68-1A1.831,1.831,0,0,1,138.012,17v3.644H136.9V17.281c0-.9-.393-1.354-1.215-1.354a1.291,1.291,0,0,0-1.344,1.426v3.293h-1.111Z" transform="translate(-64.912 -12.298)" fill="#fff"/>
        <path id="Path_39143" data-name="Path 39143" d="M149.208,19.127a2.285,2.285,0,0,1-2.439,1.628,2.557,2.557,0,0,1-2.6-2.905,2.6,2.6,0,0,1,2.6-2.941c1.566,0,2.511,1.07,2.511,2.837v.388H145.3V18.2a1.488,1.488,0,0,0,1.5,1.612,1.349,1.349,0,0,0,1.339-.682ZM145.3,17.313h2.843a1.358,1.358,0,0,0-1.385-1.458,1.44,1.44,0,0,0-1.458,1.458Z" transform="translate(-66.577 -12.299)" fill="#fff"/>
        <path id="Path_39144" data-name="Path 39144" d="M152.019,12.445h1.111V20.27h-1.111Z" transform="translate(-67.778 -11.923)" fill="#fff"/>
      </g>
    </g>
  </g>
</svg>
