<svg xmlns="http://www.w3.org/2000/svg" width="76.638" height="50" viewBox="0 0 76.638 50">
  <g id="crear_cuenta" data-name="crear cuenta" transform="translate(-29.413 -234.921)">
    <path id="Path_38713" data-name="Path 38713" d="M63.638,360.956a5.136,5.136,0,0,0,7.141-1.247l.011-.016a1.774,1.774,0,0,0-.432-2.473l-.006,0-4.113-4.333,9.387,6.57a3.329,3.329,0,0,0,4.637-.81l.007-.011A3.335,3.335,0,0,0,79.46,354l-.01-.007-7.995-7.348,11.95,8.366a3.328,3.328,0,0,0,4.637-.81l.007-.011a3.335,3.335,0,0,0-.81-4.637l-.01-.007-10.6-9.055,13.037,9.126a3.329,3.329,0,0,0,4.637-.81l.007-.011a3.335,3.335,0,0,0-.81-4.637l-.01-.007L37.637,318.41l-7.708,12.275a3.23,3.23,0,0,0,.614,4.2l17.31,14.831q1.184,1.014,2.461,1.91l13.324,9.327Z" transform="translate(0 -76.963)" fill="#e0aa94"/>
    <path id="Path_38714" data-name="Path 38714" d="M96.028,291.141,70.9,273.02l-.131-.178.118-.178.118-.118,1.9,1.043c2.13,1.378,7,3.415,10.685,3.415,2.523,0,4.035-.945,4.487-2.795a3.04,3.04,0,0,0,.043-.518,3.133,3.133,0,0,0-2.586-3.085l-.019,0a15.067,15.067,0,0,1-6.279-2.459l.052.034-1.234-.829c-1.387-.936-2.959-2-4.12-2.681a9.01,9.01,0,0,0-4.809-1.3,25.1,25.1,0,0,0-7.97,1.845l-2.815.969a11.287,11.287,0,0,1-3.677.6h-.093c-3.433,0-6.792-1.3-10.04-2.561l-.327-.129a3.033,3.033,0,0,0-1.1-.2,3.086,3.086,0,0,0-2.61,1.437l-.007.013-7.708,12.279a3.017,3.017,0,0,0,.568,3.912l0,0,17.308,14.834c.783.669,1.605,1.307,2.446,1.894l13.706,9.6a4.447,4.447,0,0,0,6.185-1.078l.009-.014a1.785,1.785,0,0,0-.43-2.475l-.005,0-4.075-2.852a.943.943,0,0,1-.181-1.376h0a.938.938,0,0,1,1.264-.165l0,0,8.846,6.192a3.113,3.113,0,0,0,3.58-5.094l-.01-.007L73.7,295.19a.943.943,0,0,1-.181-1.376v0a.941.941,0,0,1,1.264-.165l0,0,11.41,7.988a3.113,3.113,0,0,0,3.58-5.094l-.01-.007-10.823-7.575a.934.934,0,0,1-.179-1.375h0a.838.838,0,0,1,1.128-.145l0,0,12.575,8.8a3.114,3.114,0,0,0,3.58-5.1l-.01-.007Z" transform="translate(-2.656 -26.221)" fill="#f7dece"/>
    <path id="Path_38715" data-name="Path 38715" d="M126.816,338.229a3.338,3.338,0,0,1-.865,1.514l-2.232,2.214a3.328,3.328,0,0,1-3.218.875l.023.005a3.335,3.335,0,0,1-1.519-5.585h0l2.232-2.214a3.327,3.327,0,0,1,3.218-.875l-.023-.005a3.343,3.343,0,0,1,2.378,4.094l.005-.023Zm-23.442-10.941,3.342-3.328a3.336,3.336,0,0,0-.966-5.392l-.021-.008a3.272,3.272,0,0,0-1.363-.292,3.313,3.313,0,0,0-2.358.982h0l-3.342,3.328a3.336,3.336,0,0,0,.969,5.392l.021.008a3.274,3.274,0,0,0,1.361.291,3.316,3.316,0,0,0,2.358-.98h0Zm11.57.116a3.335,3.335,0,1,0-4.716-4.711l0,0-6.674,6.665a3.335,3.335,0,1,0,4.716,4.711l0,0Zm5,6.67a3.335,3.335,0,0,0-2.089-5.68h-.012c-.075-.006-.161-.009-.249-.009a3.3,3.3,0,0,0-2.358.987h0l-4.458,4.435a3.335,3.335,0,0,0,2.089,5.682h.012a3.309,3.309,0,0,0,2.608-.978l4.458-4.438Zm36.806-9.2,1.394-1.205-15.369-24.122L115.5,303.962a3.354,3.354,0,0,0-2.743,3.882l0-.02c1.463,5.992,13.346,1.541,18.575-1.336l25.425,18.389Z" transform="translate(-62.938 -59.576)" fill="#b78b60"/>
    <path id="Path_38716" data-name="Path 38716" d="M126.816,276.43a3.339,3.339,0,0,1-.865,1.514l-2.232,2.214a3.327,3.327,0,0,1-3.218.875l.023.005a3.335,3.335,0,0,1-1.519-5.585h0l2.232-2.214a3.327,3.327,0,0,1,3.218-.875l-.023-.005a3.343,3.343,0,0,1,2.378,4.094l.005-.023Zm-23.442-10.941,3.342-3.328a3.336,3.336,0,0,0-.966-5.392l-.021-.009a3.276,3.276,0,0,0-1.362-.292,3.318,3.318,0,0,0-2.359.981h0l-3.342,3.328a3.336,3.336,0,0,0,.969,5.392l.021.008a3.274,3.274,0,0,0,1.361.291,3.316,3.316,0,0,0,2.358-.98h0Zm11.57.116a3.335,3.335,0,1,0-4.716-4.711l0,0-6.674,6.665a3.335,3.335,0,1,0,4.716,4.711l0,0Zm5,6.67a3.335,3.335,0,0,0-2.089-5.68h-.012c-.075-.006-.161-.009-.249-.009a3.3,3.3,0,0,0-2.358.987h0l-4.458,4.435a3.335,3.335,0,0,0,2.089,5.682h.012a3.31,3.31,0,0,0,2.608-.978l4.458-4.438ZM167.873,255.7a3.225,3.225,0,0,0,.59-4.2h0L160.756,237a3.311,3.311,0,0,0-4.011-1.326l.023-.008c-4.429,1.714-9.28,3.684-13.989,2.083l-2.441-.838c-4.331-1.5-9.04-3.259-13.34-.654-1.545.909-3.864,2.519-5.36,3.513a15.1,15.1,0,0,1-6.053,2.381l-.087.011a3.343,3.343,0,0,0-2.743,3.882l0-.02c1.363,5.585,11.783,2.019,17.426-.82a2.153,2.153,0,0,1,2.234.184l-.006,0,25.754,18.711,9.713-8.4Z" transform="translate(-62.938 0)" fill="#d4ab88"/>
  </g>
</svg>
