<svg id="facebook" xmlns="http://www.w3.org/2000/svg" width="50" height="49.851" viewBox="0 0 50 49.851">
  <rect id="Rectangle_302" data-name="Rectangle 302" width="50" height="49.851" rx="8.905" fill="#3b5998"/>
  <path id="Path_2983" data-name="Path 2983" d="M1164.2,664.057v2.276h-2.276a2.279,2.279,0,0,0-2.277,2.277v3.415a1.138,1.138,0,0,0,1.138,1.138h3.1l-.57,2.278h-2.527a1.139,1.139,0,0,0-1.138,1.138v7.97h-2.277v-7.97a1.139,1.139,0,0,0-1.138-1.138h-2.277v-2.278h2.277a1.138,1.138,0,0,0,1.138-1.138V668.61a4.554,4.554,0,0,1,4.555-4.553Zm1.139-2.278h-3.416a6.83,6.83,0,0,0-6.831,6.831v2.277h-2.277a1.137,1.137,0,0,0-1.138,1.138v4.554a1.139,1.139,0,0,0,1.138,1.14h2.277v7.969a1.137,1.137,0,0,0,1.138,1.138h4.554a1.138,1.138,0,0,0,1.14-1.138v-7.969h2.276a1.139,1.139,0,0,0,1.1-.863l1.139-4.553a1.14,1.14,0,0,0-.829-1.381,1.058,1.058,0,0,0-.275-.034h-3.416V668.61h3.416a1.139,1.139,0,0,0,1.138-1.138v-4.555A1.139,1.139,0,0,0,1165.343,661.779Z" transform="translate(-1134.081 -649.377)" fill="#fff"/>
</svg>
