<svg xmlns="http://www.w3.org/2000/svg" width="50" height="50" viewBox="0 0 50 50">
  <g id="funcionalidades" transform="translate(0.002)">
    <path id="Path_38722" data-name="Path 38722" d="M44.442,11.111H36.109V5.556A5.556,5.556,0,0,0,30.554,0H19.442a5.556,5.556,0,0,0-5.556,5.556v5.556H5.554A5.556,5.556,0,0,0,0,16.667V44.444A5.556,5.556,0,0,0,5.554,50H44.442A5.556,5.556,0,0,0,50,44.444V16.667a5.556,5.556,0,0,0-5.556-5.556ZM16.665,8.333a2.779,2.779,0,0,1,2.778-2.778H30.554a2.779,2.779,0,0,1,2.778,2.778v2.778H16.665V8.333Z" fill="#9a4e1c"/>
    <path id="Path_38723" data-name="Path 38723" d="M50,244.222a5.556,5.556,0,0,1-5.556,5.556H5.556A5.556,5.556,0,0,1,0,244.222V233.111a5.556,5.556,0,0,1,5.556-5.556H44.444A5.556,5.556,0,0,1,50,233.111Z" transform="translate(-0.002 -216.444)" fill="#662113"/>
    <path id="Path_38724" data-name="Path 38724" d="M50,241.444A5.556,5.556,0,0,1,44.444,247H5.556A5.556,5.556,0,0,1,0,241.444v-8.333a5.556,5.556,0,0,1,5.556-5.556H44.444A5.556,5.556,0,0,1,50,233.111Z" transform="translate(-0.002 -216.444)" fill="#9a4e1c"/>
    <path id="Path_38725" data-name="Path 38725" d="M409.333,457.889a2.779,2.779,0,0,1-2.778,2.778H401a2.778,2.778,0,0,1,0-5.556h5.556A2.779,2.779,0,0,1,409.333,457.889Z" transform="translate(-378.78 -432.889)" fill="#ccd6dd"/>
  </g>
</svg>
