<svg xmlns="http://www.w3.org/2000/svg" width="41.667" height="50" viewBox="0 0 41.667 50">
  <g id="licitaciones" transform="translate(-85.333)">
    <path id="Path_38726" data-name="Path 38726" d="M497.579,13.314l-12.5-12.5a2.778,2.778,0,1,0-3.929,3.929l-5.36,5.36,12.5,12.5,5.36-5.36a2.778,2.778,0,0,0,3.929-3.929Z" transform="translate(-371.392 0)" fill="#e1e8ed"/>
    <path id="Path_38727" data-name="Path 38727" d="M111.722,0H90.889a5.556,5.556,0,0,0-5.556,5.556V44.444A5.556,5.556,0,0,0,90.889,50h30.556A5.556,5.556,0,0,0,127,44.444V15.278H114.5a2.987,2.987,0,0,1-2.778-2.778V0Z" fill="#ccd6dd"/>
    <path id="Path_38728" data-name="Path 38728" d="M219.945,0h-2.778V12.5a5.556,5.556,0,0,0,5.556,5.556h12.5V15.278h-12.5a2.987,2.987,0,0,1-2.778-2.778ZM213,11.111a1.389,1.389,0,0,1-1.389,1.389H200.5a1.389,1.389,0,1,1,0-2.778h11.111A1.389,1.389,0,0,1,213,11.111Zm0,5.556a1.389,1.389,0,0,1-1.389,1.389H200.5a1.389,1.389,0,1,1,0-2.778h11.111A1.389,1.389,0,0,1,213,16.667Zm16.667,5.556a1.389,1.389,0,0,1-1.389,1.389H200.5a1.389,1.389,0,1,1,0-2.778h27.778A1.388,1.388,0,0,1,229.667,22.222Zm0,5.556a1.388,1.388,0,0,1-1.389,1.389H200.5a1.389,1.389,0,1,1,0-2.778h27.778a1.388,1.388,0,0,1,1.389,1.389Zm0,5.556a1.388,1.388,0,0,1-1.389,1.389H200.5a1.389,1.389,0,1,1,0-2.778h27.778A1.388,1.388,0,0,1,229.667,33.333Zm0,5.556a1.388,1.388,0,0,1-1.389,1.389H200.5a1.389,1.389,0,1,1,0-2.778h27.778A1.388,1.388,0,0,1,229.667,38.889Z" transform="translate(-108.223 0)" fill="#99aab5"/>
  </g>
</svg>
