<svg id="linkedin" xmlns="http://www.w3.org/2000/svg" width="50" height="49.851" viewBox="0 0 50 49.851">
  <rect id="Rectangle_303" data-name="Rectangle 303" width="50" height="49.851" rx="8.905" fill="#006fc9"/>
  <path id="Path_2984" data-name="Path 2984" d="M1215.383,668.969a7.926,7.926,0,0,0-7.926,7.926v7.925a1.131,1.131,0,0,0,1.131,1.132h4.529a1.132,1.132,0,0,0,1.132-1.132v-7.925a1.132,1.132,0,0,1,2.265,0v7.925a1.131,1.131,0,0,0,1.131,1.132h4.53a1.131,1.131,0,0,0,1.132-1.132v-7.925a7.926,7.926,0,0,0-7.924-7.926Zm0,2.265a5.661,5.661,0,0,1,5.661,5.661v6.794h-2.265v-6.794a3.4,3.4,0,0,0-6.794,0v6.794h-2.263v-6.794a5.658,5.658,0,0,1,5.661-5.661Zm-15.852-1.132a1.133,1.133,0,0,0-1.133,1.132V684.82a1.132,1.132,0,0,0,1.133,1.132h4.53a1.131,1.131,0,0,0,1.131-1.132V671.233a1.133,1.133,0,0,0-1.131-1.132Zm1.132,2.265h2.265v11.322h-2.265Zm4.529-6.794a3.4,3.4,0,1,0-1,2.4A3.379,3.379,0,0,0,1205.192,665.572Zm-2.265,0a1.131,1.131,0,1,1-.331-.8A1.121,1.121,0,0,1,1202.927,665.572Z" transform="translate(-1185.853 -649.138)" fill="#fff"/>
</svg>
