<svg xmlns="http://www.w3.org/2000/svg" width="41.667" height="50" viewBox="0 0 41.667 50">
  <g id="notificaciones" transform="translate(-85.332)">
    <path id="Path_38729" data-name="Path 38729" d="M120.054,99.223c0,15.278,6.944,13.889,6.944,20.833a2.721,2.721,0,0,1-2.778,2.778H88.11a2.721,2.721,0,0,1-2.778-2.778c0-6.944,6.944-5.556,6.944-20.833a13.889,13.889,0,0,1,27.778,0Z" transform="translate(0 -81.167)" fill="#ffac33"/>
    <path id="Path_38730" data-name="Path 38730" d="M435,4.167A4.167,4.167,0,1,1,430.834,0,4.167,4.167,0,0,1,435,4.167Z" transform="translate(-324.668)" fill="#ffac33"/>
    <path id="Path_38731" data-name="Path 38731" d="M403.778,915.778a5.556,5.556,0,0,0,5.556-5.556H398.222A5.556,5.556,0,0,0,403.778,915.778Z" transform="translate(-297.612 -865.778)" fill="#ffac33"/>
  </g>
</svg>
