<svg xmlns="http://www.w3.org/2000/svg" width="50" height="41.667" viewBox="0 0 50 41.667">
  <g id="servicio" transform="translate(0 -170.668)">
    <path id="Path_38717" data-name="Path 38717" d="M47.222,202.746c-.579-1.337-1.244-2.789-2.778-2.789H43.056a2.784,2.784,0,0,0,2.778-2.789V173.457a2.784,2.784,0,0,0-2.778-2.789H6.944a2.784,2.784,0,0,0-2.778,2.789v23.711a2.784,2.784,0,0,0,2.778,2.789H5.556c-1.533,0-2.315,1.394-2.778,2.789L0,209.544a2.784,2.784,0,0,0,2.778,2.79H47.222A2.784,2.784,0,0,0,50,209.546l-2.778-6.8Z" fill="#ccd6dd"/>
    <path id="Path_38718" data-name="Path 38718" d="M.228,969.244l.008.079.236.961a2.775,2.775,0,0,0,2.522,1.633H47.439a2.778,2.778,0,0,0,2.767-2.674H.228Z" transform="translate(-0.217 -759.583)" fill="#9aaab4"/>
    <path id="Path_38719" data-name="Path 38719" d="M178.334,250.126a1.391,1.391,0,0,1-1.389,1.394H143.612a1.391,1.391,0,0,1-1.389-1.394V229.206a1.391,1.391,0,0,1,1.389-1.394h33.333a1.391,1.391,0,0,1,1.389,1.394Z" transform="translate(-135.278 -54.354)" fill="#5dadec"/>
    <path id="Path_38720" data-name="Path 38720" d="M132.91,801.48l-1.056-3.021a1.9,1.9,0,0,0-1.65-1.162H94.3c-.767,0-1.258.567-1.606,1.439l-.956,2.746c-.3.828.622,1.394,1.389,1.394h10.525s1.3-.065,1.532-.844c.267-.9.576-2.256.643-2.494a1.181,1.181,0,0,1,1.189-.737h11.914a1.015,1.015,0,0,1,1.126.786c.058.283.433,1.585.608,2.475.154.793,1.7.814,1.7.814h9.158c.765,0,1.69-.654,1.386-1.394Z" transform="translate(-87.207 -596.032)" fill="#aebbc1"/>
    <path id="Path_38721" data-name="Path 38721" d="M412.557,860.363H401.75a.73.73,0,0,1-.672-.937c.075-.46.5-2.49.532-2.726a.774.774,0,0,1,.728-.521h9.743a.729.729,0,0,1,.764.679c.082.454.419,2.279.446,2.7A.719.719,0,0,1,412.557,860.363Z" transform="translate(-381.481 -652.038)" fill="#9aaab4"/>
  </g>
</svg>
