<svg id="twitter" xmlns="http://www.w3.org/2000/svg" width="50" height="49.851" viewBox="0 0 50 49.851">
  <rect id="Rectangle_301" data-name="Rectangle 301" width="50" height="49.851" rx="8.905" fill="#55acee"/>
  <path id="Path_2982" data-name="Path 2982" d="M1322.131,666.236a7.586,7.586,0,0,1-.7.792,1.135,1.135,0,0,0-.317,1.034,3.926,3.926,0,0,1,.069.722c0,5.984-2.766,10.215-6.615,12.407a14.124,14.124,0,0,1-10.5,1.275,14.437,14.437,0,0,0,4.091-1.924,1.137,1.137,0,0,0-.178-1.981,8.95,8.95,0,0,1-6.021-8.9,12.858,12.858,0,0,1,.317-2.484c.448.391.914.8,1.405,1.181a13.188,13.188,0,0,0,8.42,2.74,1.139,1.139,0,0,0,1.111-1.138v-1.151a3.826,3.826,0,0,1,.038-.607,3.962,3.962,0,0,1,6.912-2.049,1.141,1.141,0,0,0,1.177.346q.393-.113.791-.259Zm1.81-3.505a11.238,11.238,0,0,1-2.6,1.371,6.245,6.245,0,0,0-10.4,4.69,10.907,10.907,0,0,1-5.862-2.242,11.249,11.249,0,0,1-2.316-2.409,1.141,1.141,0,0,0-1.588-.27,1.127,1.127,0,0,0-.381.466s-.15.341-.325.866c-.126.383-.274.882-.407,1.468a15.21,15.21,0,0,0-.369,2.927,11.837,11.837,0,0,0,.741,4.55,11.087,11.087,0,0,0,4.721,5.49,11.948,11.948,0,0,1-5.547,1.1,1.139,1.139,0,0,0-.6,2.134,16.991,16.991,0,0,0,16.7.3c4.6-2.62,7.764-7.628,7.764-14.384,0-.189-.01-.375-.027-.557a9.8,9.8,0,0,0,2.272-4.3,1.138,1.138,0,0,0-1.764-1.192Z" transform="translate(-1287.075 -648.937)" fill="#fff"/>
</svg>
