<svg xmlns="http://www.w3.org/2000/svg" width="50" height="49.851" viewBox="0 0 50 49.851">
  <g id="youtube" transform="translate(8297.308 -2174.694)">
    <rect id="Rectangle_304" data-name="Rectangle 304" width="50" height="49.851" rx="8.905" transform="translate(-8297.308 2174.694)" fill="#c9003d"/>
    <path id="Path_2985" data-name="Path 2985" d="M1272.7,667.518a34.031,34.031,0,0,1,0,11.64,2.129,2.129,0,0,1-.312.659,2,2,0,0,1-1.09.775,28.815,28.815,0,0,1-4.448.391c-2.557.1-5.122.1-5.122.1s-2.564,0-5.121-.1a28.946,28.946,0,0,1-4.437-.389,2.081,2.081,0,0,1-.648-.307,2.015,2.015,0,0,1-.768-1.058,34.315,34.315,0,0,1,0-11.668,2.119,2.119,0,0,1,.313-.659,2,2,0,0,1,1.09-.775,28.82,28.82,0,0,1,4.448-.391c2.557-.1,5.121-.1,5.121-.1s2.564,0,5.124.09a32.289,32.289,0,0,1,4.424.347,2.1,2.1,0,0,1,.686.343,2.019,2.019,0,0,1,.738,1.1Zm2.233-.528a4.322,4.322,0,0,0-1.586-2.4,4.428,4.428,0,0,0-1.432-.717,31.647,31.647,0,0,0-4.982-.435c-2.6-.091-5.2-.091-5.2-.091s-2.607,0-5.209.1a29.4,29.4,0,0,0-4.952.466,4.325,4.325,0,0,0-2.369,1.664,4.424,4.424,0,0,0-.672,1.455c-.008.027-.013.056-.017.08a36.574,36.574,0,0,0,0,12.6.814.814,0,0,0,.024.1,4.312,4.312,0,0,0,1.664,2.349,4.42,4.42,0,0,0,1.356.643,29.326,29.326,0,0,0,4.965.471c2.6.1,5.209.1,5.209.1s2.606,0,5.21-.1a29.385,29.385,0,0,0,4.952-.467,4.326,4.326,0,0,0,2.367-1.663,4.439,4.439,0,0,0,.674-1.453c.006-.029.013-.058.016-.082a36.258,36.258,0,0,0,0-12.556l-.014-.066Zm-14.638,8.174V671.6l3.129,1.78Zm-.581,2.969,6.6-3.752a1.148,1.148,0,0,0,0-2l-6.6-3.75a1.147,1.147,0,0,0-1.714,1v7.5a1.148,1.148,0,0,0,1.148,1.148,1.132,1.132,0,0,0,.566-.151Z" transform="translate(-9534.038 1526.258)" fill="#fff"/>
  </g>
</svg>
