<svg id="Component_251_1" data-name="Component 251 – 1" xmlns="http://www.w3.org/2000/svg" width="49" height="49" viewBox="0 0 49 49">
  <rect id="Rectangle_4335" data-name="Rectangle 4335" width="49" height="49" rx="10" fill="#edf8e2"/>
  <path id="Path_40719" data-name="Path 40719" d="M23.137,1.853c-.072-.03-.123.037-.173.079s-.109.1-.162.158l-2,2c-.193.193-.195.188-.377-.022a13.319,13.319,0,0,0-1.275-1.28,11.091,11.091,0,0,0-2.672-1.718A10.527,10.527,0,0,0,12.029.02Q7.1.013,2.172.021c-.12,0-.3-.07-.349.046s.116.21.2.3Q3.055,1.4,4.09,2.426c.124.122.126.2-.015.3a5.482,5.482,0,0,0-.6.552A11.43,11.43,0,0,0,.309,8.713,10.485,10.485,0,0,0,0,10.621V10.8c.03.027.022.063.023.1v.078c0,.034.006.07-.023.1v.181a.346.346,0,0,1,0,.271v9.858c.129.022.185-.085.255-.155q1.057-1.05,2.109-2.106c.176-.176.185-.175.344.016a10.672,10.672,0,0,0,1.2,1.223,11.662,11.662,0,0,0,5.716,2.724c.333.059.672.041,1,.107h.181c.01-.056.051-.044.088-.038s.105-.022.138.038h.181a.2.2,0,0,1,.271,0h.181a.152.152,0,0,1,.226,0h.226c.033-.06.087-.044.138-.039s.078-.017.088.039h.09c.348-.054.7-.037,1.05-.1a11.74,11.74,0,0,0,5.066-2.165,12.343,12.343,0,0,0,1.964-1.862c.159-.182.15-.222-.014-.4-.036-.039-.074-.075-.111-.113L15.8,13.969c-.053-.053-.108-.105-.162-.158a.168.168,0,0,0-.285.018c-.159.191-.3.393-.467.581a4.212,4.212,0,0,1-3.766,1.512,4.218,4.218,0,0,1-3.164-1.911c-.177-.257-.174-.3.043-.518q1.142-1.144,2.285-2.287c.072-.072.2-.148.149-.256s-.187-.071-.289-.072c-.844,0-1.688,0-2.532,0-.3,0-.316-.019-.242-.311a4.325,4.325,0,0,1,1.863-2.6c.207-.138.257-.13.446.058q1.153,1.149,2.3,2.3c.072.072.145.195.255.152s.076-.184.076-.284c0-.836,0-1.673,0-2.509,0-.334.011-.346.325-.265a4.343,4.343,0,0,1,2.6,1.869.294.294,0,0,1-.06.432q-1.125,1.113-2.238,2.238c-.1.1-.282.185-.216.332.057.128.246.068.377.068q4.827,0,9.653,0c.068,0,.136,0,.2,0,.162,0,.218-.066.218-.233q-.006-5.053,0-10.105c0-.055.033-.134-.035-.163M10.172,17.186a5.574,5.574,0,0,0,5.251-1.3c.128-.112.191-.123.317,0q1.429,1.448,2.876,2.878c.106.1.106.158,0,.259a9.849,9.849,0,0,1-5.778,2.713,10.039,10.039,0,0,1-9.724-4.4c-.132-.182-.258-.368-.4-.577L1.4,18.082c-.075-.048-.041-.114-.041-.167,0-1.808,0-3.616-.005-5.425,0-.153.029-.2.193-.2,1.823.007,3.647,0,5.47,0h.109l.042.051c-.257.245-.518.486-.772.735-.319.312-.32.316-.139.73a5.576,5.576,0,0,0,3.917,3.376M10.9,7.163c-.081.02-.1-.052-.14-.088-.19-.183-.374-.372-.561-.558-.4-.4-.409-.414-.934-.169a5.673,5.673,0,0,0-3.373,4.41c-.024.141-.061.183-.2.182q-2.068-.008-4.136,0c-.148,0-.169-.042-.157-.177A10.171,10.171,0,0,1,4.464,4.279,11.379,11.379,0,0,1,6.219,2.9c.164-.109.212-.169.039-.328-.4-.365-.77-.754-1.195-1.174,1.94,0,3.808,0,5.677,0,.129,0,.16.037.16.163q-.006,2.8,0,5.607m10.739,3.78c-1.868-.009-3.736-.005-5.677-.005.357-.352.67-.664.988-.97a.209.209,0,0,0,.066-.27,5.742,5.742,0,0,0-4.245-3.709c-.166-.039-.408-.017-.481-.119-.087-.121-.032-.346-.032-.526,0-1.236,0-2.471-.005-3.707,0-.185.052-.217.223-.2A10.2,10.2,0,0,1,18.2,3.84a11.15,11.15,0,0,1,2.08,2.4c.155.233.16.231.365.026L21.8,5.108v.269q0,2.678,0,5.357c0,.11.033.21-.159.209" transform="translate(12.5 12.5)" fill="#73c914" stroke="#73c914" stroke-width="0.8"/>
</svg>
