<svg id="Component_247_1" data-name="Component 247 – 1" xmlns="http://www.w3.org/2000/svg" width="49" height="49" viewBox="0 0 49 49">
  <rect id="Rectangle_4335" data-name="Rectangle 4335" width="49" height="49" rx="10" fill="#dff3f8"/>
  <path id="folder" d="M55.667,82.288V70.455a3.228,3.228,0,0,0-3.227-3.227H43.333L41.5,64.479a1.075,1.075,0,0,0-.9-.479H35.227A3.228,3.228,0,0,0,32,67.227V82.288a3.228,3.228,0,0,0,3.227,3.227H52.439a3.228,3.228,0,0,0,3.227-3.227Zm-2.152,0a1.076,1.076,0,0,1-1.076,1.076H35.227a1.076,1.076,0,0,1-1.076-1.076V67.227a1.076,1.076,0,0,1,1.076-1.076h4.8L41.863,68.9a1.078,1.078,0,0,0,.9.479h9.682a1.076,1.076,0,0,1,1.076,1.076Z" transform="translate(-19.5 -50.5)" fill="#00a1c9" stroke="#00a1c9" stroke-width="0.8"/>
</svg>
