<svg id="Component_252_1" data-name="Component 252 – 1" xmlns="http://www.w3.org/2000/svg" width="49" height="49" viewBox="0 0 49 49">
  <rect id="Rectangle_4335" data-name="Rectangle 4335" width="49" height="49" rx="10" fill="#edf8e2"/>
  <path id="Union_97" data-name="Union 97" d="M0-2514.28v-3.294H16.3v3.294Zm7.083-7.078-4.939-5.009a1.551,1.551,0,0,1,0-2.167,1.529,1.529,0,0,1,2.136,0l2.361,2.394v-8.325A1.523,1.523,0,0,1,8.151-2536a1.523,1.523,0,0,1,1.511,1.533v8.325l2.359-2.394a1.53,1.53,0,0,1,2.137,0,1.548,1.548,0,0,1,0,2.167l-4.938,5.009a1.491,1.491,0,0,1-1.068.45A1.485,1.485,0,0,1,7.083-2521.359Z" transform="translate(16.5 2549.5)" fill="#73c914" stroke="#73c914" stroke-width="0.8"/>
</svg>
