<svg id="Component_244_1" data-name="Component 244 – 1" xmlns="http://www.w3.org/2000/svg" width="49" height="49" viewBox="0 0 49 49">
  <rect id="Rectangle_4335" data-name="Rectangle 4335" width="49" height="49" rx="10" fill="#dff3f8"/>
  <path id="file-chart-line" d="M8.764,16.427V18.36a.966.966,0,1,1-1.933,0V16.427a.966.966,0,1,1,1.933,0Zm6.764-2.9a.966.966,0,0,0-.966.966V18.36a.966.966,0,0,0,1.933,0V14.495A.966.966,0,0,0,15.528,13.528Zm-3.865-2.9a.967.967,0,0,0-.966.966V18.36a.966.966,0,0,0,1.933,0V11.6A.967.967,0,0,0,11.663,10.629Zm9.663-.5V18.36a4.837,4.837,0,0,1-4.832,4.832H6.832A4.837,4.837,0,0,1,2,18.36V4.832A4.837,4.837,0,0,1,6.832,0h4.363a6.723,6.723,0,0,1,4.783,1.981l3.367,3.369a6.718,6.718,0,0,1,1.982,4.783ZM14.611,3.347A4.842,4.842,0,0,0,13.6,2.569V6.764a.967.967,0,0,0,.966.966h4.195a4.9,4.9,0,0,0-.778-1.015L14.612,3.347Zm4.782,6.784c0-.158-.008-.314-.022-.469H14.562a2.9,2.9,0,0,1-2.9-2.9V1.955c-.155-.014-.311-.022-.469-.022H6.832a2.9,2.9,0,0,0-2.9,2.9V18.36a2.9,2.9,0,0,0,2.9,2.9h9.663a2.9,2.9,0,0,0,2.9-2.9Z" transform="translate(12.5 12.5)" fill="#00a1c9" stroke="#00a1c9" stroke-width="0.8"/>
</svg>
