<svg id="Component_246_1" data-name="Component 246 – 1" xmlns="http://www.w3.org/2000/svg" width="49" height="49" viewBox="0 0 49 49">
  <rect id="Rectangle_4335" data-name="Rectangle 4335" width="49" height="49" rx="10" fill="#dff3f8"/>
  <path id="fi-rr-calendar-lines" d="M17.13,1.8h-.9V.9a.9.9,0,0,0-1.8,0v.9H7.212V.9a.9.9,0,1,0-1.8,0v.9h-.9A4.513,4.513,0,0,0,0,6.311V17.13a4.513,4.513,0,0,0,4.508,4.508H17.13a4.513,4.513,0,0,0,4.508-4.508V6.311A4.513,4.513,0,0,0,17.13,1.8ZM4.507,3.606H17.13a2.708,2.708,0,0,1,2.7,2.7v.9H1.8v-.9a2.708,2.708,0,0,1,2.7-2.7ZM17.13,19.835H4.507a2.708,2.708,0,0,1-2.7-2.7V9.016H19.835V17.13A2.708,2.708,0,0,1,17.13,19.835Zm0-7.213a.9.9,0,0,1-.9.9H5.409a.9.9,0,1,1,0-1.8h10.82A.9.9,0,0,1,17.13,12.622Zm-6.312,3.607a.9.9,0,0,1-.9.9H5.409a.9.9,0,1,1,0-1.8H9.917A.9.9,0,0,1,10.819,16.229Z" transform="translate(13.501 13.501)" fill="#00a1c9" stroke="#00a1c9" stroke-width="0.8"/>
</svg>
