<svg id="Component_250_1" data-name="Component 250 – 1" xmlns="http://www.w3.org/2000/svg" width="45" height="45" viewBox="0 0 45 45">
  <g id="Group_9240" data-name="Group 9240">
    <rect id="Rectangle_4335" data-name="Rectangle 4335" width="45" height="45" rx="8" fill="#f1dff8"/>
  </g>
  <path id="Path_2705" data-name="Path 2705" d="M1291.628,113.467V97.537a2.57,2.57,0,0,1,2.51-2.623h15.321a2.57,2.57,0,0,1,2.51,2.623v12.1l-5.412,6.452h-12.419a2.57,2.57,0,0,1-2.51-2.623Z" transform="translate(-1279.298 -82.502)" fill="none" stroke="#8c00c9" stroke-width="2" fill-rule="evenodd"/>
  <path id="Path_2706" data-name="Path 2706" d="M1302.34,111.762v-3.119a2.89,2.89,0,0,1,2.824-2.949h2.572a.39.39,0,0,1,0,.78h-2.572a2.127,2.127,0,0,0-2.078,2.17v3.119a.373.373,0,1,1-.746,0Z" transform="translate(-1278.34 -81.72)" fill="#8c00c9" stroke="#8c00c9" stroke-width="0.8" fill-rule="evenodd"/>
</svg>
