<svg id="Component_248_1" data-name="Component 248 – 1" xmlns="http://www.w3.org/2000/svg" width="45" height="45" viewBox="0 0 45 45">
  <g id="Group_9240" data-name="Group 9240">
    <rect id="Rectangle_4335" data-name="Rectangle 4335" width="45" height="45" rx="8" fill="#f1dff8"/>
  </g>
  <path id="users" d="M19.059,84.117V82a5.292,5.292,0,0,0-5.294-5.294H5.294A5.292,5.292,0,0,0,0,82v2.118a1.059,1.059,0,1,0,2.118,0V82a3.178,3.178,0,0,1,3.176-3.176h8.471A3.178,3.178,0,0,1,16.941,82v2.118a1.059,1.059,0,1,0,2.118,0ZM14.823,69.294a5.292,5.292,0,1,0-1.55,3.744A5.286,5.286,0,0,0,14.823,69.294Zm-2.118,0a3.178,3.178,0,1,1-.931-2.246A3.162,3.162,0,0,1,12.706,69.294ZM25.411,84.117V82a5.264,5.264,0,0,0-1.286-3.453,5.353,5.353,0,0,0-2.678-1.669,1.058,1.058,0,0,0-.541,2.047,3.228,3.228,0,0,1,1.618,1.008A3.153,3.153,0,0,1,23.294,82v2.118a1.059,1.059,0,1,0,2.118,0ZM16.678,66.222A3.173,3.173,0,0,1,17.8,71.836a3.262,3.262,0,0,1-1.126.541,1.059,1.059,0,0,0,.538,2.048,5.372,5.372,0,0,0,1.855-.894A5.293,5.293,0,0,0,17.2,64.169a1.059,1.059,0,1,0-.525,2.052Z" transform="translate(9.794 -52.088)" fill="#8c00c9" stroke="#8c00c9" stroke-width="0.8"/>
</svg>
