<svg id="Component_249_1" data-name="Component 249 – 1" xmlns="http://www.w3.org/2000/svg" width="45" height="45" viewBox="0 0 45 45">
  <g id="Group_9240" data-name="Group 9240">
    <rect id="Rectangle_4335" data-name="Rectangle 4335" width="45" height="45" rx="8" fill="#f1dff8"/>
  </g>
  <path id="share-2" d="M77.682,48.458a1.067,1.067,0,0,0,.067-.1,1.144,1.144,0,0,0,.052-.1,1.969,1.969,0,0,1,.239-.29,1.913,1.913,0,1,1-.358.493Zm.084-11.591c-.009-.016-.017-.033-.027-.049s-.019-.033-.03-.048a1.931,1.931,0,1,1,.331.442A1.936,1.936,0,0,1,77.765,36.867Zm-8.28,4.7c.009.016.017.033.027.049s.019.033.03.048a1.929,1.929,0,0,1,0,1.839c-.011.015-.02.032-.03.048s-.018.032-.026.048a1.935,1.935,0,0,1-.274.345,1.925,1.925,0,1,1,0-2.722A1.935,1.935,0,0,1,69.486,41.572ZM75.7,36.9l-5.109,2.981-.013-.013a3.851,3.851,0,1,0,0,5.445l.013-.013,5.11,2.978a3.855,3.855,0,1,0,.983-1.671l-.01.01-5.113-2.979a3.867,3.867,0,0,0,0-2.094l5.109-2.982.013.013A3.837,3.837,0,1,0,75.7,36.9Z" transform="translate(-52.126 -20.088)" fill="#8c00c9" stroke="#8c00c9" stroke-width="0.8"/>
</svg>
