<svg id="acceso-contratacion" xmlns="http://www.w3.org/2000/svg" width="49" height="49" viewBox="0 0 49 49">
  <rect id="Rectangle_4506" data-name="Rectangle 4506" width="49" height="49" rx="10" fill="#edf8e2"/>
  <path id="fi-rr-globe-alt" d="M54,15.083a7.543,7.543,0,1,0-7.543-7.543h0A7.552,7.552,0,0,0,54,15.083Zm0-13.2a5.658,5.658,0,1,1-5.658,5.658h0A5.663,5.663,0,0,1,54,1.882h0Zm9.342,12.044a11.317,11.317,0,0,1-8.357,4.868l-.042,0V20.74h3.772a.943.943,0,1,1,0,1.886H49.285a.943.943,0,1,1,0-1.886h3.772V18.806A11.31,11.31,0,0,1,45.286.32l-.015.019a.943.943,0,1,1,1.453,1.2v0A9.43,9.43,0,1,0,61.764,12.892l.021-.031a.943.943,0,1,1,1.555,1.069l0,0Z" transform="translate(-28.685 13.624)" fill="#73c914" stroke="#73c914" stroke-width="0.8"/>
</svg>
