<svg id="app" xmlns="http://www.w3.org/2000/svg" width="49" height="49" viewBox="0 0 49 49">
  <rect id="Rectangle_4506" data-name="Rectangle 4506" width="49" height="49" rx="10" fill="#edf8e2"/>
  <path id="fi-rr-mobile-notch" d="M181.862-.031c-.027,0-6.145,0-6.172,0a5.074,5.074,0,0,0-5.022,5.067v14.19a5.073,5.073,0,0,0,5.068,5.068h6.081a5.073,5.073,0,0,0,5.068-5.068V5.036a5.074,5.074,0,0,0-5.022-5.068Zm3,19.256a3.044,3.044,0,0,1-3.041,3.041h-6.081a3.044,3.044,0,0,1-3.041-3.041V5.036a3.046,3.046,0,0,1,2.444-2.982l.7,1.408a1.014,1.014,0,0,0,.907.56H180.8a1.015,1.015,0,0,0,.907-.56l.7-1.408a3.045,3.045,0,0,1,2.444,2.982v14.19Zm-5.068,1.014h-2.027a1.014,1.014,0,0,1-1.014-1.014h0a1.014,1.014,0,0,1,1.014-1.014h2.027a1.014,1.014,0,0,1,1.014,1.014h0A1.014,1.014,0,0,1,179.789,20.238Z" transform="translate(-154.667 12.033)" fill="#73c914" stroke="#73c914" stroke-width="0.8"/>
</svg>
