<svg id="colombia" xmlns="http://www.w3.org/2000/svg" width="49" height="49" viewBox="0 0 49 49">
  <rect id="Rectangle_4335" data-name="Rectangle 4335" width="49" height="49" rx="10" fill="#edf8e2"/>
  <path id="Path_2128" data-name="Path 2128" d="M1667.923,3719.931h-1.355l-.255-.331-.061-.027a1.54,1.54,0,0,1-1.012-.934,1.591,1.591,0,0,1,.191-1.351l-.138,0c-.29,0-.6.031-.924.063l-.351.034a2.74,2.74,0,0,1-.317.019,3.383,3.383,0,0,1-2.668-1.744,4.4,4.4,0,0,0-.674-.781l-.041-.032-.037-.037a4.409,4.409,0,0,0-3.025-1.327h-.016a5.338,5.338,0,0,1-3.136-1.554c-.107-.089-.208-.174-.309-.256l-.017-.014a1.66,1.66,0,0,1-.309-2.338,4.058,4.058,0,0,1,1.268-1.143c.368-.244.622-.421.677-.575-.014-.479.006-.952.025-1.41a6.529,6.529,0,0,0-.265-2.8l-.015-.035-.012-.036a3.025,3.025,0,0,1,.47-2.8,6.5,6.5,0,0,1,1.711-1.6,1.439,1.439,0,0,0,.6-.976,2.7,2.7,0,0,1,1.813-2.206l.048-.02.049-.015c.355-.1.711-.188,1.055-.268a4.523,4.523,0,0,0,2.411-1.044l.035-.036a2.519,2.519,0,0,1,1.175-.726,1.585,1.585,0,0,1,.375-.045,1.739,1.739,0,0,1,1.274.574,1.658,1.658,0,0,1,.441,1.256,1.374,1.374,0,0,1-.984,1.2,2.381,2.381,0,0,0-1.511,1.523,1.912,1.912,0,0,0,.35,1.749,2.035,2.035,0,0,1,.382,1.553c0,.008,0,.016,0,.024a2.4,2.4,0,0,0,.354.02l.183,0h.209a3.966,3.966,0,0,1,.83.072,3.387,3.387,0,0,1,2,1.063l.029.035c.087.108.162.174.469.174.166,0,.359-.021.565-.042a7.649,7.649,0,0,1,.8-.054,2.966,2.966,0,0,1,1.147.208l1.167.481-.7,1.048c-.728,1.084-.294,2.452.166,3.9.086.272.176.554.256.831v0a1.379,1.379,0,0,1-.072,1.113,1.45,1.45,0,0,1-.732.6,5.64,5.64,0,0,1-2.181.494l-.23.019a1.95,1.95,0,0,1-.025.24,3.758,3.758,0,0,1-.527,1.254l-.008.013c-.112.2-.087.23,0,.331a3.012,3.012,0,0,1,.63,2.535l-.005.034-.008.034a23.528,23.528,0,0,1-.975,3.416Zm-2.631-4.709a4.286,4.286,0,0,1,1.424.22l.019.007a2.131,2.131,0,0,1,.359.169l.037-.167c.075-.536-.03-.706-.134-.823a2.244,2.244,0,0,1-.261-2.719l.021-.036c.069-.119.171-.294.23-.425l-1.52-1.026,1.811-.723a6.288,6.288,0,0,1,1.879-.36,6.489,6.489,0,0,0,1-.13c-.023-.074-.047-.15-.072-.226a8.326,8.326,0,0,1-.559-4.139c-.2.02-.4.036-.613.036a2.5,2.5,0,0,1-2.058-.921,1.4,1.4,0,0,0-.823-.385l-.041-.008a2.086,2.086,0,0,0-.409-.029h-.392a2.836,2.836,0,0,1-1.723-.459l-.04-.03a1.887,1.887,0,0,1-.646-1.788c0-.051.01-.114.011-.161a4.01,4.01,0,0,1-.667-3.554q.049-.167.112-.328c-.3.083-.6.152-.882.218-.31.072-.6.141-.885.222-.42.181-.478.361-.5.543a3.481,3.481,0,0,1-1.4,2.361l-.025.019-.026.018a4.627,4.627,0,0,0-1.206,1.1,1,1,0,0,0-.216.927,8.368,8.368,0,0,1,.409,3.652c-.02.474-.039.921-.021,1.354l0,.081-.009.081a2.954,2.954,0,0,1-1.6,2.1,4.933,4.933,0,0,0-.528.381l.079.066a3.649,3.649,0,0,0,1.907,1.076,6.464,6.464,0,0,1,4.346,1.873,6.224,6.224,0,0,1,1.005,1.13c.467.624.72.918,1.016.918a.686.686,0,0,0,.084-.006l.036,0,.343-.033A11.212,11.212,0,0,1,1665.293,3715.222Z" transform="translate(-1638.355 -3682.255)" fill="#73c914" stroke="#73c914" stroke-width="0.8"/>
</svg>
