<svg id="conocer-mas" xmlns="http://www.w3.org/2000/svg" width="49" height="49" viewBox="0 0 49 49">
  <rect id="Rectangle_4509" data-name="Rectangle 4509" width="49" height="49" rx="10" fill="#dff3f8"/>
  <path id="add" d="M10.8,0A10.8,10.8,0,1,0,21.6,10.8,10.8,10.8,0,0,0,10.8,0Zm0,19.8a9,9,0,1,1,9-9A9,9,0,0,1,10.8,19.8Zm4.5-9a.9.9,0,0,1-.9.9H11.7v2.7a.9.9,0,0,1-1.8,0V11.7H7.2a.9.9,0,1,1,0-1.8H9.9V7.2a.9.9,0,1,1,1.8,0V9.9h2.7A.9.9,0,0,1,15.3,10.8Z" transform="translate(14 14)" fill="#00a1c9" stroke="#00a1c9" stroke-width="0.8"/>
</svg>
