<svg id="correo" xmlns="http://www.w3.org/2000/svg" width="49" height="49" viewBox="0 0 49 49">
  <rect id="Rectangle_4335" data-name="Rectangle 4335" width="49" height="49" rx="10" fill="#edf8e2"/>
  <path id="fi-rr-envelope_1_" data-name="fi-rr-envelope(1)" d="M17.616,42.667H4.636A4.641,4.641,0,0,0,0,47.3V58.427a4.641,4.641,0,0,0,4.635,4.635H17.616a4.641,4.641,0,0,0,4.635-4.635V47.3a4.641,4.641,0,0,0-4.635-4.635h0ZM4.636,44.521H17.616a2.782,2.782,0,0,1,2.571,1.731l.007.019-7.1,7.1a2.788,2.788,0,0,1-3.935,0l-7.1-7.1a2.787,2.787,0,0,1,2.577-1.749h0ZM17.616,61.209H4.636a2.781,2.781,0,0,1-2.781-2.781h0V48.693l5.993,5.989a4.642,4.642,0,0,0,6.556,0L20.4,48.693v9.734a2.781,2.781,0,0,1-2.781,2.781h0Z" transform="translate(13.499 -28.166)" fill="#73c914" stroke="#73c914" stroke-width="0.8"/>
</svg>
