<svg id="exportar" xmlns="http://www.w3.org/2000/svg" width="49" height="49" viewBox="0 0 49 49">
  <rect id="Rectangle_4506" data-name="Rectangle 4506" width="49" height="49" rx="10" fill="#edf8e2"/>
  <path id="file-chart-line" d="M8.347,15.413v1.813a.907.907,0,1,1-1.813,0V15.413a.907.907,0,1,1,1.813,0Zm6.347-2.72a.906.906,0,0,0-.907.907v3.627a.907.907,0,0,0,1.813,0V13.6A.906.906,0,0,0,14.693,12.693Zm-3.627-2.72a.907.907,0,0,0-.907.907v6.347a.907.907,0,0,0,1.813,0V10.88A.907.907,0,0,0,11.067,9.973Zm9.067-.467v7.72A4.538,4.538,0,0,1,15.6,21.76H6.533A4.538,4.538,0,0,1,2,17.227V4.533A4.538,4.538,0,0,1,6.533,0h4.094a6.308,6.308,0,0,1,4.488,1.859l3.159,3.161a6.3,6.3,0,0,1,1.86,4.488Zm-6.3-6.366a4.543,4.543,0,0,0-.953-.73V6.347a.908.908,0,0,0,.907.907h3.936a4.593,4.593,0,0,0-.73-.952L13.834,3.141ZM18.32,9.506c0-.148-.007-.295-.021-.44H13.787a2.723,2.723,0,0,1-2.72-2.72V1.834c-.145-.014-.292-.021-.44-.021H6.533a2.723,2.723,0,0,0-2.72,2.72V17.227a2.723,2.723,0,0,0,2.72,2.72H15.6a2.723,2.723,0,0,0,2.72-2.72Z" transform="translate(13.433 13.62)" fill="#73c914" stroke="#73c914" stroke-width="0.8"/>
</svg>
