<svg id="seguimiento" xmlns="http://www.w3.org/2000/svg" width="49" height="49" viewBox="0 0 49 49">
  <rect id="Rectangle_4335" data-name="Rectangle 4335" width="49" height="49" rx="10" fill="#edf8e2"/>
  <g id="Group_9603" data-name="Group 9603" transform="translate(-118.5 -832)">
    <path id="Path_38293" data-name="Path 38293" d="M62.949,8.646C59.108,5.035,54.784,2.476,49.2,2.408c-5.218.1-9.391,2.547-12.952,6.252-.157.164-.5.414-.328.578A6.794,6.794,0,0,0,37.6,10.547c.43.209.646-.414.926-.684,3.265-3.15,7.019-5.247,11.707-5.014,4.027.2,7.245,2.246,10.159,4.838,1.376,1.224,1.352,1.213,2.557-.133.325-.364.367-.563,0-.907" transform="translate(93.623 845.592)" fill="#73c914" stroke="#73c914" stroke-width="0.8"/>
    <path id="Path_38294" data-name="Path 38294" d="M46.171,5.172a5.429,5.429,0,0,0-5.228,5.252,5.457,5.457,0,0,0,5.263,5.23,5.534,5.534,0,0,0,5.325-5.2A5.489,5.489,0,0,0,46.171,5.172Z" transform="translate(97.035 848.42)" fill="none" stroke="#73c914" stroke-width="3"/>
  </g>
</svg>
